<svg xmlns="http://www.w3.org/2000/svg" height="480" width="640"><g><g fill-rule="evenodd"><path fill="#f00" d="M0 0h640v243.574H0z"/><path d="M0 236.428h640v243.574H0z"/></g><g><path d="M228.67 148.173c165.22 43.304 58.99 255.64-71.216 167.26l-8.817 13.545c76.628 54.658 152.57 10.66 173.9-46.358 22.297-58.788-7.52-141.48-92.51-150.03l-1.356 15.576z" fill-rule="evenodd" fill="#ffec00"/><path fill-rule="evenodd" fill="#ffec00" d="M169.805 330.713l21.718 10.116-10.13 21.697-21.72-10.116z"/><path fill-rule="evenodd" fill="#ffec00" d="M318.94 231.347h23.98v23.942h-23.98z"/><path fill-rule="evenodd" fill="#ffec00" d="M307.313 192.328l22.343-8.703 8.717 22.32-22.344 8.7z"/><path fill-rule="evenodd" fill="#ffec00" d="M281.32 163.386l17.035-16.845 16.87 17.013-17.037 16.845z"/><path fill-rule="evenodd" fill="#ffec00" d="M255.257 123.685l22.44 8.462-8.478 22.39-22.44-8.462z"/><path fill-rule="evenodd" fill="#ffec00" d="M316.25 270.177l22.272 8.894-8.91 22.224-22.27-8.894z"/><path fill-rule="evenodd" fill="#ffec00" d="M246.255 340.007l22.055-9.398 9.412 22.032-22.056 9.397z"/><path fill-rule="evenodd" fill="#ffec00" d="M206.72 342.83h23.98v23.94h-23.98z"/><path d="M248.01 226.893l-20.35-15.006-20.245 14.47 8.034-22.92-20.348-14.956 24.447-.17 8.567-22.55 7.782 22.702 24.7-.242-19.586 15.232 6.996 23.44z" fill-rule="evenodd" fill="#ffec00"/><path d="M336.03 346.376c-1.21.418-6.23 12.39-9.675 18.248 1.797.51 2.56.596 3.625 1.025 13.655 4.8 20.384 9.18 26.186 17.504 2.888 2.79 7.032 2.93 10.198.698 0 0 2.795-1.116 6.43-5.023 2.968-4.52 2.194-8.11-1.384-11.16-10.944-7.95-22.9-13.902-35.38-21.295z" fill-rule="evenodd" fill="#fe0"/><path d="M365.147 372.842c0 2.39-1.94 4.325-4.33 4.325s-4.33-1.936-4.33-4.325 1.938-4.325 4.33-4.325 4.33 1.937 4.33 4.325z" fill-rule="evenodd"/><path d="M343.77 359.17c0 2.39-1.94 4.325-4.33 4.325s-4.33-1.936-4.33-4.325 1.938-4.325 4.33-4.325 4.33 1.937 4.33 4.325z" fill-rule="evenodd"/><path d="M354.668 366.145c0 2.39-1.94 4.325-4.33 4.325s-4.33-1.936-4.33-4.325 1.938-4.325 4.33-4.325 4.33 1.937 4.33 4.325z" fill-rule="evenodd"/><path d="M324.47 363.667c-42.57-24.273-87.31-50.52-129.88-74.796-18.75-11.635-19.683-33.384-7.17-49.875 1.302-2.336 2.836-1.758 3.514-.523 1.463 8.028 5.97 16.324 11.37 21.495 44.693 28.383 87.732 55.804 131.71 85.613-3.448 5.767-6.104 12.322-9.55 18.087z" fill-rule="evenodd" fill="#fe0"/><path fill-rule="evenodd" fill="#ffec00" d="M297.123 305.4l17.852 15.984-16.004 17.826-17.852-15.984z"/><path d="M331.54 348.82L206.58 273.3" stroke="#000" stroke-width="2.288pt" fill="none"/><path d="M316.11 331.393l-42.24-27.28" stroke="#000" stroke-width="2.288pt" fill="none"/><path d="M292.08 346.8l-42.75-24.755" stroke="#000" stroke-width="2.288pt" fill="none"/></g></g></svg>