<svg xmlns="http://www.w3.org/2000/svg" height="480" width="640"><defs><clipPath id="a"><path fill-opacity=".67" d="M-90.533 0h682.67v512h-682.67z"/></clipPath></defs><g clip-path="url(#a)" fill-rule="evenodd"><path d="M-82 0l402 240-402 240z" fill="#00cf00"/><path d="M722 0L320 240l402 240z" fill="#00cf00"/><path d="M-82 0l402 240L722 0z" fill="#f00"/><path d="M-82 480l402-240 402 240z" fill="#f00"/><path d="M722 0h-74.908L-82.002 435.28v44.723h74.908L722 44.723z" fill="#fff"/><path d="M458.832 240.013c0 76.66-62.145 138.807-138.807 138.807S181.22 316.674 181.22 240.013s62.144-138.807 138.805-138.807 138.807 62.146 138.807 138.807z" fill="#fff"/><path d="M-82 0v44.722l729.094 435.28h74.908v-44.72L-7.092 0z" fill="#fff"/><path stroke="#00de00" stroke-width="NaN" fill="#f00" d="M347.343 187.67l-18.05.302-9.325 15.416-9.3-15.443-18.02-.384 8.722-15.772-8.668-15.82 18.022-.31 9.354-15.43 9.298 15.465 18.022.384-8.75 15.766z"/><path stroke="#00de00" stroke-width="NaN" fill="#f00" d="M286.874 292.314l-18.05.302-9.325 15.416-9.3-15.443-18.02-.385 8.72-15.773-8.667-15.82 18.022-.31 9.354-15.43 9.297 15.465 18.022.384-8.75 15.767z"/><path stroke="#00de00" stroke-width="NaN" fill="#f00" d="M409.283 292.314l-18.05.302-9.325 15.416-9.3-15.443-18.02-.385 8.722-15.773-8.668-15.82 18.022-.31 9.354-15.43 9.298 15.465 18.022.384-8.75 15.767z"/></g></svg>