<svg xmlns="http://www.w3.org/2000/svg" height="480" width="640"><defs><clipPath id="a"><path fill-opacity=".67" d="M0 0h640v480H0z"/></clipPath></defs><g clip-path="url(#a)"><path fill-rule="evenodd" fill="#c60000" d="M-40 0h720v480H-40z"/><path fill-rule="evenodd" fill="#003bb2" d="M-40 68.57h720v342.86H-40z"/><g><path d="M456.81 239.737c0 75.654-61.33 136.98-136.98 136.98-75.655 0-136.982-61.33-136.982-136.98 0-75.653 61.33-136.98 136.98-136.98 75.655 0 136.98 61.33 136.98 136.98z" fill-rule="evenodd" fill="#fff"/><g><g stroke="#000" fill-rule="evenodd"><path d="M345.32 195.51c1.38.174 2.865.206 4.64 0 1.474.34 2.56.96 3.645 1.416.61.963 1.46 2.38 2.32 3.114.373 1.168.923 1.658 1.657 2.83.182 1.156.633 2.316 0 3.398-.756.806-1.942 1.277-2.983 1.698-1.374.627-2.177.858-3.977 1.132-1.48.226-2.99.283-4.64.283-1.594-.242-2.823-.467-4.307-.565-1.475-.225-3.164-.34-4.64-.566-.957-.48-2.193-.872-3.313-1.133-.777-.633-1.902-1.352-2.982-1.982-.833-1.275-1.592-1.735-2.318-2.83-.66-.83-.974-1.9-.994-3.397.522-.91 1.385-1.79 1.988-2.548 1.034-.583 2.203-1.358 3.645-1.98 1.948-.06 2.708-.548 4.64-.568h4.97c1.125.097 1.68.95 2.65 1.7z" fill="#030"/><path d="M333.39 238.254c-1.324-6.51-3.313-22.645-3.313-29.722.332-5.38 24.19-23.778 24.853-25.76.663-1.982 12.923-16.985 14.912-21.514-4.97 3.114-13.255 16.7-14.912 18.117-1.657 1.415 3.645-14.154 1.988-18.965-1.656 5.66-4.307 20.097-6.295 21.513-.994.85-18.225 17.833-20.213 17.267-1.988-.566-7.29-3.397-6.296-5.095.994-1.7 14.25-12.172 14.912-15.852s1.656-12.456 2.982-13.305c1.325-.85 3.314-5.095 4.97-8.492-4.307 1.698-4.97 6.794-6.627 7.077-1.656.283-5.632-5.662-5.632-5.662s2.65 6.512 2.982 7.927c.332 1.416-1.325 10.757-2.32 11.89-.993 1.132-8.283 9.058-9.61 9.34-1.324.284-4.97-13.02-4.97-15.568s2.65-12.456 0-13.023c-1.656 0-1.988 11.606-2.982 11.606-.994 0-3.313-11.605-3.313-11.605s-1.326 5.378-.663 9.058c-1.988.283-7.29-6.794-7.29-6.794s9.94 14.72 11.93 15.286c1.987.85 3.975 11.606 3.644 12.172s-9.94-2.83-11.93-3.963c-1.987-1.132-5.964-13.587-5.964-13.587s1.99 12.172-.33 10.473c-2.32-1.698-5.965-3.113-7.954-5.66-1.988-2.55-.994-13.023-.994-13.023s-3.313 9.342-4.64 9.342c-1.324 0-5.632-12.455-5.632-12.455s.663 13.587 2.65 14.436c1.99.85 31.81 17.833 32.144 19.533.33 1.7 3.976 8.21 5.964 10.19-.33 3.68 1.326 27.46 1.988 33.12l5.965 1.7z" fill="#520900"/><path d="M276.067 158.428c.368 1.09.503 2.065 2.32 2.547 1.005.328 2.986.77 3.976 1.133 1.043.422 2.217.95 3.645 1.132 1.073.306 2.9.62 4.308.85 1.48.225 2.99.282 4.64.282 1.9-.29 2.747-.583 3.975-1.415.37-1.154.865-1.672.995-3.114.113-1.35.33-2.52.33-3.963-.305-.786-.355-2.61-.66-3.397-1.11-.93-1.404-1.47-3.315-1.98-1.488-.576-2.847-.568-4.64-.568-1.384.395-3.052.284-4.638.284h-4.64c-1.387.256-2.445.468-3.644 1.13-1.62.625-1.858 1.075-2.65 2.55-.585 1.495-.605 2.62 0 4.528z" fill="#030"/><path d="M276.73 170.034c0-.472-1.2.457-1.658.85-1.073.64-1.522 1.498-1.657 3.113-.498.882 0 2.332 0 3.68 0 1.56.012 2.65.994 3.397 1.113.586 1.65.85 3.644.85H287.332c1.174-.335 2.605-.503 3.977-.85 1.532-.694 2.6-.768 4.306-1.132.972-.72 2.316-1.462 3.977-1.7 1.9-.076 3.036-.643 4.307-1.414 1.635-.35 3.112-1.082 4.308-1.698.963-.56 1.654-1.26 2.32-2.265.675-1.347.892-2.192-.332-3.68-2.416-.75-1.215-1.562-2.982-2.265-.808-.417-2.69-.964-3.645-1.415-1.65.105-2.825.455-4.64.566-.937.402-2.86.284-4.308.284h-5.302c-1.585 0-3.253-.11-4.64.283-1.325.31-1.986.824-3.312 1.133-.874.507-2.29.92-3.314 1.415l3.314-1.415c-.874.507-2.29.92-4.64 2.264z" fill="#030"/><path d="M306.882 148.154c.66 0-1.034.577-1.656.965-.8 1.024-.89 1.946-1.326 2.897-.51.837-1.14 1.894-1.325 2.897-.625 1.087-.97 1.483-.994 2.897 0 1.115-.017 2.377.332 3.14 1.005.923 1.97 1.447 3.645 2.173 1.434.362 2.485.578 3.976.725h4.64c1.048.254 2.78.24 4.307.24 1.69-.46 2.33-1.044 3.976-1.206 1.814-.12 2.127-.673 2.983-1.69.794-.75 1.128-1.597 1.324-2.656 0-1.218-.15-2.266-.33-3.38-.8-.652-1.405-1.55-1.99-2.656-1.023-1.28-1.025-1.847-2.65-2.415-.792-.787-2.16-1.17-2.983-1.69-1.72-.09-3.027-.245-4.306-.724-1.528 0-3.26-.012-4.308.242-1.2 0-2.08.083-3.314.242z" fill="#030"/><path d="M331.072 146.255c-.196 0-.81.82-1.325 1.698-.865 1.176-.98 2.264-1.657 3.114-.264 1.266-.33 2.555-.33 3.963.15 1.414.635 1.925 1.655 2.548 1.535.745 2.262 1.09 3.977 1.415 1.482.098 2.547.283 4.308.283 1.585 0 3.253.112 4.64-.283 1.647 0 3.157-.057 4.638-.283.76-.55 2.396-1.044 3.313-1.415 1.092-1.13 1.614-2.252 2.32-3.114 0-1.67.016-2.645-.993-3.962-.72-1.086-1.584-1.585-2.65-2.548-1.338-.397-2.465-1.223-3.978-1.415H331.07z" fill="#030"/><path d="M355.925 154.747c-1.25.446-1.71.56-2.32 1.7-.92 1.21-1.46 1.777-2.32 2.547-.197 1.132-.724 2.36-1.325 3.113-.182 1.307-.33 2.536-.33 3.963.84 1.103 2.006 2.143 3.312 2.83 1.352.4 2.776 1.01 3.977 1.417 1.544.345 2.974.747 4.638.85 1.436.306 3.017.282 4.64.282 1.472-.275 2.735-.593 3.975-1.417.663-.883 1.424-1.877 1.657-3.396.548-1.405.107-3.24-.663-4.53-.405-1.27-.998-1.763-2.65-2.547-.915-.826-2.13-1.755-2.983-2.265-1.05-.78-2.416-.876-3.976-1.415-1.69-.32-2.256-.736-3.977-.85l3.978.85c-1.69-.32-2.256-.736-5.633-1.133z" fill="#030"/><path d="M324.976 166.153c-1.92.457-2.813 1.008-4.196 1.758 0 1.17.275 1.876.42 2.86.873.624 1.8 1.88 2.517 2.416.548.9 1.744 1.603 2.518 2.2 1.938.41 3.905.717 5.875 1.097 2.318 0 3.804.272 5.874.44 1.755.306 3.867.22 5.875.22 2.052 0 4.055-.018 5.873.22 1.942.18 3.376.575 5.455.66 1.195-.06 3.31-.15 5.036-.22 1.932-.46 2.767-.754 3.777-1.54.946-.6.84-1.487.84-2.637.404-1.184.527-1.98-.42-3.077-.027-1.184-.458-1.74-.84-2.858-.756-.794-1.422-1.142-2.936-1.54-1.377-.502-3.242-.79-4.616-1.318-1.873-.117-3.97-.27-5.455-.44-1.64-.572-3.007-.863-5.455-.88-2.398-.148-3.527-.297-5.455.22-2.013.076-3.818.287-5.036.66-1.548.063-3.85.13-5.035.44-1.868 0-2.517.17-4.196.22l4.196-.22c-1.868 0-2.517.17-4.616 1.32z" fill="#030"/><path d="M319.806 185.885c-.855-.108-3.438-.283-5.302-.283-1.74 0-3.156.098-4.64.566-1.586.26-2.76.688-3.975 1.132-1.007.407-2.18.82-2.983 1.416-.986.572-1.817 1.077-2.65 2.264-.892 1.092-.985 1.795-1.658 3.114v3.963c.116 1.298.325 2.42.993 3.68 1 .683 2.383.898 3.645 1.132 1.2.222 2.76.47 4.308.565 1.838 0 2.818.08 4.307.567 1.94-.062 2.31-.447 3.977-1.133 1.853-.628 2.957-.86 4.64-1.7 1.028-.693 1.706-1.866 2.318-3.113.934-1.288 1.575-2.53 2.32-3.68.36-1.227.33-2.578.33-3.963-.44-1.064-1.143-1.514-1.987-2.548-.917-.858-1.327-1.52-1.987-2.264l1.988 2.264c-.917-.858-1.327-1.52-3.644-1.98z" fill="#030"/><path d="M350.71 181.587c1.766.144 3.67.17 5.945 0 1.888.283 3.28.802 4.67 1.182.78.803 1.872 1.987 2.973 2.6.478.976 1.183 1.385 2.123 2.364.235.965.812 1.934 0 2.838-.967.674-2.488 1.067-3.82 1.418-1.76.524-2.79.717-5.096.946-1.898.19-3.833.237-5.945.237-2.044-.203-3.62-.392-5.52-.473-1.89-.188-4.055-.285-5.945-.473-1.228-.4-2.812-.728-4.246-.946-.997-.528-2.44-1.128-3.823-1.654-1.068-1.065-2.04-1.45-2.972-2.365-.846-.69-1.247-1.585-1.274-2.836.67-.76 1.776-1.495 2.55-2.128 1.324-.487 2.822-1.134 4.67-1.655 2.494-.048 3.47-.455 5.944-.472h6.37c1.44.08 2.152.793 3.396 1.42z" fill="#030"/></g><g fill-rule="evenodd" stroke="#000" stroke-width="3.711" fill="#006a00"><path d="M332.182 285.005l.72-1.13-2.155-.202 1.48-1.545-2.176-.56 2.062-1.588-2.193-.918 2.283-1.065-1.26-1.704 2.35.188-1.084-2.076 2.775.876-.15-2.864 2.046 1.828 1.423-2.62 1.288 2.243 2.2-2.675.882 1.912 3.412-1.865-.84 2.575 3.616-1.7-.626 2.92 3.42-1.686-1.217 2.782 3.506-.075-2.83 1.823 2.97.862-2.643 1.63 2.425 1.62c-7.28 3.703-12.926 5.13-21.683 3.013z"/><path d="M293.148 283.872l.72-1.13-2.155-.202 1.48-1.545-2.176-.56 2.06-1.588-2.192-.918 2.284-1.066-1.26-1.704 2.35.188-1.085-2.077 2.776.877-.15-2.864 2.047 1.828 1.422-2.618 1.287 2.242 2.2-2.675.88 1.91 3.413-1.864-.84 2.576 3.616-1.7-.626 2.92 3.42-1.686-1.217 2.783 3.506-.076-2.83 1.823 2.97.862-2.644 1.628 2.425 1.62c-7.28 3.704-12.925 5.132-21.682 3.014z"/><path d="M353.87 284.437l.72-1.13-2.155-.202 1.48-1.545-2.176-.56 2.06-1.588-2.193-.918 2.284-1.065-1.26-1.705 2.35.188-1.083-2.077 2.776.876-.15-2.864 2.046 1.828 1.42-2.62 1.29 2.243 2.2-2.676.88 1.912 3.412-1.865-.84 2.577 3.616-1.7-.626 2.92 3.42-1.686-1.217 2.784 3.506-.075-2.828 1.822 2.97.862-2.644 1.63 2.425 1.62c-7.28 3.703-12.926 5.13-21.683 3.013z"/><path d="M340.017 293.738l.535-1.267-2.146.26 1.216-1.835-2.22-.09 1.782-2-2.292-.438 2.078-1.536-1.495-1.41 2.334-.315-1.38-1.814 2.855.272-.584-2.788 2.287 1.363.996-2.882 1.605 1.933 1.75-3.104 1.154 1.696 3.063-2.565-.43 2.717 3.286-2.446-.168 3.01 3.1-2.39-.773 3 3.427-.82-2.497 2.397 3.044.216-2.345 2.168 2.625 1.078c-6.577 5.2-11.896 7.81-20.808 7.592z"/><path d="M368.328 293.5l.72-1.13-2.155-.2 1.48-1.546-2.176-.56 2.06-1.588-2.192-.918 2.284-1.065-1.26-1.704 2.35.187-1.085-2.077 2.776.876-.15-2.864 2.047 1.828 1.422-2.62 1.287 2.243 2.2-2.675.88 1.912 3.413-1.865-.84 2.576 3.616-1.7-.626 2.92 3.42-1.685-1.217 2.783 3.506-.075-2.83 1.823 2.97.862-2.644 1.63 2.425 1.62c-7.28 3.703-12.925 5.13-21.682 3.013z"/><path d="M351.944 295.203l.72-1.13-2.155-.202 1.478-1.544-2.175-.56 2.06-1.588-2.192-.918 2.285-1.065-1.26-1.704 2.35.19-1.084-2.078 2.777.876-.15-2.864 2.046 1.828 1.422-2.62 1.288 2.243 2.2-2.675.88 1.912 3.413-1.865-.84 2.576 3.616-1.7-.626 2.92 3.42-1.686-1.217 2.783 3.505-.075-2.83 1.823 2.97.862-2.643 1.63 2.425 1.62c-7.28 3.703-12.926 5.13-21.683 3.013z"/><path d="M276.763 283.872l.72-1.13-2.155-.202 1.48-1.545-2.176-.56 2.06-1.588-2.192-.918 2.284-1.066-1.26-1.704 2.35.188-1.084-2.077 2.776.877-.15-2.864 2.046 1.828 1.422-2.618 1.288 2.242 2.2-2.675.88 1.91 3.413-1.864-.84 2.576 3.616-1.7-.625 2.92 3.42-1.686L295.02 275l3.506-.076-2.83 1.823 2.97.862-2.643 1.628 2.426 1.62c-7.28 3.704-12.926 5.132-21.683 3.014z"/><path d="M262.908 293.173l.535-1.267-2.146.26 1.216-1.836-2.22-.09 1.782-2-2.292-.438 2.078-1.536-1.494-1.41 2.334-.316-1.38-1.814 2.856.27-.584-2.787 2.286 1.362.996-2.882 1.605 1.933 1.748-3.104 1.155 1.695 3.063-2.565-.43 2.717 3.286-2.446-.17 3.01 3.1-2.39-.772 3.002 3.428-.822-2.497 2.398 3.045.216-2.345 2.17 2.626 1.077c-6.577 5.2-11.896 7.812-20.808 7.593z"/><path d="M291.222 292.937l.72-1.13-2.155-.202 1.48-1.545-2.176-.56 2.062-1.588-2.193-.918 2.283-1.065-1.26-1.705 2.35.188-1.084-2.077 2.775.876-.15-2.864 2.046 1.828 1.423-2.62 1.288 2.243 2.2-2.676.882 1.912 3.412-1.865-.84 2.577 3.616-1.7-.626 2.92 3.42-1.686-1.217 2.784 3.506-.075-2.83 1.822 2.97.862-2.643 1.63 2.425 1.62c-7.28 3.703-12.926 5.13-21.683 3.013z"/><path d="M274.835 294.634l.72-1.13-2.155-.202 1.48-1.545-2.176-.56 2.06-1.588-2.192-.92 2.284-1.064-1.26-1.704 2.35.188-1.084-2.077 2.776.876-.15-2.865 2.046 1.828 1.422-2.62 1.288 2.243 2.2-2.675.88 1.913 3.413-1.865-.84 2.576 3.616-1.7-.626 2.92 3.42-1.686-1.217 2.783 3.506-.074-2.83 1.823 2.97.86-2.643 1.63 2.425 1.62c-7.28 3.704-12.926 5.132-21.683 3.014z"/><path d="M344.41 284.215l-1.712 1.008 4.294.54-3.335 1.3 4.25.897-4.518 1.25 4.204 1.255-4.846.697 2.143 1.89-4.687-.557 1.703 2.23-5.388-1.305-.357 2.864-3.698-2.134-3.468 2.374-2.076-2.425-5.047 2.306-1.33-2.034-7.3 1.314 2.284-2.423-7.673 1.118 1.937-2.796-7.28 1.135 3.097-2.57-7.077-.476 6.118-1.364-5.783-1.32 5.7-1.202-4.508-1.987c15.515-2.53 27.212-3.06 44.355.415z"/></g><path d="M356.34 196.48c0 22.512-18.995 6.66-38.298 6.66-19.302 0-36.632 17.517-39.962 0 0-9.19 25.655-23.312 44.957-23.312 14.308 1.666 36.634-4.196 33.303 16.652z" fill-rule="evenodd" transform="matrix(.273 0 0 .3 278.39 210.836)" stroke="#000" stroke-width="2.5" fill="#510800"/><path d="M356.34 196.48c0 22.512-18.995 6.66-38.298 6.66-19.302 0-36.632 17.517-39.962 0 0-9.19 25.655-23.312 44.957-23.312 14.308 1.666 36.634-4.196 33.303 16.652z" fill-rule="evenodd" transform="matrix(-.273 0 0 .3 369.376 209.47)" stroke="#000" stroke-width="2.5" fill="#ffc600"/><path d="M349.68 188.16c0 13.794-7.082 24.977-15.82 24.977-8.736 0-15.818-11.183-15.818-24.977s7.082-24.977 15.82-24.977c8.735 0 15.818 11.183 15.818 24.977z" fill-rule="evenodd" transform="matrix(.336 0 0 .328 277.66 205.155)" stroke="#000" stroke-width="2.5" fill="#520900"/><g fill-rule="evenodd" stroke="#000" stroke-width="1pt" transform="matrix(-.623 -.117 -.37 .623 523.129 93.618)"><path d="M323.854 237.913c4.35-1.966-24.35-33.243-30.096-48.406-5.748-15.164-5.44-15.61-7.676-22.71l-2.808 1.27c.718 4.603 14.137 40.962 27.38 59.9 3.74 5.43.56 15.656 4.775 13.752l8.424-3.807z" fill="#af8000"/><path d="M285.048 167.875L262 170.195s-4.3 3.836-2.29 11.827c2.008 7.99 7.985 11.104 7.985 11.104l20.193-16.393-2.84-8.858z" fill="#808080"/><rect ry="3.532" rx="3.532" transform="matrix(.844 -.297 .284 .885 -19.207 -255.61)" height="19.428" width="7.064" y="534.62" x="175.71" fill="#808080"/></g><path d="M244.77 87.42c7.322-5.948 11.157-3.72 17.65 3.1 9.322 9.815 41.317 58.855 46.312 63.019s4.24-6.418 10.344-1.388c3.032 3.727-10.437 17.026-13.737 14.57-6.412-5.022 3.914-5.376-.355-9.645-4.925-5.133-51.215-40.497-60.282-50.57-5.92-6.578-6.314-13.97.067-19.088z" fill-rule="evenodd" transform="matrix(.713 .16 .332 .528 132.518 68.139)" stroke="#000" stroke-width="1.25" fill="#923d09"/><g stroke="#000"><path d="M257.194 203.926c-1.99.902-5.54 9.408-6.882 9.34-2.13-.097-10.654-15.82-9.288-18.002.947-1.682 8.696 8.403 9.197 9 .087-1.753 2.043-10.41 3.625-12.227 1.87-1.9 4.123-.848 6.12-1.36.935-.58 2.412-2.867 3.045-5.094-1.048-.723-1.962-.506-2.984-2.173-.727-1.355-.305-9.57-.048-10.416 1.702-2.91-.694-1.495 4.996-1.853 8.226-.498 9.712 10.116 4.05 14.443.444 3.25 1.82 3.997 2.937 4.415 1.125.022 4.97-.155 7.11 2.548 4.277 5.01 1.144 6.305 1.966 7.303.918 1.15 2.287 4.044 2.802 5.774 1.34 1.02 12.734-1.02 14.912-.34 2.102.197 7.228 3.227 9.363 5.435-.456 2.884-30.913-1.552-31.906-.51-.762.682.346 10.452-.258 11.21-.213 1.848-14.918 1.19-16.078 1.19-.967-3.85-1.97-16.64-2.678-18.684z" fill-rule="evenodd" fill="#ffc600"/><path d="M258.66 172.97c-.238 3.64 1.096.473 5.908.473 9.326-.72 6.05 14.185 6.05 9.585 4.04-1.96 6.905-14.342-4.56-13.86-3.625 0-6.924 1.122-7.4 3.803z" fill-rule="evenodd"/><path d="M274.794 199.253c0 .343.035 1.623.168 2.378.09.764.31 1.65.505 2.21.07.907.422 1.054.504 2.037.313.463.448 1.213.506 2.038 0 .87-.14 1.542-.168 2.378-.098.726-.326 1.3-.337 2.208 0 .89.002 1.54.338 2.04v1.188" fill="none"/><path d="M275.636 195.177c-.117 0-.207 4.106-1.177 5.095-.21.656-.925 1.498-1.178 2.038-.338.502-.804 1.095-1.682 1.36h-2.354c-.937 0-1.51.01-2.187-.34-.3-.164-.512-.377-.673-.68" fill="none"/><path d="M263.864 203.16h-.168c.47 0 .22-.022-.673.34-.35.516-.76.738-1.345 1.018-.603.3-1.29.34-2.187.34-.847-.073-1.36-.345-1.85-.68-.815-.267-.97-.6-1.176-1.53v-2.377c.097-.72.28-1.3.505-1.867.083-.256.167-.144.167-.51" fill="none"/><path d="M250.073 204.348c.086 0 .536.525.84 1.02.52.186.654.757.842 1.188.135.546.336.583.336 1.36.34.755.447 1.428.506 2.207l-.505-2.208c.34.756.447 1.43.506 2.208" fill="none"/><path d="M259.996 190.76h.168c-.455 0-.222-.01.672.17.367.464.97.88 1.514 1.19.6.372 1.084.818 1.682 1.02l-1.682-1.02c.6.372 1.084.818 1.682 1.02" fill="none"/><path d="M271.936 190.08h-.17c.456 0 .225-.01-.67.17-.594.285-.96.59-1.515 1.02-.26.395-.657.47-.84 1.19-.318.172-.43.34-.504.848" fill="none"/><path d="M266.89 185.665H266.05c-.916 0-1.36.14-2.188.17-.714-.086-.885-.354-1.513-.51" fill="none"/><path d="M263.694 206.727c-.028.135-.334.868-.504 1.19-.307.51-.715 1-.84 1.697-.197.593-.31 1.27-.338 2.038-.153.715-.255 1.35.17 1.87.18.67.518 1.16.84 1.867.224 0 .168-.058.168.17" fill="none"/><path d="M269.077 207.065v.17c0-.458-.01-.225.17.68.23.818.433 1.507.84 2.038.22.672.47.92.504 1.868-.133.316-.167.667-.167 1.19" fill="none"/><path d="M269.918 214.03V214.88c-.184.246-.11.263-.337.34" fill="none"/><path d="M283.876 205.707v.17c0-.475.052-.19-.84.17-.723.13-1.604.21-2.187.34-.54.267-1.065.71-1.515 1.018-.403.353-.973.71-1.514 1.02-.605.306-.872.575-1.176 1.188-.183.247-.11.264-.336.34" fill="none"/><path d="M269.68 176.876c-.038-.037-.777-.39-1.573-.51-.57-.275-1.516-.15-2.098 0" fill="none"/><path d="M264.338 176.367h-.204c.55 0 .27.01-.816-.17-.853-.237-1.88-.17-2.856-.17-.287.08-.203.05-.203.34" fill="none"/><path d="M264.54 178.745v.17c0-.475.027-.223-.407.68-.157.603-.43 1.437-.204 1.867.535 0 .7-.056 1.02-.17" fill="none"/><path d="M261.34 182.842c-.077.37.853.813 2.077.99 1.224.177 2.28.02 2.356-.35s-.852-.813-2.076-.99c-1.224-.177-2.28-.02-2.356.35z" fill-rule="evenodd"/><path d="M265.91 176.76c-.056.24.617.53 1.503.648.885.116 1.647.015 1.7-.227s-.617-.53-1.502-.647c-.884-.116-1.646-.015-1.7.227z" fill-rule="evenodd"/><path d="M260.6 176.247c-.056.24.617.53 1.503.648.885.116 1.647.015 1.7-.227s-.617-.53-1.502-.648c-.884-.116-1.646-.015-1.7.227z" fill-rule="evenodd"/><path d="M269.75 202.735c0 .422.377.764.84.764.465 0 .842-.343.842-.765s-.377-.765-.84-.765c-.465 0-.842.342-.842.765z" fill-rule="evenodd"/><path d="M258.313 204.01c0 .28.263.51.588.51.327 0 .59-.23.59-.51s-.263-.51-.59-.51c-.324 0-.587.228-.587.51z" fill-rule="evenodd"/><path d="M262.854 186.005v.17c0-.57-.04-.21.84.68.753.364 1.044.748 1.346 1.358.352.786.473 1.35.505 2.208v1.36" fill="none"/><path d="M268.405 185.835c-.117 0-.3.464-.505 1.02-.375.446-.613 1.09-.672 1.868 0 .922-.158 1.316-.17 2.208v.68" fill="none"/><path d="M251.25 205.876c0 .098.524.297.84.68.638.087 1.205.17 2.018.17.123-.187.37-.25.673-.34" fill="none"/></g><g fill-rule="evenodd" stroke="#000" stroke-width="3.75" fill="#fff"><path d="M276.726 216.125l-18.445.22v1.55s-1.738 1.995-2.783 6.424c-1.044 4.428-2.088 21.038-2.088 21.038l-4.525 18.825s2.784 2.88 4.872 2.658c2.088-.22 8.353-1.77 8.353-1.993 0-.22.348-10.63 1.044-17.717.696-7.086 2.088-10.85 5.22-13.95 4.176 6.42 4.524 13.065 4.176 13.065s-.348 5.315-.696 9.302c-.348 3.986.348 9.522.348 9.522l12.18-.444s-.347-4.872-.696-8.637c-.348-3.765-1.41-5.537-1.74-9.745-.365-4.65-.878-7.09-1.392-14.617-.676-6.083-3.07-10.01-3.74-13.73-.183-.95.086-1.66-.088-1.772z"/><path d="M268.373 233.4s1.74-1.773 2.436-4.873.695-3.765.695-3.765"/><path d="M272.2 242.258l2.09 5.315"/><path d="M264.198 241.15l-2.436 7.307"/><path d="M253.408 266.84l2.437-10.852"/><path d="M276.726 217.232l-18.445.22"/><path d="M268.026 233.177c0-.222-1.044-3.987-1.044-3.987"/><path d="M274.985 217.232l1.74 11.295"/></g><g><path d="M435.436 239.834c0 63.42-51.416 114.837-114.838 114.837S205.76 303.256 205.76 239.835s51.417-114.838 114.838-114.838 114.838 51.416 114.838 114.838z" stroke="#006a00" stroke-width="2.8937500000000003" fill="none"/><g><path d="M446.313 215.39c14.457 12.33-2.862 24.66-10.842 24.66s-25.3-12.33-10.842-24.66c-3.614 12.33 10.843 15.413 10.843 21.58 0-6.166 14.458-9.25 10.843-21.58z" fill-rule="evenodd" fill="#006a00"/><path d="M336.61 432.28c35.433 124.02-53.15 106.3-53.15 141.73 0-35.433-88.582-17.717-53.15-141.73" stroke="#000" fill="none" transform="matrix(.203 0 0 .174 377.225 140.224)"/></g><g><path d="M310.714 111.728c13.89-13.04 24.197 5.542 23.297 13.483-.898 7.942-15.11 23.83-25.74 8.097 11.852 4.943 16.547-9.106 22.678-8.433-6.13-.673-7.565-15.396-20.234-13.146z" fill-rule="evenodd" fill="#006a00"/><path d="M336.61 432.28c35.433 124.02-53.15 106.3-53.15 141.73 0-35.433-88.582-17.717-53.15-141.73" stroke="#000" fill="none" transform="matrix(.023 -.203 .172 .019 228.092 171.898)"/></g><g><path d="M346.842 361.683c-10.063 16.157-24.798.85-25.972-7.052-1.173-7.9 8.468-26.893 22.783-14.42-12.72-1.736-13.642 13.04-19.737 13.96 6.095-.92 11.268 12.934 22.926 7.513z" fill-rule="evenodd" fill="#006a00"/><path d="M336.61 432.28c35.433 124.02-53.15 106.3-53.15 141.73 0-35.433-88.582-17.717-53.15-141.73" stroke="#000" fill="none" transform="matrix(.03 .201 -.171 .026 410.605 282.499)"/></g><g><path d="M194.345 246.875c-13.606-13.182 4.408-24.337 12.35-23.83 7.94.51 24.395 13.873 9.23 25.212 4.375-12.03-9.816-16.016-9.426-22.147-.39 6.13-14.972 8.274-12.155 20.765z" fill-rule="evenodd" fill="#006a00"/><path d="M336.61 432.28c35.433 124.02-53.15 106.3-53.15 141.73 0-35.433-88.582-17.717-53.15-141.73" stroke="#000" fill="none" transform="matrix(-.203 -.013 .011 -.173 257.761 326.086)"/></g><g><path d="M435.504 183.972c16.866 8.645 2.89 24.61-4.854 26.45-7.746 1.84-27.39-6.147-16.193-21.454-.674 12.81 14.067 12.472 15.484 18.46-1.416-5.987 11.907-12.312 5.564-23.456z" fill-rule="evenodd" fill="#006a00"/><path d="M336.61 432.28c35.433 124.02-53.15 106.3-53.15 141.73 0-35.433-88.582-17.717-53.15-141.73" stroke="#000" fill="none" transform="matrix(.198 -.047 .04 .169 351.201 126.788)"/></g><g><path d="M275.88 120.258c9-16.724 24.697-2.452 26.38 5.333 1.68 7.786-6.715 27.303-21.81 15.822 12.81.903 12.774-13.854 18.798-15.166-6.023 1.31-12.082-12.136-23.37-5.988z" fill-rule="evenodd" fill="#006a00"/><path d="M336.61 432.28c35.433 124.02-53.15 106.3-53.15 141.73 0-35.433-88.582-17.717-53.15-141.73" stroke="#000" fill="none" transform="matrix(-.043 -.199 .169 -.037 216.794 203.289)"/></g><g><path d="M383.8 347.304c-3.97 18.567-23.046 9.252-26.84 2.25-3.795-7.002-1.188-28.08 16.528-21.277-12.56 2.71-8.397 16.866-13.82 19.807 5.422-2.94 15.007 8.274 24.13-.78z" fill-rule="evenodd" fill="#006a00"/><path d="M336.61 432.28c35.433 124.02-53.15 106.3-53.15 141.73 0-35.433-88.582-17.717-53.15-141.73" stroke="#000" fill="none" transform="matrix(.097 .179 -.152 .082 416.782 251.223)"/></g><g><path d="M200.988 279.044c-17.15-8.15-3.614-24.554 4.093-26.627 7.707-2.074 27.622 5.332 16.85 20.993.3-12.844-14.457-12.065-16.052-18.018 1.594 5.953-11.57 12.685-4.89 23.652z" fill-rule="evenodd" fill="#006a00"/><path d="M336.61 432.28c35.433 124.02-53.15 106.3-53.15 141.73 0-35.433-88.582-17.717-53.15-141.73" stroke="#000" fill="none" transform="matrix(-.196 .053 -.045 -.168 286.53 333.878)"/></g><g><path d="M418.313 160.412c18.78 2.693 10.768 22.363 4.04 26.627-6.73 4.263-27.923 3.1-22.323-15.042 3.543 12.35 17.38 7.23 20.675 12.438-3.295-5.21 7.246-15.537-2.392-24.024z" fill-rule="evenodd" fill="#006a00"/><path d="M336.61 432.28c35.433 124.02-53.15 106.3-53.15 141.73 0-35.433-88.582-17.717-53.15-141.73" stroke="#000" fill="none" transform="matrix(.172 -.109 .093 .147 319.919 133.608)"/></g><g><path d="M246.135 137.426c4.75-18.354 23.36-8.204 26.84-1.045 3.482 7.16-.017 28.082-17.38 20.5 12.633-2.145 9.09-16.46 14.618-19.153-5.528 2.693-14.6-8.93-24.078-.3z" fill-rule="evenodd" fill="#006a00"/><path d="M336.61 432.28c35.433 124.02-53.15 106.3-53.15 141.73 0-35.433-88.582-17.717-53.15-141.73" stroke="#000" fill="none" transform="matrix(-.089 -.183 .156 -.076 208.604 231.93)"/></g><g><path d="M410.115 327.687c1.488 18.922-19.453 15.413-25.086 9.78-5.634-5.634-9.143-26.576 9.778-25.087-11.268 6.166-3.242 18.55-7.6 22.908 4.358-4.358 16.742 3.668 22.907-7.6z" fill-rule="evenodd" fill="#006a00"/><path d="M336.61 432.28c35.433 124.02-53.15 106.3-53.15 141.73 0-35.433-88.582-17.717-53.15-141.73" stroke="#000" fill="none" transform="matrix(.144 .144 -.122 .123 414.315 226.096)"/></g><g><path d="M213.57 305.965c-18.638-3.827-9.393-22.918-2.39-26.75 7-3.835 28.15-1.384 21.418 16.333-2.782-12.508-16.955-8.256-19.932-13.642 2.977 5.385-8.22 15.023.904 24.06z" fill-rule="evenodd" fill="#006a00"/><path d="M336.61 432.28c35.433 124.02-53.15 106.3-53.15 141.73 0-35.433-88.582-17.717-53.15-141.73" stroke="#000" fill="none" transform="matrix(-.178 .098 -.084 -.152 309.861 338.735)"/></g><g><path d="M393.51 137.857c18.85-2.41 16.205 18.7 10.807 24.608-5.4 5.907-26.186 10.435-25.476-8.557 6.627 10.967 18.674 2.34 23.21 6.484-4.536-4.145 2.976-16.92-8.54-22.535z" fill-rule="evenodd" fill="#006a00"/><path d="M336.61 432.28c35.433 124.02-53.15 106.3-53.15 141.73 0-35.433-88.582-17.717-53.15-141.73" stroke="#000" fill="none" transform="matrix(.137 -.15 .128 .117 291.492 138.159)"/></g><g><path d="M221.98 159.79c-.214-18.922 20.446-14.01 25.688-8.026 5.24 5.986 7.335 27.054-11.445 24.29 11.658-5.37 4.482-18.23 9.125-22.27-4.642 4.04-16.46-4.784-23.37 6.006z" fill-rule="evenodd" fill="#006a00"/><path d="M336.61 432.28c35.433 124.02-53.15 106.3-53.15 141.73 0-35.433-88.582-17.717-53.15-141.73" stroke="#000" fill="none" transform="matrix(-.134 -.153 .13 -.114 210.398 260.622)"/></g><g><path d="M428.233 300.775c5.953 18-15.197 19.49-22.004 15.342-6.807-4.146-15.202-23.634 3.507-26.61-9.46 8.61 1.275 18.744-1.914 23.99 3.19-5.245 17.114-.355 20.41-12.722z" fill-rule="evenodd" fill="#006a00"/><path d="M336.61 432.28c35.433 124.02-53.15 106.3-53.15 141.73 0-35.433-88.582-17.717-53.15-141.73" stroke="#000" fill="none" transform="matrix(.174 .106 -.09 .148 408.082 201.168)"/></g><g><path d="M234.488 329.934c-18.992 1.204-15.086-19.71-9.336-25.264 5.75-5.555 26.806-8.752 24.962 10.17-5.97-11.375-18.53-3.527-22.82-7.956 4.288 4.43-3.985 16.707 7.194 23.05z" fill-rule="evenodd" fill="#006a00"/><path d="M336.61 432.28c35.433 124.02-53.15 106.3-53.15 141.73 0-35.433-88.582-17.717-53.15-141.73" stroke="#000" fill="none" transform="matrix(-.146 .142 -.121 -.125 335.945 336.221)"/></g><g><path d="M367.85 121.37c18.072-5.954 19.632 15.196 15.485 22.003-4.146 6.806-23.705 15.2-26.75-3.508 8.68 9.46 18.83-1.275 24.112 1.914-5.28-3.19-.408-17.115-12.846-20.41z" fill-rule="evenodd" fill="#006a00"/><path d="M336.61 432.28c35.433 124.02-53.15 106.3-53.15 141.73 0-35.433-88.582-17.717-53.15-141.73" stroke="#000" fill="none" transform="matrix(.105 -.175 .148 .09 267.579 141.085)"/></g><g><path d="M204.72 190.144c-6.59-17.787 14.544-20.154 21.507-16.28 6.963 3.872 16.052 23.048-2.587 26.804 9.178-9.018-1.93-18.727 1.08-24.113-3.01 5.386-17.13 1.063-20 13.59z" fill-rule="evenodd" fill="#006a00"/><path d="M336.61 432.28c35.433 124.02-53.15 106.3-53.15 141.73 0-35.433-88.582-17.717-53.15-141.73" stroke="#000" fill="none" transform="matrix(-.178 -.099 .085 -.152 227.796 289.226)"/></g><g><path d="M440.553 278.184c7.937 17.29-12.942 21.186-20.178 17.822-7.237-3.364-17.77-21.862.513-26.964-8.45 9.673 3.366 18.567.78 24.166 2.586-5.598 16.99-2.303 18.885-15.024z" fill-rule="evenodd" fill="#006a00"/><path d="M336.61 432.28c35.433 124.02-53.15 106.3-53.15 141.73 0-35.433-88.582-17.717-53.15-141.73" stroke="#000" fill="none" transform="matrix(.185 .086 -.073 .157 409.348 180.986)"/></g><g><path d="M270.08 353.79c-17.434 7.51-20.848-13.482-17.327-20.64 3.52-7.16 22.217-17.24 26.893 1.186-9.46-8.7-18.602 2.906-24.13.177 5.527 2.728 1.913 17.06 14.563 19.276z" fill-rule="evenodd" fill="#006a00"/><path d="M336.61 432.28c35.433 124.02-53.15 106.3-53.15 141.73 0-35.433-88.582-17.717-53.15-141.73" stroke="#000" fill="none" transform="matrix(-.09 .183 -.155 -.077 367.412 325.526)"/></g><g><path d="M447.904 248.962c11.41 15.095-8.178 23.335-15.963 21.614-7.783-1.72-21.986-17.433-5.19-26.29-6.218 11.196 7.21 17.308 5.864 23.297 1.347-5.988 16.122-5.864 15.29-18.62z" fill-rule="evenodd" fill="#006a00"/><path d="M336.61 432.28c35.433 124.02-53.15 106.3-53.15 141.73 0-35.433-88.582-17.717-53.15-141.73" stroke="#000" fill="none" transform="matrix(.199 .044 -.038 .169 396.883 161.147)"/></g><g><path d="M339.23 114.018c16.3-9.71 22.318 10.645 19.736 18.195-2.582 7.55-19.807 19.967-26.752 2.32 10.453 7.39 18.036-5.296 23.848-3.312-5.81-1.983-4.04-16.653-16.832-17.202z" fill-rule="evenodd" fill="#006a00"/><path d="M336.61 432.28c35.433 124.02-53.15 106.3-53.15 141.73 0-35.433-88.582-17.717-53.15-141.73" stroke="#000" fill="none" transform="matrix(.066 -.193 .164 .056 245.985 154.827)"/></g><g><path d="M306.097 364.007c-15.52 10.842-23.095-9-21.1-16.707 1.995-7.706 18.23-21.313 26.52-4.234-11-6.608-17.59 6.573-23.545 5.014 5.953 1.558 5.315 16.3 18.125 15.927z" fill-rule="evenodd" fill="#006a00"/><path d="M336.61 432.28c35.433 124.02-53.15 106.3-53.15 141.73 0-35.433-88.582-17.717-53.15-141.73" stroke="#000" fill="none" transform="matrix(-.051 .197 -.168 -.044 395.428 316.766)"/></g><g><path d="M195.843 216.54c-10.488-15.874 9.553-22.87 17.22-20.64 7.667 2.23 20.906 18.905 3.614 26.7 6.875-10.825-6.165-17.823-4.464-23.74-1.7 5.916-16.44 4.835-16.37 17.68z" fill-rule="evenodd" fill="#006a00"/><path d="M336.61 432.28c35.433 124.02-53.15 106.3-53.15 141.73 0-35.433-88.582-17.717-53.15-141.73" stroke="#000" fill="none" transform="matrix(-.195 -.057 .048 -.167 240.944 307.969)"/></g></g><g stroke="#000"><path d="M388.77 205.498c2.007.902 5.584 9.408 6.937 9.34 2.148-.097 10.737-15.82 9.36-18.002-.954-1.682-8.763 8.403-9.268 9-.087-1.753-2.06-10.41-3.653-12.227-1.886-1.9-4.155-.85-6.17-1.36-.94-.58-2.43-2.868-3.066-5.095 1.056-.723 1.977-.506 3.008-2.173.732-1.355.307-9.57.047-10.416-1.714-2.91.7-1.495-5.034-1.853-8.29-.5-9.787 10.115-4.082 14.442-.447 3.25-1.834 3.997-2.96 4.415-1.13.022-5.008-.155-7.165 2.548-4.308 5.01-1.15 6.305-1.98 7.303-.925 1.153-2.305 4.046-2.823 5.776-1.35 1.02-12.834-1.02-15.03-.34-2.117.197-7.283 3.227-9.435 5.435.46 2.886 31.154-1.55 32.156-.508.768.682-.348 10.452.26 11.21.214 1.848 15.034 1.19 16.202 1.19.975-3.85 1.986-16.64 2.7-18.684z" fill-rule="evenodd" fill="#520900"/><path d="M387.112 174.546c.237 3.64-1.097.472-5.91.472-9.325-.72-6.05 14.185-6.05 9.585-4.038-1.96-6.904-14.342 4.562-13.86 3.624 0 6.923 1.122 7.398 3.803z" fill-rule="evenodd"/><path d="M370.878 200.814c0 .343-.035 1.623-.168 2.378-.09.763-.31 1.648-.505 2.208-.07.908-.422 1.055-.504 2.038-.31.463-.446 1.213-.504 2.038 0 .87.14 1.542.168 2.378.098.726.326 1.3.337 2.208 0 .89 0 1.54-.336 2.038v1.19" fill="none"/><path d="M370.036 196.738c.117 0 .207 4.106 1.177 5.095.21.656.924 1.498 1.177 2.038.338.503.804 1.096 1.682 1.36h2.354c.937 0 1.51.01 2.187-.34.3-.163.51-.376.672-.68" fill="none"/><path d="M381.808 204.72h.168c-.47 0-.22-.02.673.34.348.517.76.74 1.344 1.02.603.298 1.29.338 2.187.338.85-.072 1.362-.344 1.85-.68.817-.266.973-.598 1.178-1.528v-2.378c-.097-.72-.28-1.3-.505-1.868-.084-.256-.168-.144-.168-.51" fill="none"/><path d="M395.6 205.91c-.087 0-.537.525-.842 1.018-.52.187-.653.758-.84 1.19-.136.545-.337.582-.337 1.358-.338.756-.445 1.43-.504 2.208l.505-2.208c-.338.756-.445 1.43-.504 2.208" fill="none"/><path d="M385.676 192.322h-.168c.455 0 .222-.01-.672.17-.367.463-.97.878-1.514 1.19-.6.37-1.084.817-1.682 1.018l1.682-1.02c-.6.373-1.084.82-1.682 1.02" fill="none"/><path d="M373.736 191.642h.17c-.456 0-.225-.01.67.17.594.284.96.59 1.515 1.02.262.394.66.47.842 1.188.318.173.43.34.504.85" fill="none"/><path d="M378.782 187.226H379.623c.915 0 1.36.14 2.187.17.714-.086.885-.354 1.513-.51" fill="none"/><path d="M381.978 208.288c.028.135.334.868.504 1.19.307.51.715 1 .84 1.697.197.593.31 1.27.338 2.038.153.715.255 1.35-.17 1.87-.18.67-.518 1.16-.84 1.867-.224 0-.168-.057-.168.17" fill="none"/><path d="M376.595 208.626v.17c0-.458.01-.225-.17.68-.23.818-.433 1.507-.84 2.038-.22.672-.47.92-.504 1.868.135.315.17.666.17 1.19" fill="none"/><path d="M375.754 215.59V216.44c.184.247.11.264.337.34" fill="none"/><path d="M361.796 207.268v.17c0-.475-.052-.19.84.17.723.13 1.604.21 2.187.34.54.267 1.064.71 1.514 1.018.403.353.973.71 1.514 1.02.607.306.874.575 1.178 1.188.183.247.11.264.336.34" fill="none"/><path d="M376.345 178.434c.04-.037.78-.39 1.58-.51.57-.275 1.52-.15 2.104 0" fill="none"/><path d="M381.753 177.925h.205c-.553 0-.272.01.82-.17.856-.237 1.887-.17 2.867-.17.29.08.204.05.204.34" fill="none"/><path d="M381.55 180.303v.17c0-.475-.026-.223.41.68.157.603.432 1.437.204 1.867-.538 0-.704-.056-1.024-.17" fill="none"/><path d="M384.338 184.438c.078.37-.852.813-2.076.99-1.224.177-2.28.02-2.356-.35s.852-.813 2.076-.99c1.224-.177 2.28-.02 2.356.35z" fill-rule="evenodd"/><path d="M379.797 178.307c.055.244-.618.537-1.504.653-.885.117-1.647.013-1.7-.232s.617-.537 1.502-.653c.885-.117 1.647-.013 1.702.232z" fill-rule="evenodd"/><path d="M385.118 177.796c.055.244-.618.537-1.504.653-.885.116-1.647.012-1.7-.233s.617-.537 1.502-.653c.885-.117 1.647-.013 1.702.232z" fill-rule="evenodd"/><path d="M375.922 204.296c0 .422-.377.764-.84.764-.465 0-.842-.342-.842-.764s.377-.765.84-.765c.465 0 .842.343.842.766z" fill-rule="evenodd"/><path d="M387.36 205.57c0 .282-.264.51-.59.51-.325 0-.588-.228-.588-.51s.263-.51.59-.51c.324 0 .587.23.587.51z" fill-rule="evenodd"/><path d="M382.818 187.566v.17c0-.57.04-.21-.84.68-.753.364-1.044.748-1.346 1.358-.352.786-.473 1.35-.505 2.208v1.36" fill="none"/><path d="M377.267 187.396c.117 0 .3.464.505 1.02.375.446.613 1.09.672 1.868 0 .922.158 1.316.17 2.208v.68" fill="none"/><path d="M394.423 207.437c0 .098-.525.297-.84.68-.64.087-1.206.17-2.02.17-.122-.187-.37-.25-.672-.34" fill="none"/></g><g fill-rule="evenodd" stroke="#000" stroke-width="3.75" fill="#fff"><path d="M368.98 217.334l18.445.22v1.55s1.74 1.995 2.784 6.424c1.043 4.43 2.087 21.04 2.087 21.04l4.524 18.824s-2.783 2.88-4.87 2.658c-2.09-.222-8.354-1.772-8.354-1.994 0-.22-.348-10.63-1.044-17.717-.696-7.087-2.088-10.852-5.22-13.952-4.176 6.422-4.524 13.066-4.176 13.066s.348 5.315.696 9.302c.348 3.986-.348 9.522-.348 9.522l-12.18-.443s.347-4.872.696-8.637c.348-3.764 1.41-5.536 1.74-9.744.365-4.65.878-7.09 1.392-14.617.676-6.083 3.07-10.01 3.74-13.73.183-.95-.086-1.66.088-1.772z"/><path d="M377.333 234.608s-1.74-1.772-2.436-4.872-.696-3.765-.696-3.765"/><path d="M373.505 243.467l-2.088 5.315"/><path d="M381.508 242.358l2.436 7.308"/><path d="M392.298 268.05l-2.437-10.853"/><path d="M368.98 218.44l18.445.222"/><path d="M377.68 234.386c0-.222 1.044-3.987 1.044-3.987"/><path d="M370.72 218.44l-1.74 11.296"/></g><path d="M349.68 188.16c0 13.794-7.082 24.977-15.82 24.977-8.736 0-15.818-11.183-15.818-24.977s7.082-24.977 15.82-24.977c8.735 0 15.818 11.183 15.818 24.977z" fill-rule="evenodd" transform="matrix(.336 0 0 .328 143.172 205.84)" stroke="#000" stroke-width="2.5" fill="#ffc600"/><g><g fill-rule="evenodd" stroke="#000"><path d="M283.39 305.478s10.844-4.27 14.458-4.27c3.614 0 3.614 4.27 3.904 4.39l-.29 8.42h-18.07v-8.54z" fill="#00cfe6"/><path d="M301.463 326.83s0 4.27 3.614 4.27 7.23.12 10.843 0v-12.81h-14.457v8.54z" fill="#00cfe6"/><path d="M370.132 305.53s-10.843-4.268-14.457-4.268c-3.614 0-3.614 4.27-3.904 4.39l.29 8.42h18.072v-8.54z" fill="#00cfe6"/><path d="M352.06 326.88s0 4.268-3.613 4.268c-3.614 0-7.23.12-10.843 0v-12.81h14.457v8.54z" fill="#00cfe6"/><path d="M344.833 326.882s0 4.27 3.614 4.27h-10.842l7.228-4.27z" fill="#fff"/><path d="M380.975 305.53l-25.3 12.81s8.578 8.025 16.867 8.54c4.216 0 8.433-8.54 8.433-8.54v-12.81z" fill="#00cfe6"/><path d="M352.06 309.8c-.144-2.133.453-8.538 4.067-8.538h-11.294c-3.614 0-7.23 4.27-7.23 8.54l.29 8.538h14.168v-8.54z" fill="#fff"/><path d="M308.69 326.833s0 4.27-3.613 4.27h10.842l-7.23-4.27z" fill="#fff"/><path d="M272.55 305.477l25.298 12.81s-8.577 8.025-16.866 8.54c-4.216 0-8.433-8.54-8.433-8.54v-12.81z" fill="#00cfe6"/><path d="M301.463 309.748c.145-2.134-.452-8.54-4.066-8.54h11.294c3.615 0 7.23 4.27 7.23 8.54l-.29 8.54h-14.167v-8.54z" fill="#fff"/><path d="M265.344 305.288c-.023.244 3.59-8.296 10.82-8.296s36.14 17.08 50.575 17.08c14.478 0 40.116-17.488 47.005-17.08 6.89.41 10.918 8.956 10.843 8.54-.077-.417-3.615 12.81-3.615 12.81 0-4.27-3.614-8.54-7.228-8.54S352.06 326.88 326.74 326.88c-25.278 0-43.35-17.078-46.963-17.078-3.615 0-7.23 4.27-7.23 8.54l-7.204-13.054z" fill="#fff"/></g><path d="M363.117 314.156l-3.17-9.638 3.24-1.477.373 1.14-2.646 1.205.97 2.952 2.48-1.13.37 1.13-2.478 1.13 1.08 3.28 2.75-1.254.374 1.14-3.343 1.523z"/><path d="M349.534 320.44l-3.17-9.637.593-.27 2.796 8.5 2.206-1.007.374 1.14-2.8 1.275z"/><path d="M345.423 322.36l-3.17-9.638 3.022-1.378.375 1.138-2.43 1.107.982 2.983 2.102-.96.375 1.14-2.104.958 1.44 4.38-.593.27z"/><path d="M308.287 322.397l2.1-9.938 1.217.357-.04 7.46c-.003.695-.01 1.215-.017 1.558.146-.34.367-.84.662-1.496l2.922-6.486 1.09.32-2.1 9.94-.78-.23 1.757-8.32-3.534 7.797-.73-.214.018-8.98-1.787 8.46-.78-.23z"/><path d="M308.732 311.718l.77.38-1.906 5.468c-.33.95-.66 1.674-.988 2.17-.327.494-.725.832-1.195 1.015-.465.18-.977.13-1.538-.145-.544-.267-.937-.637-1.177-1.114-.24-.475-.333-1.038-.28-1.688.054-.654.256-1.482.605-2.485l1.906-5.47.768.38-1.903 5.462c-.286.82-.452 1.45-.496 1.888-.04.434.017.81.17 1.136.158.323.4.567.73.73.567.277 1.043.268 1.43-.032.385-.3.785-1.042 1.2-2.23l1.902-5.464z"/><path d="M292.526 304.888l.576.316-2.128 5.42c-.37.94-.714 1.663-1.03 2.165-.317.5-.674.852-1.072 1.06-.392.206-.798.19-1.218-.04-.41-.222-.684-.553-.824-1-.14-.444-.154-.983-.04-1.615.114-.637.367-1.45.757-2.446l2.13-5.42.575.315-2.126 5.413c-.32.815-.52 1.436-.604 1.862-.08.422-.075.783.013 1.087.09.302.26.522.507.658.424.232.808.19 1.15-.124.343-.315.745-1.06 1.208-2.24l2.126-5.412z"/><path d="M282.225 306.572l.585.194c-.16.485-.25.903-.278 1.258-.022.35.03.674.154.97.127.29.314.504.56.64.22.12.443.156.666.108.224-.048.424-.172.6-.37.18-.203.33-.45.442-.74.116-.294.177-.572.183-.833.008-.265-.05-.523-.174-.77-.078-.164-.277-.456-.597-.88-.318-.428-.522-.776-.61-1.048-.116-.348-.157-.724-.125-1.127.037-.403.14-.823.31-1.252.185-.475.42-.882.707-1.223.287-.345.592-.56.916-.64.324-.084.632-.044.925.116.323.177.563.445.72.805.16.358.222.79.184 1.298-.038.51-.16 1.04-.367 1.596l-.588-.213c.203-.608.278-1.11.225-1.508-.052-.397-.245-.685-.58-.868-.35-.19-.657-.193-.927-.003-.265.187-.474.474-.628.863-.13.336-.184.645-.156.923.026.28.228.662.604 1.15.38.482.626.855.733 1.12.155.392.216.814.185 1.268-.03.45-.144.926-.342 1.43-.196.5-.447.934-.754 1.306-.305.365-.63.605-.978.716-.343.107-.67.075-.98-.095-.395-.215-.678-.518-.848-.912-.17-.393-.232-.877-.19-1.456.045-.58.187-1.188.425-1.82z"/><path d="M366.23 306.836c-.524-1.598-.737-2.942-.634-4.026.1-1.09.467-1.778 1.1-2.066.412-.188.855-.146 1.327.128s.92.752 1.344 1.437c.424.677.795 1.497 1.112 2.462.32.976.517 1.893.587 2.75.07.852.003 1.558-.202 2.11-.207.546-.505.907-.894 1.085-.42.192-.87.145-1.346-.142-.475-.285-.924-.77-1.344-1.45s-.77-1.443-1.05-2.29zm-42.022 705.906c.38 1.16.828 2.01 1.337 2.55.51.534.985.7 1.424.5.445-.202.7-.707.765-1.515.068-.805-.103-1.83-.51-3.07-.26-.784-.546-1.44-.862-1.966-.315-.53-.644-.9-.988-1.112-.343-.217-.662-.258-.957-.123-.42.19-.68.668-.778 1.428-.098.756.09 1.86.568 3.31z"/><path d="M357.914 316.418l-3.17-9.638 1.986-.905c.4-.182.732-.233.998-.153.263.077.53.305.798.687.27.38.49.836.664 1.367.225.684.312 1.307.26 1.87-.05.563-.272 1.005-.66 1.33.21.09.383.195.516.315.286.263.59.616.914 1.058l1.642 2.27-.746.34-1.252-1.736c-.364-.502-.652-.877-.865-1.135-.214-.256-.386-.426-.515-.506-.128-.082-.246-.13-.353-.134-.078 0-.193.033-.346.103l-.687.313 1.407 4.282-.593.27zm-61.352 711.827l1.274-.58c.27-.124.463-.28.577-.468.113-.194.166-.438.16-.737-.01-.304-.066-.612-.168-.923-.15-.454-.35-.795-.602-1.018-.25-.225-.54-.262-.872-.11l-1.417.646 1.05 3.19z"/><path d="M351.14 314.022c-.526-1.598-.74-2.942-.636-4.025.1-1.09.467-1.78 1.1-2.066.412-.188.855-.146 1.327.128.473.274.92.752 1.345 1.437.424.678.795 1.498 1.112 2.463.32.977.518 1.894.588 2.75.07.852.003 1.558-.202 2.11-.207.546-.505.907-.894 1.085-.423.192-.87.146-1.348-.142-.475-.284-.924-.768-1.344-1.448-.42-.68-.77-1.445-1.048-2.29zm-68.153 698.72c.382 1.16.828 2.01 1.338 2.55.51.535.985.7 1.423.502.446-.204.702-.71.767-1.517.067-.804-.103-1.83-.51-3.07-.26-.784-.546-1.44-.862-1.965-.315-.532-.645-.903-.988-1.114-.343-.216-.663-.258-.958-.123-.42.19-.68.668-.777 1.428-.098.756.09 1.86.567 3.31z"/><path d="M316.738 324.726l1.2-10.152 2.34.383c.476.078.845.244 1.107.5.265.25.452.602.564 1.058.114.452.143.91.088 1.377-.05.434-.172.83-.362 1.19s-.445.632-.765.822c.357.242.61.595.76 1.06.153.468.194 1 .125 1.59-.056.474-.17.907-.345 1.298-.17.386-.358.676-.566.867-.208.192-.456.323-.744.392-.286.066-.627.068-1.024.003l-2.378-.39zm-98.968 703.422l1.35.22c.365.06.632.063.8.014.222-.068.4-.213.53-.43.138-.217.226-.505.268-.86.04-.337.025-.64-.044-.91-.07-.276-.19-.474-.363-.596-.172-.127-.483-.227-.93-.3l-1.247-.205-.363 3.068zm-.273-14.4l1.553.254c.266.044.456.058.567.045.197-.026.367-.093.51-.2.143-.11.27-.28.38-.51.112-.235.187-.515.225-.837.045-.38.024-.716-.062-1.013-.086-.302-.228-.526-.428-.67-.196-.15-.493-.257-.89-.322l-1.443-.236-.413 3.488z"/><path d="M324.47 325.71v-10.24h2.796c.56 0 .99.094 1.28.28.293.182.528.505.702.97.175.467.262.98.262 1.544 0 .727-.144 1.34-.434 1.838-.29.497-.736.813-1.342.95.22.17.39.34.504.508.243.363.474.817.692 1.362l1.097 2.787h-1.05l-.834-2.13c-.244-.617-.445-1.085-.602-1.413-.157-.325-.3-.554-.424-.683-.124-.13-.25-.223-.38-.273-.094-.032-.25-.05-.464-.05h-.967v4.55h-.834zm-94.596 702.47h1.794c.38 0 .68-.064.894-.188.215-.132.378-.335.49-.614.112-.285.168-.593.168-.923 0-.483-.11-.882-.327-1.194-.215-.31-.556-.467-1.023-.467h-1.996v3.388z"/><path d="M331.524 325.18l.886-10.565.885-.184 4.04 9.538-.936.195-1.18-2.9-2.595.542-.228 3.192-.872.182zm-89.098 704.213l2.105-.438-1.063-2.652c-.323-.808-.573-1.473-.75-1.998.016.662 0 1.328-.05 1.992l-.24 3.096z"/><path d="M292.056 315.497l3.684-9.382 1.634.894c.333.18.562.423.687.725.13.298.17.676.13 1.134-.04.455-.144.897-.314 1.33-.157.4-.356.748-.596 1.048s-.505.5-.795.608c.198.31.29.704.273 1.18-.015.48-.13.994-.344 1.54-.172.438-.377.824-.614 1.157-.232.328-.452.56-.66.695-.207.137-.427.205-.66.205-.23 0-.486-.076-.763-.228l-1.66-.908zM48.057 1747.178l.942.516c.256.14.453.203.592.194.183-.014.355-.112.514-.288.16-.176.306-.43.435-.758.123-.31.195-.603.218-.875.024-.277-.01-.493-.107-.65-.093-.16-.297-.324-.61-.495l-.87-.477-1.113 2.835zm-2.613-15.383l1.085.593c.186.102.323.158.41.17.153.02.297-.004.433-.073.137-.072.277-.205.424-.4.148-.197.28-.447.397-.745.137-.35.214-.675.23-.977.02-.306-.024-.55-.133-.733-.105-.187-.296-.356-.573-.508l-1.008-.552-1.266 3.224z"/></g><g><path d="M212.6 432.28v106.3c0 70.866 88.583 106.3 88.583 106.3s88.583-35.433 88.583-106.3v-106.3h-177.17z" fill-rule="evenodd" transform="matrix(.406 0 0 .383 201.06 45.179)" stroke="#000" stroke-width="1pt" fill="#00daec"/><path d="M212.6 432.28v106.3c0 8.858 1.384 17.163 3.806 24.914l84.777-42.63V432.28H212.6z" fill-rule="evenodd" transform="matrix(.406 0 0 .383 201.06 45.179)" stroke="#000" stroke-width="1pt" fill="#fff"/><path d="M212.6 432.28v106.3c0 8.858 1.384 17.163 3.806 24.914l84.777-42.63V432.28H212.6z" fill-rule="evenodd" transform="matrix(-.406 0 0 .383 445.829 45.179)" stroke="#000" stroke-width="1pt" fill="#fff300"/><g fill-rule="evenodd" transform="matrix(.406 0 0 .383 201.06 45.179)" stroke="#000" stroke-width="1.25"><path d="M227.86 458.382c3.835-2.438 6.604.038 11.726 6.368 7.358 9.105 34.796 51.14 38.582 55.248s1.8-3.5 6.417 1.482c2.47 3.337-4.25 9.48-6.71 6.97-4.815-5.048 1.738-2.845-1.6-6.856-3.88-4.774-38.51-40.598-45.743-49.825-4.72-6.025-6.025-11.31-2.673-13.388z" fill="#923d09"/><rect ry="1.293" rx="2.606" transform="matrix(.756 .655 -.586 .81 0 0)" height="66.045" width="5.212" y="181.35" x="495.52" fill="#af8000"/><path fill="#b0b0d4" d="M266.77 451.975l24.416 16.333-12.096 14.48-24.415-16.332z"/></g><g stroke="#000" fill-rule="evenodd" transform="matrix(.406 0 0 .383 201.06 45.179)"><path d="M385.112 528.567c4.885-2.105-27.333-35.603-33.785-51.842-6.452-16.24-6.108-16.717-8.617-24.322l-3.15 1.36c.805 4.93 15.87 43.87 30.735 64.15 4.198 5.82.63 16.77 5.36 14.73l9.457-4.076z" fill="#af8000"/><path d="M341.548 453.55l-25.872 2.485s-4.83 4.107-2.573 12.665c2.255 8.558 8.965 11.892 8.965 11.892l22.668-17.557-3.188-9.486z" fill="#808080"/><rect ry="3.532" rx="3.532" transform="rotate(-18.579)" height="19.428" width="7.064" y="534.62" x="175.71" fill="#808080"/><path d="M314.67 502.404c4.642 2.878 7.228 6.344 5.775 7.74-1.452 1.397-6.394.196-11.037-2.683-4.643-2.877-7.23-6.343-5.777-7.74s6.396-.195 11.04 2.684z" fill="#cf0000"/><path d="M371.608 467.492c.2 5.526 1.91 9.514 3.818 8.907 1.908-.607 3.292-5.58 3.09-11.105-.2-5.526-1.91-9.514-3.818-8.908s-3.292 5.58-3.09 11.105z" fill="#cf0000"/><path fill="#b0b0d4" d="M310.69 508.867l67.746-40.383 8.887 15.42-67.746 40.38z"/></g><path d="M231.36 591.4l8.83-7.065s1.767 8.83 7.065 8.83 8.83-7.652 8.83-7.652 0 7.653 5.888 7.653 10.597-7.653 10.597-7.064c0 .588.588 7.064 5.298 7.064s10.597-6.476 10.597-6.476.59 7.654 5.887 7.065c5.3-.59 7.065-8.242 7.653-7.653.59.588 4.12 7.653 8.242 7.064s10.01-6.476 10.01-6.476 1.176 7.065 5.886 7.065 6.476-6.476 6.476-6.476 2.353 5.297 6.474 5.297 10.597-5.887 10.597-5.887" transform="matrix(.388 0 0 .383 211.251 51.722)" stroke="#0072ff" stroke-width="1pt" fill="none"/><path d="M231.95 591.4c3.14-1.374 5.69.196 9.418-7.654 0 4.12 2.945 9.42 8.243 9.42s8.832-7.653 8.832-7.653 0 7.653 5.887 7.653 10.596-7.653 10.596-7.064c0 .588.588 7.064 5.298 7.064s10.597-6.476 10.597-6.476.59 7.654 5.888 7.065c5.3-.59 7.065-8.242 7.653-7.653.59.588 4.122 7.653 8.243 7.064 2.943-.59 10.01-7.065 10.01-7.065" transform="matrix(.406 0 0 .383 212.064 55.782)" stroke="#0072ff" stroke-width="1pt" fill="none"/><g fill-rule="evenodd"><path d="M305.54 350.62v18.84h14.717l-5.298-18.84h-9.42z" transform="matrix(.321 0 0 .286 236.521 162.175)" stroke="#000" stroke-width="1pt" fill="#fff"/><path d="M341.455 265.263c-.19.17-7.583 3.705-17.25 3.705s-13.46-1.01-14.407-1.684c-.948-.673-2.086-2.02-3.223-2.02-1.138 0-2.085.84-2.085.84s1.895.843 3.222 1.853 1.706 2.863 1.706 2.863l31.28.336s-.19-1.852-.19-2.862 1.137-2.525.947-3.03z"/><path d="M314.16 253.31h.757v15.657h-.758z"/><path d="M324.395 251.287h.76v17.847h-.76z"/><path d="M334.442 254.318h.758v14.65h-.758z"/><path stroke="#000" stroke-width=".768pt" fill="#fff" d="M299.07 342.37h18.84v8.83h-18.84z" transform="matrix(.321 0 0 .286 235.198 157.461)"/><path stroke="#000" stroke-width=".826pt" fill="#fff" d="M297.89 350.61h21.782v8.83H297.89z" transform="matrix(.321 0 0 .286 235.198 157.461)"/><path stroke="#000" stroke-width=".869pt" fill="#fff" d="M296.71 358.86h24.137v8.83H296.71z" transform="matrix(.321 0 0 .286 235.198 157.461)"/><path stroke="#000" stroke-width="1.029pt" fill="#fff" d="M266.17 334.72h23.837v12.527H266.17z" transform="matrix(.321 0 0 .286 235.198 157.461)"/><path stroke="#000" stroke-width="1.106pt" fill="#fff" d="M264.68 346.41h27.56v12.527h-27.56z" transform="matrix(.321 0 0 .286 235.198 157.461)"/><path stroke="#000" stroke-width="1.165pt" fill="#fff" d="M263.19 358.1h30.54v12.527h-30.54z" transform="matrix(.321 0 0 .286 235.198 157.461)"/><path stroke="#000" stroke-width=".984pt" fill="#fff" d="M260.21 368.28h36.5v15.307h-36.5z" transform="matrix(.321 0 0 .286 235.198 157.461)"/><path stroke="#000" stroke-width=".763pt" fill="#fff" d="M238.25 342.37h15.763v10.414H238.25z" transform="matrix(.321 0 0 .286 235.198 157.461)"/><path stroke="#000" stroke-width=".82pt" fill="#fff" d="M237.26 352.09h18.226v10.414H237.26z" transform="matrix(.321 0 0 .286 235.198 157.461)"/><path stroke="#000" stroke-width=".863pt" fill="#fff" d="M236.28 361.81h20.197v10.414H236.28z" transform="matrix(.321 0 0 .286 235.198 157.461)"/><path stroke="#000" stroke-width=".73pt" fill="#fff" d="M234.31 370.27h24.137v12.725H234.31z" transform="matrix(.321 0 0 .286 235.198 157.461)"/><path d="M220 377.51h9.876l10.597-33.374L220 377.51z" stroke="#000" stroke-width=".763pt" fill="#fff" transform="matrix(.321 0 0 .286 235.198 157.461)"/><path d="M314.388 253.575l.702.31-9.214 12.634-.7-.31z"/></g><path d="M231.36 591.4l8.83-7.065s1.767 8.83 7.065 8.83 8.83-7.652 8.83-7.652 0 7.653 5.888 7.653 10.597-7.653 10.597-7.064c0 .588.588 7.064 5.298 7.064s10.597-6.476 10.597-6.476.59 7.654 5.887 7.065c5.3-.59 7.065-8.242 7.653-7.653.59.588 4.12 7.653 8.242 7.064s10.01-6.476 10.01-6.476 1.176 7.065 5.886 7.065 6.476-6.476 6.476-6.476 2.353 5.297 6.474 5.297 7.065-7.064 7.065-7.064 1.176 6.476 4.12 6.476c2.943 0 6.476-6.477 6.476-6.477s1.177 8.242 4.12 7.653c2.944-.59 4.122-8.242 4.71-7.653.59.59 4.71 7.064 4.12 7.064" transform="matrix(.384 0 0 .383 207.933 46.985)" stroke="#0072ff" stroke-width="1pt" fill="none"/></g></g></g></g></svg>