<svg xmlns="http://www.w3.org/2000/svg" fill-opacity="14.118" height="480" width="640" fill="#28ff09"><defs><clipPath id="a"><path fill-opacity=".67" d="M-79.06 0h682.67v512H-79.06z"/></clipPath></defs><g clip-path="url(#a)"><g><path fill="#fff" d="M150.183 0H489.64v480.256H150.182z"/><path fill="#bf0a30" d="M-19.544 0h169.728v480.256H-19.544z"/><path fill="#bf0a30" d="M489.64 0h169.728v480.256H489.64z"/></g><path d="M200.97 231.947l-13.187 4.507 61.365 53.856c4.643 13.84-1.61 17.92-5.595 25.18l66.62-8.455-1.736 67.042 13.798-.396-3.01-66.485 66.685 7.905c-4.127-8.715-7.8-13.343-3.982-27.28l61.325-51.023-10.732-3.884c-8.773-6.77 3.792-32.61 5.688-48.917 0 0-35.808 12.314-38.154 5.87l-9.12-17.517-32.575 35.786c-3.56.852-5.076-.565-5.91-3.57l15.05-74.782-23.832 13.404c-1.995.853-3.99.117-5.305-2.208L315.44 94.986l-23.633 47.765c-1.782 1.713-3.565 1.91-5.045.747l-22.69-12.73 13.62 74.198c-1.083 2.945-3.68 3.774-6.73 2.18l-31.14-35.38c-4.074 6.528-6.835 17.19-12.22 19.58-5.384 2.238-23.418-4.52-35.506-7.16 4.13 14.902 17.04 39.66 8.87 47.773z" fill="#bf0a30"/></g></svg>