<svg xmlns="http://www.w3.org/2000/svg" height="480" width="640"><defs><clipPath id="a"><path fill-opacity=".67" d="M-85.333 0h682.67v512h-682.67z"/></clipPath></defs><g fill-rule="evenodd" clip-path="url(#a)"><path fill="#fff" d="M-40 157.774h720.28v161.21H-40z"/><path d="M-40 318.985h720.28v161.21H-40z"/><path fill="#f00" d="M-40 0h720.28v157.774H-40z"/><g><path d="M322.44-322.44h7.087l3.75 60.236-7.294 7.087-7.086-7.087 3.543-60.236z" transform="matrix(.587 -.031 .055 .735 141.205 488.285)" stroke="#fff" stroke-width="1pt" fill="#d7b900"/><path d="M322.44-322.44h7.087l3.75 60.236-7.294 7.087-7.086-7.087 3.543-60.236z" transform="matrix(.587 .022 -.04 .735 102.321 471.096)" stroke="#fff" stroke-width="1pt" fill="#d7b900"/><g stroke="#fff" stroke-width="4.824" fill="#d7b900"><path d="M368.045 198.935l4.57 81.496-9.14-6.52-4.572-74.976h9.142z"/><path d="M358.9 198.937l4.57 74.977-9.142-6.52-4.57-68.458h9.14z"/><path d="M349.75 198.95l4.57 68.457-9.14-6.52-4.572-61.937h9.142z"/><path d="M340.607 198.953l4.57 61.938-9.14-6.518-4.572-55.418h9.142z"/></g><g stroke="#fff" stroke-width="4.824" fill="#d7b900"><path d="M256.662 198.88l-4.075 81.495 8.15-6.52 4.074-74.977h-8.148z"/><path d="M264.8 198.88l-4.074 74.978 8.15-6.52 4.074-68.458h-8.15z"/><path d="M272.93 198.893l-4.074 68.458 8.15-6.52 4.075-61.936h-8.15z"/><path d="M281.417 199.756l-4.075 61.938 8.15-6.52 4.074-55.417h-8.15z"/></g><path d="M181.73 256.05c-1.004-1.312 19.847-18.646 55.28-18.646 53.15 0 61.307 18.646 96.74 18.646h152.02c35.434 0 45.724-18.646 98.873-18.646 35.433 0 52.168 18.293 53.15 18.646 0 0-17.717-.93-53.15-.93s-49.3 39.04-85.052 38.222c-26.787.818-144.23 0-179.66 0-35.432 0-47.485-37.292-82.92-37.292-35.432 0-56.283-1.312-55.28 0z" transform="matrix(.248 0 0 .184 210.863 151.841)" stroke="#d7b900" stroke-width="4.824" fill="#fff"/><path d="M400.39-109.84v3.543l3.543 3.543-3.543 3.543v3.543c-14.174 7.086-28.85 7.086-42.52 7.086-13.67 0-28.346 0-46.063-7.087v-3.544l-3.543-3.544 3.543-3.543v-3.543c14.173 3.543 28.347 7.086 46.063 7.086 17.717 0 28.347-3.543 42.52-7.086z" transform="matrix(1.281 0 0 1.165 -143.348 415.344)" stroke="#d7b900" stroke-width="1pt" fill="#fff"/><g transform="matrix(-1.029 .276 .295 .96 718.879 299.044)" stroke="#d7b900" fill="#fff"><rect transform="matrix(-.564 -.826 -.888 .459 0 0)" rx="2.395" ry="4.505" height="40.13" width="4.789" y="-406.53" x="-73.159"/><g><path d="M385.002-129.014l.94 8.38-5.263-5.12.938 8.38-5.262-5.12.94 8.38c-2.292-3.108-4.872-8.068-6.378-13.924 1.996-8.594 6.184-11.15 13.284-9.408 2.307 3.92 4.55 8.843 6.2 13.5l-5.4-5.068z"/><path d="M381.73-136.123l.938 8.38-5.262-5.12.94 8.38-5.263-5.12.94 8.38c-2.292-3.108-4.872-8.068-6.378-13.924 1.996-8.594 6.184-11.15 13.284-9.408 2.306 3.92 4.55 8.843 6.2 13.5l-5.4-5.068z"/><path d="M378.455-143.233l.94 8.38-5.263-5.12.94 8.38-5.263-5.12.938 8.38c-2.29-3.108-4.87-8.068-6.377-13.924 1.997-8.594 6.185-11.15 13.285-9.408 2.307 3.92 4.55 8.843 6.2 13.5l-5.4-5.068z"/><path d="M374.338-151.987l.94 8.38-5.263-5.12.94 8.38-5.263-5.12.94 8.38c-2.292-3.108-4.872-8.068-6.378-13.924 1.996-8.595 6.184-11.15 13.284-9.41 2.307 3.92 4.55 8.844 6.2 13.5l-5.4-5.067z"/><path d="M371.065-159.094l.94 8.38-5.263-5.12.94 8.38-5.263-5.12.938 8.38c-2.29-3.108-4.87-8.068-6.377-13.924 1.997-8.594 6.185-11.15 13.285-9.408 2.307 3.92 4.55 8.843 6.2 13.5l-5.4-5.068z"/><path d="M367.792-166.204l.94 8.38-5.263-5.12.938 8.38-5.262-5.12.94 8.38c-2.292-3.108-4.872-8.068-6.378-13.924 1.996-8.594 6.184-11.15 13.284-9.408 2.307 3.92 4.55 8.843 6.2 13.5l-5.4-5.068z"/></g><path d="M372.185-109.28c.954 2.162 1.17 4.345.483 4.876s-2.02-.79-2.973-2.95-1.17-4.344-.482-4.876 2.018.79 2.972 2.95z"/><path d="M386.245-116.423c.954 2.413 1.17 4.85.483 5.443s-2.02-.88-2.973-3.294-1.17-4.85-.482-5.442 2.018.88 2.972 3.293z"/><path d="M399.93-123.414c1.025 2.33 1.257 4.68.52 5.254s-2.167-.85-3.19-3.18-1.257-4.68-.52-5.253 2.167.85 3.19 3.18z"/></g><path d="M268.29 261.84s32.89-42.16 32.89-95.31c0 .002 70.866.002 70.866 0 0 53.15 34.308 95.31 35.434 88.585-17.717 0-53.15-17.717-70.866-53.15-17.716 35.434-50.608 59.875-68.324 59.875z" transform="matrix(.298 0 0 .184 210.282 157.629)" stroke="#d7b900" stroke-width="4.824" fill="#fff"/><path d="M253.46 240.41s47.94-58.726 47.94-111.88V53.946c0-17.717 23.97-18.646 35.954-18.646 17.717 0 35.954.93 35.954 18.646v74.584c0 53.15 47.94 111.88 47.94 111.88-35.433 0-54.193-39.15-71.91-74.584 0 17.717 4.994 53.862-12.723 71.58-17.716-17.718-11.246-53.863-11.246-71.58-17.718 35.433-36.476 74.584-71.91 74.584z" transform="matrix(.287 0 0 .184 214.299 158.142)" stroke="#d7b900" stroke-width="4.824" fill="#fff"/><path d="M283.12 77.953h53.15c0 17.716 0 35.433-17.717 35.433S283.12 95.67 283.12 77.953z" transform="matrix(.234 .075 -.052 .114 232.255 133.274)" stroke="#d7b900" stroke-width="5.909" fill="#fff"/><path d="M183.96 42.52c11.81 0 11.81 17.716 11.81 35.433-17.715 0-29.527-17.717-47.243 0 0-19.56 0-35.433 17.716-35.433h17.717z" transform="matrix(.351 .112 -.052 .114 241.326 138.492)" stroke="#d7b900" stroke-width="4.824" fill="#fff"/><path d="M336.61 69.094c0 4.892-3.966 8.858-8.858 8.858s-8.86-3.966-8.86-8.858 3.967-8.858 8.86-8.858 8.858 3.966 8.858 8.858z" transform="matrix(.234 .075 -.078 .172 237.899 131.125)" stroke="#d7b900" stroke-width="4.824" fill="#fff"/><path d="M322.44-322.44h7.087l3.75 60.236-7.294 7.087-7.086-7.087 3.543-60.236z" transform="matrix(.588 0 0 .736 119.019 478.636)" stroke="#fff" stroke-width="1pt" fill="#d7b900"/><g transform="matrix(1.122 .293 -.345 .955 -140.279 290.961)" stroke="#d7b900" fill="#fff"><rect transform="matrix(-.564 -.826 -.888 .459 0 0)" rx="2.395" ry="4.505" height="40.13" width="4.789" y="-406.53" x="-73.159"/><g><path d="M385.002-129.014l.94 8.38-5.263-5.12.938 8.38-5.262-5.12.94 8.38c-2.292-3.108-4.872-8.068-6.378-13.924 1.996-8.594 6.184-11.15 13.284-9.408 2.307 3.92 4.55 8.843 6.2 13.5l-5.4-5.068z"/><path d="M381.73-136.123l.938 8.38-5.262-5.12.94 8.38-5.263-5.12.94 8.38c-2.292-3.108-4.872-8.068-6.378-13.924 1.996-8.594 6.184-11.15 13.284-9.408 2.306 3.92 4.55 8.843 6.2 13.5l-5.4-5.068z"/><path d="M378.455-143.233l.94 8.38-5.263-5.12.94 8.38-5.263-5.12.938 8.38c-2.29-3.108-4.87-8.068-6.377-13.924 1.997-8.594 6.185-11.15 13.285-9.408 2.307 3.92 4.55 8.843 6.2 13.5l-5.4-5.068z"/><path d="M374.338-151.987l.94 8.38-5.263-5.12.94 8.38-5.263-5.12.94 8.38c-2.292-3.108-4.872-8.068-6.378-13.924 1.996-8.595 6.184-11.15 13.284-9.41 2.307 3.92 4.55 8.844 6.2 13.5l-5.4-5.067z"/><path d="M371.065-159.094l.94 8.38-5.263-5.12.94 8.38-5.263-5.12.938 8.38c-2.29-3.108-4.87-8.068-6.377-13.924 1.997-8.594 6.185-11.15 13.285-9.408 2.307 3.92 4.55 8.843 6.2 13.5l-5.4-5.068z"/><path d="M367.792-166.204l.94 8.38-5.263-5.12.938 8.38-5.262-5.12.94 8.38c-2.292-3.108-4.872-8.068-6.378-13.924 1.996-8.594 6.184-11.15 13.284-9.408 2.307 3.92 4.55 8.843 6.2 13.5l-5.4-5.068z"/></g><path d="M372.185-109.28c.954 2.162 1.17 4.345.483 4.876s-2.02-.79-2.973-2.95-1.17-4.344-.482-4.876 2.018.79 2.972 2.95z"/><path d="M386.245-116.423c.954 2.413 1.17 4.85.483 5.443s-2.02-.88-2.973-3.294-1.17-4.85-.482-5.442 2.018.88 2.972 3.293z"/><path d="M399.93-123.414c1.025 2.33 1.257 4.68.52 5.254s-2.167-.85-3.19-3.18-1.257-4.68-.52-5.253 2.167.85 3.19 3.18z"/></g><g><path d="M301.18 290.55c0 194.88 35.433 177.17 106.3 248.03 70.866-70.866 106.3-53.15 106.3-248.03-35.434 0-70.867 0-106.3-17.716-35.432 17.716-70.866 17.716-106.3 17.716z" transform="matrix(.239 0 0 .184 213.493 152.167)" stroke="#d7b900" stroke-width="4.824" fill="#fff"/><path d="M287.205 206.995c0 32.935 7.866 29.942 23.6 41.917 15.73-11.976 23.597-8.982 23.597-41.917-7.866 0-15.732 0-23.598-2.994-7.866 2.995-15.733 2.995-23.6 2.995z" fill="#d7b900"/><path d="M302.6 207.452v34.344l8.47 4.99 8.468-4.99v-34.344c-3.02-.38-5.936-1.066-8.455-1.856-2.8.84-5.655 1.502-8.482 1.856z" fill="#fff"/></g></g></g></svg>