<svg xmlns="http://www.w3.org/2000/svg" height="480" width="640" version="1"><defs><clipPath id="a"><path fill-opacity=".67" d="M0 0h682.67v512H0z"/></clipPath></defs><g clip-path="url(#a)"><g fill-rule="evenodd"><path fill="#3e9a00" d="M0 0h720.28v161.21H0z"/><path fill="#fff" d="M0 161.21h720.28v157.775H0z"/><path fill="#e32118" d="M0 318.985h720.28v161.21H0z"/><path d="M0 0v480.186l239.972-240.093L0 0z" fill="#5567e4"/></g><g><path d="M283.46 148.82v442.91c0 35.433 17.716 70.866 53.15 70.866h70.865c17.717 0 35.433 35.433 35.433 35.433s16.938-35.434 35.433-35.434h70.868c35.433 0 53.15-35.433 53.15-70.866V148.82h-318.9z" fill-rule="evenodd" transform="matrix(.223 0 0 .174 252.814 168.624)" stroke="#000" stroke-width="3.791" fill="#ccc"/><g><g><path d="M215.38 731.79c-18.02 0-35.738-17.717-35.738-35.433v-88.583c15.502 15.502 88.583 70.866 70.867 88.583-17.718 17.716-35.738 0-35.434 0s.304 35.433.304 35.433z" fill-rule="evenodd" transform="matrix(.225 0 0 .174 251.21 150.422)" stroke="#000" stroke-width="1pt" fill="#ccc"/><path d="M299.46 271.5c3.986-3.084 3.986 3.08 7.972 0l-3.986 18.495c-3.867-.58-4 0-6.234-3.083 0-3.083 0-12.934 2.248-15.413z" fill-rule="evenodd" fill="#ccc"/><path d="M215.38 731.79c-18.02 0-35.738-17.717-35.738-35.433v-88.583c15.502 15.502 88.583 70.866 70.867 88.583-17.718 17.716-35.738 0-35.434 0s.304 35.433.304 35.433z" fill-rule="evenodd" transform="matrix(-.225 0 0 .174 452.256 150.422)" stroke="#000" stroke-width="1pt" fill="#ccc"/><path d="M403.102 271.5c-3.986-3.084-3.986 3.08-7.972 0l3.986 18.495c3.867-.58 4 0 6.234-3.083 0-3.083 0-12.934-2.248-15.413z" fill-rule="evenodd" fill="#ccc"/><path d="M513.78 1140.9c0-17.71-35.433-53.14-35.433-70.86s35.433 17.72 106.3 17.72c70.866 0 106.3-88.588 88.582-106.3 17.716 35.434 17.716 70.864 17.716 88.584 0 35.43-35.433 70.86-106.3 70.86H513.78z" fill-rule="evenodd" transform="matrix(.225 0 0 .174 251.768 100.808)" stroke="#000" stroke-width="1pt" fill="#ccc"/><path d="M513.78 1140.9c0-17.71-35.433-53.14-35.433-70.86s35.433 17.72 106.3 17.72c70.866 0 106.3-88.588 88.582-106.3 17.716 35.434 17.716 70.864 17.716 88.584 0 35.43-35.433 70.86-106.3 70.86H513.78z" fill-rule="evenodd" transform="matrix(-.225 0 0 .174 451.08 100.808)" stroke="#000" stroke-width="1pt" fill="#ccc"/><path d="M335.337 296.155c0-3.082 7.972-6.166 7.972-9.25v15.414h-7.973v-6.165z" fill-rule="evenodd" fill="#ccc"/><path d="M367.225 296.155c0-3.082-7.972-6.166-7.972-9.25v15.414h7.972v-6.165z" fill-rule="evenodd" fill="#ccc"/><path d="M371.17 1034.6c0 17.71 141.73 17.71 141.73 0v70.87c0 17.71-141.73 17.71-141.73 0v-70.87z" fill-rule="evenodd" transform="matrix(.225 0 0 .174 251.965 116.219)" stroke="#000" stroke-width="1pt" fill="#ccc"/><path d="M249.63 696.36c-17.717 17.716-17.717-17.717-35.433 0-17.717 17.716 17.717 106.3 88.583 106.3s106.3-35.433 106.3-17.717c0 17.717-35.433 35.433-35.433 53.15s141.73 17.717 141.73 0-35.433-35.433-35.433-53.15c0-17.716 35.433 17.717 106.3 17.717 70.866 0 106.3-88.583 88.583-106.3-17.716-17.717-17.716 17.716-35.433 0" transform="matrix(.225 0 0 .174 251.407 150.422)" stroke="#000" stroke-width="1.25" fill="none"/></g><path d="M400.288 293.756l-4.1-6.818.714-.29 4.1 6.82-.714.288z"/><path d="M397.706 292.73l.857-.008c.22.82.227 1.498.02 2.036-.205.535-.6.9-1.184 1.09-.605.2-1.172.208-1.703.025-.53-.187-1.037-.542-1.524-1.064-.484-.524-.89-1.124-1.22-1.798-.362-.736-.564-1.413-.61-2.033-.045-.624.07-1.145.34-1.563.274-.422.657-.715 1.15-.878.562-.186 1.12-.16 1.68.072.558.234 1.072.652 1.54 1.255l-.623.457c-.38-.47-.753-.783-1.115-.936-.362-.153-.73-.167-1.105-.043-.43.142-.727.39-.89.746-.16.357-.192.774-.094 1.252.098.476.26.947.488 1.413.294.6.62 1.103.977 1.508.36.4.74.663 1.142.788.402.125.773.132 1.114.02.416-.138.693-.405.834-.802.14-.397.115-.91-.074-1.538z"/><path d="M392.722 297.66l-2.668-7.313.764-.188 2.668 7.31-.764.19z"/><path d="M387.55 298.422l-.697-6.71-1.977.14-.093-.9 4.756-.337.092.898-1.985.142.697 6.71-.794.057z"/><path d="M380.112 295.916l.753-.083c.035.38.118.694.247.94.132.242.334.438.608.59.275.15.583.224.926.224.304 0 .573-.057.806-.17.233-.115.406-.27.52-.47.114-.2.17-.417.17-.652 0-.24-.054-.447-.164-.623-.11-.18-.29-.33-.542-.452-.162-.08-.52-.202-1.073-.368-.555-.17-.943-.33-1.165-.478-.288-.19-.503-.425-.646-.706-.14-.283-.21-.6-.21-.95 0-.384.087-.74.26-1.074.173-.335.425-.59.757-.762.33-.173.7-.26 1.105-.26.447 0 .84.09 1.18.275.343.18.606.446.79.8.183.352.282.752.296 1.198l-.764.073c-.04-.48-.18-.845-.42-1.09-.235-.246-.585-.368-1.048-.368-.483 0-.835.112-1.057.337-.218.222-.328.49-.328.804 0 .274.078.5.234.676.154.177.554.358 1.2.545.65.184 1.097.345 1.338.484.35.204.61.463.777.778.168.31.252.67.252 1.08 0 .404-.092.787-.275 1.146-.184.357-.45.635-.794.837-.343.196-.73.295-1.16.295-.546 0-1.004-.1-1.373-.3-.368-.202-.657-.503-.87-.904-.207-.405-.317-.86-.328-1.37z"/><path d="M377.646 290.836l.798.03-.257 4.396c-.045.765-.15 1.37-.312 1.814-.164.445-.433.802-.81 1.072-.372.267-.85.39-1.43.368-.566-.02-1.02-.162-1.365-.42-.345-.26-.58-.625-.707-1.094-.126-.473-.165-1.113-.118-1.92l.257-4.395.797.03-.258 4.39c-.038.662-.018 1.15.06 1.47.08.315.232.562.458.74.23.18.515.275.858.288.586.022 1.014-.13 1.284-.456.27-.328.43-.97.487-1.923l.256-4.39z"/><path d="M368.094 295.766l.72-.124c.02.58.105.98.26 1.194.152.214.364.32.636.32.2 0 .373-.055.518-.17.146-.118.246-.275.3-.473.055-.2.083-.52.083-.955v-5.242h.8v5.186c0 .637-.063 1.13-.186 1.48-.12.348-.314.615-.58.798-.263.183-.574.275-.93.275-.53 0-.935-.192-1.217-.576-.28-.385-.414-.956-.403-1.714z"/><path d="M354.532 308.62v-1.056l3.088-5.505c.22-.393.428-.733.626-1.022h-3.365v-1.015h4.32v1.015l-3.385 5.964-.366.604h3.85v1.014h-4.768z"/><path d="M310.967 298.03l1.877-8.45.783.12-1.878 8.45-.783-.12z"/><path d="M302.41 294.43l4.94-7.56.722.317-1.086 7.16 3.88-5.936.674.297-4.94 7.56-.723-.317 1.09-7.165-3.883 5.94-.675-.296z"/><path d="M306.137 286.154l.565.462-4.282 3.512c-.746.61-1.385 1.056-1.92 1.336-.536.28-1.07.428-1.6.446-.524.017-.993-.143-1.404-.48-.4-.327-.607-.694-.62-1.098-.016-.405.148-.837.49-1.297.347-.462.913-1.015 1.698-1.66l4.282-3.51.565.463-4.276 3.507c-.643.528-1.085.945-1.324 1.253-.233.305-.35.595-.347.867.002.274.126.51.37.71.414.34.873.448 1.376.325.503-.124 1.22-.567 2.15-1.33l4.277-3.507z"/><path d="M314.755 298.802l.296-8.597 2.078.05c.47.01.826.06 1.07.148.34.122.63.334.863.637.306.39.526.887.662 1.488.138.598.194 1.28.168 2.046-.023.654-.096 1.23-.22 1.733-.125.502-.276.917-.455 1.245-.18.324-.372.58-.578.767-.204.18-.45.32-.734.41-.284.09-.608.132-.972.123l-2.175-.05zM35.398 1480.223l1.287.03c.398.01.71-.036.94-.137.23-.1.417-.244.558-.432.198-.266.357-.624.478-1.075.122-.454.195-1.006.217-1.654.03-.9-.05-1.592-.24-2.078-.19-.49-.43-.82-.72-.99-.21-.123-.552-.19-1.026-.2l-1.267-.03-.227 6.567z"/><path d="M320.427 298.768l2.316-8.597h.86l2.467 8.598h-.91l-.703-2.603h-2.52l-.663 2.603h-.847zM81.793 1477.722h2.044l-.63-2.38c-.19-.724-.334-1.318-.427-1.783-.077.55-.185 1.098-.325 1.64l-.662 2.523z"/><path d="M326.706 298.768v-8.597h2.077c.47 0 .827.042 1.074.124.346.114.64.32.884.616.32.383.556.874.713 1.472.16.594.238 1.275.238 2.04 0 .654-.052 1.232-.16 1.737-.106.503-.243.922-.41 1.254-.168.328-.352.588-.552.78-.197.187-.437.33-.72.428-.28.097-.6.146-.966.146h-2.176zm-96.048 590.228h1.287c.398 0 .71-.053.934-.16.226-.104.407-.253.542-.444.19-.27.336-.632.44-1.085.107-.458.16-1.01.16-1.66 0-.9-.103-1.59-.312-2.07-.206-.485-.457-.81-.753-.973-.214-.117-.558-.176-1.032-.176h-1.267v6.568z"/><path d="M343.777 308.62v-8.597h2.275c.4 0 .706.028.917.082.295.07.544.205.743.405.2.196.36.47.48.827.125.355.187.747.187 1.173 0 .73-.164 1.35-.49 1.858-.326.505-.916.757-1.768.757h-1.547v3.495h-.798zm-73.39 576.88h1.56c.515 0 .882-.136 1.098-.41.217-.273.325-.658.325-1.155 0-.36-.065-.666-.193-.92-.126-.26-.293-.43-.502-.51-.135-.052-.382-.077-.745-.077h-1.542v3.072z"/><path d="M348.734 308.62l2.315-8.597h.86l2.466 8.597h-.908l-.704-2.603h-2.52l-.663 2.603h-.846zm-54.025 577.86h2.043l-.628-2.38c-.192-.724-.335-1.318-.428-1.783-.077.55-.185 1.098-.325 1.64l-.663 2.523z"/><path d="M402.112 293.344l-4.016-7.362.636-.385 7.56 5.218-.674.407-2.256-1.6-1.867 1.13 1.245 2.212-.628.38zm101.703 593.29l1.514-.916-2.054-1.47c-.625-.446-1.126-.818-1.505-1.12.31.44.595.89.854 1.354l1.19 2.152z"/></g><path d="M419.16 331.78c.065 32.968 19.893 131.63-37.678 284.94-4.262 11.127 7.064 16.484 16.484 18.84 9.42 2.354 14.13-9.42 14.13-11.775s2.354 18.84 11.773 16.484c9.42-2.356 18.838-16.485 18.838-16.485s4.71 21.194 16.484 21.194 11.774-25.905 11.774-25.905c0 2.355 8.164 22.235 17.583 22.235 9.42 0 23.928-8.76 15.547-23.144-59.832-100.72-56.68-267.54-56.68-286.38 0-18.84 27.784-53.068 55.418-53.89l-10.675-16.755c-6.96 2.136-15.28 3.67-29.41 15.444s-22.397 24.59-22.397 24.59v-80.066h-23.548l2.355 73s-8.05-9.438-20.095-19.93c-11.4-9.935-31.972-9.2-44.637-7.12l-1.204 15.99c14.97 3.123 34.067-3.068 43.487 11.06 11.775 11.775 22.415 21.26 22.45 37.678z" fill-rule="evenodd" transform="matrix(.138 0 0 .139 292.76 189.501)" stroke="#000" stroke-width="5.029" fill="#682900"/><path d="M310.55 312.21v-.832c0 1.976-.067 1.1.833-2.498.777-2.848 2.407-5.523 4.163-7.493 3.04-1.014 7.44.053 10.823-.833 2.277-3.268 5.827 4.267 5.827-.833 4.343-.31 4.4-4.558 5.828-6.66 4.054-.5 4.963-5.44 8.326-2.496 2.757 1.305.407-.833 4.997-.833 2.713.664 4.13 2.32 6.66.833.62-2.85 1.4-6.268 1.665-9.99-1.177-2.356-.832-7.184-.832-10.824 2.274-3.033 6.262 2.475 9.99 1.664 1.018-3.562 4.146-3.466 2.498-6.66-.308-4.007-1.08-6.503 0-10.823 1.314-3.703 3.228-3.606 6.66-5.827 1.093-3.277-.122-6.03.833-9.99 3.902-.116 3.833-1.133 4.164-4.996 1.26-2.66 2.858-5.356 4.995-7.493 1.967-2.382 4.302-2.147 5.827-5.828 1.308-3.27 1.31-4.75 4.995-5.828 2.696-1.27 4.833-1.41 6.66-3.33 1.733-3.057 3.175-5.487 5.83-9.16 2.63-1.77 15.236 1.666 19.148 1.666 2.118-2.67 5.397-6.86 7.493-8.326 3.587-1.916 4.96-2.497 9.99-2.497 4.288 1.27 6.082 2.795 10.824 1.666 1.932-2.706 3.816-3.965 8.325-2.498 3.433 2.22 5.347 2.124 6.66 5.828 1.947 4.615 1.51 6.192 6.662 6.66 5.18.186 5.71 1.443 9.158 4.163 5.248 2.25 4.995.98 4.995 5.827 3.72 0 4.052-.44 4.163 3.33 2.294.714 4.907 2.72 6.66 4.163 2.094 2.416 2.63 3.93 7.494 4.163 3.59-1.508 4.75-1.496 4.995-5.828 2.75-.982 3.21-3.635 4.162-6.66 2.108-2.885 3.474-3.33 8.325-3.33 4.28 1.772 4.14 3.567 3.33 7.493 2.665.55 3.765.24 4.164 3.33 1.408 2.346 1.04 5.15-.832 6.66 2.132 1.568 3.37 4.256 4.163 7.493-1.41 2.353-.546 5.81 0 8.327 2.913 1.456 4.416 2.81 8.326 4.163 1.983 1.68 6.2 3.44 9.99 4.163 4.482-.606 5.962-.568 9.992 1.665 2.084 2.993 2.235 6.77 4.163 8.326 2.176 1.843 5.82 2.65 7.494 4.995 2.778 2.03 3.594 4.28 7.493 4.994 1.47 2.228 4.634 5.896 5.828 8.326.94 2.694 1.36 7.413 2.498 10.823v11.656c-.158 4.303-.833 6.915-.833 11.655-.74 2.384-1.665 3.3-1.665 6.66-1.582 3.527-2.93 6.49-4.995 9.16-.94 4.234-2.473 6.222-4.163 9.99.052 4.37.832 6.304.832 10.823-1.81 2.69-3.888 4.647-7.494 6.66-2.724 3.188-4.368 4.427-4.995 9.16-1.565 2.704-1.442 2.497-4.994 2.497-4.2 0-7.814.375-11.656.832-3.378 0-4.64.356-6.66-1.665-3.99-1.804-7.346-1.91-11.657-.833-2.325-1.595-3.258-2.498-7.493-2.498-3.16.427-5.965.832-9.99.832-2.496-2.79-3.898-3.33-8.326-3.33-2.356 1.178-7.184.833-10.824.833-3.82-1.043-4.313-2.63-5.828-5.828-2.605-1.236-3.635-3.04-7.493-3.332-3.64 0-8.47.345-10.824-.832-2.723-.327-5.586-1.027-7.493-2.498-1.556-2.288-3.54-4.272-5.828-5.828-3.698 0-5.864.355-7.493-1.665-2.732-2.157-4.89-5.564-8.326-7.493-3.062-2.43-5.136-3.916-6.66-8.326 0-3.943.78-4.874-3.33-4.995-2.756 2.813-4.01 3.33-9.16 3.33-3.388 0-6.93-.017-9.157-.83-3.682-2.09-5.03-3.014-9.16-3.332-2.584 1.645-6.007 3.547-9.99 4.163-3.405 1.967-5.437 2.38-6.66 5.83-3.146 2.567-4.99 4.077-9.16 5.827-2.315 2.21-4.525 2.59-5.827 6.66-.792 3.367-1.665 5.37-1.665 9.99.59 4.37.36 6.238-1.665 9.992-1.74 2.485-4.757 3.7-7.493 5.827-4.116.494-4.548.186-7.493-1.665-2.933-.977-6.266-1.78-9.99-2.498-4.497-.866-6.018-1.96-8.327-4.162l8.326 4.162c-4.496-.866-6.017-1.96-8.326-4.162-5.064-3.583-6.063-5.398-11.656-5.828-5.198.06-7.43.318-8.325 4.995 2.96.788.608 2.553-.834 3.33-2.078 1.85-5.41 3.367-8.326 4.162-1.328 1.328-1.072-1.1-3.33-1.665-3.448-1.842-4.89-3.226-8.326-4.163-1.683-2.97-3.584-5.274-5.828-8.326-1.734-2.818-3.382-3.838-5.828-6.66-1.17-1.754-4.16-1.83-5.827-3.33-1-3.002-3.168-8.57-2.497-11.656 1.68-1.586 2.632-7.243 4.995-8.326 3.367-2.525 4.635-.223 9.16 0 4.258 0-5.867-6.71-1.666-6.66 3.92-.666 4.387-2.595 5.827-4.996h9.99z" fill-rule="evenodd" transform="matrix(.191 0 0 .143 267.934 178.26)" stroke="#000" stroke-width="4.464" fill="#009200"/><path d="M382.98 253.1c.878.713 4.684 2.498 8.326 2.498 3.976.728 4.843 2.216 5.828 5.828 2.174 1.304 3.55 1.665 7.493 1.665 4.36.872 4.322 2.213 7.493 4.996" transform="matrix(.191 0 0 .174 267.934 168.045)" stroke="#006800" stroke-width="4.05" fill="none"/><path d="M358.84 299.72c1.812.266 8.154.832 12.488.832 3.333-1.924 4.912-3.24 7.493-4.995 3.944 0 5.32.36 7.495 1.665 2.105.702 7.052.963 9.158 1.665 0 1.11-.278.833.832.833" transform="matrix(.191 0 0 .174 267.934 168.045)" stroke="#006800" stroke-width="4.05" fill="none"/><path d="M391.31 286.4c.065-.025 3.252-1.946 5.828-2.498 2.835-1.976 5.946-2.94 9.158-4.163 2.117-.46 7.102-.45 8.326-.833" transform="matrix(.191 0 0 .174 267.934 168.045)" stroke="#006800" stroke-width="4.05" fill="none"/><path d="M432.1 273.91v.833c0-2.327-.104-1.09 1.665 3.33.874 4.078 1.95 7.526 3.33 10.823 2.455 3.83 4.058 5.547 7.493 7.493 2.94 2.315 5.164 4.723 8.326 5.827 2.202 1.963 5.106 3.584 8.325 4.996 4.27 0 7.557.686 11.655.832h2.498" transform="matrix(.191 0 0 .174 267.934 168.045)" stroke="#006800" stroke-width="4.05" fill="none"/><path d="M477.06 227.29v.833c0-2.247.055-1.105-.832 3.33-1.257 2.654-2.705 5.124-4.163 7.493-3.915 1.42-5.374 4.277-6.66 7.493-1.373 2.23-3.506 5.17-4.996 7.492-2.59 3.21-3.623 4.242-8.327 5.828" transform="matrix(.191 0 0 .174 267.934 168.045)" stroke="#006800" stroke-width="4.05" fill="none"/><path d="M510.36 244.77c0 .244-1.537 2.434-2.498 4.996-1.653 2.436-2.075 6.86-2.497 9.99 0 3.618.02 7.557.832 9.99 2.516 3.122 3.158 4.765 7.493 6.662l-7.49-6.66c2.516 3.12 3.158 4.764 7.493 6.66" transform="matrix(.191 0 0 .174 267.934 168.045)" stroke="#006800" stroke-width="4.05" fill="none"/><path d="M571.14 273.91v.833c0-2.61.217-1.006-4.163 2.497-3.252 3-5.572 5.416-8.325 7.493-4.732 1.255-5.455 1.182-9.99.833h-7.494" transform="matrix(.191 0 0 .174 267.934 168.045)" stroke="#006800" stroke-width="4.05" fill="none"/><path d="M582.8 337.19h-.832c2.327 0 1.09-.103-3.33 1.665-3.693.923-7.88.982-10.824 0-2.966-1.68-5.955-3.055-8.326-5.828-1.24-.93-1.42-1.306-2.497-1.665" transform="matrix(.191 0 0 .174 267.934 168.045)" stroke="#006800" stroke-width="4.05" fill="none"/><path d="M553.66 363v-.833c0 2.61.217 1.006-4.163-2.498-1.872-2.754-3.748-3.795-7.493-6.66-3.236-3.914-3.66-5.482-4.995-9.992-.357-3.323-1.456-6.734 0-9.158" transform="matrix(.191 0 0 .174 267.934 168.045)" stroke="#006800" stroke-width="4.05" fill="none"/><path d="M492.05 348.84c1.81 0 8.56-.16 11.656-.833 2.418-1.643 5.094-2.746 8.326-4.162 1.764-4.36 3.27-5.81 3.33-10.824" transform="matrix(.191 0 0 .174 267.934 168.045)" stroke="#006800" stroke-width="4.05" fill="none"/><path d="M441.26 323.87c-.652-1.483-3.544-7.436-4.995-10.823-.065-3.638-.833-6.285-.833-9.99" transform="matrix(.191 0 0 .174 267.934 168.045)" stroke="#006800" stroke-width="4.05" fill="none"/><path d="M328.86 350.51c.84.126 4.375.403 6.66 0 3.635-1.86 7.022-2.205 10.823-2.498 1.933-1.16 5.086-1.03 6.66-2.497 3.475-2.316 3.938-4.645 5.83-8.326.166-1.674.664-2.49.83-4.164" transform="matrix(.191 0 0 .174 267.934 168.045)" stroke="#006800" stroke-width="4.05" fill="none"/><path d="M383.81 338.02c-1.828 0-8.658.125-12.49-.833-1.966-1.273-3.362-3.364-4.994-4.995 1.11 0 .833.277.833-.833" transform="matrix(.191 0 0 .174 267.934 168.045)" stroke="#006800" stroke-width="4.05" fill="none"/><path d="M393.8 313.88c.353-.106 4.485-1.665 7.493-1.665 1.79-1.158 4.76-2.237 7.493-3.33 1.48-.797 2.504-1.787 4.163-2.498" transform="matrix(.191 0 0 .174 267.934 168.045)" stroke="#006800" stroke-width="4.05" fill="none"/><path d="M293.06 347.18h.833c-2.25 0-1.1.053 3.33-.833 5.18-.32 8.666-2.11 12.49-3.33 2.495-2.318 5.938-4.635 8.324-5.828 0-1.424-.34-1.275.833-1.666" transform="matrix(.191 0 0 .174 267.934 168.045)" stroke="#006800" stroke-width="4.05" fill="none"/><path d="M504.54 301.39h.833c-2.328 0-1.09-.103 3.33 1.665 3.517 1.346 6.695 1.78 9.99 2.498 2.994.73 4.128 1.665 8.326 1.665 4.19 1.826 5.103 2.397 8.325 4.995 2.465 1.168 4.22 1.665 8.326 1.665 2.18-1.206 6.162-2.61 8.326-3.33 1.21-.908 1.293-.55 1.665-1.665" transform="matrix(.191 0 0 .174 267.934 168.045)" stroke="#006800" stroke-width="4.05" fill="none"/><path d="M430.94 469.54v18.84c0 6.016-.557 11.276-2.355 16.483 0 5.875-.077 11.554-2.355 15.306-.4 5.617-1.177 10.478-1.177 16.483-1.705 5.116-1.504 12.044-2.355 17.662-.738 5.508-1.393 12.06-2.355 16.484-1.754 3.683-4.745 10.348-7.064 12.95-.29 5.085-1.533 7.588 0 11.775 1.64 4.922 1.176 10.85 1.176 16.484 1.537 4.61 1.178 10.003 1.178 15.305" transform="matrix(.191 0 0 .174 270.478 167.465)" stroke="#000" stroke-width="1pt" fill="none"/><path d="M436.82 493.08c.358 2.36 2.118 10.873 2.355 16.484v25.904c0 6.3.532 11.85 1.178 17.66-.084 6.944-1.346 9.54-4.71 15.308-.662 5.56-1.693 10.924-2.355 16.484-1.64 4.923-1.177 10.85-1.177 16.484 1.405 6.322 3.704 7.453 4.71 12.95 0 3.36.32 5.067 1.178 7.066" transform="matrix(.191 0 0 .174 270.478 167.465)" stroke="#000" stroke-width="1pt" fill="none"/><path d="M447.42 535.47c0 2.155-.14 12.532 1.178 16.484 0 6.023 1.106 10.544 1.177 16.484-.714 5.28-1.453 9.084-4.71 11.774-2.144 4.358-3.314 8.235-3.532 14.13 3.043 2.13 6.35 8.078 9.42 10.596 2.566 5.36 4.955 5.59 5.887 11.774 2.458 2.732-1.733 4.154 0 5.887 1.91 2.547.687 1.468 0 3.532" transform="matrix(.191 0 0 .174 270.478 167.465)" stroke="#000" stroke-width="1pt" fill="none"/><path fill-rule="evenodd" transform="matrix(.151 0 0 .138 346.609 186.222)" stroke="#000" stroke-width="3.125" fill="#ffd100" d="M93.248-106.57l15.982 25.596 30.16 1.046-14.17 26.642 14.17 26.642-30.16 1.045L93.248 0 77.262-25.6l-30.16-1.044 14.175-26.642-14.175-26.642 30.16-1.046z"/><path fill-rule="evenodd" transform="matrix(.151 0 0 .138 327.977 186.222)" stroke="#000" stroke-width="3.125" fill="#ffd100" d="M93.248-106.57l15.982 25.596 30.16 1.046-14.17 26.642 14.17 26.642-30.16 1.045L93.248 0 77.262-25.6l-30.16-1.044 14.175-26.642-14.175-26.642 30.16-1.046z"/><path fill-rule="evenodd" transform="matrix(.15 -.018 .02 .137 312.017 191.042)" stroke="#000" stroke-width="3.125" fill="#ffd100" d="M93.248-106.57l15.982 25.596 30.16 1.046-14.17 26.642 14.17 26.642-30.16 1.045L93.248 0 77.262-25.6l-30.16-1.044 14.175-26.642-14.175-26.642 30.16-1.046z"/><path fill-rule="evenodd" transform="matrix(-.15 -.018 -.02 .137 392.281 190.583)" stroke="#000" stroke-width="3.125" fill="#ffd100" d="M93.248-106.57l15.982 25.596 30.16 1.046-14.17 26.642 14.17 26.642-30.16 1.045L93.248 0 77.262-25.6l-30.16-1.044 14.175-26.642-14.175-26.642 30.16-1.046z"/><path fill-rule="evenodd" transform="matrix(-.143 -.046 -.05 .13 406.604 200.17)" stroke="#000" stroke-width="3.125" fill="#ffd100" d="M93.248-106.57l15.982 25.596 30.16 1.046-14.17 26.642 14.17 26.642-30.16 1.045L93.248 0 77.262-25.6l-30.16-1.044 14.175-26.642-14.175-26.642 30.16-1.046z"/><path fill-rule="evenodd" transform="matrix(.143 -.046 .05 .13 297.189 199.251)" stroke="#000" stroke-width="3.125" fill="#ffd100" d="M93.248-106.57l15.982 25.596 30.16 1.046-14.17 26.642 14.17 26.642-30.16 1.045L93.248 0 77.262-25.6l-30.16-1.044 14.175-26.642-14.175-26.642 30.16-1.046z"/></g></g></svg>