<svg xmlns="http://www.w3.org/2000/svg" height="480" width="640" version="1" xmlns:xlink="http://www.w3.org/1999/xlink"><defs><linearGradient id="b"><stop stop-color="#d5dfff" offset="0"/><stop stop-color="#fff" offset="1"/></linearGradient><linearGradient id="a"><stop stop-color="#474747" offset="0"/><stop stop-color="#f50" offset="1"/></linearGradient><linearGradient id="c" y2="173.45" xlink:href="#a" gradientUnits="userSpaceOnUse" x2="110.94" gradientTransform="matrix(1.51 0 0 .652 40.513 .006)" y1="218.47" x1="109.34"/><linearGradient id="d" y2="337.23" gradientUnits="userSpaceOnUse" x2="126.02" gradientTransform="matrix(1.232 0 0 .799 40.513 .006)" y1="316.38" x1="125.91"><stop stop-color="#b50000" offset="0"/><stop stop-color="#ffc500" offset="1"/></linearGradient><linearGradient id="e" y2="147.35" xlink:href="#b" gradientUnits="userSpaceOnUse" x2="456.4" gradientTransform="matrix(.559 0 0 1.761 40.513 .006)" y1="149.38" x1="407.87"/><linearGradient id="f" y2="102.99" xlink:href="#a" gradientUnits="userSpaceOnUse" x2="228.97" gradientTransform="matrix(.741 0 0 1.329 40.513 .006)" y1="102.99" x1="215.83"/><linearGradient id="g" y2="1003.7" xlink:href="#b" gradientUnits="userSpaceOnUse" x2="78.221" gradientTransform="matrix(2.563 0 0 .384 40.513 .006)" y1="1040.4" x1="117.6"/><linearGradient id="h" y2="226.38" xlink:href="#b" gradientUnits="userSpaceOnUse" x2="255.03" gradientTransform="matrix(.886 0 0 1.111 40.513 .006)" y1="245.98" x1="264.72"/></defs><g><path fill="#006" d="M0 0h640v480H0z"/><g><path fill="#fff" d="M0 0v32.946l403.223 261.736h50.755v-32.945L50.755 0H0zm453.978 0v32.945L50.755 294.68H0v-32.944L403.223 0h50.755z"/><path fill="#fff" d="M189.157 0v294.68h75.663V0h-75.663zm-353.315 98.227v98.227H289.82V98.227h-453.977z"/><path fill="#c00" d="M0 117.872v58.937h453.978V117.87H0zm204.29-223.744v294.68h45.398v-294.68H204.29z"/><path fill="#c00" d="M0 294.68l151.326-98.226h33.836L33.836 294.68H0zm0-559.36l151.326 98.226H117.49L0-242.716v-21.965zm268.816 362.907L420.142 0h33.836L302.652 98.227h-33.836zm-48.126 108.227L69.364 108.227H103.2l117.49 76.263v21.964z"/></g><g><path d="M463.75 349.947s-2.878 7.61-4.523 7.61c-1.646 0-7.61-3.29-7.61-3.29s-4.32 6.99-6.58 7.403c-2.263.41-8.227-1.03-8.227-1.03s-5.758 0-5.964-.82c-.206-.824.206-2.47.206-2.47s-8.227 6.582-10.078 6.17c-1.85-.41-8.02-8.226-8.02-8.226l-1.03 4.123-11.723-.413-10.283-6.584s-5.758 9.46-5.964 9.255c-.205-.206-10.077 2.262-10.077 2.262l-.617-1.85-6.582-3.908s5.14-7.2 5.14-7.405c0-.205-2.467-1.028-2.467-1.028l-3.7 3.085-7.61 4.935-7.61-3.496 3.292-6.168.41-4.525 5.965-9.05 73.008-70.95 35.99 66.427-5.347 19.948z" fill-rule="evenodd" stroke="#000" stroke-width="NaN" fill="#6a4c2d"/><path d="M515.62 354.25l19.003-.682-8.09-3.996 72.41-2.73-10.232-3.897-9.063-12.28-37.52-2.826s-2.827-2.145-7.407-1.073c-.195-2.923-3.704-6.724-3.704-6.724l-23.097-1.754-14.425 9.842 9.746 24.948 12.378 1.17z" fill-rule="evenodd" stroke="#000" stroke-width="NaN" fill="#fff"/><path d="M441.677 141.444l1.914-6.508s3.35-5.646 3.35-8.134c0-2.488 2.488-5.455 2.488-5.455s7.656-2.2 9.283 2.488c8.23-12.44 17.896-.574 17.896-.574l2.68-3.157 5.454-6.7s7.75 7.274 7.847 8.518 1.34.384 1.34.384l8.42-.67s3.998 3.13 3.16 9.092c2.967 1.75 5.645 12.057 5.645 12.057l-69.476-1.34z" fill-rule="evenodd" stroke="#000" stroke-width="NaN" fill="url(#c)"/><path d="M515.627 218.862c1.45-.893 6.028-2.344 5.47-9.04-.56-6.697-6.363-7.478-9.6-7.255-3.236.223-6.138 3.013-6.138 3.013l-10.717-6.808s5.358-33.82 11.05-35.94c5.406-3.896 6.362-5.58 6.362-6.474s-2.01-3.125-2.01-3.125l-34.934-4.13-33.037 3.907s-2.567 3.906-2.233 5.47.447 3.236 6.363 7.812c6.545 5.034 11.05 33.93 11.05 33.93s-9.265 4.578-9.822 4.02c-.557-.56-3.348-1.117-4.8-.893-1.45.222-6.25 2.677-6.25 9.04 0 6.36 4.8 10.045 4.8 10.045s31.587-3.684 36.275 5.022c4.576-10.49 34.6-6.808 38.172-8.594z" fill-rule="evenodd" stroke="#000" stroke-width="NaN" fill="#656263"/><path stroke-linejoin="round" d="M549.655 183.707s.35-3.67 2.972-5.42c2.622-1.747 20.102-2.62 24.298 0s5.768 15.56 5.768 15.56 2.622 4.544 2.797 7.865.524 5.593.524 5.593 13.985 18.18 14.16 34.612c1.573 11.187 1.223 41.078-3.147 52.44-.175 14.16-6.118 23.424-6.118 23.424s1.398 2.448 1.223 5.07c-.176 2.622-1.574 5.07-1.574 5.07l20.45 10.138-7.516-2.797s7.692 6.47 7.517 6.294c-.174-.175-8.564-4.02-8.564-4.02l5.07 5.07c-.176-.177-12.412-5.595-12.412-5.595s5.768 5.418 5.42 5.243c-.35-.175-9.265-4.37-9.265-4.37s5.592 5.943 5.418 5.594-8.042-3.496-8.042-3.496l.35 2.972s-6.293-.35-6.293-5.07c-3.146-1.747-5.244-4.195-5.244-4.195l-14.51-2.446-16.43-49.12 3.845-83.03 1.05-4.196-1.75-11.187z" stroke-opacity=".979" fill-rule="evenodd" stroke="#000" stroke-width="1.07625"/><path d="M538.674 449.053s-8.416-17.71-12.613-17.958c-3.786-7.218 13.16-66.233 45.94-69.597 18.022 1.485 1.482 20.776-10.367 14.84 1.48 5.193 7.405 12.613 7.405 12.613s-23.453 10.14-30.364 60.103z" fill-rule="evenodd" stroke="#000" stroke-width="NaN" fill="#fb0"/><path d="M425.833 451.635s6.966-20.152 11.196-20.4c4.228-.25-11.197-67.172-44.782-67.67-18.16 1.493-1.493 20.898 10.45 14.927-1.493 5.225-7.464 12.688-7.464 12.688s23.634 10.2 30.6 60.455z" fill-rule="evenodd" stroke="#000" stroke-width="NaN" fill="#fb0"/><g><path d="M456.642 325.756c-.08-.162-8.335 2.59-2.994 11.573.405-3.48 4.128-5.585 4.128-5.585s-5.665 6.717.323 12.382c.727-5.34 4.127-7.04 4.127-7.04s-4.208 12.382.08 14.89c.486-4.937 3.643-7.122 3.643-7.122s-3.804 11.088-.405 13.597c.405-4.21 3.237-6.07 3.237-6.07s-1.7 11.492 2.752 12.3c.08-4.044 3.318-8.01 3.318-8.01s-1.457 9.387 5.503 9.792c.08-3.56 1.376-7.608 1.376-7.608s3.157 9.955 7.77 8.336c-.08-2.913.08-8.417 0-8.417s2.914 9.47 8.416 7.69c-.81-2.672.325-5.828.325-5.828s2.914 5.908 8.175 3.965c.89-1.78-.244-5.26-.244-5.26s7.69 7.932 10.036 3.156c2.348-4.774-6.15-6.393-6.15-6.393h5.746s-1.86-4.856-9.63-5.908c2.67-1.214 5.422-.324 5.422-.324s-1.62-6.07-9.55-6.717c3.075-1.052 6.475-.324 6.475-.324s-1.054-5.745-9.794-7.364c1.376-1.538 5.098-1.053 5.098-1.053s-3.48-5.42-7.445-5.098-39.818-3.642-39.738-3.56z" fill-rule="evenodd" stroke="#000" stroke-width="NaN" fill="#00713d"/><g stroke="#3ec26d" stroke-linecap="round" stroke-width="1.25" fill="none"><path d="M492.004 354.973s3.156 1.538 3.075 2.914"/><path d="M493.872 352.47s4.046 2.83 3.965 4.935"/><path d="M497.426 351.006s3.237 2.023 3.4 5.18"/><path d="M502.848 352.305s1.618 3.48 1.05 4.128"/><path d="M506.092 354.164c.243 2.75-.244 2.994-.244 2.994"/><path d="M466.186 336.763s3.804 2.428 3.48 5.827"/><path d="M465.945 339.68s1.78 1.7 1.377 2.833"/><path d="M470.644 336.85s2.51 3.48 1.7 5.907"/><path d="M474.93 339.112s1.133 2.186.08 3.4"/><path d="M476.952 340.162s1.376 2.185.162 2.913"/><path d="M475.42 347.366s3.56.81 4.047 3.48"/><path d="M477.52 344.94s3.722.24 4.128 4.207"/><path d="M482.46 343.562c.08 0 2.51 4.29 2.104 5.664"/><path d="M487.236 343.966s.972 4.128.243 5.422"/><path d="M490.31 345.584c0 .08.08 4.775.08 4.775"/><path d="M485.62 339.112s2.345.89 2.184 3.157"/><path d="M487.796 337.004s2.994 1.7 2.67 4.937"/><path d="M491.28 335.636s2.592 3.075 1.62 6.474"/><path d="M495.808 336.36s-.972 3.802-.567 5.34"/><path d="M498.562 338.95s-1.7 1.294-.81 2.913"/><path d="M483.837 353.76s.566 2.913 0 3.398"/><path d="M480.11 352.064s1.862 3.237 1.214 4.856"/><path d="M476.143 351.9s2.105 2.43 2.024 4.37"/><path d="M472.908 352.383s1.942 1.86 1.78 2.913"/><path d="M471.212 355.214s1.862 1.942 1.78 2.347"/></g></g><path d="M430.954 222.356c8.922-.16 17.844-.318 26.767-.477 0 0 17.687 0 19.6 5.734 3.344-7.648 18.64-7.17 18.64-7.17l27.723-.955.48 66.917c-5.42 25.97-24.22 44.294-44.933 52.1-24.695-7.966-40.31-28.838-45.41-52.578l-2.866-63.574z" fill-rule="evenodd" stroke="#000" stroke-width="NaN" fill="#fff"/><path d="M440.49 222.107l38.99 103.907 35.224-106.17c-10.926.704-34.37-1.72-37.283 8.25-4.506-8.924-29.17-5.326-36.93-5.986z" fill-rule="evenodd" stroke="#000" stroke-width="NaN" fill="#006b00"/><path d="M467.03 278.363c1.5.785 1.458-28.2 3.427-29.1.563-2.4.846-3.45 1.55-6-1.69-3-9.287-2.85-12.1-.3 1.265 4.05 1.828 5.4 1.828 5.4 3.8 6.15 3.044 30.654 5.295 30z" fill-rule="evenodd" stroke="#006b00" stroke-linecap="round" stroke-width="0.5932289999999999" fill="#ffc900"/><path stroke-linejoin="round" d="M456.582 54.342s2.755-3.13 2.88-3.882c.125-.75 12.52-1.252 19.907-15.024 4.13-7.262 0-3.005 0-3.005l-.252-3.504s5.134-4.883 3.256-7.512c-1.878-2.63-1.252 3.38-4.257 3.255-3.005-.126-1.377-6.512-1.377-6.512s-.25-.75-1.127-1.126c-1.252.125-.877 2.378-2.003 2.63-1.127.25-2.128-5.26-2.128-5.26s-1.878-2.504-3.506 5.384c.876 8.388 6.26 6.76 6.26 12.27 0 5.508-4.758 9.765-6.135 9.89-1.377.125-.876-4.632-.876-4.632s-.75-2.254-1.25-2.254 2.753-.5 2.253-6.76c-1.128-7.513-2.004 1.752-4.007 1.376s-.5-6.886.25-7.637-.877-3.882-5.26 4.13c-.374 3.882-.875-1-1.75-.75-1.503 3.13-1.253 5.383.875 8.263 3.13 2.88 5.134 5.76 5.008 7.262-.125 1.502-1.752 4.882-4.006 4.882s.125-4.13 0-5.508c-.126-1.38-3.88-6.387-3.88-6.387s-2.63-4.257-2.38-4.382c.25-.124-.25-.75-1.503 3.632s-2.754-2.88-2.754-2.88-1.752 5.384 2.003 8.64c-2.88-.376-3.13.75-3.13.75 0 1.503 3.88 2.13 4.382 4.758s-4.006 4.132-4.006 4.132 1.877 2.63 7.135-2.504c.126 3.255-2.003 5.508-2.003 5.508 1.753.793 3.13.71 3.38 2.755z" fill-rule="evenodd" stroke="#000" stroke-width="1.07625" fill="#cdad56"/><path stroke-linejoin="round" d="M439.405 54.342s-2.34-3.475-2.446-4.158c-.107-.684-11.51.864-16.908-13.045-3.51-6.61 0-2.735 0-2.735l.213-3.19s-3.734-4.568-2.14-6.96c1.595-2.393.94 3.075 2.99 3.086 2.552-.112 1.17-5.923 1.17-5.923s.212-.683.957-1.025c1.062.114 1.495 3.542 2.453 3.77.956.227 2.933-4.034 3.56-4.91.876-.126.843-3.53 2.226 3.646-.743 7.633-7.068 6.152-7.068 11.165 0 5.013 4.04 8.886 5.21 9 1.17.114.744-4.215.744-4.215s.637-2.05 1.062-2.05c.426 0-3.715.795-3.29-4.9.957-5.334 3.08.342 4.78 0 1.702-.342-.2-5.64.288-6.45.113-.807 2.622-4.28 3.59 3.385.32 3.532 2.246-3.04 2.99-2.812 1.277 2.85-.564 6.653-2.37 9.273-2.66 2.62-3.86 5.49-3.753 6.86.105 1.366.736 3.064 2.65 3.064 1.915 0 .646-2.382.752-3.635.106-1.253 3.296-5.31 3.296-5.31.627-1 .106-2.87.77-3.736 1.04.01 1.465-1.435 2.528 2.552 1.063 3.988 2.34-2.62 2.34-2.62s1.487 4.9-1.702 7.86c2.446-.34 2.657.684 2.657.684 0 1.367-1.166 1.937-1.592 4.33-.425 2.392 1.274 3.76 1.274 3.76s-1.594 2.39-6.06-2.28c-.107 2.963 1.7 5.013 1.7 5.013-1.488.722-2.656.646-2.87 2.507z" fill-rule="evenodd" stroke="#000" stroke-width="0.9462389999999999" fill="#cdad56"/><path d="M508.2 237.606c-2.332-2.116-2.61-.268-3.756-.74-.562-.237-1.003-.764-1.49-1.242-.427-.436-.932-.617-1.494-.854-.21.627-.424 1.253-.636 1.88-.212.627.59 1.665.573 2.606-.16 1.398-.73 2.555-2.483 3.034.5-.99.784-1.04.63-2.25-.074-.603-1.765-1.675-1.557-2.247.31-.92.84-1.983.448-2.9-.72.49-1.66.233-2.38.532-.605.27-.646 1.395-1.488 1.863-.862.404-2.765.204-4.353-.698.97-.735 1.773-.24 2.744-.976.485-.368.463-1.944.948-2.313s1.648-.76 2.133-1.128c-.437-.497-.414-1.285-.85-1.78-.437-.5-2.373-.39-2.81-.89-.872-.993-.706-2.302-1.58-3.296 2.26.81 1.932 1.913 2.5 1.83 1.07-.514 2.14-.616 2.7-.38.562.236 1.63 1.633 2.193 1.87.21-.627.52-1.423.733-2.05.212-.627-.954-1.713-.74-2.34.423-1.252 1.476-2.36 1.9-3.615.153 1.21.354 2.227.506 3.436.076.604 1.264.918 1.34 1.523.076.603-.62 2.006-.544 2.61.65-.13 1.588-.04 2.236-.17.65-.13 1.08-1.638 1.73-1.767 1.296-.26 2.23-.18 3.553.07-.97.904-1.724.843-2.332 1.676-.486.368.19 1.582-1.215 2.434-.527.305-1.914-.062-2.4.306.437.498.875.994 1.31 1.492s2.398.728 2.834 1.225c.873.995 1.336 2.183 1.096 3.25z" fill-rule="evenodd" fill="#ffc900"/><path d="M448.243 238.63c2.332-2.117 2.61-.27 3.757-.74.56-.238 1.002-.764 1.49-1.242.426-.437.93-.618 1.492-.855l.637 1.88s-.592 1.665-.573 2.606c.158 1.397.728 2.554 2.482 3.034-.5-.99-.784-1.04-.632-2.25.076-.604 1.766-1.675 1.558-2.248-.31-.918-.84-1.982-.448-2.9.72.49 1.66.234 2.38.532.606.27.647 1.395 1.49 1.864.86.404 2.764.204 4.35-.698-.97-.736-1.772-.24-2.742-.976-.486-.37-.463-1.945-.95-2.314-.485-.368-1.647-.76-2.133-1.13.437-.495.414-1.283.85-1.78.438-.497 2.373-.39 2.81-.887.873-.994.707-2.303 1.58-3.297-2.26.81-1.932 1.912-2.5 1.828-1.07-.512-2.138-.615-2.7-.378-.56.236-1.63 1.633-2.192 1.87-.212-.627-.52-1.424-.732-2.05-.213-.627.953-1.713.74-2.34-.424-1.253-1.477-2.36-1.9-3.614-.154 1.21-.354 2.224-.506 3.433-.077.603-1.266.918-1.342 1.523-.076.605.62 2.006.546 2.61-.65-.13-1.588-.04-2.237-.17-.65-.13-1.08-1.637-1.73-1.767-1.298-.26-2.232-.18-3.554.07.97.905 1.724.843 2.333 1.677.484.368-.19 1.582 1.213 2.434.527.306 1.914-.06 2.4.307-.438.497-.874.994-1.31 1.492-.437.496-2.397.728-2.834 1.225-.874.995-1.336 2.183-1.097 3.25z" fill-rule="evenodd" fill="#ffc900"/><path stroke-linejoin="round" d="M506.11 244.3c-2.112 1.65-15.76 5.1-15.9 16.95-.14 11.85 2.393 14.55-.14 14.85-4.925 0-5.628-13.2-5.487-19.05.14-5.85.28-4.95.28-4.95s3.377.9 3.096 3.75c-.282 2.85 3.375-7.05 2.11-9.75 2.25 2.25 5.205 1.35 5.205 1.2 0-.15-1.687-1.95-2.39-3.3-.704-1.35 2.53.75 2.53.75s.142-2.25-2.673-2.1c-3.657 0 .564-1.2.564-1.2s2.11 1.95 3.517-.15c-1.548-1.65-3.798-2.55-3.798-2.55s-1.97-3.75-4.643-4.5c-3.096-.75-2.674 1.35-6.19 1.05-.704 1.35-.704 1.5.703 1.95-2.392 1.65-1.126 4.95-1.126 4.95s3.798-1.65 3.657 1.05c-.14 2.7-2.252 2.25-3.658.6-1.267-.75-1.69.75-1.69.75l1.97 2.1s-3.8-.15-4.784 2.4c2.112-.15 3.237.45 3.237.45s-4.362 1.95-4.785 3c-.42 1.05-.562-1.2-.703-1.2-.14 0-4.22-1.5-4.22-1.5l-1.41 6.487s2.817 2.814 4.364 1.914c1.547-.9 4.36-3.6 6.05-2.85-4.925 3.75-9.85 9.15-12.522 9.9-.704-.6-3.096-3-4.08-1.8-.986 1.2-.283 2.7.984 2.55 1.266-.15-4.08 1.2-2.954 3.45 1.125 2.25.984 2.1 1.97 1.5.984-.6-.845-.75 2.813-1.8 3.66-1.05 3.518-2.1 3.518-2.1s-.703 1.65-2.672 2.1c-1.97.45-3.518.45-3.096 1.05.422.6 1.265 1.65.985 2.25-.282.6 4.08-3.15 5.206-.15 2.956-.15 4.925-3.75 3.518-5.85.14 2.25 1.547 3 .703 4.05s6.614-3.45 2.955-6.15c.987 2.25 1.126 4.05 1.126 4.05s1.69-.15 2.112-.75c.422-.6-.844 1.65-.28 2.1.56.45 3.234 3 2.11 4.8-.704-1.05-.845-2.7-1.69-2.55-.844.15-4.36 2.7-6.47 2.85s2.53 7.8 2.53 7.8-3.235-.45-3.656-.15c-.423.3-2.533-2.7-2.955-.9-.703 2.25.704 1.35.704 1.35s-1.83-.9-2.814.15-1.97 2.1-1.266 2.55c.704.45 3.8.45 4.22.3s-3.516.3-3.798.75c-.282.45-.844 2.1 0 2.7s2.955-.3 3.095-.75c.142-.45.283 1.65.283 1.65s3.658.3 3.658-3.45.283 2.7.283 2.7 3.657.6 3.798-3.15.422 2.55.422 2.55 2.393-.75 2.393-1.35c0-.6-.14 7.5-1.83 9.75-2.673-1.8-4.36 1.2-4.36 1.2s.14 4.35-.142 5.4c-.28 1.05 1.83-.6 1.97-1.05.14-.45 2.673-1.65 2.815-1.95l.843-1.8s-.562 2.1-1.546 2.4-1.97 1.35-1.55 2.25c.424.9 1.972 1.5 2.534 2.4.563.9 2.533-5.25 2.533-5.25l.14 1.35s2.534-.6 2.815-1.8c.282-1.2-2.673-2.25-.28-4.2 2.39-1.95 0 1.8 0 1.8s.843 2.85 1.406 2.85 1.97-5.4.564-6.75c-1.407-1.35 2.11 1.65 2.11 1.65s1.97-5.55-.14-6.3-3.096-1.05-3.096-1.05 1.126-1.5.563-1.65 2.955 3.3 3.518 2.4 1.407-3.6-2.672-5.1c-4.08-1.5-.14-5.7-.14-5.7s2.532 3 4.36 1.35c1.83-1.65-.14-1.65-.14-1.65s5.205-3.3 5.345-4.95c-.983-.15-2.672.15-2.672.15s2.955-1.95 2.252-5.1c-1.126 1.65-2.674 1.65-2.674 1.65s2.533-2.55 2.11-4.95c-1.547 1.2-1.406 2.1-2.39 1.8s-2.674-9.75 1.265-10.35c3.94-.6 1.83 4.65 1.97 4.65.14 0 5.91-2.4 0-6.3 1.408-.45 4.362 2.25 4.362 2.25s-1.266-6.6-7.597-2.55c1.548-1.65 2.533-2.7 3.8-2.4 1.265.3 5.768-.15 5.768-1.5-1.126-.9-3.518.45-4.785 0-1.266-.45 9.005-1.2 8.16-6.3z" fill-rule="evenodd" stroke="#006b00" stroke-linecap="round" stroke-width="0.5932289999999999" fill="#ffc900"/><path d="M481.3 118.54s12.247-6.43 18.37 1.53" transform="matrix(.46 0 0 .49 240.287 190.204)" stroke="#006b00" stroke-linecap="round" stroke-width="1.25" fill="none"/><path d="M504.57 132.32c-.306 0-4.286 3.98-5.205 3.98" transform="matrix(.46 0 0 .49 240.287 190.204)" stroke="#006b00" stroke-linecap="round" stroke-width="1.25" fill="none"/><path d="M512.84 145.18s11.328.918 18.676-10.41" transform="matrix(.46 0 0 .49 240.287 190.204)" stroke="#006b00" stroke-linecap="round" stroke-width="1.25" fill="none"/><path d="M525.08 141.81s.92 6.123 2.756 6.123-3.062 1.53-4.9.306c2.144 2.755 3.37 7.654 0 9.49" transform="matrix(.46 0 0 .49 240.287 190.204)" stroke="#006b00" stroke-linecap="round" stroke-width="1.25" fill="none"/><path d="M519.26 218.97s-3.98 4.286-8.88 4.592" fill-rule="evenodd" transform="matrix(.46 0 0 .49 240.287 190.204)" stroke="#006b00" stroke-linecap="round" stroke-width="1.25" fill="#e80000"/><path d="M523.86 199.37s-2.45-12.247-.92-15.31c.92-3.978 4.9-5.51 7.962-10.715" transform="matrix(.46 0 0 .49 240.287 190.204)" stroke="#006b00" stroke-linecap="round" stroke-width="1.25" fill="none"/><path d="M522.63 190.49s-3.062 7.348-16.533 4.9" transform="matrix(.46 0 0 .49 240.287 190.204)" stroke="#006b00" stroke-linecap="round" stroke-width="1.25" fill="none"/><path d="M526.31 172.12s.92 9.797-11.328 6.123" transform="matrix(.46 0 0 .49 240.287 190.204)" stroke="#006b00" stroke-linecap="round" stroke-width="1.25" fill="none"/><path d="M511.3 128.04s-4.9 4.287-3.062 10.104" transform="matrix(.46 0 0 .49 240.287 190.204)" stroke="#006b00" stroke-linecap="round" stroke-width="1.25" fill="none"/><path d="M483.98 247.606s2.96-1.2 3.522-1.8c.564-.6 1.55-1.8 1.83-2.7.283-.9-1.97-2.25-.844-4.2.704-.902 1.69-1.052 3.38 0 1.69 1.05-1.55-3.302-3.24-3.452s-2.816 1.2-3.238.9c-.423-.3.14 1.2-.564 1.2s1.41 1.2 1.268 1.95c-.14.75 2.253 3.3 2.112 3.902-.14.6-3.52 4.05-4.225 4.2z" fill-rule="evenodd" fill="#006b00"/><path stroke-linejoin="round" d="M534.27 97.112c2.794-.636 3.243.07 2.755 2.45-1.31-.66-1.79-1.218-2.755-2.45z" fill-rule="evenodd" transform="matrix(.46 0 0 .49 240.287 190.204)" stroke="#ffc900" stroke-linecap="round" stroke-width="1.25" fill="#ffc900"/><path stroke-linejoin="round" d="M514.71 233.52s-1.033 6.41 1.49 6.946c-.125-2.48.537-4.176 1.157-4.837-.538-.25-2.522-2.068-2.647-2.11z" fill-rule="evenodd" transform="matrix(.46 0 0 .49 240.287 190.204)" stroke="#006b00" stroke-width="1.25" fill="#e80000"/><path stroke-linejoin="round" d="M509.03 225.63c-2.316-.33-6.23 1.59-5.105 3.91 1.88-1.62 3.626.135 4.94-1.518.405-.453.29-1.812.165-2.392z" fill-rule="evenodd" transform="matrix(.46 0 0 .49 240.287 190.204)" stroke="#006b00" stroke-width="1.25" fill="#e80000"/><path stroke-linejoin="round" d="M509.01 221.05s-3.65-.58-4.157 1.948c2.52-.32 3.274-.59 4.11-.06.24-.54.007-1.762.047-1.888z" fill-rule="evenodd" transform="matrix(.46 0 0 .49 240.287 190.204)" stroke="#006b00" stroke-width="1.25" fill="#e80000"/><path stroke-linejoin="round" d="M493.54 184.94s2.19.828 2.81 3.06c1.737-1.075 2.565-5.83-2.81-3.06z" fill-rule="evenodd" transform="matrix(.46 0 0 .49 240.287 190.204)" stroke="#006b00" stroke-width="1pt" fill="#e80000"/><path stroke-linejoin="round" d="M488.12 190.39c.083-.04 4.59-2.77 5.045-.165-.952.95-1.365 1.57-2.11 1.778-.578 0-1.736-1.778-2.935-1.613z" fill-rule="evenodd" transform="matrix(.46 0 0 .49 240.287 190.204)" stroke="#006b00" stroke-width="1pt" fill="#e80000"/><path stroke-linejoin="round" d="M487.67 199.24c.082-.042 2.894-2.522 3.97-.868 1.074 1.653-.87 1.57-.87 1.57s-.992-.454-3.1-.702z" fill-rule="evenodd" transform="matrix(.46 0 0 .49 240.287 190.204)" stroke="#006b00" stroke-width="1pt" fill="#e80000"/><path stroke-linejoin="round" d="M483.7 149.96c-.04 0-3.597-1.364-5.085 1.116 2.357.29 3.184 1.117 4.258 1.944-.29-1.034-.785-2.605.827-3.06z" fill-rule="evenodd" transform="matrix(.46 0 0 .49 240.287 190.204)" stroke="#006b00" stroke-width="1pt" fill="#e80000"/><path stroke-linejoin="round" d="M476.8 168.52s.165-4.176 2.15-5.87c1.116.62 1.446 1.61 2.19 2.852-1.487.33-3.472.413-4.34 3.018z" fill-rule="evenodd" transform="matrix(.46 0 0 .49 240.287 190.204)" stroke="#006b00" stroke-width="1pt" fill="#e80000"/><path stroke-linejoin="round" d="M486.3 165.54s-3.928 1.82-2.646 3.804c1.282-1.364 2.688-.95 2.688-.992s0-2.77-.042-2.812z" fill-rule="evenodd" transform="matrix(.46 0 0 .49 240.287 190.204)" stroke="#006b00" stroke-width="1pt" fill="#e80000"/><path stroke-linejoin="round" d="M480.64 125.6c-1.406 1.57 1.736 5.003 5.044 4.507.827-3.72-4.217-5.664-5.044-4.507z" fill-rule="evenodd" transform="matrix(.46 0 0 .49 240.287 190.204)" stroke="#006b00" stroke-width="1pt" fill="#ffc900"/><path d="M461.41 248.14c-.318.857.943 2.06 1.672 1.722.3-.878-1.344-2.404-1.673-1.722z" fill="none"/><path stroke-linejoin="round" d="M484.28 122.75s.62 2.936 3.473 2.15c-.455-2.274-2.44-3.97-2.44-3.97-.123.663.414 1.696-1.033 1.82z" fill-rule="evenodd" transform="matrix(.46 0 0 .49 240.287 190.204)" stroke="#006b00" stroke-width="1pt" fill="#e80000"/><path stroke-linejoin="round" d="M486.18 131.27s1.57 1.695 4.672-1.778c-1.405.413-3.886-.827-3.886-.827s0 2.398-.786 2.605z" fill-rule="evenodd" transform="matrix(.46 0 0 .49 240.287 190.204)" stroke="#006b00" stroke-width="1pt" fill="#e80000"/><path stroke-linejoin="round" d="M480.46 118.86c-1.406 1.57.583 3.762 3.89 3.266.828-3.72-3.063-4.423-3.89-3.266z" fill-rule="evenodd" transform="matrix(.46 0 0 .49 240.287 190.204)" stroke="#006b00" stroke-width="1pt" fill="#ffc900"/><path d="M461.73 241.152s6.054-1.73 9.268.864 3.213.247 3.213.247 4.698 1.73 6.057 1.36-.988.124.866-.99c1.854-1.11-3.708.25-4.202-2.1-.865-1.483.124-3.337-1.853-2.72-1.36-1.73.865-2.964.37-4.82-1.36.99-2.1-.37-3.213 2.103-2.595-.495-.37-4.08-3.214-4.45 0 2.595-2.1 2.72-2.224 4.202-1.236.865-6.674 4.08-5.067 6.304z" fill-rule="evenodd" fill="url(#d)"/><path d="M392.024 438.192c3.93-.948 25.22 4.7 33.43 13.502-1.743-15.674-6.086-27.682-6.086-27.682s-12.687-3.62-14.43-1.877c-2.554 2.69-10.226 10.75-12.914 16.057z" fill-rule="evenodd" stroke="#000" stroke-width="NaN" fill="#c01500"/><path d="M385.534 365.8c-1.493.248-2.986 1.244-4.478 3.73-1.742 4.23-2.986 14.928-5.474 17.416-2.488 2.488-4.727 2.736-4.727 4.976 0 2.238.25 7.463 6.966 9.453 6.72.25 17.416-10.698 17.416-10.698s5.474-5.97 7.713-12.44c-12.938 4.48-22.143-7.463-17.416-12.438z" fill-rule="evenodd" stroke="#000" stroke-width="NaN" fill="#c01500"/><path d="M572.633 435.696c-3.9-.943-25.436 4.673-33.58 13.423 1.728-15.583 6.037-27.52 6.037-27.52 1.504-.41 12.453-3.598 14.182-1.867 2.535 2.675 10.694 10.688 13.36 15.963z" fill-rule="evenodd" stroke="#000" stroke-width="NaN" fill="#c01500"/><path d="M578.665 363.725c1.482.247 2.006 2.194 3.215 4.666 1.727 4.205 3.508 10.33 5.977 12.804 2.47 2.474 4.69 6.137 4.69 8.364 0 2.224-.52 5.233-7.185 7.21-6.666.248-16.324-8.31-16.324-8.31s-5.43-5.937-7.653-12.367c12.837 4.454 21.15-7.01 17.28-12.365z" fill-rule="evenodd" stroke="#000" stroke-width="NaN" fill="#c01500"/><path d="M378.07 424.517s13.434 9.205 13.684 13.434c36.074-53.487 128.125-70.156 180.62-3.73 6.966-9.205 14.18-12.19 14.18-12.19-55.23-72.152-165.197-63.194-208.485 2.487z" fill-rule="evenodd" stroke="#000" stroke-width="NaN" fill="#fb0"/><g stroke="#000" fill-rule="evenodd" fill="#1e5aa6"><path d="M515.015 219.96l5.26-.125-9.394 11.9 11.275 13.15-22.17 27.935 20.917 25.177c-2.296 5.637-4.968 10.773-8.518 15.407l-12.024-13.277 21.795-27.182-17.912-20.292 10.772-32.693z"/><path d="M439.858 222.336l-5.636.126 10.52 11.398-11.148 13.904 23.174 25.177-19.165 25.68c2.296 5.637 5.595 11.9 9.144 16.534l11.4-14.405-23.425-26.056 17.16-21.794-12.024-30.564z"/><path d="M465.912 289.976L457.645 301l29.56 34.195c5.22-2.63 9.313-5.636 13.78-9.27l-15.407-17.786 6.263-18.414 9.02 10.396-28.183 35.95c-4.718-2.004-9.938-5.135-14.656-9.02l14.907-18.913-7.015-18.164z"/><path d="M456.768 272.816l5.387 6.764-3.507-9.143-1.88 2.38z"/><path d="M495.35 278.8c.118-.125 4.347-5.762 4.347-5.762l-1.646-2.254-2.7 8.016z"/></g><text font-weight="bold" transform="matrix(.559 -.655 .655 .559 337.27 11.701)" font-size="14" y="362.397" x="-328.344" font-family="Timmons"><tspan y="362.397" x="-328.344">L</tspan></text><text font-weight="bold" transform="matrix(.605 -.613 .613 .605 337.27 11.701)" font-size="14" y="384.266" x="-292.335" font-family="Timmons"><tspan y="384.266" x="-292.335">E</tspan></text><text font-weight="bold" transform="matrix(.657 -.469 .489 .649 337.27 11.701)" font-size="14" y="451.681" x="-239.78" font-family="Timmons"><tspan y="451.681" x="-239.78">O</tspan></text><text font-weight="bold" transform="matrix(.713 -.482 .482 .713 337.27 11.701)" font-size="14" y="429.958" x="-188.526" font-family="Timmons"><tspan y="429.958" x="-188.526">T</tspan></text><text font-weight="bold" transform="matrix(.777 -.371 .371 .777 337.27 11.701)" font-size="14" y="451.479" x="-115.426" font-family="Timmons"><tspan y="451.479" x="-115.426">E</tspan></text><text font-weight="bold" transform="matrix(.787 -.35 .35 .787 337.27 11.701)" font-size="14" y="453.046" x="-94.111" font-family="Timmons"><tspan y="453.046" x="-94.111">R</tspan></text><text font-weight="bold" transform="matrix(.799 -.321 .321 .799 337.27 11.701)" font-size="14" y="454.982" x="-68.371" font-family="Timmons"><tspan y="454.982" x="-68.371">R</tspan></text><text font-weight="bold" transform="matrix(.858 -.071 .071 .858 337.27 11.701)" font-size="14" y="445.666" x="112.016" font-family="Timmons"><tspan y="445.666" x="112.016">R</tspan></text><text font-weight="bold" transform="matrix(.861 .013 -.013 .861 337.27 11.701)" font-size="14" y="430.793" x="180.225" font-family="Timmons"><tspan y="430.793" x="180.225">R</tspan></text><text font-weight="bold" transform="matrix(.748 .426 -.426 .748 337.27 11.701)" font-size="14" y="275.217" x="414.759" font-family="Timmons"><tspan y="275.217" x="414.759">R</tspan></text><text font-weight="bold" transform="matrix(.661 .551 -.551 .661 337.27 11.701)" font-size="14" y="193.05" x="483.878" font-family="Timmons"><tspan y="193.05" x="483.878">E</tspan></text><text font-weight="bold" transform="matrix(.83 .156 -.133 .82 337.27 11.701)" font-size="14" y="414.028" x="309.116" font-family="Timmons"><tspan y="414.028" x="309.116">O</tspan></text><text font-weight="bold" transform="matrix(.777 -.114 .117 .839 337.27 11.701)" font-size="14" y="459.272" x="105.058" font-family="Timmons"><tspan y="459.272" x="105.058">O</tspan></text><text font-weight="bold" transform="matrix(.808 -.299 .299 .808 337.27 11.701)" font-size="14" y="455.835" x="-45.708" font-family="Timmons"><tspan y="455.835" x="-45.708">A</tspan></text><text font-weight="bold" transform="matrix(.607 .611 -.611 .607 337.27 11.701)" font-size="14" y="144.724" x="518.35" font-family="Timmons"><tspan y="144.724" x="518.35">A</tspan></text><text font-weight="bold" transform="matrix(.844 .17 -.17 .844 337.27 11.701)" font-size="14" y="388.298" x="271.188" font-family="Timmons"><tspan y="388.298" x="271.188">A</tspan></text><text font-weight="bold" transform="matrix(.846 -.159 .159 .846 337.27 11.701)" font-size="14" y="455.168" x="40.322" font-family="Timmons"><tspan y="455.168" x="40.322">M</tspan></text><text font-weight="bold" transform="matrix(.856 -.089 .089 .856 337.27 11.701)" font-size="14" y="448.079" x="94.429" font-family="Timmons"><tspan y="448.079" x="94.429">P</tspan></text><text font-weight="bold" transform="matrix(.861 -.022 .022 .861 337.27 11.701)" font-size="14" y="437.607" x="155.088" font-family="Timmons"><tspan y="437.607" x="155.088">P</tspan></text><text font-weight="bold" transform="matrix(.749 .424 -.424 .749 337.27 11.701)" font-size="14" y="276.665" x="405.134" font-family="Timmons"><tspan y="276.665" x="405.134">P</tspan></text><text font-weight="bold" transform="matrix(.855 .099 -.099 .855 337.27 11.701)" font-size="14" y="409.793" x="232.095" font-family="Timmons"><tspan y="409.793" x="232.095">I</tspan></text><text font-weight="bold" transform="matrix(.592 .625 -.625 .592 337.27 11.701)" font-size="14" y="132.089" x="530.392" font-family="Timmons"><tspan y="132.089" x="530.392">T</tspan></text><text font-weight="bold" transform="matrix(.689 .516 -.516 .689 337.27 11.701)" font-size="14" y="218.519" x="464.158" font-family="Timmons"><tspan y="218.519" x="464.158">T</tspan></text><text font-weight="bold" transform="matrix(.826 .243 -.243 .826 337.27 11.701)" font-size="14" y="361.961" x="313.725" font-family="Timmons"><tspan y="361.961" x="313.725">M</tspan></text><text font-weight="bold" transform="matrix(.58 .636 -.636 .58 337.27 11.701)" font-size="14" y="123.248" x="513.704" font-family="Timmons"><tspan y="123.248" x="513.704">G</tspan></text><g stroke="#fff700" stroke-linecap="round" stroke-width="1pt" fill="none"><path d="M557.53 184.628s5.19-4.45 8.9-4.574"/><path d="M558.278 184.008c.123-.123 31.024-4.45 32.013-5.438"/><path d="M558.4 184.258c.123-.124 34.608-2.967 34.608-2.967"/><path d="M558.278 184.378s36.71-1.73 38.935.124"/><path d="M558.15 184.258s35.968.247 36.586 1.112"/><path d="M558.278 184.258l34.61 2.842"/><path d="M557.908 184.507c.123 0 35.227 3.09 38.688 7.54"/><path d="M598.442 198.346c-.123-.123-11.99-14.215-40.666-13.968"/><path d="M557.908 184.628s19.9 1.36 26.204 8.28"/><path d="M558.278 184.378s12.855-2.47 26.327 13.72"/></g><path d="M550.18 199.086s17.83.7 17.83 2.447-13.285 5.07-13.46 12.412c-.175 7.342 10.14 7.866 10.837 17.13.7 9.265-8.04 10.663-9.79 13.11-1.747 1.224-5.942 14.334-5.417 22.025.524 7.692 2.796 33.738 6.817 38.98 3.147 2.45 7.866 10.315 12.935 7.867 5.07-2.446 1.573-11.36 1.05-13.81s2.097-6.467 2.097-10.137c0-3.672-1.924-6.643-1.75-7.517.175-.874 14.16 3.32 13.286 17.13-.874 13.81-6.468 9.615-6.468 9.615s1.748 16.956-2.622 19.228c-7.866 4.195-13.634-.874-13.634-.874l.74 3.45-5.985-3.1s-7.69-11.013-9.44-15.907-3.845-26.745-3.145-31.464c.7-4.72 1.223-32.34.874-33.737s-1.748-24.472-.874-27.968c.874-3.496 6.293-18.88 6.118-18.88z" fill-rule="evenodd" stroke="#000" stroke-width="NaN" fill="url(#e)"/><path d="M530.954 194.542s12.41-12.06 19.578-10.663c3.67 0 .175 2.62.175 2.62s6.292.526 7.167 3.322c.174 1.224-2.972 1.574-2.972 1.574s2.622.524 2.797 2.797-26.57.524-26.746.35z" fill-rule="evenodd" stroke="#000" stroke-width="NaN" fill="#ff7000"/><path d="M531.65 194.017s13.286-1.748 18.88-7.342" stroke="#000" stroke-width="NaN" fill="none"/><path d="M545.11 190.35s9.79-.35 9.79 1.05" stroke="#000" stroke-width="NaN" fill="none"/><path stroke-linejoin="round" d="M579.896 333.338s8.39-1.923 10.663-4.894c1.398-1.05 8.74 11.012-10.664 4.894z" fill-rule="evenodd" stroke="#000" stroke-width="1.07625" fill="#fff"/><path d="M577.624 263.94s1.05 6.467-1.923 10.837c-1.572 1.748-6.292 4.72-6.292 6.818 0 2.097 1.748 4.894 1.4 7.342s-2.973 4.895-2.798 6.992c0 2.096 2.97 13.284 2.622 13.46" stroke="#fff" stroke-linecap="round" stroke-width="1.07625" fill="none"/><path d="M562.245 242.967s-6.642 2.273-8.04 8.916" stroke="#fff" stroke-linecap="round" stroke-width="1.07625" fill="none"/><path d="M559.44 190.35s2.273 6.294 9.614.35c-4.72-6.466-9.614-.174-9.614-.35z" fill-rule="evenodd" stroke="#000" stroke-width="NaN" fill="#c75b00"/><path d="M564.973 190.17c0 .34-.352.613-.787.613s-.787-.274-.787-.612c0-.337.35-.61.786-.61s.787.273.787.61z" fill-rule="evenodd"/><path d="M499.414 175.747s13.922 15.068 22.93 14.904c1.637 4.423-4.09 8.537-6.383 10.502-4.585-1.474-8.73.27-19.375-12.834.655-8.353 2.993-12.243 2.83-12.57z" fill-rule="evenodd" stroke="#000" stroke-width="NaN" fill="#fff"/><path d="M518.252 140.695c1.802-5.57 5.405-9.99 8.517-10.482-.82-4.258 6.55-23.093 28.006-30.3 1.31 9.663-9.172 19.163-9.172 19.163s31.61-5.405 37.997-13.43c-.654 3.603-7.04 26.04-40.78 25.878 12.775 12.12-4.095 21.783-11.302 18.834 13.267-10.155-3.767-16.214-13.266-9.663z" fill-rule="evenodd" stroke="#000" stroke-width="NaN" fill="#fff"/><path d="M529.06 132.838c6.39-4.095 8.682-4.095 13.923-3.276-3.767.49-3.767.655-3.767.655s-.328.492 1.965 2.62c-2.62-.654-4.912-2.128-12.118 0z" fill-rule="evenodd" stroke="#ccc" stroke-width="NaN" fill="#cccccd"/><path d="M526.6 130.213s12.61-6.715 19.654-11.3" stroke="#000" stroke-width="NaN" fill="none"/><path d="M515.79 201.134s17.36 4.75 19.327-20.145c-3.767-10.81-9.008-34.068-.983-40.783-7.37-5.077-15.396.164-15.396.164-.49 1.147-7.042 10.483 1.802 26.86-20.964-5.567-12.448 14.25-12.448 14.25.82-3.112 11.957-6.06 14.74 9.827 1.147 3.93-7.533 9.99-7.042 9.827z" fill-rule="evenodd" stroke="#000" stroke-width="NaN" fill="#00f"/><path d="M535.283 181.15s18.344-9.826 17.852-32.92c-15.56.33-21.127 20.474-21.127 20.474l3.275 12.447z" fill-rule="evenodd" stroke="#000" stroke-width="NaN" fill="#00f"/><path d="M453.062 180.007s-13.593 11.792-21.29 8.025c-5.734 3.44-12.45-2.62-12.45-2.62s7.863 28.99 36.033 8.025c-.49-6.388-1.965-12.94-2.293-13.43z" fill-rule="evenodd" stroke="#000" stroke-width="NaN" fill="#fff"/><path d="M431.608 187.537c1.146-6.06 5.896-9.008 9.663-3.276 5.08.984 10.156-19.817-7.86-16.377 5.077-27.188-10.154-37.343-10.154-37.343s-5.405 30.137-2.948 35.705c2.456 5.57-3.604-10.318-23.093-14.74-.328 22.766 21.783 33.412 21.783 33.412s6.224 5.732 12.61 2.62z" fill-rule="evenodd" stroke="#000" stroke-width="NaN" fill="#00f"/><path d="M433.407 167.717s-8.517 7.207-6.552 17.034" stroke="#000" stroke-width="NaN" fill="none"/><path d="M420.472 166.736s-1.966 7.043 2.293 17.034" stroke="#000" stroke-width="NaN" fill="none"/><path d="M419.16 186.065s3.932-6.387 12.45 1.802" stroke="#000" stroke-width="NaN" fill="none"/><path d="M420.8 141.84c0-.164-12.94 0-5.242 13.102-5.733 1.802-18.508-6.55-9.664-17.69-28.99-.654-40.78-14.575-40.78-27.35 8.515 8.844 28.824 5.24 36.03 10.646-8.844-8.19-7.042-19.49-7.042-19.49s24.732 7.37 29.153 29.317c-1.474 4.258-2.13 11.792-2.456 11.464z" fill-rule="evenodd" stroke="#000" stroke-width="NaN" fill="#fff"/><path d="M400.904 119.98c4.772 4.856 17.036 6.307 23.26 11.712" stroke="#000" stroke-width="NaN" fill="none"/><path d="M406.55 134.31s10.152-1.31 13.095 2.292c-3.973 0-5.297-.983-11.036 1.147 1.618-.82 1.177-2.294 2.06-2.294s-3.68-1.147-4.12-1.147z" fill-rule="evenodd" stroke="#ccc" stroke-width="0.816228" fill="#cccccd"/><path d="M457.16 54.873s5.567-4.913 11.627-.49c-2.738 8.18-12.61 5.076-12.61 5.076s.327 4.094-.656 6.06c1.978 1.485 3.604 6.387 3.604 6.387s10.155-2.457 12.284 1.965c3.89-.537 6.715 0 6.715 0s7.862-1.965 10.646-1.965c2.783 0 11.627 2.293 12.446 3.93.82 1.638 3.767 12.612 5.733 12.448 1.964-.164-4.75 2.62-6.552-.164-1.802-2.783-1.31 3.604-1.31 3.604s5.568 5.897 6.223 7.207c.656 1.31-3.438 11.957-.327 19.327-2.726.252-2.948 3.112-2.948 3.112-.15 3.244-4.258 4.094-4.258 4.094l-.983-4.423-2.784 1.64 1.146-3.44s3.767-9.172 4.095-12.12c.33-2.948-3.438-8.19-6.387-8.19-2.948 0-5.077 9.337-5.077 9.337s-1.474 7.042-.982 7.697c.49.656-1.966-2.292-1.966-2.292s-1.31 4.258-2.293 5.568c-.983 1.31-3.112 1.802-3.112 1.802s-1.474-4.26-.982-5.896c.492-1.638 8.026-8.026 7.37-12.612-.654-4.585 0-3.44-.163-3.603-.164-.163-3.93-3.438-4.095-5.24-.163-1.8-4.913 2.293-11.136.983-1.905 3.328-2.13 11.628-2.13 11.628s-.655 9.992.656 11.138c1.31 1.147-3.276 3.603-3.276 3.603l-3.276 4.423s-1.146-2.784-1.146-2.62c0 .164-2.293 1.638-2.293 1.638l1.31-3.275c-.08-2.48 3.185-9.25 3.185-14.985 0-5.732.42-11.876.42-11.876s-6.06-.327-5.897 5.896c.164 6.224-1.474 6.552-1.146 8.353.327 1.802 1.965 6.88 1.474 8.353-.492 1.474-2.457 1.966-2.457 1.966l-.492.82s-6.06 2.783-5.897 3.93c.165 1.146-.162-3.276-.162-3.276l-.328-4.75s3.603-2.293 3.603-8.025-.83-6.547-.666-7.857c.163-1.31.994-6.064.83-6.555-.164-.492-3.44 1.31-4.422 1.31s1.8-3.44 2.13-5.896c.327-2.457-3.277 2.293-6.225-.492 1.37-3.024 3.44-3.93 3.767-6.223s-2.293 1.965-4.586.327c.188-2.197 2.458-4.094 2.458-4.094s-1.866-.23-2.62 0c-1.474-.492 1.637-2.785 1.8-6.06.165-3.276-1.8-4.586-1.8-4.75 0-.164-3.276-2.948-3.767-4.094-.49-1.147-.49-2.457-.49-2.457s-5.406 3.93-11.793-4.423c5.85-4.994 12.12-1.31 12.12-1.31s1.637-4.587 9.17-4.26c7.535.33 9.01 4.587 8.682 4.096z" fill-rule="evenodd" stroke="#000" stroke-width="NaN" fill="#923f00"/><path d="M498.364 139.593c.136 0 13.913.41 14.05 7.775.135 7.366-4.23 5.456-4.366 5.456s-10.094-1.227-10.094-1.227l.41-12.004z" fill-rule="evenodd" stroke="#000" stroke-width="NaN" fill="#00f"/><path d="M484.99 137.545s17.187-.136 16.232 7.366c-.955 7.503-5.32 6.002-5.32 6.002l-8.32-.682-2.592-12.685z" fill-rule="evenodd" stroke="#000" stroke-width="NaN" fill="#fffeff"/><path d="M475.31 136.728l9.956.818s6 .818 5.73 6.547c-.274 5.73-6.14 5.865-6.14 5.865l-9.684-.545.137-12.685z" fill-rule="evenodd" stroke="#000" stroke-width="NaN" fill="#00f"/><path d="M451.987 139.593c-.137 0-13.914.41-14.05 7.775-.136 7.366 4.23 5.456 4.365 5.456s10.094-1.227 10.094-1.227l-.413-12.006z" fill-rule="evenodd" stroke="#000" stroke-width="NaN" fill="#fff"/><path d="M465.352 137.545s-17.187-.136-16.232 7.366c.955 7.503 5.32 6.002 5.32 6.002l8.32-.682 2.592-12.685z" fill-rule="evenodd" stroke="#000" stroke-width="NaN" fill="#00f"/><path d="M475.042 136.728l-9.957.818s-6.002.818-5.73 6.547c.274 5.73 6.14 5.865 6.14 5.865l9.683-.545-.136-12.685z" fill-rule="evenodd" stroke="#000" stroke-width="NaN" fill="#fff"/><path d="M501.703 219.542s7.16-10.552 10.175-9.422c2.638.88.628 9.045-.628 9.8l-9.548-.378z" fill-rule="evenodd" stroke="#000" stroke-width="NaN" fill="#5e0043"/><path d="M452.623 221.427c-2.26-3.14-5.527-11.808-8.542-9.422-2.637.88-.627 9.045.63 9.8l7.913-.378z" fill-rule="evenodd" stroke="#000" stroke-width="NaN" fill="#5e0043"/><path d="M457.365 200.557s13.952 8.595 18.53 8.818c4.575.223 19.085-11.162 19.085-11.162" stroke="#000" stroke-width="NaN" fill="none"/><path d="M458.708 166.857l2.68-3.35 13.393 6.81 13.618-6.027 2.68 2.79-15.18 10.715-17.19-10.938z" fill-rule="evenodd" stroke="#000" stroke-width="NaN" fill="#5e0043"/><path stroke-linejoin="round" d="M448.07 166.676c1.09 1.374 9.745 11.9 11.308 20.606 1.563 8.706-.893-11.943-.893-11.943s10.716 5.245 11.05 8.593c.335 3.35 5.123-.226 5.352-.8l-31.023-20.148 4.207 3.69z" fill-rule="evenodd" stroke="#474747" stroke-width="1.07625" fill="#474747"/><path stroke-linejoin="round" d="M501.006 166.074s-11.273 14.845-9.934 31.028c-2.325-7.75-.446-20.537-.446-20.537l-2.456 1.563s-2.567 10.938-5.804 12.613c-.546-1.303-.446-1.785-.446-1.785s-3.46 4.464-4.13 4.91c-.67.447.223 15.07.223 15.07s1.162 10.596 2.5 10.485c-1.522.747-3.393 1.906-3.393 1.906l-1.39-28.298 3.176-3.18s4.24-5.134 4.576-10.157c-1.84 1.563-3.906 2.01-3.906 2.01s-.558 7.144-2.233 8.148c-1.674 1.005-1.72 2.868-1.72 2.868l-.397-9.335 25.78-17.306z" fill-rule="evenodd" stroke="#474747" stroke-width="1.07625" fill="#474747"/><path d="M475.223 183.26l2.178 44.64" stroke="#000" stroke-linecap="round" stroke-width="1.07625" fill="none"/><path d="M447.77 204.576s5.134 3.014 7.032 12.167c16.74-1.228 21.988 4.687 21.988 4.687s13.73-6.585 20.09-5.357c2.232-4.688 8.594-10.715 8.594-10.715" stroke="#000" stroke-width="NaN" fill="none"/><path d="M440.765 160.824l34.462 22.547 31.03-20.87s6.473-3.573 5.915-6.14-2.79-1.563-3.907-1.116c-1.116.446-32.48 22.657-32.48 22.657l-33.373-21.093s-2.455-.782-2.902.78.92 2.456 1.254 3.238z" fill-rule="evenodd" stroke="#000" stroke-width="NaN" fill="#b4b6b9"/><path stroke-linejoin="round" d="M502.39 154.972s-8.816-3.743-8.816-.5c0 3.245.25 3.578 1.663 5.657 1.415 2.08-1.08 3.41-1.08 3.41s-.334-.915-.833-2.33c-.5-1.413-5.24-2.41-5.656-4.075-.416-1.664.998-4.326-1.83-4.66-2.83-.33-5.574 1.166-6.156 4.41-.582 3.244-4.242 10.814-4.242 10.814l.5-17.22c6.21.444 17.745 1.802 26.618 2.828-2.662-.416.998.167.915 1.082-.25.748-1.165.832-1.082.582z" fill-rule="evenodd" stroke="#474747" stroke-width="1.07625" fill="#474747"/><path stroke-linejoin="round" d="M471.195 150.643c-1.58 0-9.483.915-11.48 2.08-1.996 1.165 3.245 2.995 2.58 4.575-.666 1.58-.75 4.742-3.245 4.076-2.495-.665-10.897-4.825-11.146-6.24-.25-1.413-1.997-1.496-1.997-1.496s24.124-3.244 25.29-2.995z" fill-rule="evenodd" stroke="#474747" stroke-width="1.07625" fill="#474747"/><path d="M475 148.664l-.06 21.155" stroke="#000" stroke-width="NaN" fill="none"/><path d="M458.708 123.74s-9.665 15.696-9.857 16.174" stroke="#000" stroke-width="NaN" fill="none"/><path d="M476.513 123.354s4.21 5.742 3.733 7.37c1.722 1.338 3.636 6.697 3.636 6.697" fill-rule="evenodd" stroke="#000" stroke-width="NaN" fill="url(#f)"/><path d="M492.78 122.4s-9.093 12.822-8.805 13.78" stroke="#000" stroke-width="NaN" fill="none"/><path d="M446.17 61.44c-.204.717-1.362.995-2.585.62s-2.047-1.26-1.84-1.977c.205-.717 1.362-.994 2.585-.62s2.047 1.26 1.84 1.977z" fill-rule="evenodd"/><path d="M449.928 61.187c.205.717 1.363.995 2.586.62s2.047-1.26 1.84-1.977c-.205-.717-1.362-.994-2.585-.62s-2.048 1.26-1.842 1.977z" fill-rule="evenodd"/><path stroke-linejoin="round" d="M556.282 326.79s-3.37.63-3.266.947-9.797.632-10.008.316c-.21-.316-1.475 1.685-1.475 1.685l1.58-.948s2.423 2.53 3.16 2.318c.738-.21-.315.948-.105 1.16.21.21.95-.423.95-.423l16.37-.273-7.206-4.783z" fill-rule="evenodd" stroke="#000" stroke-width="NaN" fill="#ff7000"/><path stroke-linejoin="round" d="M562.383 331.884l-13.37.387s-3.372 3.056-3.583 3.793 2.213.948 2.213.948l.737 2.53 1.686-.633s11.37 1.69 21.806-.632c5.267-1.843 6.19-4.056 2.502-5.4-3.687-1.342-11.886-.94-11.99-.99z" fill-rule="evenodd" stroke="#000" stroke-width="1.07625" fill="#ff7000"/><path d="M516.59 359.32l24.073-1.073-4.483-3.8 65.1-2.632-2.24-5.165-72.9 2.923 8.772 4.094-19.685.584.584 2.048-5.164-.195s5.75 2.242 5.945 3.216z" fill-rule="evenodd" stroke="#000" stroke-width="NaN" fill="url(#g)"/><path d="M543.58 226.35c-1.913-.957-10.326-2.104-19.695 4.015l.383 21.605s13.767-7.456 20.46-5.736c-.384-6.692-.384-15.296-1.15-19.884z" fill-rule="evenodd" stroke="#000" stroke-width="NaN" fill="url(#h)"/><path d="M410.484 291.952l-56.76 56.35" stroke="#000" stroke-width="NaN" fill="none"/><path d="M435.782 292.365l-46.07 60.672" stroke="#000" stroke-width="NaN" fill="none"/><path d="M433.725 276.53l-61.494 74.45" stroke="#000" stroke-width="NaN" fill="none"/><path d="M370.38 349.947l5.964-6.992" stroke="#000" stroke-width="NaN" fill="none"/><path d="M445.446 313.957l-23.857 32.91" stroke="#000" stroke-width="NaN" fill="none"/><path d="M420.56 351.187l.618 12.538" stroke="#000" stroke-width="NaN" fill="none"/><path d="M456.34 325.472l-25.294 31.672" stroke="#000" stroke-width="NaN" fill="none"/><path d="M451.823 354.68l10.283-16.864" stroke="#000" stroke-width="NaN" fill="none"/><path d="M455.73 334.526l-12.34 13.984" stroke="#000" stroke-width="NaN" fill="none"/><path d="M452.03 321.367l-8.432 10.283" stroke="#000" stroke-width="NaN" fill="none"/><path d="M441.126 306.35s-25.707 37.635-25.295 40.72" stroke="#000" stroke-width="NaN" fill="none"/><path d="M438.45 301.42c-.617.41-22.21 28.996-22.21 28.996" stroke="#000" stroke-width="NaN" fill="none"/><path d="M415.008 339.457l-3.907 4.73" stroke="#000" stroke-width="NaN" fill="none"/><path d="M406.165 351.393l-5.964 7.814" stroke="#000" stroke-width="NaN" fill="none"/><path d="M407.676 205.334s-1.742 5.473 0 8.21 12.687 24.878 12.687 24.878 7.464-9.205 10.2-9.454c2.738-.25 1.493 23.883 1.493 23.883s-4.477 4.23-7.214 3.982c-2.737-.248 6.717 9.454 6.468 17.664s-12.44 49.01-16.917 49.757c-4.478.746 1.99-7.464 1.74-9.703-.248-2.24-1.492-.747-2.487-3.235-.995-2.488 1.493-6.22.995-8.707s-2.735-1.99-2.984-3.732 1.493-2.24 1.244-4.228c-.25-1.99-2.985-1.494-2.737-3.235.25-1.74.498-.995.25-4.23-.25-3.233-.747 2.24-3.484 2.49-2.738.247-4.977 6.467-4.977 6.467s-5.473 7.712-10.946 4.23c3.234 6.965.746 9.95-.498 10.2s.994 5.473-1.99 5.72 2.238 11.694-1.245 12.69c3.732 1.74.746 3.98.746 3.98s-8.623.716-6.716 11.942c-25.376-8.942-37.815-24.364-37.566-40.035.25-15.673 5.224-29.854 17.415-35.08 3.483-12.936 9.453-26.867 9.453-26.867s-.995-5.722-.25-9.454c.748-3.732 4.23-7.463 4.23-7.463s-.497-8.957-.248-13.434c.25-4.48 1.99-6.47 2.24-8.957.248-2.488-.747-15.177 1.74-17.415 2.488-2.24 7.215-1.99 9.703-3.484 2.49-1.492 5.723-4.23 8.957-3.98s5.97 2.488 5.97 2.488 12.19 0 12.937 4.727c.747 4.725-2.488 6.467-2.488 6.467s1.742 6.717-5.722 12.937z" fill-rule="evenodd" stroke="#2b2b2b" stroke-width="NaN" fill="#8a9396"/><path d="M396.932 188.112c.39.72-.5 1.96-1.987 2.765s-3.01.874-3.4.153c-.392-.722.497-1.96 1.985-2.766s3.01-.874 3.402-.152z" fill-rule="evenodd" stroke="#2b2b2b" stroke-width="NaN" fill="#cecfcf"/><path d="M394.783 189.395c0 .455-.414.824-.924.824-.512 0-.926-.37-.926-.825 0-.455.414-.823.925-.823.51 0 .923.368.923.823z" fill-rule="evenodd"/><path d="M412.977 197.588s3.02 13.49-.592 22.81" stroke="#2b2b2b" stroke-width="0.538125" fill="none"/><path d="M413.906 191.685s5.896 7.797 5.135 17.495" stroke="#2b2b2b" stroke-width="0.538125" fill="none"/><path d="M414.477 189.972c.19 0 4.944 4.184 4.754 7.036" stroke="#2b2b2b" stroke-width="0.538125" fill="none"/><path d="M415.618 188.26s3.233 2.282 3.994 4.564" stroke="#2b2b2b" stroke-width="0.538125" fill="none"/><path d="M414.097 186.926s-11.6 18.826-10.08 30.616" stroke="#000" stroke-width="NaN" fill="none"/><path d="M414.857 186.358s-15.403 9.128-18.255 38.984" stroke="#2b2b2b" stroke-width="0.538125" fill="none"/><path d="M413.146 191.874l-6.086 4.564" stroke="#000" stroke-width="NaN" fill="none"/><path d="M390.897 227.055s8.557-35.56 23.77-40.696" stroke="#2b2b2b" stroke-width="0.538125" fill="none"/><path d="M420.562 239.034s8.177-10.268 10.08-9.888c1.9.38 1.33 23.77 1.33 23.77s-6.086 4.565-7.417 4.374c-1.33-.19 6.846 11.03 6.656 15.214-.19 4.184-.38 4.184-.38 4.184s0-2.473-1.9-6.466c-1.903-3.994-.762-8.558-13.122-18.636-3.043-6.276 6.085 3.803 7.987 2.282 1.9-1.522-3.423-14.643-3.233-14.833z" fill-rule="evenodd" stroke="#2b2b2b" stroke-width="NaN" fill="#2b2b2b"/><path d="M406.025 181.203s-3.438.937-3.906 2.344c-.47 1.406-2.502 2.812-3.595 2.344-1.094-.468-3.126-2.187-3.126-2.187" stroke="#2b2b2b" stroke-width="NaN" fill="none"/><path stroke-linejoin="round" d="M386.492 193.234s-5.156 5.157-2.656 5.782c2.5.625 5.156-4.063 5.156-4.063s0 7.97 2.188 6.72 8.595-5.783 8.595-5.783 2.187-.156 2.656 0c.47.157 5.94 4.844 9.533 3.126-2.03 5.312-4.375 5.938-4.375 5.938s-3.75 4.844-8.595 3.75c-4.844-1.094-6.094-3.125-6.094-3.125s-4.064.31-5.314-1.564c-1.25-1.875-1.72-2.97-1.72-2.97s-2.343 2.345-2.968 1.25c-.625-1.093 0-7.5 3.594-9.062z" fill-rule="evenodd" stroke="#2b2b2b" stroke-width="1.07625" fill="#2b2b2b"/><path d="M415.714 186.048s-9.532-2.813-12.814 1.875c-3.28 4.688-2.5 7.345-.78 7.813" stroke="#2b2b2b" stroke-width="NaN" fill="none"/><path d="M417.184 185.78c0 1.125-.804 2.036-1.797 2.036s-1.797-.91-1.797-2.035.805-2.034 1.797-2.034 1.797.91 1.797 2.035z" fill-rule="evenodd"/><path d="M389.442 210.1s3.887 5.98 8.52 7.626-3.213 3.064-7.847-.075c-3.363-4.56-2.466-7.847-2.466-7.847s.896-.898 1.792.298z" fill-rule="evenodd" stroke="#2b2b2b" stroke-width="NaN" fill="#2b2b2b"/><path d="M422.705 245.386s-10.913-15.173-14.053-15.996c-3.14-.822 2.392-1.495 5.756 1.72 3.363 3.213-.897-5.233-.897-5.233l9.195 19.51z" fill-rule="evenodd" stroke="#2b2b2b" stroke-width="NaN" fill="#2b2b2b"/><path stroke-linejoin="round" d="M388.397 333.063c4.186-1.122 22.423 10.464 26.534 13.38 4.112 2.914 12.708 1.046 12.708 1.046s-3.962 2.39-6.428 2.988 7.325.598 7.325.598-23.32 6.43-47.016-6.054c-2.168-9.717 5.082-11.885 6.876-11.96z" fill-rule="evenodd" stroke="#2b2b2b" stroke-width="1.07625" fill="#2b2b2b"/><path d="M415.08 249.12s-3.063-.597-4.633-2.39c-1.57-1.795-3.812-6.205-6.13-8.074s-13.902-8.222-18.088-7.774c-4.187.45-5.458-.448-5.98-.97-.524-.525-2.243.223-1.944 2.39.3 2.168-3.214 6.952-1.944 9.194 1.27 2.243 7.25 11.362 8.447 11.66 1.195.3.447 5.307.447 5.307s5.307 5.382 6.653 5.68c1.345.3 2.69 1.272 2.54 2.542-.15 1.27-5.83 8.223-5.83 8.223s-6.128 3.214-6.203 5.007c-.075 1.794 1.495 5.532 6.353 6.728 4.86 1.196 17.94.224 18.612-.897.673-1.12 1.72-7.85 1.27-8.52-.448-.674-3.662-2.692-5.306-2.393-1.645.3-3.14 1.644-2.99 1.943.15.3-2.317 1.57-2.317.374 0-1.196 4.857-6.578 5.306-6.13.448.45 7.325 1.122 8.596 4.56s1.27 5.905 4.858 5.53c3.588-.372 8.596-3.66 9.044-10.537.45-6.877-4.036-11.512-5.157-12.184-1.122-.673-4.86-2.916-5.158-3.962-.3-1.047-1.047-4.485-.45-5.307z" fill-rule="evenodd" stroke="#2b2b2b" stroke-width="NaN" fill="#2b2b2b"/><path d="M350.425 279.474s11.585-2.99 14.576-2.915c2.99.073 14.277 5.306 17.566 8.52 3.29 3.214 10.016 10.838 14.426 10.165s5.68-1.57 5.68-1.57l-1.718 3.29s-3.588.97-5.382.522c-1.794-.448-5.307-1.57-8.82-5.008-3.513-3.44-14.35-12.707-23.545-12.035-9.194.672-14.5 9.717-14.5 9.717s.074-4.41.448-5.382c.373-.972-1.944 2.093-1.944 2.093l3.215-7.4z" fill-rule="evenodd" stroke="#2b2b2b" stroke-width="NaN" fill="#2b2b2b"/><path d="M393.105 288.44c.075.076 2.915.823 7.7.823s7.324-2.093 7.324-2.093l-.3-1.87.748-2.615s3.662 3.738 3.587 4.485c-.074.748-1.495 1.047-1.495 1.047l-.523-1.794-1.27 1.57s-6.952 5.53-10.764 4.708c-3.812-.82-7.325-3.287-6.353-3.885s1.495-.374 1.345-.374z" fill-rule="evenodd" stroke="#2b2b2b" stroke-width="NaN" fill="#2b2b2b"/><path d="M376.213 298.234s-4.186-.074-6.055.823c-1.87.897-2.54 2.018-3.812 1.868-1.27-.15-2.242-1.794-1.87-2.466.525-1.048 2.99-2.393 7.7-2.02s4.037 1.794 4.037 1.794z" fill-rule="evenodd" stroke="#2b2b2b" stroke-width="NaN" fill="#2b2b2b"/><path d="M390.863 309.594c0-.224-.3-6.13-2.616-8.52s-5.157-2.393-6.428-2.094c-1.272.3 4.708 2.915 5.306 4.635.598 1.72 2.54 6.503 2.018 7.698-.523 1.196-1.495-3.363-5.157-4.634s-8.746-.6-7.7 1.046 5.158.15 7.25 3.662 3.664 7.25 3.664 7.25l.673-2.54 1.87-.524.223-4.86.897-1.12z" fill-rule="evenodd" stroke="#2b2b2b" stroke-width="NaN" fill="#2b2b2b"/><path stroke-linejoin="round" d="M387.874 328.725l-3.813-7.624s-1.194-4.857-4.41-6.203c-3.213-1.345-7.473-1.12-7.548.523-.075 1.645 6.877 3.738 7.325 4.635.45.897.225 2.39-.373 2.466-.598.076-3.663-1.12-5.233-.746-1.568.373-2.465 2.392-4.782 1.794-2.318-.598-4.26-7.998-3.364-8.746.897-.747-1.72 1.346-2.242-.598-.524-1.943.747-7.998-.15-8.745-.897-.748-5.232-3.364-5.307-3.888-.075-.523.224-29.75 24.666-5.53-10.463-12.41-14.574-11.063-16.518-11.138-1.42 0-10.913.822-13.304 12.93-2.392 12.11-5.233 4.56-5.233 4.56s-.523 5.233 2.02 6.728c2.54 1.495-1.197 5.83-1.197 5.83s-4.56-11.137-3.887-15.996c-.896 3.887-.82 13.53 4.934 24.07 6.727 7.1 13.08 13.677 29.974 21.077 8.895-13.604 8.446-15.248 8.446-15.398z" fill-rule="evenodd" stroke="#2b2b2b" stroke-width="1.07625" fill="#2b2b2b"/><path stroke-linejoin="round" d="M371.878 328.803s4.933.598 6.278 3.14c1.346 2.54 1.944 6.427 1.944 6.427.822-1.644 1.196-3.064 2.84-4.26s2.84-1.346 2.766-2.243c-.075-.897-5.232-6.353-7.85-6.652-2.615-.3-7.174 2.84-7.174 2.84s-.822 1.196 1.196.748z" fill-rule="evenodd" stroke="#2b2b2b" stroke-width="1.07625" fill="#8a9396"/><path d="M383.145 341.66s12.785 5.828 33.843 6.204" stroke="#8a9396" stroke-linecap="round" stroke-width="1.07625" fill="none"/><path d="M425.825 282.314s-1.1 10.726-9.35 31.902" stroke="#2b2b2b" stroke-linecap="round" stroke-width="1.07625" fill="none"/><path d="M424.18 288.914s-2.474 7.7-9.35 13.476" stroke="#2b2b2b" stroke-width="NaN" fill="none"/></g></g></svg>