<svg xmlns="http://www.w3.org/2000/svg" height="480" width="640" version="1"><defs><clipPath id="a"><path fill-opacity=".67" d="M-87.62 0h682.67v512H-87.62z"/></clipPath></defs><g fill-rule="evenodd" clip-path="url(#a)"><path fill="#fff" d="M663.17 480.256H-22.913V0h686.08z"/><path fill="#00c" d="M663.17 108.086H-22.913v-63.06h686.08z"/><path fill="#00c" d="M663.17 436.808H-22.913v-63.06h686.08z"/><path d="M210.047 178.856l103.238 179.57 105.46-178.83-208.698-.74z" fill="#00c"/><path d="M293.785 297.947l19.64 33.287 20.063-33.15-39.704-.137z" fill="#fff"/><path d="M209.663 300.544l103.247-179.57 105.45 178.83-208.697.74z" fill="#00c"/><path d="M293.785 179.634l19.64-33.286 20.063 33.15-39.704.136z" fill="#fff"/><path d="M252.74 254.166L232.454 287.9l38.343-.12-18.054-33.615z" fill="#fff"/><path d="M232.8 191.822l38.65.27-18.596 33.997L232.8 191.82z" fill="#fff"/><path d="M374.588 254.55l19.527 33.352-39.103-.5 19.576-32.852z" fill="#fff"/><path d="M393.76 191.822l-38.65.27 18.596 33.997 20.054-34.268z" fill="#fff"/><path d="M286.632 191.784l-26.62 48.296 27 47.153 49.435 1.14 30.04-48.293-27.76-48.675-52.097.38z" fill="#fff"/></g></svg>