<svg xmlns="http://www.w3.org/2000/svg" height="480" width="640"><defs><clipPath id="a"><path fill-opacity=".67" d="M0 0h682.67v512H0z"/></clipPath></defs><g clip-path="url(#a)"><path fill-rule="evenodd" fill="#fff" d="M0 0h960v480H0z"/><path d="M960 417.412c-10.757 6.472-20 21.596-48.576 21.596-57.137 0-71.426-31.842-114.28-31.842-28.57 0-42.856 31.842-71.426 31.842-57.143 0-71.43-31.842-114.28-31.842-28.574 0-42.86 31.842-71.43 31.842-57.143 0-71.43-31.842-114.282-31.842-28.572 0-42.858 31.842-71.43 31.842-57.14 0-71.428-31.842-114.28-31.842-28.573 0-42.858 31.842-71.43 31.842-57.142 0-71.43-31.842-114.29-31.842-28.57 0-37.143 22.69-54.286 22.69v40.994c17.143 0 25.714-22.688 54.286-22.688 42.858 0 57.146 31.838 114.282 31.838 28.57 0 42.855-31.842 71.43-31.842 42.855 0 57.14 31.842 114.28 31.842 28.57 0 42.857-31.842 71.43-31.842 42.856 0 57.14 31.842 114.28 31.842 28.57 0 42.857-31.842 71.43-31.842 42.856 0 57.142 31.842 114.28 31.842 28.572 0 42.857-31.842 71.426-31.842 42.858 0 57.146 31.842 114.28 31.842 28.578 0 37.82-9.023 48.577-15.495V417.41z" fill-rule="evenodd" fill="#000063"/><path d="M960 337.8c-10.757 6.47-20 21.595-48.576 21.595-57.137 0-71.426-31.842-114.28-31.842-28.57 0-42.856 31.842-71.426 31.842-57.143 0-71.43-31.842-114.28-31.842-28.574 0-42.86 31.842-71.43 31.842-57.143 0-71.43-31.842-114.282-31.842-28.572 0-42.858 31.842-71.43 31.842-57.14 0-71.428-31.842-114.28-31.842-28.573 0-42.858 31.842-71.43 31.842-57.142 0-71.43-31.842-114.29-31.842-28.57 0-37.143 22.69-54.286 22.69v40.994c17.143.01 25.714-22.687 54.286-22.687 42.857 0 57.144 31.842 114.29 31.842 28.572 0 42.857-31.842 71.43-31.842 42.856 0 57.142 31.842 114.28 31.842 28.572 0 42.858-31.842 71.43-31.842 42.857 0 57.143 31.842 114.282 31.842 28.57 0 42.856-31.842 71.43-31.842 42.855 0 57.14 31.842 114.28 31.842 28.57 0 42.857-31.842 71.425-31.842 42.858 0 57.146 31.842 114.28 31.842 28.578 0 37.82-9.023 48.577-15.495v-47.095z" fill-rule="evenodd" fill="#000063"/><path d="M960 258.197c-10.757 6.47-20 21.595-48.576 21.595-57.137 0-71.426-31.842-114.28-31.842-28.57 0-42.856 31.842-71.426 31.842-57.143 0-71.43-31.842-114.28-31.842-28.574 0-42.86 31.842-71.43 31.842-57.143 0-71.43-31.842-114.282-31.842-28.572 0-42.858 31.842-71.43 31.842-57.14 0-71.428-31.842-114.28-31.842-28.573 0-42.858 31.842-71.43 31.842-57.142 0-71.43-31.842-114.29-31.842-28.57 0-37.143 22.69-54.286 22.69v40.994c17.143 0 25.714-22.687 54.286-22.687 42.857 0 57.144 31.842 114.29 31.842 28.572 0 42.857-31.843 71.43-31.843 42.856 0 57.142 31.842 114.28 31.842 28.572 0 42.858-31.843 71.43-31.843 42.857 0 57.143 31.842 114.282 31.842 28.57 0 42.856-31.843 71.43-31.843 42.855 0 57.14 31.842 114.28 31.842 28.57 0 42.857-31.843 71.425-31.843 42.858 0 57.146 31.842 114.28 31.842 28.578 0 37.82-9.024 48.577-15.496V258.2z" fill-rule="evenodd" fill="#000063"/><path d="M960 178.594c-10.757 6.47-20 21.595-48.576 21.595-57.137 0-71.426-31.843-114.28-31.843-28.57 0-42.856 31.842-71.426 31.842-57.143 0-71.43-31.843-114.28-31.843-28.574 0-42.86 31.842-71.43 31.842-57.143 0-71.43-31.843-114.282-31.843-28.572 0-42.858 31.842-71.43 31.842-57.14 0-71.428-31.843-114.28-31.843-28.573 0-42.858 31.842-71.43 31.842-57.142 0-71.43-31.843-114.29-31.843-28.57 0-37.143 22.69-54.286 22.69v40.994c17.143 0 25.714-22.686 54.286-22.686 42.857 0 57.144 31.842 114.29 31.842 28.572 0 42.857-31.842 71.43-31.842 42.856 0 57.142 31.842 114.28 31.842 28.572 0 42.858-31.842 71.43-31.842 42.857 0 57.143 31.842 114.282 31.842 28.57 0 42.856-31.842 71.43-31.842 42.855 0 57.14 31.842 114.28 31.842 28.57 0 42.857-31.842 71.425-31.842 42.858 0 57.146 31.842 114.28 31.842 28.578 0 37.82-9.024 48.577-15.495v-47.094z" fill-rule="evenodd" fill="#000063"/><path d="M960 98.99c-10.757 6.472-20 21.596-48.576 21.596-57.137 0-71.426-31.842-114.28-31.842-28.57 0-42.856 31.842-71.426 31.842-57.143 0-71.43-31.842-114.28-31.842-28.574 0-42.86 31.842-71.43 31.842-57.143 0-71.43-31.842-114.282-31.842-28.572 0-42.858 31.842-71.43 31.842-57.14 0-71.428-31.842-114.28-31.842-28.573 0-42.858 31.842-71.43 31.842-57.142 0-71.43-31.842-114.29-31.842-28.585-.002-37.157 22.687-54.3 22.687v40.995c17.143 0 25.714-22.69 54.286-22.69 42.857 0 57.144 31.842 114.29 31.842 28.572 0 42.857-31.842 71.43-31.842 42.856 0 57.142 31.842 114.28 31.842 28.572 0 42.858-31.842 71.43-31.842 42.857 0 57.143 31.842 114.28 31.842 28.573 0 42.858-31.842 71.43-31.842 42.857 0 57.143 31.842 114.282 31.842 28.57 0 42.857-31.842 71.425-31.842 42.857 0 57.145 31.842 114.28 31.842 28.577 0 37.82-9.023 48.576-15.495V98.987z" fill-rule="evenodd" fill="#000063"/><path d="M960 19.383c-10.757 6.47-20 21.595-48.576 21.595-57.137 0-71.426-31.842-114.28-31.842-28.57 0-42.856 31.842-71.426 31.842-57.143 0-71.43-31.842-114.28-31.842-28.574 0-42.86 31.842-71.43 31.842-57.143 0-71.43-31.842-114.282-31.842-28.572 0-42.858 31.842-71.43 31.842-57.14 0-71.428-31.842-114.28-31.842-28.573 0-42.858 31.842-71.43 31.842-57.142 0-71.43-31.842-114.29-31.842-28.585 0-37.157 22.69-54.3 22.69V72.82c17.143 0 25.714-22.69 54.286-22.69 42.857 0 57.144 31.842 114.29 31.842 28.572 0 42.857-31.842 71.43-31.842 42.856 0 57.142 31.842 114.28 31.842 28.572 0 42.858-31.842 71.43-31.842 42.857 0 57.143 31.842 114.28 31.842 28.573 0 42.858-31.842 71.43-31.842 42.857 0 57.143 31.842 114.282 31.842 28.57 0 42.857-31.842 71.425-31.842 42.857 0 57.145 31.842 114.28 31.842 28.577 0 37.82-9.023 48.576-15.495V19.382z" fill-rule="evenodd" fill="#000063"/><path fill-rule="evenodd" fill="#000063" d="M0 .06h244.978V148.1H0z"/><g><path d="M0 .06v16.55l217.59 131.5h27.39v-16.552L27.39.058H0zm244.98-.06v16.552L27.39 148.05H0v-16.552L217.59 0h27.39z" fill="#fff"/><path d="M102.075.06v148.05h40.83V.06h-40.83zm-179.15 49.29V98.7h244.98V49.35h-244.98z" fill="#fff"/><path d="M0 59.28v29.61h244.98V59.28H0zM110.24-94.5v148.05h24.5V-47.22h-24.5z" fill="#c00"/><path d="M0 148.11l81.66-49.35h18.26l-81.66 49.35H0zm0-266.16L81.66-68.7H63.4L0-107.015v-11.035zm145.06 167.4L226.72 0h18.26l-81.66 49.35h-18.26zm-9.613 59.35l-81.66-49.35h18.26l63.4 38.315V108.7z" fill="#c00"/></g><g><path d="M814.96-301.18l-17.72 708.66c0 37.298 80.097 37.298 88.583 0l-17.717-708.66h-53.15z" fill-rule="evenodd" transform="matrix(.194 0 0 .46 198.449 250.825)" stroke="#fff" stroke-width="6.935" fill="#a24300"/><g><g><path d="M496.06 549.21l17.717 70.866 35.433-53.15-17.717 88.583 35.433-35.434-35.433 88.582 35.433-35.433-35.433 88.583 35.433-35.433-35.433 106.3 35.433-35.433-35.433 106.3 35.433-35.433-35.433 106.3-17.716 53.15-17.717 17.72-17.717-17.72-17.716-53.15-35.433-106.3 35.433 35.432-35.433-106.3 35.433 35.433-35.433-106.3 35.433 35.433-35.433-88.583 35.433 35.433-35.433-88.582 35.433 35.433-17.717-88.584 35.433 53.15 17.717-70.866z" fill-rule="evenodd" transform="matrix(-.221 .063 -.097 -.183 554.499 302.434)" stroke="#fff" stroke-width="8.25" fill="#006d00"/><path d="M496.06 549.21v496.07" transform="matrix(-.221 .063 -.097 -.183 554.499 302.434)" stroke="#000" stroke-width="1pt" fill="none"/><path d="M425.2 868.11l70.86 106.3 70.87-106.3" transform="matrix(-.221 .063 -.097 -.183 554.499 302.434)" stroke="#000" stroke-width="1pt" fill="none"/><path d="M425.2 797.24l70.866 106.3 70.866-106.3" transform="matrix(-.221 .063 -.097 -.183 554.499 302.434)" stroke="#000" stroke-width="1pt" fill="none"/><path d="M425.2 726.38l70.866 106.3 70.866-106.3" transform="matrix(-.221 .063 -.097 -.183 554.499 302.434)" stroke="#000" stroke-width="1pt" fill="none"/><path d="M425.2 673.23l70.866 88.583 70.866-88.583" transform="matrix(-.221 .063 -.097 -.183 554.499 302.434)" stroke="#000" stroke-width="1pt" fill="none"/><path d="M425.2 620.08l70.866 88.582 70.866-88.582" transform="matrix(-.221 .063 -.097 -.183 554.499 302.434)" stroke="#000" stroke-width="1pt" fill="none"/><path d="M442.91 566.93l53.15 106.3 53.15-106.3" transform="matrix(-.221 .063 -.097 -.183 554.499 302.434)" stroke="#000" stroke-width="1pt" fill="none"/></g><g><path d="M496.06 549.21l17.717 70.866 35.433-53.15-17.717 88.583 35.433-35.434-35.433 88.582 35.433-35.433-35.433 88.583 35.433-35.433-35.433 106.3 35.433-35.433-35.433 106.3 35.433-35.433-35.433 106.3-17.716 53.15-17.717 17.72-17.717-17.72-17.716-53.15-35.433-106.3 35.433 35.432-35.433-106.3 35.433 35.433-35.433-106.3 35.433 35.433-35.433-88.583 35.433 35.433-35.433-88.582 35.433 35.433-17.717-88.584 35.433 53.15 17.717-70.866z" fill-rule="evenodd" transform="matrix(.166 -.17 .207 .137 69.218 87.749)" stroke="#fff" stroke-width="8.25" fill="#006d00"/><path d="M496.06 549.21v496.07" transform="matrix(.166 -.17 .207 .137 69.218 87.749)" stroke="#000" stroke-width="1pt" fill="none"/><path d="M425.2 868.11l70.86 106.3 70.87-106.3" transform="matrix(.166 -.17 .207 .137 69.218 87.749)" stroke="#000" stroke-width="1pt" fill="none"/><path d="M425.2 797.24l70.866 106.3 70.866-106.3" transform="matrix(.166 -.17 .207 .137 69.218 87.749)" stroke="#000" stroke-width="1pt" fill="none"/><path d="M425.2 726.38l70.866 106.3 70.866-106.3" transform="matrix(.166 -.17 .207 .137 69.218 87.749)" stroke="#000" stroke-width="1pt" fill="none"/><path d="M425.2 673.23l70.866 88.583 70.866-88.583" transform="matrix(.166 -.17 .207 .137 69.218 87.749)" stroke="#000" stroke-width="1pt" fill="none"/><path d="M425.2 620.08l70.866 88.582 70.866-88.582" transform="matrix(.166 -.17 .207 .137 69.218 87.749)" stroke="#000" stroke-width="1pt" fill="none"/><path d="M442.91 566.93l53.15 106.3 53.15-106.3" transform="matrix(.166 -.17 .207 .137 69.218 87.749)" stroke="#000" stroke-width="1pt" fill="none"/></g><g><path d="M496.06 549.21l17.717 70.866 35.433-53.15-17.717 88.583 35.433-35.434-35.433 88.582 35.433-35.433-35.433 88.583 35.433-35.433-35.433 106.3 35.433-35.433-35.433 106.3 35.433-35.433-35.433 106.3-17.716 53.15-17.717 17.72-17.717-17.72-17.716-53.15-35.433-106.3 35.433 35.432-35.433-106.3 35.433 35.433-35.433-106.3 35.433 35.433-35.433-88.583 35.433 35.433-35.433-88.582 35.433 35.433-17.717-88.584 35.433 53.15 17.717-70.866z" fill-rule="evenodd" transform="matrix(.107 .202 -.234 .101 545.756 -54.224)" stroke="#fff" stroke-width="8.25" fill="#006d00"/><path d="M496.06 549.21v496.07" transform="matrix(.107 .202 -.234 .101 545.756 -54.224)" stroke="#000" stroke-width="1pt" fill="none"/><path d="M425.2 868.11l70.86 106.3 70.87-106.3" transform="matrix(.107 .202 -.234 .101 545.756 -54.224)" stroke="#000" stroke-width="1pt" fill="none"/><path d="M425.2 797.24l70.866 106.3 70.866-106.3" transform="matrix(.107 .202 -.234 .101 545.756 -54.224)" stroke="#000" stroke-width="1pt" fill="none"/><path d="M425.2 726.38l70.866 106.3 70.866-106.3" transform="matrix(.107 .202 -.234 .101 545.756 -54.224)" stroke="#000" stroke-width="1pt" fill="none"/><path d="M425.2 673.23l70.866 88.583 70.866-88.583" transform="matrix(.107 .202 -.234 .101 545.756 -54.224)" stroke="#000" stroke-width="1pt" fill="none"/><path d="M425.2 620.08l70.866 88.582 70.866-88.582" transform="matrix(.107 .202 -.234 .101 545.756 -54.224)" stroke="#000" stroke-width="1pt" fill="none"/><path d="M442.91 566.93l53.15 106.3 53.15-106.3" transform="matrix(.107 .202 -.234 .101 545.756 -54.224)" stroke="#000" stroke-width="1pt" fill="none"/></g><g><path d="M496.06 549.21l17.717 70.866 35.433-53.15-17.717 88.583 35.433-35.434-35.433 88.582 35.433-35.433-35.433 88.583 35.433-35.433-35.433 106.3 35.433-35.433-35.433 106.3 35.433-35.433-35.433 106.3-17.716 53.15-17.717 17.72-17.717-17.72-17.716-53.15-35.433-106.3 35.433 35.432-35.433-106.3 35.433 35.433-35.433-106.3 35.433 35.433-35.433-88.583 35.433 35.433-35.433-88.582 35.433 35.433-17.717-88.584 35.433 53.15 17.717-70.866z" fill-rule="evenodd" transform="matrix(-.147 .182 -.221 -.12 662.012 185.341)" stroke="#fff" stroke-width="8.25" fill="#006d00"/><path d="M496.06 549.21v496.07" transform="matrix(-.147 .182 -.221 -.12 662.012 185.341)" stroke="#000" stroke-width="1pt" fill="none"/><path d="M425.2 868.11l70.86 106.3 70.87-106.3" transform="matrix(-.147 .182 -.221 -.12 662.012 185.341)" stroke="#000" stroke-width="1pt" fill="none"/><path d="M425.2 797.24l70.866 106.3 70.866-106.3" transform="matrix(-.147 .182 -.221 -.12 662.012 185.341)" stroke="#000" stroke-width="1pt" fill="none"/><path d="M425.2 726.38l70.866 106.3 70.866-106.3" transform="matrix(-.147 .182 -.221 -.12 662.012 185.341)" stroke="#000" stroke-width="1pt" fill="none"/><path d="M425.2 673.23l70.866 88.583 70.866-88.583" transform="matrix(-.147 .182 -.221 -.12 662.012 185.341)" stroke="#000" stroke-width="1pt" fill="none"/><path d="M425.2 620.08l70.866 88.582 70.866-88.582" transform="matrix(-.147 .182 -.221 -.12 662.012 185.341)" stroke="#000" stroke-width="1pt" fill="none"/><path d="M442.91 566.93l53.15 106.3 53.15-106.3" transform="matrix(-.147 .182 -.221 -.12 662.012 185.341)" stroke="#000" stroke-width="1pt" fill="none"/></g><g><path d="M496.06 549.21l17.717 70.866 35.433-53.15-17.717 88.583 35.433-35.434-35.433 88.582 35.433-35.433-35.433 88.583 35.433-35.433-35.433 106.3 35.433-35.433-35.433 106.3 35.433-35.433-35.433 106.3-17.716 53.15-17.717 17.72-17.717-17.72-17.716-53.15-35.433-106.3 35.433 35.432-35.433-106.3 35.433 35.433-35.433-106.3 35.433 35.433-35.433-88.583 35.433 35.433-35.433-88.582 35.433 35.433-17.717-88.584 35.433 53.15 17.717-70.866z" fill-rule="evenodd" transform="matrix(-.146 -.156 .166 -.142 258.592 371.406)" stroke="#fff" stroke-width="8.25" fill="#006d00"/><path d="M496.06 549.21v496.07" transform="matrix(-.146 -.156 .166 -.142 258.592 371.406)" stroke="#000" stroke-width="1pt" fill="none"/><path d="M425.2 868.11l70.86 106.3 70.87-106.3" transform="matrix(-.146 -.156 .166 -.142 258.592 371.406)" stroke="#000" stroke-width="1pt" fill="none"/><path d="M425.2 797.24l70.866 106.3 70.866-106.3" transform="matrix(-.146 -.156 .166 -.142 258.592 371.406)" stroke="#000" stroke-width="1pt" fill="none"/><path d="M425.2 726.38l70.866 106.3 70.866-106.3" transform="matrix(-.146 -.156 .166 -.142 258.592 371.406)" stroke="#000" stroke-width="1pt" fill="none"/><path d="M425.2 673.23l70.866 88.583 70.866-88.583" transform="matrix(-.146 -.156 .166 -.142 258.592 371.406)" stroke="#000" stroke-width="1pt" fill="none"/><path d="M425.2 620.08l70.866 88.582 70.866-88.582" transform="matrix(-.146 -.156 .166 -.142 258.592 371.406)" stroke="#000" stroke-width="1pt" fill="none"/><path d="M442.91 566.93l53.15 106.3 53.15-106.3" transform="matrix(-.146 -.156 .166 -.142 258.592 371.406)" stroke="#000" stroke-width="1pt" fill="none"/></g><g><path d="M460.63 549.21l28.643 70.866 42.223-53.15-10.184 88.583 27.9-35.434-17.716 88.582 25.25-35.433-25.25 88.583 35.433-35.433-35.434 106.3 35.433-35.433-35.434 106.3 35.433-35.433-35.434 106.3-17.716 53.15-17.717 17.72-17.717-17.72-17.716-53.15-35.433-106.3 35.433 35.432-35.433-106.3 35.433 35.433-35.433-106.3 35.433 35.433-45.617-88.583 45.617 35.433-53.15-88.582 42.966 35.433-25.25-88.584 35.433 53.15V549.21z" fill-rule="evenodd" transform="matrix(-.254 -.06 -.147 .192 641.635 -30.27)" stroke="#fff" stroke-width="8.25" fill="#006d00"/><path d="M467.21 584.65l28.855 124.02v336.62" transform="matrix(-.254 -.06 -.147 .192 641.635 -30.27)" stroke="#000" stroke-width="1pt" fill="none"/><path d="M436.23 885.83l59.833 88.582 60.682-88.582" transform="matrix(-.254 -.06 -.147 .192 641.635 -30.27)" stroke="#000" stroke-width="1pt" fill="none"/><path d="M434.53 814.96l61.53 88.582 60.682-88.582" transform="matrix(-.254 -.06 -.147 .192 641.635 -30.27)" stroke="#000" stroke-width="1pt" fill="none"/><path d="M435.38 744.1l60.682 88.582 59.833-88.582" transform="matrix(-.254 -.06 -.147 .192 641.635 -30.27)" stroke="#000" stroke-width="1pt" fill="none"/><path d="M432.84 690.94l63.228 70.866 53.15-70.866" transform="matrix(-.254 -.06 -.147 .192 641.635 -30.27)" stroke="#000" stroke-width="1pt" fill="none"/><path d="M425.2 637.8l70.866 70.865 45.406-70.865" transform="matrix(-.254 -.06 -.147 .192 641.635 -30.27)" stroke="#000" stroke-width="1pt" fill="none"/><path d="M436.12 593.24l53.15 86.886 35.327-95.478" transform="matrix(-.254 -.06 -.147 .192 641.635 -30.27)" stroke="#000" stroke-width="1pt" fill="none"/></g><g><path d="M460.63 549.21l28.643 70.866 42.223-53.15-10.184 88.583 27.9-35.434-17.716 88.582 25.25-35.433-25.25 88.583 35.433-35.433-35.434 106.3 35.433-35.433-35.434 106.3 35.433-35.433-35.434 106.3-17.716 53.15-17.717 17.72-17.717-17.72-17.716-53.15-35.433-106.3 35.433 35.432-35.433-106.3 35.433 35.433-35.433-106.3 35.433 35.433-45.617-88.583 45.617 35.433-53.15-88.582 42.966 35.433-25.25-88.584 35.433 53.15V549.21z" fill-rule="evenodd" transform="matrix(.253 .063 .009 .23 225.715 -129.788)" stroke="#fff" stroke-width="8.25" fill="#006d00"/><path d="M467.21 584.65l28.855 124.02v336.62" transform="matrix(.253 .063 .009 .23 225.715 -129.788)" stroke="#000" stroke-width="1pt" fill="none"/><path d="M436.23 885.83l59.833 88.582 60.682-88.582" transform="matrix(.253 .063 .009 .23 225.715 -129.788)" stroke="#000" stroke-width="1pt" fill="none"/><path d="M434.53 814.96l61.53 88.582 60.682-88.582" transform="matrix(.253 .063 .009 .23 225.715 -129.788)" stroke="#000" stroke-width="1pt" fill="none"/><path d="M435.38 744.1l60.682 88.582 59.833-88.582" transform="matrix(.253 .063 .009 .23 225.715 -129.788)" stroke="#000" stroke-width="1pt" fill="none"/><path d="M432.84 690.94l63.228 70.866 53.15-70.866" transform="matrix(.253 .063 .009 .23 225.715 -129.788)" stroke="#000" stroke-width="1pt" fill="none"/><path d="M425.2 637.8l70.866 70.865 45.406-70.865" transform="matrix(.253 .063 .009 .23 225.715 -129.788)" stroke="#000" stroke-width="1pt" fill="none"/><path d="M436.12 593.24l53.15 86.886 35.327-95.478" transform="matrix(.253 .063 .009 .23 225.715 -129.788)" stroke="#000" stroke-width="1pt" fill="none"/></g><g><path d="M354.33 531.5l88.583 88.583 17.716-53.15v88.583l35.432-35.433-17.716 88.583 35.432-35.434-17.716 88.584 35.433-35.433-17.716 106.3 35.432-35.433-35.433 106.3 35.432-35.433-17.717 106.3-17.716 53.15-17.718 17.72-17.717-17.72-17.716-53.15-53.15-82.294 35.433 11.43-35.433-106.3 35.433 35.432-53.15-106.3 35.433 35.433-53.15-88.584 53.15 35.434-70.866-88.583 53.15 35.433-70.867-70.866 70.866 35.433-53.15-88.583z" fill-rule="evenodd" transform="matrix(.032 -.22 .229 .039 108.077 215.206)" stroke="#fff" stroke-width="8.25" fill="#006d00"/><path d="M378.96 560.02l63.952 95.497 17.716 53.15 8.86 45.205 8.857 78.81 9.315 70.867 8.4 141.74" transform="matrix(.032 -.22 .229 .039 108.077 215.206)" stroke="#000" stroke-width="1pt" fill="none"/><path d="M425.2 903.54l63.665 70.866 50.75-88.583" transform="matrix(.032 -.22 .229 .039 108.077 215.206)" stroke="#000" stroke-width="1pt" fill="none"/><path d="M417.08 814.96l70.58 88.583 50.75-88.583" transform="matrix(.032 -.22 .229 .039 108.077 215.206)" stroke="#000" stroke-width="1pt" fill="none"/><path d="M407.48 752.44l70.867 80.235 45.948-88.583" transform="matrix(.032 -.22 .229 .039 108.077 215.206)" stroke="#000" stroke-width="1pt" fill="none"/><path d="M372.05 637.8l88.583 70.866 25.83-70.866" transform="matrix(.032 -.22 .229 .039 108.077 215.206)" stroke="#000" stroke-width="1pt" fill="none"/><path d="M360.62 602.36l82.296 53.15 10.515-53.15" transform="matrix(.032 -.22 .229 .039 108.077 215.206)" stroke="#000" stroke-width="1pt" fill="none"/><path d="M389.76 690.94l81.095 70.866L504.8 690.94" transform="matrix(.032 -.22 .229 .039 108.077 215.206)" stroke="#000" stroke-width="1pt" fill="none"/></g></g></g><g fill-rule="evenodd"><path d="M541.46 1173.3l-1.7-229.13-61.1-106.94c-15.277-52.618-7.754-78.08 16.973-79.776 24.728-1.698 49.224 13.58 84.868 15.276 35.646 1.697 28.857-59.408 81.475-57.71 52.618 1.697 144.28 32.25 222.36 37.342 78.078 5.092 118.81-27.158 208.77-30.553 89.97-3.396 113.73 42.434 118.82 42.434s30.55-18.672 56.01-22.066c25.46-3.395 33.95 10.184 33.95 10.184s-1.7 57.71-13.58 91.657c-11.88 33.947-54.32 89.96-56.01 89.96-1.7 0-15.28 249.52-15.28 251.21 0 1.7-675.55-6.79-675.55-11.88z" stroke="#000" stroke-width="1pt" fill="#c00" transform="matrix(.129 0 0 .118 249.846 195.282)"/><g stroke="#000" stroke-width="1pt"><path d="M408.46 305.978s8.7-6.148 8.935-20.906c.135-8.488-4.4-14.635-15.74-14.635-15.873 0-38.55 6.272-38.55 6.272v2.09s18.142-6.272 38.55-6.272c9.072 0 13.608 6.146 13.608 12.418 0 10.453-9.07 21.03-9.07 21.03v16.725h2.266v-16.723z" fill="#fff100"/><path d="M413.212 301.596c0 1.154 1.015 2.09 2.268 2.09 1.252 0 2.268-.936 2.268-2.09 0-1.155-1.016-2.09-2.268-2.09-1.252 0-2.268.935-2.268 2.09z" fill="#fff"/><path d="M415.48 296.814c0 1.154 1.014 2.09 2.267 2.09 1.252 0 2.268-.936 2.268-2.09 0-1.155-1.016-2.09-2.268-2.09-1.252 0-2.268.935-2.268 2.09z" fill="#fff"/><path d="M416.66 291.944c0 1.154 1.016 2.09 2.27 2.09 1.25 0 2.267-.936 2.267-2.09 0-1.155-1.016-2.09-2.268-2.09-1.253 0-2.27.935-2.27 2.09z" fill="#fff"/><path d="M417.53 286.737c0 1.154 1.015 2.09 2.268 2.09 1.252 0 2.268-.936 2.268-2.09 0-1.155-1.016-2.09-2.268-2.09-1.252 0-2.268.935-2.268 2.09z" fill="#fff"/><path d="M417.312 281.09c0 1.155 1.015 2.09 2.268 2.09 1.252 0 2.268-.935 2.268-2.09 0-1.154-1.016-2.09-2.268-2.09-1.252 0-2.268.936-2.268 2.09z" fill="#fff"/><path d="M409.953 305.802c0 1.154 1.015 2.09 2.268 2.09s2.27-.936 2.27-2.09c0-1.155-1.017-2.09-2.27-2.09-1.25 0-2.267.935-2.267 2.09z" fill="#fff"/><path d="M415.384 275.758c0 1.154 1.015 2.09 2.268 2.09 1.252 0 2.268-.936 2.268-2.09 0-1.155-1.016-2.09-2.268-2.09-1.252 0-2.268.935-2.268 2.09z" fill="#fff"/><path d="M411.256 271.553c0 1.154 1.015 2.09 2.268 2.09 1.252 0 2.268-.936 2.268-2.09 0-1.155-1.016-2.09-2.268-2.09-1.252 0-2.268.935-2.268 2.09z" fill="#fff"/><path d="M405.607 268.75c0 1.153 1.015 2.09 2.268 2.09 1.252 0 2.268-.937 2.268-2.09 0-1.156-1.016-2.092-2.268-2.092-1.252 0-2.268.936-2.268 2.09z" fill="#fff"/><path d="M399.958 268.348c0 1.154 1.015 2.09 2.268 2.09 1.252 0 2.268-.936 2.268-2.09 0-1.155-1.016-2.09-2.268-2.09-1.252 0-2.268.935-2.268 2.09z" fill="#fff"/><path d="M393.876 268.548c0 1.154 1.015 2.09 2.268 2.09 1.252 0 2.268-.936 2.268-2.09 0-1.155-1.016-2.09-2.268-2.09-1.252 0-2.268.935-2.268 2.09z" fill="#fff"/><path d="M387.792 269.35c0 1.154 1.015 2.09 2.268 2.09 1.252 0 2.268-.936 2.268-2.09 0-1.155-1.016-2.09-2.268-2.09-1.252 0-2.268.935-2.268 2.09z" fill="#fff"/><path d="M381.708 270.15c0 1.155 1.015 2.09 2.268 2.09 1.252 0 2.268-.935 2.268-2.09 0-1.154-1.016-2.09-2.268-2.09-1.252 0-2.268.936-2.268 2.09z" fill="#fff"/><path d="M375.19 271.15c0 1.155 1.015 2.09 2.268 2.09 1.252 0 2.268-.935 2.268-2.09 0-1.154-1.016-2.09-2.268-2.09-1.252 0-2.268.936-2.268 2.09z" fill="#fff"/><path d="M369.542 272.554c0 1.154 1.015 2.09 2.268 2.09 1.252 0 2.268-.936 2.268-2.09 0-1.155-1.016-2.09-2.268-2.09-1.252 0-2.268.935-2.268 2.09z" fill="#fff"/></g><path d="M478.35 549.21c0 9.785-7.932 17.717-17.717 17.717-9.785 0-17.717-7.932-17.717-17.717 0-9.785 7.932-17.717 17.717-17.717 9.785 0 17.717 7.932 17.717 17.717z" transform="matrix(.129 0 0 .118 251.912 236.892)" stroke="#000" stroke-width="1pt" fill="#fff"/><path d="M478.35 549.21c0 9.785-7.932 17.717-17.717 17.717-9.785 0-17.717-7.932-17.717-17.717 0-9.785 7.932-17.717 17.717-17.717 9.785 0 17.717 7.932 17.717 17.717z" transform="matrix(.129 0 0 .118 249.627 232.111)" stroke="#000" stroke-width="1pt" fill="#fff"/><path d="M478.35 549.21c0 9.785-7.932 17.717-17.717 17.717-9.785 0-17.717-7.932-17.717-17.717 0-9.785 7.932-17.717 17.717-17.717 9.785 0 17.717 7.932 17.717 17.717z" transform="matrix(.129 0 0 .118 248.436 227.241)" stroke="#000" stroke-width="1pt" fill="#fff"/><path d="M478.35 549.21c0 9.785-7.932 17.717-17.717 17.717-9.785 0-17.717-7.932-17.717-17.717 0-9.785 7.932-17.717 17.717-17.717 9.785 0 17.717 7.932 17.717 17.717z" transform="matrix(.129 0 0 .118 247.561 222.034)" stroke="#000" stroke-width="1pt" fill="#fff"/><path d="M478.35 549.21c0 9.785-7.932 17.717-17.717 17.717-9.785 0-17.717-7.932-17.717-17.717 0-9.785 7.932-17.717 17.717-17.717 9.785 0 17.717 7.932 17.717 17.717z" transform="matrix(.129 0 0 .118 247.779 216.387)" stroke="#000" stroke-width="1pt" fill="#fff"/><path d="M478.35 549.21c0 9.785-7.932 17.717-17.717 17.717-9.785 0-17.717-7.932-17.717-17.717 0-9.785 7.932-17.717 17.717-17.717 9.785 0 17.717 7.932 17.717 17.717z" transform="matrix(.129 0 0 .118 249.723 211.055)" stroke="#000" stroke-width="1pt" fill="#fff"/><path d="M478.35 549.21c0 9.785-7.932 17.717-17.717 17.717-9.785 0-17.717-7.932-17.717-17.717 0-9.785 7.932-17.717 17.717-17.717 9.785 0 17.717 7.932 17.717 17.717z" transform="matrix(.129 0 0 .118 253.883 206.849)" stroke="#000" stroke-width="1pt" fill="#fff"/><path d="M478.35 549.21c0 9.785-7.932 17.717-17.717 17.717-9.785 0-17.717-7.932-17.717-17.717 0-9.785 7.932-17.717 17.717-17.717 9.785 0 17.717 7.932 17.717 17.717z" transform="matrix(.129 0 0 .118 259.576 204.045)" stroke="#000" stroke-width="1pt" fill="#fff"/><path d="M478.35 549.21c0 9.785-7.932 17.717-17.717 17.717-9.785 0-17.717-7.932-17.717-17.717 0-9.785 7.932-17.717 17.717-17.717 9.785 0 17.717 7.932 17.717 17.717z" transform="matrix(.129 0 0 .118 265.269 203.645)" stroke="#000" stroke-width="1pt" fill="#fff"/><path d="M478.35 549.21c0 9.785-7.932 17.717-17.717 17.717-9.785 0-17.717-7.932-17.717-17.717 0-9.785 7.932-17.717 17.717-17.717 9.785 0 17.717 7.932 17.717 17.717z" transform="matrix(.129 0 0 .118 271.399 203.845)" stroke="#000" stroke-width="1pt" fill="#fff"/><path d="M478.35 549.21c0 9.785-7.932 17.717-17.717 17.717-9.785 0-17.717-7.932-17.717-17.717 0-9.785 7.932-17.717 17.717-17.717 9.785 0 17.717 7.932 17.717 17.717z" transform="matrix(.129 0 0 .118 277.531 204.646)" stroke="#000" stroke-width="1pt" fill="#fff"/><path d="M478.35 549.21c0 9.785-7.932 17.717-17.717 17.717-9.785 0-17.717-7.932-17.717-17.717 0-9.785 7.932-17.717 17.717-17.717 9.785 0 17.717 7.932 17.717 17.717z" transform="matrix(.129 0 0 .118 283.662 205.447)" stroke="#000" stroke-width="1pt" fill="#fff"/><path d="M478.35 549.21c0 9.785-7.932 17.717-17.717 17.717-9.785 0-17.717-7.932-17.717-17.717 0-9.785 7.932-17.717 17.717-17.717 9.785 0 17.717 7.932 17.717 17.717z" transform="matrix(.129 0 0 .118 290.231 206.449)" stroke="#000" stroke-width="1pt" fill="#fff"/><path d="M478.35 549.21c0 9.785-7.932 17.717-17.717 17.717-9.785 0-17.717-7.932-17.717-17.717 0-9.785 7.932-17.717 17.717-17.717 9.785 0 17.717 7.932 17.717 17.717z" transform="matrix(.129 0 0 .118 295.924 207.851)" stroke="#000" stroke-width="1pt" fill="#fff"/><path d="M478.35 549.21c0 9.785-7.932 17.717-17.717 17.717-9.785 0-17.717-7.932-17.717-17.717 0-9.785 7.932-17.717 17.717-17.717 9.785 0 17.717 7.932 17.717 17.717z" transform="matrix(.129 0 0 .118 255.197 241.099)" stroke="#000" stroke-width="1pt" fill="#fff"/><path d="M531.5 584.65s-67.982-52.097-69.813-177.17c-1.053-71.93 34.38-124.02 122.96-124.02 124.02 0 301.18 53.15 301.18 53.15v17.716s-141.73-53.15-301.18-53.15c-70.866 0-106.3 52.087-106.3 105.24 0 88.583 70.867 178.23 70.867 178.23v141.73h-17.717v-141.73z" transform="matrix(.129 0 0 .118 249.846 237.093)" stroke="#000" stroke-width="1pt" fill="#fff100"/><path d="M1240.2 531.5s15.35-35.433 70.86-35.433c37.79 0 70.87 35.433 70.87 70.866V637.8h35.43v-70.867c0-35.47 35.44-70.866 70.87-70.866 53.15 0 70.87 35.433 70.87 35.433s0-106.3-70.87-106.3c-53.15 0-70.87 35.433-70.87 35.433s17.72-53.15 17.72-106.3-35.43-88.583-35.43-88.583c0 6.79-35.44 35.433-35.44 88.583s17.72 106.3 17.72 106.3-17.72-35.433-70.87-35.433c-70.86 0-70.86 106.3-70.86 106.3z" transform="matrix(.043 0 0 .045 281.081 289.955)" stroke="#000" stroke-width="2.991" fill="#fff100"/><path d="M1240.2 531.5s15.35-35.433 70.86-35.433c37.79 0 70.87 35.433 70.87 70.866V637.8h35.43v-70.867c0-35.47 35.44-70.866 70.87-70.866 53.15 0 70.87 35.433 70.87 35.433s0-106.3-70.87-106.3c-53.15 0-70.87 35.433-70.87 35.433s17.72-53.15 17.72-106.3-35.43-88.583-35.43-88.583c0 6.79-35.44 35.433-35.44 88.583s17.72 106.3 17.72 106.3-17.72-35.433-70.87-35.433c-70.86 0-70.86 106.3-70.86 106.3z" transform="matrix(.043 0 0 .045 326.789 289.955)" stroke="#000" stroke-width="2.991" fill="#fff100"/><path d="M531.5 832.68V673.23s35.433 53.15 88.583 53.15c43.49 0 88.582-70.866 88.582-70.866s41.515 53.15 88.583 53.15c42.02 0 88.516-68.573 88.516-68.573s43.207 68.573 88.65 68.573c45.44 0 88.58-53.15 88.58-53.15s46.29 70.867 106.3 70.867c53.15 0 70.87-53.15 70.87-53.15v159.45h-708.66z" transform="matrix(.129 0 0 .118 249.846 237.093)" stroke="#000" stroke-width="1pt" fill="#fff100"/><path d="M708.66 832.68V708.66s106.3 35.433 106.3 124.02h-106.3z" transform="matrix(.129 0 0 .118 226.991 237.093)" stroke="#000" stroke-width="1pt" fill="#fff100"/><path d="M708.66 832.68V708.66s106.3 35.433 106.3 124.02h-106.3z" transform="matrix(-.129 0 0 .118 501.241 237.093)" stroke="#000" stroke-width="1pt" fill="#fff100"/><path d="M602.36 832.68c0-88.583 106.37-144.6 106.37-144.6s106.23 56.016 106.23 144.6h-212.6z" transform="matrix(.129 0 0 .118 249.846 237.093)" stroke="#000" stroke-width="1pt" fill="#fff100"/><path d="M602.36 832.68c0-88.583 106.37-144.6 106.37-144.6s106.23 56.016 106.23 144.6h-212.6z" transform="matrix(.129 0 0 .118 295.555 237.093)" stroke="#000" stroke-width="1pt" fill="#fff100"/><path d="M584.65 847.53c0-88.583 124.08-159.45 124.08-159.45s123.95 70.866 123.95 159.45H584.65z" transform="matrix(.129 0 0 .118 272.7 235.341)" stroke="#000" stroke-width="1pt" fill="#fff100"/><path d="M1275.6 655.51c-35.43-17.716-166.02-35.433-376.28-35.433s-350.1 17.717-385.53 35.433c-35.434 17.717-35.434 53.15 0 70.866 35.432 17.716 175.28 35.433 385.54 35.433s340.84-17.717 376.28-35.434c35.43-17.716 35.43-53.15 0-70.866z" transform="matrix(.128 0 0 .118 249.409 257.999)" stroke="#000" stroke-width="1pt" fill="#fff"/><path d="M408.64 343.944c0 4.21-37.768 4.21-45.408 4.21-8.254 0-45.41 1.14-45.41-4.21 0-4.21 37.463-4.21 45.41-4.21 7.947 0 45.41.857 45.41 4.21z" fill="#808080"/><path d="M322.28 328.59c0 1.366-1.015 2.474-2.268 2.474-1.252 0-2.268-1.108-2.268-2.474s1.016-2.474 2.268-2.474c1.253 0 2.268 1.108 2.268 2.474z" fill="#c00"/><path d="M408.453 328.59c0 1.366-1.015 2.474-2.268 2.474-1.252 0-2.268-1.108-2.268-2.474s1.016-2.474 2.268-2.474c1.253 0 2.268 1.108 2.268 2.474z" fill="#c00"/><path d="M367.634 327.267c0 1.366-2.03 2.474-4.535 2.474-2.506 0-4.537-1.107-4.537-2.473s2.03-2.474 4.536-2.474c2.503 0 4.534 1.108 4.534 2.474z"/><path d="M389.39 327.267c0 1.366-1.523 2.474-3.402 2.474-1.88 0-3.402-1.107-3.402-2.473s1.523-2.474 3.402-2.474c1.88 0 3.402 1.108 3.402 2.474z" fill="#006300"/><path d="M342.69 327.267c0 1.366-1.524 2.474-3.403 2.474-1.88 0-3.402-1.107-3.402-2.473s1.523-2.474 3.402-2.474c1.88 0 3.402 1.108 3.402 2.474z" fill="#006300"/><path d="M1257.9 496.06s35.44-53.15 70.87-53.15h35.43v35.433c0 53.15-53.15 70.867-53.15 70.867h141.74s-53.15-17.717-53.15-70.867V442.91h35.43c35.43 0 70.87 53.15 70.87 53.15V354.33s-35.44 53.15-70.87 53.15h-35.43v-35.433c0-53.15 53.15-70.867 53.15-70.867h-141.74s53.15 17.717 53.15 70.867v35.433h-35.43c-35.43 0-70.87-53.15-70.87-53.15v141.73z" transform="matrix(.074 0 0 .067 262.256 279.501)" stroke="#000" stroke-width="2.188" fill="#fff100"/><path d="M1381.9 549.21h70.87s-53.15-17.716-53.15-70.866V442.91h35.43c35.43 0 70.87 53.15 70.87 53.15V354.33s-35.44 53.15-70.87 53.15h-35.43V372.05c0-53.15 53.15-70.867 53.15-70.867h-70.87v248.03z" transform="matrix(.037 0 0 .059 267.478 288.312)" stroke="#000" stroke-width="3.307" fill="#fff100"/><path d="M1381.9 549.21h70.87s-53.15-17.716-53.15-70.866V442.91h35.43c35.43 0 70.87 53.15 70.87 53.15V354.33s-35.44 53.15-70.87 53.15h-35.43V372.05c0-53.15 53.15-70.867 53.15-70.867h-70.87v248.03z" transform="matrix(-.037 0 0 .059 460.761 288.312)" stroke="#000" stroke-width="3.307" fill="#fff100"/><path d="M903.54 602.36c0 9.785-7.932 17.717-17.717 17.717-9.785 0-17.717-7.932-17.717-17.717 0-9.785 7.932-17.717 17.717-17.717 9.785 0 17.717 7.932 17.717 17.717z" transform="matrix(.129 0 0 .118 249.846 237.093)" stroke="#000" stroke-width="1pt" fill="#fff"/><path d="M1257.9 496.06s35.44-53.15 70.87-53.15h35.43v35.433c0 53.15-53.15 70.867-53.15 70.867h141.74s-53.15-17.717-53.15-70.867V442.91h35.43c35.43 0 70.87 53.15 70.87 53.15V354.33s-35.44 53.15-70.87 53.15h-35.43v-35.433c0-53.15 53.15-70.867 53.15-70.867h-141.74s53.15 17.717 53.15 70.867v35.433h-35.43c-35.43 0-70.87-53.15-70.87-53.15v141.73z" transform="matrix(.074 0 0 .067 262.256 235.6)" stroke="#000" stroke-width="2.188" fill="#fff100"/><path d="M903.54 602.36c0 9.785-7.932 17.717-17.717 17.717-9.785 0-17.717-7.932-17.717-17.717 0-9.785 7.932-17.717 17.717-17.717 9.785 0 17.717 7.932 17.717 17.717z" transform="matrix(.129 0 0 .118 250.065 193.542)" stroke="#000" stroke-width="1pt" fill="#fff"/><path stroke="#000" stroke-width="1pt" fill="#fff100" d="M850.39 655.51h70.866v53.15H850.39z" transform="matrix(.129 0 0 .118 249.846 195.282)"/><path stroke="#000" stroke-width="1pt" fill="#fff100" d="M850.39 683.3h70.866v202.53H850.39z" transform="matrix(.129 0 0 .118 249.846 195.282)"/><path d="M478.35 549.21c0 9.785-7.932 17.717-17.717 17.717-9.785 0-17.717-7.932-17.717-17.717 0-9.785 7.932-17.717 17.717-17.717 9.785 0 17.717 7.932 17.717 17.717z" transform="matrix(.129 0 0 .118 304.697 230.821)" stroke="#000" stroke-width="1pt" fill="#fff"/><path d="M478.35 549.21c0 9.785-7.932 17.717-17.717 17.717-9.785 0-17.717-7.932-17.717-17.717 0-9.785 7.932-17.717 17.717-17.717 9.785 0 17.717 7.932 17.717 17.717z" transform="matrix(.129 0 0 .118 304.697 225.413)" stroke="#000" stroke-width="1pt" fill="#fff"/><path d="M478.35 549.21c0 9.785-7.932 17.717-17.717 17.717-9.785 0-17.717-7.932-17.717-17.717 0-9.785 7.932-17.717 17.717-17.717 9.785 0 17.717 7.932 17.717 17.717z" transform="matrix(.129 0 0 .118 304.697 220.369)" stroke="#000" stroke-width="1pt" fill="#fff"/><path d="M478.35 549.21c0 9.785-7.932 17.717-17.717 17.717-9.785 0-17.717-7.932-17.717-17.717 0-9.785 7.932-17.717 17.717-17.717 9.785 0 17.717 7.932 17.717 17.717z" transform="matrix(.129 0 0 .118 304.697 215.161)" stroke="#000" stroke-width="1pt" fill="#fff"/><path d="M367.916 335.29c0 .94-2.063 1.7-4.608 1.7-2.546 0-4.61-.76-4.61-1.7 0-.937 2.064-1.698 4.61-1.698 2.545 0 4.608.76 4.608 1.7z"/><path d="M409.487 339.544c-.255.644-2.492.7-4.998.122-2.507-.577-4.33-1.566-4.077-2.21.255-.645 2.492-.7 4.998-.123 2.506.576 4.33 1.566 4.077 2.21z"/><path d="M391.58 336.46c-.103.827-2.282 1.353-4.867 1.174-2.585-.18-4.597-.995-4.494-1.822.103-.828 2.282-1.353 4.867-1.174 2.586.18 4.597.995 4.494 1.822z"/><path d="M315.7 339.544c.256.644 2.493.7 5 .122 2.505-.577 4.33-1.566 4.075-2.21-.255-.645-2.492-.7-4.998-.123-2.505.576-4.33 1.566-4.076 2.21z"/><path d="M334.48 336.06c.104.826 2.283 1.352 4.868 1.173 2.585-.18 4.597-.995 4.494-1.822-.104-.827-2.283-1.352-4.868-1.173-2.586.18-4.597.995-4.494 1.822z"/></g></g></svg>