<svg xmlns="http://www.w3.org/2000/svg" height="480" width="640"><defs><clipPath id="a"><path fill-opacity=".67" d="M0 64h512v384H0z"/></clipPath></defs><g clip-path="url(#a)" fill-rule="evenodd"><path fill="#fff" d="M0-80h640v640H0z"/><path d="M0 346.662h640V560H0z"/><path fill="#f30000" d="M0-80h640v213.337H0z"/><path fill="#005623" d="M609.345 274.933l-26.384-19.085-26.256 19.347 9.995-31-26.512-18.99 32.57-.074 9.875-31.074 10.13 30.948 32.605-.217-26.3 19.198z"/><path d="M241.55 211.462c.27 30.425 0 49.985 0 56.233-3.26 3.803-6.52 7.877-8.965 11.137-1.086-.815-1.358-.815-1.358-2.445s-.27-41.563 0-56.232c4.89-2.445 8.15-9.237 10.323-8.693zm-59.448 21.165c2.445-4.075 5.16-8.15 7.063-10.052 1.902 1.087 1.63 4.075 1.902 4.89-1.902 2.717-6.52 7.063-7.878 8.42-.545-.813 0-.542-1.088-3.258zm15.81-34.664c-16.57 10.866-35.316 23.906-42.107 29.61-6.792 5.706-9.236 9.238-9.236 19.017 0 9.78.27 20.918-.544 26.08-.816 5.16-3.26 10.594-9.237 5.704-5.978-4.89-10.324-9.78-13.04-11.953-2.717-2.172-7.607-5.16-14.127.545-6.52 5.704-36.945 37.76-42.65 41.29-5.705 3.532-6.79 4.348-10.866 6.52 8.42.544 17.93 1.087 25.535-.543 10.05-7.335 21.732-23.906 25.536-27.98 3.804-4.076 7.606-12.768 16.028-3.26 8.42 9.508 8.15 9.78 12.224 12.767 4.075 2.987 9.237 2.444 12.77-3.532 3.53-5.977 3.8-8.693 5.16-18.473 1.358-9.78 2.173-22.004 4.347-27.437 2.173-5.434 6.52-10.867 13.853-15.214 7.335-4.346 8.694-4.618 10.324-5.433 3.26-6.247 11.137-20.916 14.397-24.45 1.36-1.628 1.632-2.444 1.632-3.26zM118.86 310.755c-4.075-2.715-5.433-4.89-7.606-4.617s-6.79 6.52-9.507 8.15c3.53 2.988 6.792 5.705 9.508 5.162 2.718-.544 4.62-6.52 7.607-8.694z" fill="#005623"/><path d="M514.563 198.7c-5.705 1.359-8.693 8.965-13.583 14.126-.543 15.214-.543 62.481-.543 68.73 4.89-5.706 7.878-8.966 11.41-11.14.814-25.263 3.802-60.578 2.716-71.716zm-129.808 23.99c-6.79 4.345-8.42 8.692-14.126 13.58-.272 18.203.542 44.01-.816 47.54-1.358 3.533-4.347 10.868-11.68 10.052-7.336-.814-9.51-2.173-9.51-9.78s1.63-56.23 1.63-64.11c-5.704 2.717-10.594 11.138-14.668 14.67 0 19.015.815 43.193.272 48.355-.544 5.16-2.717 13.582-11.953 13.31-9.236-.27-14.127-4.89-14.127-10.32 0-5.435-.27-41.02.272-47.27-8.15 5.704-27.166 17.114-30.97 31.784-3.8 14.67 2.175 19.017 7.608 16.3 5.433-2.717 7.878-5.162 10.866-7.335.816 9.236 1.087 19.288 10.323 25.264 9.236 5.975 20.917 3.802 25.265.542 4.346-3.26 5.976-5.433 7.063-7.063 8.15 6.247 20.102 9.507 27.98 2.716 7.878-6.79 12.225-13.583 13.04-21.19.815-7.605 4.618-46.724 3.53-57.047zm-79.92 36.998c-8.15 3.804-11.682 9.508-9.51 13.04 2.174 3.532 6.52-.543 9.51-1.902-.544-5.432 0-8.42 0-11.138zm69.49-64.98c-1.903 6.248-3.26 5.16-5.706 5.433-2.446.272-4.075-2.173-5.977-4.346-1.902.272-2.173.816-3.532 1.36 4.347 6.246 7.608 8.963 12.77 7.605 5.16-1.36 5.432-5.978 5.432-8.423-.815-.543-1.086-.815-2.988-1.63zm-15.105 3.64c-2.445.815-2.988 1.358-3.804 3.53 1.36 2.99 3.26 4.62 5.162 3.805 1.9-.815 2.173-4.075 1.087-4.89-1.087-.815-.543-1.36-2.445-2.445z" fill="#005623"/><path fill="#005623" d="M77.995 274.933L51.61 255.848l-26.256 19.347 9.995-31-26.512-18.99 32.57-.074 9.875-31.074 10.13 30.948 32.605-.217-26.3 19.198z"/><path fill="#005623" d="M343.126 274.933l-26.384-19.085-26.257 19.347 9.995-31-26.51-18.99 32.568-.074 9.876-31.074 10.13 30.948 32.605-.217-26.302 19.198z"/></g></svg>