<svg xmlns="http://www.w3.org/2000/svg" height="480" width="640"><defs><clipPath id="a"><path fill-opacity=".67" d="M-85.31 0h682.67v512H-85.31z"/></clipPath></defs><g clip-path="url(#a)" fill-rule="evenodd"><path fill="#fff" d="M-99.983 0h840v480h-840z"/><path fill="#da0000" d="M-99.983 322.35h840V480h-840z"/><g fill="#fff"><path d="M59.712 329.082h46.012v3.166H59.712z"/><path d="M66.572 344.914h3.167v3.075H66.57z"/><path d="M105.844 344.814v3.166h-9.196v-3.166z"/><path d="M110.79 329.082h3.167v18.904h-3.167z"/><path d="M129.107 344.814v3.166H111.68v-3.166z"/><path d="M96.648 337.418h3.167v10.568h-3.167z"/><path d="M126.515 329.082h3.167v18.904h-3.167z"/><path d="M118.6 329.082h3.166v18.904H118.6z"/><path d="M76.592 336.606v3.166H59.798v-3.166z"/><path d="M113.442 336.606v3.166H96.648v-3.166z"/><path d="M96.648 337.418h3.167v10.568h-3.167z"/><path d="M96.648 337.418h3.167v10.568h-3.167z"/><path d="M96.648 337.418h3.167v10.568h-3.167z"/><path d="M59.798 337.418h3.166v10.568h-3.166z"/><path d="M86.81 337.418h3.165v10.568H86.81z"/><path d="M73.427 337.418h3.166v10.568h-3.166z"/><path d="M89.03 344.814v3.166H74.835v-3.166z"/><path d="M89.975 336.606v3.166h-9v-3.166z"/></g><g fill="#fff"><path d="M-15.85 329.082h46.012v3.166H-15.85z"/><path d="M-8.99 344.914h3.167v3.075H-8.99z"/><path d="M30.282 344.814v3.166h-9.196v-3.166z"/><path d="M35.228 329.082h3.167v18.904h-3.167z"/><path d="M53.545 344.814v3.166H36.12v-3.166z"/><path d="M21.086 337.418h3.167v10.568h-3.167z"/><path d="M50.953 329.082h3.167v18.904h-3.167z"/><path d="M43.037 329.082h3.167v18.904h-3.167z"/><path d="M1.03 336.606v3.166h-16.794v-3.166z"/><path d="M37.88 336.606v3.166H21.086v-3.166z"/><path d="M21.086 337.418h3.167v10.568h-3.167z"/><path d="M21.086 337.418h3.167v10.568h-3.167z"/><path d="M21.086 337.418h3.167v10.568h-3.167z"/><path d="M-15.764 337.418h3.166v10.568h-3.166z"/><path d="M11.247 337.418h3.166v10.568h-3.166z"/><path d="M-2.135 337.418H1.03v10.568h-3.165z"/><path d="M13.468 344.814v3.166H-.727v-3.166z"/><path d="M14.413 336.606v3.166h-9v-3.166z"/></g><g fill="#fff"><path d="M134.642 329.082h46.012v3.166h-46.012z"/><path d="M141.502 344.914h3.167v3.075H141.5z"/><path d="M180.774 344.814v3.166h-9.196v-3.166z"/><path d="M185.72 329.082h3.167v18.904h-3.167z"/><path d="M204.037 344.814v3.166H186.61v-3.166z"/><path d="M171.578 337.418h3.167v10.568h-3.167z"/><path d="M201.445 329.082h3.167v18.904h-3.167z"/><path d="M193.53 329.082h3.166v18.904h-3.167z"/><path d="M151.522 336.606v3.166h-16.794v-3.166z"/><path d="M188.372 336.606v3.166h-16.794v-3.166z"/><path d="M171.578 337.418h3.167v10.568h-3.167z"/><path d="M171.578 337.418h3.167v10.568h-3.167z"/><path d="M171.578 337.418h3.167v10.568h-3.167z"/><path d="M134.728 337.418h3.166v10.568h-3.166z"/><path d="M161.74 337.418h3.165v10.568h-3.166z"/><path d="M148.357 337.418h3.166v10.568h-3.166z"/><path d="M163.96 344.814v3.166h-14.195v-3.166z"/><path d="M164.905 336.606v3.166h-9v-3.166z"/></g><g fill="#fff"><path d="M663.753 329.082h46.012v3.166h-46.012z"/><path d="M670.613 344.914h3.167v3.075h-3.167z"/><path d="M709.885 344.814v3.166h-9.196v-3.166z"/><path d="M714.83 329.082H718v18.904h-3.167z"/><path d="M733.148 344.814v3.166h-17.426v-3.166z"/><path d="M700.69 337.418h3.166v10.568h-3.167z"/><path d="M730.556 329.082h3.167v18.904h-3.167z"/><path d="M722.64 329.082h3.167v18.904h-3.167z"/><path d="M680.633 336.606v3.166H663.84v-3.166z"/><path d="M717.483 336.606v3.166H700.69v-3.166z"/><path d="M700.69 337.418h3.166v10.568h-3.167z"/><path d="M700.69 337.418h3.166v10.568h-3.167z"/><path d="M700.69 337.418h3.166v10.568h-3.167z"/><path d="M663.84 337.418h3.165v10.568h-3.166z"/><path d="M690.85 337.418h3.166v10.568h-3.166z"/><path d="M677.468 337.418h3.166v10.568h-3.166z"/><path d="M693.07 344.814v3.166h-14.194v-3.166z"/><path d="M694.016 336.606v3.166h-9v-3.166z"/></g><g fill="#fff"><path d="M210.06 329.082h46.01v3.166h-46.01z"/><path d="M216.92 344.914h3.166v3.075h-3.167z"/><path d="M256.19 344.814v3.166h-9.195v-3.166z"/><path d="M261.137 329.082h3.167v18.904h-3.167z"/><path d="M279.454 344.814v3.166h-17.426v-3.166z"/><path d="M246.995 337.418h3.167v10.568h-3.167z"/><path d="M276.862 329.082h3.167v18.904h-3.168z"/><path d="M268.946 329.082h3.167v18.904h-3.167z"/><path d="M226.94 336.606v3.166h-16.795v-3.166z"/><path d="M263.79 336.606v3.166h-16.795v-3.166z"/><path d="M246.995 337.418h3.167v10.568h-3.167z"/><path d="M246.995 337.418h3.167v10.568h-3.167z"/><path d="M246.995 337.418h3.167v10.568h-3.167z"/><path d="M210.145 337.418h3.166v10.568h-3.165z"/><path d="M237.156 337.418h3.166v10.568h-3.166z"/><path d="M223.774 337.418h3.166v10.568h-3.166z"/><path d="M239.377 344.814v3.166h-14.195v-3.166z"/><path d="M240.322 336.606v3.166h-9v-3.166z"/></g><g fill="#fff"><path d="M285.753 329.082h46.012v3.166h-46.012z"/><path d="M292.613 344.914h3.167v3.075h-3.167z"/><path d="M331.885 344.814v3.166h-9.196v-3.166z"/><path d="M336.83 329.082H340v18.904h-3.167z"/><path d="M355.148 344.814v3.166h-17.426v-3.166z"/><path d="M322.69 337.418h3.166v10.568h-3.167z"/><path d="M352.556 329.082h3.167v18.904h-3.167z"/><path d="M344.64 329.082h3.167v18.904h-3.167z"/><path d="M302.633 336.606v3.166H285.84v-3.166z"/><path d="M339.483 336.606v3.166H322.69v-3.166z"/><path d="M322.69 337.418h3.166v10.568h-3.167z"/><path d="M322.69 337.418h3.166v10.568h-3.167z"/><path d="M322.69 337.418h3.166v10.568h-3.167z"/><path d="M285.84 337.418h3.165v10.568h-3.166z"/><path d="M312.85 337.418h3.166v10.568h-3.166z"/><path d="M299.468 337.418h3.166v10.568h-3.166z"/><path d="M315.07 344.814v3.166h-14.194v-3.166z"/><path d="M316.016 336.606v3.166h-9v-3.166z"/></g><path fill="#239f40" d="M-99.983 0h840v157.65h-840z"/><g fill="#fff"><path d="M361.887 329.082H407.9v3.166h-46.013z"/><path d="M368.747 344.914h3.167v3.075h-3.167z"/><path d="M408.02 344.814v3.166h-9.197v-3.166z"/><path d="M412.965 329.082h3.167v18.904h-3.167z"/><path d="M431.282 344.814v3.166h-17.426v-3.166z"/><path d="M398.823 337.418h3.167v10.568h-3.167z"/><path d="M428.69 329.082h3.167v18.904h-3.167z"/><path d="M420.774 329.082h3.167v18.904h-3.166z"/><path d="M378.767 336.606v3.166h-16.794v-3.166z"/><path d="M415.617 336.606v3.166h-16.794v-3.166z"/><path d="M398.823 337.418h3.167v10.568h-3.167z"/><path d="M398.823 337.418h3.167v10.568h-3.167z"/><path d="M398.823 337.418h3.167v10.568h-3.167z"/><path d="M361.973 337.418h3.166v10.568h-3.167z"/><path d="M388.984 337.418h3.166v10.568h-3.166z"/><path d="M375.602 337.418h3.166v10.568h-3.166z"/><path d="M391.205 344.814v3.166H377.01v-3.166z"/><path d="M392.15 336.606v3.166h-9v-3.166z"/></g><g fill="#fff"><path d="M437.572 329.082h46.012v3.166h-46.012z"/><path d="M444.432 344.914h3.167v3.075h-3.168z"/><path d="M483.704 344.814v3.166h-9.196v-3.166z"/><path d="M488.65 329.082h3.167v18.904h-3.167z"/><path d="M506.967 344.814v3.166H489.54v-3.166z"/><path d="M474.508 337.418h3.167v10.568h-3.167z"/><path d="M504.375 329.082h3.167v18.904h-3.167z"/><path d="M496.46 329.082h3.166v18.904h-3.167z"/><path d="M454.452 336.606v3.166h-16.794v-3.166z"/><path d="M491.302 336.606v3.166h-16.794v-3.166z"/><path d="M474.508 337.418h3.167v10.568h-3.167z"/><path d="M474.508 337.418h3.167v10.568h-3.167z"/><path d="M474.508 337.418h3.167v10.568h-3.167z"/><path d="M437.658 337.418h3.166v10.568h-3.166z"/><path d="M464.67 337.418h3.165v10.568h-3.166z"/><path d="M451.287 337.418h3.166v10.568h-3.166z"/><path d="M466.89 344.814v3.166h-14.195v-3.166z"/><path d="M467.835 336.606v3.166h-9v-3.166z"/></g><g fill="#fff"><path d="M513.266 329.082h46.012v3.166h-46.012z"/><path d="M520.126 344.914h3.167v3.075h-3.167z"/><path d="M559.398 344.814v3.166h-9.196v-3.166z"/><path d="M564.344 329.082h3.167v18.904h-3.166z"/><path d="M582.66 344.814v3.166h-17.425v-3.166z"/><path d="M550.202 337.418h3.167v10.568H550.2z"/><path d="M580.07 329.082h3.166v18.904h-3.167z"/><path d="M572.153 329.082h3.167v18.904h-3.167z"/><path d="M530.146 336.606v3.166h-16.794v-3.166z"/><path d="M566.996 336.606v3.166h-16.794v-3.166z"/><path d="M550.202 337.418h3.167v10.568H550.2z"/><path d="M550.202 337.418h3.167v10.568H550.2z"/><path d="M550.202 337.418h3.167v10.568H550.2z"/><path d="M513.352 337.418h3.166v10.568h-3.166z"/><path d="M540.363 337.418h3.166v10.568h-3.167z"/><path d="M526.98 337.418h3.167v10.568h-3.166z"/><path d="M542.584 344.814v3.166H528.39v-3.166z"/><path d="M543.53 336.606v3.166h-9v-3.166z"/></g><g fill="#fff"><path d="M589.4 329.082h46.012v3.166H589.4z"/><path d="M596.26 344.914h3.167v3.075h-3.167z"/><path d="M635.532 344.814v3.166h-9.196v-3.166z"/><path d="M640.478 329.082h3.167v18.904h-3.167z"/><path d="M658.795 344.814v3.166H641.37v-3.166z"/><path d="M626.336 337.418h3.167v10.568h-3.167z"/><path d="M656.203 329.082h3.167v18.904h-3.167z"/><path d="M648.287 329.082h3.167v18.904h-3.167z"/><path d="M606.28 336.606v3.166h-16.794v-3.166z"/><path d="M643.13 336.606v3.166h-16.794v-3.166z"/><path d="M626.336 337.418h3.167v10.568h-3.167z"/><path d="M626.336 337.418h3.167v10.568h-3.167z"/><path d="M626.336 337.418h3.167v10.568h-3.167z"/><path d="M589.486 337.418h3.166v10.568h-3.166z"/><path d="M616.497 337.418h3.166v10.568h-3.166z"/><path d="M603.115 337.418h3.166v10.568h-3.165z"/><path d="M618.718 344.814v3.166h-14.195v-3.166z"/><path d="M619.663 336.606v3.166h-9v-3.166z"/></g><g fill="#fff"><path d="M-92.312 329.082H-46.3v3.166h-46.012z"/><path d="M-85.452 344.914h3.167v3.075h-3.167z"/><path d="M-46.18 344.814v3.166h-9.196v-3.166z"/><path d="M-41.234 329.082h3.167v18.904h-3.167z"/><path d="M-22.917 344.814v3.166h-17.426v-3.166z"/><path d="M-55.376 337.418h3.167v10.568h-3.166z"/><path d="M-25.51 329.082h3.168v18.904h-3.167z"/><path d="M-33.425 329.082h3.167v18.904h-3.167z"/><path d="M-75.432 336.606v3.166h-16.794v-3.166z"/><path d="M-38.582 336.606v3.166h-16.794v-3.166z"/><path d="M-55.376 337.418h3.167v10.568h-3.166z"/><path d="M-55.376 337.418h3.167v10.568h-3.166z"/><path d="M-55.376 337.418h3.167v10.568h-3.166z"/><path d="M-92.226 337.418h3.166v10.568h-3.166z"/><path d="M-65.215 337.418h3.166v10.568h-3.165z"/><path d="M-78.597 337.418h3.166v10.568h-3.167z"/><path d="M-62.994 344.814v3.166H-77.19v-3.166z"/><path d="M-62.05 336.606v3.166h-9v-3.166z"/></g><g fill="#fff"><path d="M59.712 134.535h46.012v3.166H59.712z"/><path d="M66.572 150.367h3.167v3.075H66.57z"/><path d="M105.844 150.267v3.166h-9.196v-3.166z"/><path d="M110.79 134.535h3.167v18.904h-3.167z"/><path d="M129.107 150.267v3.166H111.68v-3.166z"/><path d="M96.648 142.87h3.167v10.57h-3.167z"/><path d="M126.515 134.535h3.167v18.904h-3.167z"/><path d="M118.6 134.535h3.166v18.904H118.6z"/><path d="M76.592 142.06v3.165H59.798v-3.166z"/><path d="M113.442 142.06v3.165H96.648v-3.166z"/><path d="M96.648 142.87h3.167v10.57h-3.167z"/><path d="M96.648 142.87h3.167v10.57h-3.167z"/><path d="M96.648 142.87h3.167v10.57h-3.167z"/><path d="M59.798 142.87h3.166v10.57h-3.166z"/><path d="M86.81 142.87h3.165v10.57H86.81z"/><path d="M73.427 142.87h3.166v10.57h-3.166z"/><path d="M89.03 150.267v3.166H74.835v-3.166z"/><path d="M89.975 142.06v3.165h-9v-3.166z"/></g><g fill="#fff"><path d="M-15.85 134.535h46.012v3.166H-15.85z"/><path d="M-8.99 150.367h3.167v3.075H-8.99z"/><path d="M30.282 150.267v3.166h-9.196v-3.166z"/><path d="M35.228 134.535h3.167v18.904h-3.167z"/><path d="M53.545 150.267v3.166H36.12v-3.166z"/><path d="M21.086 142.87h3.167v10.57h-3.167z"/><path d="M50.953 134.535h3.167v18.904h-3.167z"/><path d="M43.037 134.535h3.167v18.904h-3.167z"/><path d="M1.03 142.06v3.165h-16.794v-3.166z"/><path d="M37.88 142.06v3.165H21.086v-3.166z"/><path d="M21.086 142.87h3.167v10.57h-3.167z"/><path d="M21.086 142.87h3.167v10.57h-3.167z"/><path d="M21.086 142.87h3.167v10.57h-3.167z"/><path d="M-15.764 142.87h3.166v10.57h-3.166z"/><path d="M11.247 142.87h3.166v10.57h-3.166z"/><path d="M-2.135 142.87H1.03v10.57h-3.165z"/><path d="M13.468 150.267v3.166H-.727v-3.166z"/><path d="M14.413 142.06v3.165h-9v-3.166z"/></g><g fill="#fff"><path d="M134.642 134.535h46.012v3.166h-46.012z"/><path d="M141.502 150.367h3.167v3.075H141.5z"/><path d="M180.774 150.267v3.166h-9.196v-3.166z"/><path d="M185.72 134.535h3.167v18.904h-3.167z"/><path d="M204.037 150.267v3.166H186.61v-3.166z"/><path d="M171.578 142.87h3.167v10.57h-3.167z"/><path d="M201.445 134.535h3.167v18.904h-3.167z"/><path d="M193.53 134.535h3.166v18.904h-3.167z"/><path d="M151.522 142.06v3.165h-16.794v-3.166z"/><path d="M188.372 142.06v3.165h-16.794v-3.166z"/><path d="M171.578 142.87h3.167v10.57h-3.167z"/><path d="M171.578 142.87h3.167v10.57h-3.167z"/><path d="M171.578 142.87h3.167v10.57h-3.167z"/><path d="M134.728 142.87h3.166v10.57h-3.166z"/><path d="M161.74 142.87h3.165v10.57h-3.166z"/><path d="M148.357 142.87h3.166v10.57h-3.166z"/><path d="M163.96 150.267v3.166h-14.195v-3.166z"/><path d="M164.905 142.06v3.165h-9v-3.166z"/></g><g fill="#fff"><path d="M663.753 134.535h46.012v3.166h-46.012z"/><path d="M670.613 150.367h3.167v3.075h-3.167z"/><path d="M709.885 150.267v3.166h-9.196v-3.166z"/><path d="M714.83 134.535H718v18.904h-3.167z"/><path d="M733.148 150.267v3.166h-17.426v-3.166z"/><path d="M700.69 142.87h3.166v10.57h-3.167z"/><path d="M730.556 134.535h3.167v18.904h-3.167z"/><path d="M722.64 134.535h3.167v18.904h-3.167z"/><path d="M680.633 142.06v3.165H663.84v-3.166z"/><path d="M717.483 142.06v3.165H700.69v-3.166z"/><path d="M700.69 142.87h3.166v10.57h-3.167z"/><path d="M700.69 142.87h3.166v10.57h-3.167z"/><path d="M700.69 142.87h3.166v10.57h-3.167z"/><path d="M663.84 142.87h3.165v10.57h-3.166z"/><path d="M690.85 142.87h3.166v10.57h-3.166z"/><path d="M677.468 142.87h3.166v10.57h-3.166z"/><path d="M693.07 150.267v3.166h-14.194v-3.166z"/><path d="M694.016 142.06v3.165h-9v-3.166z"/></g><g fill="#fff"><path d="M210.06 134.535h46.01v3.166h-46.01z"/><path d="M216.92 150.367h3.166v3.075h-3.167z"/><path d="M256.19 150.267v3.166h-9.195v-3.166z"/><path d="M261.137 134.535h3.167v18.904h-3.167z"/><path d="M279.454 150.267v3.166h-17.426v-3.166z"/><path d="M246.995 142.87h3.167v10.57h-3.167z"/><path d="M276.862 134.535h3.167v18.904h-3.168z"/><path d="M268.946 134.535h3.167v18.904h-3.167z"/><path d="M226.94 142.06v3.165h-16.795v-3.166z"/><path d="M263.79 142.06v3.165h-16.795v-3.166z"/><path d="M246.995 142.87h3.167v10.57h-3.167z"/><path d="M246.995 142.87h3.167v10.57h-3.167z"/><path d="M246.995 142.87h3.167v10.57h-3.167z"/><path d="M210.145 142.87h3.166v10.57h-3.165z"/><path d="M237.156 142.87h3.166v10.57h-3.166z"/><path d="M223.774 142.87h3.166v10.57h-3.166z"/><path d="M239.377 150.267v3.166h-14.195v-3.166z"/><path d="M240.322 142.06v3.165h-9v-3.166z"/></g><g fill="#fff"><path d="M285.753 134.535h46.012v3.166h-46.012z"/><path d="M292.613 150.367h3.167v3.075h-3.167z"/><path d="M331.885 150.267v3.166h-9.196v-3.166z"/><path d="M336.83 134.535H340v18.904h-3.167z"/><path d="M355.148 150.267v3.166h-17.426v-3.166z"/><path d="M322.69 142.87h3.166v10.57h-3.167z"/><path d="M352.556 134.535h3.167v18.904h-3.167z"/><path d="M344.64 134.535h3.167v18.904h-3.167z"/><path d="M302.633 142.06v3.165H285.84v-3.166z"/><path d="M339.483 142.06v3.165H322.69v-3.166z"/><path d="M322.69 142.87h3.166v10.57h-3.167z"/><path d="M322.69 142.87h3.166v10.57h-3.167z"/><path d="M322.69 142.87h3.166v10.57h-3.167z"/><path d="M285.84 142.87h3.165v10.57h-3.166z"/><path d="M312.85 142.87h3.166v10.57h-3.166z"/><path d="M299.468 142.87h3.166v10.57h-3.166z"/><path d="M315.07 150.267v3.166h-14.194v-3.166z"/><path d="M316.016 142.06v3.165h-9v-3.166z"/></g><g fill="#fff"><path d="M361.887 134.535H407.9v3.166h-46.013z"/><path d="M368.747 150.367h3.167v3.075h-3.167z"/><path d="M408.02 150.267v3.166h-9.197v-3.166z"/><path d="M412.965 134.535h3.167v18.904h-3.167z"/><path d="M431.282 150.267v3.166h-17.426v-3.166z"/><path d="M398.823 142.87h3.167v10.57h-3.167z"/><path d="M428.69 134.535h3.167v18.904h-3.167z"/><path d="M420.774 134.535h3.167v18.904h-3.166z"/><path d="M378.767 142.06v3.165h-16.794v-3.166z"/><path d="M415.617 142.06v3.165h-16.794v-3.166z"/><path d="M398.823 142.87h3.167v10.57h-3.167z"/><path d="M398.823 142.87h3.167v10.57h-3.167z"/><path d="M398.823 142.87h3.167v10.57h-3.167z"/><path d="M361.973 142.87h3.166v10.57h-3.167z"/><path d="M388.984 142.87h3.166v10.57h-3.166z"/><path d="M375.602 142.87h3.166v10.57h-3.166z"/><path d="M391.205 150.267v3.166H377.01v-3.166z"/><path d="M392.15 142.06v3.165h-9v-3.166z"/></g><g fill="#fff"><path d="M437.572 134.535h46.012v3.166h-46.012z"/><path d="M444.432 150.367h3.167v3.075h-3.168z"/><path d="M483.704 150.267v3.166h-9.196v-3.166z"/><path d="M488.65 134.535h3.167v18.904h-3.167z"/><path d="M506.967 150.267v3.166H489.54v-3.166z"/><path d="M474.508 142.87h3.167v10.57h-3.167z"/><path d="M504.375 134.535h3.167v18.904h-3.167z"/><path d="M496.46 134.535h3.166v18.904h-3.167z"/><path d="M454.452 142.06v3.165h-16.794v-3.166z"/><path d="M491.302 142.06v3.165h-16.794v-3.166z"/><path d="M474.508 142.87h3.167v10.57h-3.167z"/><path d="M474.508 142.87h3.167v10.57h-3.167z"/><path d="M474.508 142.87h3.167v10.57h-3.167z"/><path d="M437.658 142.87h3.166v10.57h-3.166z"/><path d="M464.67 142.87h3.165v10.57h-3.166z"/><path d="M451.287 142.87h3.166v10.57h-3.166z"/><path d="M466.89 150.267v3.166h-14.195v-3.166z"/><path d="M467.835 142.06v3.165h-9v-3.166z"/></g><g fill="#fff"><path d="M513.266 134.535h46.012v3.166h-46.012z"/><path d="M520.126 150.367h3.167v3.075h-3.167z"/><path d="M559.398 150.267v3.166h-9.196v-3.166z"/><path d="M564.344 134.535h3.167v18.904h-3.166z"/><path d="M582.66 150.267v3.166h-17.425v-3.166z"/><path d="M550.202 142.87h3.167v10.57H550.2z"/><path d="M580.07 134.535h3.166v18.904h-3.167z"/><path d="M572.153 134.535h3.167v18.904h-3.167z"/><path d="M530.146 142.06v3.165h-16.794v-3.166z"/><path d="M566.996 142.06v3.165h-16.794v-3.166z"/><path d="M550.202 142.87h3.167v10.57H550.2z"/><path d="M550.202 142.87h3.167v10.57H550.2z"/><path d="M550.202 142.87h3.167v10.57H550.2z"/><path d="M513.352 142.87h3.166v10.57h-3.166z"/><path d="M540.363 142.87h3.166v10.57h-3.167z"/><path d="M526.98 142.87h3.167v10.57h-3.166z"/><path d="M542.584 150.267v3.166H528.39v-3.166z"/><path d="M543.53 142.06v3.165h-9v-3.166z"/></g><g fill="#fff"><path d="M589.4 134.535h46.012v3.166H589.4z"/><path d="M596.26 150.367h3.167v3.075h-3.167z"/><path d="M635.532 150.267v3.166h-9.196v-3.166z"/><path d="M640.478 134.535h3.167v18.904h-3.167z"/><path d="M658.795 150.267v3.166H641.37v-3.166z"/><path d="M626.336 142.87h3.167v10.57h-3.167z"/><path d="M656.203 134.535h3.167v18.904h-3.167z"/><path d="M648.287 134.535h3.167v18.904h-3.167z"/><path d="M606.28 142.06v3.165h-16.794v-3.166z"/><path d="M643.13 142.06v3.165h-16.794v-3.166z"/><path d="M626.336 142.87h3.167v10.57h-3.167z"/><path d="M626.336 142.87h3.167v10.57h-3.167z"/><path d="M626.336 142.87h3.167v10.57h-3.167z"/><path d="M589.486 142.87h3.166v10.57h-3.166z"/><path d="M616.497 142.87h3.166v10.57h-3.166z"/><path d="M603.115 142.87h3.166v10.57h-3.165z"/><path d="M618.718 150.267v3.166h-14.195v-3.166z"/><path d="M619.663 142.06v3.165h-9v-3.166z"/></g><g fill="#fff"><path d="M-92.312 134.535H-46.3v3.166h-46.012z"/><path d="M-85.452 150.367h3.167v3.075h-3.167z"/><path d="M-46.18 150.267v3.166h-9.196v-3.166z"/><path d="M-41.234 134.535h3.167v18.904h-3.167z"/><path d="M-22.917 150.267v3.166h-17.426v-3.166z"/><path d="M-55.376 142.87h3.167v10.57h-3.166z"/><path d="M-25.51 134.535h3.168v18.904h-3.167z"/><path d="M-33.425 134.535h3.167v18.904h-3.167z"/><path d="M-75.432 142.06v3.165h-16.794v-3.166z"/><path d="M-38.582 142.06v3.165h-16.794v-3.166z"/><path d="M-55.376 142.87h3.167v10.57h-3.166z"/><path d="M-55.376 142.87h3.167v10.57h-3.166z"/><path d="M-55.376 142.87h3.167v10.57h-3.166z"/><path d="M-92.226 142.87h3.166v10.57h-3.166z"/><path d="M-65.215 142.87h3.166v10.57h-3.165z"/><path d="M-78.597 142.87h3.166v10.57h-3.167z"/><path d="M-62.994 150.267v3.166H-77.19v-3.166z"/><path d="M-62.05 142.06v3.165h-9v-3.166z"/></g><g fill="#d90000"><path d="M15.5 318.352h5.672v9.853H15.5z"/><path d="M166.062 318.352h5.673v9.853h-5.673z"/><path d="M-100.024 318.352h5.673v9.853h-5.674z"/><path d="M-23.61 318.352h5.674v9.853h-5.673z"/><path d="M52.262 318.352h5.673v9.853h-5.673z"/><path d="M89.8 318.352h5.674v9.853H89.8z"/><path d="M128.124 318.352h5.673v9.853h-5.673z"/><path d="M203.6 318.352h5.674v9.853H203.6z"/><path d="M394.045 318.352h5.673v9.853h-5.673z"/><path d="M241.922 318.352h5.673v9.853h-5.673z"/><path d="M279.47 318.352h5.674v9.853h-5.673z"/><path d="M317.397 318.352h5.673v9.853h-5.673z"/><path d="M355.333 318.352h5.673v9.853h-5.673z"/><path d="M658.406 318.352h5.673v9.853h-5.674z"/><path d="M430.808 318.352h5.673v9.853h-5.672z"/><path d="M469.13 318.352h5.674v9.853h-5.673z"/><path d="M507.85 318.352h5.674v9.853h-5.673z"/><path d="M544.22 318.352h5.672v9.853h-5.673z"/><path d="M582.93 318.352h5.672v9.853h-5.673z"/><path d="M620.865 318.352h5.673v9.853h-5.673z"/><path d="M733.107 318.352h5.672v9.853h-5.673z"/><path d="M696.737 318.352h5.673v9.853h-5.673z"/><path d="M-61.933 318.352h5.673v9.853h-5.673z"/></g><g fill="#239e3f"><path d="M15.5 152.508h5.672v9.853H15.5z"/><path d="M166.062 152.508h5.673v9.853h-5.673z"/><path d="M-100.024 152.508h5.673v9.853h-5.674z"/><path d="M-23.61 152.508h5.674v9.853h-5.673z"/><path d="M52.262 152.508h5.673v9.853h-5.673z"/><path d="M89.8 152.508h5.674v9.853H89.8z"/><path d="M128.124 152.508h5.673v9.853h-5.673z"/><path d="M203.6 152.508h5.674v9.853H203.6z"/><path d="M394.045 152.508h5.673v9.853h-5.673z"/><path d="M241.922 152.508h5.673v9.853h-5.673z"/><path d="M279.47 152.508h5.674v9.853h-5.673z"/><path d="M317.397 152.508h5.673v9.853h-5.673z"/><path d="M355.333 152.508h5.673v9.853h-5.673z"/><path d="M658.406 152.508h5.673v9.853h-5.674z"/><path d="M430.808 152.508h5.673v9.853h-5.672z"/><path d="M469.13 152.508h5.674v9.853h-5.673z"/><path d="M507.85 152.508h5.674v9.853h-5.673z"/><path d="M544.22 152.508h5.672v9.853h-5.673z"/><path d="M582.93 152.508h5.672v9.853h-5.673z"/><path d="M620.865 152.508h5.673v9.853h-5.673z"/><path d="M733.107 152.508h5.672v9.853h-5.673z"/><path d="M696.737 152.508h5.673v9.853h-5.673z"/><path d="M-61.933 152.508h5.673v9.853h-5.673z"/></g><g fill="#da0000"><path d="M342.473 185.433c7.928 9.718 32.368 63.45-14.753 98.65-22.152 16.67-8.436 17.513-7.78 20.315 35.608-18.913 47.237-44.54 46.967-67.495-.27-22.957-12.442-43.24-24.434-51.466z"/><path d="M347.187 182.936c17.585 9.003 55.855 54.284 14.664 105.366 25.594-5.68 58.133-81.05-14.663-105.366z"/><path d="M293.182 182.936c-17.584 9.003-55.854 54.284-14.664 105.366-25.593-5.68-58.13-81.05 14.664-105.366z"/><path d="M297.83 185.433c-7.93 9.718-32.37 63.45 14.752 98.65 22.152 16.67 8.435 17.513 7.78 20.315-35.608-18.913-47.238-44.54-46.968-67.495.272-22.957 12.442-43.24 24.435-51.466z"/><path d="M365.356 299.502c-13.937.22-31.507-1.92-44.537-8.69 2.145 4.172 3.928 6.8 6.074 10.973 12.427 1.146 29.576 2.564 38.462-2.283z"/><path d="M276.28 299.502c13.938.22 31.508-1.92 44.54-8.69-2.147 4.172-3.93 6.8-6.076 10.973-12.428 1.146-29.577 2.564-38.463-2.283z"/><path d="M301.846 169.403c2.824 7.505 10.232 8.596 18.162 4.177 5.778 3.467 14.715 3.687 17.797-3.814 2.344 18.556-17.168 14.166-17.895 10.534-7.264 7.022-20.788 2.966-18.064-10.897z"/><path d="M320.528 311.186l7.328-8.375 1.047-112.713-8.723-7.677-8.724 7.327 1.745 113.41 7.328 8.027z"/></g></g></svg>