<svg xmlns="http://www.w3.org/2000/svg" height="480" width="640" version="1"><defs><clipPath id="a"><path fill-opacity=".67" d="M-80.11 0h682.67v512H-80.11z"/></clipPath></defs><g fill-rule="evenodd" clip-path="url(#a)"><path fill="#ffe900" d="M-26.007.224H665.54v479.334H-26.008z"/><path d="M-26.373.224l.806 345.543L512.54 0-26.373.22z" fill="#35a100"/><path d="M666.374 479.56L665.11 120.26l-542.793 359.57 544.06-.266z" fill="#c70000"/><path d="M-26.026 371.822l.46 108.178 117.42-.15L665.38 95.344l-.647-94.05L548.708.224-26.026 371.82z"/><path fill="#fff" d="M431.594 146.616l-9.3-39.593 31.26 25.36 35.614-23.115-16.327 38.735 31.31 25.31-41.353-1.42-16.264 38.755-9.23-39.613-41.357-1.362z"/><path fill="#fff" d="M173.552 314.344l-9.3-39.593 31.26 25.36 35.614-23.114L214.8 315.73l31.307 25.31-41.352-1.42-16.264 38.756-9.228-39.613-41.358-1.362z"/></g></svg>