<svg xmlns="http://www.w3.org/2000/svg" height="480" width="640" version="1"><defs><clipPath id="a"><path fill-opacity=".67" d="M5.077.1h682.53V512H5.077z"/></clipPath></defs><g fill-rule="evenodd" clip-path="url(#a)"><path stroke="#000" stroke-width="NaN" fill="#fff" d="M723.07 479.712H-75.973V.442H723.07z"/><path fill="#3e5698" d="M723.07 392.994H-75.973v86.724H723.07z"/><path fill="#c60000" d="M723.07 372.902H-75.973v-265.65H723.07z"/><path fill="#3e5698" d="M723.07.446H-75.973V87.17H723.07z"/><path d="M303.245 240.353c0 59.523-49.792 107.774-111.213 107.774-61.423 0-111.214-48.253-111.214-107.774 0-59.523 49.793-107.774 111.214-107.774 61.422 0 111.213 48.252 111.213 107.773z" fill="#fff"/><path fill="#c40000" d="M160.358 253.457l-53.53-38.07 66.65-.29 21.215-62.232 19.868 62.015 66.653-.4-54.373 38.623 19.972 61.987-53.474-38.142-54.308 38.706z"/></g></svg>