<svg xmlns="http://www.w3.org/2000/svg" height="480" width="640" version="1"><g><path fill="#006" d="M0 0h640v480H0z"/><g><path fill-rule="evenodd" fill="#006" d="M0 0h400v200H0z"/><g><path fill="#fff" d="M0 0v27.09l334.407 215.22H376.5v-27.09L42.093 0H0zm376.5 0v27.09L42.093 242.31H0v-27.09L334.407 0H376.5z"/><path fill="#fff" d="M156.875 0v242.31h62.75V0h-62.75zm-288.75 80.77v80.77h376.5V80.77h-376.5z"/><path fill="#c00" d="M0 96.924v48.462h376.5V96.924H0zm169.425-181.848v242.31h37.65v-242.31h-37.65z"/><path fill="#c00" d="M0 242.31l125.5-80.77h28.062l-125.5 80.77H0zm0-454.62l125.5 80.77H97.438L0-194.25v-18.06zm222.938 293.08L348.438 0H376.5L251 80.77h-28.062zM1.68 100.77L63.59 90.77h28.062l97.438 62.71v18.06z"/></g></g><g><path d="M448.33 179.14c-1.01.61-3.028 2.442-5.048 1.832-2.02-.61-6.562-8.543-11.61-7.323-5.05 1.22-8.078 3.05-10.097 3.05-2.02 0-7.573 1.83-7.573 6.712s.505 8.543 1.515 8.543c1.01 0 2.524-3.05 2.524-3.05s.506 6.1 4.04 6.1 11.106.61 11.61 2.442c.506 1.83-3.533 6.102-2.523 9.763 1.01 3.66 5.553 9.763 5.553 9.763s-6.563 4.88-6.563 7.933 1.01 6.102 1.01 6.102l-29.28 1.22s-2.02 86.647-1.01 93.36c1.01 6.71 3.533 23.186 3.533 23.186s-6.562-2.134-12.116 3.358c-5.553 5.493-24.988 14.948-25.493 19.22-.504 4.27-2.27 7.933-.25 10.983 2.018 3.05 9.123 11.34 7.066 10.985-6.777-1.17-9.3-10.798-13.882-14.34-4.504-3.476-13.378-2.745-14.387.914-1.01 3.662-.505 9.763 0 10.984.504 1.22 6.057 20.747 7.572 25.018s17.415 10.677 24.483 10.068c13.377.304 19.435-5.796 19.94-5.184.505.608 28.78 29.768 86.83 29.898 45.188.1 79.258-29.29 79.258-28.678 0 .61 18.68 6.1 25.242 4.272 6.563-1.834 16.155-6.105 18.174-10.376 2.02-4.27 7.573-26.24 8.078-29.897.505-3.664 0-7.935-4.544-9.156s-7.067-.916-9.59.304-3.283 4.58-7.07 10.68c-2.018 1.833-7.32 6.713-5.804 5.492s4.795-10.372 5.3-13.426c.505-3.05 2.02-8.542-1.514-11.593-3.534-3.05-8.947-4.296-15.145-8.845-5.886-4.034-10.6-10.68-14.135-10.68-3.534 0-7.573-1.83-7.068-1.83.505 0 4.552-8.864 3.542-18.015-1.01-9.155.496-96.7-.008-96.7-.505 0-25.242 1.83-25.242.61s2.02-9.763 0-15.255c-2.02-5.49-10.6-9.153-8.077-10.373 2.523-1.22 13.63-4.27 13.124-9.153-.505-4.883-7.572-4.272-10.6-6.103-3.03-1.83-12.117-10.373-13.127-10.373-1.01 0 26.25-16.475 24.232-16.475-2.02 0-12.62-3.052-16.155-1.22 0-3.052 14.64-12.205 12.116-13.426-2.523-1.22-14.135-2.44-11.106-3.05 3.03-.61 4.04-7.933 3.534-7.933-.505 0-13.125 1.832-13.125 1.832s-3.03-4.272-4.04-4.272c-1.008 0-5.552 2.44-5.552 2.44l-2.523-6.71-5.553 3.66-2.524-3.05s-4.544 1.22-4.544 0c.19-.045-.523-3.065-1.236-3.065-.715 0-5.712 3.883-5.89 3.667-.18-.215-5.712-7.982-5.712-7.766 0 .216-3.927 14.67-4.105 14.67-.178 0-3.927.43-4.105.647-.18.216-19.99-11.434-19.81-11.218.177.216 5.174 11.218 5.174 11.218s-4.283 2.373-4.283 2.59c0 .215.713 4.96.713 4.96l-13.21-4.53s4.998 10.14 4.64 10.14c-.356 0-9.816.43-9.637.43.178 0 4.462 8.414 4.462 8.414l-1.606 4.962s14.217 10.032 13.207 10.643zm350.176 163.507c1.262 1.83 8.077 10.372 7.067 10.372-1.01 0-17.92 11.288-24.736 13.425-6.816 2.133-29.028 6.1-27.766 5.796 1.263-.303 19.947-10.534 27.52-15.413 7.572-4.88 17.915-13.57 17.915-14.18zm-107.49-5.285c-1.01 1.22-5.804 10.68-5.804 10.68s13.882 9.762 24.232 13.425c10.348 3.66 28.017 4.88 27.008 4.575-1.01-.304-22.213-9.763-28.27-14.643-6.06-4.884-16.912-14.04-17.165-14.04z" fill-rule="evenodd" fill="#fff"/><g fill-rule="evenodd" stroke="#6d6666" fill="#fec500"><path d="M438.212 165.245s8.834 6.405 10.853 7.93 8.582 8.236 9.087 7.93c.505-.303 4.038-3.66 4.038-3.66s-7.32-7.014-11.863-8.54-12.115-3.05-12.115-3.66z"/><path d="M436.95 158.23c.757 0 14.64 8.54 18.93 12.81s6.058 9.762 6.563 9.762c.505 0 7.068-1.22 6.815-1.22-.252 0-3.03-10.98-9.34-14.336-6.31-3.356-22.716-7.016-22.968-7.016z"/><path d="M502.322 136.162c-.252 0-2.776 9.15-3.534 11.896-.757 2.746-2.02 8.54-2.02 8.54s-11.105 1.22-10.6-.304c.505-1.525 16.91-20.132 16.154-20.132z"/><path d="M439.473 147.248s13.126 10.676 17.67 16.777c4.542 6.1 9.086 16.776 9.338 16.776.254 0 12.37-3.05 12.37-2.744s-14.136-17.082-20.95-22.267-18.174-7.932-18.427-8.542z"/><path d="M453.104 144.398s6.563 12.202 7.825 16.472c1.26 4.27 5.047 15.252 5.047 15.252h10.35s-5.05-13.727-10.602-20.437-12.37-10.676-12.62-11.287z"/><path d="M456.635 137.687c.252.915 9.59 11.59 11.863 18.607 2.272 7.015 4.04 15.862 4.04 15.862l9.085-2.746s-8.077-17.997-13.125-22.877c-5.048-4.88-11.358-8.236-11.863-8.846z"/><path d="M532.107 166.466s-18.93 2.44-25.745 4.575-10.6 10.067-10.6 10.067 8.833 3.965 9.338 3.356 5.805-7.016 11.61-9.456c5.806-2.44 15.902-8.236 15.397-8.54z"/><path d="M531.35 151.518c-.506.305-15.65 15.252-20.446 20.132-4.796 4.88-9.34 10.066-9.844 10.37-.505.306-9.844-1.524-9.34-2.134.506-.61 13.883-13.726 22.718-19.522 8.834-5.796 16.154-8.236 16.91-8.846z"/><path d="M527.564 140.84c-1.515 2.136-16.407 16.777-20.445 21.963s-10.602 14.336-10.602 14.336-7.825-4.27-7.32-6.1c.505-1.83 11.106-12.507 18.678-18.608 7.572-6.1 20.445-10.98 19.688-11.59z"/><path d="M512.42 139.62c-.253.305-9.087 11.59-10.854 14.642-1.767 3.05-7.068 16.47-7.068 16.47s-7.824-8.234-7.824-8.54 9.844-12.81 15.65-17.69 10.348-3.967 10.096-4.882z"/><path d="M490.537 156.285c0 2.144-1.44 3.883-3.213 3.883-1.774 0-3.213-1.738-3.213-3.883 0-2.144 1.44-3.882 3.214-3.882s3.213 1.738 3.213 3.882z"/><path d="M496.962 161.464c0 1.906-1.438 3.45-3.213 3.45-1.775 0-3.213-1.544-3.213-3.45s1.438-3.45 3.212-3.45c1.774 0 3.212 1.545 3.212 3.45z"/><path d="M482.684 157.58c0 1.906-1.758 3.45-3.927 3.45-2.17 0-3.926-1.544-3.926-3.45s1.758-3.45 3.927-3.45c2.17 0 3.927 1.544 3.927 3.45z"/><path d="M493.036 164.7c0 3.692-1.998 6.686-4.462 6.686-2.465 0-4.462-2.994-4.462-6.686 0-3.693 1.997-6.687 4.462-6.687 2.464 0 4.462 2.994 4.462 6.687z"/><path d="M480.9 164.915c0 2.86-1.998 5.176-4.462 5.176-2.464 0-4.462-2.316-4.462-5.175 0-2.86 1.998-5.177 4.462-5.177 2.464 0 4.462 2.318 4.462 5.177z"/><path d="M474.83 169.014c0 2.502-1.518 4.53-3.39 4.53-1.873 0-3.392-2.028-3.392-4.53 0-2.5 1.52-4.53 3.39-4.53 1.874 0 3.393 2.03 3.393 4.53z"/><path d="M499.817 168.58c0 2.978-2.317 5.392-5.176 5.392-2.857 0-5.175-2.414-5.175-5.392s2.318-5.392 5.176-5.392c2.86 0 5.177 2.414 5.177 5.392z"/><path d="M487.325 160.815c0 1.787-1.837 3.236-4.105 3.236-2.267 0-4.105-1.448-4.105-3.235s1.838-3.235 4.105-3.235c2.267 0 4.105 1.448 4.105 3.235z"/><path d="M488.038 167.935c0 2.62-2.557 4.745-5.712 4.745s-5.71-2.125-5.71-4.745 2.556-4.745 5.71-4.745 5.712 2.124 5.712 4.745z"/><path d="M502.672 176.345c0 3.217-2.397 5.824-5.354 5.824s-5.354-2.608-5.354-5.825 2.397-5.823 5.354-5.823c2.957 0 5.354 2.607 5.354 5.823z"/><path d="M473.403 174.835c0 2.145-1.358 3.883-3.034 3.883s-3.035-1.738-3.035-3.883c0-2.144 1.358-3.882 3.034-3.882s3.033 1.738 3.033 3.882z"/><path d="M494.82 174.19c0 2.74-2.078 4.96-4.64 4.96-2.564 0-4.642-2.22-4.642-4.96 0-2.74 2.078-4.96 4.64-4.96 2.564 0 4.64 2.22 4.64 4.96z"/><path d="M480.185 173.975c0 2.382-1.838 4.313-4.105 4.313-2.267 0-4.105-1.93-4.105-4.313s1.838-4.314 4.105-4.314c2.267 0 4.105 1.932 4.105 4.315z"/><path d="M487.325 175.266c0 2.62-1.917 4.745-4.283 4.745-2.366 0-4.284-2.124-4.284-4.744 0-2.62 1.918-4.745 4.284-4.745 2.366 0 4.283 2.125 4.283 4.746z"/><path d="M468.76 146.795c1.072 0 8.568 3.02 8.568 3.02s-9.28 4.314-7.853 3.882 10.352-1.725 9.638-1.725c-.714 0-7.853 8.196-5.712 7.764 2.143-.43 6.427-5.607 6.784-5.607.357 0 4.64 8.195 4.997 7.763.358-.43 0-8.196.358-8.196.357 0 8.924 5.177 8.21 4.745-.714-.43-5.71-6.47-5.354-6.47.357 0 11.78 1.294 11.066.862-.714-.43-7.496-4.313-7.496-4.313s4.997-5.607 3.926-5.607-9.28 5.608-8.567 5.176c.714-.432 8.924-11.648 8.924-11.648l-8.21 4.745s1.428-6.902.714-6.47c-.713.43-6.424 9.06-6.78 9.06s-1.786-8.63-1.786-8.63.357 9.49-1.785 9.923c-2.143.43-9.64 2.157-9.64 1.725z"/></g><g fill-rule="evenodd"><path d="M445.507 216.53c.178.863 5.89 16.393 14.635 15.96s12.315-3.018 11.96-3.234c-.36-.216-4.107-2.804-6.248-8.412-2.142-5.608-2.5-7.98-2.5-7.98l-17.847 3.666z" fill="#00389b"/><path d="M476.74 210.49s6.426 15.315 9.282 17.472c2.856 2.157 9.46 3.882 12.315 3.667 2.856-.217 6.247 0 6.247 0s-2.856-1.51-5.176-9.923-3.034-11.216-3.034-11.216H476.74z" fill="#00389b"/><path d="M516.006 216.1s-1.25 11.215 0 14.02c1.25 2.803 7.497 7.98 7.497 7.98s7.496-1.08 7.674-7.98c.18-6.903-2.5-13.374-2.5-13.374l-12.67-.647z" fill="#00389b"/><path d="M288.94 21.015s1.163 4.65 0 8.14-11.046 12.79-11.046 20.347c0 7.558 11.627 30.812 47.09 31.394 35.464.58 80.23-19.185 79.648-19.767-.58-.582-84.88-56.975-86.04-56.394-1.16.582-29.65 17.44-29.65 16.28z" stroke="#000" stroke-width="1.122pt" fill="#005120" transform="matrix(.307 0 0 .371 350.733 188.675)"/><path d="M523.23 61.13s7.557 20.347 10.464 22.673c2.907 2.325 4.07 6.976 4.65 6.976s48.836 10.463 48.836 10.463 4.65-13.37-2.325-23.836c-6.977-10.465-33.138-37.79-33.138-37.79l-28.49 21.512z" stroke="#000" stroke-width="1.122pt" fill="#005120" transform="matrix(.307 0 0 .371 350.733 188.675)"/><path d="M556.37 36.13c1.162 0 12.79 9.883 22.092 4.65 9.3-5.23 24.417-19.184 24.417-19.184s-12.79 4.07-22.093 3.488c-9.302-.58-23.836 11.627-24.417 11.046z" stroke="#000" stroke-width="1.122pt" fill="#005120" transform="matrix(.307 0 0 .371 350.733 188.675)"/><path d="M287.2 23.34s-3.488-9.883-12.79-10.465c-9.302-.58-26.162 1.163-31.975-3.488-5.814-4.65-7.558-15.697-10.465-15.116-2.907.582-10.465 0-11.046 0s-3.488-9.3 4.65-13.952c8.14-4.65 15.117-.582 19.767-4.07 4.652-3.488 11.63-5.814 20.93-6.395 9.303-.58 24.418 11.628 31.395 14.534 6.976 2.907 22.092 6.395 27.905 3.488 5.814-2.907 38.37-15.697 49.998-16.278 11.627-.58 36.045-1.162 45.347-.58 9.302.58 45.928 5.23 56.974 10.464 11.045 5.233 69.763 25.58 77.902 30.232 8.14 4.65 26.162 11.627 26.162 11.627s-31.976 31.393-47.672 36.625c-15.697 5.232-65.695 13.372-95.345 11.627-29.65-1.744-52.904-4.65-75.578-16.278-22.68-11.626-47.1-22.672-48.26-28.486-1.16-5.813-.58-13.37-.58-13.37l-27.325 9.882z" stroke="#000" stroke-width="1.122pt" fill="#005120" transform="matrix(.307 0 0 .371 350.733 188.675)"/><path d="M251.15-14.45c-1.163.582-6.976 2.908-5.814 4.07 1.163 1.163 3.49 4.652 10.465 4.07 6.978-.58 14.535-4.65 14.535-4.65s-8.72-4.07-19.185-3.49z" stroke="#000" stroke-width="1.122pt" fill="#005120" transform="matrix(.307 0 0 .371 350.733 188.675)"/><path d="M250.57-13.286v6.395s8.14 2.324 8.14.58c0-1.744.58-5.813-1.164-5.813s-6.395-.582-6.976-1.163z" stroke="#000" stroke-width="1.122pt" transform="matrix(.307 0 0 .371 350.733 188.675)"/><path d="M331.95-8.453c2.056-3.7 0-8.632 11.922-14.388 11.92-5.756 32.68-4.112 32.68-4.112s-5.96 4.522-6.165 9.25c-.205 4.727.41 6.783.41 6.783s-11.304-3.7-19.937-1.438c-8.633 2.26-18.704 4.522-18.91 3.905z" stroke="#000007" stroke-width="1.122pt" fill="#001707" transform="matrix(.307 0 0 .371 350.733 188.675)"/><path d="M385.4-28.596c-1.233.617-10.277 10.688-9.25 13.772 1.028 3.083 13.155 10.483 17.06 9.866 3.906-.616 21.788-9.25 22.816-13.566 1.028-4.316 1.85-10.072.41-11.305-1.438-1.232-30.83 1.646-31.036 1.234z" stroke="#000007" stroke-width="1.122pt" fill="#001707" transform="matrix(.307 0 0 .371 350.733 188.675)"/><path d="M424.66-30.24c-2.26 2.26-1.44 13.155-.617 14.388.822 1.233 15.005 15.416 18.088 16.238 3.084.822 25.9-1.44 27.75-3.905s7.4-12.948 5.755-15.415c-1.645-2.467-6.578-5.756-21.788-9.044s-24.254-2.877-29.187-2.26z" stroke="#000007" stroke-width="1.122pt" fill="#001707" transform="matrix(.307 0 0 .371 350.733 188.675)"/><path d="M482.82-16.47c3.7 1.85 25.282 12.334 38.026 20.76 12.743 8.428 17.882 18.09 21.582 18.91 3.7.823 18.704-8.22 19.32-10.687.618-2.467-18.292-15.62-31.036-21.582-12.744-5.96-47.892-6.782-47.892-7.4z" stroke="#000007" stroke-width="1.122pt" fill="#001707" transform="matrix(.307 0 0 .371 350.733 188.675)"/><path d="M478.3-7.63c-1.85 1.644 23.02 45.014 27.748 46.453 4.728 1.438 33.093-8.428 32.682-11.716-.41-3.288-7.81-9.866-25.28-19.526C495.98-2.08 481.8-8.45 478.3-7.63z" stroke="#000007" stroke-width="1.122pt" fill="#001707" transform="matrix(.307 0 0 .371 350.733 188.675)"/><path d="M447.47 8.196c-3.905 2.26-10.07 41.11-6.166 42.96 3.905 1.85 52.003-4.728 53.853-9.044 1.85-4.317-19.733-38.643-26.105-38.643-6.37 0-17.882 1.644-21.582 4.727z" stroke="#000007" stroke-width="1.122pt" fill="#001707" transform="matrix(.307 0 0 .371 350.733 188.675)"/><path d="M397.73-.025c-5.14 4.727-4.11 40.903-1.85 43.164 2.26 2.26 30.83 9.66 33.914 6.987 3.084-2.672 7.195-43.37 4.317-46.453-2.877-3.083-10.893-10.483-17.06-11.1-6.166-.615-16.443 5.962-19.32 7.4z" stroke="#000007" stroke-width="1.122pt" fill="#001707" transform="matrix(.307 0 0 .371 350.733 188.675)"/><path d="M333.19-.642c-4.728 3.7-4.933 13.36.205 15.005 5.14 1.644 17.882 7.194 29.804 12.333 11.92 5.14 18.704 11.305 22.198 11.1 3.494-.207 6.783-36.382 3.083-38.438-3.7-2.055-14.593-3.7-24.87-3.29-10.277.412-25.282 1.44-30.42 3.29z" stroke="#000007" stroke-width="1.122pt" fill="#001707" transform="matrix(.307 0 0 .371 350.733 188.675)"/></g><path d="M387.976 359.2c2.59-2.52 6.616-8.68 12.08-8.96 5.467-.28 11.22 4.76 11.22 4.76s5.753 23.528 5.466 23.528c-.288 0-9.493 6.722-9.78 6.722-.288 0-4.028-9.243-7.48-8.404-3.45.84-3.164 13.445-3.74 12.605-.574-.84-15.244-18.205-14.67-18.765.577-.56 7.193-10.642 6.905-11.483z" fill-rule="evenodd" fill-opacity=".996" fill="#d40f0f"/><path d="M539.866 356.12c1.726-.28 9.493-6.163 14.958-5.882 5.466.28 8.63 2.8 11.506 5.32 2.876 2.522 6.33 8.963 6.33 8.963s-6.905 19.047-7.48 19.047-3.452 1.68-4.028.28-2.3-5.882-5.753-6.442c-3.452-.56-4.316 6.16-4.316 6.16l-11.217-27.446z" fill-rule="evenodd" fill-opacity=".996" fill="#d40f0f"/><path d="M543.604 362.007c0 1.682 10.643 28.01 27.903 33.05 17.258 5.04 22.724-4.76 24.737-8.122 2.013-3.36 9.205-3.08 9.205-3.08s-1.726 24.647-4.604 27.727c-2.876 3.08-5.178 9.803-21.286 10.082-16.107.28-30.778-15.123-35.667-19.605-4.892-4.483-11.22-16.245-13.81-21.568-2.587-5.32 13.81-17.924 13.52-18.485z" fill-rule="evenodd" fill-opacity=".996" fill="#fddc59"/><path d="M356.048 414.374c.288 0 7.767 8.123 18.697 7.282 10.93-.84 29.63-7.282 38.258-18.485 8.63-11.2 12.944-23.246 12.944-23.246s-12.656-22.406-12.944-22.406c-.288 0-1.438 7.282-3.74 12.043-2.3 4.763-8.63 18.206-19.272 22.41-10.643 4.2-10.643 5.88-14.957 5.32-4.315-.56-15.533-7.282-15.533-7.563 0-.28-5.465 13.165-5.465 13.165s-1.15 8.682 2.013 11.483z" fill-rule="evenodd" fill-opacity=".996" fill="#fddc59"/><path d="M387.782 358.423c-.814 0-21.154 11.09-20.34 15.844.813 4.753 34.985 72.09 108.206 72.88 73.223.794 117.975-60.998 114.72-71.296-3.255-10.297-26.035-22.18-26.035-22.18s5.694 4.753 4.88 11.09c-.813 6.338-26.035 61-89.496 59.416-63.46-1.585-93.565-49.908-93.565-55.453 0-5.545 3.255-8.715 1.628-10.3z" fill-rule="evenodd" fill-opacity=".996" fill="#fddc59"/><path d="M586.17 407.38c1.728-1.4 12.37-30.53 18.412-29.688 6.04.84 4.028 9.522 3.452 11.763-.575 2.24-6.616 22.407-6.616 22.407s.288-4.762-3.74-5.882c-4.026-1.12-10.643 1.96-11.506 1.4z" fill-rule="evenodd" fill-opacity=".996" fill="#d40f0f"/><path d="M356.048 414.67c0-1.582-4.882-7.128.813-8.713 5.697-1.583 13.02 1.585 13.02 1.585s-4.07-11.883-8.95-21.39c-4.882-9.505-6.51-7.92-10.577-6.337-4.068 1.585-3.97 5.778-1.528 12.115 2.44 6.338 7.223 24.326 7.223 22.74z" fill-rule="evenodd" fill-opacity=".996" fill="#d40f0f"/><g><path fill="#fdc400" fill-rule="evenodd" d="M423.08 360.493l7.055-23.936-19.596-15.047 24.543-.566 8.004-23.62 8.115 23.58 24.543.455-19.53 15.137 7.162 23.9-20.18-14.224z"/><path d="M555.634 235.74v91.966c.18 44.947-45.688 84.306-76.146 91.967-30.46-7.66-76.326-47.02-76.145-91.963v-91.967h152.29z" fill-rule="evenodd" fill="#fff"/><path d="M177.16 325.98l.42 160.73s2.387-3.288 35.013-1.284c32.627 2.004 35.433 35.433 70.867 35.433 35.433 0 35.433-35.434 70.866-35.434s35.433 35.433 70.866 35.433 35.433-35.434 70.866-35.434 35.433 35.433 72.87 37.46c33.43-2.027 33.43-37.46 69.062-39.464l35.233 2.004v-159.45h-496.06z" fill-rule="evenodd" fill-opacity=".996" transform="matrix(.307 0 0 .358 348.952 119.039)" stroke="#000" stroke-width="1.122pt" fill="#d40f0f"/><path d="M403.34 311.88v19.03h10.878c10.017.716 10.878 12.684 21.756 12.684s10.878-12.685 21.756-12.685 10.878 12.684 21.756 12.684 10.878-12.685 21.756-12.685 10.263 11.96 21.756 12.684c10.262-.725 10.816-11.968 21.756-12.685h10.877v-19.03h-10.876c-10.878 0-10.878 12.686-21.756 12.687-10.878 0-10.878-12.686-21.756-12.686s-10.878 12.686-21.756 12.686-10.878-12.685-21.756-12.685-10.878 12.686-21.756 12.686-10.878-12.685-21.756-12.685H403.34z" fill-rule="evenodd" fill-opacity=".996" fill="#0062bb"/><path d="M406.622 349.964l7.597 19.028c10.015.717 10.876 12.685 21.755 12.685 10.877 0 10.877-12.685 21.755-12.685s10.878 12.685 21.756 12.685 10.878-12.685 21.756-12.685 10.263 11.96 21.756 12.685c10.263-.725 10.564-11.968 21.504-12.685l7.85-19.322-7.598.294c-10.878 0-10.878 12.685-21.756 12.686-10.878 0-10.878-12.686-21.756-12.686s-10.878 12.685-21.756 12.685-10.878-12.686-21.756-12.686-10.878 12.685-21.755 12.685-10.878-12.686-21.756-12.686h-7.598z" fill-rule="evenodd" fill-opacity=".996" fill="#0062bb"/><path d="M479.488 419.76c10.88 0 35.803-19.026 35.548-19.026.253 0-2.915-12.685-13.793-12.685s-10.878 12.684-21.756 12.684-10.878-12.685-21.756-12.685-13.653 12.684-13.677 12.684c-.505 0 24.556 19.027 35.434 19.027z" fill-rule="evenodd" fill-opacity=".996" fill="#0062bb"/><g><path d="M90.85 117.57c.82 0 8.22 1.233 13.564.822 5.344-.41 7.4-2.467 7.4-2.878v-1.233h6.988s1.233 5.756.41 6.167-2.877 2.056-3.288 2.056 0-2.878-.822-2.056-1.233 2.056-1.233 2.056-.823-1.234-1.234-1.234-1.233 1.233-1.233 1.233 0-1.234-.412-1.234c-.41 0-2.465 2.055-2.465 2.055l-2.055-1.645s-1.234 2.056-1.645 2.056-2.877-1.644-2.877-1.644l-4.11 2.466s0-3.7-.823-3.29c-.822.412-5.344.412-5.344.412s-1.233 2.467-1.644 2.467-2.055-2.055-1.644-2.055 1.233-1.234.822-1.645c-.41-.41-2.466 0-2.466-.41s-.822-2.88-.41-2.88 2.054.413 2.054.413v-2.467h2.055l.412 2.467z" fill-rule="evenodd" fill-opacity=".996" transform="matrix(1.5 0 0 1.306 286.934 126.325)" stroke="#000" stroke-width=".701" fill="#fdc400"/><path d="M98.248 94.136c-.41 0-3.29 3.29-2.878 6.988.41 3.7 7.4 9.044 7.4 9.044s3.7-1.644 4.933 0 1.233 6.577.822 6.577-5.344 1.234-5.344.41c0-.82 0-1.643-.41-1.643s-4.933.41-4.933.41l.41-1.643-4.11-.823 1.645-1.645s-6.578-2.877-6.167-2.877 2.878-1.644 2.878-1.644l-4.933-3.288h2.878s-4.11-3.29-3.7-3.29c.41 0 2.466.412 2.466.412l-1.233-3.288h1.234L87.97 95.37l2.056-.823 1.234 2.055-.41-4.933 2.876.41v4.11s1.233-2.465 1.233-2.876c0-.41 3.7 1.644 3.288.822z" fill-rule="evenodd" fill-opacity=".996" transform="matrix(1.5 0 0 1.306 286.934 126.325)" stroke="#000" stroke-width=".701" fill="#fdc400"/><path d="M529.89 282.39c-.77.672-3.084 2.147-3.084 2.147s5.242-.402 5.088-.402-1.85-1.342-2.004-1.744z" fill-rule="evenodd" fill-opacity=".996"/><path d="M534.36 284.936c-.307.402-1.233 4.56-.616 4.29.616-.267 3.082-3.352 3.082-3.352l-2.466-.938z" fill-rule="evenodd" fill-opacity=".996"/><path d="M541.44 285.47c.77.672 4.316 3.755 3.853 3.085-.46-.67-.925-3.487-1.232-3.62-.308-.135-2.312.803-2.62.536z" fill-rule="evenodd" fill-opacity=".996"/><path d="M479.325 281.047c-.462.134-4.316 2.683-4.316 2.683s6.474-1.074 6.165-1.074c-.308 0-2.004-1.206-1.85-1.61z" fill-rule="evenodd" fill-opacity=".996"/><path d="M483.33 284.27c-.616.537-2.62 4.29-1.85 4.158.772-.134 4.163-2.55 4.163-2.55l-2.313-1.608z" fill-rule="evenodd" fill-opacity=".996"/><path d="M480.855 279.037c-.462-.134-3.7-1.476-3.546-1.476s4.316-.937 4.316-.937l-.77 2.414z" fill-rule="evenodd" fill-opacity=".996"/><path d="M419.817 277.302l-4.625-3.22 5.858 1.61-1.233 1.61z" fill-rule="evenodd" fill-opacity=".996"/><path d="M415.81 279.442c-.618 0-6.476 3.218-6.32 3.218s8.17.134 8.015 0c-.154-.133-1.388-2.95-1.696-3.218z" fill-rule="evenodd" fill-opacity=".996"/><path d="M419.508 284.14c-.617.27-5.24 3.352-4.933 3.352.308 0 6.937.135 6.937 0s-1.85-3.218-2.004-3.352z" fill-rule="evenodd" fill-opacity=".996"/><path d="M418.892 250.74s-1.696-3.756-1.542-3.756c.154 0 4.316 2.95 4.316 2.95l-2.774.806z" fill-rule="evenodd" fill-opacity=".996"/><path d="M423.516 246.046c0-.134.462-2.414.462-2.414s4.163 2.816 4.008 2.816c-.154 0-4.162 0-4.47-.402z" fill-rule="evenodd" fill-opacity=".996"/><path d="M429.99 247.79c0-.135.464-3.488.464-3.488s3.854 4.56 3.546 4.694c-.31.134-3.7-.67-4.01-1.207z" fill-rule="evenodd" fill-opacity=".996"/><path d="M137.26 110.86c0 .206 4.316 3.7 4.42 4.522.1.822-7.812 1.028-7.812 1.028s-2.26-1.747-2.98-1.645c-.72.103-1.028 1.85-1.028 1.85l1.85 1.028-3.494.205 1.028 1.953 2.672-.205-.617 1.85s1.643 1.234 1.952 1.028c.308-.205 1.336-2.055 2.158-2.364.822-.31 2.57-.31 2.57-.31s-1.337 2.262-.72 2.262c.616 0 3.39-2.364 3.39-2.364s.618 2.158.72 2.158c.103 0 2.056-2.466 2.056-2.466s0 1.953.308 1.953 3.186-2.467 3.186-2.467 2.26 2.878 2.57 2.672c.308-.205.616-3.083.924-3.083s2.26-.308 2.26-.41-1.232-1.132-1.438-2.57c-.205-1.44.206-4.83.103-4.83s-13.875.513-14.08.205z" fill-rule="evenodd" fill-opacity=".996" transform="matrix(1.5 0 0 1.306 285.91 126.62)" stroke="#000" stroke-width=".701" fill="#fdc400"/><path d="M115.37 104.6h40.286c4.11 0 7.81-1.644 7.81-4.11 0-2.467-6.577-2.878-9.043-2.056-2.467.822-13.155 5.755-17.677 5.344s-8.632-3.29-9.043-6.166c-.412-2.878 2.055-5.344 6.577-5.344s10.277 1.644 11.51 1.233 4.11-3.7 5.344-4.11c1.233-.41 4.933-.822 4.933-.822l-1.644 1.233 5.344-1.232s-4.11 4.522-8.222 5.755c-4.11 1.234-12.743.822-16.032.822s-4.933-.41-4.522 2.056c.412 2.467 2.88 4.112 4.934 3.7 2.056-.41 8.222-2.466 8.222-2.466L142.5 97.2l7.4-.41s-.41-1.233 0-1.233 4.112.41 4.112.41-2.467-1.233-2.056-1.233 2.056 0 5.344.412c3.29.41 10.277 1.644 9.866 4.932-.41 3.29-2.877 6.166-5.755 6.166s-5.343-.822-5.343.412c0 1.233 3.29 2.055 5.344 2.055s4.523-1.643 4.934-1.643 1.233 2.466 1.644 2.466 2.878-.822 2.878-.822l-1.644 4.523 2.877.822s-1.645 1.644-1.234 1.644 2.877 0 2.877.41-3.288 2.878-3.288 3.29 2.466 1.643 2.466 1.643-1.643 2.467-2.054 2.056-2.056-2.468-2.056-2.468-.41 1.645-1.233 1.645-2.466-.41-2.466-.41 1.234-2.468.823-2.468-2.467 1.643-2.467 1.232l-1.232-1.236s3.288-1.336 3.288-3.29c0-1.95-1.336-3.904-7.296-4.212-5.96-.31-6.064 1.438-10.483 1.233-4.42-.206-4.42-1.953-7.708-1.953-3.288 0-13.463 4.11-18.19 4.008-4.727-.102-10.688-.41-10.483-.616.206-.206 3.906-9.66 4.008-9.966z" fill-rule="evenodd" fill-opacity=".996" transform="matrix(1.5 0 0 1.306 285.91 126.62)" stroke="#000" stroke-width=".701" fill="#fdc400"/><path d="M106.88 102.46c-.41.206-4.008.72-4.214 4.522-.205 3.803.31 3.803.72 3.597.41-.206 1.233-3.495 1.233-3.495s-1.234 4.522.102 5.55c1.336 1.027 2.775 1.438 2.775 1.438l.513-3.597s-1.027 3.495 1.44 4.728c2.466 1.233 3.39.308 3.185-.617-.205-.925-.925-3.288-.925-3.288s1.953 2.157 2.056 2.362c.102.206 1.027 1.85 3.494 1.13 2.466-.72.72-2.363.72-2.363l-2.98-2.46s3.082 3.184 4.418 2.054-1.028-3.597-.925-3.494 1.953 3.494 2.672 1.336-1.13-2.775-1.747-4.83c-.617-2.056-1.13-2.26-.514-3.495.617-1.232.72-3.596.72-3.596s2.57.617 2.363-1.54c-.205-2.16-2.775-2.673-3.288-2.776-.515-.103-.413-2.26-.618-2.158-.206.103-1.85 1.336-1.85 1.336s-1.44-3.392-1.747-3.186-1.953 1.953-3.186 2.055c-1.234.103-1.954 1.85-1.954 1.85s-4.316-2.055-4.213 1.336c.103 3.393 2.57 2.57 2.57 2.673s-.412 4.728-.823 4.933z" fill-rule="evenodd" fill-opacity=".996" transform="matrix(1.5 0 0 1.306 286.934 126.325)" stroke="#000" stroke-width=".701" fill="#fdc400"/><path d="M450.85 253.215c.742-.227 1.833-1.174 3.097-1.06s3.29 1.086 2.287 1.616c-1.004.53-1.744.757-2.878.49-1.133-.266-2.005-.836-2.505-1.045z" fill-rule="evenodd" fill-opacity=".996"/><path d="M463.37 253.08c-.742-.226-1.833-1.173-3.097-1.058s-3.29 1.085-2.287 1.615c1.004.53 1.744.756 2.878.49 1.133-.267 2.005-.837 2.505-1.046z" fill-rule="evenodd" fill-opacity=".996"/><path d="M110.99 103.17c.103.514.41 4.83.616 4.522.206-.308 1.748-4.42 1.645-4.42s-2.157.104-2.26-.102z" fill-rule="evenodd" fill-opacity=".996" transform="matrix(1.5 0 0 1.306 287.143 126.389)" stroke="#000" stroke-width=".421" fill="#000039"/><path d="M109.96 103.17c.05-1.215.822-1.13 2.467-.925 1.644.206 2.466 1.028 2.363 1.234-.102.204-1.438.718-2.57.615-1.335-.41-2.297.09-2.26-.925z" transform="matrix(1.5 0 0 1.306 287.143 126.579)" stroke="#000" stroke-width=".842" fill="none"/><path d="M112.43 100.08l-.206 1.953" transform="matrix(1.5 0 0 1.306 287.143 126.579)" stroke="#000" stroke-width="1.122pt" fill="none"/><path d="M119.32 94.844s1.336.617 1.13 1.233c-.205.617-1.13.925-1.13.925" transform="matrix(1.5 0 0 1.306 287.143 126.579)" stroke="#000" stroke-width="1.122pt" fill="none"/><path d="M108.12 94.33c-.308.103-.72.308-.925 1.13-.205.823.925 1.337.925 1.337" transform="matrix(1.5 0 0 1.306 287.143 126.579)" stroke="#000" stroke-width="1.122pt" fill="none"/><path d="M111.19 136.13s-1.454 1.454 1.017 1.454.727-1.308.727-1.308" transform="matrix(1.5 0 0 1.306 287.36 77.607)" stroke="#000" stroke-width="1.122pt" fill="none"/></g><path fill="#fdc400" fill-rule="evenodd" d="M462.333 403.7l6.408-21.056-17.796-13.236 22.29-.5 7.27-20.778 7.368 20.744 22.29.4-17.737 13.317 6.504 21.026-18.327-12.513z"/><path fill="#003017" fill-rule="evenodd" fill-opacity=".996" d="M465.454 398.185l5.346-16.737-14.847-10.52 18.595-.397 6.065-16.516 6.148 16.49 18.596.317-14.796 10.586 5.426 16.712-15.29-9.946z"/><path fill="#fdc400" fill-rule="evenodd" d="M425.605 361.097l6.336-19.916-17.596-12.52 22.04-.47 7.187-19.655 7.287 19.62 22.04.38-17.538 12.596 6.43 19.888-18.12-11.836z"/><path fill="#003017" fill-rule="evenodd" fill-opacity=".996" d="M428.793 355.94l5.292-15.838-14.697-9.955 18.408-.375 6.003-15.63 6.085 15.603 18.407.3-14.647 10.018 5.372 15.813-15.136-9.41z"/><path fill="#fdc400" fill-rule="evenodd" d="M499.63 361.097l6.427-19.916-17.847-12.52 22.352-.47 7.29-19.655 7.39 19.62 22.352.38-17.786 12.596 6.522 19.888-18.378-11.836z"/><path fill="#003017" fill-rule="evenodd" fill-opacity=".996" d="M502.544 355.94l5.346-15.838-14.847-9.955 18.595-.375 6.065-15.63 6.148 15.603 18.596.3-14.796 10.018 5.426 15.813-15.29-9.41z"/></g><path d="M373.272 372.554c8.026 34.543 41.902 60.18 87.528 66.243 58.605 7.787 114.514-21.906 124.795-66.277" fill="none"/><path d="M373.45 378.042l11.01-6.22 1.037 2.263-4.32 2.44 1.43 3.122 4.32-2.44 1.035 2.264-11.012 6.22-1.036-2.263 4.99-2.82-1.428-3.12-4.99 2.818-1.037-2.263m4.61 9.633l10.28-7.61 3.517 5.867-1.71 1.265-2.25-3.753-2.376 1.76 2.096 3.492-1.63 1.206-2.094-3.493-2.83 2.094 2.304 3.84-1.736 1.286-3.57-5.956m7.162 11.05l9.07-9.32 1.55 1.866-3.555 3.655 2.14 2.57 3.557-3.654 1.552 1.866-9.07 9.32-1.55-1.866 4.11-4.224-2.14-2.57-4.11 4.223-1.554-1.866m11.843 5.518l1.472 1.434 2.675-5.05-4.147 3.616m-5.753 1.72l10.238-8.28 2.32 2.263-6.033 12.376-1.863-1.815 1.588-3.04-1.99-1.94-2.493 2.16-1.768-1.722m8.933 8.298l6.1-9.24-2.134-1.74 1.206-1.825 6.125 4.99-1.204 1.826-2.134-1.738-6.1 9.242-1.857-1.513m5.01 4.006l6.435-11.715 1.95 1.324-2.523 4.595 2.69 1.823 2.525-4.595 1.952 1.324-6.436 11.714-1.95-1.323 2.916-5.31-2.69-1.824-2.918 5.31-1.95-1.324m12.096 7.654l5.192-12.453 5.86 3.016-.85 2.037-3.77-1.94-1.228 2.943 3.56 1.832-.83 1.99-3.56-1.832-2.285 5.482-2.088-1.075m11.458-1.89c-.72 2.11-1.066 3.486-1.034 4.13.04.638.36 1.084.96 1.337.59.25 1.082.152 1.48-.29.403-.446.97-1.736 1.698-3.87s1.076-3.517 1.042-4.154c-.034-.637-.348-1.08-.943-1.332-.595-.25-1.095-.15-1.5.302-.407.452-.975 1.744-1.703 3.877m-2.198-.928c.465-1.36.894-2.422 1.286-3.185.394-.768.783-1.306 1.17-1.613.533-.442 1.075-.69 1.626-.744.55-.054 1.205.08 1.965.4s1.33.703 1.708 1.15c.38.446.64 1.032.78 1.758.102.526.068 1.217-.1 2.075-.16.86-.473 1.967-.936 3.322-.46 1.35-.89 2.408-1.283 3.176-.393.764-.78 1.306-1.165 1.627-.54.44-1.084.686-1.635.74-.55.054-1.205-.08-1.965-.4s-1.33-.703-1.71-1.15c-.38-.445-.637-1.03-.772-1.755-.105-.514-.076-1.2.086-2.06.163-.866.477-1.98.942-3.34m10.625-2.915l2.207.73-2.377 8.866c-.27 1.013-.346 1.74-.223 2.176.13.433.48.743 1.047.932.565.186 1.004.133 1.317-.16.318-.292.615-.953.89-1.984l2.368-8.83 2.176.718-2.433 9.08c-.236.882-.456 1.513-.658 1.893-.196.374-.44.68-.733.92-.44.355-.955.563-1.54.624-.584.055-1.234-.036-1.952-.274-1.353-.447-2.222-1.088-2.607-1.922-.378-.838-.35-2.068.086-3.69l2.433-9.08m5.91 16.182l2.696-13.392 2.31.574 1.252 10.147 1.824-9.383 2.12.527-2.697 13.393-2.294-.57-1.273-10.17-1.828 9.4-2.114-.527m12.075.683l1.008.175c.512.09.877.11 1.095.064.217-.046.4-.158.55-.337.262-.315.48-.77.656-1.365.176-.6.36-1.576.55-2.926.185-1.315.267-2.28.246-2.898-.022-.617-.138-1.1-.348-1.45-.11-.175-.268-.31-.47-.406-.198-.1-.518-.19-.962-.267l-.974-.17-1.35 9.58m-2.51 1.61l1.912-13.558 3.653.636c.745.13 1.327.304 1.746.52.424.22.756.51.996.878.362.538.58 1.178.655 1.918.08.736.015 1.85-.195 3.34-.272 1.925-.524 3.276-.758 4.053-.233.77-.535 1.41-.904 1.917-.358.51-.804.83-1.338.967-.527.13-1.406.09-2.637-.125l-3.13-.546m9.555 1.57l1.187-13.66 6.316.678-.197 2.27-4.04-.433-.274 3.157 3.76.404-.19 2.165-3.76-.404-.326 3.763 4.135.443-.2 2.307-6.412-.688m10.435-1.106l1.018.04c.52.02.884-.006 1.095-.08.21-.076.382-.212.51-.41.226-.347.394-.827.505-1.44.11-.62.19-1.614.233-2.98.043-1.33.02-2.3-.066-2.91-.087-.61-.254-1.074-.5-1.393-.13-.16-.3-.273-.51-.34-.208-.075-.535-.12-.984-.138l-.986-.04-.314 9.69m-2.318 1.93l.444-13.714 3.695.147c.753.03 1.35.126 1.788.286.445.16.806.406 1.084.738.418.486.703 1.092.856 1.818.16.72.214 1.833.165 3.34-.063 1.95-.17 3.324-.318 4.126-.15.797-.38 1.472-.692 2.024-.302.553-.71.932-1.225 1.137-.51.2-1.387.274-2.632.225l-3.165-.127m13.76.18l-.49-13.714 2.3-.1.49 13.713-2.3.1m6.144-.36l-.845-11.423-2.638.24-.167-2.256 7.57-.69.168 2.257-2.64.24.846 11.423-2.295.21m8.103-14.716l2.27-.438 1.424 9.114c.164 1.04.388 1.728.673 2.06.29.323.726.428 1.31.315.58-.112.952-.376 1.115-.794.168-.417.17-1.156.003-2.215l-1.42-9.08 2.236-.43 1.46 9.332c.142.908.2 1.58.17 2.02-.025.434-.12.83-.287 1.187-.252.537-.628.978-1.128 1.322-.502.338-1.12.578-1.86.72-1.39.27-2.425.125-3.103-.432-.675-.563-1.142-1.68-1.403-3.347l-1.46-9.333m12.29 3.48l.935-.253c.695-.187 1.15-.47 1.366-.846.213-.382.24-.94.08-1.672-.163-.74-.405-1.215-.727-1.427-.32-.22-.84-.232-1.56-.037l-.967.262.87 3.974m-.514 8.083l-2.924-13.335 3.88-1.05c1.185-.32 2.102-.257 2.75.19.65.45 1.12 1.343 1.414 2.682.29 1.317.226 2.373-.188 3.17-.41.79-1.185 1.34-2.323 1.647l-1.63.44 1.24 5.655-2.22.6m8.82-9.66c.615 2.15 1.114 3.468 1.5 3.95.387.474.886.603 1.498.387.602-.212.934-.628.998-1.25.068-.627-.21-2.03-.83-4.203s-1.122-3.5-1.505-3.977c-.382-.476-.877-.607-1.483-.394-.607.213-.943.637-1.01 1.27-.065.635.213 2.04.834 4.214m-2.24.79c-.396-1.388-.653-2.516-.772-3.384-.12-.874-.115-1.564.015-2.07.17-.716.458-1.285.86-1.707.4-.422.99-.77 1.763-1.042.775-.272 1.436-.365 1.983-.277.546.088 1.077.368 1.594.84.372.343.733.908 1.08 1.695.354.786.728 1.87 1.123 3.25.392 1.377.65 2.502.77 3.376.118.868.117 1.56-.005 2.077-.177.718-.466 1.287-.867 1.71-.4.42-.99.77-1.764 1.042-.774.273-1.435.365-1.982.277-.546-.088-1.075-.37-1.587-.844-.368-.33-.73-.89-1.083-1.675-.355-.79-.73-1.88-1.126-3.267m11.292 3.137l-4.596-12.74 2.196-.977 6.2 7.58-3.274-8.883 2.018-.9 4.596 12.74-2.18.972-6.23-7.586 3.28 8.9-2.01.894m14.307-7.027l-4.82-10.133-2.34 1.374-.953-2 6.717-3.944.952 2.002-2.34 1.374 4.82 10.133-2.037 1.194m5.437-3.242l-6.596-11.604 1.933-1.356 2.588 4.55 2.666-1.87-2.587-4.55 1.932-1.357 6.596 11.604-1.933 1.355-2.99-5.26-2.665 1.87 2.99 5.26-1.933 1.357m8.24-5.934l-7.445-10.952 5.063-4.25 1.238 1.822-3.24 2.718 1.722 2.53 3.015-2.528 1.18 1.735-3.015 2.53 2.05 3.015 3.315-2.782 1.257 1.85-5.14 4.312m6.355-11.777l1.642-1.79.556.628c.533.602.963.94 1.29 1.015.33.066.66-.082.992-.445.347-.38.524-.763.53-1.154.01-.395-.152-.783-.49-1.164-.258-.293-.542-.474-.852-.544-.313-.075-.825-.048-1.537.08l-1.426.256c-1.22.232-2.09.274-2.61.126-.517-.152-1.02-.503-1.507-1.054-.727-.822-1.077-1.706-1.05-2.65.026-.946.424-1.84 1.195-2.68.816-.89 1.66-1.326 2.534-1.305s1.72.495 2.54 1.423c.083.093.145.167.186.222.045.05.082.097.112.14l-1.556 1.7-.23-.262c-.47-.53-.883-.823-1.242-.882-.358-.057-.717.11-1.076.5-.263.29-.394.603-.393.943.002.332.138.65.408.955.363.41 1.104.498 2.22.26.013-.002.022-.004.03-.004l1.505-.307c1.064-.23 1.9-.257 2.502-.083.6.17 1.19.58 1.766 1.233.788.89 1.166 1.827 1.136 2.81-.03.982-.47 1.938-1.322 2.867-.885.966-1.77 1.432-2.654 1.398-.88-.038-1.782-.578-2.704-1.62-.098-.11-.25-.3-.46-.572l-.035-.038m9.56-3.855l-9.468-8.815 4.075-5.403 1.574 1.465-2.605 3.456 2.188 2.04 2.427-3.22 1.5 1.398-2.427 3.217 2.607 2.427 2.67-3.538 1.598 1.488-4.137 5.485m2.405-12.287l1.093-1.804-4.85-2.307 3.757 4.11m2.265 6.122l-8.69-10.232 1.725-2.846 11.814 5.08-1.386 2.285-2.915-1.366-1.48 2.44 2.243 2.473-1.313 2.165m1.466-11.16l1.052-2.275.706.403c.676.385 1.18.556 1.513.512.33-.052.602-.308.815-.767.222-.48.28-.908.177-1.282-.103-.378-.368-.69-.796-.934-.328-.188-.65-.26-.963-.22-.317.04-.796.243-1.436.613l-1.28.742c-1.093.646-1.907.99-2.443 1.03-.532.037-1.11-.12-1.727-.474-.923-.525-1.506-1.242-1.748-2.148-.242-.906-.117-1.893.377-2.96.522-1.132 1.2-1.84 2.036-2.125.835-.285 1.774-.13 2.815.464.105.06.185.11.24.147.056.033.105.064.146.094l-.998 2.157-.293-.167c-.595-.34-1.07-.473-1.428-.403-.357.07-.65.353-.88.85-.17.365-.204.71-.107 1.03.095.316.314.57.657.766.46.264 1.19.088 2.182-.528.01-.008.018-.013.026-.015l1.342-.817c.946-.59 1.73-.907 2.352-.953.617-.048 1.292.136 2.025.554.998.57 1.622 1.327 1.87 2.27.25.944.103 2.005-.442 3.184-.567 1.226-1.274 1.978-2.124 2.254-.847.272-1.855.074-3.026-.594-.123-.07-.323-.197-.6-.38l-.04-.026"/></g></g></svg>