<svg xmlns="http://www.w3.org/2000/svg" version="1" width="640" height="480" viewBox="0 0 320 240"><defs><clipPath id="a"><path d="M25-60h400v300H25z"/></clipPath></defs><g clip-path="url(#a)"><path fill="#fff" d="M-20 0h360v240H-20z"/><path fill="#009543" d="M-20 168h360v72H-20z"/><path fill="#00209f" d="M-20 0h360v72H-20z"/><g><path d="M159.91 76.503c-1.368.03-2.704 1.545-2.704 1.545l.118 16.194-5.112 5.356h4.14l-.036 9.287-24.485 32.97-3.62-1.25-6.325 13.494s15.647 9.797 38.358 9.53c24.927-.297 38.47-9.983 38.47-9.983l-6.537-13.32-3.2 1.39-24.8-32.798-.035-9.565h4.14l-5.633-5.29.034-16.135s-1.4-1.457-2.77-1.427z" stroke="#000" stroke-width="0.8008000000000001"/><path d="M168.446 115.273h-16.93s-6.145-12.947-5.15-22c1.016-9.215 6.283-13.575 13.286-13.652 8.28-.092 12.62 4.058 13.93 13.285 1.3 9.144-5.136 22.368-5.136 22.368z" stroke="#000" stroke-width="4.00218" fill="none"/><path d="M130.315 146.137c-.277.37-2.307 4.428-2.307 4.428l3.506-.738-1.2-3.69z" fill="#fff"/><path d="M132.344 151.395l-3.69 1.2 4.428 1.753-.738-2.953z" fill="#fff"/><path d="M134.005 146.23l1.845 5.442 4.52-1.29-1.2-2.585-5.165-1.568z" fill="#fff"/><path d="M136.865 153.61l.646 2.214 5.997 1.476-2.398-5.074-4.245 1.384z" fill="#fff"/><path d="M143.507 148.997l2.122 5.074 4.52-1.752-1.476-2.214-5.167-1.107z" fill="#fff"/><path d="M146.46 155.916l.738 1.937 7.01 1.015-2.95-4.613-4.798 1.66z" fill="#fff"/><path d="M153.194 150.473l2.583 4.52 6.55-2.398-.738-1.753-8.396-.37z" fill="#fff"/><path d="M156.977 156.654l1.383 2.4 8.12-.278-3.045-4.52-6.458 2.398z" fill="#fff"/><path d="M165.556 150.657l2.215 3.783 5.167-2.49-1.384-2.03-5.997.737z" fill="#fff"/><path d="M174.044 153.517l-5.166 2.583 1.383 2.215 6.92-1.107-3.136-3.69z" fill="#fff"/><path d="M175.704 149.55l2.676 3.322 4.336-3.414-1.476-1.568-5.536 1.66z" fill="#fff"/><path d="M183.638 151.303l-4.15 3.137 1.106 1.937 5.72-1.476-2.676-3.597z" fill="#fff"/><path d="M189.358 144.753l1.015 1.476-2.86 4.243-2.952-3.783 4.798-1.937z" fill="#fff"/><path d="M191.296 148.443l1.753 3.506-3.507 1.198-.277-1.66 2.03-3.045z" fill="#fff"/></g></g></svg>