<svg xmlns="http://www.w3.org/2000/svg" height="480" width="640"><defs><clipPath id="a"><path fill-opacity=".67" d="M0-15.957h512v512H0z"/></clipPath></defs><g><path fill="#fff" d="M0 0h640v480H0z"/><g fill-rule="evenodd" clip-path="url(#a)"><path d="M6.13 473.905l355.113-.01-232.43-235.708 241.183.284L6.15 6.08l-.018 467.827z" stroke="#000063" stroke-width="12.96828" fill="#ce0000"/><path fill="#fff" d="M169.43 348.366l-25.3 8.375 19.79 18.616-26.658-1.712 10.983 24.586-23.952-11.52.494 26.804-17.612-19.59-10.07 24.962-8.577-24.668-19.09 19.296 1.743-25.994-25.202 10.71 11.814-23.355-27.5.48 20.09-17.17-25.59-9.82 25.3-8.363-19.8-18.615 26.657 1.7-10.972-24.574 23.952 11.52-.493-26.816 17.612 19.59 10.056-24.95 8.59 24.668 19.09-19.308-1.756 25.994 25.215-10.697-11.813 23.354 27.488-.48-20.09 17.172z"/><path d="M139.05 175.39l-10.622 7.863 5.235 4.326c12.714-9.828 21.76-18.81 28.832-33.714 1.657 19.894-16.578 64.552-64.435 65.045-51.22-.042-68.99-47.424-67.014-65.883 9.41 17.07 15.15 25.395 29.92 34.283l4.52-4.148-10.004-8.336 12.878-3.348-6.93-11.662 13.494.983-1.696-13.58 11.828 6.92 3.7-12.64 8.5 10.18 7.96-9.652 4.335 13.116 11.053-7.69-1.417 13.338 13.25-1.555-6.21 12.33 12.825 3.823z" fill="#fff"/></g></g></svg>