<svg xmlns="http://www.w3.org/2000/svg" height="480" width="640" version="1"><defs><clipPath id="a"><path fill-opacity=".67" d="M-52.334 0h682.67v512h-682.67z"/></clipPath></defs><g fill-rule="evenodd" clip-path="url(#a)"><path fill="#0c590b" d="M-40 0h720v480H-40z"/><path fill="#fff" d="M-40 0h180.488v480H-40z"/><g fill="#fff"><path d="M427.51 211.302l-29.214-6.146-15.364 25.598-3.183-29.684-29.095-6.703 27.248-12.2-2.616-29.74 20.023 22.145 27.476-11.68-14.872 25.887L427.51 211.3z"/><path d="M438.53 286.94c-25.936 57.148-94.005 82.11-151.314 55.563-57.317-26.554-82.286-94.616-55.732-151.932 13.543-29.232 35.706-49.322 66.992-60.286-3.6 3.043-7.16 6.2-11.06 10.226-40.416 41.707-39.365 108.36 2.342 148.77 41.707 40.415 108.36 39.365 148.77-2.342z"/></g></g></svg>