<svg xmlns="http://www.w3.org/2000/svg" height="480" width="640" version="1"><defs><linearGradient id="b" y2="-5035.4" gradientUnits="userSpaceOnUse" y1="-5035.4" gradientTransform="matrix(.085 0 0 .142 -225.71 715.44)" x2="4203.4" x1="359.59"><stop offset="0"/><stop stop-color="#fff" offset="1"/></linearGradient><clipPath id="a"><path fill-opacity=".67" d="M-72.352 0h682.67v512h-682.67z"/></clipPath></defs><g clip-path="url(#a)"><path stroke="url(#b)" stroke-width="NaN" fill="#090" d="M-39.926.06H248.29v479.88H-39.927z"/><path fill-rule="evenodd" fill="#f00" d="M247.66 0h432.33v480H247.66z"/><g fill-rule="evenodd"><g><path d="M232.82 182.763l-.858 18.012 121.44-11.297.858-18.012z"/><path fill="#efef00" d="M233.91 184.752l-.657 13.794 119.06-11.075.656-13.793z"/><g><path d="M232.186 179.025l-.28 5.912 122.665-11.41.282-5.913z"/><path fill="#efef00" d="M233.174 181.045l-.08 1.675 120.487-11.208.08-1.675z"/></g><g><path d="M231.248 198.73l-.28 5.913 122.665-11.41.28-5.913z"/><path fill="#efef00" d="M232.236 200.75l-.08 1.676 120.487-11.208.08-1.675z"/></g></g><g><path d="M251.027 240.108l-.858 18.012 121.44-11.297.857-18.012z"/><path fill="#efef00" d="M252.117 242.097l-.657 13.794 119.06-11.074.656-13.794z"/><g><path d="M250.393 236.37l-.28 5.912 122.665-11.41.28-5.913z"/><path fill="#efef00" d="M251.38 238.39l-.078 1.675 120.486-11.208.08-1.675z"/></g><g><path d="M249.455 256.076l-.28 5.912 122.665-11.41.28-5.913z"/><path fill="#efef00" d="M250.443 258.096l-.08 1.675 120.487-11.207.08-1.675z"/></g></g><g><path d="M243.742 304.734l-.858 18.012 121.44-11.297.858-18.013z"/><path fill="#efef00" d="M244.832 306.723l-.657 13.794 119.06-11.075.656-13.794z"/><g><path d="M243.108 300.996l-.28 5.912 122.665-11.41.28-5.913z"/><path fill="#efef00" d="M244.096 303.016l-.08 1.675 120.487-11.207.08-1.675z"/></g><g><path d="M242.17 320.702l-.28 5.912 122.665-11.41.28-5.913z"/><path fill="#efef00" d="M243.158 322.722l-.08 1.675 120.487-11.208.08-1.676z"/></g></g><g><path d="M257.408 300.183l.858 18.012-121.44-11.297-.858-18.012z"/><path fill="#efef00" d="M256.318 302.172l.657 13.794-119.06-11.075-.656-13.793z"/><g><path d="M258.042 296.445l.28 5.912-122.665-11.41-.28-5.913z"/><path fill="#efef00" d="M257.054 298.465l.08 1.675-120.487-11.208-.08-1.675z"/></g><g><path d="M258.98 316.15l.28 5.913-122.665-11.41-.28-5.913z"/><path fill="#efef00" d="M257.992 318.17l.08 1.676-120.487-11.208-.08-1.675z"/></g></g><g><path d="M249.428 247.002l-5.318 16.124-127.09-14.12 5.32-16.125z"/><path fill="#efef00" d="M247.562 248.743l-4.073 12.35-124.597-13.845 4.073-12.35z"/><g><path d="M251.406 243.683l-1.745 5.292-128.37-14.263 1.745-5.293z"/><path fill="#efef00" d="M249.64 245.455l-.494 1.5-126.09-14.01.494-1.5z"/></g><g><path d="M245.588 261.325l-1.745 5.292-128.372-14.263 1.747-5.293z"/><path fill="#efef00" d="M243.822 263.097l-.494 1.5-126.09-14.01.494-1.5z"/></g></g><g><path d="M234.007 245.407l-13.037 13.895-93.198-64.956 13.037-13.895z"/><path fill="#efef00" d="M231.573 246.39l-9.984 10.64-91.37-63.68 9.983-10.642z"/><g><path d="M237.393 242.902l-4.28 4.56-94.138-65.612 4.28-4.56z"/><path fill="#efef00" d="M235.022 243.955l-1.213 1.292-92.467-64.446 1.213-1.29z"/></g><g><path d="M223.13 258.104l-4.28 4.56-94.14-65.612 4.28-4.56z"/><path fill="#efef00" d="M220.758 259.157l-1.213 1.292-92.466-64.447 1.212-1.292z"/></g></g><g><path d="M353.567 245.316c.046 59.905-48.533 108.524-108.436 108.524-59.905.095-108.562-48.446-108.61-108.35-.145-59.907 48.357-108.6 108.262-108.698 59.905-.19 108.64 48.274 108.785 108.175.003.12.003.224.003.346zm-904.13-925.346c.056 73.958-59.917 133.976-133.87 133.976-73.957.118-134.035-59.81-134.083-133.763-.18-73.96 59.7-134.073 133.656-134.19 73.958-.234 134.122 59.598 134.297 133.55.003.15.003.277.003.427z" fill="#efef00"/><path d="M376.326 245.16c.056 72.433-58.68 131.215-131.11 131.215-72.432.114-131.27-58.577-131.327-131.005-.176-72.434 58.47-131.31 130.91-131.423 72.43-.23 131.355 58.368 131.526 130.796.003.147.003.27.003.418zm-82.2 2379.94c.054 70.984-57.51 128.592-128.488 128.592-70.984.112-128.64-57.406-128.696-128.393-.172-70.985 57.3-128.688 128.288-128.802 70.984-.226 128.725 57.2 128.896 128.184.003.144.003.266.003.41z"/><path d="M358.81 244.092c.047 62.52-50.652 113.26-113.17 113.26-62.52.098-113.306-50.563-113.355-113.08-.15-62.52 50.47-113.34 112.995-113.438 62.52-.2 113.382 50.38 113.53 112.897.002.128.002.236.002.362zm-64.325 2381.008c.047 61.27-49.64 110.995-110.905 110.995-61.27.097-111.036-49.55-111.086-110.823-.148-61.27 49.46-111.077 110.733-111.175 61.27-.196 111.11 49.373 111.258 110.642.002.124.002.23.002.353z"/></g><g><path d="M239.074 110.858h16.64v268.3h-16.64z"/><path fill="#efef00" d="M241.014 113.49h12.743v263.035h-12.743z"/><g><path d="M235.55 109.058h5.463v271.007h-5.462z"/><path fill="#efef00" d="M237.51 111.465h1.548v266.19h-1.547z"/></g><g><path d="M253.756 109.058h5.462v271.007h-5.462z"/><path fill="#efef00" d="M255.716 111.465h1.547v266.19h-1.547z"/></g></g><g><path d="M240.532 267.9l6.175 16.81-118.616 25.417-6.175-16.81z"/><path fill="#efef00" d="M240.09 270.108l4.728 12.874-116.29 24.92-4.73-12.875z"/><g><path d="M240.02 264.17l2.027 5.517-119.813 25.674-2.027-5.516z"/><path fill="#efef00" d="M239.684 266.377l.574 1.563-117.684 25.218-.574-1.563z"/></g><g><path d="M246.776 282.56l2.027 5.52-119.813 25.673-2.027-5.517z"/><path fill="#efef00" d="M246.44 284.77l.574 1.562L129.33 311.55l-.574-1.563z"/></g></g><g><path d="M234.8 217.553l.857 17.154-124.265 14.12-.857-17.153z"/><path fill="#efef00" d="M233.68 219.69l.658 13.138-121.827 13.844-.656-13.137z"/><g><path d="M235.452 213.826l.28 5.63-125.518 14.264-.28-5.63z"/><path fill="#efef00" d="M234.438 215.972l.08 1.596-123.288 14.01-.08-1.596z"/></g><g><path d="M236.39 232.594l.28 5.63-125.518 14.264-.28-5.63z"/><path fill="#efef00" d="M235.376 234.74l.08 1.596-123.288 14.01-.08-1.596z"/></g></g><g><path d="M237.455 214.425l-10.292 15.954-104.495-45.19 10.292-15.952z"/><path fill="#efef00" d="M235.23 215.842l-7.88 12.218-102.447-44.3 7.882-12.22z"/><g><path d="M240.335 211.35l-3.378 5.238-105.55-45.644 3.38-5.236z"/><path fill="#efef00" d="M238.186 212.825l-.957 1.483-103.675-44.832.957-1.483z"/></g><g><path d="M229.074 228.805l-3.378 5.237-105.55-45.644 3.38-5.236z"/><path fill="#efef00" d="M226.925 230.28l-.957 1.482-103.674-44.832.957-1.483z"/></g></g><g><path d="M381.305 219.18l-.172 17.153-124.265-5.648.172-17.154z"/><path fill="#efef00" d="M380.066 221.124l-.13 13.137-121.828-5.537.13-13.137z"/><g><path d="M382.175 215.585l-.056 5.63-125.52-5.705.056-5.63z"/><path fill="#efef00" d="M381.04 217.554l-.016 1.596-123.288-5.604.016-1.596z"/></g><g><path d="M381.987 234.353l-.056 5.63-125.518-5.705.056-5.63z"/><path fill="#efef00" d="M380.852 236.322l-.016 1.596-123.288-5.604.016-1.596z"/></g></g><g><path d="M358.778 170.27l4.975 15.438-104.496-2.825-4.974-15.438z"/><path fill="#efef00" d="M358.334 172.04l3.81 11.825-102.446-2.77-3.81-11.822z"/><g><path d="M358.426 167.02l1.633 5.067-105.55-2.852-1.634-5.068z"/><path fill="#efef00" d="M358.074 168.813l.463 1.435-103.674-2.802-.463-1.435z"/></g><g><path d="M363.87 183.91l1.632 5.067-105.55-2.852-1.633-5.068z"/><path fill="#efef00" d="M363.517 185.703l.463 1.435-103.674-2.802-.463-1.435z"/></g></g><g><path d="M372.48 291.46l-7.376 15.954L249.31 265.05l7.378-15.952z"/><path fill="#efef00" d="M370.484 292.906l-5.648 12.217-113.52-41.532 5.648-12.216z"/><g><path d="M374.818 288.368l-2.42 5.237-116.962-42.79 2.42-5.237z"/><path fill="#efef00" d="M372.91 289.867l-.685 1.484-114.882-42.03.686-1.483z"/></g><g><path d="M366.748 305.822l-2.42 5.237-116.962-42.792 2.42-5.236z"/><path fill="#efef00" d="M364.84 307.32l-.685 1.485-114.882-42.03.686-1.484z"/></g></g><g><g><g fill="#f6f6fb"><g transform="matrix(.097 0 0 .097 250 850.141)"><path d="M-850.89-7147h1590.9v1171.1h-1590.9z"/><ellipse transform="matrix(1.075 0 0 1.063 -3130.4 -10547)" cx="2861.4" rx="740.21" cy="4267.3" ry="696.02"/></g><g transform="matrix(.097 0 0 .097 -328.489 514.172)"><path d="M5478.8-3340.7h859.09v632.38H5478.8z"/><ellipse transform="matrix(.58 0 0 .574 4247.9 -5088.5)" cx="2861.4" rx="740.21" cy="4267.3" ry="696.02"/></g></g><g><g fill="#f00"><g transform="matrix(.092 0 0 .092 249.718 820.033)"><path d="M-850.89-7147h1590.9v1171.1h-1590.9z"/><ellipse transform="matrix(1.075 0 0 1.063 -3130.4 -10547)" cx="2861.4" rx="740.21" cy="4267.3" ry="696.02"/></g><g transform="matrix(.092 0 0 .092 -298.952 501.382)"><path d="M5478.8-3340.7h859.09v632.38H5478.8z"/><ellipse transform="matrix(.58 0 0 .574 4247.9 -5088.5)" cx="2861.4" rx="740.21" cy="4267.3" ry="696.02"/></g></g><g fill="#400"><g transform="matrix(.055 0 0 .055 247.662 589.396)"><path d="M-850.89-7147h1590.9v1171.1h-1590.9z"/><ellipse transform="matrix(1.075 0 0 1.063 -3130.4 -10547)" cx="2861.4" rx="740.21" cy="4267.3" ry="696.02"/></g><g transform="matrix(.055 0 0 .055 -80.347 398.898)"><path d="M5478.8-3340.7h859.09v632.38H5478.8z"/><ellipse transform="matrix(.58 0 0 .574 4247.9 -5088.5)" cx="2861.4" rx="740.21" cy="4267.3" ry="696.02"/></g></g><g fill="#fff"><g transform="matrix(.05 0 0 .05 247.361 556.105)"><path d="M-850.89-7147h1590.9v1171.1h-1590.9z"/><ellipse transform="matrix(1.075 0 0 1.063 -3130.4 -10547)" cx="2861.4" rx="740.21" cy="4267.3" ry="696.02"/></g><g transform="matrix(.05 0 0 .05 -50.829 382.925)"><path d="M5478.8-3340.7h859.09v632.38H5478.8z"/><ellipse transform="matrix(.58 0 0 .574 4247.9 -5088.5)" cx="2861.4" rx="740.21" cy="4267.3" ry="696.02"/></g></g></g></g><g transform="matrix(.097 0 0 .097 -42.959 448.975)"><g fill="#3b3bff"><g><g transform="matrix(.15 0 0 .15 2979.24 -840.14)"><path d="M-850.89-7147h1590.9v1171.1h-1590.9z"/><ellipse transform="matrix(1.075 0 0 1.063 -3130.4 -10547)" cx="2861.4" rx="740.21" cy="4267.3" ry="696.02"/></g><g transform="matrix(.15 0 0 .15 2084.67 -1359.68)"><path d="M5478.8-3340.7h859.09v632.38H5478.8z"/><ellipse transform="matrix(.58 0 0 .574 4247.9 -5088.5)" cx="2861.4" rx="740.21" cy="4267.3" ry="696.02"/></g></g><g><g><g transform="matrix(.142 0 0 .142 2978.805 -886.7)"><path d="M-850.89-7147h1590.9v1171.1h-1590.9z"/><ellipse transform="matrix(1.075 0 0 1.063 -3130.4 -10547)" cx="2861.4" rx="740.21" cy="4267.3" ry="696.02"/></g><g transform="matrix(.142 0 0 .142 2131.945 -1378.531)"><path d="M5478.8-3340.7h859.09v632.38H5478.8z"/><ellipse transform="matrix(.58 0 0 .574 4247.9 -5088.5)" cx="2861.4" rx="740.21" cy="4267.3" ry="696.02"/></g></g><g><g transform="matrix(.085 0 0 .085 2975.625 -1243.355)"><path d="M-850.89-7147h1590.9v1171.1h-1590.9z"/><ellipse transform="matrix(1.075 0 0 1.063 -3130.4 -10547)" cx="2861.4" rx="740.21" cy="4267.3" ry="696.02"/></g><g transform="matrix(.085 0 0 .085 2468.702 -1537.761)"><path d="M5478.8-3340.7h859.09v632.38H5478.8z"/><ellipse transform="matrix(.58 0 0 .574 4247.9 -5088.5)" cx="2861.4" rx="740.21" cy="4267.3" ry="696.02"/></g></g><g><g transform="matrix(.077 0 0 .077 2975.16 -1294.835)"><path d="M-850.89-7147h1590.9v1171.1h-1590.9z"/><ellipse transform="matrix(1.075 0 0 1.063 -3130.4 -10547)" cx="2861.4" rx="740.21" cy="4267.3" ry="696.02"/></g><g transform="matrix(.077 0 0 .077 2515.947 -1561.532)"><path d="M5478.8-3340.7h859.09v632.38H5478.8z"/><ellipse transform="matrix(.58 0 0 .574 4247.9 -5088.5)" cx="2861.4" rx="740.21" cy="4267.3" ry="696.02"/></g></g></g></g><ellipse fill="#fff" transform="translate(-3.782 -7.563)" cx="2903" rx="35.688" cy="-1854.9" ry="35.688"/><ellipse fill="#fff" transform="translate(129.99 -7.563)" cx="2903" rx="35.688" cy="-1854.9" ry="35.688"/><ellipse fill="#fff" transform="translate(61.922 67.595)" cx="2903" rx="35.688" cy="-1854.9" ry="35.688"/><ellipse fill="#fff" transform="translate(1.418 140.39)" cx="2903" rx="35.688" cy="-1854.9" ry="35.688"/><ellipse fill="#fff" transform="translate(128.57 142.75)" cx="2903" rx="35.688" cy="-1854.9" ry="35.688"/></g><path d="M173.61 177.256v2.2h29.345v-2.2H173.61zm-604.964 361.712v6.125h24.943v-6.125h-24.944zm21.502-36.39v2.2h29.345v-2.2h-29.345zm-12.623 186.8c-.003-3.995 3.067-7.238 6.853-7.238 3.786-.006 6.862 3.23 6.865 7.227v.09m-14.48.32c-.004-4.44 3.407-8.043 7.614-8.043 4.207-.007 7.624 3.59 7.627 8.03v.1m-20.142-11.067V689.8h24.942v-11.003h-24.942zm17.94-115.822v2.082h29.344v-2.082h-29.344zm-23.716-105.11v2.957h2.26v-2.957h-2.26zm27.074-27.332v2.957h2.26v-2.957h-2.26zm229.67.06v2.956h2.262v-2.958h-2.26zm-192.342.492v2.957h2.26v-2.957h-2.26zm153.675-3.344v2.958h2.26v-2.957h-2.26zm-117.398-25.94v2.958h2.26V401.8h-2.26zm79.516-.063v2.957h2.262v-2.957h-2.26zm-45.478 2.485v2.827h11.266v-2.828h-11.266z" fill="#ff0"/><g fill="#f00"><path d="M182.403 170.767h2.26v2.957h-2.26z"/><path d="M192.542 170.707h2.26v2.957h-2.26z"/></g><path d="M286.247 177.608v2.2h29.344v-2.2h-29.343zm-717.6 361.36v6.125h24.942v-6.125h-24.944zm21.5-36.39v2.2h29.346v-2.2h-29.345zm-12.622 186.8c-.003-3.995 3.067-7.238 6.853-7.238 3.786-.006 6.862 3.23 6.865 7.227v.09m-14.48.32c-.004-4.44 3.407-8.043 7.614-8.043 4.207-.007 7.624 3.59 7.627 8.03v.1m-20.142-11.067V689.8h24.942v-11.003h-24.942zm17.94-115.822v2.082h29.344v-2.082h-29.344zm-23.716-105.11v2.957h2.26v-2.957h-2.26zm27.074-27.332v2.957h2.26v-2.957h-2.26zm229.67.06v2.956h2.262v-2.958h-2.26zm-192.342.492v2.957h2.26v-2.957h-2.26zm153.675-3.344v2.958h2.26v-2.957h-2.26zm-117.398-25.94v2.958h2.26V401.8h-2.26zm79.516-.063v2.957h2.262v-2.957h-2.26zm-45.478 2.485v2.827h11.266v-2.828h-11.266z" fill="#ff0"/><g fill="#f00"><path d="M295.03 171.12h2.26v2.956h-2.26z"/><path d="M305.17 171.06h2.26v2.956h-2.26z"/></g><path d="M230.986 177.608v2.2h29.344v-2.2h-29.344zm-662.34 361.36v6.125h24.943v-6.125h-24.944zm21.502-36.39v2.2h29.345v-2.2h-29.345zm-12.623 186.8c-.003-3.995 3.067-7.238 6.853-7.238 3.786-.006 6.862 3.23 6.865 7.227v.09m-14.48.32c-.004-4.44 3.407-8.043 7.614-8.043 4.207-.007 7.624 3.59 7.627 8.03v.1m-20.142-11.067V689.8h24.942v-11.003h-24.942zm17.94-115.822v2.082h29.344v-2.082h-29.344zm-23.716-105.11v2.957h2.26v-2.957h-2.26zm27.074-27.332v2.957h2.26v-2.957h-2.26zm229.67.06v2.956h2.262v-2.958h-2.26zm-192.342.492v2.957h2.26v-2.957h-2.26zm153.675-3.344v2.958h2.26v-2.957h-2.26zm-117.398-25.94v2.958h2.26V401.8h-2.26zm79.516-.063v2.957h2.262v-2.957h-2.26zm-45.478 2.485v2.827h11.266v-2.828h-11.266z" fill="#ff0"/><g fill="#f00"><path d="M239.77 171.12h2.26v2.956h-2.26z"/><path d="M249.908 171.06h2.26v2.956h-2.26z"/></g><path d="M171.147 246.24v2.202h29.344v-2.2h-29.343zm-602.5 292.728v6.125h24.942v-6.125h-24.944zm21.5-36.39v2.2h29.346v-2.2h-29.345zm-12.622 186.8c-.003-3.995 3.067-7.238 6.853-7.238 3.786-.006 6.862 3.23 6.865 7.227v.09m-14.48.32c-.004-4.44 3.407-8.043 7.614-8.043 4.207-.007 7.624 3.59 7.627 8.03v.1m-20.142-11.067V689.8h24.942v-11.003h-24.942zm17.94-115.822v2.082h29.344v-2.082h-29.344zm-23.716-105.11v2.957h2.26v-2.957h-2.26zm27.074-27.332v2.957h2.26v-2.957h-2.26zm229.67.06v2.956h2.262v-2.958h-2.26zm-192.342.492v2.957h2.26v-2.957h-2.26zm153.675-3.344v2.958h2.26v-2.957h-2.26zm-117.398-25.94v2.958h2.26V401.8h-2.26zm79.516-.063v2.957h2.262v-2.957h-2.26zm-45.478 2.485v2.827h11.266v-2.828h-11.266z" fill="#ff0"/><g fill="#f00"><path d="M179.94 239.757h2.26v2.957h-2.26z"/><path d="M190.078 239.697h2.26v2.957h-2.26z"/></g><path d="M288.362 245.543v2.2h29.344v-2.2h-29.344zm-719.716 293.425v6.125h24.943v-6.125h-24.944zm21.502-36.39v2.2h29.345v-2.2h-29.345zm-12.623 186.8c-.003-3.995 3.067-7.238 6.853-7.238 3.786-.006 6.862 3.23 6.865 7.227v.09m-14.48.32c-.004-4.44 3.407-8.043 7.614-8.043 4.207-.007 7.624 3.59 7.627 8.03v.1m-20.142-11.067V689.8h24.942v-11.003h-24.942zm17.94-115.822v2.082h29.344v-2.082h-29.344zm-23.716-105.11v2.957h2.26v-2.957h-2.26zm27.074-27.332v2.957h2.26v-2.957h-2.26zm229.67.06v2.956h2.262v-2.958h-2.26zm-192.342.492v2.957h2.26v-2.957h-2.26zm153.675-3.344v2.958h2.26v-2.957h-2.26zm-117.398-25.94v2.958h2.26V401.8h-2.26zm79.516-.063v2.957h2.262v-2.957h-2.26zm-45.478 2.485v2.827h11.266v-2.828h-11.266z" fill="#ff0"/><g fill="#f00"><path d="M297.144 239.05h2.26v2.956h-2.26z"/><path d="M307.283 238.99h2.26v2.956h-2.26z"/></g><path d="M196.42 312.414l1.656 1.43 19.058-22.084-1.656-1.43-19.06 22.084zm-633.236 226.766l4.61 3.98 16.2-18.773-4.61-3.978-16.2 18.77zm42.892-42.005l1.656 1.43 19.06-22.084-1.657-1.43-19.06 22.085zm-31.82 186.524c-3.01-2.594-3.455-7.01-.996-9.86 2.454-2.854 6.888-3.065 9.897-.472l.067.058m-9.164 11.105c-3.343-2.88-3.84-7.787-1.107-10.953 2.727-3.17 7.654-3.406 10.997-.525.027.023.05.042.075.065m-21.41 7.97l8.28 7.148 16.2-18.772-8.28-7.146-16.2 18.77zm19.82-112.347l1.566 1.352 19.06-22.084-1.567-1.352-19.058 22.084zm-18.557-109.844l2.225 1.92 1.468-1.7-2.224-1.92-1.468 1.7zm19.784-48.756l2.225 1.92 1.468-1.7-2.225-1.922-1.468 1.702zm247.132 37.433l2.225 1.92 1.468-1.7-2.226-1.92-1.468 1.7zm-206.648-29.988l2.225 1.92 1.47-1.7-2.226-1.92-1.468 1.7zm162.68 21.352l2.225 1.92 1.47-1.7-2.226-1.922-1.468 1.702zm-123.22-43.918l2.225 1.92 1.47-1.702-2.226-1.92-1.47 1.7zm84.168 10.04l2.226 1.92 1.468-1.7-2.225-1.922-1.47 1.702zm-43.063 1.583l2.13 1.836 7.316-8.48-2.127-1.836-7.32 8.48z" fill="#ff0"/><g fill="#f00"><path d="M197.244 301.587l1.47-1.702 2.224 1.92-1.468 1.702z"/><path d="M203.784 293.917l1.47-1.7 2.224 1.92-1.468 1.7z"/></g><path d="M293.874 312.065l-1.657 1.43-19.058-22.084 1.655-1.43 19.06 22.085zm-724.858 227.115l-4.61 3.98-16.2-18.773 4.61-3.978 16.2 18.77zm9.606-42.005l-1.656 1.43-19.06-22.084 1.657-1.43 19.06 22.085zm-13.556 186.524c3.01-2.594 3.455-7.01.996-9.86-2.454-2.854-6.888-3.065-9.897-.472l-.067.058m9.164 11.105c3.343-2.88 3.84-7.787 1.107-10.953-2.728-3.17-7.655-3.406-10.998-.525-.027.023-.05.042-.075.065m21.41 7.97l-8.28 7.148-16.2-18.772 8.28-7.146 16.2 18.77zm25.556-112.347l-1.566 1.352-19.06-22.084 1.568-1.352 19.058 22.084zm-33.963-109.844l-2.225 1.92-1.468-1.7 2.225-1.92 1.468 1.7zm-19.838-48.756l-2.225 1.92-1.468-1.7 2.224-1.922 1.468 1.702zm311.588 37.433l-2.225 1.92-1.47-1.7 2.227-1.92 1.468 1.7zm-259.152-29.988l-2.225 1.92-1.468-1.7 2.225-1.92 1.468 1.7zM5.502 451.88l-2.225 1.92-1.468-1.7 2.225-1.922 1.468 1.702zm-156.76-43.918l-2.225 1.92-1.468-1.702 2.225-1.92 1.47 1.7zm101.666 10.04l-2.226 1.92-1.468-1.7 2.225-1.922 1.47 1.702zm-47.41 1.583l-2.127 1.836-7.317-8.48 2.127-1.836 7.318 8.48z" fill="#ff0"/><g fill="#f00"><path d="M293.048 301.238l-1.47-1.702-2.224 1.92 1.468 1.702z"/><path d="M286.508 293.568l-1.47-1.7-2.224 1.92 1.468 1.7z"/></g><g><g transform="matrix(.097 0 0 .097 -43.329 388.451)"><g fill="#3b3bff"><g><g transform="matrix(.15 0 0 .15 2979.24 -840.14)"><path d="M-850.89-7147h1590.9v1171.1h-1590.9z"/><ellipse transform="matrix(1.075 0 0 1.063 -3130.4 -10547)" cx="2861.4" rx="740.21" cy="4267.3" ry="696.02"/></g><g transform="matrix(.15 0 0 .15 2084.67 -1359.68)"><path d="M5478.8-3340.7h859.09v632.38H5478.8z"/><ellipse transform="matrix(.58 0 0 .574 4247.9 -5088.5)" cx="2861.4" rx="740.21" cy="4267.3" ry="696.02"/></g></g><g><g><g transform="matrix(.142 0 0 .142 2978.805 -886.7)"><path d="M-850.89-7147h1590.9v1171.1h-1590.9z"/><ellipse transform="matrix(1.075 0 0 1.063 -3130.4 -10547)" cx="2861.4" rx="740.21" cy="4267.3" ry="696.02"/></g><g transform="matrix(.142 0 0 .142 2131.945 -1378.531)"><path d="M5478.8-3340.7h859.09v632.38H5478.8z"/><ellipse transform="matrix(.58 0 0 .574 4247.9 -5088.5)" cx="2861.4" rx="740.21" cy="4267.3" ry="696.02"/></g></g><g><g transform="matrix(.085 0 0 .085 2975.625 -1243.355)"><path d="M-850.89-7147h1590.9v1171.1h-1590.9z"/><ellipse transform="matrix(1.075 0 0 1.063 -3130.4 -10547)" cx="2861.4" rx="740.21" cy="4267.3" ry="696.02"/></g><g transform="matrix(.085 0 0 .085 2468.702 -1537.761)"><path d="M5478.8-3340.7h859.09v632.38H5478.8z"/><ellipse transform="matrix(.58 0 0 .574 4247.9 -5088.5)" cx="2861.4" rx="740.21" cy="4267.3" ry="696.02"/></g></g><g><g transform="matrix(.077 0 0 .077 2975.16 -1294.835)"><path d="M-850.89-7147h1590.9v1171.1h-1590.9z"/><ellipse transform="matrix(1.075 0 0 1.063 -3130.4 -10547)" cx="2861.4" rx="740.21" cy="4267.3" ry="696.02"/></g><g transform="matrix(.077 0 0 .077 2515.947 -1561.532)"><path d="M5478.8-3340.7h859.09v632.38H5478.8z"/><ellipse transform="matrix(.58 0 0 .574 4247.9 -5088.5)" cx="2861.4" rx="740.21" cy="4267.3" ry="696.02"/></g></g></g></g><ellipse fill="#fff" transform="translate(-3.782 -7.563)" cx="2903" rx="35.688" cy="-1854.9" ry="35.688"/><ellipse fill="#fff" transform="translate(129.99 -7.563)" cx="2903" rx="35.688" cy="-1854.9" ry="35.688"/><ellipse fill="#fff" transform="translate(61.922 67.595)" cx="2903" rx="35.688" cy="-1854.9" ry="35.688"/><ellipse fill="#fff" transform="translate(1.418 140.39)" cx="2903" rx="35.688" cy="-1854.9" ry="35.688"/><ellipse fill="#fff" transform="translate(128.57 142.75)" cx="2903" rx="35.688" cy="-1854.9" ry="35.688"/></g><g transform="matrix(.097 0 0 .097 -43.329 418.53)"><g fill="#3b3bff"><g><g transform="matrix(.15 0 0 .15 2979.24 -840.14)"><path d="M-850.89-7147h1590.9v1171.1h-1590.9z"/><ellipse transform="matrix(1.075 0 0 1.063 -3130.4 -10547)" cx="2861.4" rx="740.21" cy="4267.3" ry="696.02"/></g><g transform="matrix(.15 0 0 .15 2084.67 -1359.68)"><path d="M5478.8-3340.7h859.09v632.38H5478.8z"/><ellipse transform="matrix(.58 0 0 .574 4247.9 -5088.5)" cx="2861.4" rx="740.21" cy="4267.3" ry="696.02"/></g></g><g><g><g transform="matrix(.142 0 0 .142 2978.805 -886.7)"><path d="M-850.89-7147h1590.9v1171.1h-1590.9z"/><ellipse transform="matrix(1.075 0 0 1.063 -3130.4 -10547)" cx="2861.4" rx="740.21" cy="4267.3" ry="696.02"/></g><g transform="matrix(.142 0 0 .142 2131.945 -1378.531)"><path d="M5478.8-3340.7h859.09v632.38H5478.8z"/><ellipse transform="matrix(.58 0 0 .574 4247.9 -5088.5)" cx="2861.4" rx="740.21" cy="4267.3" ry="696.02"/></g></g><g><g transform="matrix(.085 0 0 .085 2975.625 -1243.355)"><path d="M-850.89-7147h1590.9v1171.1h-1590.9z"/><ellipse transform="matrix(1.075 0 0 1.063 -3130.4 -10547)" cx="2861.4" rx="740.21" cy="4267.3" ry="696.02"/></g><g transform="matrix(.085 0 0 .085 2468.702 -1537.761)"><path d="M5478.8-3340.7h859.09v632.38H5478.8z"/><ellipse transform="matrix(.58 0 0 .574 4247.9 -5088.5)" cx="2861.4" rx="740.21" cy="4267.3" ry="696.02"/></g></g><g><g transform="matrix(.077 0 0 .077 2975.16 -1294.835)"><path d="M-850.89-7147h1590.9v1171.1h-1590.9z"/><ellipse transform="matrix(1.075 0 0 1.063 -3130.4 -10547)" cx="2861.4" rx="740.21" cy="4267.3" ry="696.02"/></g><g transform="matrix(.077 0 0 .077 2515.947 -1561.532)"><path d="M5478.8-3340.7h859.09v632.38H5478.8z"/><ellipse transform="matrix(.58 0 0 .574 4247.9 -5088.5)" cx="2861.4" rx="740.21" cy="4267.3" ry="696.02"/></g></g></g></g><ellipse fill="#fff" transform="translate(-3.782 -7.563)" cx="2903" rx="35.688" cy="-1854.9" ry="35.688"/><ellipse fill="#fff" transform="translate(129.99 -7.563)" cx="2903" rx="35.688" cy="-1854.9" ry="35.688"/><ellipse fill="#fff" transform="translate(61.922 67.595)" cx="2903" rx="35.688" cy="-1854.9" ry="35.688"/><ellipse fill="#fff" transform="translate(1.418 140.39)" cx="2903" rx="35.688" cy="-1854.9" ry="35.688"/><ellipse fill="#fff" transform="translate(128.57 142.75)" cx="2903" rx="35.688" cy="-1854.9" ry="35.688"/></g><g transform="matrix(.097 0 0 .097 -17.652 418.53)"><g fill="#3b3bff"><g><g transform="matrix(.15 0 0 .15 2979.24 -840.14)"><path d="M-850.89-7147h1590.9v1171.1h-1590.9z"/><ellipse transform="matrix(1.075 0 0 1.063 -3130.4 -10547)" cx="2861.4" rx="740.21" cy="4267.3" ry="696.02"/></g><g transform="matrix(.15 0 0 .15 2084.67 -1359.68)"><path d="M5478.8-3340.7h859.09v632.38H5478.8z"/><ellipse transform="matrix(.58 0 0 .574 4247.9 -5088.5)" cx="2861.4" rx="740.21" cy="4267.3" ry="696.02"/></g></g><g><g><g transform="matrix(.142 0 0 .142 2978.805 -886.7)"><path d="M-850.89-7147h1590.9v1171.1h-1590.9z"/><ellipse transform="matrix(1.075 0 0 1.063 -3130.4 -10547)" cx="2861.4" rx="740.21" cy="4267.3" ry="696.02"/></g><g transform="matrix(.142 0 0 .142 2131.945 -1378.531)"><path d="M5478.8-3340.7h859.09v632.38H5478.8z"/><ellipse transform="matrix(.58 0 0 .574 4247.9 -5088.5)" cx="2861.4" rx="740.21" cy="4267.3" ry="696.02"/></g></g><g><g transform="matrix(.085 0 0 .085 2975.625 -1243.355)"><path d="M-850.89-7147h1590.9v1171.1h-1590.9z"/><ellipse transform="matrix(1.075 0 0 1.063 -3130.4 -10547)" cx="2861.4" rx="740.21" cy="4267.3" ry="696.02"/></g><g transform="matrix(.085 0 0 .085 2468.702 -1537.761)"><path d="M5478.8-3340.7h859.09v632.38H5478.8z"/><ellipse transform="matrix(.58 0 0 .574 4247.9 -5088.5)" cx="2861.4" rx="740.21" cy="4267.3" ry="696.02"/></g></g><g><g transform="matrix(.077 0 0 .077 2975.16 -1294.835)"><path d="M-850.89-7147h1590.9v1171.1h-1590.9z"/><ellipse transform="matrix(1.075 0 0 1.063 -3130.4 -10547)" cx="2861.4" rx="740.21" cy="4267.3" ry="696.02"/></g><g transform="matrix(.077 0 0 .077 2515.947 -1561.532)"><path d="M5478.8-3340.7h859.09v632.38H5478.8z"/><ellipse transform="matrix(.58 0 0 .574 4247.9 -5088.5)" cx="2861.4" rx="740.21" cy="4267.3" ry="696.02"/></g></g></g></g><ellipse fill="#fff" transform="translate(-3.782 -7.563)" cx="2903" rx="35.688" cy="-1854.9" ry="35.688"/><ellipse fill="#fff" transform="translate(129.99 -7.563)" cx="2903" rx="35.688" cy="-1854.9" ry="35.688"/><ellipse fill="#fff" transform="translate(61.922 67.595)" cx="2903" rx="35.688" cy="-1854.9" ry="35.688"/><ellipse fill="#fff" transform="translate(1.418 140.39)" cx="2903" rx="35.688" cy="-1854.9" ry="35.688"/><ellipse fill="#fff" transform="translate(128.57 142.75)" cx="2903" rx="35.688" cy="-1854.9" ry="35.688"/></g><g transform="matrix(.097 0 0 .097 -69.005 418.53)"><g fill="#3b3bff"><g><g transform="matrix(.15 0 0 .15 2979.24 -840.14)"><path d="M-850.89-7147h1590.9v1171.1h-1590.9z"/><ellipse transform="matrix(1.075 0 0 1.063 -3130.4 -10547)" cx="2861.4" rx="740.21" cy="4267.3" ry="696.02"/></g><g transform="matrix(.15 0 0 .15 2084.67 -1359.68)"><path d="M5478.8-3340.7h859.09v632.38H5478.8z"/><ellipse transform="matrix(.58 0 0 .574 4247.9 -5088.5)" cx="2861.4" rx="740.21" cy="4267.3" ry="696.02"/></g></g><g><g><g transform="matrix(.142 0 0 .142 2978.805 -886.7)"><path d="M-850.89-7147h1590.9v1171.1h-1590.9z"/><ellipse transform="matrix(1.075 0 0 1.063 -3130.4 -10547)" cx="2861.4" rx="740.21" cy="4267.3" ry="696.02"/></g><g transform="matrix(.142 0 0 .142 2131.945 -1378.531)"><path d="M5478.8-3340.7h859.09v632.38H5478.8z"/><ellipse transform="matrix(.58 0 0 .574 4247.9 -5088.5)" cx="2861.4" rx="740.21" cy="4267.3" ry="696.02"/></g></g><g><g transform="matrix(.085 0 0 .085 2975.625 -1243.355)"><path d="M-850.89-7147h1590.9v1171.1h-1590.9z"/><ellipse transform="matrix(1.075 0 0 1.063 -3130.4 -10547)" cx="2861.4" rx="740.21" cy="4267.3" ry="696.02"/></g><g transform="matrix(.085 0 0 .085 2468.702 -1537.761)"><path d="M5478.8-3340.7h859.09v632.38H5478.8z"/><ellipse transform="matrix(.58 0 0 .574 4247.9 -5088.5)" cx="2861.4" rx="740.21" cy="4267.3" ry="696.02"/></g></g><g><g transform="matrix(.077 0 0 .077 2975.16 -1294.835)"><path d="M-850.89-7147h1590.9v1171.1h-1590.9z"/><ellipse transform="matrix(1.075 0 0 1.063 -3130.4 -10547)" cx="2861.4" rx="740.21" cy="4267.3" ry="696.02"/></g><g transform="matrix(.077 0 0 .077 2515.947 -1561.532)"><path d="M5478.8-3340.7h859.09v632.38H5478.8z"/><ellipse transform="matrix(.58 0 0 .574 4247.9 -5088.5)" cx="2861.4" rx="740.21" cy="4267.3" ry="696.02"/></g></g></g></g><ellipse fill="#fff" transform="translate(-3.782 -7.563)" cx="2903" rx="35.688" cy="-1854.9" ry="35.688"/><ellipse fill="#fff" transform="translate(129.99 -7.563)" cx="2903" rx="35.688" cy="-1854.9" ry="35.688"/><ellipse fill="#fff" transform="translate(61.922 67.595)" cx="2903" rx="35.688" cy="-1854.9" ry="35.688"/><ellipse fill="#fff" transform="translate(1.418 140.39)" cx="2903" rx="35.688" cy="-1854.9" ry="35.688"/><ellipse fill="#fff" transform="translate(128.57 142.75)" cx="2903" rx="35.688" cy="-1854.9" ry="35.688"/></g></g></g></g></g></svg>