<svg xmlns="http://www.w3.org/2000/svg" height="480" width="640"><defs><clipPath id="a"><path fill-opacity=".67" d="M-170.67 0H512v512h-682.67z"/></clipPath></defs><g clip-path="url(#a)" fill-rule="evenodd"><path fill="#009af4" d="M-80 0h720v240H-80z"/><path fill="#1c8f31" d="M-80 360h720v120H-80z"/><path fill="#efef00" d="M-80 240h720v120H-80z"/><path fill="#ffda00" d="M574.01 167.125L539.14 147.9l20.725 33.987-28.692-27.597 11.22 38.207-20.58-34.084.958 39.795-11.055-38.246-9.38 38.69-.774-39.803-19.08 34.944 9.555-38.652-27.473 28.827 19.225-34.87-33.987 20.726 27.588-28.69-38.197 11.218 34.083-20.58-39.795.958 38.245-11.054-38.69-9.38 39.804-.784-34.945-19.07 38.64 9.554-28.816-27.474 34.867 19.228-20.724-33.992 28.692 27.595-11.22-38.198 20.58 34.083-.958-39.8 11.055 38.246 9.38-38.69.774 39.804 19.078-34.946-9.554 38.65 27.472-28.817-19.224 34.86 33.986-20.725-27.588 28.695 38.197-11.22-34.083 20.58 39.795-.957-38.247 11.054 38.69 9.38-39.803.774 34.944 19.08-38.642-9.554z"/><path d="M541.237 120.825c0 16.77-13.594 30.363-30.363 30.363s-30.362-13.594-30.362-30.363 13.594-30.362 30.362-30.362 30.363 13.593 30.363 30.362z" fill="#0098f6"/><path d="M535.32 120.773c0 13.67-10.93 24.754-24.415 24.754s-24.414-11.083-24.414-24.754 10.932-24.755 24.415-24.755 24.414 11.083 24.414 24.755z" fill="#ffd900"/></g></svg>