<svg xmlns="http://www.w3.org/2000/svg" height="480" width="640"><defs><clipPath id="a"><path fill-opacity=".67" d="M-85.333 0h682.67v512h-682.67z"/></clipPath></defs><g clip-path="url(#a)" fill-rule="evenodd"><path fill="#199d00" d="M-40 0h720v480H-40z"/><path d="M141.444 136.06c-.83 11.213-1.83 30.947 7.7 32.97 11.524 1.11 5.17-19.504 9.34-23.242.79-1.847 2.243-1.857 2.363.473v17.486c-.105 5.686 3.633 7.36 6.537 8.536 3.022-.234 5.04-.133 6.223 2.808l1.418 30.244s7.008 2.006 7.342-17.012c.335-11.166-2.23-20.513-.726-22.685.054-2.135 2.78-2.262 4.67-1.222 3.013 2.125 4.355 4.75 9.036 3.7 7.124-1.963 11.406-5.428 11.51-10.9-.416-5.197-.998-10.395-3.25-15.594.314-.944-1.376-3.393-1.062-4.34 1.28 2.006 3.228 1.84 3.67 0-1.21-3.994-3.092-7.822-6.142-9.48-2.52-2.22-6.21-1.766-7.56 2.865-.626 5.337 1.923 11.677 5.81 16.845.825 2.02 1.984 5.376 1.474 8.397-2.068 1.18-4.136.688-5.868-1.14 0 0-5.67-4.253-5.67-5.198 1.505-9.635.334-10.727-.5-13.4-.583-3.692-2.334-4.875-3.753-7.396-1.418-1.503-3.337-1.503-4.254 0-2.505 4.345-1.337 13.672.474 17.85 1.308 3.842 3.307 6.253 2.363 6.253-.778 2.17-2.386 1.67-3.556-.836-1.67-5.18-2.004-12.907-2.004-16.387-.5-4.315-1.052-13.518-3.892-15.856-1.732-2.36-4.3-1.21-5.197.944-.187 4.284-.206 8.566.276 12.512 1.948 6.922 2.56 13.01 3.504 20.097.263 9.494-5.49 4.12-5.227-.588 1.327-6.114.982-15.74-.196-18.178-.935-2.44-2.038-3.04-4.31-2.64-1.805-.11-6.45 4.96-7.752 13.37 0 0-1.112 4.33-1.586 8.173-.638 4.344-3.497 7.41-5.502-.61-1.733-5.83-2.8-20.18-5.7-16.818z" fill="#fff"/><path d="M172.76 182.072c-10.17 4.972-20.005 9.61-30.01 14.414.366-6.802 14.268-19.082 23.748-19.254 6.17.172 4.62 2.39 6.262 4.84z" fill="#fff"/><path d="M167.517 191.475c-15.815 40.77 37.036 46.45 42.943 1.67.556-1.837 2.785-3.676 3.174-.67-1.226 40.546-40.88 43.333-47.62 30.577-1.67-3.006-2.17-9.69-2.34-13.7-1-7.964-5.177-4.902-5.846 3.007-.67 4.4-.5 5.625-.5 9.858 2.115 32.024 53.19 18.268 61.487-8.187 4.4-14.648-.725-25.452 1.67-25.397 5.068 5.46 12.14.724 13.7-1.17.67-.946 2.34-1.558 3.51-.333 3.954 2.842 10.917 1.503 12.365-3.51.836-4.9 1.504-9.97 1.672-15.203-3.232 1.003-5.626 1.67-5.85 3.007l-.667 4.344c-.278 1.393-3.065 1.448-3.175-.335-1.225-5.57-6.294-6.293-9.357 2.34-2.06 1.67-5.792 2.006-6.183-.5.5-5.793-1.84-6.573-6.516-3.844-1.504-11.474-3.006-22.445-4.51-33.92 1.95-.055 3.732 1.393 5.514-.835-1.95-6.07-6.07-18.49-8.356-19.38-1.114-1.338-2.062-.503-3.51-.17-2.45.78-4.733 2.897-4.01 7.02 2.897 17.598 4.79 31.02 7.687 48.62.444 2.062-1.282 4.79-3.51 4.51-3.786-2.56-4.73-7.74-11.194-7.518-4.678.056-10.026 5.124-10.693 10.027-.78 3.897-1.06 8.13-.002 11.528 3.29 3.953 7.243 3.565 10.696 2.673 2.84-1.17 5.18-4.01 6.182-3.342.67.836.166 10.19-13.368 17.376-8.187 3.675-14.703 4.51-18.21-2.173-2.173-4.177.166-20.05-5.182-16.373z" fill="#fff"/><path d="M234.603 150.028c3.175-1.17 18.215-18.38 18.215-18.38-.78-.667-1.478-1.168-2.258-1.837-.836-.723-.752-1.447 0-2.17 3.73-2.173 2.534-6.935.586-9.107-3.23-1.448-6.044-.975-8.105.084-2.616 2.506-3.228 6.516-1.167 9.022 2.006.946 4.01 2.98 2.673 4.093-6.154 6.572-23.002 17.906-21.052 18.295.416.557 10.777.53 11.11 0z" fill="#fff"/><path d="M143.784 210.938c-5.64 8.985-6.13 22.41-3.02 26.41 1.654 1.892 4.372 2.72 6.38 2.128 3.545-1.537 5.096-8.717 4.255-11.343-1.184-1.85-2.115-2.144-3.296-.57-2.493 5.062-3.53 1.59-3.747-1.24-.383-5.365.122-10.307.705-14.22.62-4.01-.01-2.785-1.278-1.166z" fill="#fff"/><path d="M384.8 196.547c-5.454-11.74-13.003-23.338-15.405-27.794-2.402-4.458-20.536-30.775-23.205-33.735-5.89-7 9.566 2.915-1.956-10.984-4.393-3.77-4.648-3.998-8.294-7.073-1.84-1.304-6.33-3.69-7.126.263-.4 3.484-.183 5.374.402 8.275.45 1.934 3.267 5.174 4.652 7.05 18.4 24.732 34.713 49.707 50.445 81.108 2.484-1.18 1.94-15.145.488-17.11z" fill="#fff"/><path d="M360.866 235.82c-1.073 1.203 2.647 6.35 7.48 6.346 8.086-.938 15.203-5.48 21.792-17.433 1.763-2.788 4.86-8.75 4.95-13.376.617-27.117-1.357-48.218-5.42-67.817-.26-1.91-.1-4.154.222-4.726.523-.625 2.3.002 3.24-1.542 1.382-1.41-3.67-13.097-6.548-17.598-1.023-2.01-1.38-3.35-3.072.237-1.78 2.917-2.976 8.006-2.836 12.76 3.857 26.703 5.042 50.06 7.562 76.764.205 2.583-.174 6.335-1.89 7.83-6.35 6.63-15.514 14.792-25.48 18.555z" fill="#fff"/><path d="M470.075 235.678c-5.802 3.354-5.81 7.212-1.118 7.35 8.085-.937 17.638-1.61 24.226-11.557 1.763-2.787 3.857-10.326 3.948-14.95.618-27.118-.353-47.358-4.416-66.958-.26-1.91-1.105-6.303-.782-6.876.524-1.342 3.16.146 4.1-1.398 1.383-1.41-6.822-11.95-9.7-16.45-1.024-2.01-1.38-3.353-3.072.235-1.78 2.916-2.403 8.148-1.69 12.76 4.287 28.995 7.478 50.778 8.136 76.477-.37 2.44-.46 3.754-1.605 6.827-2.53 3.244-5.332 7.3-7.96 9.26-2.63 1.96-8.236 3.83-10.065 5.282z" fill="#fff"/><path d="M474.425 209.68c-.067-6.78.096-12.635-.128-17.692-.222-5.058-1.116-9.176-2.867-12.766-1.656-3.85-.628-6.943-1.406-11.043-.777-4.1-.585-10.238-1.76-15.102-.322-1.9-1.31-7.983-1.004-8.566.48-1.358 2.303.042 3.194-1.53 1.334-1.456-4.628-16.884-7.653-21.29-1.087-1.974-3.062-1.298-5.497 1.914-2.258 2.113-1.42 6.933-.558 11.518 5.8 30.273 10.128 57.673 9.183 86.49-.29 2.45 8.557-7.307 8.497-11.932z" fill="#fff"/><path d="M431.563 172.134c-3.65-.066-11.292-7.1-13.522-11.22-.842-2.365-.3-4.67.442-6.022 1.35-.88 3.43-1.866 4.983-.92 0 0 1.61 2.255 1.3 2.542 1.992.954 2.838.405 3.04-.406.136-1.418-.59-2.264-.597-3.827.845-4.237 5.69-4.896 7.513-2.193 1.336 1.648 1.826 5.148 2.028 7.512-.02 1.207-1.977-.21-3.088.08-1.112.292-1.38 1.574-1.465 2.734-.2 3.073-.565 8.004-.633 11.72z" fill="#fff"/><path d="M364.222 217.2c1.005-9.214-.372-25.623-.464-31.06-.368-12.843-2.466-37.65-3.465-41.796-1.125-7.812 3.214.857 2.613-3.684-1.407-7.802-5.734-13.09-10.82-20.236-1.64-2.324-1.586-2.798-4.118.57-2.802 6.358-.383 10.73.34 15.68 3.67 16.132 5.81 30.973 6.806 45.645.997 14.672 1.302 30.535.393 45.988 2.75.108 7.17-4.447 8.715-11.108z" fill="#fff"/><path d="M486.847 202.444c-6.434-10.796-16.143-22.488-18.737-26.835-2.593-4.35-24.53-32.654-27.326-35.495-8.026-8.43 3.68-1.372-1.537-7.884-4.412-4.844-5.7-6.365-9.476-9.28-1.893-1.223-3.04-3.56-3.662.423-.248 3.5-.506 7.547-.27 10.496-.015 1.638 1.692 4.718 3.158 6.533 19.458 23.906 40.68 48.316 57.766 79.002 2.43-1.288 1.623-15.062.085-16.96z" fill="#fff"/><path d="M194.928 182.522c-.463.812-1.494 1.864-1.148 2.952.722.98 1.3 1.178 2.503 1.23 1.044 0 2.503.248 2.817-.37.562-.618.99-1.882.52-3.075-1.087-2.72-4.124-1.706-4.692-.738z" fill="#1ba400"/><path d="M412.034 339.88c8.604.318 14.236.394 21.89 1.305 0 0 6.598-.653 8.955-1.01 9.96-.95 10.402 14.23 10.402 14.23-.11 8.9-3.545 9.366-7.932 10.307-2.506.32-3.823-1.5-5.14-3.44-1.653.693-3.9.792-6.623.415-3.585-.225-7.17-.21-10.756-.435-3.808-.335-5.835.397-9.644.06-.785 1.234-1.805 2.94-4.135 2.39-1.938-.212-4.234-5.654-3.557-9.79 1.4-2.967 1.015-2.013.87-3.317-35.18-.896-70.697-2.464-105.208-2.016-27 .11-53.666 1.23-80.33 2.352-14.23-.225-25.097-2.466-32.604-13.445.674 0 36.3 2.017 46.722 1.344 19.27-.223 36.86-1.79 56.466-2.35 38.653.67 76.972.67 115.622 3.36-3.697-2.53-3.83-8.505 1.86-9.965.485-.333.734 2.97 1.586 2.908 4.552-.34 2.556 5.826 1.555 7.098z" fill="#fff"/><path d="M256.85 126.825c-5.858 16.743 3.356 35.057 9.744 33.274 4.61 1.907 7.544-6.86 9.43-16.467 1.292-2.695 2.267-2.983 2.93-1.597-.17 12.773.917 15.603 4.2 19.48 7.327 5.652 13.387.722 13.862.246l5.704-5.704c1.27-1.335 2.96-1.414 4.753-.237 1.743 1.585 1.498 4.32 5.23 6.22 3.14 1.255 9.852.29 11.407-2.416 2.093-3.587 2.596-4.82 3.565-6.18 1.494-1.988 4.04-1.104 4.04-.476-.237 1.11-1.732 2.22-.712 4.216 1.776 1.333 2.187.475 3.238.18 3.717-1.777 6.508-9.86 6.508-9.86.164-3.01-1.52-2.76-2.615-2.14-1.426.87-1.52 1.15-2.945 2.022-1.817.27-5.342 1.474-7.085-1.224-1.78-3.245-1.804-7.77-3.164-11.044 0-.238-2.362-5.155-.165-5.47 1.11.207 3.475.833 3.85-1.16 1.164-1.94-2.49-7.44-4.99-10.22-2.17-2.38-5.177-2.67-8.08-.236-2.033 1.87-1.74 3.96-2.14 5.94-.517 2.276-.407 5.074 1.902 8.082 2.03 4 5.73 9.153 4.516 16.398 0 0-2.163 3.425-5.93 2.977-1.57-.344-4.118-1.01-5.48-11.058-1.028-7.606.244-18.247-2.984-23.235-1.167-3.012-2.018-5.92-4.86-.77-.763 2.024-4.04 5.094-1.662 11.41 1.943 4.003 2.735 10.52 1.853 17.768-1.346 2.06-1.645 2.758-3.41 4.818-2.482 2.668-5.174 1.987-7.236.99-1.927-1.297-3.435-1.97-4.315-6.094.158-6.576.525-17.34-.677-19.622-1.772-3.536-4.694-2.257-5.942-1.19-5.997 5.484-8.96 14.737-10.77 22.104-1.664 5.37-3.433 3.83-4.678 1.665-3.03-2.84-3.234-25.04-6.892-21.39z" fill="#fff"/><path d="M274.484 163.22c2.66-1.885 1.417-3.202 5.395.775 4.98 8.515 8.18 19.542 8.66 29.312-.21 2.407 1.487 3.93 2.263 3.408.462-5.652 14.206-13.528 26.81-14.68 1.926-.418.99-4.11 1.303-5.995-.755-6.997 3.932-13.367 10.502-13.875 8.942 1.322 11.92 6.096 12.07 13.383-.966 13.99-15.54 16.36-23.728 17.477-1.256.475-1.78 1.054 0 1.74l34.308.155 1.75 1.01c.21.82-.5.137-1.854 2.367s-3.35 7.373-3.455 10.808c-10.222 3.287-20.794 4.727-31.54 6.026-3.733 1.89-5.583 4.405-4.817 7.236 1.256 3.14 9.525 6.277 9.525 6.426 1.57.985 3.428 3.283-.444 7.993-16.735-.737-29.703-7.86-34.193-17.91-1.35-1.05-2.808-.006-3.742 1.352-6.534 8.422-12.962 16.007-24.1 20.034-6.644 1.66-13.444-1.018-16.656-5.37-2.15-2.475-2.068-5.208-2.858-5.8-3.59 1.587-34.486 14.715-30.57 8.6 7.52-8.048 20.537-13.96 32.034-21.903.83-2.66 2.338-11.665 6.88-14.597.26.022-.72 5.287-.623 7.508.052 1.823-.133 2.537.266 2.068.777-.495 14.726-11.456 15.804-14.818 1.36-1.927.408-6.81.408-6.957-2.616-6.74-6.285-7.314-7.646-10.664-1.225-4.45-.67-9.53 1.874-10.945 2.258-2.05 4.933-1.796 7.4.445 2.82 2.524 5.32 7.456 6.045 11.13-.484 1.453-3.687-.966-4.8-.245 1.968 2.037 2.887 4.386 3.597 7.26 1.817 7.697 1.263 10.69-.566 15.665-6.194 13.022-14.11 16.908-21.034 21.732-.185.066-.308 3.305 2.297 5.056.897.943 4.51 1.426 8.757.066 8.207-4.477 16.728-12.722 20.958-21.908 1.228-6.948-.475-14.315-2.282-20.74-2.722-6.28-5.927-15.247-5.927-15.395-.106-3.916.213-5.274 1.93-7.228z" fill="#fff"/><path d="M184.662 127.003c3.95 1.883 11.373 1.082 11.06-5.285 0-.563-.144-2.468-.2-2.984-.806-1.877-3.006-1.414-3.504.524-.157.635.28 1.668-.295 1.988-.33.333-1.592.137-1.54-1.622 0-.56-.413-1.163-.66-1.518-.25-.164-.41-.21-.86-.21-.552.023-.543.166-.845.63-.128.47-.305.93-.305 1.465-.07.627-.305.85-.765.942-.515 0-.4.057-.816-.21-.248-.27-.557-.373-.557-.836 0-.48-.11-1.254-.253-1.57-.22-.288-.57-.422-.966-.524-2.157.008-2.306 2.468-2.182 3.402-.16.176-.253 4.588 2.688 5.81z" fill="#fff"/><path d="M300.416 175.997c3.948 1.883 13.348.8 11.058-5.285 0-.563-.143-2.47-.2-2.984-.805-1.878-3.004-1.414-3.503.524-.155.635.28 1.668-.294 1.988-.33.332-1.59.137-1.54-1.622 0-.56-.412-1.163-.66-1.518-.25-.164-.41-.21-.86-.21-.552.023-.543.166-.845.63-.127.47-.304.93-.304 1.465-.07.626-.305.85-.765.94-.514 0-.398.058-.815-.208-.248-.27-.557-.374-.557-.837 0-.48-.11-1.254-.253-1.57-.22-.29-.57-.422-.966-.524-2.157.008-2.306 2.468-2.183 3.4-.16.177-.253 4.59 2.688 5.81z" fill="#fff"/><path d="M367.916 155.72c3.948 1.882 11.372 1.08 11.058-5.286 0-.564-.143-2.47-.2-2.985-.805-1.878-3.004-1.414-3.503.524-.155.635.28 1.668-.294 1.987-.33.334-1.59.14-1.54-1.62 0-.56-.412-1.163-.66-1.518-.25-.164-.41-.21-.86-.21-.552.023-.543.166-.845.63-.127.47-.304.93-.304 1.464-.07.627-.305.85-.765.942-.514 0-.398.057-.815-.21-.248-.27-.557-.373-.557-.836 0-.48-.11-1.254-.253-1.57-.22-.29-.57-.422-.966-.524-2.157.008-2.306 2.468-2.183 3.4-.16.177-.253 4.59 2.688 5.81z" fill="#fff"/><path d="M402.875 206.653c-6.882 7.756-3.847 20.583-2.293 23.347 2.27 4.54 4.096 7.45 8.51 9.695 4.022 2.96 7.156 1.11 8.883-.962 4.046-4.194 4.095-14.9 5.994-17.023 1.33-3.897 4.686-3.232 6.315-1.504 1.578 2.27 3.437 3.732 5.755 4.966 3.775 3.33 8.282 3.94 12.722.904 3.034-1.702 5.007-3.9 6.784-8.267 1.974-5.28.874-29.67.48-44.127-.153-1.135-3.924-19.88-3.924-20.09 0-.21-.498-9.566-.913-11.796-.074-.904-.298-1.165.65-1.05 1.005.846 1.143.9 1.77 1.178 1.016.186 1.924-1.54 1.312-3.13l-9.42-17.376c-.756-.745-1.732-1.563-2.93.21-1.147 1.003-2.367 2.822-2.33 5.158.28 4.118 1.003 8.307 1.282 12.425l3.77 21.143c1.185 15.07 1.482 27.405 2.668 42.477-.166 6.38-2.15 11.945-4.01 12.748 0 0-2.832 1.642-4.73-.17-1.38-.555-6.908-9.21-6.908-9.21-2.825-2.592-4.688-1.85-6.7 0-5.543 5.353-8.052 15.368-11.82 22.277-.97 1.54-3.717 2.86-6.76-.113-7.726-10.555-3.198-25.573-4.16-21.71z" fill="#fff"/><path d="M369.688 118.753c3.537 1.48 6.033 8.647 5.22 12.145-.706 4.33-2.582 9.003-3.93 8.395-1.467-.544 1-4.302-.41-8.247-.783-2.567-5.61-7.257-5.102-8.64-.997-2.896 2.052-4.164 4.222-3.653z" fill="#fff"/><path d="M414.266 210.9c.744-8.605-.512-13.852-.736-18.91-.222-5.058-5.72-43.65-6.835-47.476-1.345-7.236 5.344-.97 4.614-5.18-2.316-5.304-8.075-13.03-9.884-17.64-1.087-1.974-.63-3.73-3.066-.52-2.258 7.385-3.042 13.42-2.18 18.006 5.8 30.273 11.75 55.444 10.806 84.262 2.75.018 5.92-6.295 7.28-12.54z" fill="#fff"/><path d="M474.706 130.95c3.225 1.603 5.114 10.583 4.758 13.15-.64 4.686-2.352 9.747-3.582 9.087-1.336-.588.268-6.95-.374-8.927-.713-2.78-5.113-7.857-4.65-9.354-.91-3.136 1.87-4.508 3.848-3.956z" fill="#fff"/><path d="M235.016 194.625c3.084 1.178 4.893 7.777 4.552 9.663-.615 3.443-2.252 7.16-3.427 6.677-1.278-.432.257-5.107-.357-6.56-.26-3.525-4.542-5.35-4.452-6.873-.798-2.8 1.792-3.314 3.686-2.907z" fill="#fff"/><path d="M309.556 204.534c3.982.253 5.97 3.377 2.242 4.688-3.68 1.26-7.214 2.243-7.23 7.56 1.36 7.408-1.867 4.866-3.792 3.86-2.268-1.63-8.633-5.55-9.54-14.016-.136-2.02 1.44-3.72 3.975-3.71 3.82 1.04 9.458 1.115 14.346 1.62z" fill="#1b9d00"/><path d="M152.562 116.616c4.55 1.372 4.82 8.062 4.484 10.018-.606 3.57-2.218 7.424-3.376 6.922-1.26-.448-.05-5.294-.655-6.8-.674-2.118-4.52-5.986-4.084-7.126-.855-2.39 1.766-3.436 3.632-3.014z" fill="#fff"/><path d="M242.45 148.153c-3.492 1.89-4.847 7.52-2.673 10.798 2.03 2.89 5.24 1.818 5.667 1.818 3.42.428 5.45-6.414 5.45-6.414s.11-1.924-3.954 1.712c-1.71.32-1.924-.322-2.352-1.284-.356-1.782-.285-3.563.535-5.345.605-1.71-.714-2.46-2.673-1.283z" fill="#fff"/><path d="M268.644 114.028c-1.756 1.177-5.25 4.796-5.355 8.965-.107 2.352-.546 2.346.995 3.843 1.112 1.604 2.235 1.46 4.48.283 1.29-.95 1.727-1.582 2.16-3.176.536-2.672-2.824 1.268-3.252-1.707-.748-2.76 1.41-3.89 3.44-6.564.07-1.83.03-3.127-2.47-1.645z" fill="#fff"/><path d="M289.747 117.778c-.757 1.67-1.663 10.4-1.513 10.4-.603 2.6 2.722 3.714 4.235.37 2.266-6.128 2.266-8.728 2.418-11.328-.707-3.96-3.377-3.837-5.14.558z" fill="#fff"/><path d="M422.797 185.484c.454-.453 18.748-13.456 18.748-13.456 1.865-.655 1.46 6.703.605 6.653.352 1.462-18.042 13.96-19.354 13.457-.907.655-1.814-5.04 0-6.653z" fill="#fff"/><path d="M439.475 185.372c3.225 1.603 4.51 11.037 4.153 13.603.114 4.99-3.108 8.99-4.338 8.332-1.336-.588.117-6.194-.524-8.17-.713-2.78-3.452-8.01-2.99-9.507-.908-3.136 1.72-4.81 3.7-4.258z" fill="#fff"/><path d="M330.66 226.003c1.272-1.86 5.202-4.536 5.29-4.536 1.815-.908 3.586.71 3.48.605.3 1.814-1.15 3.502-.695 5.922.397.976.687 2.06 2.474 1.645 2.904-2.286 5.595-2.433 8.5-2.58 2.226.135 2.314 3.904.907 3.932-5.364 1.166-7.768 2.602-11.597 4.064-1.815 1.058-3.37-.284-3.37-.435s-1.063-1.03-.322-3.432c.132-1.928-.644-2.985-2.25-2.766-1.21.654-2.274 1.088-2.88-.303-.237-1.027-.315-1.527.46-2.117z" fill="#fff"/><path d="M458.722 231.084c.784.998 1.29 1.92-.063 3.56-1.284 1.176-2.188 1.823-3.47 3-.607 1.032-.994 2.6.86 3.1 3.42.96 11.332-4.17 11.332-4.278 1.283-.96.855-2.78.748-2.78-.748-.854-2.434-.346-3.568-.484-.54 0-2.31-.27-1.468-1.836.704-.975.955-1.572 1.432-2.774.535-1.176.076-1.96-1.85-2.602-1.96-.356-2.742-.178-4.916 0-1.176.25-1.577.775-1.79 2.2.083 2.162 1.398 2.04 2.752 2.894z" fill="#fff"/><path d="M331.456 177.782c-.503.868-2.2.827-3.79-.092s-2.474-2.367-1.972-3.235 2.2-.827 3.79.09 2.474 2.37 1.972 3.237z" fill="#259f00"/><path d="M247.978 127.644c-.95.233-2.194-.614-2.777-1.89s-.284-2.504.667-2.737 2.195.614 2.778 1.892.284 2.5-.667 2.734z" fill="#259f00"/><path d="M413.038 351.534c8.766.428 17.003.1 25.77.528 1.587 1.35.453 4.665-.605 4.427-2.85-.073-4.493-.144-7.344-.215-.098-2.793-7.225-2.334-7.02.09-3.848.46-7.32-.136-11.167-.278-1.138-1.417-.992-3.967.365-4.553z" fill="#209000"/></g></svg>