<svg xmlns="http://www.w3.org/2000/svg" height="480" width="640"><defs><clipPath id="a"><path fill-opacity=".67" d="M0 0h682.67v512H0z"/></clipPath></defs><g fill-rule="evenodd" clip-path="url(#a)"><path d="M0 475.472L925.716 0H0v475.472z" fill="#0000d6"/><path d="M960 0L25.472 480H960V0z" fill="#006000"/><path d="M960 0h-51.43L.003 455.025V480H51.43L960 25.875V.005z" fill="#fc0"/><path fill="#fff" d="M66.83 8.502l11.112 32.275 36.053-.024L84.81 60.67l11.166 32.26-29.15-19.964-29.15 19.96L48.847 60.67l-29.18-19.926 36.052.033z"/><path fill="#fff" d="M246.027 8.502l11.11 32.275 36.054-.024-29.185 19.917 11.167 32.26-29.15-19.964-29.15 19.96 11.172-32.256-29.18-19.926 36.052.033z"/><path fill="#fff" d="M246.027 143.95l11.11 32.276 36.054-.024-29.185 19.917 11.167 32.26-29.15-19.965-29.15 19.96 11.172-32.256-29.18-19.927 36.052.033z"/><path fill="#fff" d="M156.953 77.016l11.11 32.275 36.054-.023-29.186 19.917 11.168 32.26-29.15-19.964-29.15 19.96 11.172-32.256-29.18-19.926 36.052.033z"/><path fill="#fff" d="M66.83 143.95l11.112 32.276 36.053-.024L84.81 196.12l11.166 32.26-29.15-19.965-29.15 19.96 11.172-32.256-29.18-19.927 36.052.033z"/></g></svg>