<svg xmlns="http://www.w3.org/2000/svg" height="480" width="640"><defs><clipPath id="a"><path fill-opacity=".67" d="M-15.067 0h682.67v512h-682.67z"/></clipPath></defs><g fill-rule="evenodd" clip-path="url(#a)"><path fill="#fff" d="M-44 0h960v480H-44z"/><path fill="#de2918" d="M-44 319.997h960V480H-44z"/><path fill="#08399c" d="M-44 160.003h960v160.003H-44z"/><path d="M228.222 87.165c-3.768 57.798-5.927 89.47-14.727 104.128-9.516 15.74-18.774 27.264-55.903 41.14-37.135-13.885-46.388-25.407-55.906-41.147-8.8-14.653-10.96-46.322-14.728-104.12l5.488-1.847c11.046-3.37 19.288-6.08 25.384-7.282 8.73-1.848 16.152-3.938 39.616-4.428 23.465.404 30.922 2.623 39.653 4.47 6.045 1.29 14.64 3.827 25.604 7.26l5.516 1.827z" fill="#de2918"/><path d="M222.813 85.27c-3.565 57.673-6.547 84.085-11.197 96.788-9.025 21.743-23.312 33.665-54.06 45.035-30.75-11.38-45.04-23.306-54.06-45.046-4.652-12.694-7.59-39.038-11.052-96.844 10.813-3.377 19.29-6.017 25.387-7.22 8.732-1.848 16.153-4.025 39.617-4.428 23.465.404 30.972 2.58 39.703 4.428 6.097 1.203 14.75 3.842 25.663 7.278z" fill="#08399c"/><path d="M157.525 102.928l1.474 3.49 6.478.888-4.198 2.53 4.06 2.715-5.905.99-1.797 3.163-2.02-3.257-5.62-.798 3.824-2.772-3.938-2.523 6.22-.954 1.42-3.472z" fill="#fc0"/><path d="M209.387 168.394l-3.59-2.84-2.596-4.27-5.083-4.408-2.65-4.457-5.082-4.55-2.487-4.455-2.703-2.182-1.785-1.717-4.592 4.027-2.503 4.373-3.12 2.828-3.425-2.677-2.59-4.562-9.618-17.078-9.618 17.078-2.59 4.562-3.426 2.677-3.12-2.828-2.502-4.373-4.593-4.027-1.784 1.717-2.704 2.182-2.487 4.456-5.085 4.55-2.65 4.456-5.082 4.41-2.596 4.27-3.582 2.904c1.86 15.83 11.95 28.234 17.45 33.908 6.136 5.958 18.786 13.93 34.256 19.205 15.515-5.163 28.34-13.247 34.477-19.205 5.498-5.674 15.59-18.077 17.46-33.974z" fill="#fff"/><path d="M172.984 78.647l1.475 3.49 6.477.888-4.198 2.53 4.058 2.714-5.904.99-1.797 3.16-2.02-3.255-5.62-.798 3.825-2.772-3.938-2.523 6.22-.954 1.42-3.47z" fill="#fc0"/><path d="M142.066 78.594l1.474 3.49 6.478.888-4.198 2.532 4.06 2.713-5.905.99-1.796 3.162-2.022-3.258-5.62-.797 3.825-2.773-3.938-2.523 6.22-.954 1.42-3.472z" fill="#fc0"/><path d="M201.363 190.34l-7.002.022-6.46-.48-7.826-3.84-8.82.054-7.64 3.732-6.026.533-6.026-.532-7.64-3.732-8.82-.053-7.826 3.838-6.46.482-7.09-.098-3.424-5.8.127-.132 10.472 1.732 6.46-.48 7.827-3.84 8.82.054 7.64 3.732 6.025.533 6.026-.533 7.64-3.732 8.82-.053 7.827 3.838 6.46.48 10.196-1.786.135.268-3.415 5.796z" fill="#08399c"/><path d="M120.297 199.256l6.93-.48 7.827-3.84 8.82.054 7.64 3.733 6.026.532 6.026-.532 7.64-3.733 8.82-.053 7.826 3.84 7.025.48 4.533-5.588-.153-.127-4.856 1.415-6.46-.48-7.826-3.84-8.82.054-7.64 3.733-6.026.532-6.026-.532-7.64-3.733-8.82-.053-7.826 3.838-6.46.48-4.76-1.2-.058.234 4.26 5.264z" fill="#08399c"/></g></svg>