<svg xmlns="http://www.w3.org/2000/svg" height="480" width="640" version="1"><defs><clipPath id="a"><path fill-opacity=".67" d="M-26.334 0h682.67v512h-682.67z"/></clipPath></defs><g fill-rule="evenodd" clip-path="url(#a)"><path fill="#fff" d="M-40 0h720v480H-40z"/><path fill="#01017e" d="M-40 160.003h720V480H-40z"/><path fill="#fe0101" d="M-40 319.997h720V480H-40z"/><path d="M85.378 108.937v134.597c9.22 52.548 33.65 106.022 116.156 133.21 82.05-27.196 108.32-78.362 118.003-134.138V108.928H85.377z" fill="#fff"/><path d="M94.596 119.54v117.544c8.297 42.868 24.43 101.41 106.94 128.607 82.05-27.195 100.95-85.736 108.32-128.606V119.54H94.596z" fill="#fe0101"/><path d="M214.447 190.528v18.9h37.798c5.068 0 9.834-2.46 14.75-3.69v35.494c-5.07-1.076-10.026-3.226-15.21-3.226h-36.876v43.33l-25.354-.923v-42.407h-35.953c-5.404 0-10.448 2.766-15.672 4.148v-37.797c4.917 1.536 9.6 4.61 14.75 4.61h36.877v-18.9H162.36c-4.765 0-8.91 3.38-13.367 5.07v-35.952c5.07 2.15 9.703 6.453 15.212 6.453h25.813v-16.134c0-7.535-4.302-14.443-6.454-21.664h36.415c-1.845 7.375-5.532 14.523-5.532 22.126v15.672h24.43c6.374 0 12.292-3.38 18.44-5.07v35.493c-5.533-1.843-10.766-5.53-16.596-5.53H214.45z" fill="#fff"/><path d="M167.89 286.406c-21.664-10.833-42.36-4.783-52.26 12.56 15.386 29.386 44.656 53.125 85.91 66.723 41.026-13.6 70.872-37.338 87.235-65.34-12.747-24.32-36.99-21.09-52.663-13.483-11.062-27.195-56.236-25.813-68.22-.46z" fill="#01017e"/></g></svg>