<svg xmlns="http://www.w3.org/2000/svg" height="480" width="640"><defs><clipPath id="a"><path fill-opacity=".67" d="M0 0h682.67v512H0z"/></clipPath></defs><g clip-path="url(#a)" fill-rule="evenodd"><path fill="#ff0" d="M0 0h960v472.78H0z"/><path fill="#009d00" d="M0 0h960v137.147H0z"/><path fill="#009d00" d="M0 342.853h960V480H0z"/><path d="M.664 0c1.328 0 239.334 237.216 239.334 237.216L-.002 480 .662 0z" fill="#f10600"/><g><path d="M386.18 251.573l-29.982-22.38 37.044.037 11.417-36.25 11.416 36.25 37.044-.027-29.99 22.37 11.476 36.234-29.952-22.424-29.952 22.42z"/><path d="M201.66 251.573l-29.984-22.38 37.044.037 11.417-36.25 11.417 36.25 37.044-.027-29.99 22.37 11.476 36.234-29.952-22.424-29.952 22.42z"/></g></g></svg>