<svg xmlns="http://www.w3.org/2000/svg" height="480" width="640"><defs><clipPath id="a"><path fill-opacity=".67" d="M0 0h640v480H0z"/></clipPath></defs><g clip-path="url(#a)"><path fill-rule="evenodd" fill="#5387f4" d="M-79.43 318.86h798.86V480H-79.43z"/><path fill-rule="evenodd" fill="#5387f4" d="M-79.43 0h798.86v161.14H-79.43z"/><path fill-rule="evenodd" fill="#fff" d="M-79.43 161.14h798.86v157.71H-79.43z"/><g><g stroke="#000" fill-rule="evenodd"><g><path d="M253.588 197.266c-.517.81-.294 1.868.498 2.364s1.855.242 2.372-.567c.518-.81.295-1.868-.498-2.364s-1.854-.243-2.372.566z" fill="#f00"/><path d="M259.526 201.923c-.517.81-.294 1.868.498 2.364s1.855.242 2.372-.567c.518-.81.295-1.868-.498-2.364s-1.854-.242-2.372.567z" fill="#f00"/><path d="M290.22 178.124s-65.49 28.8-54.256 88.185c11.232 59.384 47.644 58.955 61.9 65.506 14.255 6.55 24.074 15.937 29.712 14.618 5.637-1.32 13.098-5.76 13.098-5.76s.565 9.754-10.908 11.54c-11.473 1.784-26.492-15.373-33.726-17.276s-51.67-6.785-62.296-67.21c-12.42-64.5 56.065-87.71 56.475-89.604z" fill="#006700"/><path d="M257.613 190.95c-1.196 4.904-1.203 8.95-.016 9.036s3.12-3.82 4.316-8.726c1.197-4.906 1.204-8.952.017-9.038s-3.12 3.82-4.317 8.727z" fill="#006700"/><path d="M259.635 191.304c-2.273 4.667-3.246 8.774-2.174 9.175s3.787-3.06 6.06-7.725c2.274-4.666 3.247-8.774 2.174-9.174s-3.786 3.058-6.06 7.724z" fill="#006700"/><path d="M266.343 195.604c-4.607 1.376-8.248 3.5-8.134 4.745s3.94 1.137 8.547-.24c4.606-1.375 8.248-3.5 8.133-4.744s-3.94-1.138-8.547.238z" fill="#006700"/><path d="M265.54 193.24c-4.187 2.87-7.164 6.045-6.65 7.09s4.328-.438 8.516-3.31c4.187-2.87 7.165-6.045 6.65-7.09s-4.328.437-8.515 3.31z" fill="#006700"/><path d="M262.357 191.982c-3.59 3.77-5.862 7.485-5.075 8.3s4.335-1.578 7.924-5.347c3.59-3.77 5.86-7.485 5.075-8.3s-4.334 1.578-7.923 5.347z" fill="#006700"/><path d="M235.88 220.257c-.3.91.18 1.882 1.07 2.17s1.857-.216 2.157-1.127c.3-.91-.18-1.882-1.07-2.17s-1.856.216-2.156 1.127z" fill="#f00"/><path d="M242.795 223.33c-.3.91.178 1.88 1.07 2.17s1.856-.217 2.156-1.128c.3-.91-.178-1.882-1.07-2.17s-1.855.216-2.155 1.127z" fill="#f00"/><path d="M237.605 207.248c-.12 7.538 1.14 13.312 2.814 12.897s3.127-6.862 3.246-14.4c.12-7.538-1.14-13.312-2.814-12.897s-3.127 6.862-3.247 14.4z" fill="#006700"/><path d="M241.145 207.13c-1.615 7.718-1.614 14.043.003 14.13s4.236-6.102 5.85-13.82c1.617-7.716 1.615-14.042 0-14.128s-4.238 6.1-5.853 13.818z" fill="#006700"/><path d="M251.394 210.235c-5.983 4.068-10.38 8.77-9.822 10.5s5.86-.163 11.842-4.23c5.983-4.07 10.38-8.77 9.822-10.5s-5.86.162-11.842 4.23z" fill="#006700"/><path d="M249.372 207.454c-4.905 6.043-8.024 11.96-6.965 13.22s5.894-2.62 10.8-8.66c4.905-6.043 8.023-11.962 6.964-13.22s-5.892 2.618-10.798 8.66z" fill="#006700"/><path d="M245.21 206.953c-3.71 7.06-5.615 13.443-4.256 14.258s5.468-4.245 9.176-11.304c3.71-7.06 5.615-13.443 4.256-14.26s-5.468 4.248-9.177 11.307z" fill="#006700"/><path d="M227.36 234.748c1.257 7.478 3.54 12.95 5.1 12.22s1.804-7.384.548-14.862c-1.257-7.478-3.54-12.948-5.098-12.22s-1.805 7.385-.55 14.862z" fill="#006700"/><path d="M230.04 234.13c-.24 7.956.865 14.22 2.467 13.992s3.095-6.865 3.334-14.82c.24-7.958-.864-14.222-2.467-13.993s-3.095 6.863-3.334 14.82z" fill="#006700"/><path d="M241.16 235.185c-5.086 5.205-8.512 10.723-7.654 12.325s5.677-1.318 10.762-6.522c5.085-5.205 8.51-10.723 7.653-12.325s-5.676 1.318-10.76 6.522z" fill="#006700"/><path d="M238.605 232.658c-3.71 6.94-5.696 13.412-4.437 14.456s5.287-3.735 8.996-10.674c3.71-6.94 5.695-13.412 4.436-14.456s-5.286 3.735-8.995 10.674z" fill="#006700"/><path d="M234.195 233.123c-2.393 7.717-3.138 14.414-1.665 14.958s4.608-5.27 7-12.988c2.394-7.718 3.14-14.414 1.666-14.958s-4.608 5.272-7 12.99z" fill="#006700"/><path d="M225.986 265.654c3.95 6.4 8.077 10.5 9.222 9.155s-1.13-7.625-5.077-14.026c-3.948-6.4-8.076-10.5-9.22-9.155s1.128 7.623 5.076 14.024z" fill="#006700"/><path d="M228.78 263.225c2.81 7.418 6.192 12.713 7.552 11.826s.18-7.62-2.63-15.037c-2.813-7.418-6.193-12.713-7.553-11.826s-.182 7.62 2.63 15.038z" fill="#006700"/><path d="M239.07 260.127c-2.63 7-3.64 13.59-2.253 14.72s4.647-3.628 7.28-10.627c2.63-7 3.64-13.59 2.253-14.72s-4.647 3.628-7.28 10.627z" fill="#006700"/><path d="M236.022 259.088c-.718 8.017-.06 14.863 1.472 15.292s3.353-5.722 4.07-13.738c.72-8.016.06-14.863-1.47-15.292s-3.354 5.722-4.072 13.738z" fill="#006700"/><path d="M232.346 260.76c.778 8.137 2.65 14.64 4.18 14.526s2.14-6.803 1.363-14.94c-.78-8.135-2.65-14.638-4.18-14.523s-2.142 6.802-1.364 14.938z" fill="#006700"/><path d="M234.756 297.03c6.46 5.625 12.36 8.64 13.175 6.738s-3.76-8.004-10.22-13.627c-6.462-5.622-12.36-8.638-13.176-6.736s3.76 8.004 10.222 13.627z" fill="#006700"/><path d="M287.005 176.54c-.578.312-.75.99-.383 1.516s1.132.7 1.71.388c.577-.31.748-.99.382-1.515s-1.132-.7-1.71-.39z" fill="#f00"/><path d="M289.48 181.027c-.577.31-.748.99-.382 1.515s1.132.7 1.71.388c.577-.31.748-.99.382-1.515s-1.132-.7-1.71-.388z" fill="#f00"/><path d="M236.72 293.682c5.503 7.18 10.94 11.792 12.14 10.305s-2.285-8.514-7.79-15.693c-5.503-7.18-10.938-11.792-12.14-10.304s2.286 8.513 7.79 15.692z" fill="#006700"/><path d="M246.662 286.015c-.658 8.674.34 16.298 2.228 17.027s3.953-5.71 4.61-14.385c.66-8.675-.338-16.298-2.227-17.028s-3.952 5.71-4.61 14.385z" fill="#006700"/><path d="M242.86 285.774c1.794 9.093 4.734 16.395 6.565 16.31s1.86-7.528.066-16.62c-1.794-9.094-4.733-16.396-6.564-16.31s-1.86 7.527-.066 16.62z" fill="#006700"/><path d="M239.524 289.796c3.47 8.734 7.616 15.246 9.26 14.545s.167-8.35-3.303-17.083c-3.468-8.734-7.615-15.246-9.26-14.545s-.166 8.35 3.304 17.084z" fill="#006700"/><path d="M255.462 324.27c9.213 1.556 16.496.962 16.267-1.327s-7.884-5.406-17.097-6.96c-9.213-1.557-16.496-.962-16.267 1.327s7.883 5.405 17.096 6.96z" fill="#006700"/><path d="M244.304 306.85c.772.577 1.856.446 2.42-.294s.4-1.808-.373-2.385c-.77-.577-1.855-.445-2.42.294s-.398 1.808.374 2.386z" fill="#f00"/><path d="M249.49 301.39c.773.576 1.857.445 2.422-.295s.398-1.808-.374-2.385c-.772-.578-1.856-.446-2.42.293s-.4 1.808.373 2.386z" fill="#f00"/><path d="M255.68 319.73c9.153 3.59 16.874 4.784 17.246 2.667s-6.746-6.743-15.9-10.333c-9.152-3.59-16.874-4.783-17.246-2.665s6.747 6.742 15.9 10.33z" fill="#006700"/><path d="M261.602 306.357c4.01 8.615 9.044 15.262 11.247 14.847s.74-7.735-3.27-16.35c-4.008-8.614-9.043-15.26-11.246-14.846s-.74 7.735 3.268 16.35z" fill="#006700"/><path d="M257.528 308.67c6.58 7.598 13.307 12.818 15.023 11.66s-2.225-8.258-8.805-15.856c-6.58-7.598-13.307-12.817-15.024-11.658s2.227 8.257 8.808 15.854z" fill="#006700"/><path d="M256.37 314.018c8.015 6.222 15.5 9.944 16.715 8.313s-4.297-7.996-12.313-14.217c-8.016-6.222-15.5-9.944-16.716-8.313s4.297 7.997 12.313 14.218z" fill="#006700"/><g fill="#006700"><path d="M283.097 339.677c9.463.135 17.124-2.01 17.11-4.79s-7.692-5.146-17.155-5.28c-9.463-.136-17.124 2.01-17.112 4.79s7.694 5.144 17.157 5.28z"/><path d="M285.117 324.055c5.993 7.93 12.482 12.96 14.493 11.235s-1.217-9.554-7.21-17.484c-5.993-7.93-12.482-12.96-14.493-11.236s1.216 9.554 7.21 17.485z"/><path d="M282.726 332.012c8.787 3.876 16.686 4.934 17.64 2.364s-5.39-7.795-14.178-11.67c-8.787-3.875-16.685-4.934-17.64-2.364s5.39 7.795 14.178 11.67z"/></g><g fill="#006700"><path d="M278.45 179.693c-4.326 4.01-6.927 7.765-5.81 8.386s5.53-2.128 9.856-6.14c4.326-4.01 6.927-7.764 5.81-8.384s-5.53 2.127-9.856 6.137z"/><path d="M283.454 184.432c-5.904.81-10.87 2.475-11.093 3.716s4.38 1.59 10.284.78c5.903-.812 10.87-2.476 11.093-3.717s-4.38-1.59-10.283-.778z"/><path d="M281.34 181.348c-5.54 2.884-9.55 6.017-8.955 6.997s5.572-.562 11.114-3.446c5.542-2.885 9.552-6.017 8.956-6.998s-5.572.562-11.115 3.446z"/></g><path d="M228.033 247.444c0 .958.76 1.735 1.698 1.735s1.7-.778 1.7-1.736-.76-1.735-1.7-1.735-1.697.776-1.697 1.734z" fill="#f00"/><path d="M235.573 248.236c0 .958.76 1.735 1.698 1.735s1.7-.776 1.7-1.734-.76-1.735-1.7-1.735-1.697.778-1.697 1.736z" fill="#f00"/><path d="M232.125 278.594c.484.83 1.535 1.125 2.347.66s1.077-1.513.592-2.343c-.484-.83-1.535-1.124-2.347-.66s-1.077 1.514-.592 2.344z" fill="#f00"/><path d="M239.05 275.546c.483.83 1.534 1.125 2.346.66s1.077-1.513.592-2.343c-.484-.83-1.535-1.125-2.347-.66s-1.076 1.513-.59 2.343z" fill="#f00"/><path d="M269.783 185.664c-.463.463-.43 1.162.074 1.56s1.286.347 1.75-.116c.46-.464.428-1.163-.075-1.56s-1.286-.348-1.75.116z" fill="#f00"/><path d="M273.454 189.248c-.463.463-.43 1.162.074 1.56s1.286.347 1.75-.116c.46-.464.428-1.163-.075-1.56s-1.286-.348-1.75.116z" fill="#f00"/></g><g><path d="M386.27 198.012c.518.81.295 1.868-.497 2.364s-1.855.242-2.372-.567c-.517-.81-.294-1.87.5-2.365s1.853-.242 2.37.567z" fill="#f00"/><path d="M380.333 202.67c.517.808.294 1.867-.498 2.363s-1.855.242-2.372-.567c-.518-.81-.295-1.868.498-2.364s1.855-.242 2.373.567z" fill="#f00"/><path d="M349.64 178.87s65.488 28.8 54.255 88.185c-11.232 59.385-47.644 58.956-61.9 65.507-14.255 6.55-24.074 15.937-29.712 14.618-5.637-1.32-13.098-5.76-13.098-5.76s-.565 9.754 10.908 11.54c11.473 1.784 26.492-15.373 33.726-17.276s51.67-6.785 62.295-67.21c12.42-64.5-56.065-87.71-56.475-89.604z" fill="#006700"/><path d="M382.246 191.695c1.196 4.905 1.203 8.952.016 9.037s-3.12-3.82-4.316-8.726c-1.197-4.906-1.204-8.952-.017-9.038s3.12 3.82 4.316 8.727z" fill="#006700"/><path d="M380.224 192.05c2.273 4.667 3.246 8.774 2.174 9.175s-3.786-3.058-6.06-7.724c-2.273-4.665-3.246-8.773-2.173-9.173s3.786 3.057 6.06 7.723z" fill="#006700"/><path d="M373.516 196.35c4.607 1.376 8.248 3.5 8.134 4.745s-3.942 1.138-8.548-.238-8.248-3.5-8.133-4.745 3.94-1.138 8.546.238z" fill="#006700"/><path d="M374.318 193.985c4.188 2.87 7.165 6.046 6.65 7.09s-4.327-.437-8.515-3.31c-4.187-2.87-7.165-6.044-6.65-7.09s4.328.438 8.515 3.31z" fill="#006700"/><path d="M377.502 192.728c3.59 3.77 5.862 7.485 5.075 8.3s-4.335-1.578-7.924-5.347c-3.59-3.768-5.86-7.484-5.075-8.3s4.335 1.58 7.924 5.348z" fill="#006700"/><path d="M403.978 221.003c.3.91-.178 1.882-1.07 2.17s-1.856-.216-2.156-1.127c-.3-.91.18-1.882 1.07-2.17s1.856.216 2.156 1.127z" fill="#f00"/><path d="M397.064 224.075c.3.91-.178 1.882-1.07 2.17s-1.856-.216-2.156-1.127c-.3-.91.18-1.882 1.07-2.17s1.856.216 2.156 1.127z" fill="#f00"/><path d="M402.254 207.994c.12 7.538-1.14 13.312-2.814 12.897s-3.128-6.86-3.247-14.4c-.12-7.537 1.14-13.31 2.814-12.896s3.127 6.862 3.247 14.4z" fill="#006700"/><path d="M398.714 207.876c1.615 7.718 1.614 14.043-.003 14.13s-4.235-6.102-5.85-13.82c-1.616-7.716-1.614-14.042.002-14.128s4.237 6.1 5.852 13.818z" fill="#006700"/><path d="M388.465 210.98c5.983 4.07 10.38 8.77 9.822 10.5s-5.86-.162-11.842-4.23c-5.983-4.068-10.38-8.77-9.822-10.5s5.86.163 11.842 4.23z" fill="#006700"/><path d="M390.487 208.2c4.905 6.043 8.024 11.96 6.965 13.22s-5.894-2.62-10.8-8.66c-4.905-6.043-8.023-11.962-6.964-13.22s5.893 2.618 10.8 8.66z" fill="#006700"/><path d="M394.65 207.7c3.71 7.058 5.614 13.442 4.255 14.257s-5.468-4.246-9.176-11.305c-3.71-7.06-5.616-13.443-4.257-14.26s5.468 4.248 9.177 11.307z" fill="#006700"/><path d="M412.498 235.494c-1.256 7.478-3.54 12.95-5.098 12.22s-1.805-7.384-.55-14.862c1.258-7.478 3.54-12.948 5.1-12.22s1.804 7.385.548 14.862z" fill="#006700"/><path d="M409.82 234.876c.24 7.956-.866 14.22-2.468 13.992s-3.095-6.865-3.334-14.82c-.24-7.958.865-14.222 2.468-13.993s3.095 6.864 3.334 14.82z" fill="#006700"/><path d="M398.7 235.93c5.085 5.206 8.51 10.724 7.653 12.326s-5.677-1.318-10.762-6.522c-5.084-5.205-8.51-10.723-7.652-12.325s5.677 1.317 10.762 6.52z" fill="#006700"/><path d="M401.254 233.404c3.71 6.94 5.696 13.412 4.437 14.456s-5.286-3.735-8.995-10.674c-3.71-6.94-5.695-13.412-4.436-14.456s5.285 3.735 8.994 10.674z" fill="#006700"/><path d="M405.664 233.87c2.393 7.716 3.138 14.413 1.665 14.957s-4.61-5.272-7.002-12.99c-2.393-7.717-3.14-14.413-1.665-14.957s4.608 5.272 7 12.99z" fill="#006700"/><path d="M413.873 266.4c-3.95 6.4-8.077 10.5-9.222 9.155s1.13-7.624 5.078-14.025c3.95-6.4 8.077-10.5 9.22-9.155s-1.127 7.624-5.075 14.025z" fill="#006700"/><path d="M411.08 263.97c-2.812 7.42-6.193 12.714-7.553 11.827s-.18-7.62 2.63-15.038c2.813-7.42 6.193-12.714 7.553-11.827s.18 7.62-2.63 15.038z" fill="#006700"/><path d="M400.788 260.873c2.632 7 3.64 13.59 2.254 14.72s-4.647-3.628-7.28-10.627c-2.63-7-3.64-13.59-2.253-14.72s4.646 3.628 7.278 10.627z" fill="#006700"/><path d="M403.837 259.834c.718 8.017.06 14.863-1.472 15.292s-3.353-5.722-4.07-13.738c-.72-8.016-.06-14.863 1.47-15.292s3.354 5.722 4.072 13.738z" fill="#006700"/><path d="M407.513 261.507c-.778 8.136-2.65 14.64-4.18 14.525s-2.14-6.803-1.363-14.94c.778-8.135 2.65-14.638 4.18-14.523s2.14 6.8 1.363 14.937z" fill="#006700"/><path d="M405.103 297.777c-6.46 5.624-12.36 8.64-13.175 6.737s3.762-8.004 10.222-13.627c6.46-5.623 12.36-8.64 13.175-6.737s-3.76 8.004-10.222 13.627z" fill="#006700"/><path d="M352.854 177.287c.578.31.75.99.383 1.515s-1.132.7-1.71.388c-.577-.31-.748-.99-.382-1.515s1.132-.7 1.71-.388z" fill="#f00"/><path d="M350.378 181.773c.578.31.75.99.383 1.515s-1.13.7-1.708.388c-.578-.31-.75-.99-.383-1.515s1.13-.698 1.708-.387z" fill="#f00"/><path d="M403.14 294.428c-5.504 7.18-10.94 11.792-12.142 10.305s2.286-8.514 7.79-15.693c5.504-7.18 10.94-11.792 12.14-10.304s-2.285 8.513-7.79 15.692z" fill="#006700"/><path d="M393.197 286.76c.658 8.675-.34 16.3-2.228 17.028s-3.954-5.71-4.612-14.385c-.658-8.675.34-16.298 2.228-17.028s3.952 5.712 4.61 14.386z" fill="#006700"/><path d="M397 286.52c-1.795 9.093-4.735 16.395-6.566 16.31s-1.86-7.528-.066-16.62c1.795-9.094 4.734-16.396 6.565-16.31s1.86 7.527.066 16.62z" fill="#006700"/><path d="M400.335 290.542c-3.47 8.734-7.616 15.246-9.26 14.545s-.167-8.35 3.303-17.084c3.47-8.734 7.616-15.246 9.26-14.545s.167 8.35-3.303 17.084z" fill="#006700"/><path d="M384.397 325.017c-9.213 1.555-16.496.96-16.267-1.328s7.883-5.407 17.096-6.962c9.213-1.556 16.496-.96 16.267 1.328s-7.883 5.405-17.096 6.96z" fill="#006700"/><path d="M395.555 307.596c-.772.577-1.856.446-2.42-.294s-.4-1.808.373-2.385c.772-.578 1.856-.446 2.42.293s.4 1.808-.373 2.386z" fill="#f00"/><path d="M390.368 302.135c-.772.577-1.856.446-2.42-.294s-.4-1.807.373-2.384c.773-.578 1.857-.446 2.422.293s.398 1.807-.374 2.385z" fill="#f00"/><path d="M384.18 320.477c-9.154 3.59-16.875 4.783-17.247 2.666s6.746-6.743 15.9-10.333c9.152-3.59 16.874-4.783 17.246-2.665s-6.748 6.743-15.9 10.332z" fill="#006700"/><path d="M378.257 307.103c-4.01 8.615-9.044 15.262-11.247 14.847s-.74-7.735 3.27-16.35c4.007-8.614 9.042-15.26 11.245-14.846s.74 7.735-3.268 16.35z" fill="#006700"/><path d="M382.33 309.416c-6.58 7.598-13.306 12.818-15.022 11.66s2.226-8.258 8.806-15.856c6.58-7.598 13.307-12.817 15.024-11.658s-2.226 8.257-8.807 15.854z" fill="#006700"/><path d="M383.49 314.764c-8.016 6.222-15.5 9.944-16.716 8.313s4.297-7.997 12.313-14.218c8.016-6.223 15.5-9.945 16.716-8.314s-4.297 7.997-12.313 14.218z" fill="#006700"/><g fill="#006700"><path d="M356.762 340.423c-9.463.135-17.124-2.01-17.11-4.79s7.692-5.146 17.155-5.28c9.463-.136 17.124 2.01 17.112 4.79s-7.695 5.144-17.158 5.28z"/><path d="M354.742 324.8c-5.993 7.932-12.482 12.962-14.493 11.236s1.216-9.554 7.21-17.484c5.992-7.93 12.48-12.96 14.492-11.236s-1.216 9.554-7.21 17.485z"/><path d="M357.133 332.758c-8.787 3.876-16.686 4.934-17.64 2.364s5.39-7.795 14.178-11.67 16.686-4.934 17.642-2.364-5.392 7.795-14.18 11.67z"/></g><g fill="#006700"><path d="M361.41 180.44c4.325 4.01 6.926 7.764 5.81 8.385s-5.53-2.127-9.857-6.138c-4.326-4.01-6.927-7.765-5.81-8.385s5.53 2.127 9.856 6.137z"/><path d="M356.405 185.178c5.904.81 10.87 2.475 11.093 3.716s-4.38 1.59-10.283.78c-5.903-.812-10.87-2.476-11.093-3.717s4.38-1.59 10.283-.78z"/><path d="M358.518 182.094c5.542 2.884 9.552 6.017 8.956 6.997s-5.572-.56-11.114-3.445c-5.543-2.884-9.553-6.016-8.957-6.997s5.572.562 11.115 3.446z"/></g><path d="M411.826 248.19c0 .958-.76 1.735-1.698 1.735s-1.698-.777-1.698-1.735c0-.958.76-1.735 1.698-1.735s1.698.777 1.698 1.735z" fill="#f00"/><path d="M404.286 248.982c0 .958-.76 1.735-1.698 1.735s-1.698-.777-1.698-1.735c0-.958.76-1.735 1.698-1.735s1.698.777 1.698 1.735z" fill="#f00"/><path d="M407.734 279.34c-.484.83-1.535 1.125-2.347.66s-1.077-1.513-.592-2.343c.484-.83 1.535-1.125 2.347-.66s1.077 1.513.592 2.343z" fill="#f00"/><path d="M400.81 276.292c-.484.83-1.535 1.125-2.347.66s-1.077-1.513-.592-2.343c.485-.83 1.536-1.126 2.348-.662s1.077 1.514.592 2.344z" fill="#f00"/><path d="M370.076 186.41c.463.463.43 1.162-.074 1.56s-1.286.347-1.75-.116c-.46-.464-.428-1.163.075-1.56s1.286-.348 1.75.116z" fill="#f00"/><path d="M366.405 189.994c.463.463.43 1.162-.074 1.56s-1.285.347-1.748-.116c-.462-.464-.43-1.163.074-1.56s1.286-.348 1.75.116z" fill="#f00"/></g><g fill="#5387f4"><path d="M317.866 342.768l.045 6.41c12.58-.63 6.485 8.504 8.66 13.68l2.78-3.446 3.845 3.417c-.308-5.984 3.386-21.206-15.33-20.063z"/><path d="M322.358 343.031l-.045 6.41c-12.58-.63-6.484 8.506-8.66 13.682l-2.778-3.446-3.846 3.417c.307-5.983-3.387-21.205 15.328-20.062z"/><g><path d="M345.245 332.847c-.677 2.254-6.694 12.187-8.39 14.443-1.642 1.812-4.15 7.09-15.382 2.198-5.393-2.348-1.83-7.076-1.59-6.96.24.118 1.21 2.948 4.308 2.106 3.098-.84 9.064-19.4 12.296-20.482 3.557-1.19 10.218 7.027 8.76 8.695z"/><path d="M345.245 332.847c-2.13-1.4-3.092-2.506-4.893-.33-7.21 8.803-6.703 19.97-18.88 16.97-5.72-1.38-1.828-7.075-1.588-6.958.24.116 1.21 2.946 4.307 2.104 3.098-.84 9.064-19.4 12.296-20.482 3.557-1.19 10.218 7.027 8.76 8.695z"/></g><g><path d="M296.97 332.847c.677 2.254 6.694 12.187 8.39 14.443 1.642 1.812 4.15 7.09 15.382 2.198 5.393-2.348 1.83-7.076 1.59-6.96-.24.118-1.21 2.948-4.308 2.106-3.097-.84-9.063-19.4-12.295-20.482-3.558-1.19-10.22 7.027-8.76 8.695z"/><path d="M296.97 332.847c2.13-1.4 3.092-2.506 4.893-.33 7.21 8.803 6.703 19.97 18.88 16.97 5.72-1.38 1.828-7.075 1.588-6.958-.238.116-1.208 2.946-4.306 2.104-3.097-.84-9.063-19.4-12.295-20.482-3.558-1.19-10.22 7.027-8.76 8.695z"/></g><path d="M317.59 342.23l-.222 8.26 6.26-.046.754-8.213h-6.792z"/></g></g><path d="M409.69 276.93s-14.322 12.064-14.322 20.725c.306 3.457 3.17 6.98 8.407 9.52-2.418-3.586-2.747-6.52-2.747-9.93.306-5.86 8.46-12.932 8.46-12.932l.202-7.383z" fill-rule="evenodd" transform="matrix(-.916 0 0 .922 694.242 21.543)" stroke="#000" stroke-width=".235" fill="#5387f4"/><g stroke="#000" fill-rule="evenodd"><path fill="#ffd200" d="M324.017 232.444l.1-65.557-2.26-.34-.1 65.556z"/><path d="M322.937 149.402l3.26 15.183-3.452 4.477-3.35-5.788 3.542-13.872z" fill="#ffd200"/><path d="M321.798 168.506s5.927-2.45 6.07.58c.143 3.03-5.933-.386-6.07-.58zm48.343-587.882s4.163-1.707 4.262.407c.1 2.116-4.165-.27-4.26-.406z"/><path d="M323.22 168.734s-5.39 3.63-5.962.6c-.57-3.03 5.8-.77 5.96-.6zm44.626-588.032s-3.787 2.536-4.186.422c-.4-2.115 4.073-.54 4.186-.422z"/><path d="M321.665 170.593l2.717-.402s1.958 3.418 4.075 8.847c1.862 5.686 3.735 14.876 5.433 35.786-5.093-.403-23.772 2.01-23.772 2.01s.26-25.17 6.792-34.176c3.058-3.816 5.094-11.26 4.755-12.064z" fill="#5387f4"/><path d="M321.665 170.593l2.717-.402s1.958 3.418 4.075 8.847c1.862 5.686-5.434 15.278-3.736 36.187-5.093-.403-14.602 1.61-14.602 1.61s.26-25.17 6.792-34.177c3.058-3.816 5.094-11.26 4.755-12.064z" fill="#fff"/><path d="M321.665 170.593l2.717-.402s-.68 10.455-3.057 15.682-3.736 30.156-3.397 30.156c.34 0-7.81.805-7.81.805s.26-25.17 6.792-34.176c3.058-3.816 5.094-11.26 4.755-12.064z" fill="#5387f4"/></g><path d="M409.69 276.93s-14.322 12.064-14.322 20.725c.306 3.457 3.17 6.98 8.407 9.52-2.418-3.586-2.747-6.52-2.747-9.93.306-5.86 8.46-12.932 8.46-12.932l.202-7.383z" fill-rule="evenodd" transform="matrix(.942 0 0 .898 -62.064 28.76)" stroke="#000" stroke-width=".235" fill="#5387f4"/><g stroke="#000" fill-rule="evenodd"><path d="M304.053 224.478l-46.772-34.122s12.108 70.626 38.977 85.306c0 0 23.386 7.74 23.386-.044l-15.59-51.138z" fill="#5387f4"/><path d="M304.053 224.478l-31.18-22.748s15.59 73.93 46.77 73.93v-.044l-15.59-51.138z" fill="#fff"/><path d="M304.053 224.478l-15.59-11.374s15.59 62.557 31.18 62.557v-.043l-15.59-51.138z" fill="#5387f4"/><path fill="#ffd200" d="M303.794 222.482l-56.162-39.51-2.24 1.693 56.162 39.51z"/><path d="M231.92 173.31l15.822 6.397.866 5.592-7.846-.668-8.84-11.32z" fill="#ffd200"/><path d="M247.658 185.574s4.897-5.622 6.983-3.393c2.088 2.23-6.71 3.456-6.982 3.394zm122.634-605.7s3.447-3.94 4.903-2.383c1.456 1.557-4.712 2.426-4.903 2.383z"/><path d="M248.894 184.88s-3.53 6.12-6.103 4.176c-2.572-1.944 5.82-4.203 6.104-4.175zm118.95-603.507s-2.49 4.288-4.286 2.932c-1.795-1.357 4.086-2.95 4.285-2.932z"/><path d="M296.258 238.715l-46.772-17.06s7.795 71.065 46.772 71.065c23.386 0 31.18-22.748 31.18-22.748l-31.18-31.258z" fill="#5387f4"/><path d="M296.258 238.715l-31.18-11.374c0 11.375 7.794 59.694 31.18 59.694 15.59 0 31.18-17.06 31.18-17.06l-31.18-31.26z" fill="#fff"/><path d="M296.258 238.715l-15.59-5.687c0 25.572 7.794 48.32 23.385 48.32 7.795 0 23.386-11.374 23.386-11.374l-31.182-31.258z" fill="#5387f4"/><path fill="#ffd200" d="M311.564 242.54l-69.805-25.334-1.436 2.1 69.805 25.337z"/><path d="M222.866 210.998l17.7 2.64 3.11 5.128-7.753 1.072-13.057-8.84z" fill="#ffd200"/><path d="M242.43 219.045s2.382-6.44 5.298-4.752c2.915 1.686-5.012 4.752-5.3 4.752zm127.53-639.425s1.685-4.514 3.72-3.338c2.034 1.177-3.52 3.337-3.72 3.338z"/><path d="M244.044 218.28s-.87 6.622-4.13 5.336c-3.257-1.287 3.847-5.3 4.13-5.335zm124.185-636.693s-.626 4.643-2.9 3.746c-2.273-.898 2.7-3.72 2.9-3.746z"/></g><g stroke="#000" fill-rule="evenodd"><path d="M339.16 224.478l46.134-34.122s-11.942 70.626-38.446 85.306c0 0-23.067 7.74-23.067-.044l15.38-51.138z" fill="#5387f4"/><path d="M339.16 224.478l30.755-22.748s-15.378 73.93-46.134 73.93v-.044l15.38-51.138z" fill="#fff"/><path d="M339.16 224.478l15.377-11.374S339.16 275.66 323.78 275.66v-.043l15.38-51.138z" fill="#5387f4"/><path fill="#ffd200" d="M339.05 222.482l55.278-39.51 2.204 1.693-55.277 39.51z"/><path d="M409.974 173.31l-15.555 6.397-.845 5.592 7.718-.668 8.68-11.32z" fill="#ffd200"/><path d="M394.9 185.574s-4.842-5.622-6.9-3.393c-2.058 2.23 6.63 3.456 6.9 3.394zm-27.217-605.7s-3.41-3.94-4.845-2.383c-1.436 1.557 4.656 2.426 4.845 2.383z"/><path d="M393.464 184.88s3.477 6.12 6.02 4.176c2.544-1.944-5.74-4.203-6.02-4.175zm-23.362-603.507s2.452 4.288 4.227 2.932c1.774-1.357-4.032-2.95-4.228-2.932z"/><path d="M346.848 238.715l46.135-17.06s-7.69 71.065-46.135 71.065c-23.067 0-30.756-22.748-30.756-22.748l30.756-31.258z" fill="#5387f4"/><path d="M346.848 238.715l30.756-11.374c0 11.375-7.69 59.694-30.756 59.694-15.378 0-30.756-17.06-30.756-17.06l30.756-31.26z" fill="#fff"/><path d="M346.848 238.715l15.378-5.687c0 25.572-7.69 48.32-23.066 48.32-7.69 0-23.068-11.374-23.068-11.374l30.756-31.258z" fill="#5387f4"/><path fill="#ffd200" d="M331.213 242.54l68.742-25.334 1.42 2.1-68.74 25.337z"/><path d="M419.163 210.998l-17.45 2.64-3.073 5.128 7.643 1.072 12.88-8.84z" fill="#ffd200"/><path d="M400.014 219.045s-2.33-6.44-5.217-4.752c-2.887 1.686 4.933 4.752 5.217 4.752zm-31.998-639.425s-1.648-4.514-3.662-3.338c-2.015 1.177 3.463 3.337 3.662 3.338z"/><path d="M398.777 218.28s.844 6.622 4.045 5.336c3.2-1.287-3.767-5.3-4.045-5.335zm-29.06-636.693s.605 4.643 2.84 3.746c2.233-.898-2.647-3.72-2.84-3.746z"/></g><g stroke-linejoin="bevel" stroke="#000" stroke-width=".105"><path d="M263.52 285.47l58.643-100.025 58.64 100.024H263.52z" fill-rule="evenodd" fill="#ffd200"/><path d="M269.562 282.57l52.85-90.634 52.847 90.635H269.56z" fill-rule="evenodd" fill="#0ff"/><path d="M331.552 238.837c0 4.74-3.97 8.585-8.866 8.585-4.897 0-8.866-3.844-8.866-8.585 0-4.742 3.97-8.586 8.866-8.586 4.896 0 8.866 3.845 8.866 8.587z" fill-rule="evenodd" fill="#ffd200"/><g fill="none"><path d="M322.616 234.78l-.352-31.954"/><path d="M324.37 236.866l11.58-15.977"/><path d="M326.126 238.6l18.595-7.64"/><path d="M327.53 241.035l21.754.694"/><path d="M326.126 243.814l12.632 11.114"/><path d="M322.616 242.77v10.072"/><path d="M318.756 240.338l-16.49 14.242"/><path d="M320.512 241.38l-7.37 13.546"/><path d="M317.704 238.6l-27.368 9.38"/><path d="M317.353 237.21l-19.3-.693"/><path d="M301.913 229.223l16.843 5.557"/><path d="M309.983 214.983l10.176 19.45"/></g><g fill-rule="evenodd"><path d="M322.372 229.834c-10.56 0-18.253 1.92-24.747 4.172l1.65-2.825 1.648-2.83 1.65-2.83 1.652-2.826 1.648-2.83 1.65-2.827 1.828-2.882c2.462-2.14 7.743-3.142 13.02-3.142 5.28 0 10.562 1.058 13.202 3.194l1.65 2.83 1.65 2.826 1.65 2.83 1.65 2.826 1.65 2.83 1.65 2.83 1.647 2.826c-6.846-2.253-14.19-4.172-24.748-4.172z" fill="#c453d7"/><path d="M322.376 227.84c-10.594-.014-22.434 3.126-23.096 3.342l1.647-2.83 1.65-2.83 1.652-2.826 1.647-2.83 1.65-2.827 1.828-2.883c2.46-2.14 7.742-3.142 13.02-3.142 5.28 0 10.56 1.058 13.2 3.194l1.652 2.83 1.648 2.825 1.65 2.83 1.652 2.826 1.648 2.832 1.65 2.83s-12.54-3.342-23.1-3.342z" fill="#5000c1"/><path d="M322.372 225.58c-7.822-.034-20.47 2.105-21.36 2.507l1.562-2.57 1.65-2.826 1.65-2.83 1.65-2.825 1.827-2.882c2.462-2.14 7.743-3.142 13.02-3.142 5.28 0 10.562 1.06 13.202 3.195l1.65 2.83 1.65 2.826 1.65 2.83 1.65 2.827 1.65 2.83s-10.89-2.768-21.45-2.768z" fill="#0053d7"/><path d="M322.368 223.233c-10.37-.02-18.988 1.957-19.798 2.283l1.65-2.825 1.65-2.83 1.65-2.825 1.827-2.882c2.46-2.14 7.742-3.143 13.02-3.143 5.28 0 10.56 1.058 13.2 3.194l1.652 2.83 1.647 2.826 1.65 2.83 1.652 2.826s-9.243-2.283-19.802-2.283z" fill="#009f9f"/><path d="M322.372 221.237c-10.61-.036-17.273 1.317-18.147 1.455l1.648-2.83 1.65-2.826 1.828-2.882c2.462-2.14 7.743-3.143 13.02-3.143 5.28 0 10.562 1.06 13.202 3.195l1.65 2.83 1.65 2.826 1.65 2.832s-7.59-1.455-18.15-1.455z" fill="#ff0"/><path d="M322.28 218.63c-9.24-.2-16.027 1.253-16.41 1.23l1.65-2.827 1.828-2.882c2.462-2.14 7.742-3.14 13.02-3.14 5.28 0 10.56 1.057 13.2 3.192l1.652 2.83 1.648 2.827s-6.028-1.23-16.587-1.23z" fill="#f50"/><path d="M322.625 215.596c-9.276.076-14.08 1.28-15.11 1.443l1.826-2.883c2.463-2.14 7.743-3.142 13.02-3.142 5.28 0 10.562 1.057 13.202 3.193l1.65 2.83s-4.028-1.442-14.587-1.442z" fill="#ff0b00"/></g><path d="M269.562 282.57l14.864-25.492h75.968l14.865 25.493H269.56z" fill-rule="evenodd" fill="#4363ff"/><path d="M319.627 237.398c.082 0 .146-.288.355-.543.447-.248.918-.443 1.538-.545.335-.128 1.02-.09 1.538-.09.726.05.772.287 1.184.635.18.282.61.675.828 1.087.236.22.424.56.592.816.172.278.355.697.592 1.088.12.435.236.775.236 1.27 0 .516-.11.736-.236 1.088-.36.092-1.064.136-1.42 0-.382-.262-1.038-.095-1.302-.363-.68-.072-.846-.686-1.183-.996-.238-.267-.234-.467-.475-.726-.373-.204-.424-.453-.59-.816.147-.387.404-.472.827-.634.226-.253.355-.355.355-.816-.085-.514-.327-.46-.947-.544-.766 0-1.16.06-1.893.09z" fill-rule="evenodd" fill="#f00"/><g fill-rule="evenodd" fill="#6da700"><path d="M337.89 276.617s3.38-1.318 5.06-4.203c1.683-2.886.61-7.207 1.666-7.34 1.057-.133 2.486 4.737 5.454 6.146 2.967 1.41 7.558 3.207 7.558 3.207l-19.74 2.19z"/><path d="M336.038 276.834s3.38-1.318 5.062-4.203c1.682-2.885.608-7.206 1.665-7.34 1.057-.132 2.486 4.738 5.454 6.147 2.966 1.41 7.557 3.207 7.557 3.207l-19.74 2.19z"/><path d="M331.354 278.212s4.035-1.47 6.082-4.676c2.046-3.207.847-8.003 2.104-8.153 1.257-.15 2.868 5.255 6.364 6.814 3.497 1.56 8.914 3.547 8.914 3.547l-23.464 2.468z"/><path d="M327.17 278.765s4.448-1.68 6.668-5.39c2.22-3.707.82-9.277 2.21-9.443 1.39-.167 3.255 6.113 7.15 7.94 3.898 1.83 9.927 4.167 9.927 4.167l-25.955 2.725z"/><path d="M321.523 279.393s5.04-1.89 7.573-6.028c2.533-4.137.984-10.332 2.558-10.523 1.573-.192 3.643 6.79 8.04 8.808 4.395 2.02 11.2 4.595 11.2 4.595l-29.37 3.148z"/><path d="M316.976 280.11s5.34-2.105 7.973-6.76c2.63-4.653.883-11.647 2.557-11.855 1.673-.21 3.99 7.676 8.705 9.974 4.716 2.297 12.007 5.236 12.007 5.236l-31.244 3.405z"/><path d="M310.1 278.187s6.29-1.624 9.77-5.895c3.482-4.27 2.233-11.115 4.157-11.19 1.923-.075 3.723 7.667 8.838 10.224 5.115 2.558 13.09 5.923 13.09 5.923l-35.856.937z"/><path d="M306.735 278.322s6.29-1.624 9.77-5.895c3.483-4.27 2.234-11.115 4.158-11.19 1.923-.075 3.723 7.667 8.838 10.224 5.116 2.56 13.09 5.924 13.09 5.924l-35.855.938z"/><path d="M297.276 279.224s7.48-1.83 11.676-6.587c4.194-4.758 2.82-12.35 5.102-12.443 2.28-.09 4.294 8.496 10.32 11.314 6.023 2.817 15.425 6.52 15.425 6.52l-42.524 1.196z"/><path d="M289.358 280.245s8.258-2.108 12.85-7.633c4.59-5.525 2.99-14.367 5.513-14.467 2.524-.1 4.84 9.9 11.534 13.198 6.694 3.297 17.133 7.633 17.133 7.633l-47.03 1.27z"/><path d="M279.914 280.192s9.35-2.36 14.553-8.506c5.204-6.146 3.406-15.962 6.26-16.08 2.857-.115 5.466 10.986 13.04 14.633 7.572 3.646 19.384 8.438 19.384 8.438l-53.236 1.514z"/><path d="M271.482 280.517s9.927-2.638 15.4-9.55c5.47-6.915 3.447-17.98 6.486-18.105 3.04-.125 5.94 12.39 14.042 16.517 8.103 4.125 20.73 9.552 20.73 9.552l-56.66 1.585z"/></g></g><g><path d="M380.34 293.64l5.82-4.9s7.96 6.43 23.578 6.125c14.71-.283 19.906-5.513 22.05-6.126l5.817 5.205c-3.37.92-15.31 6.737-28.785 7.35-14.087-.612-26.642-5.817-28.48-7.655z" fill-rule="evenodd" transform="matrix(1.231 0 0 1.22 -183.419 -52.119)" stroke="#000" stroke-width=".235" fill="#ffc200"/><path d="M342.725 308.037l-1.068-2.956-1.256.443-.142-.395 3.02-1.06.144.393-1.26.444 1.068 2.955-.505.177z"/><path d="M333.752 310.87l-.93-3.44 2.828-.742.11.405-2.31.606.285 1.053 2.162-.568.11.403-2.163.568.316 1.17 2.4-.63.11.407-2.918.766z"/><path d="M328.568 312.02l-.93-3.438.52-.136.928 3.44-.518.135z"/><path d="M324.804 312.527l-.443-3.53.532-.065.39 3.114 1.978-.238.052.417-2.508.302z"/><path d="M319.217 313.046l-.104-3.558.55-.014 2.205 2.74-.082-2.794.513-.013.103 3.558-.55.014-2.205-2.743.082 2.796-.513.013z"/><path d="M312.43 312.878l.37-3.543.53.055-.37 3.543-.53-.055z"/><path d="M308.212 312.058l.663-3.5.54.1 1.565 3.14.52-2.746.504.095-.663 3.5-.538-.102-1.565-3.144-.52 2.753-.505-.095z"/><path d="M307.682 308.36l.517.134-.524 1.99c-.09.347-.208.61-.35.79-.144.182-.348.306-.615.374-.262.067-.584.05-.96-.047-.366-.094-.652-.228-.854-.4-.204-.17-.33-.375-.373-.61-.044-.238-.018-.54.078-.905l.524-1.99.518.134-.523 1.987c-.08.3-.107.53-.082.688.027.158.107.294.24.41s.312.205.535.263c.38.1.67.093.873-.016.202-.11.36-.382.473-.814l.522-1.99z"/><path d="M299.245 308.177l.497.102c-.024.178-.008.333.046.468.056.133.162.26.322.38.158.118.35.21.57.272.198.057.38.08.543.073s.296-.047.392-.115c.1-.07.163-.156.19-.262.03-.108.02-.21-.03-.31-.05-.103-.148-.204-.296-.305-.096-.065-.313-.187-.65-.364-.34-.18-.57-.324-.696-.432-.164-.14-.274-.285-.332-.438-.057-.154-.063-.31-.02-.466.046-.173.145-.32.296-.436.153-.12.346-.187.582-.204.236-.015.485.014.748.09.29.083.532.196.73.342.2.145.337.314.414.507s.092.39.046.594l-.503-.11c.03-.223-.016-.413-.14-.568-.123-.154-.334-.275-.634-.36-.31-.09-.552-.106-.723-.046-.17.06-.272.16-.31.302-.033.123-.01.24.07.348.077.107.315.264.71.468.398.203.667.358.807.465.202.158.338.322.408.496.07.17.082.348.032.532-.05.182-.155.337-.317.465-.162.126-.367.203-.615.228-.245.026-.508-.002-.786-.08-.353-.103-.637-.233-.852-.392-.214-.16-.364-.347-.452-.568-.086-.22-.102-.447-.047-.678z"/><path d="M293.272 307.092l1.218-3.335.5.193-1.217 3.334-.5-.192z"/><path d="M289.002 304.646l2.25-2.76 1.07.893c.24.2.415.368.52.5.15.185.247.378.294.578.064.26.057.52-.02.78-.073.258-.21.51-.41.756-.172.21-.35.373-.537.49-.188.115-.37.19-.542.225-.172.032-.335.037-.488.012-.15-.024-.312-.082-.482-.17-.17-.09-.35-.213-.536-.37l-1.12-.936zm78.975 206.232l.662.553c.204.172.378.288.52.352.146.063.277.093.398.09.167-.005.337-.058.51-.16.175-.1.347-.255.517-.464.235-.288.363-.555.38-.798.023-.244-.022-.456-.13-.637-.08-.13-.242-.296-.486-.5l-.653-.545-1.72 2.11z"/><path d="M295.098 306.226c.202-.553.53-.92.98-1.105.453-.183.946-.173 1.48.03.35.135.638.33.865.584s.366.543.416.862c.052.32.017.646-.105.98-.123.337-.312.61-.565.817-.252.208-.545.327-.88.356-.334.026-.666-.023-.995-.15-.356-.136-.648-.333-.873-.593-.226-.26-.363-.548-.412-.865-.05-.318-.02-.623.088-.916zm78.796 202.97c-.146.4-.14.764.02 1.09.162.325.428.557.8.7.376.144.73.147 1.057.006.33-.14.575-.424.73-.853.1-.273.135-.53.103-.772-.03-.242-.124-.457-.286-.646-.16-.188-.363-.33-.613-.426-.354-.136-.7-.145-1.035-.028-.334.116-.592.425-.776.927z"/><path d="M314.105 311.21c.062-.587.288-1.028.68-1.323.395-.295.875-.414 1.442-.355.37.04.697.152.98.34s.485.43.612.726c.127.295.172.62.135.974-.038.36-.153.673-.348.94-.194.265-.45.456-.767.57-.317.114-.65.153-1 .116-.378-.04-.707-.155-.988-.348-.282-.192-.485-.436-.61-.73-.124-.295-.17-.598-.137-.91zm81.373 197.845c-.045.426.05.777.284 1.05.235.273.55.43.943.47.4.042.743-.047 1.027-.268.285-.22.452-.56.5-1.015.03-.29 0-.546-.09-.772-.086-.228-.23-.41-.433-.55-.2-.143-.433-.227-.698-.255-.376-.04-.713.04-1.01.242-.294.198-.468.565-.524 1.098z"/><path d="M348.616 306.032l-1.573-3.2 1.254-.6c.283-.135.507-.224.67-.264.23-.058.445-.067.647-.026.263.05.496.165.7.342.204.175.376.405.516.69.12.244.193.474.22.692s.022.415-.018.587c-.04.17-.104.32-.19.45-.084.126-.204.25-.355.367-.152.117-.338.23-.557.334l-1.314.628zm83.99 204.22l.778-.372c.24-.115.418-.225.534-.33.118-.104.2-.21.246-.322.065-.155.088-.332.067-.53-.018-.202-.087-.423-.205-.665-.165-.334-.354-.562-.568-.68-.213-.12-.423-.17-.632-.145-.15.02-.37.096-.656.233l-.765.366 1.2 2.446z"/><path d="M337.572 309.733l-.93-3.44 1.734-.453c.35-.092.622-.13.82-.115.198.013.372.084.523.21.15.13.25.288.3.477.067.244.033.473-.1.688-.135.215-.384.394-.747.536.152.023.272.053.358.09.185.083.37.197.554.345l.933.76-.65.17-.712-.58c-.207-.167-.373-.292-.5-.376s-.237-.137-.326-.16c-.09-.025-.177-.035-.26-.03-.062.004-.16.024-.293.06l-.6.156.41 1.527-.515.136zm82.226 199.07l1.113-.292c.236-.06.416-.13.538-.208.12-.078.204-.175.248-.286.044-.113.05-.226.02-.337-.044-.163-.148-.28-.31-.348-.163-.07-.388-.068-.678.008l-1.238.325.308 1.138z"/><path d="M344.546 307.8l.083-3.87.533-.215 2.89 2.682-.564.226-.85-.824-1.566.627v1.163l-.528.21zm83.618 201.273l1.27-.51-.766-.755c-.234-.23-.416-.422-.548-.577.04.232.06.468.058.712l-.014 1.13z"/><path d="M329.728 311.703l-.755-3.48 1.483-.314c.302-.065.552-.08.75-.047.198.03.364.11.5.234.134.124.22.266.255.426.033.148.017.3-.046.45s-.18.285-.347.405c.253.01.46.078.62.2.16.12.264.283.308.486.036.163.03.324-.02.48-.046.156-.12.284-.22.384-.097.1-.23.19-.395.265-.164.075-.372.14-.624.192l-1.508.318zm81.787 197.028l.855-.18c.23-.048.395-.097.49-.144.125-.063.213-.142.262-.237.05-.096.063-.205.036-.327-.025-.115-.078-.21-.16-.283-.082-.076-.185-.117-.308-.124-.124-.01-.33.016-.613.076l-.79.167.228 1.05zm.857 1.502l.985-.207c.168-.036.286-.067.352-.092.115-.045.21-.097.28-.16.07-.06.124-.138.158-.233.033-.097.04-.2.015-.31-.03-.13-.09-.235-.188-.315-.096-.08-.216-.125-.358-.135-.142-.01-.34.01-.59.062l-.915.193.26 1.197z"/></g><g stroke="#000" fill="#ffc200"><path d="M371.685 353.25l6.16 14.93-2.023.794-5.433-13.17-7.532 2.963-.726-1.76 9.553-3.757z"/><path d="M404.4 330.51l10.4 9.916 3.793-3.795 1.392 1.328-9.124 9.13-1.39-1.326 3.807-3.81-10.402-9.918 1.524-1.525z"/><path d="M417.774 316.783l11.476 11.553-1.607 1.522-15.23-3.184 9.013 9.072-1.5 1.42-11.477-11.552 1.606-1.522 15.234 3.192-9.018-9.08 1.502-1.42z"/><path d="M423.64 304.537l13.89 8.667-6.422 9.807-1.64-1.022 5.247-8.012-4.254-2.655-4.913 7.505-1.63-1.017 4.914-7.504-4.727-2.95-5.452 8.326-1.637-1.022 6.627-10.12z"/><path d="M431.155 303.53l-1.64 1.506c-1.262-1.318-1.97-2.716-2.123-4.193-.153-1.468.234-2.908 1.158-4.32.958-1.46 2.042-2.462 3.25-3.003 1.21-.53 2.552-.676 4.02-.436 1.468.246 2.865.785 4.19 1.612 1.448.903 2.533 1.956 3.255 3.163.725 1.216 1.04 2.494.946 3.834-.092 1.35-.53 2.623-1.313 3.82-.89 1.358-1.99 2.277-3.303 2.76-1.314.484-2.73.508-4.25.073l.73-2.034c1.216.315 2.252.32 3.105.008.85-.308 1.574-.918 2.167-1.824.683-1.043 1-2.075.948-3.097-.056-1.018-.422-1.937-1.103-2.762-.672-.82-1.467-1.516-2.382-2.087-1.182-.737-2.323-1.213-3.426-1.432-1.1-.208-2.1-.094-3 .343-.9.44-1.62 1.07-2.163 1.897-.658 1.006-.92 2.042-.78 3.11.137 1.066.71 2.088 1.715 3.064z"/><path d="M446.06 257.77l-.462 2.15c-1.807-.374-3.208-1.124-4.2-2.25-.986-1.116-1.514-2.513-1.584-4.186-.073-1.734.227-3.16.9-4.278.68-1.11 1.695-1.98 3.04-2.605 1.346-.617 2.807-.957 4.38-1.02 1.714-.07 3.22.19 4.52.773 1.31.592 2.317 1.463 3.026 2.614.715 1.158 1.104 2.448 1.164 3.865.068 1.61-.295 2.978-1.087 4.11-.793 1.13-1.94 1.94-3.442 2.434l-.594-2.074c1.183-.42 2.035-1 2.55-1.73.518-.73.752-1.634.707-2.708-.052-1.236-.4-2.26-1.04-3.068-.643-.803-1.482-1.35-2.523-1.646-1.033-.296-2.092-.42-3.177-.377-1.4.057-2.616.302-3.648.74-1.025.444-1.777 1.096-2.26 1.958-.48.862-.7 1.784-.658 2.763.05 1.193.443 2.187 1.184 2.985.738.8 1.806 1.315 3.203 1.553z"/><path d="M440.41 240.04l16.45-1.005.136 2.126-16.45 1.006-.136-2.126z"/><path d="M432.555 206.674l15.83-4.492 3.324 11.18-1.87.53-2.714-9.134-4.85 1.376 2.543 8.554-1.86.527-2.54-8.553-5.39 1.53 2.82 9.49-1.866.53-3.43-11.538z"/><path d="M424.37 189.295l15.12-6.408 1.307 2.94-9.15 8.033c-.856.744-1.498 1.296-1.927 1.654.626-.065 1.55-.146 2.773-.242l12.09-.923 1.17 2.628-15.12 6.408-.836-1.884 12.652-5.363-14.56 1.07-.783-1.76 10.97-9.727-12.87 5.454-.836-1.882z"/><path d="M388.087 150.508l9.346-13.255 1.797 1.21-8.243 11.69 6.687 4.497-1.102 1.563-8.485-5.705z"/><path d="M367.414 139.79l6.932-14.602 2.03.92 2.412 15.02 5.444-11.465 1.897.858-6.933 14.604-2.03-.918-2.408-15.03-5.448 11.474-1.898-.86z"/><path d="M353.678 134.546l6.22-14.913 11.036 4.392-.734 1.76-9.018-3.588-1.905 4.567 8.444 3.36-.73 1.75-8.443-3.36-2.117 5.076 9.372 3.73-.733 1.757-11.392-4.53z"/><path d="M269.082 140.463l-10.867-13.622 2.262-.664 7.554 9.997c.61.8 1.143 1.56 1.608 2.28-.015-.913.01-1.84.073-2.773l.816-12.456 2.132-.626-1.43 17.235-2.146.63z"/><path d="M254.854 147.565l-8.075-14.036 1.9-1.043 7.122 12.38 7.078-3.884.953 1.656-8.98 4.925z"/><path d="M226.717 163.167l1.413-1.47c.622.536 1.242.884 1.86 1.04.618.15 1.315.1 2.095-.15.774-.252 1.51-.683 2.208-1.293.62-.542 1.087-1.11 1.398-1.704s.438-1.148.383-1.658c-.056-.522-.253-.968-.594-1.34-.345-.376-.757-.607-1.235-.69-.482-.09-1.07-.004-1.76.254-.442.163-1.35.606-2.72 1.33-1.373.718-2.394 1.157-3.06 1.317-.863.212-1.64.225-2.337.036-.694-.2-1.294-.574-1.8-1.126-.553-.604-.895-1.324-1.023-2.155-.132-.838.016-1.688.442-2.55.427-.863 1.053-1.656 1.882-2.38.91-.794 1.843-1.35 2.8-1.666.96-.326 1.882-.375 2.765-.143.884.23 1.663.683 2.335 1.364l-1.455 1.476c-.778-.687-1.588-1.01-2.428-.973-.835.033-1.725.46-2.67 1.286-.984.858-1.54 1.663-1.667 2.412-.128.74.035 1.357.49 1.854.395.43.877.646 1.452.647.568.004 1.646-.42 3.235-1.278 1.59-.87 2.73-1.406 3.422-1.618 1.01-.303 1.912-.355 2.71-.156.788.193 1.48.613 2.068 1.256.585.64.95 1.405 1.094 2.3.14.89.004 1.798-.41 2.73-.416.92-1.06 1.765-1.938 2.53-1.112.972-2.193 1.628-3.236 1.97-1.038.337-2.062.378-3.073.12-1.01-.268-1.89-.793-2.648-1.575z"/><path d="M215.722 186.306l-13.34-9.458 1.282-1.723 11.767 8.342 4.773-6.413 1.573 1.115-6.054 8.136z"/><path d="M207.816 200.29l-14.423-7.792 5.77-10.186 1.703.92-4.714 8.32 4.417 2.387 4.414-7.794 1.692.914-4.414 7.793 4.91 2.653 4.9-8.65 1.7.92-5.956 10.513z"/><path d="M201.38 225.43l-16.098-3.48 2.577-11.366 1.9.41-2.107 9.288 4.93 1.066 1.973-8.697 1.89.41-1.973 8.696 5.48 1.184 2.188-9.65 1.9.41-2.66 11.73z"/><path d="M196.328 277.406l-.143-2.193c1.844-.11 3.4.25 4.662 1.075 1.256.82 2.146 2.03 2.67 3.626.545 1.652.643 3.103.3 4.356-.353 1.25-1.093 2.35-2.22 3.303-1.13.945-2.444 1.655-3.942 2.125-1.635.513-3.158.656-4.57.43-1.423-.23-2.633-.808-3.63-1.734-1.006-.93-1.732-2.07-2.177-3.422-.504-1.533-.528-2.948-.074-4.244.456-1.296 1.34-2.377 2.654-3.24l1.14 1.844c-1.026.713-1.69 1.49-1.987 2.33s-.278 1.77.06 2.795c.387 1.177 1 2.073 1.84 2.686.837.605 1.796.917 2.88.93 1.076.016 2.132-.138 3.166-.463 1.336-.42 2.44-.97 3.315-1.66.867-.696 1.414-1.52 1.644-2.477.227-.957.188-1.9-.12-2.834-.372-1.137-1.023-1.994-1.955-2.572-.93-.576-2.102-.797-3.512-.662z"/><path d="M208.418 292.827l-14.775 7.138-.967-1.907 14.775-7.138.968 1.907z"/><path d="M213.642 303.53l-15.152 6.34-.86-1.958 13.367-5.59-3.2-7.287 1.788-.748 4.057 9.242z"/><path d="M212.037 330.16l-1.418-1.618 7.24-6.045c1.26-1.052 2.382-1.747 3.366-2.088s2.03-.342 3.136-.003c1.094.336 2.158 1.095 3.19 2.274 1.004 1.147 1.622 2.254 1.856 3.32.233 1.068.105 2.075-.385 3.024-.498.955-1.41 1.985-2.738 3.094l-7.24 6.045-1.42-1.62 7.233-6.037c1.09-.91 1.808-1.677 2.156-2.305.336-.628.436-1.298.296-2.01-.144-.717-.52-1.422-1.13-2.117-1.042-1.19-2.06-1.81-3.057-1.853s-2.28.59-3.854 1.904l-7.233 6.037z"/><path d="M252.465 345.168l-10.222 12.627-9.347-7.223 1.206-1.49 7.637 5.9 3.13-3.867-7.152-5.527 1.2-1.482 7.15 5.527 3.48-4.298-7.935-6.133 1.205-1.49 9.647 7.456z"/><path d="M388.14 343.406l3.02 16.99-2.018 1.18L374.9 351.13l2.133-1.243 4.208 3.223 5.917-3.452-1.005-5.092 1.988-1.16zm260.978 451.74l-4.796 2.8 3.818 2.965c1.16.902 2.08 1.66 2.755 2.282-.362-.99-.644-2.02-.85-3.084l-.927-4.96z"/><path d="M399.934 335.792l10.703 12.24-5.557 4.637c-1.116.93-2.065 1.527-2.84 1.79-.77.266-1.575.267-2.408 0-.834-.267-1.546-.737-2.134-1.41-.76-.87-1.112-1.84-1.058-2.915.055-1.077.612-2.197 1.674-3.36-.62.158-1.13.234-1.533.223-.862-.03-1.796-.19-2.798-.48l-5.094-1.512 2.086-1.74 3.886 1.163c1.126.328 2.016.56 2.67.686.655.13 1.175.167 1.563.114.38-.05.726-.15 1.037-.303.223-.117.547-.355.974-.712l1.923-1.604-4.752-5.434 1.66-1.384zm246.417 459.52l-3.564 2.973c-.758.633-1.286 1.2-1.58 1.71-.293.51-.404 1.028-.334 1.546.076.526.284.986.63 1.383.506.578 1.14.873 1.9.885.752.015 1.594-.364 2.522-1.138l3.967-3.31-3.54-4.048z"/><path d="M439.863 261.05l13.773 10.803-.717 2.186-17.76 1.36.758-2.31 5.34-.3 2.102-6.412-4.203-3.173.706-2.154zm162.194 532.482l-1.703 5.198 4.873-.238c1.482-.076 2.684-.1 3.612-.07-.944-.51-1.852-1.097-2.728-1.765l-4.055-3.125z"/><path d="M437.6 221.237l16.414-1.47.667 7.11c.135 1.428.086 2.528-.142 3.297-.22.77-.685 1.41-1.39 1.92-.704.512-1.51.81-2.41.89-1.167.105-2.182-.177-3.05-.84-.867-.666-1.482-1.757-1.842-3.275-.225.583-.456 1.035-.698 1.35-.523.672-1.196 1.325-2.018 1.957l-4.206 3.188-.25-2.67 3.216-2.426c.926-.71 1.633-1.286 2.117-1.733.486-.448.817-.84.997-1.18.18-.333.294-.667.346-1.003.03-.245.018-.64-.033-1.188l-.23-2.46-7.29.653-.198-2.123zm149.13 567.154l.427 4.56c.09.97.262 1.72.516 2.247.26.528.627.915 1.1 1.16.484.24.99.34 1.52.294.776-.07 1.388-.404 1.837-1.003.447-.59.616-1.48.505-2.668l-.476-5.075-5.43.486z"/><path d="M413.373 175.107l17.11-4.26 1.36 1.874-9.554 14.68-1.437-1.98 2.962-4.35-3.984-5.49-5.118 1.374-1.34-1.847zm145.29 611.954l3.23 4.453 2.73-3.946c.83-1.202 1.533-2.155 2.113-2.862-.983.43-2.01.786-3.08 1.068l-4.994 1.288z"/><path d="M395.6 157.082l15.884-7.538 1.718 1.568-6.332 16.26-1.816-1.658 2.005-4.843-5.037-4.597-4.732 2.354-1.69-1.545zm151.558 628.35l4.083 3.73 1.863-4.405c.564-1.34 1.057-2.412 1.48-3.22-.875.616-1.807 1.166-2.8 1.654l-4.625 2.243z"/><path d="M325.508 129.494l1.64-16.02 7.274.708c1.463.143 2.56.398 3.29.763.733.358 1.29.924 1.67 1.696.38.774.525 1.602.435 2.483-.116 1.137-.59 2.057-1.425 2.763-.832.707-2.048 1.09-3.644 1.147.548.326.956.633 1.23.926.575.627 1.102 1.396 1.582 2.304l2.407 4.638-2.73-.266-1.83-3.544c-.536-1.022-.983-1.81-1.342-2.36-.356-.55-.69-.942-.998-1.18-.3-.234-.614-.407-.94-.52-.24-.076-.642-.14-1.2-.194l-2.52-.246-.727 7.114-2.172-.212zm178.92 648.857l4.666.456c.992.096 1.78.075 2.36-.068.58-.15 1.036-.428 1.373-.836.336-.418.53-.883.583-1.402.078-.757-.14-1.407-.658-1.95-.51-.542-1.373-.873-2.59-.992l-5.19-.505-.544 5.298z"/><path d="M306.043 120.54c.272-2.658 1.215-4.667 2.83-6.026 1.62-1.366 3.583-1.936 5.896-1.71 1.514.147 2.843.635 3.986 1.458 1.144.825 1.967 1.904 2.472 3.232.512 1.323.686 2.786.522 4.388-.166 1.625-.65 3.045-1.453 4.263-.803 1.216-1.854 2.097-3.152 2.64-1.3.535-2.66.734-4.085.596-1.545-.15-2.887-.65-4.03-1.496-1.14-.847-1.96-1.93-2.457-3.253s-.674-2.683-.53-4.09zm187.83 662.62c-.197 1.93.178 3.505 1.122 4.722.954 1.21 2.232 1.895 3.837 2.052 1.635.16 3.035-.272 4.2-1.29 1.175-1.02 1.87-2.56 2.08-4.622.134-1.303.02-2.46-.334-3.475-.347-1.02-.93-1.84-1.75-2.456-.81-.622-1.756-.985-2.837-1.09-1.536-.15-2.913.237-4.13 1.164-1.212.918-1.94 2.584-2.187 4.996z"/><path d="M293.423 132.163l-3.136-15.806 5.575-1.053c1.26-.238 2.234-.344 2.928-.32.968.036 1.834.264 2.596.687.994.544 1.81 1.325 2.447 2.344.645 1.013 1.106 2.223 1.385 3.63.238 1.203.306 2.293.202 3.275-.103.98-.317 1.82-.646 2.515-.33.688-.728 1.26-1.195 1.713-.462.446-1.054.83-1.776 1.152-.716.32-1.563.574-2.54.76l-5.84 1.103zm191.67 652.658l3.455-.652c1.066-.2 1.883-.457 2.447-.766.572-.308 1.004-.674 1.294-1.094.41-.59.67-1.33.785-2.217.12-.895.063-1.94-.174-3.132-.327-1.654-.86-2.87-1.592-3.646-.73-.788-1.522-1.257-2.377-1.41-.614-.106-1.56-.04-2.833.2l-3.4.643 2.395 12.076z"/><path d="M277.047 135.793l2.437-17.075 2.288-.52 10.3 14.187-2.42.55-3.002-4.323-6.714 1.523-.634 5.147-2.255.51zm200.424 643.81l5.445-1.236-2.71-3.96c-.823-1.205-1.46-2.2-1.91-2.993.033 1.052-.017 2.114-.154 3.19l-.67 5z"/><path d="M240.803 157.513l-3.73-16.854 1.967-1.258 14.673 9.863-2.08 1.33-4.34-3.053-5.77 3.686 1.218 5.047-1.937 1.238zm211.16 621.503l4.678-2.988-3.94-2.81c-1.198-.853-2.147-1.575-2.85-2.167.404.977.73 1.992.98 3.047l1.134 4.92z"/><path d="M199.74 240.86l-16.415-1.487.524-5.522c.117-1.245.286-2.19.505-2.83.305-.9.77-1.65 1.4-2.245.812-.78 1.808-1.325 2.99-1.638 1.174-.32 2.493-.414 3.955-.282 1.248.113 2.34.355 3.275.728.937.37 1.7.807 2.293 1.31.585.5 1.035 1.035 1.35 1.6.31.556.52 1.22.636 1.986.115.76.127 1.626.035 2.594l-.55 5.785zm205.145 543.933l.325-3.422c.1-1.055.078-1.893-.068-2.508-.144-.623-.383-1.13-.714-1.52-.466-.55-1.12-1.003-1.96-1.357-.847-.365-1.89-.602-3.128-.714-1.718-.155-3.06.004-4.03.473-.98.463-1.662 1.075-2.05 1.834-.278.547-.478 1.453-.597 2.713l-.32 3.368 12.542 1.135z"/><path d="M201.334 272.595l-16.913-4.963-.174-2.288 15.938-7.774.185 2.42-4.836 2.237.514 6.714 5.113 1.4.174 2.255zm185.9 510.357l-.416-5.444-4.425 2.01c-1.345.61-2.45 1.075-3.32 1.387 1.07.13 2.136.34 3.204.636l4.958 1.412z"/><path d="M221.683 315.826l-13.52 9.21-3.54-4.954c-.72-1.01-1.158-1.91-1.314-2.705-.168-.798-.086-1.56.24-2.293.316-.734.785-1.312 1.407-1.735.578-.395 1.232-.612 1.96-.653s1.472.14 2.226.545c-.33-.96-.36-1.853-.086-2.672.27-.826.798-1.508 1.585-2.044.633-.43 1.317-.7 2.054-.81.726-.11 1.372-.072 1.943.11.568.184 1.138.513 1.708.99.558.478 1.138 1.136 1.74 1.976l3.595 5.034zm137.78 474.857l-2.04-2.856c-.552-.775-1-1.294-1.347-1.56-.452-.35-.914-.532-1.387-.54-.478-.015-.953.14-1.426.462-.45.304-.767.678-.956 1.118-.192.444-.213.904-.057 1.378.15.478.565 1.192 1.243 2.14l1.885 2.64 4.086-2.783zm16.467-12.826l-2.35-3.287c-.402-.564-.707-.946-.912-1.144-.362-.353-.725-.606-1.09-.758-.366-.154-.773-.206-1.223-.158-.457.05-.9.226-1.33.518-.504.343-.852.767-1.04 1.27-.195.508-.206 1.036-.032 1.587.163.55.545 1.244 1.146 2.085l2.18 3.054 4.65-3.167z"/><path d="M240.882 336.55l-11.003 11.993-4.63-4.054c-.816-.714-1.403-1.298-1.763-1.75-.512-.626-.845-1.257-.997-1.892-.157-.628-.132-1.3.078-2.01.204-.715.58-1.37 1.125-1.966.935-1.02 2.06-1.593 3.375-1.72 1.31-.122 2.833.577 4.57 2.097l3.148 2.755 4.473-4.875 1.622 1.42zm103.652 455.41l-3.173-2.78c-1.048-.917-1.968-1.38-2.76-1.383-.79-.006-1.504.34-2.14 1.03-.46.503-.723 1.045-.785 1.63-.073.585.05 1.12.368 1.606.208.31.682.788 1.418 1.432l3.142 2.75 3.932-4.286z"/><path d="M267.44 353.804l-8.53 13.78-6.255-3.692c-1.256-.742-2.135-1.433-2.633-2.07-.503-.63-.756-1.374-.76-2.23-.003-.858.23-1.666.7-2.423.605-.98 1.438-1.612 2.5-1.9 1.064-.288 2.328-.125 3.793.493-.348-.524-.583-.973-.7-1.35-.243-.81-.382-1.726-.414-2.746l-.132-5.2 2.348 1.387.093 3.968c.032 1.148.088 2.046.17 2.692.08.648.208 1.14.382 1.484.167.338.374.626.62.866.185.17.518.395 1 .68l2.163 1.276 3.788-6.117 1.867 1.1zm61.208 439.882l-4.012-2.367c-.854-.505-1.572-.815-2.158-.93-.59-.108-1.127-.048-1.61.18-.485.236-.867.573-1.143 1.02-.403.65-.49 1.33-.263 2.04.222.7.856 1.362 1.9 1.978l4.465 2.635 2.82-4.557z"/></g></g></g></svg>