<svg xmlns="http://www.w3.org/2000/svg" height="480" width="640"><defs><clipPath id="a"><path fill-opacity=".67" d="M-85.648 0h682.67v512h-682.67z"/></clipPath></defs><g clip-path="url(#a)" fill-rule="evenodd"><path fill="#fff" d="M-159.705 0h959.438v480h-959.438z"/><path fill="#239f40" d="M-159.705 349.153h958.688v130.425h-958.688z"/><path fill="#cd1738" d="M-159.705 0h958.688v130.425h-958.688z"/><path fill="#ff0" d="M230.073 199.038l3.45 11.363 11.166-.25-9.265 6.944 3.68 11.04-9.167-7.066-8.897 7.066 3.594-11.313-9.177-6.67 11.39.08z"/><path fill="#ff0" d="M218.973 247.72l3.45 11.362 11.166-.252-9.265 6.945 3.68 11.04-9.167-7.066-8.897 7.065 3.594-11.313-9.177-6.672 11.39.08z"/><path fill="#ff0" d="M267.648 159.32l3.45 11.364 11.166-.252-9.264 6.945 3.68 11.04-9.167-7.066-8.897 7.067 3.593-11.313-9.178-6.672 11.39.08z"/><path fill="#ff0" d="M318.255 146.083l3.45 11.363 11.166-.252-9.263 6.945 3.68 11.04-9.167-7.067-8.897 7.066 3.593-11.314-9.177-6.672 11.39.08z"/><path fill="#ff0" d="M369.285 159.32l3.45 11.364 11.166-.252-9.263 6.945 3.68 11.04-9.167-7.066-8.897 7.067 3.593-11.313-9.177-6.672 11.39.08z"/><path fill="#ff0" d="M406.863 199.252l3.45 11.363 11.166-.252-9.265 6.945 3.68 11.04-9.167-7.066-8.897 7.066 3.594-11.313-9.177-6.672 11.39.08z"/><path fill="#ff0" d="M417.752 247.72l3.45 11.362 11.166-.252-9.264 6.945 3.68 11.04-9.167-7.066-8.897 7.065 3.593-11.313-9.177-6.672 11.39.08z"/><path d="M337.705 221.19c0 8.07-8.667 14.613-19.358 14.613s-19.357-6.542-19.357-14.613c0-8.07 8.667-14.613 19.357-14.613s19.358 6.543 19.358 14.613z" fill="#ff0"/><path fill="#ff0" d="M312.898 231.422h11.06v51.484h-11.06z"/><path d="M415.526 279.02c-4.813 10.212-11.29 13.836-21.86 13.553-18.503.44-22.684-13.15-25.096-19.15-6.54 8.62-10.258 12.045-21.113 11.838-15.467.347-23.275-8.457-29.04-25.102-5.766 16.54-13.575 25.343-29.042 24.997-10.856.207-14.573-3.22-21.112-11.838-2.412 6-6.593 19.59-25.095 19.15-10.572.283-17.05-3.34-21.382-13.697 5.03 14.462 10.012 22.555 25.455 23.06 13.99.167 20.395-7.934 23.426-13.475 10.077 5.353 11.113 6.542 25.4 6.207 10.664-.343 16.79-7.31 22.31-13.94 5.518 6.63 11.645 13.597 22.31 13.94 14.286.335 15.322-.854 25.398-6.207 3.032 5.54 9.437 13.642 23.425 13.474 15.442-.505 20.425-8.598 26.015-22.81z" fill="#ff0"/><path d="M271.704 293.925l5.05 6.997 9.68-.284-7.47 8.466-14.627.374-4.576-6.128 8.45-1.365 3.546-8.04" fill="#ff0"/><path d="M364.94 293.925l-5.05 6.997-9.68-.284 7.47 8.466 14.626.374 4.576-6.128-8.448-1.365-3.547-8.04" fill="#ff0"/><path d="M306.25 298.416c0-.038 6.644.037 6.644.037L318.48 294l5.454 4.397 6.587.095-5.925 8.756H312.14l-5.888-8.832z" fill="#ff0"/><path d="M390.29 329.606c-25.83-5.333-43.118-7.956-71.904-7.956s-46.073 2.623-71.74 7.892l-.035-11.136c25.703-5.317 42.99-7.942 71.776-7.942s46.074 2.625 71.775 7.942l.13 11.2z" fill="#ff0"/><path d="M328.424 221.098c0 3.168-4.527 5.736-10.113 5.736-5.584 0-10.112-2.568-10.112-5.736s4.528-5.736 10.113-5.736c5.587 0 10.114 2.568 10.114 5.736z" fill="#fff"/></g></svg>