<svg xmlns="http://www.w3.org/2000/svg" height="480" width="640" version="1"><defs><clipPath id="a"><path fill-opacity=".67" d="M-85.333 0h682.67v512h-682.67z"/></clipPath></defs><g fill-rule="evenodd" clip-path="url(#a)"><path fill="#e70013" d="M-40 0h720v480H-40z"/><path d="M441.817 239.85c0 66.877-54.214 121.09-121.09 121.09-66.875 0-121.088-54.214-121.088-121.09s54.213-121.088 121.088-121.088c66.876 0 121.09 54.213 121.09 121.09z" fill="#fff"/><path d="M320.638 320.072c-44.316 0-80.283-35.966-80.283-80.283s35.966-80.285 80.283-80.285c11.08 0 23.69 2.55 32.256 8.84-58.716 2.21-73.567 52.01-73.567 72.08s9.495 64.832 73.566 71.442c-7.29 4.7-21.176 8.204-32.255 8.204z" fill="#e70013"/><path fill="#e70013" d="M391.534 273.663l-36.474-13.3-24.122 30.405 1.384-38.788-36.378-13.552 37.326-10.667 1.636-38.787 21.684 32.205 37.393-10.425-23.92 30.57z"/></g></svg>