<svg xmlns="http://www.w3.org/2000/svg" height="480" width="640"><defs><clipPath id="a"><path fill-opacity=".67" d="M0 0h682.67v512H0z"/></clipPath></defs><g fill-rule="evenodd" clip-path="url(#a)"><path d="M0 0l325.838 205.797h394.44v68.6H325.84L0 480.182V-.003z"/><path d="M0 463.043l332.702-212.65H720.28v-20.58H332.7L0 17.154V48.02l312.122 192.07L0 432.17v30.87z" fill="#ff0"/><path d="M0 480.186l332.702-212.65H720.28v212.65H0z" fill="#40aa40"/><path d="M0 0l332.702 212.65H720.28V0H0z" fill="#ce0000"/><path d="M89.862 249.866c1.15.246 1.454.574 2.595-1.108.245-.843.96-2.026 1.583-3.075.832-1.372 1.197-1.923 1.98-.887.506.59 2.524-.517 3.36.052 1.293.853.515.733 1.575-.205.815-1.74.098-1.53-1.05-2.312-.805-.547-2.863.607-3.668.058.282-1.735.833-1.924 1.83-2.267.754.515 2.95-.412 3.63-.402.96.195 1.813.297 2.115-1.115.474-1 .268-.31-.112-1.035-.805-.548-2.863.606-3.668.058-1.046-.786-.874-1.083-.262-2.415.818-.454 1.427-.24 2.437.383 1.04.71 2.68-.69 3.593-.747.82-.94 1.79-1.258 1.177-2.393-.34-.863-.598-.96-1.725-1.175-1.15-.784-2.65.674-3.09-.507.914-1.314 1.255-1.037 2.363-.307.712.24 2.865-1.05 3.555-1.092 1.025-.302.528.855 1.252-1.702-.25-1.105-2.104.692-3.15.41-1.004.14-1.803-.21-1.897-1.292.015-1.456.736-1.56 1.77-1.35.91.157 2.963-.987 3.727-.975 1.087.572 1.432.354 2.288-.997.63-1.593-.07-.932-1.148-1.74-.805-.548-2.862.606-3.667.058.14-.587.396-1.302.945-1.592.794.152 1.476.112 2.475.728.982.424 2.6-1.486 3.442-2.128-.16-.904-1.767.394-2.745-.272-.62-.422-1.395-.863-1.59-1.403.556-1.59.285-1.508 1.808-1.005.81-.215 2.184-.212 1.252-1.702-.148-.24-.95-.15-1.65-.485-.844-.574-1.656-1.154-2.55-1.417-.645-.095-1.582-.298-2.092-.147-.054.943.182 1.54.127 2.642.42.685 1.214.696 1.38.94-.845.748-1.3.37-2.19.425-1.06-.722-.45-2.983-1.702-2.437.288.66.183 3.17.72 3.685.566.386 1.288.762 1.417 1.286-.902 1.393-1.243 1.317-2.325.652-.904-.616-.62-2.656-1.395-2.547-.953.728-.97.694-.772 1.71.05 1.332-.48 3.188.585 3.913 1.282.902 1.445.794.435 2.533-.696.848-1.086.696-1.883.315-.858-.584-.67-2.757-1.335-3.464-1.256-.744-.528-.72-1.575.205-.324 1.183-.09 1.492.435 2.533.426.647.398 2.864 1.125 3.003 1.174.665 1.215.53-.12 1.835-1.048.05-1.498.34-2.302-.61-.975-.73-.366-3.004-1.605-3.01-1.148.102-1.398.134-1.253 1.703.198 1.382-.315 3.56.795 4.375 1.04.47 1.668.434 2.033 1.065-.324.287-.934 1.17-1.29 1.358-.728.058-1.48-.442-2.303-.61-.98-.445-.536-1.323-1.32-1.857-.906.3-.92-.967-1.402.323.185 1.056-.172 2.438.817 3.112.805.55 1.513 1.67 2.318 2.218.923 1.09.56 1.28-.008 2.87-.77.026-1.673-.5-2.512-1.073-.805-.548-.665-2.69-1.47-3.237-.697-.682-.495-1.267-1.575.205-.102 1.04.092 1.115.36 1.843.03 1.062-.254 3.022.72 3.685.985.193 2.047.702 2.82.963.74.866.096.7-.735 2.056-.522 1.355-.528 1.594-1.35 2.275-.713.956-.995 1.376-.353 2.636z" fill="#ff0"/><path d="M113.388 251.288c.69-1.12 1.113-1.307.025-3.195-.677-.6-1.478-1.837-2.192-2.92-.927-1.437-1.287-2.046-.02-2.455.748-.297.54-2.88 1.4-3.535 1.305-1.024.882-.25.446-1.75-1.273-1.567-1.37-.724-2.55.175-.83.63-.594 3.275-1.423 3.905-1.483-1-1.435-1.66-1.35-2.855.776-.59.807-3.29 1.09-4.005.565-.937 1.002-1.8-.175-2.69-.73-.908-.18-.41-.997-.3-.828.63-.593 3.275-1.422 3.905-1.144.788-1.347.486-2.327-.7-.09-1.05.353-1.608 1.333-2.425 1.07-.815.442-3.116.758-4.105-.534-1.25-.437-2.403-1.727-2.215-.932.012-1.123.245-1.775 1.35-1.185.9-.446 3.08-1.71 3.065-.842-1.5-.45-1.75.668-2.625.507-.657.187-3.458.425-4.205.134-1.21 1-.214-1.062-2.015-1.117-.183-.21 2.507-.89 3.5-.275 1.12-.92 1.823-1.952 1.485-1.333-.606-1.14-1.41-.53-2.42.51-.9.284-3.537.602-4.34.963-.92.9-1.373.003-2.825-1.21-1.314-.885-.305-2.062.51-.828.63-.594 3.275-1.422 3.905-.484-.388-1.04-.947-1.085-1.645.46-.78.697-1.518 1.666-2.325.785-.87-.32-3.355-.573-4.505-.896-.198-.35 2.03-1.355 2.795-.637.484-1.356 1.127-1.93 1.115-1.238-1.232-1.273-.913-.197-2.32.128-.945.684-2.398-1.062-2.015-.28.06-.52.944-1.11 1.55-.868.66-1.728 1.285-2.33 2.125-.347.643-.91 1.553-.977 2.155.846.44 1.49.43 2.483.935.8-.168 1.13-1.004 1.42-1.08.348 1.196-.182 1.525-.49 2.49-1.09.83-2.926-.73-2.927.815.724-.038 2.99 1.09 3.68.73.582-.443 1.218-1.055 1.752-.98.92 1.518.712 1.85-.335 2.725-.93.707-2.693-.42-2.905.445.286 1.302.248 1.306 1.263 1.51 1.245.485 2.74 1.8 3.836.965 1.345-.992 1.31-1.208 2.505.565.5 1.08.204 1.43-.467 2.12-.883.67-2.808-.406-3.725.01-1.19 1.028-.876.267-.445 1.75.957.82 1.336.698 2.505.565.766-.19 2.795.738 3.215.025 1.084-.973.976-1.072 1.64.87-.377 1.13-.292 1.723-1.487 2.19-1.065.736-2.912-.83-3.415.48-.368 1.256-.44 1.532 1.063 2.015 1.35.35 3.148 1.775 4.345.93.85-.91 1.07-1.59 1.798-1.72.133.458.7 1.46.73 1.915-.24.793-1.002 1.385-1.488 2.19-.804.856-1.433.03-2.24.645-.09 1.08-1.26.583-.267 1.615 1.047.23 2.175 1.17 3.193.395.83-.63 2.144-.925 2.973-1.555 1.373-.537 1.404-.075 2.637 1.17-.286.826-1.134 1.568-1.997 2.225-.83.63-2.742-.385-3.57.245-.908.46-1.365.01-.445 1.75.917.528 1.063.353 1.84.365.99.397 2.678 1.492 3.68.73.574-.965 1.47-1.883 2.02-2.595 1.095-.435.683.18 1.596 1.61 1.036 1.1 1.254 1.204 1.55 2.35.592 1.14.864 1.61 2.282 1.44z" fill="#ff0"/><path d="M91.99 294.9c0-4.995-.776-9.99 0-9.99 43.935 0 54.918-29.978 54.918-49.963 0-19.984-15.262-39.968-43.936-39.968-32.953 0-43.936 19.522-43.936 39.967 0 19.984 16.476 34.973 32.953 34.973 21.967 0 27.46-4.996 43.935-24.98-5.492 24.98-32.953 34.974-43.936 34.974-21.97 0-43.938-14.99-43.938-44.965 0-24.98 16.477-49.96 54.923-49.96 32.953 0 54.92 24.98 54.92 49.96 0 34.972-27.46 59.952-65.906 59.952z" fill="#ff0"/></g></svg>