<svg xmlns="http://www.w3.org/2000/svg" height="480" width="640"><defs><clipPath id="a"><path fill-opacity=".67" d="M0 0h682.67v512H0z"/></clipPath></defs><g clip-path="url(#a)"><path fill-rule="evenodd" fill="#319208" d="M0 411.43h960v68.573H0z"/><path fill-rule="evenodd" fill="#de2010" d="M0 274.284h960v68.572H0z"/><path fill-rule="evenodd" fill="#ffd200" d="M0 342.853h960v68.572H0z"/><path fill-rule="evenodd" fill="#de2010" d="M0 137.147h960v68.57H0z"/><path fill-rule="evenodd" fill="#ffd200" d="M0 68.572h960v68.57H0z"/><path fill-rule="evenodd" fill="#319208" d="M0 0h960v68.572H0z"/><path d="M27.085 0v480L349.37 240 27.085 0z" fill-rule="evenodd"/><path fill-rule="evenodd" d="M0 0h27.428v480H0z"/><path d="M0 0v480l349.716-240L0 0z" fill-rule="evenodd"/><path fill-rule="evenodd" d="M0 205.716h960v68.57H0z"/><path d="M0 0v480l322.284-240L0 0z" fill-rule="evenodd" fill="#fff"/><g><path fill="#d62419" fill-rule="evenodd" d="M123.713 107.54l25.56 84.724 91.32.81-72.685 50.49 27.458 87.086-70.477-53.52-74.348 53.025 29.122-83.57-73.412-54.32 88.49 1.87z"/><path d="M47.135 155.91c1.554-2.8 1.865-4.356 9.953-7.778 10.575-30.793 37.636-18.662 52.567 23.95 13.685 5.91 95.49 66.875 94.247 70.297-.622 3.11-10.887.62-10.887.62s-16.174 69.054-16.485 69.054c-30.172-4.044-77.14-4.666-109.18-4.044.31-5.288-8.71-39.814-8.71-39.814s-7.777-2.488 5.288-28.927c13.997-33.283 16.796-87.406-16.796-83.36z" fill-rule="evenodd" stroke="#000" stroke-width="NaN" fill="#f7df00"/><path d="M74.81 143.46c0 1.89-1.532 3.422-3.422 3.422s-3.42-1.532-3.42-3.422 1.53-3.42 3.42-3.42 3.422 1.53 3.422 3.42z" stroke="#000" stroke-width="NaN" fill="none"/><path d="M108.72 172.084s-26.752 15.24-34.528 14.93" stroke="#000" stroke-width="NaN" fill="none"/><path d="M193.012 243c-1.866-1.556-99.22-6.222-95.18-39.193" stroke="#000" stroke-width="NaN" fill="none"/><path d="M113.385 243.62s10.575 6.22 19.595-9.954" stroke="#000" stroke-width="NaN" fill="none"/><path d="M125.204 243.31s7.465 6.842 18.352-8.087" stroke="#000" stroke-width="NaN" fill="none"/><path d="M58.954 268.197s6.843.933 8.088-3.11" stroke="#000" stroke-width="NaN" fill="none"/><path d="M91.295 308.32c0-.31-6.843-44.17-6.843-44.17 33.8 3.008 68.845 3.216 101.398 9.022" stroke="#000" stroke-width="NaN" fill="none"/><path d="M87.878 264.77l9.33 10.886 9.644-9.332 8.086 8.71" stroke="#000" stroke-width="NaN" fill="none"/><path d="M117.43 275.35l8.087-7.154 8.71 8.398" stroke="#000" stroke-width="NaN" fill="none"/><path d="M135.774 276.59l9.02-8.088 6.844 8.088" stroke="#000" stroke-width="NaN" fill="none"/><path d="M155.376 276.91l8.088-5.6 7.154 6.842" stroke="#000" stroke-width="NaN" fill="none"/><path d="M176.217 277.838l5.91-5.6" stroke="#000" stroke-width="NaN" fill="none"/><path d="M86.32 274.72l9.953 11.51 9.953-9.02 8.71 9.33 9.953-8.708 8.398 9.953 10.264-8.71s7.776 9.643 8.71 9.643 10.264-8.086 10.264-8.086l9.02 9.953 12.442-9.953" stroke="#000" stroke-width="NaN" fill="none"/><path d="M87.878 285.92s80.25 3.112 93.313 6.222" stroke="#000" stroke-width="NaN" fill="none"/><path d="M101.256 249.534s76.205 4.043 88.336 8.71" stroke="#000" stroke-width="NaN" fill="none"/><path d="M85.7 217.803c.622 4.665-4.977 20.84-10.886 26.44-8.088 6.53-7.155 20.216-7.155 20.216.932 5.598 13.063 4.976 14.62 2.177 1.243-12.753 14.928-15.553 14.928-15.553s18.975-5.287 27.062-21.15" stroke="#000" stroke-width="NaN" fill="none"/><path d="M123.955 258.236c0 2.233-1.81 4.044-4.044 4.044s-4.042-1.81-4.042-4.044c0-2.233 1.81-4.044 4.043-4.044s4.045 1.81 4.045 4.044z" stroke="#000" stroke-width="NaN" fill="none"/><path d="M142 259.794c0 2.234-1.812 4.044-4.045 4.044s-4.043-1.81-4.043-4.044c0-2.233 1.81-4.043 4.043-4.043s4.044 1.81 4.044 4.044z" stroke="#000" stroke-width="NaN" fill="none"/></g></g></svg>