<svg xmlns="http://www.w3.org/2000/svg" height="480" width="640"><defs><clipPath id="a"><path fill-opacity=".67" d="M-79.698 0h682.67v512h-682.67z"/></clipPath></defs><g clip-path="url(#a)" fill-rule="evenodd"><path fill="#fff" d="M-37.783 0h715.566v479.522H-37.783z"/><path d="M-36.2.578h713.326v202.585H-36.2z"/><path fill="#0061ff" d="M94.685 190.528h473.447v106.706H94.685z"/><path d="M677.295 1.643v478.36H320.37L677.295 1.643z" fill="#e20000"/><path d="M-36.555 1.643v478.36H320.37L-36.555 1.643z" fill="#e20000"/><path d="M487.564 190.63l-71.54-18.152 60.863-45.915-74.744 10.68 38.44-65.135-66.203 38.44 11.745-75.813L341.28 94.53l-18.154-69.405-20.287 71.542-44.848-60.864 12.812 77.95-66.2-40.578 38.44 65.133-72.61-11.745 59.796 44.848-74.745 19.22h332.082z" fill="#ffd600"/></g></svg>