<svg xmlns="http://www.w3.org/2000/svg" height="480" width="640" version="1"><g><path fill="#006" d="M0 0h640v480H0z"/><g><path d="M0 0v27.95L307.037 250h38.647v-27.95L38.647 0H0zm345.684 0v27.95L38.647 250H0v-27.95L307.037 0h38.647z" fill="#fff"/><path d="M144.035 0v250h57.614V0h-57.615zm-263.07 83.333v83.333H226.65V83.333h-345.685z" fill="#fff"/><path d="M0 100v50h345.684v-50H0zm155.558-188v250h34.568V-88h-34.568z" fill="#c00"/><path d="M0 250l115.228-83.334h25.765L25.765 250H0zm0-470l115.228 83.334H89.463L0-201.366v-18.633zm204.69 303.333L319.92 0h25.764L230.456 83.333H204.69zm-28.17 93.333L61.294 93.333h25.765l89.463 64.7v18.633z" fill="#c00"/></g><g fill-rule="evenodd" fill="#fff"><path d="M299.752 392.51l-43.65 3.797 6.013 43.404-30.186-31.762-30.187 31.763 6.014-43.403-43.65-3.796 37.675-22.362-24.24-36.493 40.968 15.514 13.42-41.712 13.418 41.71 40.97-15.513-24.242 36.493z"/><g><path d="M486.492 432.508l-10.535-15.853 17.806 6.742 5.825-18.124 5.825 18.124 17.806-6.742-10.536 15.853 16.367 9.718-18.962 1.65 2.617 18.85-13.117-13.794-13.117 13.794 2.618-18.85-18.963-1.65z"/><path d="M486.492 150.43l-10.535-15.856 17.806 6.742 5.825-18.12 5.825 18.12 17.806-6.742-10.536 15.855 16.367 9.716-18.962 1.65 2.617 18.85-13.117-13.794-13.117 13.794 2.618-18.85-18.963-1.65z"/><path d="M380.712 265.023l-10.535-15.853 17.806 6.742 5.825-18.124 5.825 18.124 17.806-6.742-10.536 15.853 16.367 9.718-18.962 1.65 2.617 18.85-13.117-13.793-13.117 13.794 2.618-18.85-18.963-1.65z"/><path d="M580.545 236.815l-10.557-15.853 17.82 6.742 5.783-18.124 5.854 18.124 17.77-6.742-10.506 15.853 16.36 9.718-18.97 1.65 2.61 18.85-13.117-13.794-13.116 13.793 2.61-18.85-18.935-1.65z"/><path d="M541.9 319.923l-10.366 6.424 2.912-11.84-9.316-7.863 12.165-.896 4.605-11.29 4.605 11.29 12.165.896-9.316 7.863 2.912 11.84z"/></g></g></g></svg>