<svg xmlns="http://www.w3.org/2000/svg" height="480" width="640" version="1"><g><path fill="#c00" d="M0 0h640v480H0z"/><g><path fill="#006" d="M0 0h512v256H0z"/><g><path fill="#fff" d="M0 0v28.622L454.757 256h57.24v-28.62L57.242 0H0zm511.998 0v28.62L57.24 256H0v-28.622L454.757 0h57.24z"/><path fill="#fff" d="M213.333 0v256h85.333V0h-85.333zm-401.666 85.333v85.333h512V85.333h-512z"/><path fill="#c00" d="M0 102.4v51.2h511.998v-51.2H0zm230.4-192.8v256h51.2v-256h-51.2z"/><path fill="#c00" d="M0 256l170.666-85.334h38.16L38.162 256H0zm0-482l170.666 85.334h-38.16L0-206.918v-19.08zm303.17 311.333L473.838 0h38.16L341.333 85.333h-38.16zm-58.815 95.333L73.69 95.333h38.16l132.505 66.253v19.08z"/></g></g><g><path d="M481.83 463.626c3.367.465 128.146-32.103 127.914-82.912V131.972H353.91v248.742c-.233 50.81 127.912 82.912 127.912 82.912z" fill-rule="evenodd" fill="#fff"/><path d="M-903.54 822.05c1.22 325.7-655.51 534.47-673.23 531.49 0 0-674.45-205.79-673.23-531.49 7.16-10.536 9.96-14.595 10.43-27.844 2.29-6.875 1.64-15.152 1.64-23.02v-23.02c-1.73-5.203-1.64-13.796-1.64-21.377-.22-5.805-1.64-15.455-1.64-16.444 1.28 9.47 3.02 14.092 6.57 1.644 2.51-6.278 3.92-11.44 6.58-19.732.29-8.094 1.64-14.587 1.64-23.02 0-7.972.38-15.56 1.65-21.377 2.53-2.072 4.74-5.72 8.22-3.287-.31 8.37-2.27 12.79-3.29 21.376v46.04c.16 5.44.91 9.983 3.29 13.155.29-8.095 1.64-14.587 1.64-23.02 1.9-5.69 3.07-13.14 6.58-18.09 1.99-7.393 5.22-13.5 8.22-21.375 2.51-7.807 5.04-13.192 6.58-19.732 3.63-4.077 7.64-11.014 11.51-14.8 8.45-5.43 5.95 2.76 3.29 9.867v23.02c5.8 1.658 2.09-2.334 6.58-6.576 1.58-6.084 5.31-14.347 8.22-19.733 2.92-4.74 6.7-9.218 9.86-14.8 3.42-2.1 12.53-8.07 13.16-8.22-3.65 3.823-6.79 9.364-9.87 14.798-1.26 5.818-1.64 13.405-1.64 21.376.6 15.794 3.82 3.08 6.58-3.287 3.35-2.744 1.82-4.597 8.22-4.933 9.69-6.53 6.58.646 4.93 8.22-1.31 7.352-1.64 14.842-1.64 23.022 0 8.924 1.54 12.746 1.64 21.376 0 7.582-.09 16.175 1.65 21.376 1.17 8.88 3.58 12.586 6.57 19.732 2.51 7.252 5.42 11.873 8.22 18.088 6.44 7.893 3.29.717 3.29-8.222v-46.04c3.02-5.158 3.89-11.446 8.22-16.444 1.65-6.02 4.65-10.675 8.23-14.8 2.45-3.908 6.16-8.806 8.22-13.154v23.02c0 8.18.33 15.67 1.64 23.02 2.26 7.62 3.93 12.287 4.94 19.733 4.29 2.78 5.91 6.903 9.86 9.866 1.99-7.598 3.29-14.388 3.29-23.02v-23.02c1.37-7.685 2.92-14.074 4.93-19.733 2.22-6.977 3.68 1.805 4.94 4.933 2.84 6.012 5.79 9.158 9.86 16.443 4.83 3.45 6.08 8.786 9.87 13.155.87 4.035 1.29 13.116 3.29 16.444 1.77-8.002 4.74-12.822 6.57-21.376 4.93-4.83 7.83-8.23 13.16-11.51 8.36-1.61 12.2-3.916 19.73-4.933 10.41 0 8.54 1.064 1.64 6.577-2.61 4.246-6.36 10.867-9.86 14.8-1.02 7.513-2.97 11.21-3.29 19.73.6 8.43 3.02 15.09 4.93 21.377 4.12-4.612 8.7-14.516 11.51-19.733 4.41-5.036 6.44-12.48 9.87-16.443 3.54-4.29 8.13-7 14.8-8.222 4.08-3.065 8.89-3.288 16.44-3.288 15.09 4.827 31.93 3.435 47.69 4.933 12.19 0 19.9-2.238 31.24-4.933 12.34-2.54 25.39-2.794 37.82-4.933 12.52 0 26.39-1.113 37.82 1.645h32.88c11.89 0 23.53-.245 34.53-1.644 13.27 0 26.77.606 39.47-1.644 14.64 0 28.33-1.158 42.75-1.644 19.75 0 38.05-2.356 57.55-3.288 14.92-.634 26.89-5.416 41.11-8.222 9.53-2.17 20.71-1.644 31.24-1.644 12.48 0 22.46 2.218 34.53 3.288 10.27 0 19.68.85 29.6 1.645H-1349.99c12.08 0 23.18.744 34.53 1.645 10.31 0 19.66.83 29.6 1.644h26.31c7.22.86 16.21 1.02 23.02 3.288 9.55 0 17.27 1.32 26.31 1.644 8.51.516 15.72 1.644 24.66 1.644 8.26.295 15.31 1.91 23.02 3.29 6.98.942 12.59 2.732 18.09 4.932 4.64 2.197 12.24 5.28 16.44 8.222 9.13 0 13.09-1.725 19.74-3.29 4.58-3.536 9.64-3.653 9.86-6.576-5.07 4.52-9.44 5.577-11.51 13.154-1.03 2.565-4.34 12.035 0 9.866 6.04-3.525 10.35-7.542 13.16-13.154 4.7-6.623 6.86-10.678 11.51-16.444 3.44-6.616 9.21-10.764 13.15-14.798 4.6-6.76 7.28-10.17 3.29 1.644-1.41 7.913-2.72 14.015-3.29 21.376-.94 6.975-2.73 12.587-4.93 18.088 0 5.08-.42 10.4 1.64 13.154 7.59-2.167 15-6.207 19.73-9.866 6.51-1.774 11.97-5.252 18.09-9.866 8.1-2.025 13.33-2.29 14.8-4.933-4.43 4.523-8.65 8.448-13.15 11.51-2.19 4.613-5.98 7.346-4.94 11.51 5.11-1.11 14.94-1.69 19.73-3.288 7.71-2.667 11.16-4.304 19.74-6.577 14.765.192 2.498 2.24-4.94 6.577-4.46 3.036-9.07 7.542-14.8 11.51-3.67 6.82-6.16 12.17-9.86 16.444-1.93 7.158-4.59 12.248-8.22 16.444-1.46 6.188-3.54 11.66-4.94 18.088-1.42 10.552-5.32 13.11 6.58 8.22 5.1-5.56 10.03-10.195 13.16-14.798 3.03-4.728 7.17-10.545 11.51-14.8 2.26-6.385 5.81-8.91 9.86-16.442 3.66-3.837 8.797-9.617 13.157-14.8 3.764-3.59 8.946-7.382 14.798-9.865 9.013-3.004 7.87-8.78 4.933 1.645-3.466 4.196-5.575 9.794-6.577 16.443-3.57 14.82.356 9.164 6.578 4.933 5.34-4.412 3.347-7.48 11.51-9.866 1.802-1.517 10.547-6.293 8.222-1.644-1.116 7.408-3.903 10.798-6.577 16.443-3.615 6.525-6.483 11.715-8.222 18.088-2.908 3.88-5.026 8.337 0 6.578 8.472-1.883 11.08-4.92 16.445-8.222 3.2-7.303 6.352-9.63 9.866-14.8-2.012 8.053-4.9 13.58-6.577 19.733-3.786 4.37-5.75 9.307-8.22 16.443-3.604 7.016-4.822 10.37-4.934 19.732-2.216 7.477-5.064 12.895-1.646 19.732 5.21-5.417 9.865-8.835 13.155-16.443 3.385-4.098 5.153-10.394 6.576-16.442 1.567-6.658 3.942-10.753 4.933-18.088 2.29-6.875 1.644-15.153 1.644-23.02v-23.02c-.094-7.86-2.588-14.366 0-19.733 5.006 5.11 6.258 9.69 9.866 16.443 2.11 8.442 5.844 13.214 6.577 21.376 3.342 4.915 3.84 10.934 6.577 18.088.577 8.072 2.097 15.085 0 21.376-.496 5.29-3.066 9.066 0 13.155 5.308-4.385 5.538-10.92 6.577 3.29 0 7.197.253 14.07.837 21.265z" fill-rule="evenodd" fill-opacity=".996" transform="matrix(.19 0 0 .156 781.609 252.146)" stroke="#002b00" stroke-width="11.125" fill="#007a0f"/><path d="M-2178.7 685.68c-.62 4.245-1.64 17.06-1.64 26.31 0 8.38.75 14.815 1.64 21.375.55 5.92 1.88 6.805 0 11.51" transform="matrix(.19 0 0 .156 781.609 252.146)" stroke="#002b00" stroke-width="11.125" fill="none"/><path d="M-2154.1 672.52c.63 4.245 1.65 17.062 1.65 26.31 0 8.735-1.08 14.022-1.65 21.376-.29 8.08-1.64 12.433-1.64 21.376v6.577" transform="matrix(.19 0 0 .156 781.609 252.146)" stroke="#002b00" stroke-width="11.125" fill="none"/><path d="M-2172.2 759.67c1.55 0 .93 4.205 1.64 9.866.95 6.998 2.51 12.974 4.93 18.088.35 9.41 2.15 11.425 8.23 14.8 5.87 5.787 8.03 9.684 11.51 14.798 4.19.74 4.91 1.85 6.57 4.933" transform="matrix(.19 0 0 .156 781.609 252.146)" stroke="#002b00" stroke-width="11.125" fill="none"/><path d="M-2229.7 809h1.64c8.48 1.413 20.16 1.238 26.31 3.29 6.33 1.468 13.95 4.537 18.09 8.22 6.65 7.382 9.26 12.74 18.08 16.444 7.4 4.315 14.86 5.888 23.03 8.22 7.59 3.203 12.6 5.625 18.08 8.223 7.81 3.994 14.04 8.476 23.02 9.866h23.02c7.7 0 12.64.26 16.45-3.29l-16.45 3.29c7.7 0 12.64.26 16.45-3.29" transform="matrix(.19 0 0 .156 781.609 252.146)" stroke="#002b00" stroke-width="11.125" fill="none"/><path d="M-2200.1 927.39H-2147.48c3.39 7.075 6.48 9.284 13.16 11.51 5.33 3.905 12.28 6.004 19.73 6.577h3.29" transform="matrix(.19 0 0 .156 781.609 252.146)" stroke="#002b00" stroke-width="11.125" fill="none"/><path d="M-2185.3 955.35c4.47-.92 17.27-4.287 26.31-4.933 9.62 0 14.8 2.073 19.73 6.577 5.04 3.425 7.99 6.602 14.8 9.866 7.27 2.51 14.62 3.29 23.02 3.29.78 2.318.48 1.643 3.29 1.643" transform="matrix(.19 0 0 .156 781.609 252.146)" stroke="#002b00" stroke-width="11.125" fill="none"/><path d="M-2163.9 988.23h29.6c5.9 2.794 10.77 3.15 13.15 9.865 6.82 5.74 9.83 9.5 19.73 9.87 3.81 1.97 11.83 1.64 18.09 1.64" transform="matrix(.19 0 0 .156 781.609 252.146)" stroke="#002b00" stroke-width="11.125" fill="none"/><path d="M-2085 1045.8h29.59c9.66.98 16.51.28 21.38 6.58 5.42 7.8 9.97 6.08 16.44 9.87 5.7 0 9.45 1.18 14.8 1.64" transform="matrix(.19 0 0 .156 781.609 252.146)" stroke="#002b00" stroke-width="11.125" fill="none"/><path d="M-2014.3 1091.8c4.25.62 17.06 1.64 26.31 1.64 9.08 1.23 9.76 3.39 14.8 9.87 2.74 9.6 7.48 8.92 18.09 9.86 7.2 0 12.97-.53 18.09-1.64" transform="matrix(.19 0 0 .156 781.609 252.146)" stroke="#002b00" stroke-width="11.125" fill="none"/><path d="M-2149.1 762.96c.55.548 1.09 1.096 1.64 1.644-3.73-3.73-1.93-2.363 1.65 6.578.62 8.063 2.05 12.855 4.93 19.732 3.91 5.61 7.18 10.98 9.87 16.443 2.92 6.68 6.81 11.845 11.51 16.443.69 2.087 1.2 2.593 3.28 3.29" transform="matrix(.19 0 0 .156 781.609 252.146)" stroke="#002b00" stroke-width="11.125" fill="none"/><path d="M-2114.6 769.54c.84 0 5.23 5.086 8.22 9.866 5.7 4.074 10.23 9.203 14.8 14.8 5.13 3.385 11.11 7.55 18.09 11.51 7.98 2.763 10.74 5.002 18.08 8.22 3.87 3.35 10.82 5.813 16.45 8.223 2.42 0 1.25-.39 3.29 1.643" transform="matrix(.19 0 0 .156 781.609 252.146)" stroke="#002b00" stroke-width="11.125" fill="none"/><path d="M-2076.8 753.1c-1.8 0 0 4.24 0 9.866 2.75 6.088 7.01 12.12 11.51 18.088 5.21 3.442 10.49 10.505 14.8 16.443 2.65 4.223 5.7 7.31 11.51 9.866" transform="matrix(.19 0 0 .156 781.609 252.146)" stroke="#002b00" stroke-width="11.125" fill="none"/><path d="M-2037.3 739.94c.06 5.876 1.62 16.938 3.29 26.31 2.86 6.823 4.98 11.276 6.58 18.087 1.03 6.853 3.62 12.832 8.22 18.088 3.77 4.78 10.23 9.5 16.44 11.51 6.35 2.72 10.81 4.826 19.73 4.933 6.56-.886 13-1.644 21.38-1.644h13.16" transform="matrix(.19 0 0 .156 781.609 252.146)" stroke="#002b00" stroke-width="11.125" fill="none"/><path d="M-1999.5 753.1c.14 5.28-1.4 10.768 4.93 14.8 2.13 6.658 6.84 14.363 11.51 21.375 4.17 5.286 9.96 9.137 18.09 9.866 5.77 1.34 14.5 2.64 21.38 4.934 6.24 4.06 12.78 10.903 21.37 13.155l-21.37-13.156c6.24 4.06 12.78 10.903 21.37 13.155" transform="matrix(.19 0 0 .156 781.609 252.146)" stroke="#002b00" stroke-width="11.125" fill="none"/><path d="M-1984.7 753.1c4.35 5.55 16.15 17.8 24.67 26.31 5.88 4.86 11.94 8.735 18.08 11.51 7.52 1.163 15.81 4.454 21.38 6.577 3.59 1.537 4.61 3.012 9.86 3.29" transform="matrix(.19 0 0 .156 781.609 252.146)" stroke="#002b00" stroke-width="11.125" fill="none"/><path d="M-1961.7 733.36l1.65 1.645c-4.68-4.672-2.25-2.142 8.22 6.577 6.14 4.954 8.58 6.28 9.86 14.8 3.02 2.853 3.99 7.923 8.22 4.932-.52-9.732-5.03-13.12 3.29-8.222 3.03 6.332 6.75 11.464 11.51 14.8 3 3.172 6.52 4.742 13.16 4.932" transform="matrix(.19 0 0 .156 781.609 252.146)" stroke="#002b00" stroke-width="11.125" fill="none"/><path d="M-1790.7 955.35c4.13.516 21.43.566 29.6 3.29 7.35 1.31 14.84 1.643 23.02 1.643 8.32-.308 13.02-2.784 21.38 0 9.59.738 10.67 3.03 18.08 9.866 6.11 4.14 8.73 8.81 13.16 16.442 1.94 1.254 14.26 8.828 4.93 3.29" transform="matrix(.19 0 0 .156 781.609 252.146)" stroke="#002b00" stroke-width="11.125" fill="none"/><path d="M-1798.9 915.88c5.51 2.905 18.24 10.32 24.66 14.8 8.63 1.916 11.11 4.66 19.74 6.576 8.8-.104 14.34-2.338 21.37-3.288 5.52-1.84 14.39-2.33 21.38 0 7.45 2.58 12.13 4.848 18.09 8.22 3.26 4.08 13.55 11.504 3.28 3.29-2.74-3.837-3.83-4.385-8.22-6.577" transform="matrix(.19 0 0 .156 781.609 252.146)" stroke="#002b00" stroke-width="11.125" fill="none"/><path d="M-1764.4 912.6c6.03.172 21.04 2.167 31.24 3.288 6.88 2.293 15.55 2.755 23.02 3.29 8.66 1.545 15.09 2.11 21.38 6.576 4.43 2.98 10.56 8.747 14.8 13.155 9.3 4.03 3.64 2.988-3.29-3.29" transform="matrix(.19 0 0 .156 781.609 252.146)" stroke="#002b00" stroke-width="11.125" fill="none"/><path d="M-1739.7 897.8c6.48 0 16.65 1.448 26.31 3.288 3.82 4.62 9.98 5.905 18.09 8.222 5.73 1.4 9.92 4.725 16.44 8.222" transform="matrix(.19 0 0 .156 781.609 252.146)" stroke="#002b00" stroke-width="11.125" fill="none"/><path d="M-1616.4 1021.1l1.64-1.64c-3.62 3.62-2.4 1.79 6.58 0 9.97-2.69 19.28-3.77 29.6-1.65 8.04 0 15.89.14 23.02-1.64 3.3-2.48 7.45-1.31 9.86-4.94 4.74-.83 4.58-4.61 4.94 0" transform="matrix(.19 0 0 .156 781.609 252.146)" stroke="#002b00" stroke-width="11.125" fill="none"/><path d="M-1611.4 1047.4c8.69-.44 26.41-1.55 36.18-8.22 6.37-1.94 12.67-5.53 19.73-6.58 8.38 0 15.17-1.08 23.02-1.64 9.47-.51 17.94-1.65 27.95-1.65h24.67c8.29 0 15.43.74 23.02 1.65 6.47 1.13 14.19 4.91 18.09 8.22 5.84 1.27 12.44 1.88 18.08 0" transform="matrix(.19 0 0 .156 781.609 252.146)" stroke="#002b00" stroke-width="11.125" fill="none"/><path d="M-1442.1 1193.8c.55-.54 1.09-1.09 1.64-1.64-3.38 3.38-2.34 1.99 4.93-1.64 9.8 0 18.97-.48 27.96-1.65 8.59.28 17.5 1.19 23.02 4.93 7.66 2.47 15.09 3.36 21.37 6.58 8.01 2.96 13.02 4.97 21.38 6.58 4.48 2.24 15.13 1.73 21.38 3.29 8.04 0 15.89.13 23.02-1.65 8.55-1.83 13.37-4.8 21.37-6.57 5.35-5.16 12-8.15 19.74-9.87 3.18-3.85 7.65-8.33 11.51-11.51l-11.51 11.51c3.18-3.85 7.65-8.33 11.51-11.51" transform="matrix(.19 0 0 .156 781.609 252.146)" stroke="#002b00" stroke-width="11.125" fill="none"/><path d="M-1220.1 787.63c6.1-.42 18.58-2.76 26.31-6.577 6.46-1.82 14.22-5.025 18.09-8.222 6.51-1.776 10.7-4.02 18.09-6.576 6.89-4.925 14.68-9.035 18.08-13.155 9.14-4.186 11.31-6.837 14.8-14.8 1.86-2.48.95-4.152 3.29-4.933" transform="matrix(.19 0 0 .156 781.609 252.146)" stroke="#002b00" stroke-width="11.125" fill="none"/><path d="M-1083.6 733.36c-.84 0-5.23 5.086-8.22 9.866-5.65 5.273-11.05 12.922-14.8 19.732-4.39 2.986-8.99 7.95-14.8 11.51-7.43 6.356-13 10.315-21.38 14.8-6.2 4.133-11.79 6.456-19.73 8.22-7.7 2.668-11.15 4.305-19.73 6.578" transform="matrix(.19 0 0 .156 781.609 252.146)" stroke="#002b00" stroke-width="11.125" fill="none"/><path d="M-1049.1 738.3c-.55.548-1.1 1.096-1.64 1.644 4.12-4.126 2.12-2.248-4.94 6.578-5.63 5.145-11.9 12.18-14.8 16.443-4.66 3.108-12.7 11.297-18.08 14.8-7.3 6.077-14.09 8.025-19.73 13.154-8.1 3.12-13.17 6.54-21.38 9.865-4.69 2.222-11.82 3.87-16.44 6.577h-4.94" transform="matrix(.19 0 0 .156 781.609 252.146)" stroke="#002b00" stroke-width="11.125" fill="none"/><path d="M-1059 797.49c-.54.548-1.09 1.096-1.64 1.644 3.9-3.904 2.04-2.31-3.29 6.577-5.89 4.087-8.52 7.958-14.8 11.512 0 2.192.55 1.644-1.64 1.644" transform="matrix(.19 0 0 .156 781.609 252.146)" stroke="#002b00" stroke-width="11.125" fill="none"/><path d="M-988.24 769.54c0 .482-3.036 4.807-4.933 9.866-4.54 4.633-6.777 11.236-11.508 16.444-3.62 7.555-6.47 9.195-13.16 16.443-4.38 2.814-11.43 7.306-14.8 11.51-6.74 2.956-11 6.373-18.08 8.222" transform="matrix(.19 0 0 .156 781.609 252.146)" stroke="#002b00" stroke-width="11.125" fill="none"/><path d="M-1044.2 845.18c6.05-2.192 16.37-7.738 23.02-11.51 5.59-3.013 12.12-7.204 16.45-9.866 2.19-6.174 7.13-9.368 14.797-13.155 3.3-4.855 8.09-7.803 13.154-13.155 5.01-2.754 6.665-6.426 9.867-9.866" transform="matrix(.19 0 0 .156 781.609 252.146)" stroke="#002b00" stroke-width="11.125" fill="none"/><path d="M-1047.4 853.4c6.91-.06 19.93-.15 27.95-4.933 8.64-2.708 11.64-6.043 19.73-8.222 4.513-3.16 11.572-6.276 16.444-9.866l-16.443 9.865c4.513-3.16 11.572-6.276 16.444-9.866" transform="matrix(.19 0 0 .156 781.609 252.146)" stroke="#002b00" stroke-width="11.125" fill="none"/><path d="M-919.18 812.29c-3.606 5.99-11.343 19.205-19.732 24.665-3.205 3.88-11.49 7.53-16.444 11.51-5.166 2.447-12.76 5.717-19.732 9.866-7.788 1.67-13.168 3.717-19.73 6.578" transform="matrix(.19 0 0 .156 781.609 252.146)" stroke="#002b00" stroke-width="11.125" fill="none"/><path d="M-1050.7 897.8c5.66-2.39 16.06-8.195 24.66-11.51 4.1-2.048 8.2-1.645 13.16-1.645" transform="matrix(.19 0 0 .156 781.609 252.146)" stroke="#002b00" stroke-width="11.125" fill="none"/><path d="M-1012.9 907.66c.57 0 4.97-4.13 9.86-6.578 6.454-4.053 13.696-8.155 19.734-11.51 6.845-1.786 14.33-6.823 23.02-8.222 4.438 2.22 14.728 2.814 21.377 3.29h9.867" transform="matrix(.19 0 0 .156 781.609 252.146)" stroke="#002b00" stroke-width="11.125" fill="none"/><path d="M-991.53 920.82c7.102-.182 17.88-.32 24.665-4.933 5.422-.93 10.272-2.506 13.155-4.933" transform="matrix(.19 0 0 .156 781.609 252.146)" stroke="#002b00" stroke-width="11.125" fill="none"/><path d="M-1108.3 998.1c1.36.072 9.17 1.584 13.15 3.29 5.72 2.86 8.51 6.15 14.8 9.86 5.45 4.78 12.54 6.27 21.37 6.58h23.03c9.67-.55 14.08-2.96 23.02-3.29 7.71 0 13.062-1.08 18.084-3.29" transform="matrix(.19 0 0 .156 781.609 252.146)" stroke="#002b00" stroke-width="11.125" fill="none"/><path d="M-1126.4 1017.8c6.77.18 10.95 1.22 18.09 4.93 8.07 7.02 13.64 11.21 23.02 13.16 7.35.56 12.64 1.64 21.37 1.64 8.05 0 15.9-.13 23.02 1.65 6.36.18 8.03 1.64 14.8 1.64" transform="matrix(.19 0 0 .156 781.609 252.146)" stroke="#002b00" stroke-width="11.125" fill="none"/><g><path d="M74.995 82.955c-1.044 0-2.29.08-2.907-.29-1.18-.217-1.99-.696-2.616-1.454-1.078-.747-1.423-1.44-2.325-2.324-.29-1.064-.822-1.887-1.454-2.616.02-1.647.31-2.236.872-3.198 1.375-.476 1.918-.86 3.488-1.163.757-.515 1.958-1.026 2.907-1.454-.436-.738-.894-1.183 0-2.035.736-.7 1.575-1.254 2.907-1.452 1.48.134 1.822.696 2.616 1.453 1.423 0 2.81-.023 4.07.292 1.17.32 1.91.72 3.197 1.453 1.18.394 1.727.784 2.326 2.035.935.91.316 1.513.29 2.907-.162 1.92-.79 1.79-1.744 2.616 1.316.673 2.317.818 3.78.872h8.138c1.364-.372 1.547-.817 2.034-2.035.368-.92.88-2.116 1.163-3.197.644-.744.98-1.694 1.744-2.326.525-1.095 1.198-1.946 2.036-2.616.818-1.185 1.522-1.704 2.616-2.324.903-1.06 1.703-1.403 0-1.454-1.39.244-1.977.92-3.488 1.163-.292-.73-.235-1.67.29-2.325.383-1.445 1.13-2.247 1.454-3.49.678-.78.905-1.843 1.453-3.196-.096-1.267-.338-2.374-.58-3.488-.406-1.014-.582-1.907-.582-3.488.292-1.238.568-1.984 1.454-2.616.537-.966 1.133-1.464 2.325-2.035.583-.817 1.396-1.28 2.326-1.744.653-.79 1.42-1.24 2.034-2.325.362-1.02.71-1.997.872-3.198.406-.813.537-2.54.58-3.78-.018-1.542-.194-2.377-.87-3.196-.362-.903-.643-2.14-1.164-2.907 0-1.58.176-2.474.58-3.488.31-1.55.292-1.948.292-1.164v-.29c1.662.978 2.116 1.38 4.07 1.453.815 0 1.34-.083 2.034-.292 1.652.18 2.27.185 2.326-1.744.258-1.035.49.355.58.872.644 1.286.695.47 1.454-.29.477-1.43 1.01-.6 2.035-.29.116-.35.493-.494.872-.873.217 1.09.538 2 1.453 2.325 1.467-.268 1.544-.85 1.744-2.325 1.04-.215 1.12-.544 1.162.872.766.158 1.377.492 2.034 0 .258-.646.555-1.207.872-1.744.378 1.703.513 1.968 2.326 2.036.586-.555.837-.872.872-2.035.658.798 1.49 1.327 2.906 1.454 1.17.11 1.016.543 2.326.582.332.702.483 1.955 1.162 2.616 1 .642 2.352.868 2.907.58 0-.808-.11-1.634.29-2.034 1.14-.38 2.13-.088 3.198.29 1.474.403 1.454.753 1.454 2.617-.1 1.404-.272 2.762-.872 3.488-.236 1.086-.265 2.593-.872 3.78-.502 1.623.43 1.712.58 3.487.235.982-.272 2.28-.29 3.78.02 1.61-.006 2.41 1.163 2.906.67.988 1.494 1.477 2.325 2.325.987 1.13 1.43 1.633 2.036 2.617 1.053 1.206 1.206 1.717 2.035 2.907.486.97.937 1.673 1.454 2.907.35 1.05.235 2.41 0 3.49-.93.733-1.396 1.59-1.453 3.196-.41.82-.498 2.416-.58 3.488.284 1.21.875 2.006 1.453 2.907.606.758 1.603 1.544 2.325 2.036.636.733 1.08 1.628 1.744 2.325.383 1.26.852 1.825.872 3.49.243 1.113.484 2.22.582 3.488.676.638.594.872 2.035.872.895.523 1.993.58 3.49.58 1.3.1 2.233.292 3.777.292 1.184 0 2.42-.007 3.198-.29.607-.953.95-2.58 1.453-3.49.098-1.266.34-2.374.582-3.487.685-.72 1.19-1.462 2.034-2.035 1.202-.617 1.964-.816 3.49-.872 1.407.4 2.374.777 3.196-.29 1.128-.31 1.833-.582 3.488-.582 1.722-.43 2.18-.198 2.907.872.238 1.094.47 2.35.872 3.197.66.45 1.693 1.18 2.325 1.744.408.86.582 1.473.582 2.906.523.873.122 1.89 0 2.907-.684.717-1.21 1.517-2.035 2.325-.355.432-.777.753-1.454.872l.58.582-10.17 10.172-106.09-.872-4.944-12.208z" fill-rule="evenodd" fill-opacity=".996" transform="matrix(1.452 0 0 1.402 292.902 114.522)" stroke="#2b2b2b" stroke-width="1pt" fill="#d40f0f"/><path d="M129.93 29.47l.29.29c-.73-.73-.373-.393.872 1.163v4.07c0 1.655.274 2.36.582 3.488.397.326.474.838.872 1.164" transform="matrix(1.452 0 0 1.402 292.902 114.522)" stroke="#2b2b2b" stroke-width="1pt" fill="none"/><path d="M138.65 29.76v.292c0-.856.05-.374-.872 1.162-.586 1.345-.58 2.153-.29 3.49.306.918.29 2.437.29 3.777-.155.467-.136.118-.29.583" transform="matrix(1.452 0 0 1.402 292.902 114.522)" stroke="#2b2b2b" stroke-width="1pt" fill="none"/><path d="M144.76 37.318h-.29c.855 0 .373-.05-1.163.872-1.293.813-1.79 1.24-3.198 1.454-.948.928-1.504 1.142-3.198 1.162-.137.41-.085.29-.582.29" transform="matrix(1.452 0 0 1.402 292.902 114.522)" stroke="#2b2b2b" stroke-width="1pt" fill="none"/><path d="M137.78 42.55v.292c.383-.144 1.727-.515 2.325-.582.728-.6 1.907-.838 2.616-1.453 1.117-.144.76-.544 2.036-.582l-2.035.582c1.117-.144.76-.544 2.036-.582" transform="matrix(1.452 0 0 1.402 292.902 114.522)" stroke="#2b2b2b" stroke-width="1pt" fill="none"/><path d="M142.14 43.713c.496 0 2.54.085 3.488.29h1.453" transform="matrix(1.452 0 0 1.402 292.902 114.522)" stroke="#2b2b2b" stroke-width="1pt" fill="none"/><path d="M108.42 50.4h.29c-.784 0-.38.017 1.164-.292 1.3-.1 2.38-.33 3.78-.58 1.552-.39 2.17-.393 3.196-1.455 1.164-.776 1.548-1.454 1.744-2.906.202-.93.326-2.03.872-2.616" transform="matrix(1.452 0 0 1.402 292.902 114.522)" stroke="#2b2b2b" stroke-width="1pt" fill="none"/><path d="M121.21 46.33v1.453c0 1.496.058 2.594.582 3.488.597 1.25.973 1.796 2.034 2.327l2.907 1.163h.872" transform="matrix(1.452 0 0 1.402 292.902 114.522)" stroke="#2b2b2b" stroke-width="1pt" fill="none"/><path d="M128.48 53.306h1.454c2.154 0 4.02.232 6.104.29h4.07c1.43-.05 2.578-.29 4.07-.29h2.905" transform="matrix(1.452 0 0 1.402 292.902 114.522)" stroke="#2b2b2b" stroke-width="1pt" fill="none"/><path d="M121.79 43.423h1.453c1.203-.4 2.817-.357 4.07-.58.516.277.874.622 1.453.87" transform="matrix(1.452 0 0 1.402 292.902 114.522)" stroke="#2b2b2b" stroke-width="1pt" fill="none"/><path d="M122.96 39.353h.29c-.783 0-.386-.02 1.164.29.718.623 1.426.984 2.616 1.163" transform="matrix(1.452 0 0 1.402 292.902 114.522)" stroke="#2b2b2b" stroke-width="1pt" fill="none"/><path d="M123.83 36.446h.29c-.783 0-.386-.02 1.164.29.748.764 1.947 1.478 2.616 2.326.636.376 1.017.83 1.744 1.163" transform="matrix(1.452 0 0 1.402 292.902 114.522)" stroke="#2b2b2b" stroke-width="1pt" fill="none"/><path d="M115.69 53.887v.29c0-.855-.05-.373.872 1.163.097 1.356.21 2.918.872 3.78.192 1.413.234 1.8-.29 2.906-.452 1.016-1.033 2.32-1.744 2.907-.58.853-1.443 1.206-2.035 2.034-.758.53-1.53 1.583-2.035 2.326-1.113 1.24-1.36 1.96-2.325 2.616-.374 1.12-.91 1.663-1.454 2.906-.87 1.028-1.512 2.024-2.033 3.197-.408.95-.465 2.557-.872 3.78v.87" transform="matrix(1.452 0 0 1.402 292.902 114.522)" stroke="#2b2b2b" stroke-width="1pt" fill="none"/><path d="M112.49 80.048v-1.453c0-1.466.13-2.728.29-4.07.446-1.04.878-2.202 1.163-3.488.598-.88.852-1.78 1.454-2.907.31-1.136.89-2.017 1.744-2.616.365-1.092.828-1.734 1.454-2.907.457-.93 1.373-2.07 1.744-3.488.444-.528.606-1.394.872-2.326" transform="matrix(1.452 0 0 1.402 292.902 114.522)" stroke="#2b2b2b" stroke-width="1pt" fill="none"/><path d="M123.83 58.247v.29c0-.812.036-.38-.58 1.163-.448 1.246-1.14 2.286-1.454 3.488-.605 1.302-1.014 2.702-1.454 4.07-.232 1.3-.29 2.623-.29 4.07v4.07c0 1.486-.274 2.602-.29 4.07-.372.74-.51 1.523-.292 1.742" transform="matrix(1.452 0 0 1.402 292.902 114.522)" stroke="#2b2b2b" stroke-width="1pt" fill="none"/><path d="M127.03 59.41c-.275 0-.166.743-.29 1.744-.106 1.37-.292 2.417-.292 4.07-.295 1.378-.704 2.54-.872 3.778-.41 1.382-.813 2.142-.872 3.78.595.874 1.348 1.5 1.744 2.906.47.957 1.018 1.938 1.454 3.197 0 1.578.272 2.254.29 3.78 0 .716-.056 1.165.29 1.743" transform="matrix(1.452 0 0 1.402 292.902 114.522)" stroke="#2b2b2b" stroke-width="1pt" fill="none"/><path d="M132.84 61.445v.29c0-.812.036-.38-.58 1.163-.92 1.246-1.504 2.334-2.036 3.198-.442 1.376-.943 2.69-.58 4.07.094 1.33.344 2.91.87 3.778.054 1.428.292 2.198.292 3.78.1 1.3.29 2.234.29 3.778 0 1.183-.006 2.42-.29 3.197-.547.233-.407.497-1.163.58" transform="matrix(1.452 0 0 1.402 292.902 114.522)" stroke="#2b2b2b" stroke-width="1pt" fill="none"/><path d="M129.06 54.468c-.366 0 .17.778.29 1.744.402.67.29 2.09.29 3.198" transform="matrix(1.452 0 0 1.402 292.902 114.522)" stroke="#2b2b2b" stroke-width="1pt" fill="none"/><path d="M134.29 55.34h.29c-.91 0-.366-.06 1.163 1.163.217 1 .436 2.12.58 3.197" transform="matrix(1.452 0 0 1.402 292.902 114.522)" stroke="#2b2b2b" stroke-width="1pt" fill="none"/><path d="M140.4 54.468v1.453c.3 1.396.58 2.484.58 4.07l-.58-4.07c.3 1.396.58 2.484.58 4.07" transform="matrix(1.452 0 0 1.402 292.902 114.522)" stroke="#2b2b2b" stroke-width="1pt" fill="none"/><path d="M143.88 54.76h.29c-.855 0-.373-.05 1.163.87v.873" transform="matrix(1.452 0 0 1.402 292.902 114.522)" stroke="#2b2b2b" stroke-width="1pt" fill="none"/><path d="M142.14 61.735h-.29c.91 0 .35-.076-.873 1.453-.46.92-1.003 1.666-1.453 2.616-.533.987-.737 1.488-.872 2.617" transform="matrix(1.452 0 0 1.402 292.902 114.522)" stroke="#2b2b2b" stroke-width="1pt" fill="none"/><path d="M137.2 62.317c-.168 0-.508.908-1.162 1.453-.26 1.19-.563 1.956-.582 3.488 0 1.885.35 2.204 1.163 3.49.68.786 1.054 1.505 1.162 2.905v8.14c-.2 1.335-.573 1.987-1.454 2.615-1.115.727-1.256.185-2.034-.872-.272-.897-.653-1.315-.872-2.325" transform="matrix(1.452 0 0 1.402 292.902 114.522)" stroke="#2b2b2b" stroke-width="1pt" fill="none"/><path d="M144.76 61.735v.29c0-.784.02-.385-.29 1.163-.53 1.31-1.3 2.583-1.745 3.488-.405 1.014-.58 1.907-.58 3.49.243 1.363.528 2.61.58 4.068 0 1.595-.395 2.53-.58 3.78-.57 1.08-1.07 2.44-1.745 3.196-.155.465-.136.117-.29.582" transform="matrix(1.452 0 0 1.402 292.902 114.522)" stroke="#2b2b2b" stroke-width="1pt" fill="none"/><path d="M148.24 58.538v.29c0-.812.036-.38-.58 1.163-.104 1.448-.42 2.575-.583 3.78-.384.898-1.056 2.596-1.453 3.488-.6.978-.872 1.447-.872 3.198.6 1.03 1.523 1.944 2.616 2.325.447.945.64 2.002 1.163 3.2.103 1.43.416 2.668.582 4.068v1.163" transform="matrix(1.452 0 0 1.402 292.902 114.522)" stroke="#2b2b2b" stroke-width="1pt" fill="none"/><path d="M151.44 60.863l-.29.29c.64-.64.316-.424 0 1.163 0 1.483-.193 2.683-.292 4.07-.518 1.037-.995 2.247-1.162 3.488.252 1.38.907 1.687 2.034 2.325.676.644 1.656 1.2 2.616 1.743 1.086.634 1.83 1.35 2.617 2.326.866 1.073 1.41 1.31 2.034 2.615.167 1.235.555 2.402.29 3.488 0 .388.098.29-.29.29" transform="matrix(1.452 0 0 1.402 292.902 114.522)" stroke="#2b2b2b" stroke-width="1pt" fill="none"/><path d="M153.48 54.178h.29c-.91 0-.35-.074.873 1.453.315 1.26.29 2.65.29 4.07.557.82.774 1.908.873 3.198.306.92.29 2.44.29 3.78-.097 1.133-.46 1.834 0 2.906 1.263.764 2.14 1.608 2.907 2.325 1.07.534 1.492 1 2.326 2.034.528.934 1.14 1.92 1.743 2.616.232 1.3.29 2.624.29 4.07 0 1.707.053 2.545-.872 3.488-.44 0-.926.078-.29.29" transform="matrix(1.452 0 0 1.402 292.902 114.522)" stroke="#2b2b2b" stroke-width="1pt" fill="none"/><path d="M149.41 42.26v1.453c.205 1.38.858 2.296 1.744 3.198.543.8 1.236 1.492 2.035 2.036 1.12.38 1.53.58 2.905.58" transform="matrix(1.452 0 0 1.402 292.902 114.522)" stroke="#2b2b2b" stroke-width="1pt" fill="none"/><path d="M152.9 50.98h.29c-.784 0-.387-.02 1.163.29.983.492 1.475 1.166 2.326 1.745.245.903.597 2.365 1.162 3.197.207 1.162.38 2.25.872 2.907" transform="matrix(1.452 0 0 1.402 292.902 114.522)" stroke="#2b2b2b" stroke-width="1pt" fill="none"/><path d="M127.9 44.295v1.453c.835.725 1.55.872 3.197.872 1.3.1 2.235.29 3.78.29h4.07c1.552 0 1.868.024 2.324-1.452.597-.81-.193-1.09-.58-1.744l.58 1.744c.597-.81-.193-1.09-.58-1.744" transform="matrix(1.452 0 0 1.402 292.902 114.522)" stroke="#2b2b2b" stroke-width="1pt" fill="none"/><path d="M166.56 84.7h.29c-.91 0-.366-.06 1.163 1.162.18.87.548 1.327.872 2.034" transform="matrix(1.452 0 0 1.402 292.902 114.522)" stroke="#2b2b2b" stroke-width="1pt" fill="none"/><path d="M83.424 73.072h-.29c.855 0 .373-.05-1.163.872-.855.6-1.434 1.48-1.743 2.616-1.015.676-.442 1.125.87 1.163 1.74-.02 2.196-.195 3.2-1.163.704-.528 1.15-1.377.58-2.325l-.58 2.325c.704-.53 1.15-1.378-.873-3.488z" fill-rule="evenodd" transform="matrix(1.452 0 0 1.402 292.902 114.522)" stroke="#000" stroke-width="1pt"/><path d="M171.21 85.57v.292c0-.785-.02-.386.29 1.162.155.36.263.66.582.872" transform="matrix(1.452 0 0 1.402 292.902 114.522)" stroke="#2b2b2b" stroke-width="1pt" fill="none"/><path d="M174.12 85.28v1.453c.51.69.963 1.508 1.454 2.035" transform="matrix(1.452 0 0 1.402 292.902 114.522)" stroke="#2b2b2b" stroke-width="1pt" fill="none"/><path d="M177.02 86.152v.29c0-.855-.05-.373.872 1.163.123.37.213.46.582.582" transform="matrix(1.452 0 0 1.402 292.902 114.522)" stroke="#2b2b2b" stroke-width="1pt" fill="none"/><path d="M86.912 84.99v1.453c-.217 1.084-.898 1.828-1.453 2.326l1.452-2.327c-.217 1.084-.898 1.828-1.453 2.326" transform="matrix(1.452 0 0 1.402 292.902 114.522)" stroke="#2b2b2b" stroke-width="1pt" fill="none"/><path d="M90.11 85.862v1.453c-.418.597-.657.947-1.163 1.163" transform="matrix(1.452 0 0 1.402 292.902 114.522)" stroke="#2b2b2b" stroke-width="1pt" fill="none"/><path d="M92.726 85.28v1.453c-.07.713-.389 1.1-.58 1.744" transform="matrix(1.452 0 0 1.402 292.902 114.522)" stroke="#2b2b2b" stroke-width="1pt" fill="none"/><path d="M96.505 84.7h.29c-.077.192 0 1.296 0 2.034-.314.583-.775.69-1.162 1.162" transform="matrix(1.452 0 0 1.402 292.902 114.522)" stroke="#2b2b2b" stroke-width="1pt" fill="none"/><path d="M461.764 151.286h-.42c.146.38.59 2.282.843 2.852 1.167.806 1.78 2.08 2.532 3.26 1.05-1.17 1.265-2.172 1.265-4.482-.56-1.566-2.264-1.408-4.22-1.63z" fill-rule="evenodd" fill="#2b2b2b"/><path d="M511.147 152.916c-.124 0-1.235.753-2.533 1.223-.313 2.234-.174 2.476.844 4.074 2.015-.15 2.06-.588 2.532-2.445.932-1.202.278-.93-.843-2.854z" fill-rule="evenodd" fill="#2b2b2b"/><path d="M144.18 31.505h-1.163c-1.55-.277-2.404-.367-3.488.58-.335 1.25-.516 2.258.29 2.908.99.242 1.575.646 2.616.872.56-.91 1.018-1.574 1.744-2.616.67-.225.192-.722 0-1.745v1.744c.67-.225.192-.722 0-1.745" transform="matrix(1.452 0 0 1.402 292.902 114.522)" stroke="#2b2b2b" stroke-width="1pt" fill="none"/><path d="M129.35 31.505l-.29-.29c.66.66.42.34-1.163-.29-1.34 0-2.86-.017-3.78.29-.364.73.442 1.277 1.164 1.743.8.544 1.492 1.236 2.035 2.035.808.594.984 1.426 2.035 1.744.47-.992.877-1.712 1.163-3.197-.183-.548-.664-1.148-1.163-2.035z" transform="matrix(1.452 0 0 1.402 292.902 114.522)" stroke="#2b2b2b" stroke-width="1pt" fill="none"/><path d="M78.192 71.618c-.336 0-2.424-.02-3.197.29-.803 1.25-.635 1.936.29 2.617.243 1.61.778 1.678 2.616 1.744.773.578 1.507.37 1.745-.583.498-.828.257-1.737-.29-2.325 0-.91.06-.215-1.163-1.744z" fill-rule="evenodd" transform="matrix(1.452 0 0 1.402 292.902 114.522)" stroke="#000" stroke-width="1pt"/><path d="M72.088 77.14h-.29c.812 0 .326-.088-.29 1.454 0 .9-.076 1.84.29 2.326 1.043 0 2.29.08 2.906-.29.48-1.28.553-2.24-.58-2.617-.386-.576-.99-.568-2.036-.872z" fill-rule="evenodd" transform="matrix(1.452 0 0 1.402 292.902 114.522)" stroke="#000" stroke-width="1pt"/><path d="M83.134 80.63H81.68c-.613.53-1.365 1.17-1.744 2.034 1.217.332 1.576.994 2.326 1.744 1.896-.023 2.163-.113 2.325-2.035 0-1.135.043-.447-1.453-1.744z" fill-rule="evenodd" transform="matrix(1.452 0 0 1.402 292.902 114.522)" stroke="#000" stroke-width="1pt"/><path d="M182.25 82.083h-1.453c-1.363.44-1.622.91-1.744 2.616.853.514 1.938 1.113 3.197 1.452.91.533 2.122.747 3.49.29.565-.92 1.03-1.168 1.16-2.615-.995-.303-2.544-.9-3.196-1.453l3.197 1.453c-.995-.303-2.544-.9-4.65-1.744z" fill-rule="evenodd" transform="matrix(1.452 0 0 1.402 292.902 114.522)" stroke="#000" stroke-width="1pt"/><path d="M185.16 75.107h-.29c.91 0 .35-.076-.873 1.453-.308 1.42-.06 1.957.582 3.198 1.286.634 1.415 1.61 2.615 2.035.558.558.29-.752.29-1.454.248-1.54.754-1.95.873-3.49-.267-1.088-.616-1.683-1.744-2.034l1.744 2.035c-.267-1.088-.616-1.683-3.198-1.743z" fill-rule="evenodd" transform="matrix(1.452 0 0 1.402 292.902 114.522)" stroke="#000" stroke-width="1pt"/><path d="M191.85 75.98h-.29c.91 0 .35-.077-.873 1.452-.562.927-.58 2.33-.58 3.78.48 1.295 1.186.495 1.743-.29.985-.672 1.39-.942 1.453-2.618 0-1.372.016-.758-1.453-2.325z" fill-rule="evenodd" transform="matrix(1.452 0 0 1.402 292.902 114.522)" stroke="#000" stroke-width="1pt"/><path d="M195.92 80.048h-.29c.784 0 .387-.02-1.163.29-.965 1.106-1.697 1.676-2.035 3.198 1.363.296 2.25.092 3.78-.29.623-1.363.69-1.098-.292-3.198z" fill-rule="evenodd" transform="matrix(1.452 0 0 1.402 292.902 114.522)" stroke="#000" stroke-width="1pt"/><path d="M477.662 159.837h-.986c-.388.494-.17 1.02.197 1.504.204.647.12.895.79 1.13.477.544 1.133.82 1.972.94 1.36-.118.838-.45.59-1.317-.458-.504-.444-1.034-1.183-1.316-.213-.306-.833-.587-1.38-.94z" fill-rule="evenodd"/><path d="M498.3 159.94c-.166.04-1.078.458-1.476.692-.678.88-.927 1.164-.635 2.077.7.305 1.49.555 2.534.69 1.033-.217.998-.762 1.055-1.845-.224-.57-.75-.92-1.48-1.615z" fill-rule="evenodd"/><path d="M475.482 182.213v2.334c.532 2.26.59 3.026 3.274 3.27H498.4c2.056-.193 1.87-.654 1.87-2.803.308-.48-.236-1.973-.935-2.802-1.85.655-2.307 2.354-4.677 2.802-2.695 0-3.962.03-5.145-1.4-1.345-.87-1.48-2.59-2.806-.936-1.51.91-2.92 1.4-5.613 1.4-2.857 0-2.9-.315-5.612-1.867z" fill-rule="evenodd"/><path d="M42.73-676.01h.29c-.91 0-.367-.062 1.163 1.163.123.696.29.847.29 1.744" transform="matrix(1.609 0 0 1.607 413.381 1256.754)" stroke="#2b2b2b" stroke-width="1.109" fill="none"/><path d="M481.035 173.687h-1.215c.352.448.616 2.804 1.215 3.722 6.068 0 3.227-.522 0-3.723z" fill-rule="evenodd"/><path d="M490.16 174.775h-.292c.82 0 .383-.044-1.174.724-.562.98-1.39 1.452-.293 2.535 1.218.085 1.832.36 3.227.36v-2.533 2.534c0-.845 0-1.69-1.466-3.62z" fill-rule="evenodd"/><path d="M48.834-675.72h-.29c.784 0 .387-.02-1.163.29-.303.514-.736 1.05-1.162 1.454" transform="matrix(1.609 0 0 1.607 413.241 1256.754)" stroke="#2b2b2b" stroke-width="1.109" fill="none"/></g><g stroke="#2b2b2b" stroke-width="1pt"><path d="M415.463 288.353c-.89 0-4.21.063-6.074-.418-2.278.087-2.726.767-4.455 1.255-1.99-.076-3.062-.42-5.264-.42-1.582-.88-2.69-1.59-4.858-1.672-1.615-.225-3.2-.417-5.264-.417-2.36.03-3.214.756-4.86 1.673-.753 1.145-1.72 2.22-2.833 3.347-.89 1.353-1.67 1.93-3.24 3.346-.86 1.305-1.754 1.958-2.43 4.183 0 1.927-.02 4.113.406 5.437.266 2.027.747 3.046.81 5.436 0 2.198-.14 3.985-.81 5.857-.446 2.076-1.215 3.374-2.024 5.438-.424 1.317-.683 3.613-.81 5.438.298 1.747 1.114 3.44 1.62 5.436.49 2.024.887 3.766 1.62 5.02.472 1.613 1.174 1.463 1.215 3.764 0 2.27.38 3.244.406 5.438.604 1.25.892 3.294 1.214 5.02.963 1.208 1.205 2.487 2.835 3.346.348-2.013.67-3.564.81-5.438.233-1.352.305-3.734.81-4.6.44 1.674 1.177 2.508 1.62 4.182.773.968 1.44 2.85 2.023 4.183.832.234.81-.08.81-1.674.477-1.476.745-3.184 1.215-5.02v-1.67c1 1.19 1.687 2.828 2.43 4.18.76 1.158 1.542 2.346 2.834 3.348 1.947.474 1.62.004 1.62-2.09v-5.857c.084 2.353.743 2.815 1.214 4.6.95.982 1.4 1.827 3.24 2.093.8-1.343 1.635-2.05 2.43-3.764 0-2.307.175-3.635.81-5.02 1.206-1.545 1.744-2.1 3.24-3.347 1.577-1.453 3.08-2.895 4.858-3.764.996-1.483 2.176-2.453 3.644-3.764 1.646-1.575 3.034-3.43 4.05-5.438 1.18-1.218 2.26-3.285 2.834-5.438 1.08-1.747 1.43-3.774 1.62-6.274.865-2.04 1.61-4.032 2.024-6.274 0-2.25-.174-4.095-.405-5.855-1.003-1.74-1.667-3.862-2.43-5.02-.477-1.55-1.62-3.425-2.024-5.02-1.037-2.007-.935-2.69-3.643-2.927-1.273 0-1.092-.162-2.834-.837z" fill-rule="evenodd" fill-opacity=".996" fill="#d40f0f"/><path d="M378.615 297.548v.42c0-1.13-.027-.557.405 1.67.218 1.67.405 3.308.405 5.44 0 2.13.186 3.768.405 5.437.2 1.735.56 2.672 2.024 3.764" fill="none"/><path d="M382.664 307.592c.286 0 .436 1.288 1.215 2.092.41 1.552 1.14 3.152 2.024 5.02.4 2.137.965 3.173 1.62 4.6.38.982.524 2.255 1.214 2.93V310.52c-.37-2.14-.794-3.48-1.215-5.437v-2.51" fill="none"/><path d="M390.358 308.844c.076.863.624 3.63 1.215 5.02.54 1.466 1.186 3.184 2.024 4.182.17 1.002.58 1.503 1.215 2.51 1.398-1.164 2.452-2.094 2.834-4.182.613-1.477 1.076-3.154 1.215-5.02.145-2.08.584-3.703.81-5.437 0-2.193 0-3.793-.81-5.02l.81 5.02c0-2.193 0-3.793-.81-5.02" fill="none"/><path d="M400.885 311.78v.418c0-1.13-.026-.555.405 1.674.29 1.384.405 3.102.405 5.02-.44.3-.606 1.18-.81 1.67" fill="none"/><path d="M404.53 305.506v2.09c0 1.83.168 4.256-.405 5.438 0 2.133-.186 3.77-.405 5.438.535 2.76.985-.16 1.215-1.254.486-1.318.997-3.503 1.62-4.602.252-2.183.733-3.31.81-5.437.41-1.696.405-3.516.405-5.44" fill="none"/><path d="M410.198 296.713c.14 0 1.224 1.05 2.43 1.674.28 1.928.953 2.603 1.215 4.6v2.09" fill="none"/><path d="M409.793 293.792c.52.225 2.408 1.584 3.24 2.09 1.11.116 1.502.168 1.62 1.256" fill="none"/><path d="M409.39 291.274h2.024c.97.11.884.42 2.024.42" fill="none"/></g><g fill-opacity=".996" fill-rule="evenodd" stroke="#2b2b2b" stroke-width="1pt" fill="#d30f0f"><path d="M560.737 293.878H558.71c-1.812.34-2.402 1.232-3.24 2.504l3.24-2.504c-1.812.34-2.402 1.232-3.24 2.504"/><path d="M561.546 291.365l-.405-.418c.893.92.592.455-1.62 0-1.355-.29-1.482-.29-2.837 0"/><path d="M557.907 288.45H559.933c2.453.202 4.437.804 6.89.834 2.042 0 3.802-.188 5.67-.416 1.148-.592 3.5-.418 5.27-.418 2.306 0 3.363.254 5.267.834 1.386.372 3.59 1.11 4.862 1.67 1.336.65 2.6 1.12 4.053 2.087 1.55 1.085 1.94 1.78 2.025 4.175-.216 1.65-.48 3.522-.81 5.427.142 2.057.58 3.832.81 5.843.44 1.81.406 3.802.406 5.844-.31 1.546-.968 1.43-1.622 2.92 1.142.777 2.54 2.276 3.243 3.34.34 1.96.737 3.75.81 5.843 0 2.342-.053 3.636-.81 5.427-.528 2.02-1.16 2.87-1.62 5.01-.348 1.643-1.018 3.323-1.623 4.59-.67 1.016-1.13 3.272-1.62 4.592-.253 1.987-.873 3.88-1.62 5.01-.413 1.557-.618 2.724-2.026 3.34-1.206-.31-.81-1.116-.81-2.506.287-1.664.453-2.895 0-4.174-1.327-.322-1.416.652-2.027 2.504-.86.952-.91 2.18-2.026 2.923-1.383 1.723-1.87 1.114-2.835-1.254 0-2.218-.267-3.56-.407-5.426-.217-2.694-.47 1.503-.81 2.086-.458 2.126-1.164 2.862-1.62 4.593-1.667.626-2.307.61-2.432-1.67.324-1.867.407-3.768.407-5.845-1.018-1.21-1.092-.257-1.622.835-.09 2.47-.692 2.768-1.62 4.174-1.354.824-1.042.836-1.622-1.252-.644-1.582-1.12-2.18-2.43-2.922-1.165-1.04-2.16-1.252-4.458-1.252-2.117-.08-3.15-.793-4.862-1.253-1.617-.476-3.19-.843-4.052-1.67-.77-1.166-1.88-2.666-2.836-4.59-1.044-1.965-1.54-3.2-1.62-5.427-.35-2.005-.577-4.215-.81-6.26-.46-2.84-1.14-5.93-1.62-8.767-.7-2.234-1.378-4.205-1.622-6.677-.806-1.834-1.25-3.83-1.622-5.845 0-1.924-.022-4.105.406-5.425.772-1.544 1.657-2.586 2.43-3.758 1.14-1.456 1.894-2.52 3.648-3.757.905-1.113 2.69-1.87 4.052-2.504.916-.404 1.54-.526 3.24-.834z"/><path d="M561.964 298.46v.416c0-1.23.116-.49-2.026.835-1.107 1.086-2.096 1.458-3.242 2.923-.26.625-.777 1.136 0 1.67"/><path d="M561.546 303.054v.416c0-1.126-.027-.554.405 1.67.072 1.978.407 2.872.407 5.01-.746 1.28-.308 3.068.404 4.59.637 1.824 1.444 3.09 2.028 4.592.864.298.404-.32.404-1.67-.524-1.62-.312-3.722 0-5.843v-5.01"/><path d="M572.488 302.22h-.404c1.132 0 .455-.127-.405 2.09v5.842c-.428 1.32-.407 3.502-.407 5.427-.43 2.045-.718 2.65 1.62 3.337.612.972 1.417 1.534 2.028 2.505.77-1.958 1.586-3.728 2.027-5.843.648-1.208.91-3.68 1.215-5.428.668-.836 1.513-2.378 2.026-3.34"/><path d="M583.027 302.637v.418c0-1.127-.026-.554.406 1.67.03 1.824.404 3.15.404 5.008-.797 1.21-.91 2.913-1.62 4.592-.71 1.98-1.19 3.512-1.215 5.843 0 1.402-.363 2.918.81 2.088.833-1.848 1.543-3.853 2.025-5.845.89-1.81 1.384-3.192 2.027-4.59.212-1.835.25-4.116.81-5.844l-.81 5.845c.212-1.835.25-4.116.81-5.844"/><path d="M592.757 299.722l-.404.418c.8-.823.452-.61 0 1.252 0 1.92.21 4.577-.406 5.843-.287 2.485-.635 3.267-2.025 5.01-.282.724-.81 1.807-1.216 2.087"/><path d="M569.66 313.91v.418c0-1.127.025-.554-.407 1.67-.774.92-1.93 2.688-2.43 4.173-.334.116-1.102.42-.407.42"/><path d="M568.446 318.505h.404c-1.132 0-.456-.13.406 2.087.325 1.338.89 1.166 1.215 2.504"/></g><path d="M77.32 201.26c-.275 0-.166.743-.29 1.744v4.07c.188 1.44.683 2.802 1.453 3.488.463.463 1.443 1.204 2.034 1.744 0-1.544.19-2.48.29-3.78.488-.83.638-2.132 1.164-2.906.13-1.667.73-1.68 1.164-3.197.497-.723-.534-.786-1.454-.872-1.085-.254-2.104-.616-2.907-1.162l2.907 1.163c-1.085-.254-2.104-.616-4.36-.29z" fill-rule="evenodd" fill-opacity=".996" transform="matrix(1.393 0 0 1.439 301.422 109.394)" stroke="#000" stroke-width="1pt" fill="#000f0f"/><path d="M92.435 200.68h-.29c.855 0 .34-.084-.582 1.453 0 1.41.067 2.75.29 3.78.6.725.813 1.918 1.163 2.906.52.32.844-.468 1.163-1.164.588-1.454 1.25-2.135 1.452-3.488.32-1.17.868-1.652 1.163-2.907-.617-1.29-.944-1.848-2.616-2.033-.73.73-.18.202-1.745 1.453z" fill-rule="evenodd" fill-opacity=".996" transform="matrix(1.393 0 0 1.439 301.422 109.394)" stroke="#000" stroke-width="1pt" fill="#000f0f"/><path d="M168.59 200.39h.29c-.157.42-.29 1.73-.29 2.616-.217 1.216-.45 2.29 0 3.49.834.366 1.373.643 1.744 1.452.68.572.83.87.872-.58.63-1.39.928-1.737 1.744-2.908.577-.987.8-1.656.58-3.198-.75-1.522-1.175-1.7-2.906-2.034-1.823 0-1.797 1.36-2.325 2.616" fill-rule="evenodd" fill-opacity=".996" transform="matrix(1.393 0 0 1.439 301.422 109.394)" stroke="#000" stroke-width="1pt" fill="#000f0f"/><path d="M182.84 202.13h-.29c.232.608.58 1.864.58 2.907.232 1.3.29 2.624.29 4.07-.172 1.155-.464 1.162.873 1.162.544-1.296.973-2.27 1.744-2.907.372-1.222.815-1.956.872-3.49 0-1.2.09-2.726-.29-3.487-2.11 0-2.042.29-3.78 1.744z" fill-rule="evenodd" fill-opacity=".996" transform="matrix(1.393 0 0 1.439 301.422 109.394)" stroke="#000" stroke-width="1pt" fill="#000f0f"/><path d="M195.63 195.74h-.29c.81 0 .38-.035-1.164.582-.72.943-1.826 1.415-1.453 2.907 1.453.49 2.267.847 2.907 1.743.925.508 1.596.89 2.034 1.744.53.353.84.906 1.163 1.453-.174-1.463-.48-2.444-.58-3.78-.02-1.645-.31-2.234-.873-3.196-.118-1.055-.425-.815-1.744-1.454z" fill-rule="evenodd" fill-opacity=".996" transform="matrix(1.393 0 0 1.439 301.422 109.394)" stroke="#000" stroke-width="1pt" fill="#000f0f"/><path d="M197.66 189.92h-.29c.855 0 .373-.05-1.163.872-.65 1.176-.667 2.17-.29 3.197 1.423.21 1.994.83 2.615 1.743.867.867 1.468 1.452 2.326 2.035-.622-1.06-1.178-2.025-1.454-3.197-.048-1.292-.26-2.232-.58-3.197l.58 3.198c-.048-1.292-.26-2.232-1.744-4.65z" fill-rule="evenodd" fill-opacity=".996" transform="matrix(1.393 0 0 1.439 301.422 109.394)" stroke="#000" stroke-width="1pt" fill="#000f0f"/><path d="M69.472 195.74c-.098 0-.93.537-1.453 1.163-1.415.78-2.176 1.23-2.327 2.907-.05 1.377-.29 2-.29 3.488.41.412.074 1.67.58 1.163.887-.974 1.343-1.86 2.326-2.615.658-.628 1.88-1.288 2.906-1.744 1.626-.472 1.5-.312.58-1.743-.516-.876-1.198-1.35-2.324-2.617z" fill-rule="evenodd" fill-opacity=".996" transform="matrix(1.393 0 0 1.439 301.422 109.394)" stroke="#000" stroke-width="1pt" fill="#000f0f"/><path d="M67.437 190.22h-.29c.855 0 .373-.05-1.163.872-.728.91-1.626 1.173-2.035 2.325-.678.82-.855 1.654-.873 3.197.027.94.18 1.826.58 2.326.39-1.094.862-1.74 2.036-2.326.722-.467.92-1.093 1.744-1.453.6-.255 1.26-.1 1.453-.87-.19-1.783-.728-2.305-1.453-4.07z" fill-rule="evenodd" fill-opacity=".996" transform="matrix(1.393 0 0 1.439 301.422 109.394)" stroke="#000" stroke-width="1pt" fill="#000f0f"/><path d="M89.82 181.2v.29c0-.855.05-.374-.873 1.163-1.014.405-1.907.58-3.488.58-.882.662-1.458.458-2.036 1.745-.78.817-1.136 1.27-2.325 1.745-1.342 0-2.86.015-3.78-.29-.976-.528-2.37-.92-3.488-1.164-1.578.018-2.367.39-3.488.87-1.2.284-1.955.654-2.617 1.455-.78.312-.78.78-.872 1.744.415.69.037 1.068.872 1.16.465.57.582.59.582 1.745.31 1.25.268 2.82.58 4.07.67 1.595 1.176 1.722 2.326 2.616.997.473 1.71.93 2.906 1.454 1.07.55 2.358.627 3.488.872.93 1.097 1.525 1.532 2.907 2.035 1.426-.214 1.65-.82 2.907-1.162.49-.49 1.255-.09 1.744-.872.427-.823.616-2.682 1.163-3.488.64-1.294 1.513-1.95 2.908-2.325.765-.574 1.65-.645 2.616-.29-.064 1.725-.616 1.796-.872 3.197-.5.922-.818 1.737-.29 2.616 1.214.405 2.678.29 4.07.29 1.875-.316 2.01-.745 2.033-2.616-.277-1.177-.697-1.9-.872-3.197 0-.898-.074-1.84.29-2.326.608.223 2.01.36 2.617.582.497.993.92 1.25 2.035.87.353-.55.893-.952 1.163-1.453.294.8.865 1.516 1.453 1.163.614-1.28 1.04-1.684 2.326-2.035 1.23-.267 2.04-.63 2.907-1.162.88-.542 1.427-1.245 2.326-1.744.615-.963 1.24-1.602 1.452-3.2 0-1.71-.346-2.84-.58-4.36-.65-1.016-.968-2.113-2.036-2.906-.847-.508-2.038-.124-3.198 0-1.3-.1-2.234-.29-3.778-.29-1.49 0-2.64.24-4.07.29h-4.07c-1.686 0-2.57.236-3.778.872-.856 0-.24-.083-1.163 1.454z" fill-rule="evenodd" fill-opacity=".996" transform="matrix(1.393 0 0 1.439 301.422 109.394)" stroke="#2b2b2b" stroke-width="1pt" fill="#d40f0f"/><path d="M157.55 191.67c.5.125 1.824.77 2.907.872 1.127.06.872.365.872 1.453.416.24.82.91 1.452 1.163.232-.43.702-1.1 1.163-1.453.27.627.575 1.305 1.453 1.744.737-1.4.674-1.722 2.616-1.745 1.222 1.16.858 2.235 0 3.197-.428 1.24-.61 2.314-.872 3.78.57.704 1.325.58 2.616.58.872-.522 2.01-.274 2.616.29 1.745-.086 1.68-.316 1.744-2.034v-4.07c.643-.642 1.335-.815 2.035-.29.726.6 1.075 1.992 1.744 2.907.1 1.278.257 2.453.872 3.197.655 1.37.87 1.68 2.615 1.744 1.522-.018 2.365-.228 3.78-.58 1.3-.24 1.723-.86 2.325-1.745 1.44-.386 1.842-.81 3.488-.87 1.497-.334 1.958-.87 2.906-1.454.626-.723.904-1.807 1.454-2.617.435-1.087.963-1.586 1.163-2.907.12-1.548.747-1.91 1.163-3.198.258-1.03-.256-1.678-1.162-2.325-.745-.647-1.833-.805-2.906-1.163h-8.14c-1.482 0-2.682-.19-4.07-.29-1.17-.677-1.723-1.125-2.615-2.035-1.262-.188-2.46-.898-3.49-1.454-.82-1.018-1.63-1.195-2.324-2.034-1.183-.502-1.79-1.153-3.198-1.744-1.2-.64-1.873-.97-3.488-1.163-1.387-.1-2.587-.29-4.07-.29-1.674 0-2.582.49-3.778.87-1.01 1.067-1.767 1.155-2.035 2.617-.41.823-.29 2.508-.29 3.78.29 1.362.873 2.668 1.162 3.778.114 1.224.29 1.87.29 3.488z" fill-rule="evenodd" fill-opacity=".996" transform="matrix(1.393 0 0 1.439 301.422 109.394)" stroke="#2b2b2b" stroke-width="1pt" fill="#d40f0f"/><path d="M82.843 189.92c-.633-.093-2.847-.29-4.36-.29-1.166.253-2.077.528-3.488.58-1.07.252-2.182.565-2.907 1.163-.976.092-1.28.403-2.325.582" transform="matrix(1.393 0 0 1.439 301.422 109.394)" stroke="#2b2b2b" stroke-width="1pt" fill="none"/><path d="M83.134 192.54h-.29c.855 0 .373-.05-1.163.872-1.153 1.008-1.957 1.514-2.616 2.907-.788.656-1.01 1.24-2.034 1.452-.608.646-1.217 1.217-1.744 1.744" transform="matrix(1.393 0 0 1.439 301.422 109.394)" stroke="#2b2b2b" stroke-width="1pt" fill="none"/><path d="M181.09 193.41h.29c-.812 0-.38-.036 1.163.58 1.216 1.063 1.267 1.596 2.907 1.745 1.532.558 1.696.89 2.325 2.326.212.494.29.916.29 1.745" transform="matrix(1.393 0 0 1.439 301.422 109.394)" stroke="#2b2b2b" stroke-width="1pt" fill="none"/><path d="M181.67 189.63c.468.18 2.12 1.062 3.197 1.163 1.16.157 2.298.29 3.78.29 1.368.186 2.075.62 3.487 1.163h2.326" transform="matrix(1.393 0 0 1.439 301.422 109.394)" stroke="#2b2b2b" stroke-width="1pt" fill="none"/><g><path d="M480.126 243.048c-.214 4.682-1.544 7.44-6.024 7.44-3.01 0-6.08-2.195-6.023-4.96.055-2.765 3.835-2.935 6.435-2.707.922-2.253-3.424-4.733-15.472-4.733-11.927-.13-21.194 10.258-36.847 9.92-15.653-.336-22.602-15.963-19.625-19.84-1.165 3.452-3.793 5.596-4.96 9.048-1.166 3.453 4.178 8.262 3.012 11.714-1.167 3.452-8.844 5.548-10.01 9s-.87 8.213-2.037 11.665c0-2.48 5.338-8.36 12.48-8.36 6.024 0 25.917-3.786 27.107 37.204 0 32.27-23.897 33.545-31.537 31.255-.02 3.89 2.65 15.985 14.862 28.363 13.114 12.4 28.262 14.133 31.235 13.96-1.397-3.452-7.14-7.44-1.714-7.485 3.608.044 4.752 6.447 4.752 6.447s5.87-3.674 7.827-1.843c1.888 2.88-5.96 5.362-5.96 5.362s3.984 7.807 9.036 12.4c6.024 6.555 14.747 8.735 18.07 8.823 1.617.044 4.74 1.092 4.627 3.58-.223 4.953-.216 7.345-3.13 7.44h21.67c-2.916-.095-2.91-2.487-3.132-7.44-.113-2.488 3.01-3.536 4.626-3.58 3.324-.088 12.047-2.268 18.07-8.823 5.053-4.593 9.036-12.4 9.036-12.4s-7.847-2.482-5.96-5.363c1.957-1.83 7.828 1.843 7.828 1.843s1.144-6.403 4.752-6.447c5.427.044-.317 4.033-1.714 7.485 2.974.173 18.122-1.56 31.237-13.96 12.21-12.378 14.88-24.472 14.86-28.363-7.64 2.29-31.537 1.016-31.537-31.256 1.19-40.99 21.083-37.206 27.107-37.206 7.14 0 12.48 5.88 12.48 8.36 0 .62.69-3.52-.623-7.29-1.312-3.767-7.873-6.482-9.622-11.815-1.75-5.334 1.312-13.286 0-17.364-1.312-4.077-3.75-4.96-3.75-4.96 2.975 3.877-3.973 19.504-19.627 19.842-15.653.337-24.92-10.05-36.846-9.922-12.047 0-16.394 2.48-15.47 4.734 2.598-.227 6.378-.058 6.435 2.707.055 2.766-3.013 4.96-6.025 4.96-4.48 0-5.81-2.758-6.024-7.44h-13.87z" fill-rule="evenodd" fill="#0068bd"/><g stroke="#000"><path d="M428.16 298.44c0 32.272-23.896 33.546-31.536 31.255-.02 3.89 2.65 15.985 14.862 28.363 13.114 12.4 28.262 14.133 31.235 13.96-1.396-3.452-7.14-7.44-1.713-7.485 3.608.045 4.752 6.447 4.752 6.447s5.87-3.674 7.826-1.843c1.888 2.882-5.96 5.362-5.96 5.362s3.984 7.807 9.036 12.4c6.024 6.555 14.747 8.735 18.07 8.823 1.617.044 4.74 1.092 4.627 3.58-.224 4.953-.217 7.345-3.132 7.44h21.67c-2.915-.095-2.908-2.487-3.13-7.44-.114-2.488 3.01-3.536 4.625-3.58 3.324-.088 12.047-2.268 18.07-8.822 5.053-4.593 9.036-12.4 9.036-12.4s-7.848-2.48-5.96-5.363c1.956-1.83 7.827 1.843 7.827 1.843s1.144-6.402 4.752-6.447c5.426.045-.318 4.033-1.715 7.486 2.974.17 18.122-1.56 31.237-13.962 12.21-12.378 14.88-24.472 14.86-28.363-7.64 2.29-29.954 2.318-29.954-29.954-.358-1.28-.472-3.82-.727-5.015-.254-1.194-6.03 3.748-6.604 3.723-1.942-.05-7.945-4.576-12.216-5.19-2.015-.265-8.607 4.662-10.23 4.76-2.124.1-4.846-5.037-9.372-4.51-3.33.435-6.06 5.116-6.875 4.446-2.1-1.72-4.412-2.803-7.09-3.212-4.003-.285-6.278 2.298-8.43 4.423-.075-1.735-2.918-3.47-6.156-3.252-2.33-19.6-20.895-39.61-22.404-40.238-1.12-.37-.693 1.904-1.04 2.857-2.825-.64-5.65-1.278-8.476-1.916-.54 1.132-.29 2.263-1.623 3.395-3.376-2.09-5.17-6.137-7.757-6.277-.922 2.494-.262 7.592-.394 11.387l-6.413-3.513c-.17 1.24-.343 2.477-.515 3.716-.206 1.488-8.705-4.004-10.373-4.04-1.668-.036-3.65 3.843-5.15 3.822-1.5-.02 9.69 6.018 12.46 33.333z" fill-rule="evenodd" fill="#e8e1cb"/><path d="M425.583 284.013s3.954-4.558 8.697-3.906c4.744.65 9.883 14.975 9.883 14.975" fill="none"/><path d="M439.024 265.13c0 .652 3.162 11.07 5.93 14.325 2.767 3.256 9.092 5.86 12.254 9.767 3.163 3.907 4.744 14.65 4.744 14.65" fill="none"/><path d="M446.14 260.247s1.186 5.21 3.162 9.116 6.72 5.21 9.093 8.464c2.372 3.256 3.953 9.767 3.953 9.767" fill="none"/><path d="M427.56 306.476s5.533-.65 10.277 4.558c4.744 5.21 5.534 12.046 5.534 12.046" fill="none"/><path d="M529.948 299.314s3.558-.326 5.93 1.953c2.372 2.28 1.976 3.907 1.58 3.907" fill="none"/><path d="M529.552 302.57s3.162 0 4.348.65c1.186.652 1.582 3.908 1.582 3.908" fill="none"/><path d="M527.577 305.825c.395 0 2.767-1.953 4.348-1.302 1.58.65 1.977 4.232 1.977 4.232" fill="none"/><path d="M525.6 307.453s2.767-.325 4.348.652 1.186 2.604 1.186 2.604" fill="none"/><path d="M517.693 307.453c.395 0 5.14 1.303 7.116 2.93 1.975 1.628 1.58 5.21 1.58 5.21" fill="none"/><path d="M540.226 309.406s1.186-.65 3.953 1.303c2.767 1.952 3.162 4.23 3.162 4.23" fill="none"/><path d="M539.83 312.988s3.163.325 4.744 1.302c1.58.977 3.953 3.255 3.953 3.255" fill="none"/><path d="M538.645 317.22s3.954-1.302 5.535-.65c1.58.65 4.348 2.603 4.348 2.603" fill="none"/></g><g><path d="M-301.18-134.65v442.91h17.716v-442.91l-8.858-35.433-8.858 35.433z" fill-rule="evenodd" transform="matrix(.093 -.034 .04 .074 487.205 299.752)" stroke="#000" fill="#b03f00"/><path d="M-301.18-134.65v407.48h17.716v-407.48l-8.858-35.433-8.858 35.433z" fill-rule="evenodd" transform="matrix(.093 -.034 .04 .074 513.567 290.114)" stroke="#000" fill="#b03f00"/><g stroke="#000" fill="none"><path d="M482.827 292.765l17.805 29.02"/><path d="M482.827 292.765l21.1 27.814"/><path d="M482.827 292.765l24.396 26.61"/><path d="M482.827 292.765l27.69 25.406"/><path d="M481.18 293.368l14.508 30.224"/><path d="M481.18 293.367l11.213 31.43"/><path d="M481.18 293.367L489.096 326"/><path d="M481.18 293.368l4.623 33.838"/><path d="M481.178 293.367l.532 37.205"/><path d="M482.827 292.765l33.484 25.157"/><path d="M481.604 323.13l28.01-10.24"/><path d="M506.266 310.375l-24.715 9.035"/><path d="M481.498 315.69l21.42-7.83"/><path d="M499.57 305.343l-18.125 6.626"/><path d="M481.392 308.25c.028.05 14.83-5.423 14.83-5.423"/><path d="M492.872 300.312l-11.534 4.216"/><path d="M481.286 300.808c.054-.02 8.31-3.035 8.238-3.012"/><path d="M481.233 297.087l4.943-1.807"/><path d="M457.31 303.963l17.804 29.02"/><path d="M457.308 303.964l21.1 27.814"/><path d="M457.31 303.964l24.395 26.61"/><path d="M457.31 303.963L485 329.37"/><path d="M455.66 304.566l14.51 30.224"/><path d="M455.66 304.566l11.215 31.43"/><path d="M455.66 304.565l7.92 32.634"/><path d="M455.66 304.566l4.624 33.838"/><path d="M455.66 304.566l.532 37.205"/><path d="M457.308 303.964l33.484 25.157"/><path d="M456.086 334.33l28.01-10.24"/><path d="M480.748 321.574l-24.715 9.035"/><path d="M455.98 326.89l21.42-7.832"/><path d="M474.05 316.542l-18.123 6.626"/><path d="M455.874 319.448c.028.05 14.83-5.422 14.83-5.422"/><path d="M467.354 311.51l-11.534 4.217"/><path d="M455.768 312.007c.054-.02 8.31-3.035 8.238-3.012"/><path d="M455.715 308.286l4.943-1.807"/></g><g fill-rule="evenodd" stroke="#000" fill="#b03f00"><path d="M481.5 323.086l34.6-12.65 2.127 3.933 2.356.708-1.647.602 1.417 2.622L522 317.7l-.938 1.913 7.777 3.437-1.383 19.347-52.724 19.276-11.34-20.977 8.24-3.01-2.835-5.245 4.943-1.806 7.76-7.548z"/><path d="M471.632 337.685l49.43-18.07"/><path d="M470.923 336.374l49.43-18.07"/><path d="M469.506 333.752l49.43-18.07"/><path d="M473.57 330.86l44.647-16.477"/><path d="M521.062 319.614l-1.843 25.795"/><path d="M482.918 325.708l21.42-7.83"/><path d="M478.914 325.602c3.256-1.054 37.896-13.855 37.896-13.855"/><path d="M515.162 312.35l-.23 3.224"/><path d="M515.64 316.885l-.23 3.225"/><path d="M500.81 322.307l-.23 3.224"/><path d="M502.46 321.704l-.23 3.225"/><path d="M520.83 322.838l-8.237 3.012.23-3.225"/><path d="M520.6 326.062l-8.238 3.012.27-3.365-.04.14"/><path d="M520.37 329.287l-8.238 3.012.23-3.226"/><path d="M520.14 332.51l-8.238 3.013.23-3.224"/><path d="M519.91 335.736l-8.24 3.01.23-3.223"/><path d="M519.68 338.96l-8.24 3.01.23-3.223"/><path d="M520.83 322.838l8.01.213"/><path d="M520.37 329.287l8.008.213"/><path d="M512.33 329.22l-46.11 16.756"/><path d="M512.32 332.316c-.062.125-44.752 16.154-44.752 16.154"/><path d="M511.67 338.747c-3.294 1.205-41.19 15.06-41.065 15.104"/><path d="M511.54 342.035s-39.46 14.54-39.34 14.586"/><path d="M519.448 342.185l-8.238 3.01.23-3.223"/><path d="M519.218 345.41l-8.238 3.01.23-3.224"/><path d="M479.058 336.46l-1.17 1.47.957 1.736 6.59-2.41 1.17-1.47"/><path d="M490.592 332.243l-1.17 1.47.957 1.737 6.59-2.41 1.17-1.47"/><path d="M483.31 344.325l-1.17 1.47.957 1.737 6.59-2.41 1.17-1.47"/><path d="M494.844 340.11l-1.17 1.47.957 1.736 6.592-2.41 1.17-1.47"/></g><path fill-rule="evenodd" d="M478.932 336.586l6.59-2.41.945 1.748-6.59 2.41z"/><path fill-rule="evenodd" d="M490.465 332.37l6.59-2.41.945 1.748-6.59 2.41z"/><path fill-rule="evenodd" d="M483.184 344.452l6.59-2.41.945 1.748-6.592 2.41z"/><path fill-rule="evenodd" d="M494.717 340.236l6.59-2.41.945 1.748-6.59 2.41z"/><path fill-rule="evenodd" stroke="#000" fill="#b03f00" d="M-301.18-99.213h88.583v17.717h-88.583z" transform="matrix(.093 -.034 .04 .074 510.272 291.319)"/><path fill-rule="evenodd" stroke="#000" fill="#b03f00" d="M-584.65-99.213h88.583v17.717h-88.583z" transform="matrix(.093 -.034 .04 .074 510.272 291.319)"/><g stroke="#000" fill="none"><path d="M481.872 322.74l-.708-1.31 34.6-12.65.71 1.31"/><path d="M482.812 320.827l.708 1.31"/><path d="M484.088 320.57l.708 1.31"/><path d="M485.735 319.967l.708 1.31"/><path d="M487.383 319.365l.708 1.31"/><path d="M489.03 318.763l.71 1.31"/><path d="M490.678 318.16l.708 1.31"/><path d="M492.326 317.558l.708 1.31"/><path d="M493.974 316.955l.708 1.31"/><path d="M495.62 316.353l.71 1.31"/><path d="M497.27 315.75l.707 1.312"/><path d="M498.917 315.148l.708 1.31"/><path d="M500.564 314.546l.708 1.31"/><path d="M502.212 313.944l.708 1.31"/><path d="M503.86 313.34l.708 1.312"/><path d="M505.507 312.74l.708 1.31"/><path d="M507.155 312.137l.708 1.31"/><path d="M508.802 311.534l.708 1.31"/><path d="M510.45 310.932l.708 1.31"/><path d="M512.098 310.33l.708 1.31"/><path d="M513.745 309.727l.708 1.31"/></g></g><g stroke="#000"><path d="M397.18 336.6c-.017 3.892 2.092 9.08 14.304 21.458 13.114 12.4 28.263 14.133 31.236 13.96-1.398-3.452-7.142-7.44-1.715-7.485 3.608.045 4.752 6.447 4.752 6.447s5.87-3.674 7.827-1.843c1.89 2.882-5.96 5.362-5.96 5.362s3.985 7.807 9.037 12.4c6.025 6.555 14.748 8.735 18.072 8.823 1.615.044 4.738 1.092 4.626 3.58-.224 4.953-.217 7.345-3.132 7.44h21.67c-2.914-.095-2.907-2.487-3.13-7.44-.113-2.488 3.01-3.536 4.625-3.58 3.325-.088 12.048-2.268 18.072-8.822 5.052-4.593 9.036-12.4 9.036-12.4s-7.848-2.48-5.96-5.363c1.957-1.83 7.828 1.843 7.828 1.843s1.143-6.402 4.752-6.447c5.427.045-.317 4.033-1.715 7.486 2.974.17 18.122-1.56 31.238-13.962 12.212-12.378 14.88-21.25 14.862-25.14-.478.143-10.163-1.93-11.812-.6-2.206-1.434-6.475-2.883-9.792-2.935-3.876-.053-7.36 1.29-8.554 3.6-2.313-2.756-9.055-4.14-10.48-3.96-4.645.66-7.542 5.786-6.02 12.228-3.51-2.764-4.76-3.036-8.69-3.045-8.57-.017-9.414 12.575-21.953 12.5-9.927-.063-14.122-4.4-17.048-7.532 3.782-2.673 3.545-3.717 1.042-6.408-2.837-2.528-7.27-2.302-10.312.253-3.042-2.48-3.07-3.926-6.082-7.44-2.943-3.436-5.033-3.776-10.37-3.758-5.336.017-9.43.252-11.488 4.856-2.618 1.203-6.326 3.72-9.195 3.223-1.75-3.927-7.35-8.487-12.068-8.54s-12.376 7.9-14.068 11.608c-3.006-5.188-6.167-5.898-8.804-6.006-2.637-.107-3.585 3.484-4.62 5.644z" fill-rule="evenodd" fill="#00c8ff"/><path d="M420.097 328.018s2.796 1.38 6.15 5.525.56 5.985.56 5.985" fill="none"/><path d="M422.892 330.32s5.59.46 7.827 3.684c2.236 3.223 1.117 6.906 1.117 6.906" fill="none"/><path d="M429.043 347.817s3.913-7.827 11.18-4.604c7.27 3.223 6.71 8.287 6.15 8.287h-.558v.46" fill="none"/><path d="M436.31 355.643s3.914-1.38 8.386 0 1.678 4.604 1.678 4.604" fill="none"/><path d="M435.75 357.485s4.474-.92 7.27.46.558 3.684.558 3.684" fill="none"/><path d="M425.69 358.866s.558 3.683 3.353 5.985c2.795 2.303 7.827 3.224 7.827 3.224" fill="none"/><path d="M453.082 360.708c5.59 2.302 6.71 6.446 6.71 6.446" fill="none"/><path d="M455.318 358.866c8.386 0 7.827 4.143 7.827 4.143" fill="none"/><path d="M443.02 336.767s5.032-3.223 11.74 0c6.71 3.223 2.796 7.366 2.796 7.366" fill="none"/><path d="M446.374 331.24s6.71-3.682 12.3 0c5.59 3.684 3.913 6.447 3.913 6.447" fill="none"/><path d="M465.94 333.544l3.356 4.604c1.677 2.302 4.472 1.842 4.472 1.842" fill="none"/><path d="M481.036 350.118s3.913 4.605 12.858 5.525c8.945.92 16.772-1.84 16.772-1.84" fill="none"/><path d="M481.036 356.103s5.03 4.144 11.74 4.144 16.213-2.302 16.213-2.302" fill="none"/><path d="M481.036 360.247s2.795 3.684 12.858 3.684 14.536-1.84 14.536-1.84" fill="none"/><path d="M480.476 365.772s1.12 1.84 6.15 2.762c5.032.92 10.063-1.38 10.063-1.38" fill="none"/><path d="M496.69 369.455s3.354 3.683 7.826 3.683 0-5.524 3.355-6.445c3.355-.92 8.387 0 8.387 0" fill="none"/><path d="M494.454 374.98s3.354 3.684 8.386 2.763c5.03-.92 11.18-7.827 11.18-7.827l3.915-2.302" fill="none"/><path d="M457.555 383.728s.56-2.302 6.71-1.38c6.15.92 0 7.826 6.708 7.826 6.71 0 12.858-3.223 16.772-3.683 3.913-.46 11.18 3.223 15.095 4.144 3.913.92 11.18-3.683 11.18-3.683" fill="none"/><path d="M488.305 393.397c.56 0 2.236-.92 6.15-.46 3.913.46 8.386.46 8.386.46" fill="none"/><path d="M486.627 398s2.795-.92 5.032-.92c2.235 0 1.676 2.762 1.676 2.762" fill="none"/><path d="M473.768 346.896c-.56 0 2.795 0 4.473.46s2.237 3.683 2.237 3.683" fill="none"/><path d="M473.21 350.118s2.235-.92 4.47 0 1.12 4.144 1.12 4.144" fill="none"/><path d="M471.533 353.802c0-.46 3.354-1.38 4.472-.92s1.118 4.603 1.118 4.603" fill="none"/><path d="M470.414 358.866s2.795-1.842 4.473-1.842 1.118 3.223 1.118 3.223" fill="none"/><path d="M469.855 363.01l3.913-1.842 1.677 2.762" fill="none"/><path d="M518.493 341.83s2.237-.46 5.59 0c3.355.46 4.474 3.684 4.474 3.684" fill="none"/><path d="M519.612 345.514c0-.46 3.354-.46 4.473 0 1.118.46 2.795 2.762 2.795 2.762" fill="none"/><path d="M525.76 355.182c-.558 0 .56 1.842 1.12 4.144.558 2.302-2.237 4.604-2.237 4.604" fill="none"/><path d="M536.943 353.34c-.558 0 3.355 3.224 3.914 5.986.56 2.763-2.795 5.525-2.795 5.525" fill="none"/><path d="M539.738 351.96s3.914 4.603 3.914 6.905c0 2.303-2.795 5.986-2.795 5.986" fill="none"/><path d="M543.652 348.737s1.677 1.84 2.236 4.143c.56 2.302-1.118 5.986-1.118 5.986" fill="none"/><path d="M548.684 354.262s2.795 2.763 1.677 5.065c-1.117 2.302-3.354 4.144-3.354 4.144" fill="none"/><path d="M553.156 355.643c-.56.46 1.118 3.223.56 4.604-.56 1.38-3.355 3.683-3.355 3.683" fill="none"/><path d="M554.275 348.276c0 .46 3.914 3.223 3.914 6.446s-2.238 6.445-2.238 6.445" fill="none"/><path d="M538.76 337.802s2.796.46 3.355 2.763c.56 2.302-1.677 4.604-1.677 4.604" fill="none"/><path d="M539.88 333.658s4.472 4.144 5.59 5.525c1.118 1.38-.56 4.604-.56 4.604" fill="none"/><path d="M538.76 333.198c.56.46 5.59.46 7.827 2.762s1.118 6.446 1.118 6.446" fill="none"/></g><path d="M503.45 7.085c5.813-4.65 24.417-15.115 59.298-13.953 34.88 1.162 59.3 17.44 59.3 17.44l-2.327-45.345S596.468-46.4 565.075-46.4s-58.136 6.976-58.136 6.976l-3.488 46.51z" fill-rule="evenodd" stroke="#000" stroke-width="1pt" fill="#ffd400" transform="matrix(.17 0 0 .151 391.957 247.449)"/><g fill-rule="evenodd" stroke="#000" stroke-width="1.25" fill="#ffd400"><path d="M388.574 269.595c0 2.474.433 4.04 3.445 4.04 3.01 0 4.12-2.497 4.192-4.27.09-2.24.593-5.65 6.616-5.65 3.012 0 21.762-1.65 22.32 34.723.56 36.372-31.32 28.94-31.32 28.94s-3.43 12.402 15.312 32.55c14.393 14.57 34.942 14.964 34.942 14.964s3.183 5.848 9.57 13.39c9.233 10.905 21.082 8.54 21.082 11.02 0 2.48-2.982 1.39-3.012 3.63.03 2.72 1.592 3.906 4.507 3.81s2.907-2.487 3.13-7.44c.112-2.488-3.01-3.536-4.626-3.58-3.324-.088-12.047-2.268-18.07-8.822-5.053-4.594-9.036-12.402-9.036-12.402s7.847-2.48 5.958-5.362c-1.955-1.83-7.827 1.843-7.827 1.843s-1.144-6.403-4.753-6.448c-5.426.045.318 4.033 1.715 7.486-2.974.172-18.122-1.56-31.236-13.96-12.21-12.38-14.88-24.473-14.86-28.364 7.64 2.29 31.536 1.016 31.536-31.256-1.194-40.99-21.087-37.205-27.11-37.205-7.142 0-12.48 5.88-12.48 8.362z"/><path d="M585.555 269.595c0 2.474-.433 4.04-3.445 4.04s-4.12-2.497-4.193-4.27c-.09-2.24-.593-5.65-6.616-5.65-3.01 0-21.76-1.65-22.32 34.723-.56 36.372 31.32 28.94 31.32 28.94s3.43 12.402-15.31 32.55c-14.394 14.57-34.943 14.964-34.943 14.964s-3.183 5.848-9.57 13.39c-9.233 10.905-21.082 8.54-21.082 11.02 0 2.48 2.982 1.39 3.012 3.63-.03 2.72-1.592 3.906-4.507 3.81s-2.908-2.487-3.13-7.44c-.113-2.488 3.01-3.536 4.625-3.58 3.324-.088 12.047-2.268 18.07-8.822 5.053-4.594 9.036-12.402 9.036-12.402s-7.846-2.48-5.957-5.362c1.955-1.83 7.827 1.843 7.827 1.843s1.143-6.403 4.752-6.448c5.426.045-.318 4.033-1.715 7.486 2.974.172 18.122-1.56 31.236-13.96 12.21-12.38 14.88-24.473 14.86-28.364-7.64 2.29-31.536 1.016-31.536-31.256 1.194-40.99 21.087-37.205 27.11-37.205 7.142 0 12.48 5.88 12.48 8.362z"/><path d="M561.456 223.205c-4.492 0-3.85 3.74-3.012 6.017.84 2.276 6.024 3.904 10.73 1.424-1.3 3.757-4.706 14.882-18.598 15.168-16.213-.286-17.62-10.052-35.593-10.13-17.974-.077-21.223 2.17-20.985 7.364.214 4.682 1.545 7.44 6.024 7.44 3.012 0 6.08-2.194 6.023-4.96-.056-2.765-3.836-2.934-6.436-2.707-.923-2.252 3.424-4.732 15.47-4.732 11.93-.13 21.195 10.258 36.848 9.92 15.654-.336 22.602-15.965 19.627-19.84-3.15-4.735-5.314-4.962-10.098-4.962z"/><path d="M412.668 223.205c4.492 0 3.85 3.74 3.012 6.017-.84 2.276-6.024 3.904-10.73 1.424 1.3 3.757 4.706 14.882 18.598 15.168 16.213-.286 17.62-10.052 35.593-10.13 17.975-.077 21.224 2.17 20.986 7.364-.214 4.682-1.545 7.44-6.024 7.44-3.012 0-6.08-2.194-6.023-4.96.055-2.765 3.835-2.934 6.435-2.707.922-2.252-3.425-4.732-15.472-4.732-11.928-.13-21.194 10.258-36.847 9.92-15.654-.336-22.602-15.965-19.627-19.84 3.148-4.735 5.313-4.962 10.097-4.962z"/></g></g><path d="M-1576.8 1353.5c17.72 2.98 674.45-205.79 673.23-531.49v-1594.5h-1346.5v1594.5c-1.22 325.7 673.23 531.49 673.23 531.49z" transform="matrix(.19 0 0 .156 781.609 252.146)" stroke="#000" stroke-width="11.125" fill="none"/></g></g></svg>