<svg xmlns="http://www.w3.org/2000/svg" height="480" width="640"><defs><clipPath id="a"><path fill-opacity=".67" d="M0 0h682.6v512H0z"/></clipPath></defs><g fill-rule="evenodd" clip-path="url(#a)"><path fill="#b20000" d="M0 0h960.093v318.853H0z"/><path fill="#429f00" d="M0 318.853h960.093V480H0z"/><path fill="#fff" d="M0 0h106.296v480H0z"/><g fill="#b20000"><path d="M4.92 7.914h5.066v8.15H4.92z"/><path d="M20.12 7.914h15.202v8.15h-15.2z"/><path d="M25.183-.24h5.066v8.15h-5.067z"/><path d="M50.523-.24h5.066v8.15h-5.067z"/><path d="M70.786 7.914h15.2v8.15h-15.2z"/><path d="M75.862-.24h5.067v8.15H75.86z"/><path d="M15.06 16.064h10.133v8.15H15.06z"/><path d="M30.26 16.064h10.134v8.15H30.26z"/><path d="M65.724 16.064h10.134v8.15H65.724z"/><path d="M80.924 16.064H91.06v8.15H80.923z"/><path d="M9.982 24.214h10.135v8.15H9.982z"/><path d="M35.322 24.214h10.134v8.15H35.322z"/><path d="M60.66 24.214h10.136v8.15H60.66z"/><path d="M85.987 24.214H96.12v8.15H85.988z"/><path d="M96.125 7.914h5.067v8.15h-5.067z"/><path d="M4.92 32.364h10.134v8.15H4.92z"/><path d="M40.384 32.364h10.134v8.15H40.384z"/><path d="M91.063 32.364h10.135v8.15H91.063z"/><path d="M9.982 56.812h10.135v8.15H9.982z"/><path d="M15.06 64.962h10.133v8.15H15.06z"/><path d="M35.322 56.812h10.134v8.15H35.322z"/><path d="M30.26 64.962h10.134v8.15H30.26z"/><path d="M20.12 73.112h15.202v8.15h-15.2z"/><path d="M25.183 81.26h5.066v8.15h-5.067z"/><path d="M60.66 56.813h10.136v8.15H60.66z"/><path d="M65.724 64.962h10.134v8.15H65.724z"/><path d="M85.987 56.812H96.12v8.15H85.988z"/><path d="M80.924 64.962H91.06v8.15H80.923z"/><path d="M70.786 73.112h15.2v8.15h-15.2z"/><path d="M75.862 81.26h5.067v8.15H75.86z"/><path d="M50.523 73.112h5.066v8.15h-5.067z"/><path d="M-.142 73.112h5.066v8.15H-.142z"/><path d="M101.188 73.112h5.066v8.15h-5.066z"/><path d="M25.183 113.86h5.066v8.15h-5.067z"/><path d="M20.12 122.01h15.202v8.15h-15.2z"/><path d="M15.06 130.16h25.334v8.15H15.06z"/><path d="M75.862 113.86h5.067v8.15H75.86z"/><path d="M70.786 122.01h15.2v8.15h-15.2z"/><path d="M65.724 130.16H91.06v8.15H65.723z"/><path d="M70.786 170.907H96.12v8.15H70.787z"/><path d="M60.66 138.31h35.47v8.15H60.66z"/><path d="M9.982 138.31H45.45v8.15H9.982z"/><path d="M15.06 179.057h15.2v8.15h-15.2z"/><path d="M9.982 170.907h25.335v8.15H9.982z"/><path d="M80.924 154.608h25.336v8.15H80.924z"/><path d="M75.862 179.057h15.2v8.15h-15.2z"/><path d="M20.12 187.206h5.067v8.15H20.12z"/><path d="M80.924 187.206h5.067v8.15h-5.066z"/><path d="M-.142 154.608h25.335v8.15H-.142z"/><path d="M45.46 170.907h15.2v8.15h-15.2z"/><path d="M50.523 179.057h5.066v8.15h-5.067z"/><path d="M35.322 154.608H70.79v8.15H35.322z"/><path d="M55.585 32.364H65.72v8.15H55.584z"/><path d="M45.46 40.513h15.2v8.15h-15.2z"/><path d="M40.384 48.663h10.134v8.15H40.384z"/><path d="M55.585 48.663H65.72v8.15H55.584z"/><path d="M-.142 40.513H9.992v8.15H-.142z"/><path d="M4.92 48.663h10.134v8.15H4.92z"/><path d="M96.125 40.513h10.135v8.15H96.125z"/><path d="M91.063 48.663h10.135v8.15H91.063z"/><path d="M-.142 122.01h5.066v8.15H-.142z"/><path d="M101.188 122.01h5.066v8.15h-5.066z"/><path d="M45.46 187.206h15.2v8.15h-15.2z"/><path d="M40.384 195.356h10.134v8.15H40.384z"/><path d="M55.585 195.356H65.72v8.15H55.584z"/><path d="M35.322 203.506h10.134v8.15H35.322z"/><path d="M60.66 203.506h10.136v8.15H60.66z"/><path d="M30.26 211.655h10.134v8.15H30.26z"/><path d="M65.724 211.655h10.134v8.15H65.724z"/><path d="M25.183 219.805h10.134v8.15H25.183z"/><path d="M70.786 219.805H80.92v8.15H70.786z"/><path d="M15.06 227.954h15.2v8.15h-15.2z"/><path d="M75.862 227.954h15.2v8.15h-15.2z"/><path d="M85.987 219.805H96.12v8.15H85.988z"/><path d="M91.063 211.655h10.135v8.15H91.063z"/><path d="M96.125 203.506h10.135v8.15H96.125z"/><path d="M9.982 219.805h10.135v8.15H9.982z"/><path d="M4.92 211.655h10.134v8.15H4.92z"/><path d="M-.142 203.506H9.992v8.15H-.142z"/><path d="M20.12 236.104h5.067v8.15H20.12z"/><path d="M80.924 236.104h5.067v8.15h-5.066z"/><path d="M50.523 211.655h5.066v8.15h-5.067z"/><path d="M35.322 236.104h5.066v8.15h-5.066z"/><path d="M65.724 236.104h5.066v8.15h-5.066z"/><path d="M50.523 236.104h5.066v8.15h-5.067z"/><path d="M-.142 236.104h5.066v8.15H-.142z"/><path d="M101.188 236.104h5.066v8.15h-5.066z"/><path d="M50.523 122.01h5.066v8.15h-5.067z"/><path d="M25.183 40.513h5.066v8.15h-5.067z"/><path d="M75.862 40.513h5.067v8.15H75.86z"/><path d="M45.46 97.56h15.2v8.15h-15.2z"/><path d="M35.322 105.71h15.2v8.15h-15.2z"/><path d="M40.384 113.86h5.066v8.15h-5.066z"/><path d="M30.26 97.56h10.134v8.15H30.26z"/><path d="M35.322 89.41h15.2v8.15h-15.2z"/><path d="M40.384 81.26h5.066v8.15h-5.066z"/><path d="M55.585 89.41h15.2v8.15h-15.2z"/><path d="M60.66 81.26h5.068v8.15H60.66z"/><path d="M65.724 97.56h10.134v8.15H65.724z"/><path d="M55.585 105.71h15.2v8.15h-15.2z"/><path d="M60.66 113.86h5.068v8.15H60.66z"/><path d="M80.924 97.56H91.06v8.15H80.923z"/><path d="M85.987 89.41h15.2v8.15h-15.2z"/><path d="M96.125 97.56h10.135v8.15H96.125z"/><path d="M85.987 105.71h15.2v8.15h-15.2z"/><path d="M91.063 113.86h5.067v8.15h-5.067z"/><path d="M91.063 81.26h5.067v8.15h-5.067z"/><path d="M-.142 97.56H9.992v8.15H-.142z"/><path d="M4.92 89.41h15.2v8.15H4.92z"/><path d="M15.06 97.56h10.133v8.15H15.06z"/><path d="M4.92 105.71h15.2v8.15H4.92z"/><path d="M9.982 113.86h5.067v8.15H9.98z"/><path d="M9.982 81.26h5.067v8.15H9.98z"/><path d="M4.92 146.458h20.267v8.15H4.92z"/><path d="M30.26 146.458h20.267v8.15H30.26z"/><path d="M55.585 146.458h20.267v8.15H55.585z"/><path d="M80.924 146.458h20.268v8.15H80.924z"/><path d="M40.384 162.757H65.72v8.15H40.383z"/><path d="M4.92 162.757h25.335v8.15H4.92z"/><path d="M75.862 162.757h25.336v8.15H75.862z"/><path d="M101.188 195.356h5.066v8.15h-5.066z"/><path d="M-.142 195.356h5.066v8.15H-.142z"/><path d="M4.92 472.445h5.066v-8.15H4.92z"/><path d="M20.12 472.445h15.202v-8.15h-15.2z"/><path d="M25.183 480.587h5.066v-8.15h-5.067z"/><path d="M50.523 480.587h5.066v-8.15h-5.067z"/><path d="M70.786 472.445h15.2v-8.15h-15.2z"/><path d="M75.862 480.587h5.067v-8.15H75.86z"/><path d="M15.06 464.29h10.133v-8.15H15.06z"/><path d="M30.26 464.29h10.134v-8.15H30.26z"/><path d="M65.724 464.29h10.134v-8.15H65.724z"/><path d="M80.924 464.29H91.06v-8.15H80.923z"/><path d="M35.322 456.138h10.134v-8.15H35.322z"/><path d="M60.66 456.138h10.136v-8.15H60.66z"/><path d="M85.987 456.138H96.12v-8.15H85.988z"/><path d="M96.125 472.445h5.067v-8.15h-5.067z"/><path d="M4.92 447.996h10.134v-8.15H4.92z"/><path d="M40.384 447.996h10.134v-8.15H40.384z"/><path d="M91.063 447.996h10.135v-8.15H91.063z"/><path d="M9.982 423.547h10.135v-8.15H9.982z"/><path d="M15.06 415.393h10.133v-8.15H15.06z"/><path d="M35.322 423.547h10.134v-8.15H35.322z"/><path d="M30.26 415.393h10.134v-8.15H30.26z"/><path d="M20.12 407.24h15.202v-8.15h-15.2z"/><path d="M25.183 399.098h5.066v-8.15h-5.067z"/><path d="M60.66 423.547h10.136v-8.15H60.66z"/><path d="M65.724 415.393h10.134v-8.15H65.724z"/><path d="M85.987 423.547H96.12v-8.15H85.988z"/><path d="M80.924 415.393H91.06v-8.15H80.923z"/><path d="M70.786 407.24h15.2v-8.15h-15.2z"/><path d="M75.862 399.098h5.067v-8.15H75.86z"/><path d="M50.523 407.24h5.066v-8.15h-5.067z"/><path d="M-.142 407.24h5.066v-8.15H-.142z"/><path d="M101.188 407.24h5.066v-8.15h-5.066z"/><path d="M25.183 366.495h5.066v-8.15h-5.067z"/><path d="M20.12 358.353h15.202v-8.15h-15.2z"/><path d="M15.06 350.2h25.334v-8.15H15.06z"/><path d="M75.862 366.495h5.067v-8.15H75.86z"/><path d="M70.786 358.353h15.2v-8.15h-15.2z"/><path d="M65.724 350.2H91.06v-8.15H65.723z"/><path d="M70.786 309.455H96.12v-8.15H70.787z"/><path d="M60.66 342.046h35.47v-8.15H60.66z"/><path d="M9.982 342.046H45.45v-8.15H9.982z"/><path d="M15.06 301.302h15.2v-8.154h-15.2z"/><path d="M9.982 309.455h25.335v-8.15H9.982z"/><path d="M80.924 325.75h25.336v-8.15H80.924z"/><path d="M75.862 301.302h15.2v-8.15h-15.2z"/><path d="M-.142 325.75h25.335v-8.15H-.142z"/><path d="M45.46 309.455h15.2v-8.15h-15.2z"/><path d="M50.523 301.302h5.066v-8.15h-5.067z"/><path d="M35.322 325.75H70.79v-8.15H35.322z"/><path d="M55.585 447.996H65.72v-8.15H55.584z"/><path d="M45.46 439.842h15.2v-8.15h-15.2z"/><path d="M40.384 431.69h10.134v-8.15H40.384z"/><path d="M55.585 431.69H65.72v-8.15H55.584z"/><path d="M-.142 439.842H9.992v-8.15H-.142z"/><path d="M4.92 431.69h10.134v-8.15H4.92z"/><path d="M96.125 439.842h10.135v-8.15H96.125z"/><path d="M91.063 431.69h10.135v-8.15H91.063z"/><path d="M-.142 358.353h5.066v-8.15H-.142z"/><path d="M101.188 358.353h5.066v-8.15h-5.066z"/><path d="M40.384 285.006h10.134v-8.15H40.384z"/><path d="M55.585 285.006H65.72v-8.15H55.584z"/><path d="M35.322 276.853h10.134v-8.15H35.322z"/><path d="M60.66 276.853h10.136v-8.15H60.66z"/><path d="M30.26 268.7h10.134v-8.15H30.26z"/><path d="M65.724 268.7h10.134v-8.15H65.724z"/><path d="M25.183 260.558h10.134v-8.15H25.183z"/><path d="M70.786 260.558H80.92v-8.15H70.786z"/><path d="M15.06 252.404h15.2v-8.15h-15.2z"/><path d="M75.862 252.404h15.2v-8.15h-15.2z"/><path d="M85.987 260.558H96.12v-8.15H85.988z"/><path d="M91.063 268.7h10.135v-8.15H91.063z"/><path d="M96.125 276.853h10.135v-8.15H96.125z"/><path d="M9.982 260.558h10.135v-8.15H9.982z"/><path d="M4.92 268.7h10.134v-8.15H4.92z"/><path d="M-.142 276.853H9.992v-8.15H-.142z"/><path d="M20.12 244.254h5.067v-8.15H20.12z"/><path d="M50.523 268.7h5.066v-8.15h-5.067z"/><path d="M50.523 358.353h5.066v-8.15h-5.067z"/><path d="M25.183 439.842h5.066v-8.15h-5.067z"/><path d="M75.862 439.842h5.067v-8.15H75.86z"/><path d="M45.46 382.803h15.2v-8.15h-15.2z"/><path d="M35.322 374.65h15.2v-8.15h-15.2z"/><path d="M40.384 366.495h5.066v-8.15h-5.066z"/><path d="M30.26 382.803h10.134v-8.15H30.26z"/><path d="M35.322 390.945h15.2v-8.15h-15.2z"/><path d="M40.384 399.098h5.066v-8.15h-5.066z"/><path d="M55.585 390.945h15.2v-8.15h-15.2z"/><path d="M60.66 399.098h5.068v-8.15H60.66z"/><path d="M65.724 382.803h10.134v-8.15H65.724z"/><path d="M55.585 374.65h15.2v-8.15h-15.2z"/><path d="M60.66 366.495h5.068v-8.15H60.66z"/><path d="M80.924 382.803H91.06v-8.15H80.923z"/><path d="M85.987 390.945h15.2v-8.15h-15.2z"/><path d="M96.125 382.803h10.135v-8.15H96.125z"/><path d="M85.987 374.65h15.2v-8.15h-15.2z"/><path d="M91.063 366.495h5.067v-8.15h-5.067z"/><path d="M91.063 399.098h5.067v-8.15h-5.067z"/><path d="M-.142 382.803H9.992v-8.15H-.142z"/><path d="M4.92 390.945h15.2v-8.15H4.92z"/><path d="M15.06 382.803h10.133v-8.15H15.06z"/><path d="M4.92 374.65h15.2v-8.15H4.92z"/><path d="M9.982 366.495h5.067v-8.15H9.98z"/><path d="M9.982 399.098h5.067v-8.15H9.98z"/><path d="M4.92 333.904h20.267v-8.15H4.92z"/><path d="M30.26 333.904h20.267v-8.15H30.26z"/><path d="M55.585 333.904h20.267v-8.15H55.585z"/><path d="M80.924 333.904h20.268v-8.15H80.924z"/><path d="M40.384 317.597H65.72v-8.15H40.383z"/><path d="M4.92 317.597h25.335v-8.15H4.92z"/><path d="M75.862 317.597h25.336v-8.15H75.862z"/><path d="M101.188 285.006h5.066v-8.15h-5.066z"/><path d="M-.142 285.006h5.066v-8.15H-.142z"/><path d="M45.46 244.254h5.067v8.15H45.46z"/><path d="M55.585 244.254h5.066v8.15h-5.065z"/><path d="M55.585 227.954h5.066v8.15h-5.065z"/><path d="M45.46 227.954h5.067v8.15H45.46z"/><path d="M9.982 447.996h10.135v8.15H9.982z"/><path d="M80.924 293.148h5.067v-8.15h-5.066z"/><path d="M20.12 293.148h5.067v-8.15H20.12z"/><path d="M45.458 285.003h15.2v8.15h-15.2z"/></g></g></svg>