<svg xmlns="http://www.w3.org/2000/svg" height="480" width="640"><desc>The United States of America flag, produced by Daniel McRae</desc><defs><clipPath id="a"><path fill-opacity=".67" d="M-123.43 0h682.67v512h-682.67z"/></clipPath></defs><g fill-rule="evenodd" clip-path="url(#a)"><path fill="#fff" d="M.004 218.484h793.622V411.58H.004z"/><path fill="#081873" d="M.632 0h793.08v240.6H.63z"/><path fill="#081873" d="M.858 361.753H799.72V480H.857z"/><path fill="#de3929" d="M.858 283.64h793.078v37.172H.856z"/><path fill="#ffce08" d="M238.457 374.22l6.235 19.19h20.177l-16.325 11.86 6.236 19.19-16.323-11.86-16.324 11.86 6.236-19.19-16.325-11.86h20.177z"/><path fill="#ffce08" d="M412.823 234.84l6.235 19.19h20.177l-16.324 11.86 6.237 19.19-16.324-11.86-16.324 11.86 6.235-19.19-16.324-11.86h20.178z"/><path fill="#ffce08" d="M198.474 314.48l6.235 19.19h20.176l-16.324 11.86 6.236 19.19-16.324-11.86-16.324 11.86 6.236-19.19-16.324-11.86h20.177z"/><path fill="#ffce08" d="M412.823 308.866l6.235 19.19h20.177l-16.324 11.86 6.237 19.19-16.324-11.86-16.324 11.86 6.235-19.19-16.324-11.86h20.178z"/><path fill="#ffce08" d="M368.676 176.416l6.235 19.19h20.178l-16.324 11.86 6.236 19.19-16.324-11.86-16.324 11.86 6.236-19.19-16.324-11.86h20.177z"/><path fill="#ffce08" d="M302.04 153.212l6.234 19.19h20.177l-16.323 11.86 6.236 19.19-16.324-11.86-16.325 11.86 6.236-19.19-16.323-11.86h20.177z"/><path fill="#ffce08" d="M235.392 175.112l6.235 19.19h20.177l-16.324 11.86 6.236 19.19-16.324-11.86-16.324 11.86 6.236-19.19-16.324-11.86h20.177z"/><path fill="#ffce08" d="M196.517 234.84l6.235 19.19h20.177l-16.325 11.86 6.236 19.19-16.323-11.86-16.324 11.86 6.236-19.19-16.325-11.86h20.177z"/><path fill="#ffce08" d="M302.04 394.13l6.234 19.19h20.177l-16.323 11.86 6.236 19.19-16.324-11.86-16.325 11.86 6.236-19.19-16.323-11.86h20.177z"/><path fill="#ffce08" d="M372.84 374.22l6.234 19.19h20.177l-16.323 11.86 6.236 19.19-16.324-11.86-16.325 11.86 6.236-19.19-16.323-11.86h20.177z"/></g></svg>