<svg xmlns="http://www.w3.org/2000/svg" height="480" width="640"><defs><clipPath id="a"><path fill-opacity=".67" d="M-158.67 0H524v512h-682.67z"/></clipPath></defs><g clip-path="url(#a)" fill-rule="evenodd"><path d="M-20 0h960v240H-20z"/><path fill="#107b00" d="M-20 240h960v240H-20z"/><path fill="#fff" d="M-20 158.728h960V323.85H-20z"/><path d="M439.356 183.328c-42.377-18.21-78.85 19.354-78.81 54.455.044 36.71 35.646 75.86 80.784 58.53-31.957-9.412-45.147-33.016-45.14-56.89-.23-23.64 14.893-51.13 43.166-56.095z" fill="#f0f"/><path fill="#ff1800" d="M489.235 275.833l-24.223-17.69-24.368 17.72 9.34-28.506-24.377-17.692 29.986.064 9.31-28.644 9.203 28.534 30.11.004-24.305 17.566z"/><path d="M443.444 295.922c-47.36 16.44-83.02-19.2-83.64-55.74-.62-36.54 35.24-74.22 83.88-57.06-27.52 4.08-47.73 28.2-47.97 55.47-.185 20.62 12.01 50.01 47.73 57.33z" fill="#f00"/><path d="M-19.98 0l326.82 240.58L-20 480l.002-477.544.014-2.458z" fill="#f00"/></g></svg>