<svg xmlns="http://www.w3.org/2000/svg" height="480" width="640" version="1"><defs><clipPath id="a"><path fill-opacity=".67" d="M-19.45 0h682.67v512H-19.45z"/></clipPath></defs><g fill-rule="evenodd" clip-path="url(#a)"><path fill="#fff" d="M-80.784 305.306h233.766V480H-80.784z"/><path fill="#0062da" d="M152.832 0h140.57v480H152.83z"/><path fill="#0062da" d="M-80.784 174.544h841.566v130.912H-80.784z"/><path fill="#fff" d="M-80.784.003h233.766v174.694H-80.784z"/><path fill="#fff" d="M293.25 305.306h467.532V480h-467.53z"/><path fill="#fff" d="M293.25.002h467.532v174.694h-467.53z"/><path fill="#fff" d="M-80.784 305.306h233.766V480H-80.784z"/><path fill="#0062da" d="M152.832 0h140.57v480H152.83z"/><path fill="#fff" d="M-80.784.003h233.766v174.694H-80.784z"/><path fill="#fff" d="M293.25 305.306h467.532V480h-467.53z"/><path fill="#fff" d="M293.25.002h467.532v174.694h-467.53z"/></g></svg>