<svg xmlns="http://www.w3.org/2000/svg" height="480" width="640"><defs><clipPath id="a"><path fill-opacity=".67" d="M-81.333 0h682.67v512h-682.67z"/></clipPath></defs><g fill-rule="evenodd" clip-path="url(#a)"><path fill="#6797d6" d="M-160 0h960v480h-960z"/><path fill="#fff" d="M319.77 115.384l-30.41 20.835 11.656-33.67-30.442-20.8 37.61.034 11.592-33.69 11.592 33.69 37.61-.025-30.447 20.79 11.65 33.674z"/><path fill="#fff" d="M319.77 365.588l-30.41-20.835 11.656 33.67-30.442 20.8 37.61-.035 11.592 33.69 11.592-33.69 37.61.025-30.447-20.79 11.65-33.675z"/><path fill="#fff" d="M173.636 258.32l-23.01 28.796 1.32-35.59-35.197-11 35.99-10.944 1.253-35.592 20.927 28.824 35.974-11.002-23.058 28.763 20.98 28.792z"/><path fill="#fff" d="M465.886 258.32l23.01 28.796-1.32-35.59 35.197-11-35.99-10.944-1.254-35.592-20.928 28.824-35.974-11.002 23.058 28.763-20.98 28.792z"/></g></svg>