<svg xmlns="http://www.w3.org/2000/svg" height="480" width="640"><defs><clipPath id="a"><path fill-opacity=".67" d="M0 0h120v90H0z"/></clipPath></defs><g fill-rule="evenodd" clip-path="url(#a)"><g><path fill="#0061f3" d="M0 0h719.996v53.333H0z"/><path fill="#fff" d="M0 53.333h719.996v53.333H0z"/><path fill="#0061f3" d="M0 106.666h719.996V160H0z"/><path fill="#fff" d="M0 160h719.996v53.332H0z"/><path fill="#0061f3" d="M0 213.332h719.996v53.333H0z"/><path fill="#fff" d="M0 266.665h719.996v53.333H0z"/><path fill="#0061f3" d="M0 319.998h719.996v53.333H0z"/><path fill="#fff" d="M0 373.33h719.996v53.334H0z"/><path fill="#0061f3" d="M0 426.664h719.996v53.333H0z"/></g><g><path fill="#0061f3" d="M0 0h266.665v266.665H0z"/><g fill="#fff"><path d="M106.666 0H160v266.665h-53.334z"/><path d="M0 106.666h266.665V160H0z"/></g></g></g></svg>