<svg xmlns="http://www.w3.org/2000/svg" height="480" width="640" version="1"><defs><clipPath id="a"><path fill-opacity=".67" d="M-89.048 0h682.67v512h-682.67z"/></clipPath></defs><g clip-path="url(#a)"><path fill-rule="evenodd" fill="#ba0000" d="M663.167 480.256h-686.08V0h686.08z"/><g><g><path d="M310.2 232.29s-48.388-20.836-41.444-74.82c6.72-25.988 18.594-43.685 40.1-53.318 10.08-3.136 20.386-4.48 30.914-5.376-2.763 2.613-5.077 5.227-6.272 8.512-2.315 5.9-.598 11.575 2.464 17.25 3.882 6.57 6.196 13.366 6.944 22.177 1.418 12.396-3.883 24.344-13.665 31.588-6.198 4.78-13.515 6.42-19.49 11.872-4.628 4.556-7.466 9.112-8.51 17.026-.15 15.085 3.957 17.176 8.96 25.09z" fill-rule="evenodd" fill="#fff"/><path d="M301.015 154.18v-.225" fill-rule="evenodd" stroke="#000" stroke-width="NaN" fill="#ba0000"/><path d="M304.073 226.684c-18.82-16.654-17.177-58.54-2.838-72.505" stroke="#ba0000" stroke-width="NaN" fill="none"/><path fill-rule="evenodd" fill="#ba0000" d="M312.92 144.592l3.075 5.15-5.748-2.313-4.33 4.603.785-6.028-5.752-2.306 6.234-1.412.776-6.03 3.066 5.157 6.233-1.42z"/></g><g><path d="M314.203 228.88s5.75-52.393 59.428-61.57c26.83-1.185 47.237 4.987 62.753 22.736 5.954 8.724 10.26 18.19 14.202 27.998-3.31-1.878-6.488-3.326-9.98-3.506-6.322-.486-11.248 2.82-15.78 7.41-5.148 5.64-10.97 9.845-19.18 13.142-11.442 4.99-24.425 3.42-34.22-3.816-6.388-4.53-10.103-11.047-17.068-15.165-5.715-3.094-10.904-4.473-18.78-3.154-14.474 4.276-15.27 8.82-21.376 15.924z" fill-rule="evenodd" fill="#fff"/><path d="M386.23 197.206l.215-.066" fill-rule="evenodd" stroke="#000" stroke-width="NaN" fill="#ba0000"/><path d="M317.77 221.376c10.415-22.884 50.965-33.585 68.525-23.96" stroke="#ba0000" stroke-width="NaN" fill="none"/><path fill-rule="evenodd" fill="#ba0000" d="M398.723 205.755l-4.064 4.473.548-6.176-5.703-2.76 6.038-1.048.54-6.177 3.183 5.528 6.036-1.06L401.23 203l3.192 5.523z"/></g><g><path d="M317.812 232.37s51.498-11.176 77.234 36.803c9.637 25.06 10.263 46.367-1.642 66.71-6.38 8.415-13.988 15.5-22.037 22.35.73-3.733 1.094-7.206.156-10.574-1.545-6.15-6.243-9.77-12.034-12.61-6.982-3.09-12.816-7.276-18.547-14.014-8.36-9.265-10.993-22.072-7.242-33.655 2.268-7.493 7.268-13.084 8.962-20.994 1.12-6.4.78-11.757-2.97-18.807-8.648-12.366-13.208-11.68-21.882-15.213z" fill-rule="evenodd" fill="#fff"/><path d="M370.7 290.606l.13.182" fill-rule="evenodd" stroke="#000" stroke-width="NaN" fill="#ba0000"/><path d="M326.058 233.37c25.002 2.612 48.016 37.66 44.464 57.364" stroke="#ba0000" stroke-width="NaN" fill="none"/><path fill-rule="evenodd" fill="#ba0000" d="M366.253 304.96l-5.56-2.437 6.063-1.42.81-6.253 2.926 5.376 6.06-1.428-4.254 4.74 2.936 5.372-5.555-2.445-4.248 4.748z"/></g><g><path d="M316.843 238.08s25.18 46.234-13.59 84.384c-21.32 16.28-41.572 22.864-64.42 17.166-9.86-3.755-18.79-9.058-27.618-14.85 3.785-.35 7.217-.976 10.183-2.82 5.46-3.21 7.612-8.73 8.707-15.08 1.003-7.56 3.377-14.33 8.227-21.717 6.534-10.62 18.074-16.74 30.232-16.398 7.82.07 14.587 3.292 22.646 2.694 6.45-.725 11.492-2.555 17.197-8.13 9.425-11.765 7.487-15.944 8.438-25.253z" fill-rule="evenodd" fill="#fff"/><path d="M275.865 305.144l-.138.176" fill-rule="evenodd" stroke="#000" stroke-width="NaN" fill="#ba0000"/><path d="M318.2 246.266c4.52 24.704-22.62 56.614-42.507 58.743" stroke="#ba0000" stroke-width="NaN" fill="none"/><path fill-rule="evenodd" fill="#ba0000" d="M260.94 305.567l.78-5.953 3.056 5.344 6.222-.99-4.337 4.283 3.064 5.34-5.734-2.695-4.33 4.29.793-5.95-5.74-2.687z"/></g><g><path d="M311.068 236.693s-35.265 39.15-84.177 15.248c-22.46-14.706-35.412-31.633-37.635-55.096.264-10.556 2.298-20.75 4.828-31.01 1.59 3.456 3.322 6.487 6.05 8.673 4.846 4.086 10.774 4.28 17.132 3.202 7.47-1.57 14.65-1.58 23.237.54 12.197 2.633 21.815 11.49 25.537 23.08 2.536 7.406 1.744 14.864 4.99 22.273 2.83 5.848 6.235 9.997 13.397 13.528 14.24 4.983 17.54 1.763 26.644-.436z" fill-rule="evenodd" fill="#fff"/><path d="M234.128 220.326l-.212-.072" fill-rule="evenodd" stroke="#000" stroke-width="NaN" fill="#ba0000"/><path d="M303.792 240.7c-21.816 12.483-60.967-2.518-69.593-20.582" stroke="#ba0000" stroke-width="NaN" fill="none"/><path fill-rule="evenodd" fill="#ba0000" d="M228.67 206.22l5.854-1.278-4.017 4.68 2.985 5.514-5.46-2.627-4.01 4.685.644-6.303-5.463-2.616 5.856-1.27.632-6.304z"/></g></g></g></svg>