<svg xmlns="http://www.w3.org/2000/svg" height="480" width="640" version="1"><defs><clipPath id="a"><path fill-opacity=".67" d="M-77.62 0h682.67v512H-77.62z"/></clipPath></defs><g clip-path="url(#a)"><path fill-rule="evenodd" fill="#ba0000" d="M663.174 480.256h-686.08V0h686.08z"/><path d="M336.225 352.51c.188-.568.566-6.417.377-6.417s-8.868-10.188-8.68-10.188c.19 0 11.133 2.454 11.133 2.076 0-.376 4.34-10.753 4.34-10.942 0-.187 5.282 12.64 5.282 12.64l10.755 4.72-7.548 6.224s1.7 12.076 1.7 12.266c0 .187-7.55-7.17-7.55-7.17l-8.3.943s-1.132-3.773-1.51-4.15z" fill-rule="evenodd" fill-opacity=".988" stroke="#000" stroke-width="NaN" fill="#ffef00"/><path d="M277.763 193.96c-7.17 3.69-34.684 35.142-38.457 40.047-3.162 7.122-9.346 16.13-15.715 21.93-6.798 5.143-10.576 12.17-9.64 18.823-.076 8.28 4.566 13.915 8.263 19.74 2.19 2.662 5.133 4.382 8.264 4.59 6.422.85 6.992 2.826 10.206 4.05 12.662 17.24 31.55 29.953 45.154 40.023 8.67 4.57 14.7 9.14 16.767 11.636 3.983 7.603 3.25 15.02 2.705 18.662-3.368 12.703-6.735 25.404-10.1 38.106-1.7 10.377 7.318 8.043 7.804 5.968 4.07-5.283 10.142-1.573 18.822-32.137l11.936-16.07s4.592-1.835 4.592-2.294c6.982-8.383 1.666-13.18-2.297-14.69l-8.722-3.215s-10.1-10.1-10.56-10.1c-4.8-13.96-28.357-43.768-33.83-47.918-3.786-3.947-5.59-5.63-9.184-7.825-5.527-2.644-7.31-3.504-10.697-4.855-2.82-1.132-.812-4.227.98-5.642 18.66-10.156 33.45-21.445 51.355-32.923l2.754-1.836-6.427-36.726-29.84-10.56c-1.566 1.07-2.754 2.144-4.132 3.215z" fill-rule="evenodd" stroke="#000" stroke-width="2.472568" fill="#fff"/><path d="M302.728 387.328c.095-.376 18.678-3.774 18.678-3.774s-2.17 6.888-2.264 6.888l-18.488 5.565 2.075-8.68z" fill-rule="evenodd" fill="#ffec00"/><path d="M254.306 317.353c3.585-9.528 13.536-17.072 20.22-19.154" stroke="#000" stroke-width="NaN" fill="none"/><path d="M302.063 387.488c1.2-.338 6.526-1.893 8.077-2.135 1.655-.387 3.303-.82 4.894-1.334 1.837-.376 2.987-.722 4.895-1.07 1.493-.57 2.97-.96 4.567-1.333m-25.8 17.36c.156-.207 1.422-1.326 2.332-1.867 1.07-.338 4.732-1.892 6.118-2.134 1.478-.387 2.95-.82 4.37-1.334 1.64-.375 2.667-.72 4.372-1.068 1.334-.57 2.653-.96 4.08-1.334" stroke="#000" stroke-width="NaN" fill="none"/><path d="M306.244 320.044h-.267c.836 0 .323-.07-.8 1.334-.4 1.08-3.826 3.468-6.404 3.468-1.245.134-3.157.267-4.403.267-.355 0-.845-.267-1.2-.267" stroke="#000" stroke-width="NaN" fill="none"/><path d="M305.98 375.02h1.334c1.384 0 2.773.245 4.003.265 1.335 0 2.67.378 4.003.378 1.347.19 2.97.13 4.363.327 1.562.053 2.816.362 4.442.362 1.31.05 2.017.268 3.47.268l-3.47-.268c1.31.05 2.017.268 3.47.268" stroke="#000" stroke-width="NaN" fill="none"/><path d="M296.907 407.57c.142-.21 1.3-1.328 2.134-1.87.982-.337 4.335-1.89 5.605-2.133 1.353-.387 2.7-.82 4-1.334 1.504-.375 2.444-.72 4.004-1.068 1.222-.57 2.43-.96 3.734-1.334" stroke="#000" stroke-width="NaN" fill="none"/><path d="M321.89 361.19c-.754 2.192.224 2.742.63 3.688.702.915 2.498 2.312 5.336 3.2 1.094.296 1.936.584 3.202 1.07.838.077 1.25.286 1.867.532" stroke="#000" stroke-width="NaN" fill="none"/><path d="M216.328 280.828h.267c-.837 0-.335.054 1.068-1.068.866-.968 1.59-1.407 2.4-2.4" stroke="#000" stroke-width="NaN" fill="none"/><path d="M233.597 299.83c.178 0 15.522-7.732 17.16-9.384 1.162-.842 2.04-1.73 3.452-2.686.904-.472 1.554-1.078 2.402-1.6.705-1.022 1.625-1.64 2.134-2.573.942-.817.537-1.702 1.3-2.686.362-1.006 1.038-2.703 1.258-3.625" stroke="#000" stroke-width="NaN" fill="none"/><path d="M280.847 288.75c.084.552-.245 2.252-.22 3.546-.054 1.5-1.984 6.134-4.316 7.518" stroke="#000" stroke-width="NaN" fill="none"/><path d="M253.285 288.58c.09 0 2.425.76 6.33 1.962 4.698 1.69 14.47 7.848 15.44 8.696.99.78 2.762 1.475 3.44 2.4 1.063.918 1.84 1.976 2.67 2.935.974 1.19 1.805 2.195 2.4 3.202 2.968 2.407 10.95 19.072 11.207 20.012.448.88 1.003 2.106 1.334 2.935.592.682.994 1.646 1.6 2.67.56 1.326 1.184 1.93 1.87 2.934.884.614 2.074 1.78 3.202 2.4 1.203 1.03 2.33 1.448 3.202 2.137 1.258.534 15.32 9.423 15.973 9.87 1.285 1.03 5.207 5.096 2.453 8.053-1.168 1-2.22 2.323-3.22 2.89-1.015 1.017-2.43 1.472-3.6 2-6.334 1.87-9.56 1.2-10.807 1.2h-1.335" stroke="#000" stroke-width="NaN" fill="none"/><path d="M222.225 257.147c1.8.705 1.074.184 2.695.922 1.09.476 1.807.49 2.878.88 1.136.363 4.31.935 5.835 2.466 1.12 1.01 1.973 1.865 3.202 2.603 1.454 1 2.503 1.448 4.305 2.2 1.52.568 3.22 1.2 4.758 1.253 1.598.093 1.98.014 3.513.014h3.738-3.737 3.738" stroke="#000" stroke-width="NaN" fill="none"/><path d="M221.794 274.95c4.002-.267 10.672.935 10.805.935l8.805-.134c4.626-.445 5.647-2.223 6.403-3.47 1.734-2.666 2.936-3.6 4.27-5.6 2.134-1.602 5.07 2.133 5.204 2.133 7.47 7.07 1.466 15.742 1.066 16.01-3.735 3.424-4.536 3.645-6.803 1.466-2.27-2.67-2.936-3.87-4.803-4.803-3.602-1.735-11.073-.4-11.208-.4-.133 0-3.868 1.467-3.868 1.467-1.824.667-2.98 2.27-6.137 2.8-3.203.224-4.27-.088-5.872-2.666-2.134-3.336-1.067-7.34 2.136-7.738z" fill-rule="evenodd" stroke="#000" stroke-width="NaN" fill="#ffe606"/><path d="M430.707 113.12c-.587.113-5.87 2.65-5.778 2.815.092.165-4.536 12.723-4.628 12.558-.093-.165-3.317-10.906-3.647-10.72-.328.184-11.5 1.487-11.665 1.58-.164.092 8.43-10.8 8.43-10.8l-1.158-11.687 9.125 3.528s9.694-7.4 9.86-7.492c.162-.09-2.553 10.094-2.553 10.094l4.892 6.774s-2.735 2.835-2.88 3.348z" fill-rule="evenodd" fill-opacity=".988" stroke="#000" stroke-width="NaN" fill="#ffef00"/><path d="M321.14 241.78c6.732 4.44 47.632 13.012 53.757 13.897 7.757-.734 18.64.24 26.817 2.95 7.816 3.406 15.793 3.256 21.133-.82 7.254-3.992 9.893-10.8 13.158-16.878 1.247-3.213 1.304-6.623-.048-9.454-2.41-6.014-.964-7.48-1.472-10.882 8.822-19.486 10.646-42.18 12.757-58.974-.266-9.798.763-17.294 1.925-20.318 4.677-7.198 11.5-10.194 14.944-11.504l38.167-9.87c9.878-3.606 3.424-10.322 1.377-9.73-6.6-.957-6.342-8.07-37.237-.655l-19.857-2.53s-3.85-3.103-4.25-2.878c-10.73-1.978-12.307 5.007-11.68 9.2.49 3.06.98 6.12 1.473 9.18 0 0-3.854 13.754-3.63 14.153-9.818 11.026-24.433 46.433-25.368 53.237-.443 6.393-2.858 5.24-2.21 11.453.024 4.856-.54 1.824 1.08 11.83.395 3.01-3.286 2.78-5.398 1.91-17.998-11.287-35.087-18.65-53.867-28.63l-2.95-1.5-28.864 23.6 5.42 31.188c1.7.84 3.217 1.35 4.826 2.026z" fill-rule="evenodd" stroke="#000" stroke-width="2.472568" fill="#fff"/><path d="M477.46 125.25c-.375.102-12.444-14.432-12.444-14.432s7.067-1.484 7.113-1.402l13.912 13.39-8.582 2.443z" fill-rule="evenodd" fill="#ffec00"/><path d="M440.203 201.76c-10.062 1.544-21.514-3.432-26.605-8.24" stroke="#000" stroke-width="NaN" fill="none"/><path d="M477.938 125.756c-.883-.88-4.848-4.76-5.82-5.995-1.148-1.252-2.334-2.475-3.56-3.61-1.228-1.418-2.092-2.25-3.33-3.744-1.23-1.023-2.294-2.12-3.402-3.328m27.776 13.98c-.257-.034-1.853-.59-2.77-1.117-.82-.767-3.97-3.197-4.86-4.286-1.06-1.1-2.16-2.17-3.304-3.156-1.13-1.247-1.935-1.972-3.073-3.288-1.15-.883-2.138-1.84-3.162-2.9" stroke="#000" stroke-width="NaN" fill="none"/><path d="M417.094 155.166l.13.232c-.41-.728-.218-.247 1.556.044 1.137-.18 4.898 1.635 6.162 3.883.726 1.02 1.78 2.62 2.39 3.707.174.31.182.867.356 1.177" stroke="#000" stroke-width="NaN" fill="none"/><path d="M465.14 128.456c-.042-.077-.086-.154-.13-.232l-.522-.93c-.68-1.206-1.144-2.537-1.73-3.62-.654-1.163-.978-2.51-1.632-3.674-.494-1.268-1.343-2.652-1.853-3.963-.72-1.388-1.065-2.632-1.862-4.05-.598-1.166-.754-1.89-1.466-3.155l1.467 3.156c-.598-1.167-.754-1.89-1.466-3.156" stroke="#000" stroke-width="NaN" fill="none"/><path d="M497.963 120.412c-.25-.022-1.795-.484-2.674-.945-.776-.69-3.775-2.85-4.608-3.838-1-.99-2.04-1.952-3.124-2.836-1.063-1.126-1.825-1.775-2.892-2.966-1.097-.786-2.03-1.647-2.994-2.6" stroke="#000" stroke-width="NaN" fill="none"/><path d="M445.285 121.36c2.28-.417 2.28-1.54 2.906-2.355.454-1.062.79-3.312.176-6.22-.28-1.1-.44-1.974-.638-3.316-.344-.77-.363-1.23-.45-1.89" stroke="#000" stroke-width="NaN" fill="none"/><path d="M426.975 252.77l-.13-.234c.41.73.21.266-1.454-.407-1.268-.282-2.005-.697-3.27-.917" stroke="#000" stroke-width="NaN" fill="none"/><path d="M435.075 228.394c-.087-.156-14.348-9.74-16.59-10.36-1.303-.598-2.508-.93-4.033-1.69-.856-.558-1.702-.827-2.573-1.31-1.237-.114-2.226-.614-3.29-.6-1.173-.42-1.746.366-2.978.182-1.055.18-2.866.422-3.777.682" stroke="#000" stroke-width="NaN" fill="none"/><path d="M402.263 192.637c.44-.343 2.083-.89 3.2-1.544 1.333-.69 6.318-1.278 8.667.076" stroke="#000" stroke-width="NaN" fill="none"/><path d="M415.622 216.75c-.044-.078-.527-2.486-1.393-6.478-.83-4.924-.252-16.46.01-17.722.195-1.246-.066-3.13.407-4.176.28-1.375.82-2.572 1.25-3.765.56-1.433 1.03-2.65 1.616-3.662.643-3.767 11.257-18.893 11.952-19.576.548-.822 1.344-1.907 1.904-2.602.304-.85.947-1.672 1.54-2.703.884-1.137 1.105-1.977 1.644-3.068.102-1.072.534-2.68.523-3.97.308-1.55.12-2.74.292-3.836-.15-1.36.706-17.974.774-18.76.27-1.626 1.89-7.037 5.818-6.086 1.444.53 3.113.797 4.095 1.39 1.386.387 2.477 1.397 3.51 2.157 4.736 4.605 5.732 7.747 6.343 8.833l.654 1.163" stroke="#000" stroke-width="NaN" fill="none"/><path d="M403.37 258.694l-.132-.233c.354.63.158.316-.29-1.06-.118-1.184-.484-2.785-.668-3.91-.24-1.168-.787-2.5-.638-3.314-.42-1.187-.156-2.167-.043-3.343.33-1.47.48-2.535.522-3.968.162-1.758.032-3.004.132-4.666-.463-1.37-.558-2.515-1.264-3.88-.628-1.31-1.11-2.518-1.86-3.854l-1.83-3.257 1.83 3.256-1.83-3.257" stroke="#000" stroke-width="NaN" fill="none"/><path d="M419.175 250.875c-2.193-3.357-4.415-9.76-4.48-9.877l-4.432-7.61c-2.657-3.814-4.707-3.833-6.163-3.88-3.175-.206-4.578-.795-6.976-.977-2.442-1.075-.625-5.465-.69-5.582 2.503-9.976 13.004-8.993 13.432-8.775 4.816 1.577 5.402 2.167 4.614 5.21-1.215 3.287-1.934 4.456-1.833 6.542.253 3.99 5.078 9.848 5.144 9.965.067.116 3.176 2.653 3.176 2.653 1.475 1.263 3.44 1.486 5.45 3.977 1.763 2.68 2.015 3.765.55 6.424-1.86 3.495-5.872 4.527-7.79 1.93z" fill-rule="evenodd" stroke="#000" stroke-width="NaN" fill="#ffe606"/><g><path d="M171.55 158.056c.418.428 5.433 3.458 5.52 3.29s13.125-3.173 13.038-3.006-7.305 8.747-6.97 8.92c.334.175 7.542 8.805 7.71 8.893.166.086-13.65-1.137-13.65-1.137l-9.14 7.368-2.046-9.565s-11.497-4.057-11.664-4.144c-.167-.087 9.84-3.393 9.84-3.393l2.986-7.8s3.87.734 4.377.573z" fill-rule="evenodd" fill-opacity=".988" stroke="#000" stroke-width="NaN" fill="#ffef00"/><path d="M339.146 179.234c.028-8.062-15.2-46.963-17.813-52.57-4.862-6.087-10.006-15.724-12.217-24.047-1.43-8.402-5.925-14.99-12.26-17.226-7.31-3.88-14.448-2.36-21.32-1.763-3.37.716-6.252 2.536-7.88 5.217-3.71 5.308-5.728 4.902-8.296 7.19-21.128 3.29-41.11 14.193-56.312 21.623-8.05 5.588-14.883 8.832-18.048 9.516-8.582.03-14.824-4.037-17.805-6.2-9.72-8.838-19.437-17.678-29.156-26.517-8.425-6.287-10.51 2.79-8.892 4.175 2.813 6.046-3.277 9.725 19.842 31.507 2.92 5.997 5.838 11.996 8.757 17.993 0 0-.486 4.92-.08 5.132 4.222 10.056 10.928 7.55 14.093 4.73l6.87-6.258s13.614-4.308 13.825-4.715c14.6 2.173 52.216-4.99 58.42-7.934 5.59-3.13 5.946-.478 10.79-4.423 4.048-2.68 1.82-.546 9.302-7.38 2.302-1.98 4.124 1.226 4.553 3.468.415 21.236 3.616 39.56 5.55 60.733l.36 3.29c11.85 3.74 23.7 7.478 35.547 11.218l23.117-21.61c-.23-1.882-.633-3.43-.948-5.146z" fill-rule="evenodd" stroke="#000" stroke-width="2.470655" fill="#fff"/><path d="M156.085 112.3c.29.257-5.257 18.31-5.257 18.31s-5.11-5.1-5.068-5.183l3.58-18.967 6.745 5.84z" fill-rule="evenodd" fill="#ffec00"/><path d="M240.478 101.568c6.803 7.57 8.91 19.874 7.68 26.763" stroke="#000" stroke-width="NaN" fill="none"/><path d="M156.254 111.637c-.253 1.22-1.328 6.66-1.828 8.15-.42 1.646-.793 3.308-1.07 4.956-.514 1.802-.737 2.982-1.308 4.834-.182 1.59-.516 3.08-.92 4.67m-3.518-30.89c.113.234.522 1.873.583 2.93-.193 1.105-.502 5.07-.925 6.41-.338 1.49-.63 2.996-.83 4.493-.423 1.63-.59 2.698-1.067 4.37-.108 1.448-.37 2.798-.694 4.235" stroke="#000" stroke-width="NaN" fill="none"/><path d="M214.153 146.415l.123-.236c-.385.74-.087.317-.815-1.327-.772-.852-1.314-4.99-.126-7.28.455-1.165 1.218-2.923 1.792-4.03.163-.313.625-.625.79-.94" stroke="#000" stroke-width="NaN" fill="none"/><path d="M165.517 120.863l-.123.236-.49.945c-.64 1.228-1.497 2.347-2.082 3.43-.615 1.183-1.565 2.193-2.18 3.377-.79 1.107-1.482 2.575-2.3 3.72-.766 1.36-1.618 2.332-2.367 3.774-.648 1.14-1.167 1.667-1.836 2.955l1.835-2.954c-.648 1.14-1.167 1.667-1.836 2.955" stroke="#000" stroke-width="NaN" fill="none"/><path d="M140.812 97.804c.118.223.577 1.767.674 2.754-.153 1.026-.32 4.718-.69 5.955-.278 1.38-.514 2.774-.66 4.165-.358 1.507-.484 2.5-.895 4.044-.057 1.347-.266 2.6-.536 3.928" stroke="#000" stroke-width="NaN" fill="none"/><path d="M170.45 141.353c-1.598-1.68-2.536-1.065-3.56-1.142-1.138.204-3.205 1.154-5.3 3.262-.767.835-1.41 1.45-2.424 2.35-.455.707-.83.976-1.333 1.41" stroke="#000" stroke-width="NaN" fill="none"/><path d="M290.38 84.71l-.123.236c.386-.743.107-.322.456 1.44.46 1.214.516 2.058 1.024 3.235" stroke="#000" stroke-width="NaN" fill="none"/><path d="M265.57 91.273c-.083.158-.29 17.335.42 19.55.212 1.417.595 2.606.792 4.3.003 1.02.24 1.875.314 2.868.58 1.097.705 2.198 1.3 3.08.29 1.21 1.26 1.26 1.783 2.39.726.786 1.92 2.167 2.637 2.787" stroke="#000" stroke-width="NaN" fill="none"/><path d="M253.63 138.302c-.528-.18-1.885-1.255-3.044-1.83-1.306-.738-4.53-4.585-4.682-7.292" stroke="#000" stroke-width="NaN" fill="none"/><path d="M266.483 113.92c-.04.08-1.79 1.8-4.655 4.71-3.663 3.392-13.63 9.225-14.83 9.696-1.147.52-2.58 1.77-3.714 1.946-1.303.52-2.6.722-3.834 1.015-1.504.318-2.78.59-3.947.655-3.502 1.525-21.966.93-22.918.723-.987-.008-2.33-.08-3.22-.168-.877.21-1.917.123-3.104.19-1.433-.116-2.257.16-3.465.306-.95.5-2.534 1.02-3.605 1.735-1.467.593-2.358 1.4-3.37 1.857-1.054.87-15.42 9.25-16.115 9.625-1.507.665-6.92 2.272-8.276-1.534-.35-1.497-1.04-3.04-1.08-4.186-.436-1.372-.188-2.837-.117-4.116 1.257-6.484 3.34-9.037 3.913-10.143l.615-1.183" stroke="#000" stroke-width="NaN" fill="none"/><path d="M308.263 101.205l-.123.236c.332-.638.177-.303-.73.826-.924.747-2.063 1.93-2.903 2.7-.847.84-1.66 2.026-2.423 2.348-.763 1-1.727 1.316-2.772 1.866-1.412.528-2.385.985-3.605 1.735-1.56.828-2.53 1.62-3.976 2.445-.89 1.137-1.796 1.843-2.552 3.182-.75 1.24-1.497 2.305-2.204 3.665l-1.72 3.315 1.72-3.315-1.72 3.315" stroke="#000" stroke-width="NaN" fill="none"/><path d="M296.263 192.056l.247-.475c-.455.877-.296.647.132-.83.004-1.774.425-3.92.442-5.483.267-1.656.538-3.445.555-5.122-.1-1.962-.098-3.72-.39-5.613-.024-1.742-.228-3.548-.28-5.254-.03-1.69-.157-3.14-.523-4.78-.034-1.23-.11-2.915-.41-4.42.16-1.187-.176-2.28-.428-3.23-.46-1.827-.638-2.894-1.12-4.79-.29-1.014-.577-2.31-1.015-3.832-.158-1.44-.93-3.31-1.242-4.552-.43-.914-.86-2.15-1.026-3.237-.448-1.002-1.087-2.226-1.26-3.36-.473-.866-.976-2.21-1.498-3.484-.452-1.046-.783-2.335-1.262-3.36-.483-1.294-1.073-2.4-1.374-3.72-.463-.447-.567-.937-.816-1.323" stroke="#000" stroke-width="NaN" fill="none"/><path d="M293.07 92.27c-1.606 3.672-5.745 9.037-5.806 9.155l-3.94 7.874c-1.734 4.31-.627 6.034.13 7.28 1.567 2.766 1.843 4.263 3.003 6.368.437 2.63-4.23 3.516-4.29 3.634-9.716 3.37-14.644-5.952-14.696-6.43-1.317-4.89-1.144-5.704 1.834-6.712 3.413-.783 4.784-.822 6.473-2.048 3.198-2.397 5.457-9.64 5.52-9.76.06-.118.48-4.108.48-4.108.248-1.925-.64-3.69.342-6.735 1.276-2.945 2.044-3.75 5.07-3.98 3.942-.358 7.002 2.432 5.88 5.46z" fill-rule="evenodd" stroke="#000" stroke-width="NaN" fill="#ffe606"/></g><path d="M280.228 187.172c-1.468-1.334 27.617 10.538 31.62 10.673 5.47-2 28.017-21.078 28.017-21.078.222 1.867 1.02 6.714 3.2 7.738-8.715 7.07-16.63 13.874-25.347 20.945.623 11.207-1.423 23.08 4.27 35.622 0 0-6.804.132-6.804 0-6.004-6.004-8.14-34.954-8.14-34.954-9.56-4.27-19.123-8.405-28.683-12.674 1.38-.89 2.49-3.646 1.87-6.27z" fill-rule="evenodd" fill-opacity=".987" stroke="#000" stroke-width="NaN" fill="#ffef00"/><path d="M307.903 216.844c.465-.338-5.246 2.653-6.713 3.404-26.423 14.095-40.02 34.598-40.868 35.373-.457.874-1.298 2.04-2.067 3.18-.62.957-1.508 1.947-2.094 2.915-.81 1.12-2.51 3.335-3.44 4.318-.116.633.44-.217.26.204" stroke="#000" stroke-width="NaN" fill="none"/><path d="M325.96 200.09c-.513-.26 4.76 3.452 6.098 4.413 24.62 17.05 49.072 19.764 50.148 20.163.986.006 2.407.22 3.773.384 1.133.112 2.42.45 3.55.53 1.365.205 4.113.706 5.413 1.083.615-.187-.394-.292.063-.324" stroke="#000" stroke-width="NaN" fill="none"/></g></svg>