<svg xmlns="http://www.w3.org/2000/svg" height="480" width="640"><defs><clipPath id="a"><path fill-opacity=".67" d="M-84.325-2.11h685.48V512h-685.48z"/></clipPath></defs><g clip-path="url(#a)" fill-rule="evenodd"><path fill="#fff" d="M-29.61 3.03h701.05v475.91H-29.61z"/><path fill="#008900" d="M-29.61 342.715h701.05v137.283H-29.61z"/><path fill="#c23743" d="M-31.44 175.087h701.05V312.37H-31.44z"/><path d="M-29.61 0h701.05v149.458H-29.61z"/><path d="M226.835 409.302c35.438-65.958 154.24-284.427 153.072-285.062-19.43-11.402 15.704-28.92 41.505-69.992-18.38 44.143-16.43 85.34-35.303 73.48-31.387 59.24-128.406 240.313-152.522 285.044-2.554-1.372-3.305-1.932-6.75-3.466z" stroke="#000" stroke-width="1.009654" fill="#fff"/><path d="M404.583 411.89c-35.44-65.954-154.248-284.43-153.072-285.063 19.43-11.403-15.703-28.92-41.504-69.992 18.382 44.143 16.43 85.34 35.303 73.48 31.385 59.24 128.404 240.312 152.52 285.043 2.554-1.372 3.305-1.932 6.75-3.466z" stroke="#000" stroke-width="1.009654" fill="#fff"/><path d="M314.505 81.736c111.655 78.71 109.825 269.07 0 334.966-102.506-69.557-117.145-258.09 0-334.966z" stroke="#000" stroke-width="1.061024" fill="#c23743"/><path d="M329.32 245.785c0 11.627-6.147 21.053-13.73 21.053s-13.73-9.426-13.73-21.053 6.146-21.054 13.73-21.054c7.583 0 13.73 9.427 13.73 21.055z" fill="#fffffb"/><path d="M313.804 89.06c31.396 30.374 30.88 103.84 0 129.272-28.82-26.844-32.94-99.602 0-129.273z" stroke="#000" stroke-width="0.349316" fill="#fff"/><path d="M313.804 279.422c31.396 30.376 30.88 103.84 0 129.274-28.82-26.844-32.94-99.602 0-129.274z" stroke="#000" stroke-width="0.349316" fill="#fff"/><path fill="#c23743" d="M307.185 89.06h12.812v131.794h-12.812z"/><path fill="#c23743" d="M309.015 277.592h12.812v131.794h-12.812z"/><path d="M246.115 171.427c19.047 35.465 18.735 121.235 0 150.934-17.487-31.34-19.985-116.285 0-150.933z" stroke="#000" stroke-width="0.29421"/><path d="M385.23 173.257c19.046 35.465 18.734 121.234 0 150.934-17.488-31.34-19.986-116.285 0-150.933z" stroke="#000" stroke-width="0.29421"/></g></svg>