<svg xmlns="http://www.w3.org/2000/svg" height="480" width="640"><defs><clipPath id="a"><path fill-opacity=".67" d="M-84.95 0h682.67v512H-84.95z"/></clipPath></defs><g clip-path="url(#a)" fill-rule="evenodd"><path fill="#be0027" d="M-40.36 0h720.722v480H-40.36z"/><path d="M178.5 244.82c12.804-15.573 39.327-.375 60.98-11.588-25.65 1.41-39.63-12.308-59.892-10.385 20.995-12.898 38.87 4.218 62.345-2.662-31.092-2.615-29.744-16.514-58.016-18.488 25.114-10.71 37.534 11.015 62.134 6.074-28.993-6.69-32.854-23.77-54.41-27.385 31.507-4.755 29.453 13.87 60.34 16.144-31.35-13.45-23.133-25.123-49.354-35.366 29.34-.693 27.396 19.64 57.122 24.975-25.448-16.145-22.304-30.878-43.265-42.406 24.866.45 27.294 25.902 52.673 33.788-22.64-17.962-16.685-33.107-36.248-49.147 24.734 5.8 21.133 27.76 46.893 41.767-19.09-21.2-11.765-36.38-28.418-53.736 23.788 7.66 14.75 28.53 39.435 48.37-14.15-23.3-5.414-38.162-19.34-57.82 22.087 11.404 11.392 32.69 31.897 53.96-9.65-23.915.014-38.768-9.85-59.945 18.893 14.116 7.656 36.866 22.896 58.568-5.556-29.924 7.35-34.847 3.335-61.054 14.35 17.616-1.69 35.232 9.326 61.182-1.34-29.51 14.34-36.37 11.62-60.063 14.222 21.23-7.975 39.706 1.308 62.442 2.4-27.998 20.8-35.247 21.085-57.034 11.187 20-13.23 34.38-9.266 60.896 8.034-29.246 27.634-32.86 29.947-52.523 6.782 23.136-19.936 33.89-18.374 59.532 7.958-26.002 32.457-29.052 37.465-48.26 3.09 24.477-21 28.822-27.783 55.862 12.668-22.068 34.822-23.88 44.797-41.333-.784 24.202-27.98 27.375-36.328 50.036 15.68-19.228 35.336-15.89 51.014-32.94-1.654 21.844-29.337 20.61-44.07 43.224 17.002-15.687 42.595-10.986 55.62-24.493-.63 19.32-34.6 17.87-50.62 35.138 19.758-10.823 44.772-4.466 59.274-14.52-2.65 16.94-38.51 12.98-55.647 26.2 23.636-6.548 41.885 3.572 61.033-3.745-9.318 16.488-41.844 6.052-59.113 16.77 20.512-3.473 42.306 8.953 61.023 4.967-6.152 14.25-41.794-.862-61.023 8.004 22.978-.202 37.878 14.47 59.188 13.5-11.59 12.9-42.925-4.84-61.182-1.81 22.274 4.607 39.292 23.064 56.18 23.952-13.86 10.643-39.77-13.59-60.81-10.514 21.662 5.798 39.86 30.443 52.29 30.983-13.392 9.15-39.86-21.06-57.996-19.987 22.028 9.957 32.13 35.17 46.592 38.715-17.905 5.745-35.5-27.39-54.74-28.54 22.285 14.057 23.544 35.55 40.703 45.117-18.053 4.413-30.904-32.97-49.93-36.124 18.27 13.432 21.026 42.123 33.14 51.195-18.38.972-25.022-38.168-43.862-43.76 16.14 13.48 12.276 42.73 24.825 55.185-19.15-3.928-16.68-38.005-36.673-49.48 14.363 18.113 7.057 43.92 16.418 58.44-18.63-7.534-10.538-38.03-28.323-55.303 9.702 19.297-.725 41.8 6.926 60.457-17.02-8.302-5.572-44.424-18.615-58.75 5.995 22.3-5.062 40.753-.605 60.744-17.4-20.18 2.64-40.49-12.45-61.055 4.005 23.603-12.504 40.028-9.908 59.785-13.796-16.116 7.41-41.976-3.307-62.324 2.307 23.208-19.01 43.538-17.546 58.154-11.23-18.72 12.467-40.86 6.123-62.143-1.337 22.1-22.848 34.11-26.9 54.24-7.23-22.207 18.342-38.26 16.134-60.084-7.322 20.76-28.108 29.085-35.43 49.205-5.996-22.146 24.294-33.906 25.094-57.206-9.362 21.852-34.24 26.65-42.45 43.373-3.064-22.03 31.695-31.882 32.99-52.758-11.19 20.045-38.41 20.858-47.805 36.8-1.424-21.953 35.233-24.67 40.988-47.65-11.14 17.137-41 14.914-53.424 28.845 1.96-20.364 41.614-21.624 47.934-39.937-14.74 14.22-42.153 8.327-57.587 19.606 8.59-20.002 45.785-15.76 54.195-30.25-16.467 8.59-45.638.263-59.998 8.854 13.05-18.944 42.003-7.627 58.388-20.672-26.65 3.883-42.662-6.722-61.108-1.813z" fill="#ff0"/><path d="M413.19 240.03c0 51.36-41.636 92.994-92.995 92.994-51.36 0-92.995-41.636-92.995-92.995 0-51.362 41.636-92.996 92.995-92.996 51.36 0 92.995 41.636 92.995 92.995z" fill="#ff0"/><path d="M401.22 240.213c0 44.652-36.198 80.847-80.848 80.847s-80.847-36.196-80.847-80.846c0-44.652 36.197-80.847 80.847-80.847 44.65 0 80.847 36.196 80.847 80.847z" fill="#be0027"/><path d="M390.218 240.52c0 38.365-31.102 69.466-69.467 69.466-38.365 0-69.466-31.102-69.466-69.467 0-38.367 31.102-69.468 69.467-69.468 38.367 0 69.468 31.102 69.468 69.467z" fill="#ff0"/><path d="M261.553 194.953c19.22-.423 43.155 1.33 58.93 13.962 16.743-10.457 36.567-15.29 56.756-13.418l10.335 18.858c-14.99-1.512-29.617.605-46.964 7.616 22.123 17.53 33.184 40.135 32.46 67.636-2.54 3.143-6.53 6.648-9.067 9.79 3.687-26.714-10.396-56.51-30.826-72.166 16.622 23.996 26.535 45.633 23.755 75.43-2.96 1.754-6.468 4.232-9.43 5.985 4.352-26.293-1.81-57.12-21.214-75.07 11.18 16.44 22.363 45.937 15.412 75.976-3.023.908-7.676 3.447-10.698 4.353 7.798-24.6 2.9-55.365-10.155-73.8-12.934 18.558-17.166 46.903-9.792 73.075-3.627-.906-6.346-1.995-9.972-2.9-5.32-28.166 2.056-59.96 14.87-76.52-13.056 7.556-25.387 39.95-21.943 73.075-3.142-1.45-5.56-2.54-8.703-3.99-4.23-24.72 6.95-56.875 23.03-75.432-18.255 11.485-33.063 39.652-30.464 69.993-2.78-2.478-5.38-3.686-8.16-6.164-3.203-26.475 12.088-53.13 30.1-69.087-15.17-6.77-28.166-8.1-46.964-7.797 2.96-6.105 5.742-13.297 8.704-19.402z" fill="#be0027"/></g></svg>