<svg xmlns="http://www.w3.org/2000/svg" height="480" width="640" version="1"><defs><clipPath id="a"><path fill-opacity=".67" d="M-85.333 0h682.67v512h-682.67z"/></clipPath></defs><g fill-rule="evenodd" clip-path="url(#a)"><path fill="#1b0073" d="M-40 0h720v480H-40z"/><path fill="#e60006" d="M-40 120h720v240H-40z"/><g stroke="#e60000" fill="#fff"><path d="M167.51 232.658h305.26v49.36H167.51z"/><path d="M167.273 281.942l-4.93 11.61h315.52l-4.93-11.61h-305.66z"/><path d="M408.355 281.943l-5.98 11.61h71.76l-5.98-11.61h-59.8z"/><path d="M425.86 281.943l-3.016 11.61h36.18l-3.015-11.61h-30.15z"/><path d="M430.986 281.943l-1.945 11.61h23.34l-1.944-11.61h-19.45z"/><path d="M288.79 281.942l-6.29 11.61h75.48l-6.29-11.61h-62.9z"/><path d="M165.797 231.913h308.695v11.615H165.797z"/><g><path d="M407.98 232.765h60.5v49.166h-60.5z"/><path d="M451.26 255.805h6.05v26.123h-6.05z"/><path d="M424.64 255.805h6.05v26.123h-6.05z"/></g><g><path d="M304.21 281.942l-3.16 11.61h37.92l-3.16-11.61h-31.6z"/><path d="M310.18 281.942l-1.98 11.61h23.76l-1.98-11.61h-19.8z"/><path d="M287.958 232.658h63.747v49.36h-63.747z"/><path d="M338.75 255.8h6.05v26.124h-6.05z"/><path d="M296.65 255.798h6.055v26.123h-6.054z"/><path d="M304.705 220.713h30.87v61.294h-30.87z"/><path d="M327.86 255.8h6.05v26.122h-6.05z"/><path d="M307.54 255.8h6.055v26.123h-6.054z"/><path d="M306.718 230.466l13.04 18.82 13.808-18.82h-26.848z"/></g><path d="M431.987 232.658h17.15v60.975h-17.15z"/><path d="M434.843 232.658h11.42v60.975h-11.42z"/><g><path d="M171.274 281.943l-5.98 11.61h71.76l-5.98-11.61h-59.8z"/><path d="M185.884 281.943l-2.815 11.61h33.78l-2.816-11.61h-28.15z"/><path d="M190.793 281.943l-1.795 11.61h21.54l-1.795-11.61h-17.95z"/><path d="M170.937 232.658h60.024v49.36h-60.023z"/><path d="M182.64 255.807h6.05v26.123h-6.05z"/><path d="M210.47 255.808h6.05v26.123h-6.05z"/><path d="M191.517 232.658h17.15v60.975h-17.15z"/><path d="M194.362 232.658h11.422v60.975h-11.422z"/></g><path d="M162.37 221.043h315.55v11.614H162.37z"/><g><g><path d="M114.318 327.965H525.85v14.927H114.318z"/><path d="M153.572 290.646H485.33v14.927H153.572z"/><path d="M148.507 293.845h341.888v14.927H148.507z"/><path d="M114.318 327.965H525.85v14.927H114.318z"/><path d="M139.643 302.375h360.882v14.927H139.643z"/><path d="M126.98 313.037h386.207v14.928H126.98z"/></g><g><path d="M191.62 290.662h17.158v52.25h-17.156z"/><path d="M194.476 290.662h11.438v52.25h-11.438z"/></g><g><path d="M431.714 290.662h17.157v52.25h-17.156z"/><path d="M434.57 290.662h11.437v52.25H434.57z"/></g></g><path d="M313.804 232.66h13.783v110.33h-13.783z"/><g><path d="M411.793 233.063l.168-30.234s3.07 5.926 26.945 7.224c22.596-.768 26.34-4.392 27.362-7.604l-.936 30.725-53.537-.112z"/><g><path d="M427.205 197.67l-7.386-5.93c2.46-1.54 7.033 1.098 7.033 1.098s2.462-6.81 13.016-9.667c10.55 2.857 13.013 9.668 13.013 9.668s4.573-2.637 7.036-1.1l-7.39 5.933h-25.325z"/><path d="M423.594 213.233l-9.615-8.323c3.205-2.16 9.156 1.542 9.156 1.542s3.206-9.56 16.943-13.567c13.736 4.008 16.94 13.567 16.94 13.567s5.953-3.7 9.16-1.542l-9.617 8.325h-32.968z"/></g><g><path d="M440.21 151.426c.304 0 11.504 20.03 0 20.335-11.502.304 0-19.727 0-20.334z"/><path d="M430.574 176.672l-5.692-3.108c1.898-.806 5.42.576 5.42.576s1.9-3.57 10.03-5.067c8.132 1.497 10.03 5.067 10.03 5.067s3.523-1.382 5.42-.576l-5.692 3.11h-19.515z"/><path d="M435.385 179.212l-.14-2.533s.977-3.57 5.16-5.068c4.186 1.497 5.162 5.067 5.162 5.067l-.14 2.532h-10.042z"/><path d="M430.2 186.874l-.28-3.384s1.947-4.767 10.29-6.766c8.34 2 10.288 6.766 10.288 6.766l-.28 3.384H430.2z"/><path d="M430.2 191.955l-.28-3.384s1.947-4.766 10.29-6.765c8.34 2 10.288 6.766 10.288 6.766l-.28 3.385H430.2z"/><path d="M430.574 207.355l-5.692-8.323c1.898-2.16 5.42 1.542 5.42 1.542s1.9-9.56 10.03-13.567c8.132 4.008 10.03 13.567 10.03 13.567s3.523-3.7 5.42-1.542l-5.692 8.325h-19.515z"/><path d="M430.574 217.517l-5.692-8.323c1.898-2.16 5.42 1.542 5.42 1.542s1.9-9.56 10.03-13.567c8.132 4.007 10.03 13.566 10.03 13.566s3.523-3.7 5.42-1.542l-5.692 8.325h-19.515z"/><path d="M430.2 232.63l-.28-8.467s1.947-11.93 10.29-16.934c8.34 5.003 10.288 16.933 10.288 16.933l-.28 8.466H430.2z"/><path d="M430.574 232.683l-5.692-6.237c1.898-1.618 5.42 1.155 5.42 1.155s1.9-7.162 10.03-10.166c8.132 3.004 10.03 10.167 10.03 10.167s3.523-2.772 5.42-1.154l-5.692 6.238h-19.515z"/></g></g><g><g><path d="M187.46 195.5l-7.386-5.93c2.462-1.54 7.034 1.098 7.034 1.098s2.462-6.81 13.016-9.667c10.552 2.857 13.014 9.668 13.014 9.668s4.573-2.637 7.036-1.1l-7.388 5.933H187.46z"/><path d="M183.85 211.063l-9.616-8.323c3.206-2.16 9.157 1.542 9.157 1.542s3.207-9.56 16.944-13.567c13.737 4.008 16.942 13.567 16.942 13.567s5.952-3.7 9.158-1.542l-9.616 8.325H183.85z"/></g><path d="M174.1 233.063l.17-30.234s3.068 5.926 26.943 7.224c22.596-.768 26.34-4.392 27.362-7.604l-.936 30.725-53.54-.112z"/><g><path d="M200.115 151.426c.303 0 11.503 20.03 0 20.335-11.503.304 0-19.727 0-20.334z"/><path d="M190.478 176.672l-5.69-3.108c1.896-.806 5.42.576 5.42.576s1.897-3.57 10.03-5.067c8.13 1.497 10.027 5.067 10.027 5.067s3.524-1.382 5.422-.576l-5.693 3.11H190.48z"/><path d="M195.29 179.212l-.14-2.533s.976-3.57 5.16-5.068c4.185 1.497 5.16 5.067 5.16 5.067l-.14 2.532h-10.04z"/><path d="M190.103 186.874l-.28-3.384s1.948-4.767 10.29-6.766c8.342 2 10.29 6.766 10.29 6.766l-.28 3.384h-20.02z"/><path d="M190.103 191.955l-.28-3.384s1.948-4.766 10.29-6.765c8.342 2 10.29 6.766 10.29 6.766l-.28 3.385h-20.02z"/><path d="M190.478 207.355l-5.69-8.323c1.896-2.16 5.42 1.542 5.42 1.542s1.897-9.56 10.03-13.567c8.13 4.008 10.027 13.567 10.027 13.567s3.524-3.7 5.422-1.542l-5.693 8.325H190.48z"/><path d="M190.478 217.517l-5.69-8.323c1.896-2.16 5.42 1.542 5.42 1.542s1.897-9.56 10.03-13.567c8.13 4.007 10.027 13.566 10.027 13.566s3.524-3.7 5.422-1.542l-5.693 8.325H190.48z"/><path d="M190.103 232.63l-.28-8.467s1.948-11.93 10.29-16.934c8.342 5.003 10.29 16.933 10.29 16.933l-.28 8.466h-20.02z"/><path d="M190.478 232.683l-5.69-6.237c1.896-1.618 5.42 1.155 5.42 1.155s1.897-7.162 10.03-10.166c8.13 3.004 10.027 10.167 10.027 10.167s3.524-2.772 5.422-1.154l-5.693 6.238H190.48z"/></g></g><g transform="matrix(.968 0 0 .968 -40.064 0)"><rect ry="6.449" height="12.898" width="85.039" y="226.28" x="329.53"/><path d="M415.79 233.86l.546-42.52s-1.64 10.43-6.56 10.43h-75.46c-4.923 0-6.563-10.43-6.563-10.43l.546 42.52h87.49z"/><g><path d="M399.076 214.536l.164-14.7s9.423-1.72 8.115-5.356c-1.308-3.636-12.64 4.583-12.64 4.583h-45.337s-11.334-8.22-12.642-4.583c-1.308 3.635 8.115 5.356 8.115 5.356l.164 14.7h54.06z"/><path d="M404.485 226.536l.197-14.7s11.307-1.72 9.738-5.356c-1.57-3.636-15.17 4.583-15.17 4.583h-54.403s-13.6-8.22-15.17-4.583c-1.57 3.635 9.738 5.356 9.738 5.356l.196 14.7h64.873z"/><path d="M380.534 152.407l.053-6.684s3.062-.782 2.637-2.435c-.425-1.653-3.547-4.792-8.035-8.112-3.16-1.54 4.063-6.877-2.74-7.232-6.243.197-.705 6.086-2.74 7.47-5.048 3.08-9.012 6.22-9.437 7.874-.425 1.653 2.638 2.435 2.638 2.435l.054 6.684h17.57z"/><path d="M391.02 189.753l.115-12.036s6.666-1.41 5.74-4.386c-.924-2.976-8.943 3.754-8.943 3.754h-32.075s-8.02-6.73-8.944-3.753c-.925 2.977 5.742 4.387 5.742 4.387l.115 12.036h38.248z"/><path d="M395.027 199.573l.14-12.036s8.008-1.41 6.897-4.386c-1.112-2.976-10.745 3.754-10.745 3.754h-38.537s-9.634-6.73-10.745-3.753c-1.112 2.977 6.898 4.387 6.898 4.387l.138 12.036h45.95z"/><path d="M384.27 171.89l.075-8.17s4.31-.956 3.712-2.976c-.598-2.02-5.783 2.547-5.783 2.547h-20.74s-5.187-4.567-5.785-2.546c-.6 2.02 3.712 2.977 3.712 2.977l.074 8.17h24.733z"/><path d="M386.918 178.56l.09-8.17s5.183-.956 4.463-2.976c-.718-2.02-6.952 2.547-6.952 2.547h-24.934s-6.234-4.567-6.953-2.546c-.718 2.02 4.464 2.977 4.464 2.977l.09 8.17h29.733z"/><path d="M380.894 158.107l.053-6.684s3.062-.782 2.637-2.435c-.425-1.653-4.108 2.084-4.108 2.084h-14.734s-3.684-3.737-4.11-2.084c-.424 1.653 2.64 2.435 2.64 2.435l.052 6.684h17.57z"/><path d="M382.666 163.567l.064-6.684s3.675-.782 3.165-2.435c-.51-1.653-4.93 2.084-4.93 2.084h-17.68s-4.42-3.737-4.93-2.084c-.51 1.653 3.164 2.435 3.164 2.435l.062 6.684h21.084z"/></g><g><path d="M366.393 163.877l-3.26-3.68c1.086-.956 3.105.68 3.105.68s1.086-4.226 5.745-6c4.657 1.774 5.744 6 5.744 6s2.02-1.636 3.106-.68l-3.26 3.68h-11.18z"/><path d="M364.208 169.876l-4.568-3.68c1.523-.956 4.35.68 4.35.68s1.523-4.226 8.05-6c6.526 1.774 8.05 6 8.05 6s2.827-1.636 4.35-.68l-4.57 3.68H364.21z"/><path d="M362.94 180.37l-5.212-4.908c1.737-1.272 4.964.91 4.964.91s1.738-5.637 9.186-8c7.447 2.363 9.185 8 9.185 8s3.227-2.182 4.965-.91l-5.214 4.91H362.94z"/><path d="M360.746 193.265l-6.52-6.135c2.173-1.59 6.21 1.137 6.21 1.137s2.173-7.046 11.49-10c9.315 2.954 11.488 10 11.488 10s4.037-2.728 6.21-1.137l-6.52 6.136h-22.358z"/><path d="M359.22 203.9l12.433 15.488L384.82 203.9h-25.6z"/><path d="M358.55 205.526l-7.828-6.83c2.61-1.77 7.456 1.265 7.456 1.265s2.61-7.843 13.794-11.132c11.185 3.29 13.794 11.133 13.794 11.133s4.847-3.035 7.456-1.264l-7.83 6.832h-26.84z"/><path d="M358.18 220.998l13.47 19.464 14.265-19.464H358.18z"/><path d="M357.624 223.083l-8.492-8.59c2.832-2.226 8.088 1.593 8.088 1.593s2.83-9.864 14.962-14c12.132 4.136 14.963 14 14.963 14s5.256-3.82 8.088-1.592l-8.493 8.59h-29.115z"/><path d="M357.624 240.357l-8.492-8.59c2.832-2.226 8.088 1.593 8.088 1.593s2.83-9.864 14.962-14c12.132 4.136 14.963 14 14.963 14s5.256-3.82 8.088-1.592l-8.493 8.59h-29.115z"/></g></g><g><path d="M236.21 255.803h6.05v26.123h-6.05z"/><path d="M256.78 255.8h6.05v26.124h-6.05z"/><path d="M247.1 255.8h6.05v26.123h-6.05z"/><path d="M357.016 255.802h6.05v26.123h-6.05z"/><path d="M398.156 255.8h6.05v26.123h-6.05z"/><path d="M377.586 255.8h6.05v26.122h-6.05z"/><path d="M367.906 255.798h6.05v26.123h-6.05z"/><path d="M387.266 255.798h6.05v26.123h-6.05z"/><path d="M277.35 255.802h6.05v26.123h-6.05z"/><path d="M266.46 255.8h6.05v26.123h-6.05z"/></g></g></g></svg>