<svg xmlns="http://www.w3.org/2000/svg" height="480" width="640"><defs><clipPath id="a"><path fill-opacity=".67" d="M-86.325 0h682.67v512h-682.67z"/></clipPath></defs><g clip-path="url(#a)"><path fill-rule="evenodd" fill="#e73e2d" d="M-73.082 0H710.47v287.334H-73.082z"/><path d="M272.46 264.478c-18.22-14.225-52.155-9.413-57.745-48.08 25.985 20.127 21.268-1.15 60.077 18.027l-2.33 30.053z" fill-rule="evenodd" stroke="#d8aa3f" stroke-width="1.5617699999999999" fill="#fec74a"/><path d="M277.308 246.89c-12.986-19.122-46.764-24.94-40.24-63.46 18.57 27.12 20.6 5.422 51.665 35.566l-11.425 27.895z" fill-rule="evenodd" stroke="#d8aa3f" stroke-width="1.5617699999999999" fill="#fec74a"/><path d="M283.214 234.384c-4.688-22.636-33.676-40.924-12.92-74.023 6.79 32.16 16.96 12.885 34.142 52.618l-21.223 21.406z" fill-rule="evenodd" stroke="#d8aa3f" stroke-width="1.5617699999999999" fill="#fec74a"/><path d="M296.855 222.76c2.487-22.982-19.487-49.287 10.428-74.416-3.41 32.69 12.185 17.47 16.34 60.557l-26.767 13.86z" fill-rule="evenodd" stroke="#d8aa3f" stroke-width="1.5617699999999999" fill="#fec74a"/><path d="M308.986 213.44c11.68-19.948 2.4-52.944 39.98-63.622-16.495 28.43 3.967 20.926-9.883 61.94l-30.097 1.683z" fill-rule="evenodd" stroke="#d8aa3f" stroke-width="1.5617699999999999" fill="#fec74a"/><path d="M326.62 215.897c17.4-15.22 19.057-49.454 58.085-47.67-24.656 21.733-2.87 21.103-29.006 55.612l-29.08-7.943z" fill-rule="evenodd" stroke="#d8aa3f" stroke-width="1.5617699999999999" fill="#fec74a"/><path d="M342.09 224.878c21.1-9.442 32.73-41.684 69.517-28.524-29.95 13.54-8.94 19.332-44.05 44.65L342.09 224.88z" fill-rule="evenodd" stroke="#d8aa3f" stroke-width="1.5617699999999999" fill="#fec74a"/><path d="M355.14 238.997c22.903-3.122 43.14-30.785 74.735-7.803-32.55 4.563-14.018 16.035-54.838 30.446l-19.898-22.642z" fill-rule="evenodd" stroke="#d8aa3f" stroke-width="1.5617699999999999" fill="#fec74a"/><path d="M436.674 243.375l-105.056 2.307 4.41 28.306 100.65-30.613z" fill-rule="evenodd" stroke="#d8aa3f" stroke-width="1.5617699999999999" fill="#fec74a"/><path d="M421.243 204.76l-97.35 37.367 16.3 31.287 81.053-68.655z" fill-rule="evenodd" stroke="#d8aa3f" stroke-width="1.5617699999999999" fill="#fec74a"/><path d="M343.974 263.128l50.364-91.444-77.256 71.91 26.89 19.534z" fill-rule="evenodd" stroke="#d8aa3f" stroke-width="1.5617699999999999" fill="#fec74a"/><path d="M342.924 255.59l16.19-102.627-50.45 91.204 34.26 11.426z" fill-rule="evenodd" stroke="#d8aa3f" stroke-width="1.5617699999999999" fill="#fec74a"/><path d="M336.877 247.256l-16.908-103.36-18.74 103.81 35.648-.452z" fill-rule="evenodd" stroke="#d8aa3f" stroke-width="1.5617699999999999" fill="#fec74a"/><path d="M328.13 238.397l-49.024-86.318 18.84 104.924L328.13 238.4z" fill-rule="evenodd" stroke="#d8aa3f" stroke-width="1.5617699999999999" fill="#fec74a"/><path d="M320.518 237.75l-76.033-64.2 54.063 91.88 21.97-27.68z" fill-rule="evenodd" stroke="#d8aa3f" stroke-width="1.5617699999999999" fill="#fec74a"/><path d="M217.758 205.21l81.627 67.397 12.55-35.255-94.18-32.143z" fill-rule="evenodd" stroke="#d8aa3f" stroke-width="1.5617699999999999" fill="#fec74a"/><path d="M298.524 244.547l-95.916-1.348 95.513 31.883.402-30.536z" fill-rule="evenodd" stroke="#d8aa3f" stroke-width="1.5617699999999999" fill="#fec74a"/><path d="M376.303 261.697c0 31.774-25.76 57.533-57.533 57.533s-57.533-25.76-57.533-57.533 25.76-57.533 57.533-57.533 57.533 25.76 57.533 57.533z" fill-rule="evenodd" stroke="#d8aa3f" stroke-width="1.560905" fill="#fec74a"/><path fill-rule="evenodd" fill="#005989" d="M-73.87 284.438h787.406V480H-73.87z"/><path d="M-74.32 425.625c14.642 6.776 35.617 23.737 58.052 23.722 37.54-.244 38.54-25.71 76.565-24.5 38.125.97 31.23 27.782 82.71 27.648 42.533-.11 56.274-32.5 92.938-28.618 27.152-1.398 38.266 30.67 80 31.076 43.287.925 59.18-34.95 86.335-31.98 28.927 0 38.403 28.895 78.987 29.103 51.69.26 60.777-30.073 93.115-28.133 23.016-.486 41.166 22.232 74.894 22.797 26.913.46 49.444-19.888 64.664-27.163l.753-34.525c-15.952 5.932-39.737 25.38-63.52 25.595-34.23 1.252-55.402-22.45-79.186-22.236-28.498.257-39.853 29.33-88.197 29.33-44.164 0-54.298-29.33-82.796-29.33-27.855.215-36.39 31.9-84.612 31.313-39.338-.473-54.666-30.245-82.522-30.03-29.53 0-60.067 28.95-92.766 27.552-45.13-1.907-54.882-27.553-84.414-27.553-22.07 0-45.888 24.032-72.477 24.433-26.443.407-56.15-23.914-58.9-24.433l.377 35.934z" fill-rule="evenodd" fill="#fff"/><path d="M-74.32 357.253c14.642 6.776 35.617 23.737 58.052 23.722 37.54-.244 38.54-25.71 76.565-24.5 38.125.97 31.23 27.782 82.71 27.648 42.533-.11 56.274-32.5 92.938-28.618 27.152-1.398 38.266 30.67 80 31.076 43.287.926 59.18-34.95 86.335-31.98 28.927 0 38.403 28.896 78.987 29.104 51.69.26 60.777-30.073 93.115-28.133 23.016-.485 41.166 22.233 74.894 22.798 26.913.46 49.444-19.888 64.664-27.163l.753-34.525c-15.952 5.932-39.737 25.38-63.52 25.595-34.23 1.252-55.402-22.45-79.186-22.236-28.498.255-39.853 29.328-88.197 29.328-44.164 0-54.298-29.33-82.796-29.33-27.855.215-36.39 31.9-84.612 31.314-39.338-.474-54.666-30.246-82.522-30.032-29.53 0-60.067 28.95-92.766 27.553-45.13-1.907-54.882-27.553-84.414-27.553-22.07 0-45.888 24.033-72.477 24.433-26.443.407-56.15-23.914-58.9-24.433l.377 35.934z" fill-rule="evenodd" fill="#fff"/><path d="M-74.32 289.613c14.628 6.776 35.583 23.736 57.998 23.72 37.504-.242 38.504-25.71 76.494-24.5 38.09.972 31.2 27.783 82.632 27.65 42.494-.112 56.222-32.5 92.852-28.62 27.127-1.396 38.23 30.67 79.926 31.077 43.246.926 59.125-34.95 86.253-31.98 28.9 0 38.368 28.895 78.913 29.103 51.643.26 60.72-30.073 93.03-28.132 22.994-.485 41.126 22.233 74.823 22.798 26.89.458 49.4-19.888 64.605-27.163l.752-34.526c-15.937 5.93-39.7 25.38-63.462 25.594-34.195 1.253-55.348-22.45-79.11-22.236-28.472.256-39.818 29.33-88.115 29.33-44.123 0-54.247-29.33-82.72-29.33-27.828.214-36.354 31.9-84.533 31.313-39.3-.472-54.614-30.245-82.444-30.03-29.503 0-60.01 28.95-92.68 27.552-45.09-1.907-54.83-27.553-84.335-27.553-22.05 0-45.847 24.032-72.41 24.432-26.39.413-56.072-23.906-58.82-24.43l.378 35.933z" fill-rule="evenodd" fill="#fff"/><path d="M209.19 71.21c57.232-3.92 46.8-8.808 69.837-12.485 29.028 3.99 32.348 21.566 48.523 32.348 0 0-6.08 20.556-25.975 17.646-2.675-8.247 9.63-10.796-25.778-32.382-20.586-1.225-57.422 3.613-66.608-5.13z" fill-rule="evenodd" stroke="#d8aa3f" stroke-width="NaN" fill="#ffc84b"/><path d="M386.62 103.022l-41.23 1.697v10.186c27.81.89 32.823-2.83 41.23-11.884z" fill-rule="evenodd" stroke="#d8aa3f" stroke-width="NaN" fill="#ffc84b"/><path stroke-linejoin="round" d="M244.843 101.316c7.185-3.676 10.76-2.176 16.985-2.418 4.285 7.76 8.327 8.488 17.705 9.458 14.31 20.13 34.44 20.372 37.35 20.372 28.052-.728 36.945-20.372 55.78-22.555h19.89c-3.315-5.66-5.903-8.893-13.098-9.216-14.794-.808-33.953-.404-50.687 3.395l-23.526 5.82c-6.872-3.313-23.687-20.937-34.44-20.614-6.305 1.697-6.305 3.88-9.458 6.306-6.063 2.587-12.127 1.347-16.5 9.45z" fill-rule="evenodd" stroke="#d8aa3f" stroke-width="1.5617699999999999" fill="#ffc84b"/><path d="M273.36 92.93c0 1.643-1.333 2.976-2.977 2.976s-2.977-1.333-2.977-2.977 1.333-2.977 2.977-2.977 2.976 1.332 2.976 2.976z" fill-rule="evenodd" stroke="#d8aa3f" stroke-width="1.56154" fill="#ffc84b"/><path d="M292.393 101.08c42.12-50.768 78.902-44.543 126.843-48.02 1.618 5.903 1.052 14.715-21.827 22.556-31.287 4.608-87.312 37.59-87.554 37.59-10.43-.484-17.705-11.397-17.463-12.126z" fill-rule="evenodd" stroke="#d8aa3f" stroke-width="NaN" fill="#ffc84b"/><path d="M378.933 68.003l31.063 1.346" stroke="#d9a43e" stroke-linecap="round" stroke-width="NaN" fill="none"/><path d="M375.55 73.07l22.64 1.848" stroke="#d9a43e" stroke-linecap="round" stroke-width="NaN" fill="none"/></g></svg>