<svg xmlns="http://www.w3.org/2000/svg" height="480" width="640"><defs><clipPath id="a"><path fill-opacity=".67" d="M0 0h682.67v512H0z"/></clipPath></defs><g clip-path="url(#a)" fill-rule="evenodd"><path fill="#ff0" d="M0 0h720.722v120H0z"/><path fill="#fff" d="M0 120h720.722v120H0z"/><path fill="#be0027" d="M0 240h720.722v120H0z"/><path fill="#3b5aa3" d="M0 360h720.722v120H0z"/><path d="M0 0v480l357.994-239.325L0 0z" fill="#239e46"/><path d="M147.384 132.59C67.606 128.55 31.256 192.095 31.34 241.22c-.18 58.096 54.872 106.01 105.76 103.114-27.44-12.975-60.945-49.368-61.253-103.36-.282-48.918 27.653-91.452 71.537-108.383z" fill="#fff"/><path fill="#fff" d="M146.166 184.722l-11.242-8.797-13.628 4.29 4.888-13.422-8.278-11.634 14.274.495 8.498-11.472 3.93 13.732 13.55 4.543-11.854 7.99z"/><path fill="#fff" d="M145.927 233.53l-11.242-8.796-13.628 4.29 4.888-13.422-8.278-11.634 14.274.496 8.5-11.472 3.93 13.732 13.548 4.543-11.853 7.99z"/><path fill="#fff" d="M146.166 282.822l-11.242-8.797-13.628 4.29 4.888-13.422-8.278-11.634 14.274.495 8.498-11.472 3.93 13.732 13.55 4.543-11.854 7.99z"/><path fill="#fff" d="M145.927 332.585l-11.242-8.797-13.628 4.29 4.888-13.422-8.278-11.634 14.274.496 8.5-11.472 3.93 13.732 13.548 4.543-11.853 7.99z"/></g></svg>