<svg xmlns="http://www.w3.org/2000/svg" height="480" width="640" version="1"><defs><clipPath id="a"><path fill-opacity=".67" d="M-95.808-.44h682.67v512h-682.67z"/></clipPath></defs><g fill-rule="evenodd" clip-path="url(#a)"><path fill="#fff" d="M662.572 480.255h-684.9V0h684.9z"/><path d="M325.965 240.468c0 58.256-47.226 105.48-105.48 105.48-58.257 0-105.482-47.225-105.482-105.48 0-58.256 47.226-105.48 105.48-105.48 58.257 0 105.482 47.225 105.482 105.48z" fill="#fff"/><path d="M458.287 246.43c0 75.97-60.972 137.555-136.19 137.555S185.91 322.4 185.91 246.43s60.972-137.555 136.188-137.555 136.19 61.584 136.19 137.555z" fill="#c70000"/><path d="M43.498 118.917l78.415-90.695 18.577 16.06-78.415 90.696z"/><path d="M69.177 141.12l78.415-90.696 18.577 16.06-78.416 90.696z"/><path d="M43.498 118.917l78.415-90.695 18.577 16.06-78.415 90.696z"/><path d="M43.498 118.917l78.415-90.695 18.577 16.06-78.415 90.696z"/><path d="M95.405 163.795L173.82 73.1l18.577 16.06-78.415 90.697z"/><path d="M43.498 118.917l78.415-90.695 18.577 16.06-78.415 90.696z"/><path d="M43.498 118.917l78.415-90.695 18.577 16.06-78.415 90.696z"/><path d="M520.308 28.19l77.775 91.206-18.68 15.93-77.777-91.207z"/><path d="M468.11 72.7l77.774 91.207-18.68 15.93-77.776-91.206z"/><path d="M481.273 125.278l73.69-63.576 13.725 15.894-78.746 70.8-8.67-23.12z" fill="#fff"/><path d="M572.077 349.49l-75.436 89.82-18.488-15.386 75.435-89.822z"/><path d="M494.483 50.21l77.775 91.207-18.68 15.93L475.8 66.142z"/><path d="M597.63 370.753l-75.436 89.82-18.49-15.385 75.436-89.822z"/><path d="M545.97 327.763l-75.436 89.82-18.49-15.385 75.436-89.822z"/><path d="M187.882 222.3c4.305 34.663 10.59 73.29 63.937 77.3 19.994 1.2 58.89-4.755 72.244-59.24 17.52-52.34 70.29-67.387 106.2-39.01 20.36 13.28 25.994 34.373 27.453 50.208-1.63 50.853-30.82 94.875-68.272 114.507-43.06 25.593-102.712 26.128-154.97-12.647-23.55-22.097-56.454-62.832-46.592-131.12z" fill="#3d5897"/><path d="M498.486 347.84l73.813 63.433-13.68 15.934-81.71-67.36 21.576-12.006z" fill="#fff"/><path d="M88.048 335.12l77.775 91.207-18.68 15.93-77.776-91.207z"/><path d="M74.644 410.334l73.69-63.575 13.725 15.892-78.747 70.8-8.67-23.12z" fill="#fff"/><path d="M113.873 313.098l77.775 91.207-18.68 15.93L95.19 329.03z"/><path d="M61.674 357.61l77.775 91.207-18.682 15.93-77.775-91.207z"/></g></svg>