<svg xmlns="http://www.w3.org/2000/svg" height="480" width="640"><defs><clipPath id="a"><path fill-opacity=".67" d="M-85.333 0h682.67v512h-682.67z"/></clipPath></defs><g clip-path="url(#a)"><g fill-rule="evenodd"><path fill="#f00" d="M-40 360.144h720.28v120.052H-40z"/><path fill="#f00" d="M-40 0h720.28v120.05H-40z"/><path fill="#fff" d="M-40 120.05h720.28v240.094H-40z"/></g><path d="M316.344 121.828c-7.322 14.62-12.205 14.62-24.407 24.366-4.88 4.873-12.203 7.31-2.44 12.184-9.763 4.872-14.644 7.31-19.526 17.055l2.442 2.436s9.276-4.548 9.763-2.437c1.622 1.947-12.21 9.422-13.996 10.56-1.787 1.135-10.413 6.496-10.413 6.496-12.203 9.745-19.525 7.308-26.847 21.927l24.407-2.435c4.88 17.055-12.204 19.49-24.407 26.8l-19.526 12.185c4.883 17.055 19.526 7.31 31.73 2.435l2.44 2.438v4.873l-24.407 12.183s-28.812 16.485-29.287 17.055c-.196.884 0 4.874 0 4.874 9.762 2.437 24.407 4.874 34.17 0 12.202-4.873 14.643-9.746 29.287-9.746-17.085 12.182-29.287 17.056-48.813 19.492v9.747c14.643 0 24.406 0 36.61-2.437l31.73-9.746c7.32 0 14.643 7.31 12.202 14.618-7.322 26.802-36.61 21.93-46.374 43.858l39.052-14.62c9.763-4.872 19.525-9.745 31.728-7.308 14.644 4.872 14.644 14.62 34.17 19.49l-4.88-12.18c4.88 2.436 9.762 2.436 14.642 4.872 12.205 4.874 14.645 9.747 29.288 7.31-12.203-14.62-14.643-12.182-24.406-21.928-9.762-14.62-14.644-36.548 0-38.985l17.085 4.875c17.085 2.435 17.085-2.437 41.492 7.31 14.645 4.872 19.526 12.18 36.61 7.308-7.32-17.055-34.17-29.238-51.253-34.11 19.523-12.185 14.642 4.87 41.49-2.44v-4.87c-19.524-14.62-26.847-26.803-53.695-26.803l41.492-4.874v-4.873s-40.92-10.735-41.872-11.117c.285-1.236 1.286-3.155 4.003-4.216 7.77 5.03 31.272 4.445 32.607 4.35-.687-5.996-11.823-10.946-21.585-15.818 0 0-41.802-25.765-42.01-28.046.83-6.53 17.17 1.037 34.688 6.116-4.88-9.746-14.644-14.618-24.407-17.055l14.645-2.436c-9.762-21.928-34.17-19.492-48.813-29.238-9.764-7.31-9.764-12.184-24.406-19.492z" fill="#007900"/><path stroke-linejoin="round" d="M289.962 284.128c1.812-5.807 4.197-10.944-6.67-15.894-10.87-4.95 5.43 19.794 6.67 15.894z" fill-rule="evenodd" stroke="#fff" stroke-linecap="round" stroke-width="3.0194219999999996" fill="#fff"/><path stroke-linejoin="round" d="M302.834 272.513c-2.19.285-3.338 8.282 1.047 10.47 4.866.76.862-10.374-1.046-10.47z" fill-rule="evenodd" stroke="#fff" stroke-linecap="round" stroke-width="3.0194219999999996" fill="#fff"/><path stroke-linejoin="round" d="M315.52 271.66c-2.29.667-2.385 11.897 5.625 9.9 8.008-1.998-.098-10.85-5.626-9.9z" fill-rule="evenodd" stroke="#fff" stroke-linecap="round" stroke-width="3.0194219999999996" fill="#fff"/><path stroke-linejoin="round" d="M330.294 242.822c1.715-2.76-.095-14.086-6.96-9.328-6.865 4.76 4.766 10.09 6.96 9.328z" fill-rule="evenodd" stroke="#fff" stroke-linecap="round" stroke-width="3.0194219999999996" fill="#fff"/><path stroke-linejoin="round" d="M315.322 233.4c2.1-.762 2.29-7.71-3.717-5.9-6.004 1.808 2.1 7.328 3.717 5.9z" fill-rule="evenodd" stroke="#fff" stroke-linecap="round" stroke-width="3.0194219999999996" fill="#fff"/><path stroke-linejoin="round" d="M301.794 236.156s-4.196-5.805-7.437-4.57c-4.1 3.904 7.722 4.665 7.437 4.57z" fill-rule="evenodd" stroke="#fff" stroke-linecap="round" stroke-width="3.0194219999999996" fill="#fff"/><path stroke-linejoin="round" d="M255.303 254.71c1.786.162 15.025-2.184 19.6-7.323 4.577-5.14-23.555 2.2-23.555 2.295 0 .094 2.658 4.54 3.955 5.027z" fill-rule="evenodd" stroke="#fff" stroke-linecap="round" stroke-width="3.0194219999999996" fill="#fff"/><path stroke-linejoin="round" d="M387.594 221.934c.682-1.214-7.047-6.724-11.64-4.552-1.183 4.068 11.6 5.388 11.64 4.552z" fill-rule="evenodd" stroke="#fff" stroke-linecap="round" stroke-width="3.0194219999999996" fill="#fff"/><path stroke-linejoin="round" d="M361.57 208.838c1.43-2.094-3.337-10.66-12.87-5.9-9.535 4.758 10.008 9.23 12.87 5.9z" fill-rule="evenodd" stroke="#fff" stroke-linecap="round" stroke-width="3.0194219999999996" fill="#fff"/><path stroke-linejoin="round" d="M331.438 203.794s2.382-7.71 8.103-6.187c6.485 4.95-7.817 6.473-8.103 6.187z" fill-rule="evenodd" stroke="#fff" stroke-linecap="round" stroke-width="3.0194219999999996" fill="#fff"/><path stroke-linejoin="round" d="M325.813 197.99c-.86-2.188-6.866-.856-13.73 3.618-6.866 4.473 15.826 1.333 13.73-3.617z" fill-rule="evenodd" stroke="#fff" stroke-linecap="round" stroke-width="3.0194219999999996" fill="#fff"/><path stroke-linejoin="round" d="M343.353 177.244s6.115-2.738 7.913 0c2.575 4.093-8.008.096-7.913 0z" fill-rule="evenodd" stroke="#fff" stroke-linecap="round" stroke-width="3.0194219999999996" fill="#fff"/><path stroke-linejoin="round" d="M338.225 174.563c-1.24-2.476-8.006-2.71-7.833.866-1.134 2.802 8.794 2.28 7.833-.867z" fill-rule="evenodd" stroke="#fff" stroke-linecap="round" stroke-width="3.0194219999999996" fill="#fff"/><path stroke-linejoin="round" d="M322.1 174.572c-.667-1.428-10.294.027-13.155 5.806 4.592 2.233 15.254-2.19 13.155-5.806z" fill-rule="evenodd" stroke="#fff" stroke-linecap="round" stroke-width="3.0194219999999996" fill="#fff"/><path stroke-linejoin="round" d="M301.503 180.478s-12.665 7.743-13.443 13.42c.384 4.902 15.73-8.85 15.73-8.85s1.335-5.427-2.287-4.57z" fill-rule="evenodd" stroke="#fff" stroke-linecap="round" stroke-width="3.0194219999999996" fill="#fff"/><path stroke-linejoin="round" d="M287.487 173.438c.355-1.576 6.258-5.225 6.77-4.95.477 1.588-4.823 5.886-6.77 4.95z" fill-rule="evenodd" stroke="#fff" stroke-linecap="round" stroke-width="3.0194219999999996" fill="#fff"/><path stroke-linejoin="round" d="M291.49 203.034c.286-2.284-15.063-2.095-9.247 4.95 4.843 5.906 10.298-3.903 9.248-4.95z" fill-rule="evenodd" stroke="#fff" stroke-linecap="round" stroke-width="3.0194219999999996" fill="#fff"/><path stroke-linejoin="round" d="M277.522 213.14c-.8-1.544-1.952-5.66-4.053-6.04-1.714-.095-10.944 1.808-11.65 3.37-.38 1.24 3.82 8.846 5.25 9.037 1.622.665 10.166-5.605 10.452-6.366z" fill-rule="evenodd" stroke="#fff" stroke-linecap="round" stroke-width="3.0194219999999996" fill="#fff"/><path stroke-linejoin="round" d="M360.33 264.806c.477-1.617 16.163-7.037 21.578-1.853 6.386 8.757-21.957 4.615-21.577 1.853z" fill-rule="evenodd" stroke="#fff" stroke-linecap="round" stroke-width="3.0194219999999996" fill="#fff"/><path stroke-linejoin="round" d="M403.438 275.053c3.436-5.816-10.554-12.71-16.493-6.066 2.03 7.985 13.714 10.875 16.492 6.066z" fill-rule="evenodd" stroke="#fff" stroke-linecap="round" stroke-width="3.0194219999999996" fill="#fff"/></g></svg>