<svg xmlns="http://www.w3.org/2000/svg" height="480" width="640"><defs><clipPath id="a"><path fill-opacity=".67" d="M-85.687-1.46h684.61V512h-684.61z"/></clipPath></defs><g clip-path="url(#a)" fill-rule="evenodd"><path fill="#ed3d00" d="M-38.264 1.025h717.08v478.633h-717.08z"/><path d="M-38.236 189.144l.146 102.738L322.633 240.5-38.24 189.144z" fill="#ffd100"/><path d="M-39.554 479.998l148.918-.28L323.14 239.082-39.553 479.998z" fill="#ffd100"/><path d="M371.51 479.66l-102.74-.095 51.383-237.325 51.356 237.42z" fill="#ffd100"/><path d="M679.554 0L530.636.285 316.85 242.825 679.554.006z" fill="#ffd100"/><path d="M268.49 1.365l102.74.096-51.39 237.326-51.35-237.42z" fill="#ffd100"/><path d="M678.863 479.66l-148.92-.288L316.16 238.737 678.863 479.66z" fill="#ffd100"/><path d="M678.863 189.144l-.15 102.738-360.723-51.388 360.873-51.35z" fill="#ffd100"/><path d="M-38.582 1.365l148.918.282 213.787 240.635L-38.582 1.367z" fill="#ffd100"/><path d="M404.162 240.607c0 45.21-37.54 81.86-83.85 81.86-46.31 0-83.852-36.65-83.852-81.86s37.54-81.86 83.85-81.86c46.31 0 83.852 36.65 83.852 81.86z" fill="#ed3d00"/><path d="M397.437 240.585c0 42.467-34.623 76.893-77.334 76.893-42.71 0-77.333-34.426-77.333-76.893 0-42.466 34.623-76.893 77.333-76.893s77.334 34.426 77.334 76.893z" fill="#ffd100"/></g></svg>