<svg xmlns="http://www.w3.org/2000/svg" height="480" width="640"><defs><clipPath id="a"><path fill-opacity=".67" d="M-88 32h640v480H-88z"/></clipPath></defs><g fill-rule="evenodd" clip-path="url(#a)"><path fill="#199d00" d="M-40 0h720v480H-40z"/><path d="M318.79 268.78c-11.285 7.857-23.09 14.804-34.377 22.66-14.142 1-27.856 1.144-42.426.43 0 0-30.427-5.142-38.14-18.427-.43-1.286 9.855-6 9.855-6 15.57 11 32.856 20.713 65.14 19.285-39.855-3.57-66.854-25.57-74.996-45.855 21.57-15.142 57.283-14.857 86.567 6-9.142-11.428-39.712-24.14-62.568-20.57-3.286-3.43-6.142-7.715-9.428-11.143 26.284-5.857 62.855 11 76.282 24.856-14.143-22.713-24.43-48.426-7.715-79.71 3.285 3.14 7 6.284 10.285 9.427-12.57 22.998-8 49.855 2.143 68.567-17.57-36.284-3.43-72.14 19.712-89.567 27 16.285 34.713 59.57 18.857 90.425 9-5.143 16.285-43.713 3.857-69.426l8.57-10.285c18.714 25.284 7.43 65.996-8.142 81.424 11.856-10.285 42.568-30.426 78.425-25.712-2.858 3.428-7.43 6.428-10.286 9.856-29.427-1.142-53.282 11.428-63.853 22.284 25.856-17.14 61.568-25.714 87.852-6.428-12.142 32.427-46.57 42.14-74.996 44.997 24.14 1.857 46.57-5.285 64.71-18l10.286 5.573c-7.714 7.285-18.856 14.57-34.712 16.713-15.285 2-29.713 1.43-44.997 1.715-11.856-7.714-24.05-15.376-35.906-23.09z" fill="#feffff"/><path d="M318.79 276.36l-29.394 22.12-78.787-.302c.967 3.175 3.98 7.232 5.756 9.09l78.182.305 24.243-18.788 23.334 18.484h79.09c2.274-2.425 4.698-5.76 6.82-8.637l-80.153.152-29.09-22.425z" fill="#fff"/><path d="M273.64 352.34c22.627 11.168 70.708 10.252 92.425-.274l-92.425.274z" fill="#fff"/><path d="M221.6 314.85l194.31-.152c-3.384 3.84-7.374 7.98-11.516 11.515l-172.84-.757c-3.244-2.25-7.56-7.5-9.947-10.606z" fill="#fff"/><path d="M234.95 328.79l166.87.456c-3.13 2.424-5.656 5.302-9.242 7.12l-148.33-.125c-3.424-1.84-6.937-4.966-9.29-7.45z" fill="#fff"/><path d="M250.15 341.21l136.36-.333c-3.636 2.335-7.727 4.822-12.272 7.006h-111.82c-3.788-1.315-8.182-4.146-12.272-6.673z" fill="#fff"/><path fill="#feb700" d="M391.11 148.185l-4.913-7.212-8.477 2.1 5.34-6.903-4.61-7.404 8.21 2.94 5.62-6.682-.26 8.724 8.087 3.28-8.374 2.448z"/><path fill="#feb700" d="M329.51 138.057l-9.74-6.665-9.642 6.82 3.328-11.325-9.458-7.054 11.793-.34 3.786-11.185 3.97 11.116 11.802.146-9.34 7.21z"/><path fill="#feb700" d="M432.11 196.192l-8.047-3.404-5.994 6.366.75-8.707-7.9-3.728 8.506-1.982 1.103-8.67 4.513 7.48 8.585-1.628-5.718 6.605z"/><path fill="#feb700" d="M246.72 148.05l4.913-7.212 8.477 2.1-5.34-6.903 4.61-7.404-8.21 2.942-5.62-6.683.26 8.723-8.087 3.28 8.374 2.448z"/><path fill="#feb700" d="M203.81 195.882l8.047-3.404 5.994 6.366-.75-8.707 7.9-3.728-8.506-1.982-1.103-8.67-4.513 7.48-8.585-1.628 5.718 6.605z"/></g></svg>