<svg xmlns="http://www.w3.org/2000/svg" height="480" width="640"><defs><clipPath id="a"><path fill-opacity=".67" d="M0 0h682.67v512H0z"/></clipPath></defs><g clip-path="url(#a)"><path fill-rule="evenodd" fill="#009a00" d="M0 0h720v150H0z"/><path fill-rule="evenodd" fill="#fff" d="M0 149.962h720v15.017H0z"/><path fill-rule="evenodd" d="M0 164.98h720v150H0z"/><path fill-rule="evenodd" fill="#fff" d="M0 314.98h720V330H0z"/><path fill-rule="evenodd" fill="#ffca00" d="M0 330h720v150H0z"/><path d="M0 0v480l315.02-240L0 0z" fill-rule="evenodd" fill="#f00"/><g><path fill="#ffca00" fill-rule="evenodd" d="M186.032 312.184l-48.005-35.174-47.972 35.146 18.62-56.525-48.252-34.76 59.516.242 18.145-56.63 18.16 56.677 59.468-.25-48.293 34.787z"/><path stroke-linejoin="round" d="M96.407 272.718h34.596c2.784 3.122 8.995 4.396 14.91-.038 10.844-5.938 31.822.038 31.822.038l4.13-4.39-10.068-33.047-3.615-3.872s-7.745-4.647-22.462-3.098c-14.717 1.55-19.88-.516-19.88-.516s-12.91 1.55-16.524 3.356c-.397.322-4.13 4.13-4.13 4.13l-8.78 37.438z" fill-rule="evenodd" stroke="#000" stroke-linecap="round" stroke-width="1.03375" fill="#fff"/><path stroke-linejoin="round" d="M103.378 264.2s33.047-4.13 42.6 8.52c-5.395 3.69-10.145 3.995-15.233.258.81-1.35 11.877-12.91 40.02-9.037" stroke="#000" stroke-linecap="round" stroke-width="1.03375" fill="none"/><path d="M138.747 231.153l-.256 36.404" stroke="#000" stroke-width="NaN" fill="none"/><path d="M168.18 231.665l6.197 28.917" stroke="#000" stroke-width="NaN" fill="none"/><path stroke-linejoin="round" d="M109.657 231.21l-3.44 14.913" stroke="#000" stroke-linecap="round" stroke-width="1.03375" fill="none"/><path stroke-linejoin="round" d="M73.937 276.687l8.136 9.54c.956.57 1.804.533 2.653 0l12.058-14.47 5.064-6.27c.784-.93 1.035-1.965.965-2.894l9.68-8.603c.793.055 1.265.144 2.057.198-.936-.243-1.622-.698-.885-1.724l2.17-1.688 1.688 2.17s-2.41 3.136-2.653 3.136h-2.652l-5.065 4.582 2.214 1.957 3.333 9.137 4.1-2.894-2.653-9.405 5.788-6.27-2.17-3.377 1.446-1.928s20.033 12.612 27.75 9.236c.21.075.467-8.995.467-8.995s-20.74-2.17-21.222-6.27c-.483-4.1 4.582-4.58 4.582-4.58l-2.17-3.137.482-1.688 3.616 4.582 8.2-6.994 48.232 54.985c2.633-1.067 3.195-1.71 3.376-4.34-.068-.066-47.267-54.26-47.267-54.26l3.617-3.86c.713-.803.964-1.145.965-2.412l5.545-4.822c1.668.573 2.732 1.572 3.618 2.893l15.25-12.924c.4.4 1.62.803 2.45.35l25.207-24.2-27.473 19.408-.968-.724c0-.803.996-1.002 0-2.41-1.068-1.282-2.654 1.205-2.894 1.205-.242 0-3.977-1.32-4.796-2.993l-.27 4.44-6.993 6.51-5.305-.24-7.718 7.476-.964 2.893 1.206 2.414s-4.1 3.617-4.1 3.376c0-.24-.83-1.066-.865-1.173l3.52-3.168.48-2.172-1.173-1.832c-.355.258-4.855 4.968-5.097 4.485-.405-.446-13.025-14.708-13.025-14.708l.723-2.653-8.2-8.924c-2.988-1.032-7.716-1.206-8.68 5.305-.752 1.53-6.994.242-6.994.242l-3.377.724-19.05 27.01 10.61 12.78 21.705-27.49.644-7.79 4.554 5.093c1.518.194 2.965.21 4.34-.484l12.86 14.354-2.14 2.09c.722.803 1.22 1.316 1.944 2.12.724-.482 1.414-1.06 2.138-1.544.24.323.643.934.885 1.255-1.078.588-1.834 1.368-2.91 1.955-1.726-1.124-3.39-2.523-3.264-4.75l-7.234 6.028-.243 1.206-21.463 17.845-1.93.24-.482 5.548 13.987-11.575v-1.69l1.446 1.207 10.852-8.68s.724.963.483.963c-.24 0-9.646 8.682-9.646 8.682l-.24.964-1.69 1.447-.964-.722-13.022 11.575h-1.93l-7.234 7.236c-1.866.16-3.483.358-5.065 1.445l-12.96 11.442z" fill-rule="evenodd" stroke="#000" stroke-linecap="round" stroke-width="1.03375"/></g></g></svg>