<svg xmlns="http://www.w3.org/2000/svg" height="480" width="640"><defs><clipPath id="a"><path fill-opacity=".67" d="M-54.667 0h682.67v512h-682.67z"/></clipPath></defs><g fill-rule="evenodd" clip-path="url(#a)"><path fill="#002170" d="M-80 0h960v480H-80z"/><path fill="#ffb20d" d="M-80 219.478h960v41.047H-80z"/><path fill="#fff" d="M203.267 410.694l-30.883-30.92-9.937 42.554-11.275-42.223-29.892 31.88 11.347-42.204-41.824 12.673 30.92-30.875-42.555-9.945 42.223-11.275-31.887-29.89 42.204 11.346-12.664-41.826 30.876 30.922 9.944-42.556 11.274 42.223 29.884-31.88-11.338 42.204 41.824-12.67-30.93 30.875 42.556 9.945-42.223 11.275 31.89 29.89-42.205-11.346z"/></g></svg>