<svg xmlns="http://www.w3.org/2000/svg" height="480" width="640"><defs><clipPath id="a"><path fill-opacity=".67" d="M0 0h496.06v372.05H0z"/></clipPath></defs><g clip-path="url(#a)"><path fill-rule="evenodd" fill="#fff" d="M.017 0h644.52v320.1H.016z"/><path d="M.017 0L-.01 24.027l153.805 79.028 57.88 1.678L.014.002z" fill="#c00"/><path d="M65.87 0l186.473 97.4V0H65.883z" fill="#006"/><path fill="#c00" d="M277.213 0v124.34H.026v71.05h277.187v124.34h85.29V195.39H639.69v-71.05H362.502V0h-85.29z"/><path d="M387.37 0v91.775L569.79.712 387.37.002z" fill="#006"/><path d="M393.137 101.78l51.298-.412L643.745.71l-52.885.863L393.137 101.78z" fill="#c00"/><path d="M.017 216.11v68.09l127.935-67.375-127.935-.722z" fill="#006"/><path d="M492.663 218.922l-53.332-.415L640.37 318.6l-1.322-22.9-146.386-76.778zm-553.506 52.13l188.51-98.972-49.517.335-188.95 98.494" fill="#c00"/><path d="M642.39 28.12l-152.243 75.496 150.218.563v112.496H512.43l126.752 68.68 1.86 34.936-67.7-.81-185.3-90.964v91.774H252.997v-91.774L79.18 320.046l-78.5.246v319.725h1279.35V.555L643.742 0M.692 36.09l-.674 66.4 134.684 1.69-134-68.09z" fill="#006"/><g fill-rule="evenodd" fill="#ffd900"><path d="M640.017 0h640.017v640.017H640.017z"/><path d="M0 320.01h675.407v320.007H0z"/></g><g fill-rule="evenodd"><path d="M375.262 161.578c0 30.47-24.7 55.17-55.17 55.17-30.468 0-55.17-24.7-55.17-55.17s24.7-55.17 55.17-55.17c30.47 0 55.17 24.7 55.17 55.17z" fill="#000067"/><path fill="#fff40d" d="M309.836 147.49l10.61-31.735 10.608 31.736 34.424-.023-27.867 19.585 10.663 31.72-27.833-19.63-27.833 19.627 10.668-31.718-27.863-19.594z"/><path fill="#fff40d" d="M501.54 152.49l5.26-14.825 5.262 14.824 17.07-.012-13.82 9.147 5.29 14.817-13.803-9.17-13.803 9.168 5.29-14.815-13.817-9.152z"/><path fill="#fff40d" d="M314.903 262.835l5.26-14.824 5.262 14.825 17.07-.01-13.82 9.146 5.29 14.818-13.803-9.17-13.802 9.168 5.29-14.815-13.817-9.15z"/><path fill="#fff40d" d="M314.903 47.34l5.26-14.823 5.262 14.824 17.07-.01-13.82 9.147 5.29 14.817-13.803-9.17-13.802 9.168 5.29-14.815-13.817-9.152z"/><path fill="#fff40d" d="M127.688 152.49l5.26-14.825 5.262 14.824 17.07-.012-13.82 9.147 5.29 14.817-13.803-9.17-13.802 9.168 5.29-14.815-13.817-9.152z"/></g></g></svg>