<svg xmlns="http://www.w3.org/2000/svg" height="480" width="640" version="1"><defs><clipPath id="a"><path fill-opacity=".67" d="M0 0h640v480H0z"/></clipPath></defs><g clip-path="url(#a)"><path fill-rule="evenodd" fill="#ef2d29" d="M-3.3-21.61h702.27v553.02H-3.3z"/><path fill-rule="evenodd" fill="#009025" d="M174.57 317.33h535.76v207.56H174.57z"/><path fill-rule="evenodd" fill="#fff" d="M174.57-35.415h564.88v190.08H174.57z"/><g stroke-width=".983" stroke="#ef2d28"><g fill-rule="evenodd" transform="matrix(.198 0 0 .177 111.037 -13.446)" fill="#fff"><rect rx="11.298" ry="11.851" height="85.039" width="138.19" y="467.72" x="17.717"/><rect rx="10.719" ry="10.864" height="77.953" width="131.1" y="471.26" x="21.26"/><path d="M82.22 492.52l6.62.26.302 3.36 5.418 3.105 4.214-3.88 5.117 3.104-4.815 3.36 1.204 4.657 6.02-.26v6.208l-4.817-.26-2.408 3.88 5.418 4.397-4.214 3.62-4.516-3.878-6.622 1.552.3 5.69-7.223.517-.904-5.43-6.02-2.847-3.31 3.88-5.118-2.845 3.01-4.396-3.612-2.845H61.15l-.302-8.018 5.117.517 3.612-4.656-4.214-3.62 5.418-4.14 3.914 3.363 6.622-1.034.903-3.363z"/><ellipse transform="matrix(.658 0 0 .702 38.845 209.62)" cx="68.944" rx="11.049" cy="426.78" ry="9.944"/><g><path d="M38.976 474.8l-10.63 10.63"/><path d="M46.063 474.8l-10.63 10.63"/><path d="M53.15 474.8l-10.63 10.63"/><path d="M60.236 474.8l-10.63 10.63"/><path d="M67.322 474.8l-10.63 10.63"/><path d="M74.41 474.8l-10.63 10.63"/><path d="M81.496 474.8l-10.63 10.63"/><path d="M88.582 474.8l-10.63 10.63"/><path d="M95.67 474.8l-10.63 10.63"/><path d="M102.755 474.8l-10.63 10.63"/><path d="M109.842 474.8l-10.63 10.63"/><path d="M116.93 474.8l-10.63 10.63"/><path d="M88.582 474.8l-10.63 10.63"/><path d="M124.015 474.8l-10.63 10.63"/><path d="M131.102 474.8l-10.63 10.63"/><path d="M138.19 474.8l-10.63 10.63"/><path d="M145.276 474.8l-10.63 10.63"/><path d="M134.644 474.8l10.63 10.63"/><path d="M127.564 474.8l10.63 10.63"/><path d="M120.474 474.8l10.63 10.63"/><path d="M113.384 474.8l10.63 10.63"/><path d="M106.304 474.8l10.63 10.63"/><path d="M99.214 474.8l10.63 10.63"/><path d="M92.124 474.8l10.63 10.63"/><path d="M85.044 474.8l10.63 10.63"/><path d="M77.954 474.8l10.63 10.63"/><path d="M70.864 474.8l10.63 10.63"/><path d="M63.784 474.8l10.63 10.63"/><path d="M56.693 474.8l10.63 10.63"/><path d="M85.044 474.8l10.63 10.63"/><path d="M49.607 474.8l10.63 10.63"/><path d="M42.52 474.8l10.63 10.63"/><path d="M35.434 474.8l10.63 10.63"/><path d="M28.347 474.8l10.63 10.63"/></g><g><path d="M38.976 535.036l-10.63 10.63"/><path d="M46.063 535.036l-10.63 10.63"/><path d="M53.15 535.036l-10.63 10.63"/><path d="M60.236 535.036l-10.63 10.63"/><path d="M67.322 535.036l-10.63 10.63"/><path d="M74.41 535.036l-10.63 10.63"/><path d="M81.496 535.036l-10.63 10.63"/><path d="M88.582 535.036l-10.63 10.63"/><path d="M95.67 535.036l-10.63 10.63"/><path d="M102.755 535.036l-10.63 10.63"/><path d="M109.842 535.036l-10.63 10.63"/><path d="M116.93 535.036l-10.63 10.63"/><path d="M88.582 535.036l-10.63 10.63"/><path d="M124.015 535.036l-10.63 10.63"/><path d="M131.102 535.036l-10.63 10.63"/><path d="M138.19 535.036l-10.63 10.63"/><path d="M145.276 535.036l-10.63 10.63"/><path d="M134.644 535.036l10.63 10.63"/><path d="M127.564 535.036l10.63 10.63"/><path d="M120.474 535.036l10.63 10.63"/><path d="M113.384 535.036l10.63 10.63"/><path d="M106.304 535.036l10.63 10.63"/><path d="M99.214 535.036l10.63 10.63"/><path d="M92.124 535.036l10.63 10.63"/><path d="M85.044 535.036l10.63 10.63"/><path d="M77.954 535.036l10.63 10.63"/><path d="M70.864 535.036l10.63 10.63"/><path d="M63.784 535.036l10.63 10.63"/><path d="M56.693 535.036l10.63 10.63"/><path d="M85.044 535.036l10.63 10.63"/><path d="M49.607 535.036l10.63 10.63"/><path d="M42.52 535.036l10.63 10.63"/><path d="M35.434 535.036l10.63 10.63"/><path d="M28.347 535.036l10.63 10.63"/></g></g><g fill-rule="evenodd" fill="#fff" transform="matrix(.198 0 0 .177 19.131 -14.073)"><rect rx="11.298" ry="11.851" height="85.039" width="138.19" y="467.72" x="17.717"/><rect rx="10.719" ry="10.864" height="77.953" width="131.1" y="471.26" x="21.26"/><path d="M82.22 492.52l6.62.26.302 3.36 5.418 3.105 4.214-3.88 5.117 3.104-4.815 3.36 1.204 4.657 6.02-.26v6.208l-4.817-.26-2.408 3.88 5.418 4.397-4.214 3.62-4.516-3.878-6.622 1.552.3 5.69-7.223.517-.904-5.43-6.02-2.847-3.31 3.88-5.118-2.845 3.01-4.396-3.612-2.845H61.15l-.302-8.018 5.117.517 3.612-4.656-4.214-3.62 5.418-4.14 3.914 3.363 6.622-1.034.903-3.363z"/><ellipse transform="matrix(.658 0 0 .702 38.845 209.62)" cx="68.944" rx="11.049" cy="426.78" ry="9.944"/><g><path d="M38.976 474.8l-10.63 10.63"/><path d="M46.063 474.8l-10.63 10.63"/><path d="M53.15 474.8l-10.63 10.63"/><path d="M60.236 474.8l-10.63 10.63"/><path d="M67.322 474.8l-10.63 10.63"/><path d="M74.41 474.8l-10.63 10.63"/><path d="M81.496 474.8l-10.63 10.63"/><path d="M88.582 474.8l-10.63 10.63"/><path d="M95.67 474.8l-10.63 10.63"/><path d="M102.755 474.8l-10.63 10.63"/><path d="M109.842 474.8l-10.63 10.63"/><path d="M116.93 474.8l-10.63 10.63"/><path d="M88.582 474.8l-10.63 10.63"/><path d="M124.015 474.8l-10.63 10.63"/><path d="M131.102 474.8l-10.63 10.63"/><path d="M138.19 474.8l-10.63 10.63"/><path d="M145.276 474.8l-10.63 10.63"/><path d="M134.644 474.8l10.63 10.63"/><path d="M127.564 474.8l10.63 10.63"/><path d="M120.474 474.8l10.63 10.63"/><path d="M113.384 474.8l10.63 10.63"/><path d="M106.304 474.8l10.63 10.63"/><path d="M99.214 474.8l10.63 10.63"/><path d="M92.124 474.8l10.63 10.63"/><path d="M85.044 474.8l10.63 10.63"/><path d="M77.954 474.8l10.63 10.63"/><path d="M70.864 474.8l10.63 10.63"/><path d="M63.784 474.8l10.63 10.63"/><path d="M56.693 474.8l10.63 10.63"/><path d="M85.044 474.8l10.63 10.63"/><path d="M49.607 474.8l10.63 10.63"/><path d="M42.52 474.8l10.63 10.63"/><path d="M35.434 474.8l10.63 10.63"/><path d="M28.347 474.8l10.63 10.63"/></g><g><path d="M38.976 535.036l-10.63 10.63"/><path d="M46.063 535.036l-10.63 10.63"/><path d="M53.15 535.036l-10.63 10.63"/><path d="M60.236 535.036l-10.63 10.63"/><path d="M67.322 535.036l-10.63 10.63"/><path d="M74.41 535.036l-10.63 10.63"/><path d="M81.496 535.036l-10.63 10.63"/><path d="M88.582 535.036l-10.63 10.63"/><path d="M95.67 535.036l-10.63 10.63"/><path d="M102.755 535.036l-10.63 10.63"/><path d="M109.842 535.036l-10.63 10.63"/><path d="M116.93 535.036l-10.63 10.63"/><path d="M88.582 535.036l-10.63 10.63"/><path d="M124.015 535.036l-10.63 10.63"/><path d="M131.102 535.036l-10.63 10.63"/><path d="M138.19 535.036l-10.63 10.63"/><path d="M145.276 535.036l-10.63 10.63"/><path d="M134.644 535.036l10.63 10.63"/><path d="M127.564 535.036l10.63 10.63"/><path d="M120.474 535.036l10.63 10.63"/><path d="M113.384 535.036l10.63 10.63"/><path d="M106.304 535.036l10.63 10.63"/><path d="M99.214 535.036l10.63 10.63"/><path d="M92.124 535.036l10.63 10.63"/><path d="M85.044 535.036l10.63 10.63"/><path d="M77.954 535.036l10.63 10.63"/><path d="M70.864 535.036l10.63 10.63"/><path d="M63.784 535.036l10.63 10.63"/><path d="M56.693 535.036l10.63 10.63"/><path d="M85.044 535.036l10.63 10.63"/><path d="M49.607 535.036l10.63 10.63"/><path d="M42.52 535.036l10.63 10.63"/><path d="M35.434 535.036l10.63 10.63"/><path d="M28.347 535.036l10.63 10.63"/></g></g><g><path d="M65.69 100.17c-34.03 33.426-48.558 37.647-41.734 40.347S52.7 125.97 75.5 103.054s36.758-43.313 29.934-46.013-3.553 7.58-39.747 43.13z" fill-rule="evenodd" fill="#fff"/><path d="M37.204 124.53l11.927 3.137c-11.224 10.66-23.852 15.05-27.36 13.17-3.51-1.88 6.314-6.272 15.434-16.306z" fill-rule="evenodd" fill="#fff"/><path d="M37.132 125.633l9.83 2.506c-10.943 10.24-21.766 13.154-24.566 11.9-2.816-1.252 5.845-4.77 14.735-14.407z" fill-rule="evenodd" fill="#fff"/><path d="M73.996 98.923c-.026.157-.104.876-.174 1.162 0 .395-.04.698-.087 1.008-.11.27-.092.52-.434.62-.235.326-.383.41-.694.542-.212.164-.534.328-.87.465-.346.133-.662.15-1.04.078-.306-.19-.53-.385-.783-.543-.06-.245-.114-.608-.174-.852.093.25.158.653.173 1.007-.034.387-.176.556-.348.853" fill="none"/><path d="M70.788 104.115l-.087-.078c.208.184.123.096-.346-.155-.337-.154-.697-.237-1.13-.31h-1.216c-.473 0-.792.063-1.13.155-.244.22-.61.343-.868.543-.265.16-.378.35-.52.62-.238.21-.39.536-.61.697-.097.356-.297.344-.434.62.41.028.74.078.956.31.36.167-.303-.163-.434-.31-.285-.077-.36-.155-.782-.155-.396-.112-.637.09-1.043.155-.237.122-.303.155-.608.155" fill="none"/><path d="M66.103 107.994c-.177.01-.985.142-1.303 0-.355-.087-.566-.253-.782-.543-.107-.208 0 .373 0 .62-.04.457-.19.462-.435.776-.252.144-.517.347-.78.465-.22.17-.49.284-.783.39-.264.11-.572.223-.782.386-.29.185-.263.407-.435.698.033.38.102.594.348.775.103.26.334.52.522.696.215.356.453.524-.087.62-.296.113-.462.025-.782 0" fill="none"/><path d="M60.63 113.42c-.212-.05-.97-.276-1.302-.39h-1.216c-.47.033-.56.157-.956.31-.254.233-.43.393-.782.544-.186.215-.55.58-.695.852-.104.265-.174.622-.174 1.008.006.452.14.53.173.93.097.332.255.637.52.93.038.098.064.122.174.155" fill="none"/><path d="M56.27 118.84c-.038 0-.12.197-.248.367-.28.284-.316.306-.743.306-.385-.014-.35-.15-.62-.245-.127-.197-.286-.353-.433-.613-.1-.16-.187-.404-.31-.55-.112-.183-.253-.32-.37-.49-.116-.05-.16-.097-.31-.123.357.056.388.183.62.367.107.173.215.355.308.55.036.262.12.47.124.797 0 .338-.003.575-.125.857-.145.15-.253.308-.433.43-.142.137-.32.326-.433.49-.195.117-.336.213-.558.366-.186.108-.387.22-.68.245-.364-.025-.47-.127-.743-.245-.232-.167-.413-.278-.62-.428-.16-.112-.325-.334-.433-.49-.335-.083-.547-.05-.742.122-.17.115-.318.26-.433.43-.1.05-.27.194-.372.244" fill="none"/><path d="M49.494 121.17c.098.042.457.29.615.383.097.32.254.496.306.838.083.332.077.696.077 1.07-.084.39-.248.677-.384.99-.244.164-.366.284-.693.458-.307.04-.608.076-1 .076-.234.077-.69.115-.922 0-.343-.046-.597-.184-.846-.305-.285-.16-.46-.31-.77-.46-.15-.218-.385-.42-.615-.685-.19-.257-.332-.4-.46-.686.113.325.285.61.383.914.175.325.277.44.308.84.107.317.077.7.077 1.066-.034.248-.052.712-.154.915v.23" fill="none"/><path d="M38.078 128.018v.11c0-.298-.01-.147.123.443.235.26.782.33 1.24.222.4-.296.387-.52 1.113-.664.7.045.968.227 1.36.443.467.21.68.314.99.775.154.375.24.63-.247.775-.387.245-.847.38-1.36.442-.573 0-.985-.06-1.238.22-.393.365-.372.58-.372 1.218-.132.197-.158.778-.247.996-.345.146-.547.22-1.115.22-.133-.34-.282-.958-.37-1.326-.098-.398-.128-.952-.372-1.217-.232-.304-.527-.568-.867-.775-.15-.19-.44-.347-.742-.442.485.22.554.46.62.995-.428.192-.542.326-1.24.333-.684-.05-.85-.207-1.113-.553-.047.555-.245.74-.37 1.217-.255.335-.363.678-.62 1.106.11.533.345.56.373 1.217.16.43.143.847.495 1.107.156.17.274.205.618.22-.716 0-1.134-.068-1.608-.33-.368-.203-.645-.455-.99-.665-.44-.283-.98-.546-1.486-.664-.57 0-.983-.06-1.237.222-.35.223-.586.61-.743 1.106-.114.574-.158.957.124 1.328.21.426.257.592 0 1.106-.287.36-.716.402-1.36.553-.472-.023-.925-.12-1.24-.22" fill="none"/></g><g fill-rule="evenodd" transform="matrix(-.198 0 0 .177 144.942 -13.447)"><path d="M204.754 472.255C128.464 324.545 77.826 198.83 91.73 191.65c13.9-7.18 87.1 106.87 163.395 254.59l-50.37 26.015z" fill="#fff"/><path d="M209.8 469.657C136.202 327.16 85.493 206.84 96.616 201.097c11.122-5.745 79.88 105.24 153.482 247.747" fill="#fff"/><path d="M222.454 395.328c8.945 16.66 18.442 35.706 27.64 53.52l-40.297 20.812c-9.2-17.813-19.233-36.58-27.64-53.52l40.297-20.812z" fill="#fff"/><path d="M219.032 401.08c8.945 16.66 15.19 29.41 24.39 47.223l-30.224 15.61c-9.2-17.813-15.982-30.286-24.39-47.224l30.224-15.61z" fill="#fff"/><path fill="#fff" d="M197.108 420.382l20.15-10.406 17.885 34.63-20.15 10.406z"/><path d="M197.108 420.382l38.035 24.224" fill="#fff"/><path d="M214.996 455.015l2.263-45.036" fill="#fff"/><path d="M106.056 244.088l20.148-10.406" fill="#fff"/><ellipse fill="#ef0000" transform="matrix(1.605 .454 -.362 1.579 -734.9 -170.85)" cx="545.67" rx="3.543" cy="92.126" ry="3.543"/></g><g><path d="M98.735 99.727c34.196 33.427 48.76 37.648 41.935 40.348s-28.834-14.548-51.75-37.463S51.958 59.3 58.783 56.6s3.584 7.577 39.955 43.13z" fill-rule="evenodd" fill="#fff"/><path d="M127.174 123.904l-11.927 3.136c11.225 10.66 23.853 15.05 27.362 13.17 3.507-1.88-6.316-6.272-15.436-16.306z" fill-rule="evenodd" fill="#fff"/><path d="M127.252 125.806l-9.83 2.52c10.943 10.3 21.766 13.233 24.566 11.973 2.816-1.26-5.845-4.8-14.735-14.494z" fill-rule="evenodd" fill="#fff"/><path d="M90.79 98.38c.025.157.104.876.174 1.162 0 .395.04.698.088 1.008.11.27.092.52.437.62.236.326.386.41.7.542.213.164.537.328.874.465.35.133.668.15 1.05.078.307-.19.533-.385.788-.543.06-.245.115-.608.175-.852-.095.25-.16.653-.175 1.007.033.387.177.556.35.853" fill="none"/><path d="M94.028 103.57l.088-.077c-.208.184-.123.096.35-.155.34-.154.702-.237 1.137-.31h1.225c.477 0 .798.063 1.138.155.246.22.615.343.875.543.267.16.382.35.526.62.238.21.392.536.612.697.1.356.3.344.438.62-.413.028-.744.078-.963.31-.363.167.305-.163.438-.31.287-.077.36-.155.788-.155.4-.112.64.09 1.05.155.24.122.305.155.613.155" fill="none"/><path d="M98.757 107.446c.178.01.992.142 1.313 0 .357-.087.57-.253.787-.543.108-.21 0 .372 0 .62.04.456.192.46.438.775.254.144.52.347.787.465.22.17.492.283.788.388.265.112.575.225.787.388.293.185.265.407.438.698-.033.38-.103.594-.35.775-.103.263-.335.522-.525.698-.216.356-.456.524.087.62.3.113.466.025.788 0" fill="none"/><path d="M104.27 112.87c.215-.05.978-.276 1.313-.39h1.225c.474.033.565.157.962.31.257.233.433.393.788.544.188.215.553.58.7.852.104.265.175.622.175 1.008-.006.452-.14.53-.175.93-.098.332-.258.637-.525.93-.037.098-.064.122-.175.155" fill="none"/><path d="M108.196 118.342c.037 0 .12.198.247.368.28.284.316.306.743.306.384-.014.35-.15.62-.245.126-.196.285-.352.432-.612.1-.16.187-.404.31-.55.112-.183.253-.32.37-.49.116-.05.16-.097.31-.123-.357.056-.388.183-.62.367-.107.174-.215.356-.308.55-.036.263-.12.47-.124.798 0 .338.002.575.124.857.145.15.253.308.433.43.142.137.32.326.433.49.194.117.335.213.557.366.186.108.387.22.68.245.364-.025.47-.127.743-.245.23-.167.412-.278.62-.428.16-.112.324-.334.432-.49.335-.083.547-.05.742.122.17.115.318.26.433.43.1.05.27.194.372.244" fill="none"/><path d="M114.966 120.625c-.098.04-.457.29-.615.382-.097.32-.254.496-.306.838-.083.33-.077.695-.077 1.068.084.39.248.678.384.99.244.165.366.285.693.46.307.04.608.075 1 .075.234.077.69.115.922 0 .343-.046.597-.184.846-.305.285-.16.46-.31.77-.458.15-.22.385-.422.615-.686.19-.258.332-.402.46-.687-.113.326-.285.61-.383.915-.175.325-.277.44-.308.84-.107.317-.077.7-.077 1.066.034.248.052.712.154.915v.228" fill="none"/><path d="M126.3 127.39v.11c0-.297.01-.146-.123.444-.234.26-.78.33-1.238.22-.4-.295-.39-.518-1.115-.663-.7.046-.968.228-1.36.444-.467.208-.68.313-.99.774-.154.375-.24.63.247.775.387.245.847.38 1.36.442.573 0 .985-.06 1.238.22.393.365.372.58.372 1.218.132.197.158.778.247.996.343.145.545.22 1.113.22.133-.342.282-.96.37-1.327.098-.398.128-.952.372-1.217.232-.304.527-.568.867-.775.15-.19.44-.346.742-.44-.485.22-.554.46-.62.994.428.19.542.325 1.24.332.684-.05.85-.207 1.113-.553.048.555.246.74.37 1.217.256.335.364.678.62 1.106-.11.533-.344.56-.372 1.217-.16.43-.143.847-.495 1.107-.156.17-.274.205-.618.22.716 0 1.134-.068 1.608-.33.368-.203.645-.455.99-.665.44-.283.98-.546 1.486-.664.57 0 .983-.06 1.237.223.35.223.586.61.743 1.106.114.573.158.956-.124 1.327-.21.426-.257.592 0 1.106.287.36.716.402 1.36.553.472-.023.925-.12 1.24-.22" fill="none"/></g><g fill-rule="evenodd" transform="matrix(.198 0 0 .177 19.131 -14.073)"><path d="M204.754 472.255C128.464 324.545 77.826 198.83 91.73 191.65c13.9-7.18 87.1 106.87 163.395 254.59l-50.37 26.015z" fill="#fff"/><path d="M209.8 469.657C136.202 327.16 85.493 206.84 96.616 201.097c11.122-5.745 79.88 105.24 153.482 247.747" fill="#fff"/><path d="M222.454 395.328c8.945 16.66 18.442 35.706 27.64 53.52l-40.297 20.812c-9.2-17.813-19.233-36.58-27.64-53.52l40.297-20.812z" fill="#fff"/><path d="M219.032 401.08c8.945 16.66 15.19 29.41 24.39 47.223l-30.224 15.61c-9.2-17.813-15.982-30.286-24.39-47.224l30.224-15.61z" fill="#fff"/><path fill="#fff" d="M197.108 420.382l20.15-10.406 17.885 34.63-20.15 10.406z"/><path d="M197.108 420.382l38.035 24.224" fill="#fff"/><path d="M214.996 455.015l2.263-45.036" fill="#fff"/><path d="M106.056 244.088l20.148-10.406" fill="#fff"/><ellipse fill="#ef0000" transform="matrix(1.605 .454 -.362 1.579 -734.9 -170.85)" cx="545.67" rx="3.543" cy="92.126" ry="3.543"/></g><g fill-rule="evenodd" fill="#fff" transform="matrix(.198 0 0 .177 19.131 -14.073)"><path d="M265.73 396.85c0 124.02.654 170.76-7.493 177.17-7.72 6.857-222.82 0-222.82 35.433S212.57 680.32 265.73 680.32c70.863 0 106.294-35.434 106.294-106.3V396.85H265.73z"/><path d="M265.75 432.283V450c35.433 5.906 70.866 5.906 106.3 0v-17.717c-35.433 5.906-70.866 5.906-106.3 0z"/><path d="M265.75 396.85v17.717c35.433 5.906 70.866 5.906 106.3 0V396.85c-35.433 5.906-70.866 5.906-106.3 0z"/><path d="M265.75 414.567v17.717c35.433 5.906 70.866 5.906 106.3 0v-17.717c-35.433 5.906-70.866 5.906-106.3 0z"/><path d="M265.75 450v17.717c35.433 5.906 70.866 5.906 106.3 0V450c-35.433 5.906-70.866 5.906-106.3 0z"/><ellipse transform="matrix(.545 0 0 .144 130.46 394.32)" cx="256.89" rx="8.858" cy="210.83" ry="26.575"/><ellipse transform="matrix(.545 0 0 .144 130.46 391.13)" cx="292.32" rx="8.858" cy="246.26" ry="26.575"/><ellipse transform="matrix(.545 0 0 .144 130.46 390.49)" cx="327.76" rx="8.858" cy="263.98" ry="26.575"/><ellipse transform="matrix(.545 0 0 .144 130.46 390.49)" cx="363.19" rx="8.858" cy="263.98" ry="26.575"/><ellipse transform="matrix(.545 0 0 .144 130.46 391.13)" cx="398.62" rx="8.858" cy="246.26" ry="26.575"/><ellipse transform="matrix(.545 0 0 .144 130.46 394.32)" cx="434.06" rx="8.858" cy="210.83" ry="26.575"/><path d="M265.75 485.43l106.3 95.67"/><path d="M276.38 485.43l95.67 85.04"/><path d="M290.55 488.98l81.496 70.866"/><path d="M301.18 488.98l70.866 60.237"/><path d="M311.81 488.98l60.236 49.607"/><path d="M322.44 488.98l49.606 38.977"/><path d="M333.07 488.98l38.976 28.347"/><path d="M343.7 488.98l28.346 21.26"/><path d="M354.33 488.98l17.716 14.174"/><path d="M364.96 488.98l7.086 7.087"/><path d="M265.75 496.06l106.3 95.67"/><path d="M372.05 485.43l-116.93 106.3"/><path d="M361.42 485.43l-102.76 92.126"/><path d="M347.25 488.98l-81.496 70.866"/><path d="M336.62 488.98l-70.866 60.237"/><path d="M325.99 488.98l-60.236 49.607"/><path d="M315.36 488.98l-49.606 38.977"/><path d="M304.73 488.98l-38.976 28.347"/><path d="M294.1 488.98l-28.346 21.26"/><path d="M283.47 488.98l-17.716 14.174"/><path d="M272.84 488.98l-7.086 7.087"/><path d="M372.05 496.06l-116.93 106.3"/><path d="M372.05 506.69l-116.93 106.3"/><path d="M372.05 517.32l-116.93 106.3"/><path d="M372.05 527.95l-116.93 106.3"/><path d="M372.05 538.58l-116.93 106.3"/><path d="M372.05 549.21l-116.93 106.3"/><path d="M372.05 559.84l-116.93 106.3"/><path d="M372.05 570.47l-116.93 106.3"/><path d="M372.05 581.1l-109.84 99.21"/><path d="M372.05 591.73l-99.212 88.583"/><path d="M368.5 605.9l-77.953 70.866"/><path d="M364.96 620.08l-63.78 56.693"/><path d="M357.87 637.79l-31.89 28.346"/><path d="M265.75 506.69l102.76 92.126"/><path d="M265.747 517.327l102.76 92.126"/><path d="M265.747 527.957l99.213 88.583"/><path d="M265.747 538.587l99.213 88.583"/><path d="M265.753 549.213l95.67 85.04"/><path d="M262.204 556.303l95.67 85.04"/><path d="M262.204 566.933l88.583 77.953"/><path d="M258.663 574.013l88.583 77.953"/><path d="M255.114 581.103l85.04 74.41"/><path d="M255.113 591.73l81.496 70.865"/><path d="M255.113 602.36l70.866 63.78"/><path d="M265.75 467.716v17.717c35.433 5.906 70.866 5.906 106.3 0v-17.717c-35.433 5.906-70.866 5.906-106.3 0z"/><path d="M255.114 612.99l63.78 56.692"/><path d="M255.114 623.62l56.693 49.606"/><path d="M255.113 634.25l49.606 42.52"/><path d="M255.114 644.88l35.434 31.89"/><path d="M255.114 655.51l28.347 24.804"/><path d="M255.113 666.14l17.716 14.173"/><ellipse transform="matrix(.545 0 0 .144 130.46 447.47)" cx="256.89" rx="8.858" cy="210.83" ry="26.575"/><ellipse transform="matrix(.545 0 0 .144 130.46 444.28)" cx="292.32" rx="8.858" cy="246.26" ry="26.575"/><ellipse transform="matrix(.545 0 0 .144 130.46 443.64)" cx="327.76" rx="8.858" cy="263.98" ry="26.575"/><ellipse transform="matrix(.545 0 0 .144 130.46 443.64)" cx="363.19" rx="8.858" cy="263.98" ry="26.575"/><ellipse transform="matrix(.545 0 0 .144 130.46 444.28)" cx="398.62" rx="8.858" cy="246.26" ry="26.575"/><ellipse transform="matrix(.545 0 0 .144 130.46 447.47)" cx="434.06" rx="8.858" cy="210.83" ry="26.575"/><path d="M113.39 651.97l127.55-74.41"/><path d="M106.303 648.427l120.47-70.87"/><path d="M102.76 641.34l109.84-63.78"/><path d="M99.217 634.254l95.67-56.693"/><path d="M92.127 627.16l88.583-49.606"/><path d="M95.667 616.537l60.236-35.433"/><path d="M92.127 609.454l46.063-28.346"/><path d="M92.124 598.817l31.89-17.717"/><path d="M124.013 655.507l120.47-70.86"/><path d="M134.647 659.054l113.38-67.32"/><path d="M145.28 662.6l106.3-63.78"/><path d="M155.91 666.144l88.583-53.15"/><path d="M170.083 666.136l77.952-46.063"/><path d="M180.713 669.68l67.323-38.976"/><path d="M191.336 673.227l53.15-31.89"/><path d="M205.51 673.233l42.52-24.803"/><path d="M219.68 676.777l28.347-17.717"/><path d="M233.863 676.773l17.717-10.63"/><path d="M258.664 574.02h-17.717c-5.906 35.433-5.906 70.866 0 106.3h17.717c-5.906-35.433-5.906-70.866 0-106.3z"/><path d="M49.61 623.624l42.52-35.433"/><path d="M49.61 598.8l42.52 42.52"/><path d="M113.388 581.1l-21.26 3.544c-4.725 22.44-4.725 41.338 0 63.777l21.26 7.088c-4.725-22.44-4.725-51.97 0-74.41z"/><path d="M371.917 403.94v-17.866c-15.927.15-26.544-10.48-26.545-21.26l-53.088.15c0 10.63-10.618 21.26-26.545 21.26v17.715h106.177z"/><path d="M296.09 343.7h45.506v21.26H296.09z"/><path d="M299.88 322.44h37.922v21.26H299.88z"/><path d="M299.88 301.18h37.922v21.26H299.88z"/><path d="M303.67 272.83h30.337v28.346H303.67z"/><path d="M302.36 248.03h32.953v24.803H302.36z"/><ellipse transform="matrix(1.033 0 0 1 75.354 63.779)" cx="237.4" rx="42.52" cy="161.22" ry="33.661"/><path d="M342.627 223.23c0 9.29 10.984 24.802 10.984 24.802-7.95 6.093-20.824 10.63-32.95 10.63s-27.226-2.528-32.95-10.63c0 0 10.982-15.512 10.982-24.803s-10.983-21.26-10.983-21.26c7.95-6.094 20.824-10.63 32.95-10.63 12.126 0 25 4.536 32.95 10.63 0 0-10.983 11.968-10.983 21.26z"/><path d="M335.312 223.23c0 9.29 10.984 28.345 10.984 28.345-7.953 6.093-13.504 7.087-25.63 7.087s-19.903 1.015-25.628-7.087c0 0 10.984-19.055 10.984-28.346s-10.984-24.804-10.984-24.804c7.952-6.093 13.502-7.087 25.63-7.087 12.124 0 17.675.993 25.628 7.086 0 0-10.984 15.512-10.984 24.803z"/><ellipse transform="matrix(1.033 0 0 1 75.354 60.236)" cx="194.88" rx="10.63" cy="166.54" ry="10.63"/><ellipse transform="matrix(1.033 0 0 1 163.23 60.236)" cx="194.88" rx="10.63" cy="166.54" ry="10.63"/><ellipse transform="matrix(1.033 0 0 1 119.29 60.236)" cx="194.88" rx="10.63" cy="166.54" ry="10.63"/><ellipse transform="matrix(1.033 0 0 1 119.29 24.803)" cx="194.88" rx="10.63" cy="166.54" ry="10.63"/><ellipse transform="matrix(1.07 0 0 1 79.931 226.77)" cx="194.88" rx="10.63" cy="166.54" ry="10.63"/><ellipse transform="matrix(1.07 0 0 1 140.61 226.77)" cx="194.88" rx="10.63" cy="166.54" ry="10.63"/><path d="M292.287 364.96h53.09l-26.545 31.89-26.545-31.89z"/><ellipse transform="matrix(1.427 0 0 1.333 40.745 167.72)" cx="194.88" rx="10.63" cy="166.54" ry="10.63"/></g><g fill-rule="evenodd" transform="matrix(.198 0 0 .177 18.781 -19.082)" fill="#fff"><rect rx="4.349" ry="3.687" height="21.26" width="81.496" y="524.41" x="262.2"/><path d="M368.51 506.69c-9.814 0-17.716 8.26-17.716 18.52v16.11c0 10.26 7.902 18.52 17.716 18.52 9.815 0 17.717-8.26 17.717-18.52v-16.11c0-10.26-7.902-18.52-17.717-18.52zM588.19-24.803c-5.888 0-10.63 6.608-10.63 14.816v9.345c0 8.208 4.742 14.816 10.63 14.816 5.89 0 10.63-6.608 10.63-14.816v-9.345c0-8.208-4.74-14.816-10.63-14.816z"/><path d="M276.38 510.24c-5.888 0-10.63 6.608-10.63 14.816v16.432c0 8.208 4.742 14.816 10.63 14.816 5.89 0 10.63-6.608 10.63-14.816v-16.432c0-8.208-4.74-14.816-10.63-14.816zM680.32-42.527c-9.814 0-17.716 8.26-17.716 18.52v23.197c0 10.26 7.902 18.52 17.716 18.52 9.815 0 17.717-8.26 17.717-18.52v-23.198c0-10.26-7.902-18.52-17.717-18.52z"/><path d="M248.03 517.32c-5.888 0-10.63 6.608-10.63 14.816V536c0 8.208 4.74 14.816 10.63 14.816 5.888 0 10.63-6.608 10.63-14.816v-3.864c0-8.208-4.74-14.816-10.63-14.816zM708.67-29.947c-9.814 0-17.716 8.26-17.716 18.52v10.63c0 10.26 7.9 18.52 17.715 18.52 9.814 0 17.716-8.26 17.716-18.52v-10.63c0-10.26-7.9-18.52-17.716-18.52z"/><path d="M205.52 507.518c-10.598 0-19.134 7.385-19.134 16.56v18.363c0 9.174 8.536 16.56 19.134 16.56 10.6 0 19.134-7.386 19.134-16.56v-18.363c0-9.174-8.534-16.56-19.134-16.56zM751.18-40.638c-17.665 0-31.89 9.23-31.89 20.696v25.926c0 11.467 14.225 20.698 31.89 20.698 17.667 0 31.89-9.23 31.89-20.698v-25.926c0-11.466-14.223-20.696-31.89-20.696z"/><path d="M435.83 511.058c-10.598 0-19.134 7.385-19.134 16.56v18.363c0 9.174 8.536 16.56 19.134 16.56 10.6 0 19.134-7.386 19.134-16.56v-18.363c0-9.174-8.534-16.56-19.134-16.56zm42.52-281.578c-17.665 0-31.89 9.23-31.89 20.696v25.926c0 11.467 14.225 20.698 31.89 20.698 17.667 0 31.89-9.23 31.89-20.698v-25.926c0-11.466-14.223-20.696-31.89-20.696z"/><rect rx="2.269" ry="3.687" height="21.26" width="42.52" y="524.41" x="375.59"/><rect rx="1.324" ry="4.916" height="28.346" width="24.803" y="520.87" x="336.61"/><rect rx="1.324" ry="4.916" height="28.346" width="24.803" y="520.87" x="219.69"/><rect rx="2.647" ry="6.145" height="35.433" width="49.606" y="517.32" x="141.73"/><rect rx="2.458" ry="6.145" height="35.433" width="46.063" y="520.87" x="450"/></g></g></g></svg>