<svg xmlns="http://www.w3.org/2000/svg" height="480" width="640"><defs><clipPath id="a"><path fill-opacity=".67" d="M-64 0h640v512H-64z"/></clipPath></defs><g clip-path="url(#a)"><g fill-rule="evenodd"><path fill="#fff" d="M-192 161.21H831.878v157.775H-192z"/><path fill="#3d25ca" d="M-192 318.985H831.878v161.21H-192z"/><path fill="#d60000" d="M-192 0H831.878v161.21H-192z"/></g><g><path d="M744.14 567.26c0 192.48-157.09 348.52-350.87 348.52S42.4 759.74 42.4 567.26s157.09-348.52 350.87-348.52 350.87 156.04 350.87 348.52z" fill-rule="evenodd" transform="matrix(.187 0 0 .177 246.222 139.632)" stroke="#000" stroke-width="12.91" fill="#fff"/><g stroke="#000" stroke-width="2.637"><g fill-rule="evenodd" fill="#006700"><path d="M328.434 211.255s24.89 10.126 20.61 31.122c-4.282 20.996-18.124 20.873-23.545 23.2-5.42 2.326-9.156 5.65-11.3 5.19-2.142-.462-4.977-2.026-4.977-2.026s-.217 3.45 4.144 4.07c4.36.622 10.074-5.453 12.825-6.13s19.644-2.44 23.695-23.804c4.733-22.804-21.298-30.952-21.453-31.62z"/><g><path d="M341.216 215.876c.48 1.735.495 3.165.038 3.193s-1.217-1.355-1.696-3.09c-.478-1.735-.495-3.165-.038-3.193s1.217 1.354 1.696 3.09z"/><path d="M340.54 215.637c.897 1.615 1.288 3.04.873 3.183s-1.48-1.05-2.376-2.665c-.897-1.615-1.288-3.04-.873-3.184s1.478 1.052 2.376 2.667z"/><path d="M337.968 217.22c1.795.478 3.215 1.226 3.172 1.67s-1.533.414-3.328-.064c-1.794-.48-3.214-1.227-3.172-1.67s1.533-.415 3.328.064z"/><path d="M338.186 216.53c1.615 1.017 2.762 2.143 2.562 2.515s-1.672-.15-3.287-1.168c-1.615-1.017-2.762-2.143-2.56-2.515s1.67.15 3.286 1.168z"/><path d="M339.212 216.074c1.376 1.316 2.248 2.615 1.947 2.9s-1.66-.548-3.036-1.864c-1.376-1.316-2.248-2.615-1.947-2.9s1.66.548 3.035 1.864z"/><path d="M341.15 218.823c.014.013-.975.507-1.2.582-.225.075-.54-.26-1.184.047s-1.08.854-1.214 1.174c-.135.32.195.448.974.097s.974-.893 1.35-1.11c.374-.216 1.003-.536 1.363-.655.148-.307.643-.966.898-1.344.255-.378 1.274-1.01 1.633-1.735.316-.6.18-1.105-.254-.887-.434.218-.99.824-1.243 1.257-.255.433-.015.976-.3 1.382-.225.295-.764 1.19-.824 1.19z"/></g><g><path d="M348.834 221.75c.06 2.693-.414 4.76-1.057 4.616s-1.215-2.44-1.274-5.133c-.06-2.693.413-4.76 1.057-4.616s1.214 2.442 1.274 5.134z"/><path d="M347.058 221.81c.598 2.752.585 5.006-.03 5.034s-1.6-2.18-2.197-4.93c-.598-2.753-.584-5.007.03-5.035s1.6 2.178 2.198 4.93z"/><path d="M343.214 222.74c2.273 1.435 3.942 3.098 3.727 3.713s-2.23-.05-4.504-1.486c-2.273-1.436-3.942-3.098-3.727-3.713s2.23.05 4.504 1.486z"/><path d="M343.838 221.95c1.855 2.155 3.034 4.26 2.633 4.704s-2.228-.943-4.082-3.097c-1.855-2.154-3.033-4.26-2.633-4.702s2.23.943 4.083 3.096z"/><path d="M345.75 221.74c1.436 2.513 2.182 4.782 1.667 5.068s-2.096-1.52-3.532-4.032-2.182-4.78-1.667-5.067 2.096 1.518 3.532 4.03z"/><path d="M347.066 226.88c.015.026-1.516.307-1.85.316-.332.008-.625-.633-1.616-.473s-1.793.774-2.1 1.187c-.31.413.086.754 1.276.59s1.667-.88 2.258-1.03c.59-.15 1.567-.336 2.1-.35.323-.386 1.25-1.138 1.743-1.583.493-.444 2.118-.917 2.89-1.828.66-.747.677-1.558.004-1.433-.672.125-1.66.77-2.173 1.297-.515.526-.405 1.442-.95 1.915-.42.334-1.5 1.414-1.582 1.39z"/></g><g><path d="M352.705 231.183c-.478 2.633-1.353 4.558-1.954 4.3s-.7-2.6-.22-5.232c.478-2.63 1.353-4.556 1.954-4.3s.7 2.6.22 5.233z"/><path d="M351.85 231.185c.12 2.812-.282 5.02-.898 4.936s-1.21-2.434-1.33-5.246c-.12-2.812.282-5.02.897-4.935s1.21 2.433 1.33 5.245z"/><path d="M347.643 231.59c1.974 1.854 3.307 3.822 2.978 4.394s-2.195-.467-4.17-2.322c-1.973-1.855-3.307-3.822-2.978-4.394s2.196.467 4.17 2.322z"/><path d="M348.573 230.58c1.435 2.452 2.205 4.742 1.72 5.114s-2.046-1.315-3.482-3.768c-1.435-2.452-2.204-4.742-1.718-5.114s2.045 1.315 3.48 3.767z"/><path d="M350.206 231.103c.958 2.752 1.28 5.133.723 5.32s-1.787-1.895-2.744-4.647c-.957-2.752-1.28-5.133-.723-5.32s1.786 1.895 2.743 4.647z"/><path d="M350.637 235.806c.01.028-1.565.074-1.898.033-.334-.043-.507-.714-1.523-.705s-1.928.49-2.31.847c-.384.358-.055.75 1.16.768s1.822-.61 2.44-.67c.615-.058 1.62-.095 2.153-.028.393-.33 1.456-.928 2.028-1.29.573-.36 2.278-.58 3.214-1.356.796-.63.963-1.422.27-1.4-.693.02-1.795.506-2.405.944-.61.438-.67 1.35-1.298 1.732-.48.264-1.756 1.16-1.833 1.124z"/></g><g><path d="M353.362 242.305c-1.496 2.274-3.067 3.734-3.51 3.262s.41-2.698 1.904-4.97c1.496-2.275 3.068-3.735 3.51-3.263s-.408 2.698-1.904 4.97z"/><path d="M352.24 241.51c-1.078 2.633-2.38 4.51-2.91 4.197s-.085-2.704.992-5.336 2.38-4.51 2.908-4.195.086 2.703-.99 5.336z"/><path d="M348.304 240.28c1.017 2.452 1.412 4.753.883 5.14s-1.783-1.29-2.8-3.742c-1.017-2.453-1.412-4.754-.883-5.14s1.783 1.288 2.8 3.74z"/><path d="M349.557 239.542c.3 2.81.066 5.218-.52 5.376s-1.305-1.995-1.604-4.807c-.3-2.81-.067-5.217.52-5.375s1.305 1.995 1.604 4.807z"/><path d="M351.196 240.494c-.24 2.872-.91 5.165-1.495 5.122s-.867-2.406-.628-5.277c.24-2.873.91-5.166 1.495-5.123s.868 2.406.63 5.277z"/><path d="M349.042 245.444c-.003.03-1.407-.574-1.682-.75-.275-.174-.14-.858-1.036-1.268s-1.903-.345-2.392-.175c-.49.17-.368.665.692 1.18s1.862.19 2.428.39c.566.2 1.465.58 1.905.86.486-.14 1.675-.25 2.333-.346.658-.095 2.25.405 3.403.08.97-.25 1.454-.904.836-1.17-.618-.264-1.794-.274-2.517-.124-.722.15-1.165.96-1.88 1.05-.536.044-2.04.34-2.09.274z"/></g><g><path d="M349.852 253.21c-2.453 1.975-4.697 3.03-5.01 2.358s1.417-2.818 3.87-4.792c2.453-1.974 4.696-3.03 5.01-2.357s-1.418 2.817-3.87 4.79z"/><path d="M348.938 252.5c-2.094 2.573-4.162 4.23-4.62 3.7s.87-3.044 2.963-5.617c2.094-2.572 4.163-4.228 4.62-3.7s-.868 3.045-2.962 5.617z"/><path d="M344.856 249.388c.24 3.05-.147 5.733-.862 5.99s-1.49-2.007-1.73-5.058c-.238-3.05.148-5.733.863-5.99s1.49 2.007 1.73 5.058z"/><path d="M346.798 249.472c-.66 3.23-1.76 5.826-2.46 5.798s-.737-2.67-.08-5.9c.66-3.232 1.76-5.827 2.462-5.8s.736 2.672.078 5.902z"/><path d="M347.92 250.87c-1.317 3.112-2.894 5.436-3.524 5.193s-.073-2.962 1.244-6.073c1.316-3.11 2.893-5.435 3.522-5.192s.073 2.962-1.243 6.073z"/><path d="M344.493 255.38c-.014.033-1.382-1.098-1.632-1.38-.25-.284.12-.987-.746-1.734s-2.008-1.014-2.607-.993c-.6.022-.623.603.393 1.52s2.01.83 2.578 1.24c.566.407 1.445 1.123 1.845 1.576.586.01 1.944.287 2.707.404.763.116 2.375 1.195 3.763 1.227 1.16.053 1.908-.5 1.306-.996-.604-.497-1.91-.9-2.762-.98-.853-.078-1.605.658-2.43.517-.61-.13-2.38-.31-2.416-.4z"/></g><g><path d="M341.597 263.012c-3.53.538-6.322.313-6.236-.502s3.018-1.913 6.547-2.45c3.53-.54 6.322-.315 6.236.5s-3.017 1.913-6.546 2.452z"/><path d="M341.82 261.464c-3.47 1.256-6.398 1.66-6.54.902s2.553-2.39 6.023-3.648c3.47-1.256 6.398-1.66 6.542-.902s-2.554 2.392-6.024 3.648z"/><path d="M339.332 256.575c-1.555 3.05-3.5 5.408-4.344 5.265s-.268-2.732 1.288-5.783c1.555-3.05 3.5-5.41 4.344-5.266s.268 2.734-1.288 5.785z"/><path d="M341.028 257.592c-2.513 2.692-5.083 4.538-5.74 4.123s.844-2.934 3.356-5.626c2.513-2.693 5.083-4.54 5.74-4.124s-.844 2.934-3.356 5.626z"/><path d="M341.63 259.335c-3.05 2.213-5.907 3.544-6.38 2.972s1.62-2.83 4.67-5.044c3.052-2.214 5.908-3.544 6.38-2.972s-1.62 2.83-4.67 5.045z"/><path d="M335.33 262.19c-.033.024-.692-1.806-.767-2.214-.075-.41.7-.886.3-2.075s-1.348-2.062-1.942-2.366c-.594-.303-.96.245-.517 1.68s1.46 1.887 1.768 2.587c.31.7.74 1.866.86 2.518.562.327 1.715 1.33 2.387 1.854.67.524 1.596 2.436 2.925 3.217 1.094.675 2.148.546 1.857-.258-.293-.804-1.32-1.9-2.1-2.436-.782-.536-1.947-.233-2.665-.816-.515-.454-2.123-1.585-2.107-1.69z"/></g><g><path d="M331.513 268.73c-3.605.09-6.527-.632-6.527-1.613s2.922-1.85 6.527-1.94c3.605-.09 6.527.633 6.527 1.613s-2.922 1.85-6.527 1.94z"/><path d="M330.807 263.396c-2.253 2.84-4.703 4.647-5.473 4.04s.433-3.404 2.686-6.243c2.253-2.838 4.703-4.647 5.473-4.038s-.433 3.403-2.686 6.24z"/><path d="M331.747 265.933c-3.335 1.397-6.34 1.795-6.713.888s2.03-2.772 5.364-4.17c3.334-1.396 6.34-1.794 6.712-.887s-2.03 2.773-5.363 4.17z"/></g><g><path d="M333.03 212.324c1.667 1.442 2.676 2.782 2.254 2.993s-2.116-.786-3.783-2.228c-1.666-1.443-2.676-2.783-2.254-2.994s2.116.786 3.784 2.228z"/><path d="M331.18 213.774c2.252.315 4.15.933 4.236 1.38s-1.67.554-3.922.238c-2.253-.315-4.15-.933-4.237-1.38s1.67-.554 3.922-.238z"/><path d="M331.862 212.635c2.118 1.036 3.654 2.158 3.43 2.506s-2.12-.21-4.24-1.246c-2.117-1.037-3.653-2.16-3.43-2.506s2.122.21 4.24 1.247z"/></g></g><g fill-rule="evenodd" fill="#006700"><path d="M302.166 262.653s5.505 1.13 10.295 2.783 12.085 7.294 14.04 7.62c2.19.1 5.223-.592 6.36-3.564-3.368.834-5.384 2.113-8.613.436-1.14-.41-4.88-3.616-8.974-5.34-4.093-1.723-12.34-3.7-12.34-3.7l-.767 1.765z"/><path d="M307.952 215.203c-.02-.045 6.398-3.113 6.398-3.113l-7.06 1.637-.817 1.156 1.48.32z"/><path d="M314.038 216.696c-2.48-.443-6.293-1.255-8.72-1.458 1.676-1.724 3.986-4.645 5.41-6.438-.94 1.714-2.415 3.97-2.997 5.614 1.71.877 4.398 1.576 6.31 2.282z"/><path d="M307.38 216.05c-.027-.04 5.612-4.203 5.612-4.203l-6.505 2.844-.585 1.295 1.48.066z"/><path d="M312.784 217.02c-2.51-.423-6.37-1.21-8.823-1.387 1.652-1.803 3.914-4.85 5.308-6.72-.908 1.783-2.344 4.133-2.893 5.836 1.743.883 4.467 1.568 6.41 2.27z"/><path d="M306.164 216.186c-.015-.046 6.648-2.64 6.648-2.64l-7.153 1.125-.928 1.092 1.432.424z"/><path d="M312.556 216.84c-2.482-.2-6.318-.648-8.715-.604 1.39-1.983 3.23-5.287 4.362-7.315-.672 1.895-1.79 4.415-2.124 6.197 1.793.74 4.514 1.186 6.48 1.723z"/><path d="M305.653 216.278c-.037-.035 4.453-5.25 4.453-5.25l-5.658 4.085-.255 1.39 1.46-.225z"/><path d="M312.098 217.5c-2.707-.02-6.905-.2-9.493.046 1.284-2.295 2.906-6.08 3.908-8.402-.518 2.138-1.45 5-1.612 6.99 2.022.664 5.014.934 7.2 1.364z"/><path d="M304.72 217.504c-.033-.044 5.486-4.926 5.486-4.926l-6.61 3.45-.467 1.467 1.59.01z"/><path d="M311.087 217.63c-2.887.038-7.332-.066-10.15.256 1.882-2.53 4.457-6.688 6.044-9.243-1.028 2.342-2.66 5.484-3.277 7.654 2.01.682 5.146.912 7.384 1.333z"/><path d="M302.485 217.957c-.027-.05 7.095-5.67 7.095-5.67l-7.99 4.038-.838 1.66 1.733-.028z"/><path d="M309.93 217.36c-2.87.37-7.313.774-10.075 1.414 1.517-2.71 3.494-7.105 4.714-9.805-.695 2.426-1.876 5.71-2.184 7.92 2.1.443 5.256.31 7.544.47z"/><path d="M301.97 219.42c-.04-.04 5.38-7.128 5.38-7.128l-6.7 5.845-.365 1.763 1.686-.48z"/><path d="M308.646 218.287c-2.86.24-7.28.452-10.043.97 1.622-2.632 3.773-6.923 5.1-9.56-.795 2.387-2.108 5.606-2.51 7.794 2.06.533 5.193.538 7.454.797z"/><path d="M300.48 219.98c-.028-.05 6.91-5.67 6.91-5.67l-7.843 4.038-.79 1.66 1.723-.028z"/><path d="M307.714 218.957c-2.863.6-7.304 1.37-10.038 2.23 1.335-2.787 3.013-7.266 4.05-10.02-.528 2.44-1.483 5.763-1.636 7.958 2.143.26 5.31-.134 7.624-.168z"/><path d="M299.454 219.733c-.047-.032 4.427-7.66 4.427-7.66l-5.98 6.61-.104 1.756 1.658-.707z"/><path d="M307.477 219.075c-3.098.754-7.925 1.743-10.848 2.78 1.124-3.125 2.413-8.133 3.21-11.21-.272 2.716-.907 6.42-.797 8.854 2.41.22 5.872-.315 8.434-.425z"/><path d="M298.728 221.784c-.046-.044 5.602-7.728 5.602-7.728l-7.117 6.252-.322 1.947 1.838-.47z"/><path d="M306.37 220.05c-3.03.91-7.76 2.14-10.608 3.323.995-3.175 2.082-8.24 2.755-11.35-.168 2.724-.658 6.454-.46 8.877 2.39.097 5.787-.61 8.313-.85z"/><path d="M297.466 223.15c-.053-.036 4.32-8.55 4.32-8.55l-6.07 7.384-.002 1.956 1.752-.79z"/><path d="M304.935 221.24c-3.136.675-8.013 1.543-10.987 2.506 1.28-3.098 2.82-8.08 3.772-11.138-.408 2.71-1.23 6.404-1.24 8.842 2.4.28 5.888-.166 8.455-.21z"/><path d="M296.626 223.986c-.037-.052 6.925-6.702 6.925-6.702l-8.13 4.992-.678 1.87 1.884-.16z"/><path d="M303.906 222.542c-3.066.413-7.823.87-10.752 1.59 1.438-3.05 3.248-7.994 4.366-11.032-.572 2.73-1.605 6.425-1.775 8.912 2.293.498 5.684.35 8.162.53z"/><path d="M295.15 222.894c-.05-.04 4.693-8.303 4.693-8.303l-6.364 6.983-.1 1.98 1.77-.66z"/><path d="M304.452 221.442c-3.323 1.304-8.513 3.12-11.626 4.727 1.02-3.773 2.092-9.748 2.758-13.42-.118 3.18-.566 7.556-.285 10.357 2.637-.08 6.37-1.18 9.152-1.665z"/><path d="M294.568 225.377c-.054-.045 5.62-9.542 5.62-9.542l-7.407 8.065-.21 2.258 1.998-.78z"/><path d="M302.887 222.39c-3.285 1.44-8.426 3.474-11.487 5.2.863-3.745 1.685-9.65 2.197-13.28.018 3.12-.244 7.43.158 10.16 2.65-.21 6.356-1.47 9.132-2.08z"/><path d="M293.24 227.207c-.06-.033 4.174-10.32 4.174-10.32l-6.193 9.232.137 2.226 1.884-1.14z"/><path d="M301.374 223.277c-3.285 1.47-8.426 3.552-11.487 5.302.863-3.72 1.685-9.577 2.197-13.177.018 3.09-.244 7.36.158 10.055 2.65-.243 6.356-1.54 9.132-2.182z"/><path d="M292.524 228.542c-.05-.05 6.363-9.132 6.363-9.132l-7.995 7.5-.402 2.253 2.034-.62z"/><path d="M301.004 223.306c-2.94 2.238-7.592 5.533-10.248 7.984.03-3.79-.455-9.627-.747-13.216.705 2.965 1.394 7.134 2.394 9.625 2.582-.9 5.98-3.08 8.6-4.395z"/><path d="M293.16 228.636c-.07-.01.728-10.884.728-10.884l-3.02 10.573.84 1.997 1.452-1.686z"/><path d="M300.26 223.723c-2.94 2.16-7.592 5.334-10.248 7.713.03-3.766-.455-9.575-.747-13.147.706 2.96 1.395 7.117 2.395 9.613 2.582-.838 5.98-2.93 8.6-4.18z"/><path d="M292.258 230.714c-.065-.026 2.955-10.687 2.955-10.687l-5.092 9.832.395 2.19 1.743-1.336z"/><path d="M299.785 224.275c-2.8 2.58-7.253 6.407-9.73 9.174-.412-3.868-1.6-9.768-2.324-13.396 1.083 2.95 2.287 7.13 3.62 9.568 2.58-1.178 5.863-3.742 8.435-5.347z"/><path d="M291.945 231.672c-.072-.01.685-11.214.685-11.214l-3.055 10.903.882 2.054 1.488-1.742z"/><path d="M299.258 226.04c-2.952 2.304-7.627 5.697-10.28 8.223-.074-3.92-.733-9.96-1.132-13.672.805 3.07 1.627 7.384 2.72 9.964 2.622-.922 6.044-3.165 8.692-4.516z"/><path d="M291.582 232.9c-.062-.036 4.152-10.547 4.152-10.547l-6.21 9.343.156 2.316 1.902-1.112z"/><path d="M298.767 226.236c-2.662 2.626-6.898 6.528-9.255 9.344-.385-3.92-1.503-9.895-2.184-13.57 1.022 2.987 2.16 7.22 3.42 9.684 2.453-1.205 5.574-3.82 8.02-5.46z"/><path d="M291.637 233.775c-.073 0-.49-11.23-.49-11.23l-1.92 11.19 1.1 1.943 1.31-1.903z"/><path d="M298.04 226.867c-2.517 2.626-6.535 6.528-8.744 9.344-.54-3.918-1.888-9.894-2.71-13.57 1.13 2.988 2.425 7.22 3.77 9.685 2.37-1.205 5.34-3.82 7.684-5.46z"/><path d="M290.473 234.668c-.067-.02 1.43-11.384 1.43-11.384l-3.644 10.762.687 2.213 1.526-1.592z"/><path d="M297.192 227.572c-2.334 2.87-6.083 7.16-8.092 10.192-.852-3.89-2.68-9.777-3.797-13.397 1.374 2.9 3.012 7.037 4.562 9.393 2.297-1.428 5.09-4.328 7.327-6.19z"/><path d="M290.752 236.01c-.07-.002-.756-11.416-.756-11.416l-1.536 11.34 1.096 1.99 1.196-1.913z"/><path d="M296.7 228.248c-2.218 3.007-5.796 7.513-7.68 10.666-1.034-3.864-3.14-9.68-4.43-13.258 1.516 2.84 3.352 6.91 5.018 9.195 2.247-1.554 4.926-4.615 7.093-6.603z"/><path d="M291.604 236.647c-.067-.02 1.265-11.425 1.265-11.425l-3.48 10.726.716 2.254 1.498-1.555z"/><path d="M296.612 229.002c-1.882 3.243-4.95 8.135-6.487 11.477-1.396-3.655-4.038-9.082-5.656-12.42 1.766 2.586 3.97 6.335 5.832 8.356 2.052-1.823 4.38-5.178 6.31-7.415z"/><path d="M291.03 237.925c-.07.018-3.373-10.89-3.373-10.89l1.12 11.473 1.527 1.62.725-2.203z"/><path d="M296.277 230.364c-1.988 3.243-5.225 8.135-6.86 11.477-1.396-3.653-4.06-9.08-5.69-12.42 1.795 2.588 4.026 6.337 5.926 8.358 2.146-1.823 4.598-5.178 6.624-7.415z"/><path d="M290.847 239.7c-.072 0-1.128-11.375-1.128-11.375l-1.243 11.374 1.193 1.95 1.177-1.95z"/><path d="M296.535 231.235c-2.037 3.184-5.347 7.98-7.03 11.274-1.346-3.707-3.932-9.23-5.516-12.63 1.758 2.65 3.937 6.48 5.81 8.567 2.173-1.756 4.675-5.038 6.735-7.212z"/><path d="M291.18 240.856c-.07.008-2.28-11.226-2.28-11.226l-.09 11.498 1.39 1.81.98-2.082z"/><path d="M296.045 233.02c-2.153 3.065-5.633 7.668-7.442 10.87-1.163-3.813-3.47-9.532-4.883-13.05 1.618 2.778 3.6 6.767 5.354 8.986 2.225-1.623 4.84-4.757 6.97-6.807z"/><path d="M290.075 242.373c-.07-.017 1.057-11.527 1.057-11.527l-3.35 10.945.786 2.222 1.507-1.64z"/><path d="M296.15 233.13c-1.843 3.302-4.86 8.292-6.347 11.68-1.552-3.6-4.444-8.93-6.217-12.21 1.903 2.523 4.293 6.192 6.276 8.147 2.063-1.89 4.364-5.318 6.29-7.617z"/><path d="M289.735 243.188c-.07.02-3.723-10.663-3.723-10.663l1.43 11.362 1.606 1.533.687-2.232z"/><path d="M295.67 234.093c-1.283 3.636-3.45 9.18-4.368 12.825-2.096-3.207-5.78-7.828-8.042-10.672 2.27 2.073 5.197 5.17 7.453 6.668 1.723-2.295 3.434-6.154 4.957-8.82z"/><path d="M292.918 243.752c-.07.023-4.053-10.456-4.053-10.456l1.76 11.233 1.662 1.463.63-2.24z"/><path d="M295.373 235.104c-1.283 3.636-3.45 9.18-4.368 12.825-2.096-3.208-5.78-7.83-8.042-10.673 2.27 2.073 5.197 5.17 7.453 6.668 1.723-2.295 3.434-6.154 4.957-8.82z"/><path d="M292.838 245.486c-.066.033-5.143-9.79-5.143-9.79l2.967 10.878 1.8 1.22.376-2.308z"/><path d="M294.88 236.04c-.838 3.774-2.324 9.557-2.8 13.292-2.458-2.893-6.658-6.97-9.236-9.483 2.494 1.746 5.763 4.417 8.176 5.596 1.433-2.506 2.67-6.56 3.86-9.408z"/><path d="M293.334 247.013c-.07.013-2.756-10.976-2.756-10.976l.424 11.404 1.456 1.702.876-2.13z"/><path d="M295.067 237.256c-.44 3.865-1.32 9.816-1.402 13.59-2.768-2.526-7.407-5.985-10.254-8.117 2.683 1.383 6.24 3.576 8.783 4.408 1.17-2.69 1.98-6.888 2.874-9.883z"/><path d="M293.612 248.34c-.055.053-7.425-7.968-7.425-7.968l5.6 9.68 2.042.644-.218-2.355z"/><path d="M295.368 238.842c-.44 3.884-1.32 9.86-1.402 13.66-2.768-2.605-7.407-6.19-10.254-8.398 2.682 1.452 6.24 3.737 8.782 4.63 1.17-2.684 1.98-6.895 2.874-9.893z"/><path d="M293.88 249.68c-.064.034-5.616-9.585-5.616-9.585l3.48 10.75 1.864 1.15.273-2.316z"/><path d="M295.256 240.39c-.315 3.905-1 9.928-.96 13.724-2.844-2.397-7.587-5.633-10.5-7.63 2.724 1.254 6.346 3.274 8.91 3.98 1.084-2.762 1.756-7.02 2.55-10.075z"/><path d="M294.875 251.776c-.057.048-6.972-8.362-6.972-8.362l5.068 9.955 2 .76-.095-2.354z"/><path d="M295.804 242.175c-.237 3.905-.8 9.928-.687 13.724-2.87-2.398-7.642-5.634-10.57-7.63 2.726 1.253 6.36 3.273 8.92 3.98 1.022-2.763 1.608-7.022 2.337-10.076z"/><path d="M295.23 253.398c-.067.03-4.835-10.185-4.835-10.185l2.62 11.156 1.763 1.336.452-2.308z"/><path d="M295.92 243.335c.14 3.918.16 9.987.64 13.75-3.103-2.005-8.188-4.595-11.31-6.193 2.85.886 6.68 2.415 9.307 2.778.754-2.884.928-7.2 1.36-10.336z"/><path d="M296.278 252.765c-.042.065-9.005-5.757-9.005-5.757l7.606 7.894 2.133.086-.735-2.223z"/><path d="M296.073 243.78c.344 3.9.68 9.945 1.355 13.682-3.205-1.928-8.422-4.392-11.626-5.914 2.894.82 6.8 2.255 9.448 2.558.603-2.89.552-7.192.822-10.326z"/><path d="M297.193 255.062c-.055.05-7.425-8.176-7.425-8.176l5.6 9.808 2.042.713-.217-2.345z"/><path d="M296.543 245.338c.5 3.892 1.077 9.935 1.9 13.643-3.257-1.744-8.53-3.91-11.768-5.247 2.902.65 6.835 1.862 9.47 2.01.482-2.934.256-7.246.397-10.405z"/><path d="M298.674 256.295c-.042.064-8.84-5.944-8.84-5.944l7.44 8.043 2.106.134-.706-2.232z"/><path d="M296.94 246.714c.78 3.816 1.796 9.76 2.886 13.365-3.385-1.433-8.817-3.098-12.155-4.128 2.952.38 6.975 1.22 9.624 1.125.27-2.956-.267-7.215-.355-10.363z"/><path d="M299.402 257.164c-.056.048-7.28-8.197-7.28-8.197l5.415 9.79 2.035.734-.17-2.326z"/><path d="M297.576 248.154c1.17 3.752 2.79 9.62 4.246 13.12-3.512-1.016-9.084-2.006-12.508-2.622 2.973.008 7.06.346 9.682-.087-.036-3.016-1.01-7.246-1.42-10.41z"/><path d="M300.398 257.626c-.015.076-10.33-2.084-10.33-2.084l9.825 4.61 1.984-.708-1.48-1.818z"/><path d="M297.93 249.252c1.122 3.752 2.67 9.62 4.076 13.12-3.46-1.016-8.955-2.006-12.332-2.622 2.936.008 6.97.346 9.565-.087-.01-3.016-.932-7.246-1.31-10.41z"/><path d="M301.81 258.81c-.032.07-9.783-4.52-9.783-4.52l8.772 6.812 2.1-.192-1.09-2.1z"/><path d="M297.508 249.998c1.938 3.427 4.77 8.83 6.928 11.95-3.585-.262-9.136-.07-12.55.043 2.85-.61 6.835-1.133 9.253-2.102-.694-2.944-2.548-6.88-3.633-9.89z"/><path d="M303.244 259.476c-.02.076-10.25-2.6-10.25-2.6l9.59 5.087 2.035-.603-1.376-1.884z"/><path d="M298.836 251.11c1.987 3.378 4.893 8.708 7.1 11.78-3.637-.21-9.265.058-12.725.217 2.885-.648 6.924-1.222 9.37-2.22-.722-2.916-2.626-6.8-3.744-9.777z"/><path d="M304.94 260.364c-.036.065-9.558-5.428-9.558-5.428l8.354 7.565 2.147.03-.942-2.166z"/><path d="M299.498 251.755c2.29 3.128 5.68 8.093 8.15 10.888-3.557.23-8.997 1.182-12.342 1.76 2.734-.996 6.597-2.058 8.868-3.35-1.01-2.82-3.274-6.464-4.676-9.298z"/><path d="M305.35 261.026c-.004.08-10.284-.228-10.284-.228l10.167 2.832 1.812-1.06-1.696-1.544z"/><path d="M311.568 213.907c0-.03 7.44-1.21 7.44-1.21l-7.4.2-1.293.633 1.253.377z"/><path d="M315.783 215.434c-2.143-.602-5.38-1.613-7.58-2.05 2.356-.918 5.85-2.538 7.998-3.532-1.655 1.003-4.062 2.294-5.35 3.295 1.222.79 3.446 1.585 4.934 2.287z"/><path d="M311.447 213.936c-.008-.03 7.105-1.85 7.105-1.85l-7.377.878-1.103.727 1.375.246z"/><path d="M316.312 215.65c-2.488-.237-6.303-.71-8.76-.75 1.86-1.54 4.47-4.12 6.077-5.704-1.108 1.49-2.81 3.47-3.546 4.88 1.666.645 4.342 1.085 6.228 1.574z"/><path d="M308.427 214.894c.006-.03 7.524-.88 7.524-.88l-7.33-.13-1.37.577 1.177.434z"/><path d="M314.123 216.194c-2.29-.398-5.768-1.093-8.088-1.336 2.226-1.02 5.476-2.773 7.476-3.848-1.497 1.048-3.703 2.417-4.825 3.436 1.387.64 3.795 1.21 5.44 1.748z"/><path d="M307.995 214.448c-.02-.026 6.584-2.61 6.584-2.61l-7.207 1.755-.866.807 1.488.048z"/><path d="M314.08 217.06c-1.888-.72-4.78-1.947-6.648-2.45 1.447-1.308 3.486-3.596 4.742-5-.874 1.398-2.21 3.207-2.8 4.59 1.255 1.005 3.28 1.98 4.705 2.86z"/><path d="M307.95 214.934c-.015-.04 5.185-2.06 5.185-2.06l-5.652.7-.692.927 1.16.434z"/><path d="M304.01 260.43c.004.078-10.65.08-10.65.08l10.767 2.485 1.776-1.095-1.893-1.47z"/><path d="M305.996 260.65c-.013.074-10.783-2.312-10.783-2.312l10.355 4.722 2.03-.62-1.602-1.79z"/><path d="M307.78 261.297c0 .077-10.715-.435-10.715-.435l10.714 2.96 1.836-.99-1.837-1.535z"/><path d="M300.784 254.454c2.766 2.887 6.907 7.486 9.813 10.034-3.605.49-9.038 1.824-12.38 2.637 2.66-1.177 6.466-2.5 8.612-3.933-1.418-2.68-4.227-6.074-6.046-8.74z"/><path d="M309.235 262.254c-.02.07-10.746-3.344-10.746-3.344l10.084 5.675 2.12-.41-1.46-1.92z"/><path d="M301.81 255.166c3.02 2.608 7.57 6.793 10.69 9.042-3.47.906-8.64 2.872-11.822 4.075 2.475-1.493 6.053-3.266 7.996-4.958-1.678-2.553-4.796-5.668-6.866-8.16z"/><path d="M309.796 262.68c.016.08-10.09 1.894-10.09 1.894l10.634.672 1.5-1.406-2.044-1.16z"/><path d="M307.51 262.247c.01.076-10.544.718-10.544.718l10.856 1.807 1.677-1.188-1.99-1.337z"/><path d="M309.542 262.685c-.007.074-10.842-1.632-10.842-1.632l10.61 4.08 1.956-.753-1.724-1.695z"/><path d="M311.83 263.137c.006.076-10.773.223-10.773.223l10.967 2.302 1.765-1.103-1.96-1.423z"/><path d="M304.397 256.31c3.01 2.675 7.54 6.957 10.66 9.28-3.576.777-8.92 2.542-12.207 3.62 2.574-1.388 6.285-3.016 8.322-4.62-1.64-2.575-4.733-5.753-6.775-8.28z"/><path d="M313.27 263.31c-.015.07-10.97-2.5-10.97-2.5l10.502 4.87 2.077-.57-1.61-1.8z"/><path d="M305.484 256.837c3.245 2.367 8.16 6.186 11.47 8.188-3.366 1.165-8.32 3.514-11.37 4.952 2.32-1.674 5.712-3.71 7.485-5.54-1.907-2.415-5.297-5.278-7.587-7.6z"/><path d="M314 264.245c.023.077-9.98 2.532-9.98 2.532l10.72-.006 1.4-1.498-2.14-1.027z"/></g><g><path d="M340.53 238.85c0 10.99-9.18 19.9-20.502 19.9s-20.5-8.91-20.5-19.9c0-10.992 9.177-19.902 20.5-19.902 11.322 0 20.5 8.91 20.5 19.902z" fill-rule="evenodd" fill="#3d25ca"/><path d="M332.305 250.772l-11.384-6.623-11.383 6.622 4.27-10.597-9.963-6.624h12.808l4.27-10.597 4.268 10.598h12.807l-9.96 6.624 4.268 10.598z" fill-rule="evenodd" fill="#ffd900"/><path d="M303.835 233.64l17.008 3.987" fill="none"/><path d="M320.844 223.01v14.617" fill="none"/><path d="M320.844 237.627v6.644" fill="none"/><path d="M320.844 237.627l7.086 2.658" fill="none"/><path d="M316.59 233.64l4.253 3.987" fill="none"/><path d="M320.844 237.627l4.252-3.986" fill="none"/><path d="M337.85 233.64l-17.006 3.987" fill="none"/><path d="M320.844 237.627l11.338 13.288" fill="none"/><path d="M320.844 237.627l-11.34 13.288" fill="none"/><path d="M313.756 240.285l7.087-2.658" fill="none"/></g></g><g><path d="M637.79 325.98c0 117.36-95.243 212.6-212.6 212.6s-212.6-95.243-212.6-212.6c0-117.35 95.244-212.6 212.6-212.6 117.35 0 212.6 95.244 212.6 212.6zm70.867 0c0 156.47-126.99 283.46-283.46 283.46s-283.46-126.99-283.46-283.46 126.99-283.46 283.46-283.46 283.46 126.99 283.46 283.46z" fill-rule="evenodd" transform="matrix(.198 0 0 .186 235.725 179.513)" stroke="#000" stroke-width="1.033pt" fill="#d60000"/><path d="M362.475 249.15l3.7 1.284 6.143-1.044-.462 1.166-3.2.514c-.597.092-1.187.167-1.77.223.37.376.78.818 1.23 1.326l2.014 2.294-.443 1.117-3.89-4.637-3.702-1.285.38-.96z" fill="#ffe600"/><path d="M373.276 236.26l.12 1.02-5.344.563c-.93.098-1.68.088-2.247-.03-.567-.117-1.05-.386-1.45-.81-.395-.418-.636-1-.724-1.74-.084-.723-.005-1.328.24-1.818.244-.49.637-.863 1.177-1.12.545-.255 1.308-.434 2.288-.538l5.345-.564.12 1.018-5.34.565c-.802.085-1.388.21-1.756.372-.364.166-.63.41-.802.733-.17.326-.23.708-.177 1.147.09.748.356 1.26.802 1.537.446.275 1.25.35 2.41.23l5.34-.565z" fill="#ffe600"/><path d="M365.7 226.3l1.066-.206.7 3.22-3.375.65c-.577-.404-1.043-.846-1.396-1.326-.35-.48-.584-.997-.703-1.55-.16-.75-.116-1.465.132-2.15.254-.684.71-1.25 1.366-1.7.657-.45 1.432-.762 2.325-.934.886-.17 1.744-.174 2.576-.013.836.164 1.503.5 2 1.01.498.51.828 1.144.992 1.902.118.55.118 1.067-.002 1.55-.115.488-.335.894-.66 1.22-.327.326-.782.613-1.366.862l-.494-.85c.44-.204.772-.416 1-.636.23-.22.388-.503.477-.85.093-.344.098-.71.016-1.093-.1-.46-.27-.842-.512-1.145-.237-.304-.515-.534-.832-.69-.317-.15-.652-.252-1.003-.303-.605-.086-1.235-.065-1.893.06-.81.157-1.465.403-1.96.74-.496.34-.828.76-.997 1.256-.168.497-.198.996-.09 1.498.094.436.285.843.573 1.22.292.376.575.65.85.82l1.693-.324-.48-2.237z" fill="#ffe600"/><path d="M326.532 198.168l1.593-8.583 1.072.175-1.405 7.57 3.994.65-.188 1.014-5.066-.826z" fill="#ffe600"/><path d="M317.544 197.815v-8.738h5.963v1.03h-4.87v2.677h4.56v1.025h-4.56v2.973h5.06v1.032h-6.153z" fill="#ffe600"/><path d="M291.95 203.38l1.033-.442c.485.86.674 1.66.567 2.403-.107.738-.488 1.367-1.142 1.89-.678.54-1.362.834-2.053.884-.69.045-1.4-.12-2.128-.494-.725-.376-1.376-.88-1.956-1.514-.63-.69-1.056-1.39-1.277-2.102-.22-.716-.22-1.39-.003-2.022.218-.638.604-1.178 1.158-1.62.63-.5 1.313-.754 2.05-.758.738-.004 1.47.233 2.2.71l-.633.856c-.587-.366-1.12-.548-1.598-.548-.48 0-.93.17-1.35.504-.482.386-.775.83-.877 1.334-.1.502-.027 1.012.22 1.53.243.515.565.99.965 1.428.516.563 1.044.995 1.584 1.294.54.294 1.07.414 1.59.36.518-.054.97-.234 1.352-.54.466-.37.73-.827.795-1.368.064-.54-.103-1.136-.498-1.785z" fill="#ffe600"/><path d="M287.958 211.153l-6.938-5.86.73-.76 6.938 5.86-.73.76z" fill="#ffe600"/><path d="M283.452 215.99l-7.4-5.346.663-.814 6.527 4.714 2.468-3.028.873.63-3.13 3.843z" fill="#ffe600"/><path d="M269.57 221.16l.403-.953 4.99 1.87c.866.326 1.52.666 1.962 1.02.44.357.732.808.872 1.358.137.545.06 1.165-.235 1.86-.286.673-.66 1.172-1.12 1.497-.46.323-.993.48-1.597.464-.608-.015-1.37-.194-2.284-.537l-4.988-1.872.404-.952 4.983 1.868c.75.282 1.327.43 1.733.45.403.016.76-.08 1.073-.29.313-.213.556-.524.73-.933.297-.7.318-1.27.064-1.712-.255-.44-.924-.864-2.008-1.27l-4.983-1.87z" fill="#ffe600"/><path d="M275.01 242.324l-9.304.05-.066-5.6 1.098-.005.054 4.575 2.85-.016-.05-4.285 1.09-.006.05 4.283 3.167-.017-.057-4.756 1.098-.006.07 5.78z" fill="#ffe600"/><path d="M309.646 199l-1.85-8.584 2.777-.533c.627-.12 1.114-.17 1.462-.153.486.025.925.154 1.315.388.508.3.93.73 1.268 1.287.34.552.594 1.21.76 1.976.14.653.192 1.244.158 1.775-.035.53-.128.984-.28 1.36-.153.37-.343.676-.57.92-.223.237-.513.44-.87.61-.353.17-.773.302-1.26.396l-2.91.56zm16.402-10.568l1.722-.33c.532-.103.936-.235 1.214-.398.282-.164.492-.36.63-.585.195-.32.314-.717.356-1.197.044-.484-.004-1.05-.143-1.698-.194-.898-.48-1.56-.864-1.987-.38-.43-.784-.69-1.215-.778-.312-.062-.785-.032-1.42.09l-1.693.325 1.413 6.557z" fill="#ffe600"/><path d="M339.533 202.766l4.317-7.76 2.75 1.357c.484.238.84.446 1.067.62.323.24.556.51.698.81.143.297.2.642.166 1.034-.03.395-.15.785-.364 1.17-.368.66-.876 1.122-1.525 1.386-.647.26-1.487.136-2.518-.373l-1.87-.923-1.754 3.155-.965-.476zm130.387-16.71l1.884.93c.623.307 1.135.403 1.533.285.4-.117.724-.4.974-.848.18-.325.257-.64.23-.947-.024-.308-.14-.56-.35-.76-.138-.126-.425-.297-.863-.513l-1.864-.92-1.543 2.773z" fill="#ffe600"/><path d="M344.69 205.162l8.58-4.533.877.74-3.702 8.652-.927-.783 1.166-2.584-2.572-2.17-2.56 1.405-.863-.728zm163.778-16.694l2.086 1.76 1.08-2.35c.327-.713.612-1.287.853-1.72-.477.35-.983.674-1.52.966l-2.5 1.344z" fill="#ffe600"/><path d="M351.03 210.694l7.4-5.294 2.223 2.727c.447.548.72 1.013.817 1.394.1.38.053.776-.144 1.188-.198.41-.5.762-.908 1.054-.525.375-1.082.55-1.673.525-.59-.024-1.175-.297-1.753-.817.05.304.06.555.032.754-.07.426-.214.885-.435 1.38l-1.143 2.51-.835-1.024.877-1.914c.25-.556.43-.995.54-1.318.11-.32.163-.578.157-.77-.004-.187-.04-.357-.104-.508-.052-.11-.163-.27-.334-.48l-.77-.943-3.286 2.35-.664-.813zm205.458-23.187l1.425 1.75c.303.37.586.63.848.774.266.144.544.197.835.162.294-.038.56-.143.8-.314.35-.25.55-.562.603-.936.055-.37-.104-.785-.476-1.24l-1.585-1.947-2.45 1.752z" fill="#ffe600"/><path d="M356.037 216.453l9.66-1.676.57.96-6.478 7.026-.606-1.016 1.992-2.078-1.676-2.82-2.9.55-.563-.947zm241.004-26.61l1.36 2.287 1.83-1.886c.557-.573 1.023-1.028 1.4-1.362-.57.187-1.16.338-1.766.45l-2.823.51z" fill="#ffe600"/><path d="M364.245 239.183l8.92 3.882-.124 1.097-9.605 2.226.13-1.16 2.903-.618.362-3.22-2.707-1.126.122-1.08zm369.774-46.932l-.294 2.61 2.652-.546c.806-.168 1.466-.286 1.98-.354-.582-.158-1.155-.355-1.72-.592l-2.62-1.117z" fill="#ffe600"/><path d="M276.522 250.2l-9.097 1.9-.788-3.352c-.158-.674-.196-1.204-.113-1.59.08-.384.3-.724.665-1.02.363-.297.796-.497 1.297-.602.645-.135 1.23-.075 1.754.18.525.254.933.733 1.223 1.433.09-.298.195-.53.31-.7.255-.36.594-.72 1.016-1.083l2.166-1.833.296 1.26-1.658 1.395c-.477.405-.838.734-1.083.984s-.407.462-.488.638c-.08.172-.126.34-.135.504-.002.12.027.308.087.566l.273 1.16 4.04-.844.235 1zm-334.99-60.49l-.505-2.15c-.107-.456-.247-.803-.42-1.038-.176-.233-.404-.39-.684-.474-.284-.08-.572-.09-.866-.03-.43.09-.753.295-.97.614-.216.316-.258.755-.126 1.316l.563 2.392 3.01-.63z" fill="#ffe600"/><path d="M275.295 234.598l-9.252-.77.275-2.906c.05-.51.115-.9.2-1.164.11-.372.286-.676.525-.914.235-.238.55-.418.948-.54.4-.126.827-.17 1.285-.132.787.066 1.434.33 1.942.792.503.462.703 1.237.6 2.326l-.187 1.975 3.76.313-.095 1.02zm-244.884-46.372l.19-1.99c.06-.658-.042-1.137-.31-1.44-.268-.3-.67-.473-1.204-.518-.387-.032-.725.023-1.014.164-.293.14-.496.337-.61.595-.07.168-.128.482-.172.945l-.186 1.97 3.307.274z" fill="#ffe600"/><path d="M279.254 221.587l-7.76-4.832 1.71-2.41c.347-.49.704-.834 1.073-1.03.366-.2.773-.283 1.22-.246.444.032.844.16 1.2.382.333.206.592.475.78.806.187.332.264.703.23 1.117.414-.303.86-.455 1.34-.456.48-.005.946.134 1.398.415.363.226.656.5.88.826.22.32.35.625.387.918s-.002.608-.114.946c-.115.333-.317.704-.606 1.113l-1.738 2.45zm-159.82-35.588l.984-1.39c.267-.377.43-.666.485-.867.076-.264.062-.507-.04-.727-.103-.223-.29-.42-.56-.588-.26-.16-.52-.25-.787-.27-.27-.02-.508.043-.714.19-.208.143-.476.445-.803.907l-.912 1.284 2.345 1.46zm13.51-23.92l1.134-1.6c.195-.273.32-.474.373-.6.098-.222.143-.43.138-.622-.006-.193-.072-.39-.2-.592-.13-.203-.318-.382-.565-.535-.29-.18-.584-.274-.883-.283-.302-.012-.573.066-.813.233-.242.16-.508.446-.798.855l-1.054 1.485 2.668 1.66z" fill="#ffe600"/><path d="M294.437 204.952l-2.257-8.976.994-.584 7.786 5.723-1.05.618-2.308-1.764-2.914 1.714.728 2.692-.98.576zm-34.392-19.525l2.363-1.39-2.093-1.622c-.637-.49-1.143-.906-1.518-1.243.228.526.417 1.07.566 1.635l.682 2.62z" fill="#ffe600"/></g></g></g></svg>