<svg xmlns="http://www.w3.org/2000/svg" height="480" width="640" version="1"><defs><clipPath id="a"><path fill-opacity=".67" d="M0 0h682.67v512H0z"/></clipPath></defs><g clip-path="url(#a)"><path d="M0 0h720v240H319.997L0 0z" fill-rule="evenodd" fill="#ed2939"/><path d="M0 480h720V240H319.997L0 480z" fill-rule="evenodd" fill="#002395"/><path d="M0 0l319.997 240L0 480V0z" fill-rule="evenodd" fill="#fff"/><g><path fill="#ff0" d="M161.642 180.7l.098-3.714s-1.996-3.177.32-6.59c0 0-4.92-2.6-3.775-6.675 0 0-4.45-1.136-4.123-6.027 0 0-4.803-.333-5.3-4.42 0 0-4.804.792-6.917-3.19 0 0-4.686.915-6.008-2.367 0 0-4.554 1.577-7.257-2.28 0 0-4.81 1.94-6.825-1.7-1.99 3.628-6.8 1.7-6.8 1.7-2.67 3.843-7.257 2.248-7.257 2.248-1.276 3.295-5.948 2.36-5.948 2.36-2.107 3.982-6.904 3.19-6.904 3.19-.47 4.074-5.268 4.407-5.268 4.407.38 4.904-4.063 6.016-4.063 6.016 1.17 4.073-3.743 6.668-3.743 6.668 2.375 3.433.4 6.584.4 6.584l-.112 3.426 79.495.366"/><path d="M377.17 843.11l.09-3.458s-1.855-2.958.3-6.136c0 0-4.578-2.422-3.513-6.215 0 0-4.14-1.058-3.835-5.612 0 0-4.468-.31-4.93-4.114 0 0-4.47.736-6.435-2.97 0 0-4.358.85-5.588-2.205 0 0-4.238 1.467-6.752-2.126 0 0-4.474 1.808-6.35-1.582-1.85 3.38-6.324 1.582-6.324 1.582-2.484 3.58-6.75 2.094-6.75 2.094-1.188 3.068-5.534 2.198-5.534 2.198-1.96 3.708-6.422 2.97-6.422 2.97-.44 3.794-4.9 4.103-4.9 4.103.352 4.565-3.78 5.6-3.78 5.6 1.09 3.793-3.483 6.21-3.483 6.21 2.21 3.195.372 6.13.372 6.13l-.104 3.19 73.95.34h-.013z" stroke="#000" stroke-width=".289" fill="none" transform="matrix(1.075 0 0 1.075 -243.946 -725.187)"/><path fill="#f00" d="M159.663 176.512c-12.486-1.25-26.863-4.214-37.962 2.036-7.44-4.385-17.8-4.117-26.62-3.26-4.79.858-10.423.858-15.43 1.677l-.785.11c-9.083.603-17.32-2.08-25.214-5.608 2.507 14.227 5.29 28.807 6.656 43.7 2.978 22.06-10.437 40.58-4.934 62.37 3.285 10.458 14.782 16.537 25.306 17.742 10.188.6 20.73 2.27 30.16 4.317 1.794.373 3.92 1.205 5.157 1.74 2.598 1.087 4.503 2.685 6.17 4.393 5.695-5.93 14.038-7.58 22.27-8.45 14.835-1.733 33.125-.79 42.208-14.23v-.76c4.934-7.435 4.28-18.775 2.14-27.197-.144-2.94-.93-5.53-1.355-8.33-9.063-23.938-1.302-50.86 2.598-74.988-4.764 2.605-10.078 3.835-15.378 5.138-4.227.563-8.94.307-13.218.078l-1.774-.477"/><path fill="#80cfe1" d="M178.303 245.216c-.06 1.576.792 2.813 1.1 4.272 1.734 10.464 3.41 24.324-7.362 30.816-11.916 7.577-27.543 4.332-41.33 8.343-2.756.765-6.55 3.3-8.488 5.09-1.244-.817-2.494-2.073-4.097-2.812-11.346-6.034-26.097-4.012-38.903-7.27-6.433-2.036-13.14-7.048-14.77-13.632-4.188-17.276 5.844-32 4.66-49.137-.766-13.09-2.965-25.652-5.988-37.922 10.012 4.665 21.6 5.444 32.858 3.206 8.337-1.165 18.04-1.19 25.854 2.337 4.306-1.853 9.345-2.684 13.985-3.194 8.822.857 18.304 2.454 27.388 2.39 6.066-.316 11.576-2.07 16.85-4.406-3.128 20.28-9.135 41.522-1.76 61.92"/><path fill="#fff" d="M160.297 249.257l-.098-19.07h2.348l-29.146-18.825-.053-9.784h2.813l-14.574-10.436-14.502 10.43h2.807l.052 9.776-28.99 18.802 2.317.013.1 19.056 76.916.052"/><path d="M160.297 249.257l-.098-19.07h2.348l-29.146-18.825-.053-9.784h2.813l-14.574-10.436-14.502 10.43h2.807l.052 9.776-28.99 18.802 2.317.013.1 19.056 76.916.052.006-.014z" stroke="#000" stroke-width="1.3351499999999998" fill="none"/><path fill="#fff" d="M169.262 274.305l.007 5.967-93.9-.104-.038-5.942 93.937.08"/><path d="M169.262 274.305l.007 5.967-93.9-.104-.038-5.942 93.937.08h-.007z" stroke="#000" stroke-width="1.3351499999999998" fill="none"/><path fill="#fff" d="M81.607 273.95l-.08-20.195 3.803-.007-.21 20.43.23-20.266-5.477-.157v-4.332l83.92.092.038 4.293h-5.175l.098 20.45-.183-20.45h3.854l.085 20.22"/><path d="M81.607 273.95l-.08-20.195 3.803-.007-.21 20.43.23-20.266-5.477-.157v-4.332l83.92.092.038 4.293h-5.175l.098 20.45-.183-20.45h3.854l.085 20.22" stroke="#000" stroke-width="1.3351499999999998" fill="none"/><path d="M99.645 268.973l-.058-14.083h-11.27l.067 14.07 11.262.013" stroke="#000" stroke-width="1.3351499999999998" fill="none"/><path d="M91.39 257.825l.032 8.18h5.157l-.027-8.18H91.39" stroke="#000" stroke-width="1.3351499999999998" fill="none"/><path d="M154.73 269.016l-.067-14.07-11.23-.012.053 14.082h11.242" stroke="#000" stroke-width="1.3351499999999998" fill="none"/><path d="M146.472 257.88l.06 8.153h5.15l-.046-8.154h-5.164" stroke="#000" stroke-width="1.3351499999999998" fill="none"/><path d="M154.642 246.086l-.065-14.083h-11.242l.04 14.083h11.274-.008z" stroke="#000" stroke-width="1.3351499999999998" fill="none"/><path d="M146.386 234.96l.033 8.167h5.15l-.007-8.167h-5.177" stroke="#000" stroke-width="1.3351499999999998" fill="none"/><path d="M99.55 246.033l-.08-14.057-11.25-.014.054 14.063h11.274v.008z" stroke="#000" stroke-width="1.3351499999999998" fill="none"/><path d="M91.293 234.906l.026 8.155 5.162.013-.04-8.167h-5.15" stroke="#000" stroke-width="1.3351499999999998" fill="none"/><path d="M119.94 246.054l-.05-14.057-11.256-.012.046 14.068h11.26" stroke="#000" stroke-width="1.3351499999999998" fill="none"/><path d="M111.696 234.928l.026 8.153 5.157.028-.034-8.18h-5.15" stroke="#000" stroke-width="1.3351499999999998" fill="none"/><path d="M135.658 246.086l-.08-14.083-11.247-.013.053 14.07 11.275.026" stroke="#000" stroke-width="1.3351499999999998" fill="none"/><path d="M127.402 234.938l.04 8.18h5.156l-.026-8.18h-5.17" stroke="#000" stroke-width="1.3351499999999998" fill="none"/><path fill="#fff" d="M138.453 241.765l.124 32.464-32.608-.054-.118-32.437 32.595.025"/><path d="M138.453 241.765l.124 32.464-32.608-.054-.118-32.437 32.595.025h.006z" stroke="#000" stroke-width="1.3351499999999998" fill="none"/><path d="M105.655 251.03l32.83.027" stroke="#000" stroke-width="1.3351499999999998" fill="none"/><path d="M109.75 274.22l-.11-22.944" stroke="#000" stroke-width="1.3351499999999998" fill="none"/><path d="M134.604 274.23l-.11-22.93" stroke="#000" stroke-width="1.3351499999999998" fill="none"/><path d="M150.353 227.94l-18.362-13.41-20.63-.025-18.22 13.382 57.214.053" stroke="#000" stroke-width="1.3351499999999998" fill="none"/><path d="M112.943 203.398l.033 8.18 17.355.013-.032-8.18-17.355-.012" stroke="#000" stroke-width="1.3351499999999998" fill="none"/><path d="M117.652 205.43l.026 4.076h7.97l-.026-4.076h-7.97" stroke="#000" stroke-width="1.3351499999999998" fill="none"/><path d="M121.597 194.088l9.652 6.825-19.234-.025 9.58-6.8" stroke="#000" stroke-width="1.3351499999999998" fill="none"/><path fill="#fff" d="M160.62 189.466c2.74-.065 3.448 11.295 3.455 16.923 2.355.66 7.577 3.945 9.888 6.916l-26.49-.04c2.277-2.93 7.46-6.23 9.796-6.89 0-5.635.574-16.988 3.35-16.922"/><path d="M160.62 189.466c2.74-.065 3.448 11.295 3.455 16.923 2.355.66 7.577 3.945 9.888 6.916l-26.49-.04c2.277-2.93 7.46-6.23 9.796-6.89 0-5.635.574-16.988 3.35-16.922" stroke="#000" stroke-width="1.3351499999999998" fill="none"/><path d="M107.375 242.668h2.375l-.693 1.275s1.145 1.473.02 3.16l.62 1.173h-2.29l.622-1.113s-1.172-1.956.05-3.22l-.705-1.275" stroke="#000" stroke-width="1.3351499999999998" fill="none"/><path d="M112.212 242.668h2.376l-.687 1.275s1.146 1.434.007 3.16l.615 1.173h-2.284l.615-1.113s-1.145-1.956.06-3.22l-.7-1.275" stroke="#000" stroke-width="1.3351499999999998" fill="none"/><path d="M117.5 242.668h2.37l-.707 1.275s1.16 1.473.02 3.16l.622 1.198-2.27-.024.608-1.113s-1.16-1.944.045-3.22l-.693-1.275h.006z" stroke="#000" stroke-width="1.3351499999999998" fill="none"/><path d="M123.457 242.69h2.388l-.7 1.288s1.145 1.447.007 3.14l.64 1.192h-2.303l.614-1.112s-1.145-1.97.08-3.22l-.72-1.29h-.007z" stroke="#000" stroke-width="1.3351499999999998" fill="none"/><path d="M128.756 242.69h2.37l-.7 1.288s1.15 1.447.012 3.135l.628 1.197h-2.283l.595-1.112s-1.152-1.957.092-3.22l-.714-1.29" stroke="#000" stroke-width="1.3351499999999998" fill="none"/><path d="M134.024 242.7l2.37-.013-.7 1.29s1.17 1.446.03 3.14l.597 1.19h-2.29l.616-1.11s-1.146-1.958.078-3.22l-.7-1.277" stroke="#000" stroke-width="1.3351499999999998" fill="none"/><path fill="#ff0" d="M122.306 315.843c12.21.04 27.23-2.454 34.264-6.092l15.45-1.367.307 18.853c-13.088 7.218-43.307 8.768-49.956 8.716-6.654.052-37.247-1.524-50.394-8.768l.17-18.866 15.484 1.394c7.034 3.62 22.51 6.13 34.708 6.13h-.033"/><path d="M122.306 315.843c12.21.04 27.23-2.454 34.264-6.092l15.45-1.367.307 18.853c-13.088 7.218-43.307 8.768-49.956 8.716-6.654.052-37.247-1.524-50.394-8.768l.17-18.866 15.484 1.394c7.034 3.62 22.51 6.13 34.708 6.13h-.033" stroke="#000" stroke-width="0.310675" fill="none"/><path fill="#ff0" d="M32.2 235.422l13.612 4.332-4.117 22.04-12.884 2.003s-2.172-11.59 3.39-28.388"/><path d="M32.2 235.422l13.612 4.332-4.117 22.04-12.884 2.003s-2.172-11.59 3.39-28.388v.012z" stroke="#000" stroke-width="0.310675" fill="none"/><path fill="#7e7e7e" d="M41.692 261.555L28.814 263.8l8.147-11.59 4.732 9.345"/><path d="M41.692 261.555L28.814 263.8l8.147-11.59 4.732 9.345" stroke="#000" stroke-width="0.310675" fill="none"/><path fill="#ff0" d="M24.062 251.3l13.12.948c.295 11.12 1.643 53.55 52.306 55.853L87.91 323.54c-61.67.64-66.355-52.044-63.848-72.238"/><path d="M24.062 251.3l13.12.948c.295 11.12 1.643 53.55 52.306 55.853L87.91 323.54c-61.67.64-66.355-52.044-63.848-72.238z" stroke="#000" stroke-width="0.310675" fill="none"/><path d="M72.222 326.7l15.463-3.376" stroke="#000" stroke-width="0.310675" fill="none"/><path fill="#ff0" d="M211.338 235.583l-13.56 4.293 4.3 22.008 12.91 2.073s2.076-11.582-3.65-28.386"/><path d="M211.338 235.583l-13.56 4.293 4.3 22.008 12.91 2.073s2.076-11.582-3.65-28.386v.013z" stroke="#000" stroke-width="0.310675" fill="none"/><path fill="#7e7e7e" d="M202.07 261.652l12.912 2.317-8.258-11.596-4.653 9.278"/><path d="M202.07 261.652l12.912 2.317-8.258-11.596-4.653 9.278" stroke="#000" stroke-width="0.310675" fill="none"/><path fill="#ff0" d="M219.626 251.472l-13.14.897c-.19 11.104-1.158 53.554-51.82 55.805l1.72 15.424c61.657.71 65.898-51.947 63.24-72.135"/><path d="M219.626 251.472l-13.14.897c-.19 11.104-1.158 53.554-51.82 55.805l1.72 15.424c61.657.71 65.898-51.947 63.24-72.135v.005z" stroke="#000" stroke-width="0.310675" fill="none"/><path d="M172.122 326.776l-15.502-3.387" stroke="#000" stroke-width="0.310675" fill="none"/><path fill="#009fc5" d="M114.104 325.13c-.347.223-.818.283-1.36.256l-2.448-.124.21-3.055 2.427.13c.478.032.857.125 1.093.268.49.255.706.727.66 1.38-.032.564-.228.93-.588 1.146m-4.11 4.81l.242-3.723 2.853.197c.923.072 1.61-.17 2.075-.642.484-.458.733-1.06.765-1.74.06-.792-.144-1.44-.615-1.918-.45-.458-1.093-.7-1.897-.778l-4.076-.255-.563 8.77 1.212.078"/><path fill="#009fc5" d="M118.867 322.605l2.983.032c.432.04.773.092 1.02.21.46.216.675.648.675 1.276 0 .59-.17.982-.504 1.218-.32.216-.784.314-1.34.314l-2.866-.032.026-3.017m-.046 7.767l.026-3.743 2.8.04c.498 0 .865.038 1.12.162.412.19.615.59.635 1.14l.072 1.47c.02.354.026.57.046.714.04.105.058.216.11.295h1.506l-.027-.19c-.17-.09-.308-.267-.367-.536-.052-.17-.078-.425-.09-.746l-.027-1.17c-.02-.53-.113-.897-.316-1.1-.176-.236-.418-.44-.79-.563.417-.222.732-.477.96-.792.217-.347.328-.785.328-1.32 0-1.01-.412-1.697-1.25-2.07-.452-.202-1.027-.307-1.708-.32l-4.208-.04-.033 8.795h1.21"/><path fill="#009fc5" d="M128.154 328.54c-.536-.655-.824-1.473-.89-2.44-.058-1.22.177-2.148.733-2.777.563-.68 1.29-1.007 2.238-1.06.956-.052 1.74.256 2.324.857.594.59.934 1.408.993 2.43.033.98-.137 1.85-.59 2.616-.444.78-1.183 1.218-2.276 1.243-1.14.06-1.99-.21-2.532-.87m-1.44-5.537c-.563.87-.792 1.878-.733 3.095.085 1.315.49 2.402 1.256 3.22.85.818 1.977 1.23 3.364 1.15 1.485-.064 2.605-.627 3.364-1.66.615-.936.91-2.023.844-3.365-.085-1.197-.432-2.172-1.08-2.898-.818-.976-2.016-1.407-3.638-1.34-1.532.096-2.657.66-3.384 1.798"/><path fill="#009fc5" d="M168.037 310.35c.844-.144 1.577-.104 2.245.124.98.308 1.642 1.035 2.054 2.146l-1.21.17c-.262-.6-.635-1.013-1.14-1.243-.49-.215-1.105-.268-1.812-.163-.824.125-1.485.536-1.95 1.198-.458.706-.595 1.65-.392 2.852.17.996.536 1.84 1.138 2.402.557.576 1.375.78 2.44.628.8-.13 1.44-.45 1.892-1 .472-.524.61-1.316.452-2.337l-2.82.432-.144-.97 3.926-.602.766 4.653-.78.12-.483-1.075c-.33.485-.656.858-.944 1.074-.484.38-1.138.62-1.956.74-1.06.162-2.03-.028-2.906-.59-.962-.714-1.583-1.774-1.82-3.246-.254-1.446-.025-2.684.642-3.66.635-.94 1.558-1.49 2.8-1.667"/><path fill="#009fc5" d="M176.916 309.673l2.814-1.02c.387-.145.72-.19 1.008-.158.517.04.897.346 1.113.962.203.523.203.98-.026 1.302-.242.333-.62.575-1.17.778l-2.645.948-1.093-2.814m2.813 7.27l-1.374-3.526 2.618-.943c.49-.157.83-.242 1.086-.215.465.058.818.34 1.054.876l.595 1.342c.13.333.235.536.32.628.04.118.124.19.19.268l1.42-.523-.08-.19c-.208 0-.41-.118-.562-.348-.11-.163-.216-.4-.366-.673l-.465-1.1c-.21-.48-.425-.773-.674-.95-.248-.138-.563-.23-.936-.255.288-.334.498-.668.576-1.06.085-.4.046-.844-.144-1.34-.36-.937-1.022-1.448-1.95-1.513-.492-.04-1.054.065-1.702.294l-3.953 1.407 3.194 8.27 1.157-.424"/><path fill="#009fc5" d="M190.02 312.586l-5.018-7.324 5.51-3.514.608.884-4.515 2.886 1.544 2.238 4.168-2.683.57.857-4.17 2.684 1.702 2.467 4.594-2.938.608.864-5.608 3.58"/><path fill="#009fc5" d="M194.417 299.632l1.44-1.584c.668-.706 1.374-1.027 2.146-.935.773.065 1.558.47 2.396 1.204.228.176.43.405.64.66.366.478.582.898.72 1.316.118.524.09 1.002-.092 1.46-.11.228-.307.497-.602.818l-1.446 1.572-5.202-4.522m7.604 3.448c1.02-1.125 1.243-2.336.647-3.704-.347-.74-.877-1.46-1.61-2.088-.923-.818-1.885-1.236-2.9-1.314-1.125-.086-2.08.32-2.91 1.23l-2.455 2.63 6.766 5.903 2.455-2.644"/><path fill="#009fc5" d="M207.264 296.246l-7.787-4.574.634-1.008 7.802 4.548-.642 1.047"/><path fill="#009fc5" d="M210.317 290.935l-8.41-3.364 2.48-5.915 1.022.393-2.023 4.875 2.532.995 1.89-4.49.97.4-1.873 4.483 2.834 1.152 2.075-4.933 1.02.384-2.525 6.02"/><path fill="#009fc5" d="M214.176 280.604l-8.847-1.956.293-1.368 8.173-2.76-7.178-1.585.262-1.073 8.847 1.903-.28 1.33-8.188 2.82 7.178 1.55-.255 1.14"/><path fill="#009fc5" d="M213.477 269.37l.11-1.112c.512.014.944-.065 1.27-.24.642-.35 1.015-1.01 1.113-1.985.04-.457.02-.857-.085-1.236-.19-.733-.602-1.14-1.263-1.205-.49-.052-.844.066-1.1.335-.228.307-.47.752-.653 1.38l-.407 1.16c-.262.757-.504 1.28-.766 1.575-.42.55-1.007.74-1.76.688-.805-.085-1.46-.406-1.924-1.02-.478-.564-.674-1.368-.556-2.364.078-.91.38-1.674.916-2.29.497-.562 1.27-.83 2.258-.727l-.09 1.112c-.485 0-.87.085-1.153.28-.51.283-.792.878-.877 1.748-.072.72.026 1.205.3 1.572.276.307.623.503 1.03.536.43.04.77-.098 1.006-.432.17-.23.374-.727.648-1.53l.4-1.22c.196-.56.43-.993.706-1.3.49-.51 1.132-.727 1.937-.668.982.104 1.682.51 2.042 1.257.352.752.49 1.583.405 2.526-.112 1.067-.458 1.905-1.1 2.468-.64.575-1.44.77-2.408.693"/><path fill="#009fc5" d="M30.07 268.833l.204 1.1c-.49.097-.883.294-1.17.55-.518.483-.695 1.21-.518 2.198.08.42.23.832.42 1.16.392.667.902.935 1.55.83.477-.085.792-.268.942-.608.144-.334.25-.845.28-1.5l.06-1.236c.04-.766.125-1.367.295-1.7.268-.603.772-.976 1.525-1.1.805-.145 1.51.038 2.12.497.615.425 1.02 1.164 1.17 2.146.19.896.106 1.7-.247 2.427-.34.707-.994 1.138-1.995 1.32l-.197-1.11c.465-.17.812-.335 1.04-.563.393-.44.51-1.073.36-1.944-.117-.707-.36-1.165-.726-1.393-.36-.27-.72-.374-1.112-.308-.438.064-.726.307-.864.7-.085.26-.15.803-.21 1.635l-.058 1.282c-.033.602-.124 1.1-.327 1.44-.32.628-.863 1.014-1.655 1.138-1 .17-1.773-.06-2.323-.7-.563-.628-.91-1.38-1.086-2.316-.197-1.114-.053-1.978.392-2.67.452-.714 1.165-1.126 2.134-1.264"/><path fill="#009fc5" d="M29.512 280.433l8.652-2.605 2.015 6.092-1.054.333-1.65-5.006-2.63.793 1.525 4.626-1.007.32-1.512-4.64-2.93.878 1.675 5.117-1.034.296-2.047-6.203"/><path fill="#009fc5" d="M33.35 291l7.958-4.22.85 1.484-5.47 5.785 7.99-1.37.824 1.475-7.938 4.194-.562-.976 4.685-2.467c.17-.1.432-.243.81-.445.374-.17.793-.4 1.212-.616L35.75 295.2l-.583-1.033 5.43-5.765-.26.13c-.17.1-.466.243-.865.472-.392.243-.687.392-.877.47l-4.672 2.507-.576-.993"/><path fill="#009fc5" d="M48.174 302.717c-.4-.09-.79-.32-1.177-.72l-1.682-1.734 2.264-2.074 1.694 1.727c.327.32.537.634.648.903.157.516 0 .988-.478 1.433-.432.4-.864.562-1.27.464m-6.393.805l2.776-2.546 1.97 1.996c.634.648 1.282.943 1.963.93.692-.04 1.288-.295 1.81-.792.59-.524.872-1.14.872-1.8-.007-.64-.3-1.242-.844-1.805l-2.827-2.887-6.583 6.047.85.857"/><path fill="#009fc5" d="M49.722 310.586l4.77-7.48 5.642 3.43-.59.89-4.632-2.774-1.433 2.264 4.26 2.584-.55.858-4.267-2.572-1.623 2.532 4.692 2.82-.563.885-5.708-3.437"/><path fill="#009fc5" d="M63.837 309.146l2.867.91c.405.124.7.28.896.458.366.347.465.844.25 1.446-.178.523-.446.863-.865 1.008-.373.065-.844.065-1.394-.105L62.89 312l.95-2.854m-2.474 7.35l1.19-3.568 2.67.87c.478.125.825.296.995.472.326.294.425.733.26 1.276l-.398 1.42c-.092.346-.138.575-.177.68 0 .112 0 .23.02.308l1.407.458.085-.203c-.15-.12-.236-.334-.23-.602.033-.165.08-.426.17-.727l.34-1.138c.14-.497.19-.87.067-1.138-.105-.282-.282-.537-.576-.78.445-.078.83-.215 1.158-.458.308-.268.57-.64.726-1.164.32-.95.144-1.74-.562-2.343-.354-.314-.858-.583-1.52-.832l-4.003-1.236-2.8 8.343 1.17.36"/><path fill="#bc715f" d="M73.523 164.655c1.034-2.494 10.614-9.293 42.05-6.316 0 0 5.314 3.245 8.436 2.827 1.78-.23-1.048.11-3.37-1.82-2.37-1.93-2.874-5.89 2.538-5.784 5.385.137 25.547 1.276 25.927 3.088.353 1.833-10.66 2.6-14.757 2.494-4.116-.11-3.638 1.97.458 1.814 12.8-.458 26.77-4.968 41.527 5.47 1.76 1.27-4.45 1.472-9.253-.57 0 0-13.016.675-18.643-.248 0 0-4.326 3.52-9.96 3.174.733 1.825-2.08 8.638-19.795 3.514-2.925.897-13.585 2.683-12.42-.484-2.808 0-7.73.903-8.462-.694-.707-1.57 8.664-3.946 10.307-5.647 0 0-19.822.19-23.578-1.18 0 0-11.695 2.625-11.008.35"/><path fill="#008737" d="M79.876 192.412c.426-.576.596-1.61 1.5-1.583 1.962.52 3.297 4.114 5.712 1.784.857-.19 1.184.976 1.89 1.113.452 1.996 2.055-.405 3.253-.27 2.56-1.137 5.727-1.406 8.757-.843.09 1.957-1.44 4.116-3.364 5.23.04 1.97 1.826 3.232 1.793 5.214-.307.74-.052 1.905-1.17 2.147-1.42-.256-2.82-.406-4-1.198-.143-.144-.26-.425-.562-.334-.144.66.89 1.316 1.295 1.99-.714 1.217-1.898.105-2.893.118-.294.7-.013 1.584-.733 2.036-1.256-.04-1.512-1.407-2.284-2.088-.792.857.557 1.368.746 2.048-.484 2.58-.42 5.098-2.997 6.786l-1.728.858c-.472-1.295-.177-3.26-.49-4.614-1.022 1.662-1.82 3.116-3.32 4.522-1.753-.576-2.774-2.644-3.16-4.358-.733-1.996-.314-4.385 1.263-5.83-.536-1.048-2.375-.806-2.637-2.297-2.755-1.794-4.28 3.14-6.06.575-.575-2.394.112-5.372 1.846-7.16-.386-.98-1.67-.724-2.428-1.287-1.734-1.472-4.234-3.03-4.11-5.687 4.745-1.792 10.418-.477 13.867 3.128"/><path fill="#ff0" d="M82.338 192.143c-.11 2.172 1.466.588 2.637 1.903-.916-.36-1.583 1.584-2.48.472l-.563.537c.327.745.962.843.3 1.66-.98.374-1.177-.855-1.635-1.34-.078-.215.15-.622-.21-.766-.555.47-1.138.64-1.903.563-.21-.42-.615-.97-.203-1.29.753-1.015 1.918.366 2.488-.346.09-.63-.46-1.394.255-1.827.49.085 1.12-.182 1.322.433"/><path fill="#ff0" d="M88.208 193.927c.058.42-.216 1.008.333 1.303.715-.387 1.474-.092 1.886.615-.007.38.11.876-.386 1.06l-1.113-.21c.08-.216-.274-.352-.412-.562-.49-.15-.78.248-1.145.49.275.42.91.648.76 1.185-.655.654-.976-.562-1.696-.255-.49-.19.177-1.21-.595-1.518-.917 0-.31 1.504-1.48.916-.42-.47-.83-1.105-.38-1.635.49-.328 1.322-.243 1.74.183.714-.79.786-3.847 2.494-1.57"/><path fill="#ff0" d="M80.898 197.077c.477.688-.105 1.623.503 2.39.957-1.787 1.88.385 3.018.214.347.427.118 1.016.183 1.5-1.406.373-3.1.818-4.344-.308l-.347.4c.74.687 1.44 1.466.85 2.617-1.053.228-2.683.254-3.213-.832-.275-.896.64-1.544-.327-2.264-.7.87-.668 2.036-2.127 1.243-.903-.497-1.17-1.524-.72-2.388.943-1.487 2.592.045 3.612-.682.144-1.276-.327-2.388.845-3.094 1-.178 1.465.575 2.074 1.203"/><path fill="#fff" d="M84.886 197.862c-.47 2.172-2.107-.11-2.873-.203 1.02-1.813 1.662.588 2.873.202"/><path fill="#fff" d="M89.98 200.227c-1.137.32-.96-1.1-1.524-1.657l.44-.4c.41.5.725 1.396 1.085 2.057"/><path fill="#ff0" d="M88.444 199.786c.327.753-.74 1.355.17 1.904.288-.24.64-.576.792-.713.78.23 1.682.367 2.225 1.14.583 1.596-1.033 1.556-1.95 2l-.91-.038c.217-.446-.39-.636-.542-.943-.42-.105-.766.026-1 .38.202 1.014 1.44 1.805.162 2.708-1.08-.07-2.755.347-2.656-1.145-.406-.844 1.1-2.146-.51-2.198-.53 1.14-1.113 2.237-2.494 1.158l.17-1.623c1.322.04 2.886.268 3.48-1.21.38-1.074-.66-2.062.27-2.912 1.348-.308 2.107.595 2.794 1.49"/><path d="M87.477 202.226c.34.806-.576.858-1.008 1.257-.584.046-.99-.184-1.343-.576-.262-.975.465-1.073 1.02-1.46.65-.268.917.485 1.33.78"/><path fill="#fff" d="M86.68 202.753c-.143.19-.346.132-.562.183l-.203-.974c.432.038.995.176.766.79"/></g></g></svg>