<svg xmlns="http://www.w3.org/2000/svg" height="480" width="640" version="1"><defs><clipPath id="a"><path fill-opacity=".67" d="M42.666 0h682.67v512H42.666z"/></clipPath></defs><g fill-rule="evenodd" clip-path="url(#a)"><path fill="#004e00" d="M-40 0h720v480H-40z"/><g><path d="M204.25 161.118h13.24" fill="#ffef00"/><path d="M206.938 128.995c26.172 12.605 57.328-.073 68.598-17.485 11.555-16.25 12.968-43.532-7.02-68.558 31.023 25.7 37.886 54.84 22.46 78.84-20.577 27.427-66.24 26.644-84.038 7.203z" fill="#fff"/><path fill="#feffff" d="M253.384 65.16l5.265.067-4.168 3.312 1.563 5.18-4.345-3.062-4.3 3.133 1.484-5.202-4.22-3.24 5.26-.157 1.69-5.137z"/><path fill="#feffff" d="M227.393 97.744l5.265.067-4.167 3.313 1.564 5.18-4.345-3.06-4.302 3.132 1.485-5.203-4.22-3.24 5.26-.157 1.69-5.138z"/><path fill="#feffff" d="M229.106 72.027l5.265.067-4.166 3.312 1.563 5.18-4.345-3.06-4.3 3.132 1.484-5.203-4.22-3.24 5.26-.157 1.69-5.138z"/><path fill="#feffff" d="M229.106 46.296l5.265.067-4.166 3.312 1.563 5.18-4.345-3.06-4.3 3.132 1.484-5.203-4.22-3.24 5.26-.157 1.69-5.138z"/><path fill="#feffff" d="M200.22 78.887l5.266.067-4.167 3.312 1.562 5.18-4.345-3.06-4.3 3.132 1.484-5.203-4.218-3.24 5.26-.157 1.69-5.138z"/></g><g><path fill="#980000" d="M4.59 0h154.347v480.186H4.59z"/><g fill="#e69900"><path d="M4.59 125.19v-3.43l6.38-8.574-1.287-1.715 3.86-5.144-1.287-1.715-2.573 3.43-1.286-1.714L17.4 94.322l1.287 1.714-1.287 1.716 2.652 3.465 6.352-8.61-6.46-8.344-2.544 3.2 1.287 1.714L17.4 90.89 8.397 78.888l1.286-1.715 2.573 3.43 1.286-1.715-3.86-5.145 1.288-1.715-6.38-8.574v-3.43l8.952 12.004-1.286 1.715 3.858 5.145-2.572 3.43 2.572 3.43 3.86-5.145 9.053 12.21-9.054 11.8-3.86-5.146-2.57 3.43 2.57 3.43-3.857 5.145 1.286 1.716L4.59 125.19z"/><path d="M4.588 82.318l1.287 3.43v5.144h3.858l2.573 1.716-2.573 1.715H5.875v5.144l-1.287 3.43v-20.58z"/></g><g fill="#e69900"><path d="M4.59 207.51v-3.43l6.38-8.576-1.287-1.715 3.86-5.146-1.287-1.715-2.573 3.43-1.286-1.716L17.4 176.64l1.287 1.714-1.287 1.716 2.652 3.465 6.352-8.61-6.46-8.344-2.544 3.2 1.287 1.715-1.287 1.714-9.003-12.005 1.286-1.715 2.573 3.43 1.286-1.715-3.86-5.145 1.288-1.715-6.38-8.574v-3.43l8.952 12.005-1.286 1.715 3.858 5.145-2.572 3.43 2.572 3.43 3.86-5.145 9.053 12.21-9.054 11.8-3.86-5.146-2.57 3.43 2.57 3.43-3.857 5.145 1.286 1.714L4.59 207.51z"/><path d="M4.588 164.636l1.287 3.43v5.144h3.858l2.573 1.716-2.573 1.715H5.875v5.145l-1.287 3.43v-20.58z"/></g><g fill="#e69900"><path d="M4.59 289.828v-3.43l6.38-8.575-1.286-1.715 3.86-5.145-1.287-1.715-2.573 3.43-1.286-1.715L17.4 258.96l1.288 1.713-1.287 1.716 2.653 3.464 6.352-8.61-6.46-8.344-2.544 3.2 1.288 1.714-1.287 1.714L8.4 243.524l1.286-1.715 2.573 3.43 1.286-1.716-3.86-5.145 1.288-1.716-6.38-8.574v-3.43l8.953 12.004-1.286 1.715 3.858 5.144-2.572 3.43 2.572 3.43 3.86-5.145 9.053 12.208-9.054 11.8-3.86-5.145-2.57 3.43 2.57 3.43-3.857 5.145 1.286 1.715-8.953 12.005z"/><path d="M4.59 246.955l1.286 3.43v5.144h3.858l2.573 1.715-2.573 1.715H5.876v5.144l-1.287 3.43v-20.58z"/></g><g fill="#e69900"><path d="M4.59 366.998v-3.43l6.38-8.575-1.286-1.715 3.86-5.145-1.287-1.715-2.573 3.43-1.286-1.715L17.4 336.13l1.288 1.713-1.287 1.716 2.653 3.464 6.352-8.61-6.46-8.344-2.544 3.2 1.288 1.714-1.287 1.714L8.4 320.694l1.286-1.715 2.573 3.43 1.286-1.716-3.86-5.145 1.288-1.716-6.38-8.574v-3.43l8.953 12.004-1.286 1.715 3.858 5.144-2.572 3.43 2.572 3.43 3.86-5.145 9.053 12.208-9.054 11.8-3.86-5.145-2.57 3.43 2.57 3.43-3.857 5.145 1.286 1.715-8.953 12.005z"/><path d="M4.59 324.125l1.286 3.43v5.144h3.858l2.573 1.715-2.573 1.715H5.876v5.144l-1.287 3.43v-20.58z"/></g><g fill="#e69900"><path d="M158.933 125.19v-3.43l-6.38-8.574 1.286-1.715-3.86-5.144 1.286-1.715 2.573 3.43 1.285-1.714-9.003-12.004-1.287 1.714 1.287 1.716-2.652 3.465-6.352-8.61 6.46-8.344 2.544 3.2-1.287 1.714 1.287 1.714 9.003-12.003-1.286-1.715-2.574 3.43-1.286-1.715 3.86-5.145-1.288-1.715 6.38-8.574v-3.43l-8.952 12.004 1.286 1.715-3.858 5.145 2.572 3.43-2.572 3.43-3.86-5.145-9.053 12.21 9.054 11.8 3.858-5.146 2.572 3.43-2.572 3.43 3.858 5.145-1.286 1.716 8.953 12.005z"/><path d="M158.934 82.318l-1.287 3.43v5.144h-3.858l-2.574 1.716 2.573 1.715h3.857v5.144l1.287 3.43v-20.58z"/></g><g fill="#e69900"><path d="M159.36 207.51v-3.43l-6.382-8.575 1.287-1.715-3.86-5.145 1.287-1.715 2.573 3.43 1.286-1.715-9.002-12.004-1.287 1.715 1.288 1.716-2.652 3.466-6.352-8.61 6.46-8.344 2.544 3.2-1.287 1.714 1.288 1.714 9.003-12.004-1.285-1.715-2.573 3.43-1.286-1.714 3.86-5.145-1.288-1.714 6.38-8.574v-3.43l-8.952 12.004 1.286 1.715-3.858 5.146 2.572 3.43-2.572 3.43-3.86-5.145-9.053 12.21 9.055 11.8 3.86-5.145 2.57 3.43-2.57 3.43 3.857 5.145-1.286 1.715 8.953 12.005z"/><path d="M159.36 164.637l-1.287 3.43v5.144h-3.858l-2.573 1.717 2.573 1.715h3.858v5.144l1.287 3.43v-20.58z"/></g><g fill="#e69900"><path d="M158.933 289.828v-3.43l-6.38-8.575 1.286-1.715-3.86-5.145 1.286-1.715 2.573 3.43 1.285-1.715-9.003-12.004-1.287 1.713 1.287 1.716-2.652 3.464-6.352-8.61 6.46-8.344 2.544 3.2-1.287 1.714 1.287 1.714 9.003-12.004-1.286-1.715-2.574 3.43-1.286-1.716 3.86-5.145-1.288-1.716 6.38-8.574v-3.43l-8.952 12.004 1.286 1.715-3.858 5.144 2.572 3.43-2.572 3.43-3.86-5.145-9.053 12.208 9.054 11.8 3.858-5.145 2.572 3.43-2.572 3.43 3.858 5.145-1.286 1.715 8.953 12.005z"/><path d="M158.934 246.955l-1.287 3.43v5.144h-3.858l-2.574 1.715 2.573 1.715h3.857v5.144l1.287 3.43v-20.58z"/></g><g fill="#e69900"><path d="M158.933 366.998v-3.43l-6.38-8.575 1.286-1.715-3.86-5.145 1.286-1.715 2.573 3.43 1.285-1.715-9.003-12.004-1.287 1.713 1.287 1.716-2.652 3.464-6.352-8.61 6.46-8.344 2.544 3.2-1.287 1.714 1.287 1.714 9.003-12.004-1.286-1.715-2.574 3.43-1.286-1.716 3.86-5.145-1.288-1.716 6.38-8.574v-3.43l-8.952 12.004 1.286 1.715-3.858 5.144 2.572 3.43-2.572 3.43-3.86-5.145-9.053 12.208 9.054 11.8 3.858-5.145 2.572 3.43-2.572 3.43 3.858 5.145-1.286 1.715 8.953 12.005z"/><path d="M158.934 324.125l-1.287 3.43v5.144h-3.858l-2.574 1.715 2.573 1.715h3.857v5.144l1.287 3.43v-20.58z"/></g><g fill="#e69900"><path d="M4.593 32.583v-3.43l6.38-8.575-1.286-1.715 3.86-5.145-1.287-1.715-2.573 3.43L8.4 13.718l9.004-12.004 1.287 1.714-1.286 1.716 2.652 3.465L26.408 0l2.623-.002-9.053 12.005-3.86-5.145-2.57 3.43 2.57 3.43-3.857 5.145 1.286 1.715-8.953 12.005z"/><path d="M4.592 0h7.718L9.737 1.715H5.88V6.86L4.59 10.29V0z"/></g><g fill="#e69900"><path d="M158.93 32.583v-3.43l-6.38-8.575 1.286-1.715-3.86-5.145 1.287-1.715 2.573 3.43 1.286-1.715-9.003-12.004-1.288 1.714 1.287 1.716-2.653 3.465L137.115 0l-2.623-.002 9.054 12.005 3.86-5.145 2.57 3.43-2.57 3.43 3.857 5.145-1.286 1.715 8.953 12.005z"/><path d="M158.93 0h-7.717l2.573 1.715h3.858V6.86l1.287 3.43V0z"/></g><path d="M68.898 473.513s5.535-9.728 19.484-12.675c13.95-2.948 16.385 6.485 24.355 6.485 7.97 0 20.592-6.485 20.592-6.485s-12.622 12.38-22.364 12.085c-9.742-.294-13.063-6.484-23.027-5.6-9.965.884-19.042 6.485-19.042 6.19z" fill="#e69900"/><path d="M95.86 473.513s-5.534-9.728-19.483-12.675c-13.95-2.948-16.385 6.485-24.355 6.485-7.97 0-20.592-6.485-20.592-6.485s12.62 12.38 22.363 12.085c9.742-.294 13.063-6.484 23.027-5.6 9.964.884 19.04 6.485 19.04 6.19z" fill="#e69900"/><g fill="#e69900"><path d="M50.133 457.226c-1.228-2.57-4.298-13.793-2.66-15.196 2.455-.935 9.003 10.52 8.39 20.808-4.298 2.337-18.826-.936-18.622-3.975 1.024-4.208 9.21-2.806 12.893-1.637z"/><path d="M41.306 447.705c-.802-2.857-2.066-14.694-.247-15.615 2.547-.237 7.177 12.79 4.982 22.694-4.566 1.1-18.273-6.12-17.602-9.04 1.653-3.838 9.444-.2 12.866 1.96z"/><path d="M34.518 436.358c-.547-2.96-.763-14.9 1.126-15.53 2.553.165 6.01 13.814 2.96 23.294-4.636.377-17.625-8.936-16.702-11.727 1.98-3.548 9.405 1.28 12.616 3.963z"/><path d="M28.602 425.013c-.193-3.04.992-14.893 2.93-15.122 2.5.695 4.313 14.91.192 23.65-4.618-.592-16.345-12.5-15.107-15.067 2.37-3.097 9.13 3.22 11.985 6.54z"/><path d="M24.542 412.66c.138-3.046 2.595-14.546 4.54-14.404 2.4 1.162 2.657 15.572-2.37 23.434-4.51-1.464-14.836-15.477-13.332-17.782 2.682-2.613 8.694 4.924 11.162 8.752z"/><path d="M25.725 398.428c-.345 12.187-2.56 12.326-6.593 3.312-1.786-3.406-1.992-17.54-.38-18.065 2.33-.045 6.914 10.04 6.973 14.753z"/></g><g fill="#e69900"><path d="M113.932 458.51c1.228-2.57 4.298-13.793 2.66-15.196-2.455-.935-9.003 10.52-8.39 20.808 4.298 2.337 18.826-.936 18.622-3.975-1.023-4.208-9.208-2.806-12.892-1.637z"/><path d="M122.76 448.99c.8-2.858 2.065-14.695.246-15.616-2.548-.237-7.178 12.79-4.983 22.694 4.566 1.1 18.273-6.12 17.602-9.04-1.653-3.838-9.444-.2-12.866 1.96z"/><path d="M129.547 437.642c.547-2.96.763-14.9-1.126-15.53-2.552.165-6.01 13.814-2.96 23.294 4.637.377 17.626-8.936 16.703-11.727-1.98-3.55-9.405 1.28-12.616 3.962z"/><path d="M135.463 426.297c.193-3.04-.992-14.893-2.93-15.122-2.5.694-4.313 14.91-.192 23.648 4.62-.59 16.346-12.498 15.108-15.066-2.37-3.097-9.13 3.22-11.985 6.54z"/><path d="M139.523 413.944c-.138-3.046-2.595-14.546-4.54-14.404-2.4 1.162-2.657 15.572 2.37 23.434 4.51-1.464 14.836-15.477 13.332-17.782-2.682-2.613-8.694 4.924-11.162 8.752z"/><path d="M138.34 399.712c.345 12.187 2.56 12.326 6.593 3.312 1.786-3.406 1.992-17.54.38-18.065-2.33-.046-6.914 10.04-6.973 14.752z"/></g><g transform="matrix(.938 0 0 1.187 136.583 -72.251)"><path d="M-3.543 290.55h-5.315v3.543h-5.315v3.543h-21.26l-3.543 3.544 1.77 1.77h8.86l1.77-1.77h-8.857l1.772-1.772h12.4l-5.314 5.315h-12.402l-3.544-1.772-3.543 1.772h-12.402l-5.315-5.316 12.402.002 1.77 1.772-8.857-.002 1.772 1.773h8.858l1.772-1.77-3.544-3.544h-19.488v-3.543h-5.315v-3.543h-5.315v-15.945h5.315v-3.543h5.315v-3.543h19.488l3.544-3.545-1.772-1.77h-8.858l-1.772 1.772 8.858-.002-1.77 1.772-12.403.002 5.315-5.318h12.402l3.543 1.772 3.544-1.772h12.402l5.315 5.315h-12.4l-1.773-1.772h8.858l-1.772-1.77h-8.858l-1.77 1.77 3.542 3.544h21.26v3.542h5.315v3.543h5.315v15.945z" transform="matrix(1.488 0 0 1.24 3.502 -39.474)" stroke="#000" stroke-width=".133" fill="#980000"/><path d="M375.59 499.67v24.803h10.63v7.02h10.63v7.086h35.432l14.174 10.63 14.173-10.63h38.975v-7.02l10.63-.068v-7.087h10.63v-24.803h-10.63v-7.086l-10.63.068v-7.155H460.63l-14.174-10.63-14.174 10.63H396.85v7.154h-10.63v7.086h-10.63z" transform="matrix(.744 0 0 .62 -392.03 -6.521)" stroke="#e69900" stroke-width="1.067pt" fill="#004e00"/><path d="M-75.6 296.644l-15.822 10.984v-10.984H-75.6z" fill="#980000"/><path d="M-43.97 296.644l15.822 10.985v-10.986H-43.97z" fill="#980000"/><path d="M-75.6 325.208l-15.822-10.984v10.984H-75.6z" fill="#980000"/><path d="M-43.965 325.208l15.82-10.985v10.985h-15.82z" fill="#980000"/><path d="M-38.69 303.233l-5.272 4.394h10.547l-5.274-4.394z" fill="#980000"/><path d="M-80.877 303.233l-5.273 4.394h10.547l-5.274-4.394z" fill="#980000"/><path d="M-80.877 318.622l-5.273-4.394h10.547l-5.274 4.394z" fill="#980000"/><path d="M-38.687 318.622l-5.273-4.394h10.547l-5.274 4.394z" fill="#980000"/><path d="M-59.787 329.602l-5.273-4.394h10.547l-5.274 4.394z" fill="#e69900"/><path d="M-59.787 307.632l-5.273-4.394h10.547l-5.274 4.394z" fill="#e69900"/><path d="M-59.787 292.25l-5.273 4.393h10.547l-5.274-4.394z" fill="#e69900"/><path d="M-59.787 314.217l-5.273 4.394h10.547l-5.274-4.393z" fill="#e69900"/><path transform="matrix(.744 0 0 .62 -392.03 -6.521)" stroke="#000" stroke-width=".133" fill="#e69900" d="M467.72 506.69h14.173v3.543H467.72z"/><path transform="matrix(.744 0 0 .62 -392.03 -6.521)" stroke="#000" stroke-width=".133" fill="#c00" d="M414.57 510.24h7.087v3.543h-7.087z"/><path transform="matrix(.744 0 0 .62 -392.03 -6.521)" stroke="#000" stroke-width=".133" fill="#c00" d="M471.26 510.24h7.087v3.543h-7.087z"/><path transform="matrix(.744 0 0 .62 -392.03 -6.521)" stroke="#000" stroke-width=".133" fill="#900" d="M439.37 488.98h14.173v3.543H439.37z"/><path transform="matrix(.744 0 0 .62 -392.03 -6.521)" stroke="#000" stroke-width=".133" fill="#900" d="M439.37 496.06h14.173v3.543H439.37z"/><path transform="matrix(.744 0 0 .62 -392.03 -6.521)" stroke="#000" stroke-width=".133" fill="#900" d="M435.83 492.52h21.26v3.543h-21.26z"/><path transform="matrix(.744 0 0 .62 -392.03 -6.521)" stroke="#000" stroke-width=".133" fill="#900" d="M439.37 524.41h14.173v3.543H439.37z"/><path transform="matrix(.744 0 0 .62 -392.03 -6.521)" stroke="#000" stroke-width=".133" fill="#900" d="M439.37 531.5h14.173v3.543H439.37z"/><path transform="matrix(.744 0 0 .62 -392.03 -6.521)" stroke="#000" stroke-width=".133" fill="#900" d="M435.83 527.95h21.26v3.543h-21.26z"/><path transform="matrix(.744 0 0 .62 -392.03 -6.521)" stroke="#000" stroke-width=".133" fill="#e69900" d="M467.72 513.78h14.173v3.543H467.72z"/><path transform="matrix(.744 0 0 .62 -392.03 -6.521)" stroke="#000" stroke-width=".133" fill="#e69900" d="M411.02 506.69h14.173v3.543H411.02z"/><path transform="matrix(.744 0 0 .62 -392.03 -6.521)" stroke="#000" stroke-width=".133" fill="#e69900" d="M411.02 513.78h14.173v3.543H411.02z"/><path transform="matrix(.744 0 0 .62 -392.03 -6.521)" stroke="#000" stroke-width=".133" fill="#e69900" d="M407.48 510.24h7.087v3.543h-7.087z"/><path transform="matrix(.744 0 0 .62 -392.03 -6.521)" stroke="#000" stroke-width=".133" fill="#e69900" d="M421.65 510.24h7.087v3.543h-7.087z"/><path transform="matrix(.744 0 0 .62 -392.03 -6.521)" stroke="#000" stroke-width=".133" fill="#e69900" d="M464.17 510.24h7.087v3.543h-7.087z"/><path transform="matrix(.744 0 0 .62 -392.03 -6.521)" stroke="#000" stroke-width=".133" fill="#e69900" d="M478.35 510.24h7.087v3.543h-7.087z"/><ellipse fill="#fff" transform="matrix(.744 0 0 .62 -374.14 -38.912)" cx="413.68" rx=".886" cy="581.99" ry=".886"/><ellipse fill="#fff" transform="matrix(.744 0 0 .62 -367.57 -38.912)" cx="413.68" rx=".886" cy="581.99" ry=".886"/><ellipse fill="#fff" transform="matrix(.744 0 0 .62 -361 -38.958)" cx="413.68" rx=".886" cy="581.99" ry=".886"/><ellipse fill="#fff" transform="matrix(.744 0 0 .62 -371.51 -41.102)" cx="413.68" rx=".886" cy="581.99" ry=".886"/><ellipse fill="#fff" transform="matrix(.744 0 0 .62 -363.68 -41.148)" cx="413.68" rx=".886" cy="581.99" ry=".886"/><ellipse fill="#fff" transform="matrix(.744 0 0 .62 -371.57 -36.768)" cx="413.68" rx=".886" cy="581.99" ry=".886"/><ellipse fill="#fff" transform="matrix(.744 0 0 .62 -363.68 -36.677)" cx="413.68" rx=".886" cy="581.99" ry=".886"/><ellipse fill="#fff" transform="matrix(.744 0 0 .62 -353.17 -49.999)" cx="413.68" rx=".886" cy="581.99" ry=".886"/><ellipse fill="#fff" transform="matrix(.744 0 0 .62 -346.59 -49.999)" cx="413.68" rx=".886" cy="581.99" ry=".886"/><ellipse fill="#fff" transform="matrix(.744 0 0 .62 -340.02 -50.045)" cx="413.68" rx=".886" cy="581.99" ry=".886"/><ellipse fill="#fff" transform="matrix(.744 0 0 .62 -350.54 -52.189)" cx="413.68" rx=".886" cy="581.99" ry=".886"/><ellipse fill="#fff" transform="matrix(.744 0 0 .62 -342.71 -52.235)" cx="413.68" rx=".886" cy="581.99" ry=".886"/><ellipse fill="#fff" transform="matrix(.744 0 0 .62 -350.59 -47.855)" cx="413.68" rx=".886" cy="581.99" ry=".886"/><ellipse fill="#fff" transform="matrix(.744 0 0 .62 -342.71 -47.764)" cx="413.68" rx=".886" cy="581.99" ry=".886"/><ellipse fill="#fff" transform="matrix(.744 0 0 .62 -374.2 -60.904)" cx="413.68" rx=".886" cy="581.99" ry=".886"/><ellipse fill="#fff" transform="matrix(.744 0 0 .62 -367.62 -60.904)" cx="413.68" rx=".886" cy="581.99" ry=".886"/><ellipse fill="#fff" transform="matrix(.744 0 0 .62 -361.05 -60.949)" cx="413.68" rx=".886" cy="581.99" ry=".886"/><ellipse fill="#fff" transform="matrix(.744 0 0 .62 -371.57 -63.094)" cx="413.68" rx=".886" cy="581.99" ry=".886"/><ellipse fill="#fff" transform="matrix(.744 0 0 .62 -363.74 -63.139)" cx="413.68" rx=".886" cy="581.99" ry=".886"/><ellipse fill="#fff" transform="matrix(.744 0 0 .62 -371.62 -58.759)" cx="413.68" rx=".886" cy="581.99" ry=".886"/><ellipse fill="#fff" transform="matrix(.744 0 0 .62 -363.74 -58.668)" cx="413.68" rx=".886" cy="581.99" ry=".886"/><ellipse fill="#fff" transform="matrix(.744 0 0 .62 -395.28 -49.817)" cx="413.68" rx=".886" cy="581.99" ry=".886"/><ellipse fill="#fff" transform="matrix(.744 0 0 .62 -388.71 -49.817)" cx="413.68" rx=".886" cy="581.99" ry=".886"/><ellipse fill="#fff" transform="matrix(.744 0 0 .62 -382.14 -49.862)" cx="413.68" rx=".886" cy="581.99" ry=".886"/><ellipse fill="#fff" transform="matrix(.744 0 0 .62 -392.65 -52.007)" cx="413.68" rx=".886" cy="581.99" ry=".886"/><ellipse fill="#fff" transform="matrix(.744 0 0 .62 -384.82 -52.052)" cx="413.68" rx=".886" cy="581.99" ry=".886"/><ellipse fill="#fff" transform="matrix(.744 0 0 .62 -392.71 -47.672)" cx="413.68" rx=".886" cy="581.99" ry=".886"/><ellipse fill="#fff" transform="matrix(.744 0 0 .62 -384.82 -47.581)" cx="413.68" rx=".886" cy="581.99" ry=".886"/></g><g><path d="M90.294 239.935l4.252-1.992 4.252 1.992h-8.504z" fill="#fff"/><path d="M77.534 239.935l4.252-1.992 4.252 1.992h-8.504z" fill="#fff"/><path d="M64.775 239.935l4.252-1.992 4.252 1.992h-8.505z" fill="#fff"/><path d="M90.294 193.967l4.252 1.992 4.252-1.993h-8.504z" fill="#fff"/><path d="M77.534 193.967l4.252 1.992 4.252-1.993h-8.504z" fill="#fff"/><path d="M64.775 193.967l4.252 1.992 4.252-1.993h-8.505z" fill="#fff"/><path d="M86.69 245.836l-4.965 3.987-4.965-3.987-4.964 3.987-4.963-3.987v1.992l3.31 1.995-1.656 1.992v1.994h1.655l1.654-1.995 1.655 1.994h1.656v-1.995l-1.655-1.992 3.31-1.994 3.31 1.993-1.655 1.992v1.994h1.655l1.655-1.995 1.654 1.994h1.654v-1.995l-1.655-1.992 3.31-1.994L90 249.82l-1.656 1.993v1.994H90l1.653-1.995 1.655 1.994h1.655v-1.995l-1.655-1.993 3.31-1.994v-1.992l-4.965 3.986-4.964-3.986z" fill="#004e00"/><path d="M86.69 188.058l-4.964-3.987-4.965 3.988-4.963-3.987-4.963 3.988v-1.992l3.31-1.995-1.656-1.99v-1.995h1.655l1.654 1.994 1.655-1.995h1.655v1.994l-1.655 1.99 3.31 1.995 3.31-1.994-1.656-1.99v-1.995h1.655l1.656 1.994 1.654-1.995h1.655v1.994l-1.655 1.99 3.31 1.995 3.31-1.993-1.655-1.993v-1.995H90l1.654 1.994 1.655-1.995h1.654v1.994l-1.655 1.992 3.308 1.994v1.992l-4.964-3.986-4.964 3.986z" fill="#004e00"/><path d="M124.372 221.226l5.316-4.32-5.316-4.322 5.316-4.32-5.316-4.322h2.657l2.658 2.88 2.657-1.44h2.658v1.44l-2.658 1.44 2.658 1.44v1.442h-2.658l-2.657-1.44-2.658 2.88 2.658 2.88 2.657-1.44h2.658v1.44l-2.658 1.44 2.658 1.44v1.442h-2.658l-2.657-1.44-2.658 2.88 2.657 2.88 2.658-1.44h2.658v1.44l-2.658 1.44 2.658 1.442v1.44h-2.658l-2.658-1.44-2.658 2.88h-2.658l5.315-4.32-5.315-4.322z" fill="#004e00"/><path d="M39.156 221.226l-5.316-4.32 5.316-4.322-5.316-4.32 5.316-4.322H36.5l-2.66 2.88-2.656-1.44h-2.658v1.44l2.658 1.44-2.658 1.44v1.442h2.658l2.656-1.44 2.658 2.88-2.658 2.88-2.656-1.44h-2.658v1.44l2.658 1.44-2.658 1.44v1.442h2.658l2.656-1.44 2.658 2.88-2.656 2.88-2.658-1.44h-2.658v1.44l2.658 1.44-2.658 1.442v1.44h2.658l2.658-1.44 2.658 2.88h2.656l-5.314-4.32 5.314-4.322z" fill="#004e00"/><path transform="matrix(1.2 0 0 1.125 158.318 -5.284)" stroke="#000" stroke-width=".267" fill="#004e00" d="M-26.575 214.37h1.772v1.772h-1.772z"/><path transform="matrix(1.2 0 0 1.125 158.318 -5.284)" stroke="#000" stroke-width=".267" fill="#004e00" d="M-28.346 216.14h1.772v1.772h-1.772z"/><path transform="matrix(1.2 0 0 1.125 158.318 -5.284)" stroke="#000" stroke-width=".267" fill="#004e00" d="M-37.205 225h1.772v1.772h-1.772z"/><path transform="matrix(1.2 0 0 1.125 158.318 -5.284)" stroke="#000" stroke-width=".267" fill="#004e00" d="M-35.433 223.23h1.772v1.772h-1.773z"/><path transform="matrix(1.2 0 0 1.125 158.318 -5.284)" stroke="#000" stroke-width=".267" fill="#004e00" d="M-93.898 223.23h1.772v1.772h-1.772z"/><path transform="matrix(1.2 0 0 1.125 158.318 -5.284)" stroke="#000" stroke-width=".267" fill="#004e00" d="M-102.76 214.37h1.772v1.772h-1.772z"/><path transform="matrix(1.2 0 0 1.125 158.318 -5.284)" stroke="#000" stroke-width=".267" fill="#004e00" d="M-100.98 216.14h1.772v1.772h-1.772z"/><path transform="matrix(1.2 0 0 1.125 158.318 -5.284)" stroke="#000" stroke-width=".267" fill="#004e00" d="M-100.98 177.17h1.772v1.772h-1.772z"/><path transform="matrix(1.2 0 0 1.125 158.318 -5.284)" stroke="#000" stroke-width=".267" fill="#004e00" d="M-102.76 178.94h1.772v1.772h-1.772z"/><path transform="matrix(1.2 0 0 1.125 158.318 -5.284)" stroke="#000" stroke-width=".267" fill="#004e00" d="M-92.126 168.31h1.772v1.772h-1.772z"/><path transform="matrix(1.2 0 0 1.125 158.318 -5.284)" stroke="#000" stroke-width=".267" fill="#004e00" d="M-93.898 170.08h1.772v1.772h-1.772z"/><path transform="matrix(1.2 0 0 1.125 158.318 -5.284)" stroke="#000" stroke-width=".267" fill="#004e00" d="M-37.205 168.31h1.772v1.772h-1.772z"/><path transform="matrix(1.2 0 0 1.125 158.318 -5.284)" stroke="#000" stroke-width=".267" fill="#004e00" d="M-35.433 170.08h1.772v1.772h-1.773z"/><path transform="matrix(1.2 0 0 1.125 158.318 -5.284)" stroke="#000" stroke-width=".267" fill="#004e00" d="M-28.346 177.17h1.772v1.772h-1.772z"/><path transform="matrix(1.2 0 0 1.125 158.318 -5.284)" stroke="#000" stroke-width=".267" fill="#004e00" d="M-26.575 178.94h1.772v1.772h-1.772z"/><path transform="matrix(1.2 0 0 1.125 158.318 -5.284)" stroke="#000" stroke-width=".267" fill="#004e00" d="M-92.126 225h1.772v1.772h-1.772z"/><path d="M75.196 216.97H68.93v-3.918l4.177.002v-3.674h4.178v-3.374h4.177v4.217c-3.46 0-6.266 2.857-6.266 6.747z" fill="#fff"/><path d="M87.887 216.97h6.265v-3.918l-4.176.002v-3.674h-4.178v-3.374H81.62v4.217c3.46 0 6.267 2.857 6.267 6.747z" fill="#e69900"/><path d="M87.887 216.92l6.265.002v3.917l-4.176-.003v3.674h-4.178v3.375H81.62v-4.217c3.46 0 6.267-2.857 6.267-6.747z" fill="#fff"/><path d="M75.196 216.92l-6.265.002v3.917l4.177-.003v3.674h4.178v3.375h4.177v-4.217c-3.46 0-6.266-2.857-6.266-6.747z" fill="#e69900"/><path d="M87.73 216.96h-6.267v-6.748c3.46 0 6.266 3.023 6.266 6.747z" fill="#004e00"/><path d="M87.73 216.932h-6.267v6.747c3.46 0 6.266-3.024 6.266-6.748z" fill="#980000"/><path d="M75.354 216.932h6.266v6.747c-3.46 0-6.266-3.024-6.266-6.748z" fill="#004e00"/><path d="M75.354 216.96h6.266v-6.748c-3.46 0-6.266 3.023-6.266 6.747z" fill="#980000"/><path d="M88.167 241.858l-6.377-3.987-6.378 3.988-6.378-3.987-6.378 3.988v-1.992l4.252-1.995-2.127-1.99v-1.995h2.128l2.126 1.994 2.125-1.995h2.126v1.994l-2.127 1.99 4.252 1.994 4.252-1.993-2.126-1.99v-1.995h2.126l2.126 1.994 2.125-1.995h2.127v1.994l-2.127 1.99 4.252 1.994 4.253-1.992-2.126-1.993v-1.995h2.126l2.126 1.994 2.125-1.995H98.8v1.994l-2.127 1.992 4.253 1.994v1.992l-6.377-3.986-6.38 3.986z" fill="#004e00"/><path d="M88.167 192.038l-6.377 3.987-6.378-3.987-6.378 3.987-6.378-3.987v1.992l4.252 1.995-2.127 1.992v1.994h2.128l2.126-1.993 2.125 1.994h2.126v-1.993l-2.127-1.992 4.252-1.994 4.252 1.995-2.126 1.992v1.994h2.126l2.126-1.993 2.125 1.994h2.127v-1.993l-2.127-1.992 4.252-1.994 4.253 1.994-2.126 1.993v1.994h2.126l2.126-1.993 2.125 1.994H98.8v-1.993l-2.127-1.993 4.253-1.994v-1.992l-6.377 3.986-6.38-3.986z" fill="#004e00"/><path d="M111.47 221.888l-3.19-4.986 3.19-4.985-3.19-4.986 3.19-4.984h-1.594l-1.596 3.324-1.593-1.662h-1.595v1.662l1.595 1.66-1.595 1.663v1.662h1.595l1.593-1.662 1.595 3.324-1.595 3.324-1.593-1.66h-1.595v1.66l1.595 1.662-1.595 1.662v1.662h1.595l1.593-1.662 1.595 3.324-1.594 3.324-1.593-1.662h-1.595v1.662l1.595 1.66-1.595 1.663v1.662h1.595l1.594-1.662 1.596 3.323h1.594l-3.19-4.985 3.19-4.985z" fill="#004e00"/><path d="M-100.98 177.17l-7.087 7.086v26.575l7.087 7.088h31.89l7.086-7.087v-26.574l-7.087-7.086h-31.89zm-1.772-5.316l-17.717 17.716v15.945l17.718 17.717h35.433l17.717-17.717V189.57l-17.716-17.716h-35.432z" transform="matrix(1.2 0 0 1.125 183.837 -5.282)" stroke="#000" stroke-width=".427" fill="#004e00"/><path d="M-93.898 147.05l3.543 5.315 3.544-5.315H-93.9z" transform="matrix(.96 0 0 .75 161.72 131.581)" stroke="#000" stroke-width=".267" fill="#e69900"/><path d="M-93.898 147.05l3.543 5.315 3.544-5.315H-93.9z" transform="matrix(.96 0 0 -.75 161.72 302.322)" stroke="#000" stroke-width=".267" fill="#e69900"/><path d="M-93.898 147.05l3.543 5.315 3.544-5.315H-93.9z" transform="matrix(.96 0 0 -.75 175.33 302.322)" stroke="#000" stroke-width=".267" fill="#e69900"/><path d="M-93.898 147.05l3.543 5.315 3.544-5.315H-93.9z" transform="matrix(.96 0 0 .75 175.33 131.581)" stroke="#000" stroke-width=".267" fill="#e69900"/><path d="M-93.898 147.05l3.543 5.315 3.544-5.315H-93.9z" transform="matrix(.96 0 0 -.75 154.915 302.322)" stroke="#000" stroke-width=".267" fill="#980000"/><path d="M-93.898 147.05l3.543 5.315 3.544-5.315H-93.9z" transform="matrix(.96 0 0 -.75 168.525 302.322)" stroke="#000" stroke-width=".267" fill="#980000"/><path d="M-93.898 147.05l3.543 5.315 3.544-5.315H-93.9z" transform="matrix(.96 0 0 -.75 182.135 302.322)" stroke="#000" stroke-width=".267" fill="#980000"/><path d="M-104.53 180.71l3.544-3.544h-3.544v3.544z" transform="matrix(1.8 0 0 -1.688 244.427 540.811)" stroke="#000" stroke-width=".267" fill="#980000"/><path d="M52.05 221.888l3.19-4.986-3.19-4.985 3.19-4.986-3.19-4.984h1.593l1.596 3.324 1.592-1.662h1.595v1.662l-1.595 1.66 1.595 1.663v1.662h-1.595l-1.593-1.662-1.596 3.324 1.595 3.324 1.592-1.66h1.595v1.66l-1.595 1.662 1.595 1.662v1.662h-1.595l-1.593-1.662-1.596 3.324 1.594 3.324 1.594-1.662h1.595v1.662l-1.595 1.66 1.595 1.663v1.662h-1.595l-1.594-1.662-1.595 3.323H52.05l3.188-4.985-3.19-4.985z" fill="#004e00"/><path d="M-76.18 154.13h7.086l1.77 1.772-1.77 1.77h-7.087v-3.542z" transform="matrix(1.2 0 0 1.012 205.102 55.504)" stroke="#000" stroke-width=".267" fill="#980000"/><path d="M-99.213 180.71l-3.543 3.544v26.575l3.543 3.542h-5.316l.002-33.662h5.315z" transform="matrix(1.2 0 0 1.125 175.33 -5.282)" stroke="#000" stroke-width=".4" fill="#980000"/><path d="M-93.898 147.05l3.543 5.315 3.544-5.315H-93.9z" transform="matrix(.96 0 0 .75 154.915 131.581)" stroke="#000" stroke-width=".267" fill="#980000"/><path d="M-93.898 147.05l3.543 5.315 3.544-5.315H-93.9z" transform="matrix(.96 0 0 .75 168.525 131.581)" stroke="#000" stroke-width=".267" fill="#980000"/><path d="M-93.898 147.05l3.543 5.315 3.544-5.315H-93.9z" transform="matrix(.96 0 0 .75 182.135 131.581)" stroke="#000" stroke-width=".267" fill="#980000"/><path d="M-99.212 180.71l-3.544 3.544v26.575l3.544 3.542h-5.315V180.71h5.315z" transform="matrix(-1.2 0 0 1.125 -11.803 -5.282)" stroke="#000" stroke-width=".4" fill="#980000"/><path d="M-104.53 180.71l3.544-3.544h-3.544v3.544z" transform="matrix(-1.8 0 0 -1.688 -80.908 540.811)" stroke="#000" stroke-width=".267" fill="#980000"/><path d="M-104.53 180.71l3.544-3.544h-3.544v3.544z" transform="matrix(-1.8 0 0 1.688 -80.908 -106.913)" stroke="#000" stroke-width=".267" fill="#980000"/><path d="M-104.53 180.71l3.544-3.544h-3.544v3.544z" transform="matrix(1.8 0 0 1.688 244.427 -106.913)" stroke="#000" stroke-width=".267" fill="#980000"/><path d="M-100.98 177.17l-7.087 7.086v26.575l7.087 7.088h31.89l7.086-7.087v-26.574l-7.087-7.086h-31.89zm0-1.773l-8.86 8.858v26.575l8.86 8.858h31.89l8.857-8.858v-26.575l-8.86-8.858h-31.888z" transform="matrix(1.2 0 0 1.125 183.837 -5.282)" stroke="#000" stroke-width=".427" fill="#004e00"/><path d="M-76.18 154.13h7.086l1.77 1.772-1.77 1.77h-7.087v-3.542z" transform="matrix(1.2 0 0 1.012 205.101 59.079)" stroke="#000" stroke-width=".267" fill="#e69900"/><path d="M-76.18 154.13h7.086l1.77 1.772-1.77 1.77h-7.087v-3.542z" transform="matrix(1.2 0 0 1.012 205.102 62.679)" stroke="#000" stroke-width=".267" fill="#980000"/><path d="M-76.18 154.13h7.086l1.77 1.772-1.77 1.77h-7.087v-3.542z" transform="matrix(1.2 0 0 1.012 205.102 66.254)" stroke="#000" stroke-width=".267" fill="#e69900"/><path d="M-76.18 154.13h7.086l1.77 1.772-1.77 1.77h-7.087v-3.542z" transform="matrix(1.2 0 0 1.012 205.102 51.903)" stroke="#000" stroke-width=".267" fill="#e69900"/><path d="M-76.18 154.13h7.086l1.77 1.772-1.77 1.77h-7.087v-3.542z" transform="matrix(-1.2 0 0 1.012 -41.578 55.504)" stroke="#000" stroke-width=".267" fill="#980000"/><path d="M-76.18 154.13h7.086l1.77 1.772-1.77 1.77h-7.087v-3.542z" transform="matrix(-1.2 0 0 1.012 -41.578 59.08)" stroke="#000" stroke-width=".267" fill="#e69900"/><path d="M-76.18 154.13h7.086l1.77 1.772-1.77 1.77h-7.087v-3.542z" transform="matrix(-1.2 0 0 1.012 -41.578 62.679)" stroke="#000" stroke-width=".267" fill="#980000"/><path d="M-76.18 154.13h7.086l1.77 1.772-1.77 1.77h-7.087v-3.542z" transform="matrix(-1.2 0 0 1.012 -41.578 66.255)" stroke="#000" stroke-width=".267" fill="#e69900"/><path d="M-76.18 154.13h7.086l1.77 1.772-1.77 1.77h-7.087v-3.542z" transform="matrix(-1.2 0 0 1.012 -41.578 51.905)" stroke="#000" stroke-width=".267" fill="#e69900"/><path d="M-100.98 178.94v37.205h8.858v8.858h56.693v-8.858h8.86V178.94h-8.86v-8.858H-92.12v8.858h-8.858zm1.77 1.772v33.66h8.86v8.86h53.15v-8.86h8.858v-33.66H-37.2v-8.86h-53.15v8.86h-8.86z" transform="matrix(1.2 0 0 1.125 158.318 -5.284)" stroke="#000" stroke-width=".267" fill="#970000"/></g><g><path d="M-28.347 69.094l-5.315-7.087v-5.315l-5.315-5.314h-10.63l-8.858-5.315H-86.81l-8.86 5.315h-10.63l-5.315 5.315v5.315l-5.315 7.086v14.173l5.315 7.087v5.315l5.315 5.314h10.63l8.86 5.315h28.345l8.858-5.316h10.63l5.315-5.315v-5.316l5.315-7.087V69.093z" transform="matrix(1.2 0 0 1.082 168.948 -34.403)" stroke="#000" stroke-width=".267" fill="#980000"/><path d="M30.83 48.028v5.75l6.378 7.667v5.75l6.378 5.752h12.756l10.63 5.75h14.883v-30.67H30.83z" fill="#e69900"/><path d="M63.972 61.466l-7.768 4.93h-4.64l1.547 1.643-3.092 3.286 1.546 1.644 4.64-1.644 1.547 1.644.716-4.392 8.565-5.197-3.058-1.914z" fill="#980000"/><path d="M55.473 57.633l-7.768 4.93h-4.64l1.547 1.643-3.093 3.287 1.545 1.644 4.64-1.644 1.547 1.644.715-4.392 8.565-5.197-3.06-1.915z" fill="#980000"/><path d="M51.218 49.97L43.45 54.9h-4.64l1.547 1.642-3.093 3.287 1.546 1.643 4.64-1.644 1.547 1.643.715-4.392 8.565-5.196-3.06-1.915z" fill="#980000"/><path d="M132.753 48.027v-5.75l-6.378-7.667v-5.75l-6.378-5.752H107.24l-10.63-5.75H81.728v30.67h51.025z" fill="#e69900"/><path d="M81.805 78.697h-3.937L73.3 74.863h-7.243l-3.937-1.917 1.968-1.917 3.937 1.916h3.937l3.937-5.75 5.905 1.916v3.834H75.9l5.905 5.75z" fill="#980000"/><path d="M30.83 48.027v-5.75l6.378-7.667v-5.75l6.378-5.752h12.756l10.63-5.75h14.883v30.67H30.83z" fill="#fff"/><path d="M81.805 17.353h-3.937L73.3 21.187h-7.243l-3.937 1.917 1.968 1.917 3.937-1.916h3.937l3.937 5.75 5.905-1.916v-3.834H75.9l5.905-5.75z" fill="#980000"/><path d="M81.783 17.353h3.937l4.567 3.834h7.244l3.938 1.917L99.5 25.02l-3.937-1.916h-3.937l-3.937 5.75-5.907-1.916v-3.834h5.906l-5.907-5.75z" fill="#980000"/><path d="M132.753 48.028v5.75l-6.378 7.667v5.75l-6.378 5.752H107.24l-10.63 5.75H81.728v-30.67h51.025z" fill="#fff"/><path d="M81.783 78.697h3.937l4.567-3.834h7.244l3.938-1.917L99.5 71.03l-3.937 1.916h-3.937l-3.937-5.75-5.907 1.916v3.834h5.906l-5.907 5.75z" fill="#980000"/><path d="M55.473 38.414l-7.768-4.93h-4.64l1.547-1.643-3.093-3.286 1.545-1.644 4.64 1.644 1.547-1.644.715 4.392 8.565 5.197-3.06 1.914z" fill="#980000"/><path d="M99.61 34.584l7.77-4.93h4.64l-1.548-1.643 3.093-3.286-1.546-1.644-4.64 1.644-1.548-1.644-.715 4.392-8.565 5.197 3.06 1.914z" fill="#980000"/><path d="M63.972 34.584l-7.768-4.93h-4.64l1.547-1.643-3.092-3.286 1.546-1.644 4.64 1.644 1.547-1.644.716 4.392 8.565 5.197-3.058 1.914z" fill="#980000"/><path d="M51.218 46.085l-7.768-4.93h-4.64l1.547-1.643-3.093-3.287 1.546-1.644 4.64 1.645 1.547-1.644.715 4.393 8.565 5.197-3.06 1.915z" fill="#980000"/><path d="M34.717 47.972h1.97l1.97 1.916 1.968-1.916h41.35v26.832h-1.97l1.97 1.917v1.917l-5.907-5.75V70.97h1.97v1.917h1.968V70.97l-15.988-8.464H50.55V54.2l-5.987-4.312h-3.938l-1.97 1.916 1.97 1.918h-1.97l-3.938-5.75z" fill="#fff"/><path d="M34.717 48.082h1.97l1.97-1.916 1.968 1.916h41.35V21.25h-1.97l1.97-1.917v-1.916l-5.907 5.75v1.916h1.97v-1.916h1.968v1.916l-15.988 8.465H50.55v8.306l-5.987 4.312h-3.938l-1.97-1.916 1.97-1.918h-1.97l-3.938 5.75z" fill="#e69900"/><path d="M43.578 48.017h38.268V71.02l-17.008-9.584H52.082v-7.668l-8.504-5.75z" fill="#004e00"/><path d="M108.11 38.414l7.768-4.93h4.64l-1.547-1.643 3.094-3.286-1.546-1.644-4.64 1.644-1.547-1.644-.714 4.392-8.565 5.197 3.06 1.914z" fill="#980000"/><path d="M112.365 46.085l7.768-4.93h4.64l-1.547-1.643 3.093-3.287-1.547-1.644-4.64 1.645-1.547-1.644-.715 4.393-8.564 5.197 3.06 1.915z" fill="#980000"/><path d="M128.866 48.082h-1.97l-1.97-1.916-1.968 1.916h-41.35V21.25h1.97l-1.97-1.917v-1.916l5.907 5.75v1.916h-1.97v-1.916h-1.968v1.916l15.988 8.465h13.468v8.306l5.987 4.312h3.938l1.97-1.916-1.97-1.918h1.97l3.938 5.75z" fill="#fff"/><path d="M120.005 48.038H81.737V25.035l17.008 9.584H111.5v7.667l8.505 5.75z" fill="#004e00"/><path d="M99.61 61.466l7.77 4.93h4.64l-1.548 1.643 3.093 3.286-1.546 1.644-4.64-1.644-1.548 1.644-.715-4.392-8.565-5.197 3.06-1.914z" fill="#980000"/><path d="M108.11 57.633l7.768 4.93h4.64l-1.547 1.643 3.094 3.287-1.546 1.644-4.64-1.644-1.547 1.644-.714-4.392-8.565-5.197 3.06-1.915z" fill="#980000"/><path d="M112.365 49.97l7.768 4.93h4.64l-1.547 1.642 3.093 3.287-1.547 1.643-4.64-1.644-1.547 1.643-.715-4.392-8.564-5.196 3.06-1.915z" fill="#980000"/><path d="M128.866 47.972h-1.97l-1.97 1.916-1.968-1.916h-41.35v26.832h1.97l-1.97 1.917v1.917l5.907-5.75V70.97h-1.97v1.917h-1.968V70.97l15.988-8.464h13.468V54.2l5.987-4.312h3.938l1.97 1.916-1.97 1.918h1.97l3.938-5.75z" fill="#e69900"/><path d="M120.005 48.017H81.737V71.02l17.008-9.584H111.5v-7.668l8.505-5.75z" fill="#980000"/><path d="M43.578 48.038h38.268V25.035L64.838 34.62H52.082v7.667l-8.504 5.75z" fill="#980000"/><path d="M85.877 48.046l10.68-5.75h6.38l-2.128-1.917 4.252-3.835-2.126-1.916-6.38 1.915-2.126-1.916-.982 5.12-11.776 6.063 4.205 2.233z" fill="#980000"/><path d="M77.706 47.997l-10.68 5.75h-6.38l2.128 1.917-4.253 3.834 2.127 1.916 6.38-1.916 2.126 1.916.982-5.12L81.91 50.23l-4.204-2.233z" fill="#980000"/><path d="M77.706 48.046l-10.68-5.75h-6.38l2.128-1.917-4.253-3.835 2.127-1.916 6.38 1.915 2.126-1.916.982 5.12 11.776 6.063-4.204 2.233z" fill="#004e00"/><path d="M85.877 47.997l10.68 5.75h6.38l-2.128 1.917 4.252 3.834-2.126 1.916-6.38-1.916-2.126 1.916-.982-5.12-11.776-6.064 4.205-2.233z" fill="#004e00"/><path d="M69.083 47.948l12.756-9.583 12.756 9.583L81.84 57.53 69.082 47.95z" fill="#fff"/><path d="M40.467 51.858l1.97 1.917-1.97 1.917H38.5l-5.907-7.668h1.97l3.936 5.75h1.967L38.5 51.86l1.967-1.917h3.937v1.918h-3.937z" fill="#980000"/><path d="M40.467 44.19l1.97-1.916-1.97-1.917H38.5l-5.907 7.668h1.97l3.936-5.75h1.967L38.5 44.19l1.967 1.918h3.937V44.19h-3.937z" fill="#980000"/><path d="M123.12 51.858l-1.97 1.917 1.97 1.917h1.968l5.906-7.668h-1.97l-3.936 5.75h-1.968l1.968-1.916-1.968-1.917h-3.937v1.918h3.937z" fill="#980000"/><path d="M123.12 44.19l-1.97-1.916 1.97-1.917h1.968l5.906 7.668h-1.97l-3.936-5.75h-1.968l1.968 1.916-1.968 1.918h-3.937V44.19h3.937z" fill="#980000"/><path fill="#980000" d="M79.824 40.357h3.936v15.335h-3.936z"/><path fill="#980000" d="M73.92 44.19h15.745v7.67H73.92z"/></g><g><path d="M333.07 170.08l-10.63 5.315v8.858l10.63 5.315h10.63l10.63-5.315v-8.858l-10.63-5.315h-10.63z" transform="matrix(3.334 0 0 3.608 -1046.507 -274.084)" stroke="#000" stroke-width=".07" fill="#004e00"/><path d="M41.725 371.762h2.143v-3.933h4.29v3.932H50.3v-9.176h-2.143v3.933h-4.29v-3.934h-2.142v9.176z" fill="#c00"/><path d="M96.03 402.332h2.143V398.4h4.29v3.932h2.142v-9.176h-2.143v3.933h-4.29v-3.934H96.03v9.176z" fill="#c00"/><path d="M61.734 356.477h2.143v-3.933h4.29v3.933h2.142V347.3h-2.144v3.934h-4.29V347.3h-2.142v9.177z" fill="#c00"/><path d="M93.174 356.477h2.143v-3.933h4.29v3.933h2.142V347.3h-2.144v3.934h-4.29V347.3h-2.142v9.177z" fill="#c00"/><path d="M113.173 371.762h2.143v-3.933h4.29v3.932h2.142v-9.176h-2.143v3.933h-4.29v-3.934h-2.142v9.176z" fill="#c00"/><path d="M113.173 387.047h2.143v-3.933h4.29v3.933h2.142v-9.176h-2.143v3.934h-4.29v-3.933h-2.142v9.177z" fill="#c00"/><path d="M81.763 408.27v-33.636h51.45v15.29l-34.3 18.347h-17.15z" fill="#e69900"/><path d="M81.765 341.164V374.8h-51.45v-15.29l34.3-18.346h17.15z" fill="#e69900"/><path d="M81.763 341.164V374.8h51.45v-15.29l-34.3-18.346h-17.15z" fill="#fff"/><path d="M81.765 408.27v-33.635h-51.45v15.29l34.3 18.346h17.15z" fill="#fff"/><path d="M-177.16 368.5h21.26l-21.26-10.63v10.63zm24.803-1.772v17.717h-33.662v-14.173h-7.085l-8.858-5.315v-12.402l5.314-5.315h-7.085v17.717h-1.772v-19.49h17.717l35.433 21.26z" transform="matrix(.968 0 0 .862 280.697 43.024)" stroke="#000" stroke-width=".133" fill="#e69900"/><path d="M64.706 363.974v21.396h5.144l12.007 6.115 12.008-6.115h5.144v-21.396h-5.145l-12.008-6.115-12.007 6.114h-5.144z" fill="#980000"/><path d="M-177.16 368.5h21.26l-21.26-10.63v10.63zm24.803-1.772v17.717h-33.662v-14.173h-7.085l-8.858-5.315v-12.402l5.314-5.315h-7.085v17.717h-1.772v-19.49h17.717l35.433 21.26z" transform="matrix(-.968 0 0 -.862 -117.169 706.412)" stroke="#000" stroke-width=".133" fill="#e69900"/><path d="M-177.16 368.5h21.26l-21.26-10.63v10.63zm24.803-1.772v17.717h-33.662v-14.173h-7.085l-8.858-5.315v-12.402l5.314-5.315h-7.085v17.717h-1.772v-19.49h17.717l35.433 21.26z" transform="matrix(-.968 0 0 .862 -117.169 43.024)" stroke="#000" stroke-width=".133" fill="#fff"/><path d="M-177.16 368.5h21.26l-21.26-10.63v10.63zm24.803-1.772v17.717h-33.662v-14.173h-7.085l-8.858-5.315v-12.402l5.314-5.315h-7.085v17.717h-1.772v-19.49h17.717l35.433 21.26z" transform="matrix(.968 0 0 -.862 280.698 706.412)" stroke="#000" stroke-width=".133" fill="#fff"/><path d="M40.583 386.994h2.143v-4.587h4.29v4.587h2.142v-10.702h-2.143v4.587h-4.29v-4.588h-2.142v10.702z" fill="#980000"/><path d="M61.153 402.28h2.143v-4.588h4.29v4.587h2.142v-10.703h-2.143v4.587h-4.29v-4.587h-2.142v10.702z" fill="#980000"/><path d="M40.583 362.45h2.143v4.587h4.29v-4.587h2.142v10.702h-2.143v-4.587h-4.29v4.587h-2.142V362.45z" fill="#980000"/><path d="M61.153 347.166h2.143v4.587h4.29v-4.587h2.142v10.702h-2.143v-4.587h-4.29v4.588h-2.142v-10.702z" fill="#980000"/><path d="M93.745 402.28h2.143v-4.588h4.29v4.587h2.142v-10.703h-2.143v4.587h-4.29v-4.587h-2.142v10.702z" fill="#980000"/><path d="M114.325 373.23h2.143v-4.587h4.29v4.587h2.142v-10.702h-2.143v4.587h-4.29v-4.587h-2.142v10.702z" fill="#980000"/><path d="M93.745 402.28h2.143v-4.588h4.29v4.587h2.142v-10.703h-2.143v4.587h-4.29v-4.587h-2.142v10.702z" fill="#980000"/><path d="M93.745 402.28h2.143v-4.588h4.29v4.587h2.142v-10.703h-2.143v4.587h-4.29v-4.587h-2.142v10.702z" fill="#980000"/><path d="M114.325 386.985h2.143v-4.587h4.29v4.587h2.142v-10.702h-2.143v4.587h-4.29v-4.587h-2.142v10.702z" fill="#980000"/><path d="M93.745 357.945h2.143v-4.587h4.29v4.587h2.142v-10.702h-2.143v4.587h-4.29v-4.587h-2.142v10.702z" fill="#980000"/><path d="M83.48 374.557l6.86-5.57h3.43v2.784h-3.43v1.394h5.144v-5.57H90.34v-4.178h-6.86v4.177h1.715v-2.785h3.43v2.785l-6.86 5.57-6.86-5.57v-2.784h3.43v2.784h1.716v-4.178h-6.86v4.178h-5.145v5.57h5.145v-1.392h-3.43v-2.785h3.43l6.86 5.57-6.86 5.57h-3.43v-2.786h3.43v-1.392h-5.144v5.57h5.144v4.178h6.86v-4.177h-1.714v2.784h-3.43v-2.785l6.86-5.57 6.86 5.57v2.785h-3.43v-2.785H83.48v4.177h6.86v-4.177h5.145v-5.57H90.34v1.392h3.43v2.786h-3.43l-6.86-5.57z" fill="#004e00"/></g><g transform="matrix(.968 0 0 .899 152.08 17.027)"><path d="M-122.352 134.285l3.43-3.73h20.573l15.43-16.784h20.575l15.43 16.785h20.575l3.43 3.73-3.43 3.73h-20.574l-15.43 16.783H-82.92l-15.43-16.784h-20.573l-3.43-3.73z" fill="#980000"/><path d="M372.05 391.54l1.903-1.95h22.834l17.126-19.488h19.03l17.125 19.49h22.835l1.903 1.948-1.903 1.948h-22.835l-15.223 17.54H412.01l-15.223-17.54h-22.834l-1.903-1.948z" transform="matrix(.931 0 0 .909 -466.86 -221.29)" stroke="#000" stroke-width=".29" fill="#980000"/><path d="M-64.07 136.148l6.857 7.458-3.428 3.73-1.716-1.865h-1.714v1.866l1.714 1.865h3.43l3.428-3.73v-3.73l-6.857-7.457 6.857-7.46v-3.73l-3.43-3.73h-3.427l-1.715 1.865v1.865h1.715l1.714-1.865 3.427 3.73-6.857 7.46-6.86-7.46 6.86-7.46v-1.863h-1.715l-6.857 7.458-6.86-7.46h-1.714v1.865l6.86 7.46-6.86 7.46-6.858-7.46 3.43-3.73 1.714 1.865h1.714v-1.865l-1.714-1.864h-3.43l-3.43 3.73v3.73l6.86 7.46-6.86 7.458v3.73l3.43 3.73h3.43l1.714-1.865v-1.865h-1.714l-1.715 1.865-3.43-3.73 6.86-7.46 6.857 7.46-6.858 7.46v1.864h1.714l6.86-7.458 6.857 7.46h1.714v-1.866l-6.86-7.46 6.86-7.458zm484.238 208.857l-6.86 7.46 6.86 7.46 6.858-7.46-6.858-7.46z" fill="#e69900"/><path d="M-82.917 154.79v14.918l1.715-1.865 1.715 1.865 1.714-1.865 1.714 1.865 1.716-1.865 1.714 1.865 1.715-1.865 1.715 1.865 1.714-1.865 1.715 1.865 1.712-1.865 1.715 1.865V154.79h-20.574z" fill="#e69900"/><path d="M-62.353 113.79V98.872l-1.715 1.865-1.715-1.865-1.714 1.865-1.714-1.865-1.716 1.865-1.714-1.865-1.715 1.865-1.715-1.865-1.714 1.865-1.715-1.865-1.712 1.865-1.715-1.865v14.918h20.574z" fill="#e69900"/><path d="M-33.205 130.58v-14.918l-1.715 1.865-1.713-1.865-1.715 1.865-1.715-1.865-1.714 1.865-1.715-1.865-1.714 1.865-1.714-1.865v14.918h13.715z" fill="#e69900"/><path d="M-98.355 130.58v-14.918l-1.715 1.865-1.713-1.865-1.715 1.865-1.715-1.865-1.714 1.865-1.715-1.865-1.714 1.865-1.714-1.865v14.918h13.715z" fill="#e69900"/><path d="M-33.205 138.01v14.918l-1.715-1.865-1.713 1.865-1.715-1.865-1.715 1.865-1.714-1.865-1.715 1.865-1.714-1.865-1.714 1.865V138.01h13.715z" fill="#e69900"/><path d="M-98.355 138.01v14.918l-1.715-1.865-1.713 1.865-1.715-1.865-1.715 1.865-1.714-1.865-1.715 1.865-1.714-1.865-1.714 1.865V138.01h13.715z" fill="#e69900"/><path d="M-62.347 154.79v9.324l1.714-1.866 1.715 1.866 1.714-1.866 1.714 1.866 1.715-1.866 1.714 1.866 1.714-1.866 1.714 1.866 1.715-1.866v-24.242l-15.43 16.784z" fill="#004e00"/><path d="M-82.933 154.79v9.325l-1.715-1.866-1.715 1.865-1.714-1.866-1.714 1.865-1.716-1.866-1.714 1.865-1.715-1.866-1.714 1.865-1.714-1.866v-24.244l15.43 16.784z" fill="#004e00"/><path d="M-82.933 113.79v-9.324l-1.714 1.866-1.715-1.866-1.714 1.866-1.714-1.866-1.715 1.866-1.714-1.866-1.714 1.866-1.714-1.866-1.715 1.866v24.242l15.43-16.784z" fill="#004e00"/><path d="M-62.347 113.79v-9.324l1.714 1.866 1.715-1.866 1.714 1.866 1.714-1.866 1.715 1.866 1.714-1.866 1.714 1.866 1.714-1.866 1.715 1.866v24.242l-15.43-16.784z" fill="#004e00"/><path d="M-112.078 149.206l-1.715-1.865-1.713 1.866-1.714-1.865-1.715 1.866-1.715-1.865-1.715 1.866-1.713-1.865-1.715 1.866v-29.838l1.714 1.866 1.715-1.866 1.715 1.866 1.714-1.866 1.715 1.866 1.713-1.866 1.714 1.866 1.715-1.866v11.19h-6.857l-3.43 3.73 3.43 3.73h6.857v11.188z" fill="#004e00"/><path d="M-33.202 149.206l1.715-1.865 1.713 1.866 1.714-1.865 1.715 1.866 1.715-1.865 1.715 1.866 1.713-1.865 1.715 1.866v-29.838l-1.714 1.866-1.715-1.866-1.715 1.866-1.714-1.866-1.715 1.866-1.713-1.866-1.714 1.866-1.715-1.866v11.19h6.857l3.43 3.73-3.43 3.73h-6.857v11.188z" fill="#004e00"/><path d="M-91.36 155.978s-1.428 1.474-1.428 2.21c-.028.687 1.524 2.227 2.143 2.21.81.017 2.143-1.473 2.143-2.21 0-.736-1.43-2.21-1.43-2.21v-2.948s3.104 5.068 3.104 2.857c0-1.586-3.103-4.33-3.103-4.33h-1.43s-3.103 3.213-3.103 4.33c0 2.21 3.103-2.857 3.103-2.857v2.948z" fill="#fff"/><path d="M-73.497 161.67s-1.715 2.062-1.715 3.094c-.034.962 1.83 3.118 2.572 3.095.97.022 2.572-2.064 2.572-3.096s-1.715-3.095-1.715-3.095v-4.128s3.037 6.75 3.037 3.656c0-2-3.037-5.72-3.037-5.72h-1.714s-3.506 4.656-3.037 5.72c0 3.095 3.037-3.656 3.037-3.656v4.127z" fill="#980000"/><ellipse fill="#004e00" transform="matrix(.968 0 0 1.053 -482.4 -277.85)" cx="403.94" rx="3.543" cy="391.54" ry="1.772"/><ellipse fill="#004e00" transform="matrix(.968 0 0 1.053 -463.54 -277.85)" cx="403.94" rx="3.543" cy="391.54" ry="1.772"/><ellipse fill="#004e00" transform="matrix(.968 0 0 1.053 -444.69 -277.85)" cx="403.94" rx="3.543" cy="391.54" ry="1.772"/><path d="M-91.72 112.76s-1.428-1.474-1.428-2.21c-.028-.688 1.524-2.228 2.143-2.21.81-.018 2.143 1.472 2.143 2.21 0 .736-1.43 2.21-1.43 2.21v2.948s3.104-5.068 3.104-2.857c0 1.587-3.103 4.332-3.103 4.332h-1.43s-3.103-3.214-3.103-4.33c0-2.212 3.103 2.856 3.103 2.856v-2.948z" fill="#fff"/><path d="M-73.857 107.062s-1.715-2.063-1.715-3.095c-.034-.962 1.83-3.118 2.572-3.095.97-.023 2.572 2.063 2.572 3.095s-1.715 3.095-1.715 3.095v4.127s3.037-6.752 3.037-3.657c0 2-3.037 5.72-3.037 5.72h-1.714s-3.506-4.656-3.037-5.72c0-3.095 3.037 3.656 3.037 3.656v-4.128z" fill="#980000"/><path d="M-54.86 155.978s-1.428 1.474-1.428 2.21c-.028.687 1.524 2.227 2.143 2.21.81.017 2.143-1.473 2.143-2.21 0-.736-1.43-2.21-1.43-2.21v-2.948s3.104 5.068 3.104 2.857c0-1.586-3.103-4.33-3.103-4.33h-1.43s-3.103 3.213-3.103 4.33c0 2.21 3.103-2.857 3.103-2.857v2.948z" fill="#fff"/><path d="M-55.22 112.76s-1.428-1.474-1.428-2.21c-.028-.688 1.524-2.228 2.143-2.21.81-.018 2.143 1.472 2.143 2.21 0 .736-1.43 2.21-1.43 2.21v2.948s3.104-5.068 3.104-2.857c0 1.587-3.103 4.332-3.103 4.332h-1.43s-3.103-3.214-3.103-4.33c0-2.212 3.103 2.856 3.103 2.856v-2.948z" fill="#fff"/><path d="M-106.273 145.593s-1.9 1.383-1.9 2.074c-.037.644 2.026 2.09 2.85 2.074 1.076.016 2.85-1.382 2.85-2.073 0-.69-1.9-2.074-1.9-2.074v-2.765s3.364 4.523 3.364 2.45c0-1.342-3.364-3.833-3.364-3.833h-1.9s-3.882 3.12-3.363 3.832c0 2.074 3.364-2.45 3.364-2.45v2.766z" fill="#980000"/><path d="M-106.673 124.47s-1.9-1.382-1.9-2.073c-.037-.644 2.026-2.09 2.85-2.074 1.076-.015 2.85 1.383 2.85 2.074 0 .69-1.9 2.074-1.9 2.074v2.766s3.364-4.524 3.364-2.45c0 1.342-3.364 3.833-3.364 3.833h-1.9s-3.882-3.12-3.363-3.833c0-2.074 3.364 2.45 3.364 2.45v-2.766z" fill="#980000"/><path d="M-40.423 145.15s-1.9 1.384-1.9 2.075c-.037.644 2.026 2.09 2.85 2.074 1.076.014 2.85-1.384 2.85-2.075 0-.69-1.9-2.074-1.9-2.074v-2.764s3.364 4.523 3.364 2.45c0-1.342-3.364-3.833-3.364-3.833h-1.9s-3.882 3.12-3.363 3.832c0 2.074 3.364-2.45 3.364-2.45v2.766z" fill="#980000"/><path d="M-40.823 124.03s-1.9-1.382-1.9-2.073c-.037-.644 2.026-2.09 2.85-2.074 1.076-.015 2.85 1.383 2.85 2.074 0 .69-1.9 2.074-1.9 2.074v2.766s3.364-4.524 3.364-2.45c0 1.342-3.364 3.833-3.364 3.833h-1.9s-3.882-3.12-3.363-3.833c0-2.074 3.364 2.45 3.364 2.45v-2.766z" fill="#980000"/><path d="M-120.285 145.363c-.615-1.277-.453-1.86-.453-2.597-.028-.687 1.716-2.025 2.336-2.01.81-.015 2.143 1.475 2.143 2.212 0 .736.035 1.373-.297 2.643l-.893-2.153c-1.084 3.056-1.143 3.127-1.787-.074l-1.048 1.98z" fill="#fff"/><path d="M-120.225 123.93c-.615 1.278-.453 1.862-.453 2.598-.028.687 1.716 2.025 2.336 2.01.81.015 2.143-1.475 2.143-2.212 0-.736.035-1.373-.297-2.643l-.893 2.154c-1.084-3.056-1.143-3.127-1.787.074l-1.048-1.98z" fill="#fff"/><path d="M-27.805 145.093c-.615-1.277-.453-1.86-.453-2.597-.028-.687 1.716-2.025 2.336-2.01.81-.015 2.143 1.475 2.143 2.212 0 .736.035 1.373-.297 2.643l-.893-2.153c-1.084 3.056-1.143 3.127-1.787-.074l-1.048 1.98z" fill="#fff"/><path d="M-27.755 123.655c-.615 1.277-.453 1.86-.453 2.597-.028.687 1.716 2.025 2.336 2.01.81.015 2.143-1.475 2.143-2.212 0-.736.035-1.373-.297-2.643l-.893 2.154c-1.084-3.055-1.143-3.126-1.787.075l-1.048-1.98z" fill="#fff"/><path d="M-83.27 170.073v-5.315h-15.944v-10.63h-14.173v-3.543h-12.402v-31.89h12.403v-3.543h14.173v-10.63h15.944V99.21h21.26v5.315h15.945v10.63h14.173v3.542h12.402v31.89h-12.402v3.543h-14.173v10.63H-62.01v5.315h-21.26zm196.658 8.86v-5.316H97.444v-10.63H83.27v-3.543h-12.4v-35.432h12.4v-3.544h14.174v-10.63h15.945v-5.315h24.802v5.315h15.945v10.63h14.173v3.544h12.402v35.432H168.31v3.543h-14.173v10.63h-15.945v5.315h-24.804z" stroke="#000" stroke-width=".133" fill="#980000"/></g></g></g></svg>