<svg xmlns="http://www.w3.org/2000/svg" height="480" width="640"><defs><clipPath id="a"><path fill-opacity=".67" d="M0 0h682.67v512H0z"/></clipPath></defs><g fill-rule="evenodd" clip-path="url(#a)"><path fill="#de2110" d="M0 0h720v480H0z"/><path fill="#08399c" d="M0 0h361.584v240H0z"/><path fill="#fff" d="M264.578 167.465l-44.392-9.128 9.457 44.325-33.89-30.095-13.978 43.114-14.297-43.017-33.657 30.357 9.13-44.393-44.326 9.448 30.095-33.88-43.115-13.978 43.008-14.297-30.347-33.66 44.392 9.125-9.447-44.327 33.88 30.1 13.98-43.114 14.296 43.01 33.657-30.35-9.128 44.394 44.325-9.454-30.095 33.89L277.24 119.5 234.23 133.8z"/><path fill="#005387" d="M223.458 164.018l-13.995 7.437-13.653 8.072-15.853-.547-15.854.186-13.457-8.384-13.83-7.76-7.45-13.976-8.09-13.615.538-15.82-.176-15.83 8.4-13.427 7.777-13.8 13.995-7.438 13.653-8.07 15.853.543 15.863-.18 13.456 8.38 13.82 7.76 7.452 13.973 8.088 13.616-.538 15.82.176 15.832-8.4 13.43z"/><path d="M229.443 120.313c0 26.866-21.78 48.645-48.645 48.645s-48.645-21.78-48.645-48.645 21.78-48.645 48.645-48.645 48.645 21.78 48.645 48.645z" fill="#fff"/></g></svg>