<svg xmlns="http://www.w3.org/2000/svg" height="480" width="640"><defs><clipPath id="a"><path fill-opacity=".67" d="M-85.333 0h682.67v512h-682.67z"/></clipPath></defs><g clip-path="url(#a)"><path fill-rule="evenodd" fill="#ffe700" d="M-40 320.025h720v79.988H-40z"/><path fill-rule="evenodd" d="M-40 240h720v79.988H-40z"/><path fill-rule="evenodd" fill="#de3908" d="M-40 160.012h720v79.99H-40z"/><path fill-rule="evenodd" fill="#ffe700" d="M-40 80.023h720v79.99H-40z"/><path fill-rule="evenodd" d="M-40 0h720v79.988H-40z"/><g><path d="M394.825 240.04c0 41.285-33.467 74.75-74.75 74.75s-74.75-33.465-74.75-74.75 33.467-74.75 74.75-74.75 74.75 33.468 74.75 74.75z" fill-rule="evenodd" stroke="#000" stroke-width="NaN" fill="#fffdff"/><path d="M306.887 182.738l-4.853-8.94c1.872-1.872 5.023-3.32 10.045-3.32 0 .34-.512 9.79-.512 9.79l-4.68 2.47z" fill-rule="evenodd" stroke="#000" stroke-width="NaN" fill="#de3108"/><path d="M311.567 180.36l.68-9.877s10.046-.595 15.495 5.96c.085-.086-5.363 7.66-5.363 7.66l-10.813-3.744z" fill-rule="evenodd" stroke="#000" stroke-width="NaN" fill="#ffe700"/><path d="M322.55 184.018l4.94-7.662c3.32 3.49 4.68 5.96 5.192 9.706.085.085-7.832 1.957-7.832 1.872s-2.213-3.83-2.298-3.916z" fill-rule="evenodd" stroke="#000" stroke-width="NaN" fill="#de3108"/><path stroke-linejoin="round" d="M309.356 310.52s9.28-10.64 27.328-8.342c-2.724-4.427-11.493-3.916-11.493-3.916s-2.723-20.687-.595-21.71 11.152.086 11.152.086c1.192 0 3.235-3.235 1.618-5.278-1.618-2.043-6.385-9.875-4.427-11.408 1.958-1.532 12.6.852 12.6.852l-30.052-38.48s-3.065-14.472 3.065-21.453c7.407-6.128 6.64-12.77 6.386-12.684-1.022-6.725-11.238-11.578-18.133-5.363-4.087 4.938-1.363 8.684-1.363 8.684s-10.726 2.894-11.152 4.767c-.426 1.873 12.09-.34 12.09-.34l-1.193 8.598s-24.348 22.134-5.704 41.29c.17-.087.597-.853.597-.853s6.555 8.087 13.45 9.875c6.47 6.64 5.875 5.618 5.875 5.618s1.277 10.472.085 12.515c-1.617-.51-18.133-1.107-20.602-.17-2.213.68-10.726.255-8.598 14.132 1.617-3.746 3.065-7.067 3.065-7.067s-.256 5.023 1.788 6.81c-.34-5.277 1.957-8.852 1.957-8.852s.426 5.79 1.703 6.64c1.277.852 1.277-9.364 8.343-8.513 7.066.852 12.174.596 12.174.596s2.384 20.006 1.617 21.88c-5.108-1.193-17.28.51-18.048 3.575 7.15-.426 10.472.425 10.472.425s-5.79 5.108-4.002 8.088z" fill-rule="evenodd" stroke="#000" stroke-linecap="round" stroke-width="0.86645"/><path stroke-linejoin="round" d="M312.223 201.36s-17.716 19.527-10.073 34.47c.407-2.084.23-3.393.485-3.308-.426-.255 2.197 1.798 1.997 1.398.056-1.08-.8-3.395-.8-3.395l2.4.6-1.4-2.598 3.396.4s-1.2-3.197-.8-3.197c.4 0 2.798.2 2.798.2-5.04-9.042-.286-16.55 1.997-24.57z" fill-rule="evenodd" stroke="#9ca69c" stroke-linecap="round" stroke-width="0.86645" fill="#9ca69c"/><path d="M318.38 184.61s.935 6.725-2.726 8.683c-.596.426-2.894 1.192-2.553 2.554.426 1.873 1.447 1.532 2.895 1.192 3.83-.682 8.258-8.855 2.384-12.43z" fill-rule="evenodd" stroke="#9ca69c" stroke-width="NaN" fill="#9ca69c"/><path d="M311.827 190.4c0 .8-.648 1.448-1.448 1.448-.8 0-1.448-.648-1.448-1.447 0-.798.648-1.446 1.447-1.446.8 0 1.447.648 1.447 1.447z" fill-rule="evenodd" fill="#fff"/><path d="M306.12 196.017c-.937.766-5.875 5.875-1.022 7.747 5.023-1.362 3.66-2.298 4.767-3.405.03-2.3-2.497-2.895-3.745-4.343z" fill-rule="evenodd" stroke="#000" stroke-width="NaN" fill="#de3108"/><path stroke-linejoin="round" d="M316.844 244.293c-.255 1.106-1.36 5.192.17 8.342 4.258-1.787 6.215-1.277 7.663-.34-3.49-2.81-4.852-4.002-7.833-8.002z" fill-rule="evenodd" stroke="#9ca69c" stroke-linecap="round" stroke-width="0.86645" fill="#9ca69c"/><path stroke-linejoin="round" d="M324.17 263.617l.255 9.535s3.32.596 4.853 0c1.532-.596-.085-6.64-5.108-9.535z" fill-rule="evenodd" stroke="#fff" stroke-linecap="round" stroke-width="0.86645" fill="#fff"/><path d="M348.26 264.807s-6.13-14.813-21.795-18.56-13.62-20.43-12.344-21.453c.682-1.447 1.193-3.66 5.705-1.532 4.512 2.13 25.284 12.6 28.264 13.11s.424 28.775.17 28.435z" fill-rule="evenodd" stroke="#000" stroke-width="NaN" fill="#9ca69c"/><path stroke-linejoin="round" d="M333.36 246.165c-.254.17 20.943 12.513 14.558 23.155 6.045-4 4.087-10.982 4.087-10.982s4.937 12.855-7.066 19.155c1.276 1.107 2.128.85 2.128.85l-2.044 2.045s-.937 1.532 7.15-2.385c-2.213 1.79-2.382 3.065-2.382 3.065s.595 1.703 5.874-2.894c-4.257 4.597-5.194 6.98-5.194 6.896 11.493-1.022 36.522-38.395-7.917-49.462 2.384 2.47 2.043 2.13 2.043 2.13l-11.237 8.427z" fill-rule="evenodd" stroke="#000" stroke-width="0.86645" fill="#de3108"/><path stroke-linejoin="round" d="M334.297 242.505c2.894 2.043 3.916 2.724 4.256 3.746-2.64-.594-5.022-.425-5.022-.425s-5.703-5.448-6.725-5.874c-.766 0-5.193-2.808-5.193-2.808-2.213-1.107-4.256-8.77 3.916-6.555 8.428 4 9.62 4.342 9.62 4.342 3.35 1.048 6.697 2.1 10.046 3.148l5.788 6.47s-10.3-5.108-11.577-5.193c2.81 2.3 4.427 5.448 4.427 5.448-3.264-.936-6.1-1.787-9.535-2.298z" fill-rule="evenodd" stroke="#000" stroke-linecap="round" stroke-width="0.86645" fill="#fff"/><path d="M294.205 196.784s9.875-2.384 11.067-2.043" stroke="#fff" stroke-linecap="round" stroke-width="0.86645" fill="none"/></g><path fill-rule="evenodd" fill="#de3908" d="M-40 400.012h720v79.99H-40z"/></g></svg>