<svg xmlns="http://www.w3.org/2000/svg" height="480" width="640"><desc>The United States of America flag, produced by Daniel McRae</desc><defs><clipPath id="a"><path fill-opacity=".67" d="M0 0h682.67v512H0z"/></clipPath></defs><g fill-rule="evenodd" clip-path="url(#a)"><g><g fill="#bd3d44"><path d="M0 0h911.924v36.92H0z"/><path d="M0 73.84h911.924v36.92H0z"/><path d="M0 147.68h911.924v36.92H0z"/><path d="M0 221.52h911.924v36.92H0z"/><path d="M0 295.36h911.924v36.92H0z"/><path d="M0 369.2h911.924v36.92H0z"/><path d="M0 443.04h911.924v36.92H0z"/></g><g fill="#fff"><path d="M0 36.92h911.924v36.92H0z"/><path d="M0 110.76h911.924v36.92H0z"/><path d="M0 184.6h911.924v36.92H0z"/><path d="M0 258.44h911.924v36.92H0z"/><path d="M0 332.28h911.924v36.92H0z"/><path d="M0 406.12h911.924v36.92H0z"/></g></g><path fill="#192f5d" d="M0 0h364.8v258.46H0z"/><g fill="#fff"><g><g><path d="M30.397 11.06l3.32 10.216h10.74l-8.69 6.313 3.32 10.213-8.69-6.312-8.69 6.313 3.32-10.214-8.69-6.314h10.74z"/><path d="M91.192 11.06l3.32 10.216h10.74l-8.69 6.313 3.32 10.213-8.69-6.312-8.69 6.313 3.32-10.214-8.69-6.314h10.74z"/><path d="M151.99 11.06l3.318 10.216h10.74l-8.69 6.313 3.32 10.213-8.69-6.312-8.688 6.313 3.32-10.214-8.69-6.314h10.74z"/><path d="M212.78 11.06l3.32 10.216h10.74l-8.69 6.313 3.32 10.213-8.69-6.312-8.688 6.313 3.32-10.214-8.69-6.314h10.74z"/><path d="M273.577 11.06l3.32 10.216h10.74l-8.69 6.313 3.32 10.213-8.69-6.312-8.69 6.313 3.32-10.214-8.69-6.314h10.74z"/><path d="M334.373 11.06l3.32 10.216h10.74l-8.69 6.313 3.32 10.213-8.69-6.312-8.69 6.313 3.32-10.214-8.69-6.314h10.74z"/></g><g><path d="M60.796 36.905l3.32 10.215h10.74l-8.69 6.313 3.32 10.214-8.69-6.312-8.69 6.312 3.32-10.214-8.69-6.313h10.74z"/><path d="M121.59 36.905l3.318 10.215h10.74l-8.69 6.313 3.32 10.214-8.69-6.312-8.688 6.312 3.32-10.214-8.69-6.313h10.74z"/><path d="M182.385 36.905l3.32 10.215h10.74l-8.69 6.313 3.32 10.214-8.69-6.312-8.69 6.312 3.32-10.214-8.69-6.313h10.74z"/><path d="M243.18 36.905l3.32 10.215h10.74l-8.69 6.313 3.32 10.214-8.69-6.312-8.688 6.312 3.32-10.214-8.69-6.313h10.74z"/><path d="M303.973 36.905l3.32 10.215h10.74l-8.69 6.313 3.32 10.214-8.69-6.312-8.69 6.312 3.32-10.214-8.69-6.313h10.74z"/></g></g><g><g><path d="M30.397 62.75l3.32 10.214h10.74l-8.69 6.313 3.32 10.214-8.69-6.31-8.69 6.31 3.32-10.213-8.69-6.313h10.74z"/><path d="M91.192 62.75l3.32 10.214h10.74l-8.69 6.313 3.32 10.214-8.69-6.31-8.69 6.31 3.32-10.213-8.69-6.313h10.74z"/><path d="M151.99 62.75l3.318 10.214h10.74l-8.69 6.313 3.32 10.214-8.69-6.31-8.688 6.31 3.32-10.213-8.69-6.313h10.74z"/><path d="M212.78 62.75l3.32 10.214h10.74l-8.69 6.313 3.32 10.214-8.69-6.31-8.688 6.31 3.32-10.213-8.69-6.313h10.74z"/><path d="M273.577 62.75l3.32 10.214h10.74l-8.69 6.313 3.32 10.214-8.69-6.31-8.69 6.31 3.32-10.213-8.69-6.313h10.74z"/><path d="M334.373 62.75l3.32 10.214h10.74l-8.69 6.313 3.32 10.214-8.69-6.31-8.69 6.31 3.32-10.213-8.69-6.313h10.74z"/></g><g><path d="M60.796 88.593l3.32 10.215h10.74l-8.69 6.313 3.32 10.215-8.69-6.312-8.69 6.312 3.32-10.214-8.69-6.312h10.74z"/><path d="M121.59 88.593l3.318 10.215h10.74l-8.69 6.313 3.32 10.215-8.69-6.312-8.688 6.312 3.32-10.214-8.69-6.312h10.74z"/><path d="M182.385 88.593l3.32 10.215h10.74l-8.69 6.313 3.32 10.215-8.69-6.312-8.69 6.312 3.32-10.214-8.69-6.312h10.74z"/><path d="M243.18 88.593l3.32 10.215h10.74l-8.69 6.313 3.32 10.215-8.69-6.312-8.688 6.312 3.32-10.214-8.69-6.312h10.74z"/><path d="M303.973 88.593l3.32 10.215h10.74l-8.69 6.313 3.32 10.215-8.69-6.312-8.69 6.312 3.32-10.214-8.69-6.312h10.74z"/></g></g><g><g><path d="M30.397 114.437l3.32 10.215h10.74l-8.69 6.313 3.32 10.214-8.69-6.313-8.69 6.312 3.32-10.215-8.69-6.313h10.74z"/><path d="M91.192 114.437l3.32 10.215h10.74l-8.69 6.313 3.32 10.214-8.69-6.313-8.69 6.312 3.32-10.215-8.69-6.313h10.74z"/><path d="M151.99 114.437l3.318 10.215h10.74l-8.69 6.313 3.32 10.214-8.69-6.313-8.688 6.312 3.32-10.215-8.69-6.313h10.74z"/><path d="M212.78 114.437l3.32 10.215h10.74l-8.69 6.313 3.32 10.214-8.69-6.313-8.688 6.312 3.32-10.215-8.69-6.313h10.74z"/><path d="M273.577 114.437l3.32 10.215h10.74l-8.69 6.313 3.32 10.214-8.69-6.313-8.69 6.312 3.32-10.215-8.69-6.313h10.74z"/><path d="M334.373 114.437l3.32 10.215h10.74l-8.69 6.313 3.32 10.214-8.69-6.313-8.69 6.312 3.32-10.215-8.69-6.313h10.74z"/></g><g><path d="M60.796 140.28l3.32 10.216h10.74l-8.69 6.313 3.32 10.213-8.69-6.312-8.69 6.313 3.32-10.214-8.69-6.314h10.74z"/><path d="M121.59 140.28l3.318 10.216h10.74l-8.69 6.313 3.32 10.213-8.69-6.312-8.688 6.313 3.32-10.214-8.69-6.314h10.74z"/><path d="M182.385 140.28l3.32 10.216h10.74l-8.69 6.313 3.32 10.213-8.69-6.312-8.69 6.313 3.32-10.214-8.69-6.314h10.74z"/><path d="M243.18 140.28l3.32 10.216h10.74l-8.69 6.313 3.32 10.213-8.69-6.312-8.688 6.313 3.32-10.214-8.69-6.314h10.74z"/><path d="M303.973 140.28l3.32 10.216h10.74l-8.69 6.313 3.32 10.213-8.69-6.312-8.69 6.313 3.32-10.214-8.69-6.314h10.74z"/></g></g><g><g><path d="M30.397 166.125l3.32 10.215h10.74l-8.69 6.313 3.32 10.214-8.69-6.312-8.69 6.312 3.32-10.214-8.69-6.313h10.74z"/><path d="M91.192 166.125l3.32 10.215h10.74l-8.69 6.313 3.32 10.214-8.69-6.312-8.69 6.312 3.32-10.214-8.69-6.313h10.74z"/><path d="M151.99 166.125l3.318 10.215h10.74l-8.69 6.313 3.32 10.214-8.69-6.312-8.688 6.312 3.32-10.214-8.69-6.313h10.74z"/><path d="M212.78 166.125l3.32 10.215h10.74l-8.69 6.313 3.32 10.214-8.69-6.312-8.688 6.312 3.32-10.214-8.69-6.313h10.74z"/><path d="M273.577 166.125l3.32 10.215h10.74l-8.69 6.313 3.32 10.214-8.69-6.312-8.69 6.312 3.32-10.214-8.69-6.313h10.74z"/><path d="M334.373 166.125l3.32 10.215h10.74l-8.69 6.313 3.32 10.214-8.69-6.312-8.69 6.312 3.32-10.214-8.69-6.313h10.74z"/></g><g><path d="M60.796 191.97l3.32 10.214h10.74l-8.69 6.313 3.32 10.214-8.69-6.31-8.69 6.31 3.32-10.213-8.69-6.313h10.74z"/><path d="M121.59 191.97l3.318 10.214h10.74l-8.69 6.313 3.32 10.214-8.69-6.31-8.688 6.31 3.32-10.213-8.69-6.313h10.74z"/><path d="M182.385 191.97l3.32 10.214h10.74l-8.69 6.313 3.32 10.214-8.69-6.31-8.69 6.31 3.32-10.213-8.69-6.313h10.74z"/><path d="M243.18 191.97l3.32 10.214h10.74l-8.69 6.313 3.32 10.214-8.69-6.31-8.688 6.31 3.32-10.213-8.69-6.313h10.74z"/><path d="M303.973 191.97l3.32 10.214h10.74l-8.69 6.313 3.32 10.214-8.69-6.31-8.69 6.31 3.32-10.213-8.69-6.313h10.74z"/></g></g><g><path d="M30.397 217.813l3.32 10.215h10.74l-8.69 6.313 3.32 10.215-8.69-6.312-8.69 6.312 3.32-10.214-8.69-6.312h10.74z"/><path d="M91.192 217.813l3.32 10.215h10.74l-8.69 6.313 3.32 10.215-8.69-6.312-8.69 6.312 3.32-10.214-8.69-6.312h10.74z"/><path d="M151.99 217.813l3.318 10.215h10.74l-8.69 6.313 3.32 10.215-8.69-6.312-8.688 6.312 3.32-10.214-8.69-6.312h10.74z"/><path d="M212.78 217.813l3.32 10.215h10.74l-8.69 6.313 3.32 10.215-8.69-6.312-8.688 6.312 3.32-10.214-8.69-6.312h10.74z"/><path d="M273.577 217.813l3.32 10.215h10.74l-8.69 6.313 3.32 10.215-8.69-6.312-8.69 6.312 3.32-10.214-8.69-6.312h10.74z"/><path d="M334.373 217.813l3.32 10.215h10.74l-8.69 6.313 3.32 10.215-8.69-6.312-8.69 6.312 3.32-10.214-8.69-6.312h10.74z"/></g></g></g></svg>