<svg xmlns="http://www.w3.org/2000/svg" height="480" width="640" version="1" xmlns:xlink="http://www.w3.org/1999/xlink"><defs><linearGradient id="a"><stop stop-color="#faff00" offset="0"/><stop stop-color="#f5c402" offset="1"/></linearGradient><linearGradient id="c" y2="459.27" xlink:href="#a" gradientUnits="userSpaceOnUse" x2="123.79" gradientTransform="matrix(.751 -.024 -.046 1.422 26.394 -26.59)" y1="360.52" x1="123.79"/><linearGradient id="d" y2="459.27" xlink:href="#a" gradientUnits="userSpaceOnUse" x2="123.79" gradientTransform="matrix(.727 .001 .001 1.468 -.624 -48.245)" y1="360.52" x1="123.79"/><linearGradient id="e" y2="459.27" xlink:href="#a" gradientUnits="userSpaceOnUse" x2="123.79" gradientTransform="matrix(.751 .024 .046 1.421 -30.188 -29.545)" y1="360.52" x1="123.79"/><linearGradient id="f" y2="459.27" xlink:href="#a" gradientUnits="userSpaceOnUse" x2="123.79" gradientTransform="matrix(.775 0 -.001 1.376 -23.236 .167)" y1="360.52" x1="123.79"/><linearGradient id="g" y2="459.27" xlink:href="#a" gradientUnits="userSpaceOnUse" x2="123.79" gradientTransform="matrix(.751 -.024 -.046 1.423 -1.565 1.584)" y1="360.52" x1="123.79"/><linearGradient id="h" y2="459.27" xlink:href="#a" gradientUnits="userSpaceOnUse" x2="123.79" gradientTransform="matrix(.751 .024 .046 1.422 -1.847 -1.827)" y1="360.52" x1="123.79"/><linearGradient id="i" y2="459.27" xlink:href="#a" gradientUnits="userSpaceOnUse" x2="123.79" gradientTransform="matrix(.775 0 0 1.376 16.423 -.071)" y1="360.52" x1="123.79"/><linearGradient id="j" y2="459.27" xlink:href="#a" gradientUnits="userSpaceOnUse" x2="123.79" gradientTransform="matrix(.727 0 0 1.468 0 -8.463)" y1="360.52" x1="123.79"/><clipPath id="b"><path fill-opacity=".67" d="M0 0h640v512H0z"/></clipPath></defs><g fill-rule="evenodd" transform="matrix(.483 0 0 .453 116.34 -57.57)" clip-path="url(#b)"><path fill="#fff" d="M-240.65 126.95h1587v1059h-1587z"/><path d="M-25.558 413.628c-19.603-6.063-38.778-8.043-62.932-20.22-25.483-23.053-27.308-30.45-43.487-37.23-6.09-2.31-10.546-1.337-20.755-10.57-13.048-14.77-7.878-21.627-1.568-27.13 5.322 3.233 7.008 7.058 21.898 6.947 8.432.31 20.47 2.716 32.3 9.495 9.305 7.775 20.808 18.468 34.333 23.536 16.14 3.945 21.92 7.93 32.997 7.39 12.978 1.03 15.074 3.828 25.952 8.188 4.913 21.118-1.425 30.06-18.738 39.594z" fill-opacity=".561" stroke="#cbaa19" stroke-width="3.228" fill="url(#c)"/><path d="M6.252 360.584c-9.406-18.236-21.426-33.307-29.656-59.075-1.402-34.335 2.598-40.82-3.897-57.115-2.62-5.964-6.436-8.462-7-22.216 1.4-19.66 9.916-20.773 18.263-20.125 1.422 6.062-.127 9.945 10.384 20.493 5.685 6.235 12.4 16.51 15.85 29.7.97 12.088 1.4 27.788 7.258 40.99 8.49 14.28 9.696 21.196 17.84 28.724 8.358 9.982 7.83 13.44 12.338 24.256-11.628 18.3-22.448 20.04-41.382 14.366z" fill-opacity=".561" stroke="#cbaa19" stroke-width="3.228" fill="url(#d)"/><path d="M65.484 345.99c6.2-19.56 8.317-38.72 20.666-62.787 23.23-25.32 30.64-27.092 37.537-43.222 2.35-6.073 1.41-10.536 10.715-20.68 14.863-12.942 21.682-7.724 27.14-1.375-3.27 5.3-7.107 6.958-7.1 21.848-.372 8.43-2.862 20.45-9.724 32.23-7.84 9.252-18.615 20.68-23.778 34.168-4.06 16.11-8.085 21.863-7.625 32.944-1.12 12.97-3.934 15.047-8.37 25.893-21.153 4.764-30.05-1.636-39.462-19.017z" fill-opacity=".561" stroke="#cbaa19" stroke-width="3.228" fill="url(#e)"/><path d="M117.694 377.348c18.182-9.51 33.183-21.617 58.903-29.996 34.325-1.6 40.833 2.363 57.09-4.225 5.948-2.654 8.425-6.484 22.175-7.127 19.666 1.287 20.83 9.795 20.23 18.146-6.054 1.457-9.947-.07-20.434 10.502-6.202 5.72-16.438 12.495-29.608 16.022-12.082 1.04-27.78 1.558-40.947 7.493-14.232 8.572-21.14 9.818-28.62 18.006-9.934 8.414-13.393 7.904-24.184 12.475-18.368-11.52-20.172-22.332-14.606-41.297z" fill-opacity=".561" stroke="#cbaa19" stroke-width="3.228" fill="url(#f)"/><path d="M132.623 436.568c19.59 6.106 38.76 8.128 62.887 20.36 25.433 23.107 27.242 30.51 43.405 37.325 6.086 2.322 10.544 1.36 20.733 10.615 13.015 14.8 7.83 21.644 1.508 27.133-5.315-3.243-6.993-7.072-21.883-6.993-8.43-.33-20.463-2.762-32.278-9.566-9.288-7.795-20.77-18.513-34.282-23.61-16.13-3.982-21.902-7.978-32.98-7.464-12.976-1.057-15.066-3.86-25.934-8.245-4.868-21.128 1.49-30.055 18.823-39.552z" fill-opacity=".561" stroke="#cbaa19" stroke-width="3.228" fill="url(#g)"/><path d="M42.04 504.096c-6.093 19.594-8.1 38.766-20.314 62.902-23.09 25.45-30.49 27.264-37.294 43.433-2.317 6.088-1.35 10.545-10.6 20.74-14.79 13.027-21.637 7.847-27.13 1.53 3.24-5.318 7.067-7 6.977-21.89.323-8.43 2.746-20.464 9.54-32.284 7.79-9.294 18.5-20.782 23.588-34.3 3.97-16.133 7.96-21.907 7.44-32.985 1.046-12.975 3.848-15.067 8.225-25.94 21.124-4.88 30.056 1.47 39.566 18.797z" fill-opacity=".561" stroke="#cbaa19" stroke-width="3.228" fill="url(#h)"/><path d="M-10.472 472.856c-18.155 9.563-33.12 21.713-58.817 30.165-34.32 1.7-40.838-2.244-57.077 4.39-5.94 2.67-8.406 6.51-22.154 7.19-19.67-1.23-20.858-9.734-20.283-18.087 6.05-1.474 9.946.04 20.403-10.56 6.186-5.74 16.402-12.543 29.563-16.107 12.078-1.075 27.774-1.638 40.925-7.61 14.207-8.614 21.11-9.88 28.57-18.09 9.908-8.442 13.37-7.943 24.147-12.545 18.4 11.47 20.234 22.275 14.723 41.257z" fill-opacity=".561" stroke="#cbaa19" stroke-width="3.228" fill="url(#i)"/><path fill="#002993" d="M345.13 247.98h1001.2V368.5H345.13z"/><path fill="#002993" d="M345.13 482.62h1001.2v120.52H345.13z"/><path d="M101.66 488.82c9.64 18.113 21.855 33.027 30.418 58.686 1.846 34.313-2.07 40.85 4.635 57.06 2.696 5.928 6.544 8.377 7.285 22.122-1.146 19.675-9.645 20.9-18 20.36-1.5-6.044-.002-9.947-10.648-20.358-5.765-6.16-12.613-16.348-16.234-29.493-1.127-12.074-1.758-27.767-7.786-40.892-8.675-14.17-9.97-21.07-18.21-28.49-8.487-9.874-8.003-13.337-12.65-24.095 11.39-18.45 22.186-20.33 41.19-14.9z" fill-opacity=".561" stroke="#cbaa19" stroke-width="3.228" fill="url(#j)"/><path fill="#002993" d="M-240.65 714.54h1587v120.52h-1587z"/><path fill="#002993" d="M-240.65 947.82h1587v120.52h-1587z"/><path d="M82.66 496.87L53.54 656.23V496.87h29.12z" stroke="#cbaa19" stroke-linecap="round" stroke-width="3.228" fill="#faff00"/><path d="M24.42 496.87l29.12 159.36V496.87H24.42z" stroke="#cbaa19" stroke-width="3.228" fill="#f5c402"/><path d="M124.995 455.1l92.338 133.105-112.89-112.478 20.552-20.628z" stroke="#cbaa19" stroke-linecap="round" stroke-width="3.228" fill="#faff00"/><path d="M83.89 496.356l133.444 91.85-112.89-112.478-20.554 20.628z" stroke="#cbaa19" stroke-width="3.228" fill="#f5c402"/><path d="M125.34 395.752l159.417 28.812-159.36.307-.056-29.118z" stroke="#cbaa19" stroke-linecap="round" stroke-width="3.228" fill="#faff00"/><path d="M125.46 453.992l159.303-29.426-159.36.307.056 29.12z" stroke="#cbaa19" stroke-width="3.228" fill="#f5c402"/><path d="M83.925 353.68l133.49-91.78-112.948 112.42-20.542-20.64z" stroke="#cbaa19" stroke-linecap="round" stroke-width="3.228" fill="#faff00"/><path d="M125.008 394.955l92.408-133.058-112.95 112.42 20.542 20.638z" stroke="#cbaa19" stroke-width="3.228" fill="#f5c402"/><path d="M24.278 353.212l28.808-159.417.31 159.36-29.118.057z" stroke="#cbaa19" stroke-linecap="round" stroke-width="3.228" fill="#faff00"/><path d="M82.52 353.098L53.09 193.795l.31 159.36 29.12-.057z" stroke="#cbaa19" stroke-width="3.228" fill="#f5c402"/><path d="M-17.922 394.924l-92.345-133.1L2.63 374.293l-20.552 20.63z" stroke="#cbaa19" stroke-linecap="round" stroke-width="3.228" fill="#faff00"/><path d="M23.186 353.664l-133.448-91.842L2.635 374.292l20.55-20.628z" stroke="#cbaa19" stroke-width="3.228" fill="#f5c402"/><path d="M-17.996 454.92l-159.673-27.356 159.352-1.762.322 29.117z" stroke="#cbaa19" stroke-linecap="round" stroke-width="3.228" fill="#faff00"/><path d="M-18.634 396.69l-159.03 30.878 159.352-1.762-.322-29.117z" stroke="#cbaa19" stroke-width="3.228" fill="#f5c402"/><path d="M23.85 496.635l-132.585 93.084L3.107 476.197l20.743 20.437z" stroke="#cbaa19" stroke-linecap="round" stroke-width="3.228" fill="#faff00"/><path d="M-17.636 455.763l-91.1 133.956L3.108 476.2l-20.743-20.437z" stroke="#cbaa19" stroke-width="3.228" fill="#f5c402"/><ellipse fill="#faff00" transform="translate(.956 2.868)" cx="52.585" rx="82.224" cy="422.29" ry="81.268" stroke="#cbaa19" stroke-width="3.228"/></g></svg>