<svg xmlns="http://www.w3.org/2000/svg" height="480" width="640" version="1"><defs><clipPath id="a"><path fill-opacity=".67" d="M-71.873-.012h682.68v512.01h-682.68z"/></clipPath></defs><g fill-rule="evenodd" clip-path="url(#a)"><path d="M.004 382.025V97.635l211.738 142.122L.004 382.034z"/><path d="M144.482 479.772l237.715-159.948H720.08v159.948H144.48z" fill="#00c"/><path d="M129.2-.19l590.86.012v159.974H382.178S132.368-1.772 129.198-.19z" fill="#f00"/><path d="M.004 59.81v37.8l211.738 142.124L.004 382.01v37.8l266.688-180.076L.004 59.81z" fill="#fc0"/><path d="M.004 59.81v-60h88.97l282.508 191.1h348.576v97.726H371.482L88.972 479.71H.005v-59.9l266.688-180.076L.004 59.81z" fill="#093"/><path d="M88.973-.19h55.5l237.715 159.975h337.88v31.125H371.494L88.983-.19z" fill="#fff"/><path d="M88.973 479.772h55.5l237.715-159.948h337.88V288.7H371.494L88.983 479.77z" fill="#fff"/></g></svg>