<svg xmlns="http://www.w3.org/2000/svg" height="480" width="640"><defs><clipPath id="a"><path fill-opacity=".67" d="M-170.67 0H512v512h-682.67z"/></clipPath></defs><g fill-rule="evenodd" clip-path="url(#a)"><path fill="#198a00" d="M-80 0h720v480H-80z"/><path fill="#ef7d00" d="M555.503 172.444h84.493v307.528h-84.493z"/><path d="M471.11 172.294h84.402v307.593H471.11z"/><path fill="#de2010" d="M384.953 172.48h86.19V480h-86.19z"/><g stroke="#000" fill="#ef7d00"><path d="M583.15 61.458s31.777-13.578 34.856-16.378c1.4 1.68-12.738 18.758-40.175 25.057 24.918-5.88 46.196-24.357 50.535-23.797 1.26.28.98 18.058-56.133 33.456 39.475-10.36 62.432-29.396 62.152-27.297.28.42-3.92 14.977-38.495 26.316 9.658-2.24 35.835-18.198 35.555-15.118.84 1.26-25.337 34.855-72.648 23.937 37.795 9.8 62.29-13.86 65.79-13.438.7.14-6.998 20.717-54.59 21.977 22.816-2.38 16.236-.14 16.236-.14s-13.438 10.498-29.676 3.36c12.74 3.5 14.138 3.64 14.418 4.76-.84 1.398-11.338 3.498-21.417-1.96 8.12 3.358 15.398 3.92 15.538 5.18-.14.418-5.32 3.358-9.938 1.258-4.62-2.1-47.175-28.276-47.175-28.276l72.508-19.878 2.66.98z"/><path d="M497.904 132.268c-6.376 0-6.552 5.674-6.552 5.674s-.526.41-.175 3.16c1.052-1.873 1.58-2.458 1.58-2.458.7.118 3.626.995 8.248-2.632-4.213 4.387-1.697 6.025-1.697 6.025s-.994 3.452 2.223 4.154c-.993-1.403-.408-2.632-.408-2.632s4.504-.467 4.212-5.966c.175 4.972 2.866 6.2 2.866 6.2s0 2.75 2.925 2.984c-1.58-1.404-1.23-3.57-1.23-3.57s3.804-2.748.586-7.428c1.932-1.112 3.512-4.212 3.512-4.212s-2.633-1.112-3.86-2.047c-.587-1.23-.06-7.958-.06-7.958l-1.58-8.716-4.504 13.572c.175-1.93.292 5.85-6.084 5.85z"/><path d="M529.398 112.69c.14.14 4.76 5.32 9.24 5.04 1.678-1.4-3.5-4.48-3.5-5.18 1.818 1.68 9.517 8.258 14.417 5.88 1.96-2.8-3.5-2.38-9.52-9.94 4.2 2.8 14.7 8.96 19.6 6.58 2.1-2.24-10.92-9.24-15.26-14.7l-11.198-5.738-15.258 12.46 11.478 5.597z"/><path d="M512.178 70.137s5.18-3.08 25.897-1.54c2.24.28 14.138-4.06 17.917-5.32 6.02-1.12 25.197-5.318 30.377-9.238 3.638-.42-.982 6.718-5.6 8.398-4.9 2.24-22.678 8.4-28.978 7.56 7.56.14 3.36 6.3-9.238 3.36 6.02 3.36 3.78 3.92 3.78 3.92s-10.64.56-13.44-1.82c7.14 2.66 4.2 3.638 4.2 3.638s-7.278.7-10.638-.84c5.18 1.54 2.52 2.52 2.52 2.52s-4.2.7-7.7-.56c-3.498-1.26-8.818-10.078-9.098-10.078z"/><path d="M520.484 115.593l.76 13.69s-.41.7-.76 1.11c-.35.41-9.71-1.462-8.424 5.675 0 2.925.06 3.685 2.048 5.324-.527-1.93-.35-3.276-.35-3.276s2.63 1.58 5.205-2.75c-1.754 4.27-.527 5.792-.117 5.91.41.76-.7 4.21 2.808 4.152-1.345-1.287-.7-3.16-.7-3.16s3.684-.583 2.397-7.253c1.347-1.345 1.873-.058 1.873-.058s.41 3.978 3.627 3.16c1.463.818-.234 2.982-.234 2.982s2.34.058 3.042-1.93c.702-1.99 1.52-5.56-2.34-7.02-.468-1.405 1.52-1.522 1.52-1.522s2.458.82 3.16 2.047c.702 1.23.468-3.217-2.574-3.685-3.744-.118-3.978-.878-3.978-1.053 0-.176-.643-9.945-.936-12.753l-6.026.41z"/><path d="M533.51 127.256c.045-.627-6.388-9.288-4.756-10.408 1.63.336 4.307 4.275 6.474 2.996-.657-1.535-2.593-.67-4.792-4.6-2.198-4.446-2.52-11.117-10.218-18.394 4.985 7.7 16.292 12.215 16.77 9.97s-9.956-10.738-9.42-12.784c2.074 4.203 12.552 13.567 20.272 12.79.53-1.8-6.322-5.44-8.085-8.838-4.932-3.313-18.13-14.69-18.393-17.326-4.802-7.004-7.8-9.123-9.196-9.93-.54-.636-.675-1.243-.78-1.63-2.982-7.028.967-9.31 3.278-9.647 1.902-.212 2.454.073 3.823-.59-1.62-.634-3.24-1.227-4.86-1.86 2.112 1.55 7.51.185 6.34 4.65 2.365-.902 7.4-6.892-5.707-8.243-4.266-4.894-21.803-7.706-26.193 13.65.35.3.534.547 1.65 1.38-5.543-2.68-20.48-4.75-25.86-5.62-14.548-4.195-29.652-14.308-31.104-13.064-1.942.862 8.787 10.844 8.23 11.065-9.304-5.424-17.803-9.267-25.71-12.765-5.565-2.08-11.137-6.922-11.752-6-2.046 4.24 8.92 14.904 10.96 16.157 2.04 1.2 18.086 8.643 17.85 8.736-24.166-10.968-28.218-12.957-29.43-14.22-2.13-.48-7.32-7.486-8.766-7.036-.79.777.797 11.847 12.33 16.816 1.878 1.37 24.718 9.563 24.493 10.205-.055.16-26.158-10.773-27.173-11.164-5.032-1.973-11.207-8.89-12.362-8.112-1.102.706 2.847 8.193 7.932 10.54 2.666 1.178 12.89 6.242 22.102 9.465.588.212-16.558-6.502-24.802-9.947-3.737-2.075-5.498-4.66-6.067-4.104-.842.556 1.36 11.616 27.852 17.857.697.296 9.324-2.045 8.897-1.734-.106.078-8.566 1.92-9.39 1.856-.733-.112-5.368.55-5.452.79-.28.747 1.68 4.708 15.358 3.882 1.748-.105 11.238-3.456 10.44-2.735-.398.36-12.922 4.43-13.875 4.51-.828.116-5.228.576-5.39 1.044-.2.638 3.256 3.457 10.6 3.91 6.505.344 18.864-3.975 18.616-3.695-.248.28-11.914 4.276-12.22 4.52-.422.238-4.693.47-4.843.798-.347.816 6.163 6.904 25.416.407-1.934 2.613-11.266 4.4-11.253 4.87-.043.34 2.056 2.37 5.32 3.096 1.63.364 3.864.29 5.904-.033 3.665-.733 7.527-2.183 12.434-6.718.587 1.422-12.257 7.922-11.654 8.542 2.785 2.582 12.036-.333 12.642-.672.607-.34 17.815-10.043 17.756-11.166.267 1.44-22.186 13.64-21.944 14.14 1.442 2.3 9.112-.12 9.478-.332.366-.21 9.79-5.3 10.047-5.45.258-.15-11.074 6.63-10.065 7.664-.488 4.404 17.698-3.04 19.123-3.967.713-.465-8.736 4.153-8.76 6.347 3.042 5.144 12.784 3.512 14.287 2.38.752-.565-.884 3.823-.357 3.424.183-.08 2.12-2.37 2.863-4.026-.237 1.437-1.305 3.7-1.93 6.3-.623 2.597-.8 5.53-1.658 8.643-.196 1.368 6.004-2.675 5.103-12.34.532 5.028-1.957 14.428-1.305 14.916 1.302.978 4.903-4.68 5.267-8.508 1.07 1.933 3.313 5.968 5.244 6.896-.21-2.923.037-2.79-.832-5.663.5-3.815.57-9.095.692-15.058 5.246 10.05 7.34 14.293 5.873 21.99 1.56.65 4.05-5.373 3.85-8.472 2.003 8.613 10.65 9.904 10.788 9.654z"/><path d="M446.126 63.454s-3.57 2.698-8.015 2.54c1.112 4.443 10.317 1.03 10.317 1.03s-4.444 4.92-7.618 5.714c1.903 1.587 9.918 1.03 11.267.238 1.348-.794 3.73-3.888 3.73-3.888s-8.253 9.522-9.444 9.442c-.16 1.11 8.65.714 10.475-.952 1.825-1.666 6.427-4.126 6.427-4.126s-12.06 8.41-12.617 8.41c4.523 1.19 13.57-1.428 19.362-4.998-8.57 5.713-9.363 6.744-13.728 8.648 3.89.873 5.872 3.492 19.045-2.22 7.538-3.572 11.822-10.08 11.822-10.08-4.682 6.27-12.062 11.586-20.234 16.823-.477.953 8.727 4.84 20.47-7.38"/><path d="M509.924 89.955s.793 3.73 3.967 6.587c3.176 2.856 3.414 5.633 3.414 5.633"/><path d="M508.34 65.675s1.11 3.333 4.363 5.476c3.333 2.143 8.333 8.888 8.73 10.078.383 1.44 2.3 11.824 2.14 12.934"/><path d="M488.104 70.833c.238 1.27-4.682 7.697 2.063 15.235-6.11 7.458-6.11 8.41-6.11 8.41s3.412 1.905 9.522-3.332c10.076 12.38 6.718 18.044 6.718 18.044"/><path d="M499.495 100.453s-.928-1.33.727-6.295c1.49 1.795 3.147 2.178 3.874 2.905.726.727 8.335 1.828 8.82 6.913"/><path d="M508.437 53.844c0-.374-1.532-3.66-7.248.448 3.062.187 6.088 1.943 7.247-.448z"/><path d="M562.993 68.877c.28.14 17.078 3.78 22.677 1.96-7.14 9.52-21.418 3.08-21.418 3.08 7 2.1 7.28 1.96 9.52 3.92.7 1.82-12.88.98-17.36-1.54 12.46 3.92 12.74 3.64 13.16 5.18.56 2.098-20.438-.56-22.257-3.36 5.6 4.338 8.68 5.178 11.758 7.138-3.78 1.68-10.778 3.36-23.657-5.74 16.938 15.4 32.196 14.42 34.576 17.218-5.88 8.68-28.697-5.18-39.195-12.178-10.5-7 22.957 16.937 26.037 16.517-1.54 2.38-12.6.28-13.3-.84"/><path d="M567.334 84.975c-1.96.28-7.838.28-8.678.14"/><path d="M441.206 60.914s12.776 6.745 18.17 6.27c-1.427 1.348-3.57 1.903-3.57 1.903 1.35.556 5.08 2.54 10.713 1.27-1.35 1.35-3.096 2.857-3.096 2.857s4.84 1.825 10.316-1.032c-1.666 2.063-2.62 3.57-2.62 3.57l3.81.24"/></g></g></svg>