<svg xmlns="http://www.w3.org/2000/svg"><defs><font horiz-adv-x="1073"><font-face units-per-em="2048" ascent="1536" descent="-512"/><glyph unicode="ﬁ" horiz-adv-x="1120" d="M57 922v49q0 27 29 30l111 7h18v159q0 265 381 265h293q29 0 29-31v-60q0-17-7-23.5t-22-6.5H596q-129 0-184.5-40.5T356 1153v-145h572q17 0 23.5-7t6.5-24V31q0-16-6-23.5T930 0h-84q-29 0-29 31v860H356V31q0-31-28-31h-84q-29 0-29 31v860H86q-29 0-29 31z"/><glyph unicode="ﬂ" horiz-adv-x="1120" d="M57 922v49q0 27 29 30l111 7h18v159q0 265 381 265h332q17 0 23.5-7t6.5-24V31q0-16-6-23.5T930 0h-84q-29 0-29 31v1280H596q-129 0-184.5-40.5T356 1153v-145h224q30 0 30-29v-57q0-31-30-31H356V31q0-31-28-31h-84q-29 0-29 31v860H86q-29 0-29 31z"/><glyph unicode="ﬃ" horiz-adv-x="1732" d="M66 922v49q0 27 28 30l113 7h16v168q0 264 383 264h12q31 0 31-31v-59q0-31-31-31h-12q-130 0-184.5-40.5T367 1161v-153h458v159q0 265 383 265h291q17 0 24-7t7-24v-60q0-17-7-23.5t-24-6.5h-291q-130 0-184.5-40.5T969 1153v-145h569q33 0 33-31V31q0-31-29-31h-84q-31 0-31 31v860H969V31q0-31-31-31h-82q-31 0-31 31v860H367V31q0-31-29-31h-84q-31 0-31 31v860H94q-28 0-28 31z"/><glyph unicode="ﬄ" horiz-adv-x="1732" d="M66 922v49q0 27 30 30l111 7h18v168q0 264 381 264h12q17 0 24-7t7-24v-59q0-17-7-24t-24-7h-12q-130 0-184.5-40.5T367 1161v-153h458v159q0 265 385 265h328q33 0 33-31V31q0-31-29-31h-82q-30 0-30 31v1280h-220q-131 0-186-40.5T969 1153v-145h223q31 0 31-29v-57q0-31-31-31H969V31q0-31-31-31h-82q-31 0-31 31v860H367V31q0-31-29-31h-84q-29 0-29 31v860H96q-30 0-30 31z"/><glyph horiz-adv-x="0"/><glyph horiz-adv-x="682"/><glyph horiz-adv-x="458"/><glyph horiz-adv-x="458"/><glyph horiz-adv-x="458"/><glyph unicode="!" horiz-adv-x="520" d="M186 31v159q0 31 31 31h86q29 0 29-31V31q0-31-29-31h-86q-17 0-24 7t-7 24zm0 768v563q0 31 29 31h90q29 0 29-31V799l-15-437q0-30-28-30h-62q-28 0-28 30z"/><glyph unicode="&quot;" horiz-adv-x="751" d="M162 1362q0 31 31 31h81q29 0 29-31l-12-350q0-31-29-31h-57q-17 0-24 7t-7 24zm284 0q0 31 31 31h82q31 0 31-31l-12-350q0-17-7-24t-24-7h-58q-15 0-21.5 7t-6.5 24z"/><glyph unicode="#" horiz-adv-x="1337" d="M170 479v45q0 29 29 29h168l61 223H285q-31 0-31 31v47q0 29 31 29h174l55 196q10 31 37 31h61q31 0 23-31l-55-196h311l55 196q10 31 37 31h61q31 0 23-31l-55-196h125q30 0 30-29v-47q0-31-30-31H981l-61-223h133q28 0 28-29v-45q0-30-28-30H889l-53-193q-10-33-35-33h-64q-32 0-22 33l55 193H457l-54-193q-10-33-36-33h-62q-32 0-22 33l53 193H199q-29 0-29 30zm315 74h314l63 223H549z"/><glyph unicode="$" horiz-adv-x="1083" d="M168 406v55q0 28 29 28h75q27 0 27-28v-49q0-62 61-95.5T539 283q116 0 178.5 33.5T780 412v75q0 43-31.5 69.5T659 602L344 707q-62 21-110 74t-48 124v80q0 93 70 157t221 75v145q0 31 31 31h84q29 0 29-31v-148q141-14 208.5-77T897 985v-59q0-27-29-27h-75q-27 0-27 27v59q0 127-227 127-224 0-224-127v-53q0-43 32-71.5t73-41.5l315-102q80-26 128-76t48-119V406q0-89-72.5-151.5T621 178V31q0-31-29-31h-84q-31 0-31 31v145q-155 10-232 74t-77 156z"/><glyph unicode="%" horiz-adv-x="1589" d="M170 989v223q0 195 276 195 277 0 277-195V989q0-194-277-194-276 0-276 194zm119 4q0-100 157-100 158 0 158 100v215q0 101-158 101-157 0-157-101V993zM416 11q-4 11 2 20l622 1331q16 31 43 31h70q14 0 18.5-9.5t-2.5-21.5L549 31Q536 0 506 0h-74q-12 0-16 11zm450 165v223q0 195 279 195 276 0 276-195V176q0-194-276-194-279 0-279 194zm121 6q0-102 158-102 155 0 155 102v213q0 101-155 101-158 0-158-101V182z"/><glyph unicode="&" horiz-adv-x="1376" d="M176 276v226q0 96 41 153.5T367 739q-99 25-138 80.5T190 967v149q0 66 18.5 116t62.5 91.5 125.5 63.5 199.5 22 200.5-22.5 126.5-65 62.5-93T1004 1112v-45q0-29-31-29h-84q-29 0-29 29v27q0 96-58.5 145T596 1288t-204.5-49-57.5-145V987q0-98 57-144t211-46h660q30 0 30-31v-61q0-29-30-29h-154V281q0-64-24.5-116t-77-93.5T861 7 641-16 421.5 6t-145 63-76.5 92-24 115zm143 23q0-195 324-195 165 0 244.5 51T967 299v377H588q-154 0-211.5-46.5T319 485V299z"/><glyph unicode="'" horiz-adv-x="464" d="M162 1362q0 31 31 31h81q29 0 29-31l-12-350q0-31-29-31h-57q-17 0-24 7t-7 24z"/><glyph unicode="(" horiz-adv-x="724" d="M176-182v1368q0 264 383 264h12q31 0 31-31v-59q0-31-31-31h-12q-129 0-182-40.5T324 1171V-168q0-77 53-117.5T559-326h12q31 0 31-30v-60q0-30-31-30h-12q-383 0-383 264z"/><glyph unicode=")" horiz-adv-x="724" d="M123-356q0 17 7 23.5t24 6.5h10q130 0 183.5 40.5T401-168v1339q0 77-53.5 117.5T164 1329h-10q-17 0-24 7t-7 24v59q0 17 7 24t24 7h10q383 0 383-264V-182q0-264-383-264h-10q-17 0-24 6.5t-7 23.5v60z"/><glyph unicode="*" horiz-adv-x="1044" d="M187.5 1223.5q-2.5 8.5 5.5 23.5l20 41q15 27 41 10l229-147-10 272q0 31 29 31h45q28 0 28-31l-12-272 228 147q30 18 43-10l18-41q7-13 4.5-21.5T840 1208l-230-129 230-125q24-14 12-41l-18-39q-13-28-43-10l-226 146 10-262q0-17-6.5-24t-21.5-7h-45q-29 0-29 31l8 264-227-148q-26-17-41 13l-20 36q-15 26 12 41l229 125-229 129q-15 7-17.5 15.5z"/><glyph unicode="+" horiz-adv-x="1185" d="M162 664v61q0 17 7 24t24 7h337v338q0 32 29 32h62q28 0 28-32V756h344q31 0 31-31v-61q0-31-31-31H649V293q0-29-28-29h-62q-29 0-29 29v340H193q-31 0-31 31z"/><glyph unicode="," horiz-adv-x="450" d="M33.5-88Q37-80 53-74q57 25 79 57.5T154 66v124q0 31 28 31h88q29 0 29-31V59q0-187-207-249-28-9-37 18l-20 59q-5 17-1.5 25z"/><glyph unicode="-" horiz-adv-x="933" d="M162 563v60q0 28 31 28h548q31 0 31-28v-60q0-31-31-31H193q-31 0-31 31z"/><glyph unicode="." horiz-adv-x="452" d="M154 31v159q0 31 30 31h86q29 0 29-31V31q0-31-29-31h-86q-17 0-23.5 7T154 31z"/><glyph unicode="/" horiz-adv-x="755" d="M82-272l442 1673q9 31 35 31h92q32 0 23-31L233-272q-5-16-12.5-23.5T197-303h-93q-14 0-20 9t-2 22z"/><glyph unicode="0" horiz-adv-x="1110" d="M133 283v827q0 65 20 116.5t66 94 131 65.5 205 23q424 0 424-299V283q0-299-424-299-120 0-205 23T219 72.5t-66 94T133 283zm146 22q0-96 61-146t215-50q153 0 214.5 50T831 305v782q0 96-61.5 146.5T555 1284q-154 0-215-50t-61-147V305z"/><glyph unicode="1" horiz-adv-x="1110" d="M150 31v65q0 29 30 29h328v1114l-326-76q-14-3-22 3.5t-8 21.5v69q0 28 30 35l443 107q28 5 28-27V125h324q31 0 31-29V31q0-31-31-31H180q-30 0-30 31z"/><glyph unicode="2" horiz-adv-x="1110" d="M150 993v117q0 52 11 94.5t39.5 81.5 74 65.5 119 42T563 1409q120 0 205-23t130.5-65.5 65-93.5 19.5-117V883q0-58-19-105t-49-76-58.5-45.5T799 631L451 520q-136-39-136-135V125h643q31 0 31-29V31q0-31-31-31H199q-29 0-29 31v395q0 36 13 65.5t30 48 43 34 43 22.5 39 14l381 127q18 6 35.5 15t38 25.5 33 43.5 12.5 60v206q0 98-60.5 148.5T563 1286q-151 0-211.5-50.5T291 1087v-94q0-32-29-32h-82q-17 0-23.5 7t-6.5 25z"/><glyph unicode="3" horiz-adv-x="1110" d="M127 281v45q0 28 29 28h84q28 0 28-28v-27q0-95 63.5-145T545 104q149 0 211.5 50T819 299v186q0 48-11.5 81.5t-41 59-82.5 38T551 676H369q-31 0-31 29v61q0 17 7 24t24 7h170q153 0 209.5 46T805 987v107q0 96-57.5 145T543 1288t-205.5-49-58.5-145v-27q0-29-29-29h-84q-29 0-29 29v45q0 66 18.5 116.5t62.5 93 126.5 65T545 1409t199-22 124.5-63.5T930 1232t18-116V967q0-93-38-148t-138-80q109-26 150-83.5T963 502V276q0-65-20-115.5T877.5 69t-129-63T547-16q-420 0-420 297z"/><glyph unicode="4" horiz-adv-x="1110" d="M96 471v59q0 15 6 33l287 799q12 31 37 31h86q33 0 23-31L248 565h545v797q0 31 30 31h88q29 0 29-31V31q0-31-29-31h-88q-30 0-30 31v409H127q-31 0-31 31z"/><glyph unicode="5" horiz-adv-x="1110" d="M152 279v45q0 17 6.5 23.5T182 354h82q31 0 31-30v-25q0-99 55.5-147T557 104q103 0 161.5 24.5t78.5 65T817 299v258q0 172-266 172H215q-29 0-29 31v602q0 31 29 31h684q31 0 31-31v-64q0-30-31-30H332V850h221q204 0 308-73t104-202V279q0-66-18-116.5t-61.5-93-126-65T557-18Q438-18 356 4.5t-125 65-61 93T152 279z"/><glyph unicode="6" horiz-adv-x="1110" d="M145 283v837q0 289 410 289 406 0 406-289v-37q0-30-31-30h-82q-17 0-23 7t-6 23v19q0 85-58 135.5T555 1288q-77 0-131-14.5t-82.5-41-40.5-58-12-72.5V727q72 102 286 102 400 0 400-299V283q0-52-11-94.5T924 107t-75-65.5-119.5-42T559-16Q463-16 389.5-.5t-119 42T196 107t-40 81.5-11 94.5zm144 18q0-97 59-147t211-50q79 0 133.5 13.5t84 40.5 42 61.5T831 301v211q0 47-12.5 81.5t-42 61.5-84 40.5T559 709q-146 0-208-46.5T289 528V301z"/><glyph unicode="7" horiz-adv-x="1110" d="M106 1298v64q0 31 33 31h840q29 0 29-31v-62q0-5-7-26L477 31Q465 0 440 0H340q-35 0-23 31l525 1237H139q-18 0-25.5 6.5T106 1298z"/><glyph unicode="8" horiz-adv-x="1110" d="M141 283v221q0 92 45.5 151.5T342 741q-103 25-143.5 83.5T158 977v133q0 53 9 94.5t35 81 69.5 65.5 115 42 168.5 16 168.5-16 115-42 69.5-65.5 35-81 9-94.5V977q0-94-41-152.5T766 741q110-26 156.5-85.5T969 504V283q0-66-18.5-116.5t-63-93.5T759 7 555-16 351 7 222.5 73t-63 93.5T141 283zm146 18q0-98 57.5-147.5T555 104q152 0 211 50t59 147v182q0 48-12 82.5t-42 61-83.5 40T555 680q-80 0-133.5-13.5T339 626t-40.5-61-11.5-82V301zm14 696q0-49 10-82.5t36.5-61 78-41T555 799t129.5 13.5 78.5 41 37.5 61T811 997v95q0 48-10.5 81.5T763 1234t-78.5 40.5T555 1288t-129.5-13.5-78-40.5-36.5-60.5-10-81.5v-95z"/><glyph unicode="9" horiz-adv-x="1110" d="M135 862v248q0 66 18.5 116.5T217 1320t129 66 205 23q120 0 204-23t128.5-66 63-93.5T965 1110V272q0-288-410-288-403 0-403 288v37q0 31 28 31h84q29 0 29-31v-18q0-40 11-71t38.5-58.5T424 119t131-15q78 0 131.5 14.5T768 160t39.5 58.5T819 291v373q-71-101-287-101-397 0-397 299zm144 19q0-47 12.5-81.5t42-61.5 84-40.5T551 684q147 0 207.5 47T819 870v222q0 47-12 81t-41 61-82.5 40.5T551 1288t-133.5-13.5-84-40.5-42-61-12.5-81V881z"/><glyph unicode=":" horiz-adv-x="452" d="M154 31v159q0 31 30 31h86q29 0 29-31V31q0-31-29-31h-86q-30 0-30 31zm0 788v162q0 31 30 31h86q29 0 29-31V819q0-28-29-28h-86q-30 0-30 28z"/><glyph unicode=";" horiz-adv-x="552" d="M135-113q-10 26 19 39 59 27 80.5 58.5T256 66v124q0 31 31 31h84q28 0 28-31V59q0-184-204-249-28-9-39 18zm121 932v162q0 31 31 31h84q28 0 28-31V819q0-28-28-28h-84q-17 0-24 6.5t-7 21.5z"/><glyph unicode="<" horiz-adv-x="1103" d="M162 651v92q0 19 28 33l721 326q13 6 22-2t9-25v-82q0-12-7-18.5T911 961L303 696l608-264q16-7 23.5-14t7.5-19v-82q0-38-31-26L190 616q-21 11-25 19-3 7-3 16z"/><glyph unicode="=" horiz-adv-x="1204" d="M162 465v61q0 29 31 29h819q17 0 23.5-7t6.5-22v-61q0-15-6.5-22t-23.5-7H193q-31 0-31 29zm0 366v62q0 29 31 29h819q17 0 23.5-7t6.5-22v-62q0-17-6.5-23.5T1012 801H193q-31 0-31 30z"/><glyph unicode=">" horiz-adv-x="1103" d="M162 315v82q0 16 7 23t24 14l608 262-608 262q-16 7-23.5 14t-7.5 21v84q0 18 8 25.5t23 1.5l720-326q29-14 29-35v-92q0-11-4.5-18.5t-9-10.5-15.5-8L193 289q-31-12-31 26z"/><glyph unicode="?" horiz-adv-x="1161" d="M154 993v117q0 299 426 299 424 0 428-299V954q0-182-170-266l-109-53q-102-50-102-146V362q0-30-29-30h-88q-29 0-29 30v160q0 43 13 78t37 58.5 42 35.5 43 25l144 74q102 56 102 157v137q0 97-64.5 148T580 1286q-155 0-220-51t-65-148v-94q0-32-29-32h-82q-17 0-23.5 7t-6.5 25zM481 31v159q0 31 29 31h88q29 0 29-31V31q0-31-29-31h-88q-29 0-29 31z"/><glyph unicode="@" horiz-adv-x="1744" d="M186 113v807q0 62 16 111t61.5 96.5 120 79.5 198.5 51.5 290 19.5 290.5-19.5T1362 1207t120.5-79.5 62-97T1561 920V338q0-270-267-270-182 0-229 131Q905 68 735 68q-239 0-239 217 0 29 2 45l34 346q26 262 277 262 145 0 291-115l10 70q3 16 10.5 22.5t24.5 6.5h72q27 0 24-29l-53-531q-18-186 115-186 66 0 92 46.5t26 131.5v559q0 59-25 101.5t-84.5 77-169.5 52-270 17.5q-159 0-268.5-17.5t-169.5-52-85-77.5-25-101V117q0-58 25-100.5t84.5-77T603-113t269-18h377q31 0 31-29v-59q0-31-31-31H872q-166 0-290 20t-198.5 52.5-120 81-61.5 98T186 113zm449 217q0-59 37-94t116-35q114 0 256 96v31l41 379q-24 20-40 32t-48.5 32-70.5 30-80 10q-163 0-178-160l-29-278q-4-40-4-43z"/><glyph unicode="A" horiz-adv-x="1077" d="M49 31l408 1331q9 31 39 31h88q28 0 37-31L1030 31q2-7 2-12 0-19-26-19h-88q-28 0-37 31L768 395H299L188 31q-9-31-34-31H72Q47 0 47 19q0 5 2 12zm285 481h403L588 991q-18 61-51 248-21-148-52-244z"/><glyph unicode="B" horiz-adv-x="1191" d="M186 31v1331q0 31 29 31h352q443 0 443-287V971q0-180-185-242 242-54 242-252V295Q1067 0 623 0H215q-29 0-29 31zm144 90h293q299 0 299 196v152q0 190-299 190H330V121zm0 653h258q143 0 210.5 52.5T866 973v110q0 94-70.5 141.5T567 1272H330V774z"/><glyph unicode="C" horiz-adv-x="1130" d="M162 283v827q0 299 432 299t432-299v-104q0-33-29-33h-82q-17 0-23.5 7.5T885 1006v81q0 95-67 146t-222 51-222-51-67-146V305q0-95 67-145.5T596 109t222 50.5T885 305v109q0 30 30 30h82q29 0 29-30V283q0-299-432-299T162 283z"/><glyph unicode="D" horiz-adv-x="1232" d="M186 31v1331q0 31 27 31h414q123 0 211.5-23t138-65.5 72-94T1071 1094V299q0-65-22.5-116.5t-72-94-138-65.5T627 0H211q-25 0-25 31zm144 94h297q299 0 299 197v749q0 197-299 197H330V125z"/><glyph unicode="E" d="M186 31v1331q0 31 29 31h698q31 0 31-31v-64q0-30-31-30H330V791h547q17 0 23.5-7t6.5-24v-60q0-17-6.5-23.5T877 670H330V125h608q31 0 31-29V31q0-31-31-31H213q-27 0-27 31z"/><glyph unicode="F" horiz-adv-x="1081" d="M186 31v1331q0 31 29 31h752q30 0 30-31v-64q0-30-30-30H330V788h600q28 0 28-30v-66q0-30-28-30H330V31q0-31-29-31h-86q-29 0-29 31z"/><glyph unicode="G" horiz-adv-x="1161" d="M162 283v827q0 299 432 299t432-299v-98q0-29-29-29h-82q-17 0-23.5 7t-6.5 22v75q0 95-67 146t-222 51-222-51-67-146V305q0-95 67-145.5T596 109q154 0 221.5 50T885 303v242H610q-28 0-28 30v66q0 29 28 29h385q31 0 31-29V283q0-299-432-299T162 283z"/><glyph unicode="H" horiz-adv-x="1257" d="M186 31v1331q0 31 29 31h86q29 0 29-31V799h596v563q0 31 28 31h88q29 0 29-31V31q0-31-29-31h-88q-28 0-28 31v645H330V31q0-31-29-31h-86q-29 0-29 31z"/><glyph unicode="I" horiz-adv-x="516" d="M186 31v1331q0 31 29 31h86q29 0 29-31V31q0-31-29-31h-86q-29 0-29 31z"/><glyph unicode="J" horiz-adv-x="1015" d="M61 283v92q0 33 31 33h84q29 0 29-33v-70q0-96 55-146t193-50 191.5 49.5T698 305v1057q0 31 29 31h86q31 0 31-31V283q0-66-18-116.5T766 73 645 7 453-16Q341-16 262 7T140.5 72.5t-61 94T61 283z"/><glyph unicode="K" horiz-adv-x="1124" d="M184 31v1331q0 31 31 31h86q29 0 29-31V752h63l473 612q22 29 52 29h94q15 0 19.5-8.5t-5.5-22.5L516 707l567-676q6-7 6-14 1-3-1-7-4-10-19-10H954q-24 0-47 31L393 641h-63V31q0-31-29-31h-86q-31 0-31 31z"/><glyph unicode="L" horiz-adv-x="1003" d="M186 31v1331q0 31 29 31h88q29 0 29-31V125h573q29 0 29-29V31q0-31-29-31H211q-25 0-25 31z"/><glyph unicode="M" horiz-adv-x="1486" d="M184 31v1331q0 31 31 31h78q19 0 26-17l388-905q26-63 36-104 12 37 39 102l379 907q6 17 29 17h82q31 0 31-31V31q0-31-31-31h-82q-31 0-31 31v1056q-15-64-41-126L821 244q-12-31-41-31h-75q-27 0-39 31L356 979q-14 32-34 106V31q0-31-29-31h-78q-31 0-31 31z"/><glyph unicode="N" horiz-adv-x="1255" d="M184 31v1331q0 31 31 31h78q17 0 24-13l555-977 62-122v1081q0 31 29 31h77q29 0 29-31V31q0-31-29-31h-77q-21 0-29 14L391 977q-58 101-69 133V31q0-31-29-31h-78q-31 0-31 31z"/><glyph unicode="O" horiz-adv-x="1210" d="M162 283v827q0 65 22.5 116.5t72 94T394 1386t210 23q123 0 212-23t138.5-65.5 72-94T1049 1110V283q0-65-22.5-116.5t-72-94T816 7 604-16Q482-16 394 7T256.5 72.5t-72 94T162 283zm145 22q0-196 297-196 299 0 299 196v782q0 197-299 197-297 0-297-197V305z"/><glyph unicode="P" horiz-adv-x="1159" d="M186 31v1331q0 31 27 31h405q123 0 212-23t138.5-65.5 72-94T1063 1094V838q0-65-22.5-117t-72-94.5-138.5-66T618 537H330V31q0-31-29-31h-86q-29 0-29 31zm144 631h288q300 0 300 198v211q0 197-300 197H330V662z"/><glyph unicode="Q" horiz-adv-x="1208" d="M162 283v827q0 65 22.5 116.5t72 94T394 1386t210 23q123 0 212-23t138.5-65.5 72-94T1049 1110V283q0-113-72-190T743-6l275-252q24-21 4-43l-45-47q-9-12-20-12-10 0-21 10L573-16q-219 6-315 86.5T162 283zm145 20q0-199 297-199 299 0 299 199v787q0 198-299 198-297 0-297-198V303z"/><glyph unicode="R" horiz-adv-x="1208" d="M186 31v1331q0 31 27 31h405q123 0 212-23t138.5-65.5 72-94T1063 1094V864q0-223-254-278l266-555q2-5 2-10-1-7-5-12-8-9-25-9h-86q-5 0-8.5.5t-7 2.5-5.5 3.5-4.5 5-3.5 5-4 7-4 7.5L670 567H330V31q0-31-29-31h-86q-29 0-29 31zm144 659h288q300 0 300 199v182q0 197-300 197H330V690z"/><glyph unicode="S" horiz-adv-x="1157" d="M145 283v112q0 31 29 31h84q29 0 29-31v-94q0-195 295-195 157 0 227 50.5T879 301v127q0 31-10.5 57t-26 43.5-40 33.5-44.5 25.5-49 20.5L342 750q-73 28-125.5 92.5T164 995v115q0 299 422 299 118 0 203.5-23t132.5-65.5 68.5-94T1012 1110v-96q0-31-31-31h-84q-29 0-29 31v78q0 95-64 144.5T588 1286q-154 0-218.5-49.5T305 1092v-62q0-113 119-160l385-145q94-35 153.5-100.5T1022 459V283q0-65-22.5-116.5t-71.5-94T791.5 7 584-16 376.5 7t-137 65.5-72 94.5T145 283z"/><glyph unicode="T" horiz-adv-x="989" d="M37 1298v64q0 17 7 24t24 7h852q30 0 30-31v-64q0-30-30-30H567V31q0-31-28-31h-88q-31 0-31 31v1237H68q-17 0-24 6.5t-7 23.5z"/><glyph unicode="U" horiz-adv-x="1232" d="M174 283v1079q0 31 29 31h88q28 0 28-31V305q0-196 295-196 301 0 301 196v1057q0 31 29 31h86q29 0 29-31V283q0-65-22.5-116.5t-72-94T826 7 614-16Q492-16 404 7T267 72.5t-71 94T174 283z"/><glyph unicode="V" horiz-adv-x="1077" d="M49 1362q-2 7-2 12 0 19 25 19h94q26 0 35-31l293-961q9-31 19.5-79t19-91.5T541 186q31 155 49 211l295 965q9 31 35 31h86q26 0 26-19 0-5-2-12L621 31q-9-31-37-31h-88q-30 0-39 31z"/><glyph unicode="W" horiz-adv-x="1640" d="M47 1362q-2 6-2 12 0 19 27 19h88q26 0 35-31l243-963 33-151q10 63 33 151l246 963q5 16 12.5 23.5t23.5 7.5h82q26 0 35-31l244-963q27-117 33-161 0 41 32 161l246 963q9 31 37 31h76q24 0 24-19 0-5-2-12L1255 31q-9-31-36-31h-86q-28 0-37 31l-248 979q-15 57-27 141-12-73-28-143L545 31q-9-31-39-31h-86q-26 0-35 31z"/><glyph unicode="X" horiz-adv-x="1130" d="M82 11q-1 3-2 7 0 8 6 17l393 676-383 649q-8 12-4.5 22.5T109 1393h102q26 0 45-31l315-531 301 531q17 31 43 31h95q31 0 14-31L643 707l399-676q5-8 5-15 0-2-1-6-4-10-20-10H926q-26 0-45 31L555 580 240 31Q221 0 197 0h-97Q86 0 82 11z"/><glyph unicode="Y" horiz-adv-x="1058" d="M42 1385q5 8 21 8h99q23 0 37-31l301-594q8-17 15-35.5t11-30 4-12.5q0 13 31 78l311 594q16 31 37 31h86q16 0 22-8 3-4 3-9 0-6-4-14L604 567V31q0-31-31-31h-86q-30 0-30 31v520L43 1362q-4 8-4 15 0 4 3 8z"/><glyph unicode="Z" horiz-adv-x="1030" d="M104 31v65q0 14 5 21l628 1151H170q-31 0-31 30v64q0 31 31 31h715q17 0 23.5-7t6.5-24v-64q0-13-6-22L279 125h639q30 0 30-29V31q0-31-30-31H133q-29 0-29 31z"/><glyph unicode="[" horiz-adv-x="749" d="M176-401v1802q0 31 31 31h383q15 0 21.5-7t6.5-24v-64q0-17-6.5-23.5T590 1307H324V-307h266q15 0 21.5-7t6.5-24v-63q0-17-6.5-24t-21.5-7H207q-31 0-31 31z"/><glyph unicode="\" horiz-adv-x="755" d="M82 1401q-9 31 22 31h93q16 0 23.5-7.5T233 1401L674-272q4-13-2.5-22t-20.5-9h-92q-29 0-35 31z"/><glyph unicode="]" horiz-adv-x="749" d="M131-338q0 17 7 24t24 7h264v1614H162q-17 0-24 6.5t-7 23.5v64q0 17 7 24t24 7h381q15 0 21.5-7t6.5-24V-401q0-17-6.5-24t-21.5-7H162q-17 0-24 7t-7 24v63z"/><glyph unicode="^" horiz-adv-x="1140" d="M164 643l325 721q1 1 2 3 11 22 23 25l8 1h92q14 0 21-7t14-22l326-721q6-15-1.5-24t-23.5-9h-84q-12 0-18.5 7.5T834 643l-267 606-262-606q-7-17-14-25t-19-8h-82q-16 0-24 9.5t-2 23.5z"/><glyph unicode="_" horiz-adv-x="886" d="M47-203q0 29 29 29h735q31 0 31-29v-61q0-29-31-29H76q-29 0-29 29v61z"/><glyph unicode="`" horiz-adv-x="677" d="M186.5 1440.5q3.5 9.5 20.5 9.5h90q11 0 19-4.5t11.5-9.5l10.5-15 137-229q8-14 3.5-21.5T461 1163h-70q-23 0-37 19l-161 237q-10 12-6.5 21.5z"/><glyph unicode="a" horiz-adv-x="1034" d="M127 225v103q0 105 69 173t197 68h352v185q0 76-51.5 116.5T514 911q-129 0-181-39t-52-114v-25q0-33-31-33h-74q-29 0-29 33v35q0 260 369 260 200 0 284.5-68T885 768V31q0-31-29-31h-74q-16 0-22 7.5T752 31l-4 73Q597-16 410-16q-137 0-210 68t-73 173zm137 19q0-142 178-142 157 0 303 115v240H420q-156 0-156-148v-65z"/><glyph unicode="b" d="M162 31v1370q0 31 31 31h81q29 0 29-31V907q159 121 348 121 142 0 212.5-70T934 766V246q0-122-70.5-192T651-16q-202 0-350 122l-4-75q-2-16-8.5-23.5T266 0h-73q-31 0-31 31zm141 196q153-114 309-114 94 0 137.5 42T793 266v479q0 69-43.5 111.5T612 899q-160 0-309-117V227z"/><glyph unicode="c" horiz-adv-x="980" d="M139 248v516q0 127 86.5 195.5T512 1028t286.5-68.5T885 764v-39q0-31-31-31h-76q-30 0-30 31v31q0 76-52.5 115.5T514 911t-181-39.5T281 756V258q0-78 52-118t181-40 181.5 40T748 258v45q0 17 6.5 24t23.5 7h76q17 0 24-7t7-24v-55q0-126-87-195T510-16q-200 0-285.5 68.5T139 248z"/><glyph unicode="d" d="M139 246v520q0 122 71 192t214 70q182 0 346-121v494q0 31 29 31h82q30 0 30-31V31q0-31-30-31h-74q-16 0-22.5 7.5T776 31l-4 75Q619-16 424-16q-143 0-214 70t-71 192zm142 20q0-68 43.5-110.5T461 113q156 0 309 114v555Q621 899 461 899q-93 0-136.5-42.5T281 745V266z"/><glyph unicode="e" horiz-adv-x="1007" d="M139 248v516q0 127 87.5 195.5T516 1028q200 0 285.5-68.5T887 764V512q0-29-29-29H279V256q0-77 52-117.5T516 98t185.5 40.5T754 256v35q0 28 28 28h74q31 0 31-28v-43q0-127-86.5-195.5T512-16q-200 0-286.5 68.5T139 248zm140 344h475v164q0 157-238 157-130 0-183.5-41T279 756V592z"/><glyph unicode="f" horiz-adv-x="659" d="M57 922v49q0 27 29 30l111 7h16v176q0 262 383 262h12q31 0 31-29v-61q0-31-31-31h-12q-130 0-185-40.5T356 1169v-161h224q30 0 30-29v-57q0-31-30-31H356V31q0-31-30-31h-82q-31 0-31 31v860H86q-29 0-29 31z"/><glyph unicode="g" d="M139 246v520q0 122 71 192t214 70q196 0 348-125l4 78q2 16 8.5 23.5t22.5 7.5h74q30 0 30-31V-158q0-264-383-264H250q-31 0-31 29v61q0 29 31 29h278q242 0 242 158v247Q610-16 424-16q-143 0-214 70t-71 192zm142 20q0-68 43.5-110.5T461 113q156 0 309 114v555Q621 899 461 899q-93 0-136.5-42.5T281 745V266z"/><glyph unicode="h" horiz-adv-x="1083" d="M162 31v1370q0 31 31 31h81q29 0 29-31V907q146 121 348 121 138 0 210.5-69.5T934 776V31q0-31-29-31h-82q-30 0-30 31v714q0 156-181 156-163 0-309-115V31q0-31-29-31h-81q-31 0-31 31z"/><glyph unicode="i" horiz-adv-x="466" d="M162 31v950q0 31 31 31h81q29 0 29-31V31q0-31-29-31h-81q-31 0-31 31zm0 1179v191q0 31 31 31h81q29 0 29-31v-191q0-30-29-30h-81q-31 0-31 30z"/><glyph unicode="j" horiz-adv-x="464" d="M-121-332q0 29 29 29h14q130 0 185 41t55 117V981q0 31 28 31h84q29 0 29-31V-158q0-264-381-264h-14q-29 0-29 29v61zm283 1542v191q0 31 28 31h84q29 0 29-31v-191q0-30-29-30h-84q-28 0-28 30z"/><glyph unicode="k" horiz-adv-x="940" d="M162 31v1370q0 31 28 31h84q29 0 29-31V623h68l348 358q27 31 49 31h92q17 0 21-9.5t-7-21.5L487 573 922 31q6-7 6-14 0-3-2-7-4-10-19-10h-92q-25 0-49 31L373 514h-70V31q0-31-29-31h-84q-28 0-28 31z"/><glyph unicode="l" horiz-adv-x="466" d="M162 31v1370q0 31 31 31h81q29 0 29-31V31q0-31-29-31h-81q-31 0-31 31z"/><glyph unicode="m" horiz-adv-x="1691" d="M162 31v950q0 31 31 31h73q31 0 31-31l2-76q144 123 340 123 100 0 165.5-37T899 889q31 26 52.5 41.5t69 42.5 107.5 41 129 14q138 0 211.5-69.5T1542 776V31q0-31-31-31h-81q-31 0-31 31v714q0 156-180 156-174 0-299-119 2-10 2-37V31q0-31-29-31h-82q-31 0-31 31v714q0 156-180 156-163 0-297-115V31q0-31-29-31h-81q-31 0-31 31z"/><glyph unicode="n" horiz-adv-x="1083" d="M162 31v950q0 31 31 31h73q16 0 22.5-7.5T297 981l4-78q57 49 145.5 87t204.5 38q138 0 210.5-69.5T934 776V31q0-31-29-31h-82q-30 0-30 31v714q0 156-181 156-163 0-309-115V31q0-31-29-31h-81q-31 0-31 31z"/><glyph unicode="o" horiz-adv-x="1050" d="M139 248v516q0 264 385 264 387 0 387-264V248q0-264-387-264-385 0-385 264zm142 10q0-158 243-158 246 0 246 158v496q0 76-57.5 116.5T524 911q-129 0-186-40.5T281 754V258z"/><glyph unicode="p" d="M162-393V981q0 31 31 31h73q16 0 22.5-7.5T297 981l4-78q152 125 350 125 142 0 212.5-70T934 766V246q0-122-70.5-192T651-16q-193 0-348 118v-495q0-29-29-29h-81q-31 0-31 29zm141 620q153-114 309-114 94 0 137.5 42T793 266v479q0 69-43.5 111.5T612 899q-160 0-309-117V227z"/><glyph unicode="q" d="M139 246v520q0 122 71 192t214 70q191 0 348-125l4 78q2 16 8.5 23.5t22.5 7.5h74q30 0 30-31V-393q0-15-6.5-22t-23.5-7h-82q-17 0-23 6.5t-6 22.5v495Q610-16 424-16q-143 0-214 70t-71 192zm142 20q0-68 43.5-110.5T461 113q156 0 309 114v555Q621 899 461 899q-93 0-136.5-42.5T281 745V266z"/><glyph unicode="r" horiz-adv-x="706" d="M162 31v950q0 31 31 31h73q16 0 22.5-7.5T297 981l6-100q60 56 147 101.5t187 45.5q33 0 33-31v-67q0-31-33-31-101-4-190-47.5T303 762V31q0-31-29-31h-81q-31 0-31 31z"/><glyph unicode="s" horiz-adv-x="952" d="M113 215v55q0 29 28 29h76q27 0 27-29v-49q0-62 61-95.5T483 92t179.5 33.5T725 221v76q0 43-31.5 69.5T604 412L289 516q-62 21-110 74.5T131 715v80q0 102 85 167.5t269 65.5q183 0 270-66t87-167v-60q0-26-29-26h-76q-26 0-26 26v60q0 61-57 94t-171 33q-223 0-223-127v-54q0-43 31.5-71t73.5-41l315-103q81-26 128.5-75.5T856 332V215q0-100-93.5-165.5T483-16q-187 0-278.5 65.5T113 215z"/><glyph unicode="t" horiz-adv-x="710" d="M53 922v49q0 27 29 30l106 7h17v217q0 30 31 30h83q29 0 29-30v-217h230q30 0 30-29v-57q0-31-30-31H348V279q0-77 54-117.5T586 121h35q30 0 30-31V31q0-31-30-31h-54Q463 0 392 17.5t-111.5 53-58 82T205 264v627H82q-29 0-29 31z"/><glyph unicode="u" horiz-adv-x="1071" d="M150 233v748q0 31 28 31h84q29 0 29-31V266q0-155 182-155 159 0 295 112v758q0 31 29 31h84q28 0 28-31V31q0-17-6.5-24T881 0h-76q-17 0-23 6.5T774 31l-4 73Q630-16 434-16q-138 0-211 68t-73 181z"/><glyph unicode="v" horiz-adv-x="884" d="M37 981q-1 5-1 9 0 8 4 13 8 9 23 9h89q24 0 34-31l230-678q19-66 28-127 18 89 31 125l234 680q10 31 34 31h78q17 0 25-8 4-5 4-13 0-5-2-10L518 29q-5-16-12-22.5T485 0h-94q-13 0-19.5 6.5T360 29z"/><glyph unicode="w" horiz-adv-x="1343" d="M37 981q-2 5-2 10-1 9 5 13 8 8 26 8h81q26 0 33-31l193-713q3-15 7-34.5t6-32.5 3-15q0 4 21 82l196 713q10 31 35 31h88q26 0 33-31l184-713 19-80q0 12 20 80l191 713q10 31 34 31h70q15 0 22-9 4-6 4-13 0-4-1-9L1038 29q-5-16-11-22.5T1008 0h-99q-26 0-32 29L696 721q-3 11-20 96l-25-98L455 29Q445 0 422 0h-94q-14 0-21 6.5T295 29z"/><glyph unicode="x" horiz-adv-x="950" d="M60 10q-2 4-2 7 0 6 5 14l328 483L74 981q-9 12-5 21.5t19 9.5h94q22 0 45-31l254-369 244 369q19 31 45 31h82q15 0 19-9.5t-5-21.5L549 510 879 31q5-7 5-14 0-3-2-7-5-10-20-10h-92q-26 0-45 31L461 412 207 31Q188 0 162 0H80Q65 0 60 10z"/><glyph unicode="y" horiz-adv-x="884" d="M37 981q-1 5-1 9 0 7 4 13 8 9 23 9h84q25 0 35-31l232-680q8-25 14.5-54.5t10-48.5 3.5-20q19 76 33 119l234 684q10 31 34 31h78q17 0 25-8 4-6 4-13 0-4-2-10L379-393q-12-31-35-31h-63q-15 0-22 9t-3 22L379-8z"/><glyph unicode="z" horiz-adv-x="929" d="M96 31v57q0 13 8 25l519 780H154q-31 0-31 31v59q0 29 31 29h614q31 0 31-29v-57q0-16-6-25L270 119h527q30 0 30-31V31q0-31-30-31H127Q96 0 96 31z"/><glyph unicode="{" horiz-adv-x="917" d="M115 479v60q0 30 30 30h2q119 0 170.5 41T369 727v459q0 264 381 264h14q29 0 29-31v-59q0-31-29-31h-14q-128 0-182-40.5T514 1171V713q0-163-166-203 166-43 166-205v-473q0-77 54-117.5T750-326h14q15 0 22-6.5t7-23.5v-60q0-17-7-23.5t-22-6.5h-14q-381 0-381 264v475q0 75-51.5 115.5T147 449h-2q-30 0-30 30z"/><glyph unicode="|" horiz-adv-x="516" d="M186-401v1802q0 31 29 31h88q29 0 29-31V-401q0-31-29-31h-88q-29 0-29 31z"/><glyph unicode="}" horiz-adv-x="917" d="M123-356q0 30 31 30h12q129 0 182 40.5T401-168v473q0 162 168 205-168 40-168 203v458q0 77-53 117.5T166 1329h-12q-31 0-31 31v59q0 31 31 31h12q383 0 383-264V727q0-77 51-117.5T770 569h2q15 0 22-6.5t7-23.5v-60q0-17-7-23.5t-22-6.5h-2q-119 0-170-40.5T549 293v-475q0-264-383-264h-12q-31 0-31 30v60z"/><glyph unicode="~" horiz-adv-x="995" d="M162 473l4 57q6 91 46 134t99 43q41 0 101-29l176-92q60-29 86-29 31 0 43 21t12 77v17q0 26 33 26h45q17 0 23-7.5t4-26.5l-5-56q-7-94-45.5-135T688 432q-53 0-113 31l-180 92q-45 25-71 25-32 0-42-18t-16-77l-2-18q-3-27-33-27h-43q-14 0-21 9.5t-5 23.5z"/><glyph unicode="¡" horiz-adv-x="520" d="M186 213l15 436q0 31 28 31h62q28 0 28-31l15-436v-563q0-31-29-31h-90q-29 0-29 31v563zm2 608v160q0 31 29 31h86q17 0 24-7t7-24V821q0-30-31-30h-86q-29 0-29 30z"/><glyph unicode="¢" horiz-adv-x="1083" d="M170 438v516q0 114 70 181.5t231 78.5v148q0 31 31 31h84q28 0 28-31v-148q161-11 231-78.5T915 954v-39q0-30-30-30h-76q-31 0-31 30v31q0 76-52 116t-181 40-181.5-40T311 946V449q0-77 52.5-117.5T545 291t181 40 52 118v45q0 17 7 23.5t24 6.5h76q17 0 23.5-6.5T915 494v-56q0-238-301-262V31q0-31-28-31h-84q-31 0-31 31v145q-162 11-231.5 78.5T170 438z"/><glyph unicode="£" horiz-adv-x="1355" d="M170 31v61q0 29 29 29h120v516H199q-29 0-29 31v61q0 29 29 29h120v364q0 66 17.5 115t60.5 89.5 125 61.5 201 21q97 0 169-14.5t116.5-39 72-62 37.5-78.5 10-93v-59q0-31-28-31h-82q-29 0-29 31v37q0 63-21 101.5t-80.5 60.5-164.5 22q-78 0-129-11.5t-79-36.5-39-57-11-79V758h313q31 0 31-29v-61q0-31-31-31H465V121h412q82 0 127 49.5t45 175.5v12q0 33 28 33h78q31 0 31-33v-12q0-102-20.5-172T1106 67t-85.5-52T911 0H199q-29 0-29 31z"/><glyph unicode="¤" horiz-adv-x="1134" d="M49 553v35q0 30 31 30h94v156H80q-31 0-31 31v37q0 28 31 28h94v240q0 299 432 299t432-299v-104q0-33-28-33h-82q-31 0-31 33v81q0 95-67 146t-222 51-222-51-67-146V870h320q31 0 31-28v-37q0-31-31-31H319V618h320q31 0 31-30v-35q0-31-31-31H319V305q0-95 67-145.5T608 109t222 50.5T897 305v109q0 30 31 30h82q28 0 28-30V283q0-299-432-299T174 283v239H80q-31 0-31 31z"/><glyph unicode="¥" horiz-adv-x="1323" d="M175 1385q6 8 22 8h98q23 0 37-31l301-594q8-17 15-35.5t11.5-30T664 690q0 3 11 32t19 46l312 594q5 10 8.5 15.5t11 10.5 16.5 5h86q16 0 22-8t-1-23L903 887h146q17 0 23.5-7t6.5-22v-37q0-30-30-30H852l-80-156h277q17 0 23.5-7t6.5-22v-37q0-17-6.5-23.5T1049 539H737V31q0-31-30-31h-86q-31 0-31 31v508H276q-15 0-21.5 6.5T248 569v37q0 29 28 29h271l-80 156H276q-28 0-28 30v37q0 29 28 29h142l-242 475q-7 15-1 23z"/><glyph unicode="¦" horiz-adv-x="466" d="M162 287q0 30 31 30h81q29 0 29-30v-688q0-31-29-31h-81q-31 0-31 31v688zm0 387v688q0 31 31 31h81q29 0 29-31V674q0-31-29-31h-81q-31 0-31 31z"/><glyph unicode="§" horiz-adv-x="1124" d="M186-145q0 17 7 23.5t22 6.5h74q17 0 23.5-6.5T319-145v-33q0-75 55-115.5T559-334t185 40.5T799-176v166q0 28-14 50t-40 36.5-42 21-39 13.5l-277 79q-67 19-124.5 77.5T205 416v207q0 17 6.5 23.5T233 653h76q15 0 22-6.5t7-23.5V428q0-54 38-86t79-43l288-84q24-7 47.5-17t51.5-28.5 49-41T926 71t14-75v-162q0-266-379-266-201 0-288 67.5T186-172v27zm0 1126v164q0 264 377 264 201 0 289-67t88-193v-25q0-17-7-23.5t-24-6.5h-73q-15 0-22 6.5t-7 23.5v31q0 76-54.5 115T567 1309q-130 0-185.5-39.5T326 1155V989q0-28 14.5-50t41-36.5 42-21T463 868l274-82q30-8 59.5-25.5t58.5-44 47-67.5 18-88V354q0-30-29-30h-74q-29 0-29 30v195q0 54-37.5 86T672 678l-289 86q-32 9-61.5 23.5t-62.5 39-53 64.5-20 90z"/><glyph unicode="¨" horiz-adv-x="663" d="M166 1210v199q0 31 31 31h51q28 0 28-31v-199q0-28-28-28h-51q-31 0-31 28zm221 0v199q0 31 29 31h51q29 0 29-31v-199q0-28-29-28h-51q-29 0-29 28z"/><glyph unicode="©" horiz-adv-x="1490" d="M186 350v692q0 62 11.5 111t47.5 99 96 82.5 162.5 53.5 241.5 21q116 0 207-13.5t151-40 101-59 62.5-76 30-85.5 8.5-93V350q0-51-8.5-93t-30-85.5T1204 96t-101-58.5-151-40T745-16Q606-16 503.5 4.5T341 58t-96 82.5-47.5 98.5T186 350zm107-16q0-58 22-102t72-79.5 140-54T745 80q102 0 180.5 12.5T1055 127t83.5 54.5 46 69.5 13.5 83v727q0 57-22.5 101.5t-73 79.5-140.5 54-217 19q-128 0-218-19t-140-54.5-72-80-22-102.5V334zm158 186v350q0 62 13 106.5t44.5 79.5 90.5 52.5 146 17.5q88 0 147-17.5t91-52.5 44.5-79.5T1040 870v-30q0-17-6.5-24t-21.5-7h-68q-17 0-24 7t-7 24v28q0 79-34 117.5T745 1024q-99 0-132-38t-33-118V524q0-81 32.5-119T745 367t134 38.5T913 524v43q0 33 31 33h68q28 0 28-33v-47q0-62-12.5-106.5T983 334t-91-52.5T745 264q-87 0-146 17.5T508.5 334 464 413.5 451 520z"/><glyph unicode="ª" horiz-adv-x="720" d="M125 928v59q0 64 44 106t124 42h196v112q0 82-122 82-125 0-125-82v-16q0-21-21-21h-61q-21 0-21 21v20q0 158 230 158 227 0 227-162V813q0-22-21-22h-57q-12 0-16 5t-6 17l-4 39q-87-72-195-72-86 0-129 41t-43 107zm106 14q0-80 95-80 52 0 95.5 21t67.5 43v133H313q-40 0-61-21.5T231 981v-39z"/><glyph unicode="«" horiz-adv-x="1189" d="M164 461v84q0 17 26 39l379 284q11 10 21 5.5t10-21.5v-88q0-11-5.5-20t-9.5-12.5-16-12.5L279 502l290-215q31-23 31-47v-88q0-14-11-19.5t-20 2.5L190 420q-26 22-26 41zm426 0v84q0 17 26 39l379 284q11 10 21 5.5t10-21.5v-88q0-11-5.5-20t-9.5-12.5-16-12.5L705 502l290-215q31-23 31-47v-88q0-14-11-19.5t-20 2.5L616 420q-26 22-26 41z"/><glyph unicode="¬" horiz-adv-x="776" d="M156 643q0 95 67 163t162 68q96 0 163.5-67.5T616 643q0-95-67-162t-164-67q-95 0-162 67t-67 162z"/><glyph unicode="­" horiz-adv-x="933" d="M162 563v60q0 28 31 28h548q31 0 31-28v-60q0-31-31-31H193q-31 0-31 31z"/><glyph unicode="®" horiz-adv-x="1273" d="M186 760v366q0 283 453 283 114 0 199-18.5t132-46 75-68 36.5-75 8.5-75.5V760q0-41-8.5-75.5t-36.5-75-75-68-132-46T639 477q-453 0-453 283zm99-8q0-187 354-187 352 0 352 185v385q0 184-352 184-354 0-354-184V752zm153-66v502q0 22 23 22h201q112 0 157-43t45-108v-47q0-103-98-135l80-191q3-9-3-15.5t-18-6.5h-59q-17 0-23 22l-75 176H539V686q0-22-21-22h-59q-21 0-21 22zm101 252h112q54 0 82.5 22.5T762 1016v37q0 36-28 58t-83 22H539V938z"/><glyph unicode="¯" horiz-adv-x="851" d="M139 1253v52q0 28 29 28h516q31 0 31-28v-52q0-30-31-30H168q-15 0-22 6.5t-7 23.5z"/><glyph unicode="°" horiz-adv-x="829" d="M131 1014v198q0 94 64.5 144.5T416 1407q154 0 218-50.5t64-144.5v-198q0-94-64-144.5T416 819q-156 0-220.5 50.5T131 1014zm123 6q0-102 162-102t162 102v188q0 101-162 101t-162-101v-188z"/><glyph unicode="±" horiz-adv-x="1185" d="M162 223v60q0 17 7 23.5t24 6.5h800q31 0 31-30v-60q0-30-31-30H193q-17 0-24 6.5t-7 23.5zm0 527v61q0 29 31 29h337v250q0 30 29 30h62q28 0 28-30V840h344q31 0 31-29v-61q0-31-31-31H649V467q0-31-28-31h-62q-29 0-29 31v252H193q-17 0-24 7t-7 24z"/><glyph unicode="²" horiz-adv-x="765" d="M121 1153v70q0 186 258 186 262 0 262-186v-125q0-69-34.5-107.5T530 938l-217-78q-67-19-67-61V655h379q22 0 22-22v-47q0-23-22-23H156q-21 0-21 23v231q0 26 9 46t26 32.5 29 19 32 13.5l234 84q67 21 67 80v116q0 109-153 109-81 0-114.5-28t-33.5-81v-55q0-25-22-25h-66q-22 0-22 25z"/><glyph unicode="³" horiz-adv-x="763" d="M121 737v31q0 20 22 20h66q22 0 22-20v-14q0-54 35-81.5T381 645q81 0 116 27.5t35 81.5v98q0 55-32 80.5T385 958H281q-25 0-25 23v45q0 23 25 23h94q84 0 115.5 25.5T522 1155v57q0 55-31 82t-110 27q-81 0-113-27.5t-32-81.5v-14q0-20-21-20h-65q-23 0-23 20v31q0 84 56 133t198 49q140 0 197-49t57-133v-88q0-54-23-86.5t-80-46.5q62-18 86.5-53.5T643 864V735q0-180-260-180-262 0-262 182z"/><glyph unicode="´" horiz-adv-x="677" d="M198 1170.5q-5 7.5 3 21.5l137 229q18 29 41 29h90q17 0 20.5-9.5T483 1419l-161-237q-14-19-37-19h-68q-14 0-19 7.5z"/><glyph unicode="µ" horiz-adv-x="1071" d="M150-391V981q0 31 28 31h84q29 0 29-31V266q0-155 182-155 159 0 295 112v758q0 31 29 31h84q28 0 28-31V31q0-17-6.5-24T881 0h-76q-17 0-23 6.5T774 31l-4 73Q630-16 434-16q-93 0-151 45l8-420q0-31-29-31h-84q-15 0-21.5 7t-6.5 24z"/><glyph unicode="¶" horiz-adv-x="1320" d="M186 846v278q0 62 18.5 108.5t62 84 123 57T582 1393h209q28 0 28-29V-391q0-31-31-31h-86q-17 0-23.5 7t-6.5 24v969h-90q-113 0-192.5 19.5t-123 56.5-62 83.5T186 846zM991-391v1753q0 31 29 31h88q29 0 29-31V-391q0-31-29-31h-88q-29 0-29 31z"/><glyph unicode="·" horiz-adv-x="452" d="M154 463v160q0 30 30 30h86q29 0 29-30V463q0-31-29-31h-86q-17 0-23.5 7t-6.5 24z"/><glyph unicode="¸" horiz-adv-x="378" d="M-6-371q0 29 31 29h217q86 0 86 72 0 71-86 71H115q-27 0-35.5 9.5T76-160l45 170q8 30 35 27l39-6q29-6 20-37l-29-103h76q72 0 121-38t49-121-49.5-123.5T262-432H25q-31 0-31 31v30z"/><glyph unicode="¹" horiz-adv-x="768" d="M121 590v47q0 22 22 22h187v635l-187-39q-9-3-14.5 1.5T123 1272v51q0 20 20 23l279 61q8 2 14-2.5t6-18.5V659h185q12 0 16-4.5t4-17.5v-47q0-14-4-18.5t-16-4.5H143q-22 0-22 23z"/><glyph unicode="º" horiz-adv-x="733" d="M123 944v301q0 77 59.5 120.5T367 1409q124 0 183.5-43.5T610 1245V944q0-77-59.5-120.5T367 780q-125 0-184.5 43.5T123 944zm110 10q0-86 134-86 133 0 133 86v281q0 88-133 88-134 0-134-88V954z"/><glyph unicode="»" horiz-adv-x="1189" d="M164 168v88q0 11 5.5 20t9.5 12.5 16 12.5l290 217-290 215q-31 23-31 47v88q0 14 11 19.5t20-2.5l378-285q27-22 27-41v-84q0-17-27-39L195 152q-11-10-21-5.5T164 168zm426 0v88q0 11 5.5 20t9.5 12.5 16 12.5l290 217-290 215q-31 23-31 47v88q0 14 11 19.5t20-2.5l378-285q27-22 27-41v-84q0-17-27-39L621 152q-11-10-21-5.5T590 168z"/><glyph unicode="¼" horiz-adv-x="1710" d="M121 590v47q0 22 22 22h187v637l-187-41q-9-3-14.5 1.5T123 1272v51q0 20 20 23l279 61q8 2 14-2.5t6-18.5V659h185q12 0 16-4.5t4-17.5v-47q0-14-4-18.5t-16-4.5H143q-22 0-22 23zM635-78l401 1548q6 23 29 23h72q9 0 14-6.5t2-16.5L750-78q-3-12-8-17t-17-5h-72q-24 0-18 22zm426 354v46q0 8 4 16l164 475q7 23 26 23h70q24 0 16-23l-159-467h295v467q0 23 22 23h70q22 0 22-23V23q0-23-22-23h-70q-22 0-22 23v231h-392q-24 0-24 22z"/><glyph unicode="½" horiz-adv-x="1742" d="M121 590v47q0 22 22 22h187v637l-187-41q-9-3-14.5 1.5T123 1272v51q0 20 20 23l279 61q8 2 14-2.5t6-18.5V659h185q12 0 16-4.5t4-17.5v-47q0-14-4-18.5t-16-4.5H143q-22 0-22 23zM621-78l403 1548q6 23 27 23h71q11 0 15.5-6.5t1.5-16.5L735-78q-3-13-8-17.5t-16-4.5h-72q-24 0-18 22zm475 668v69q0 187 260 187 262 0 262-187V535q0-69-34.5-107.5T1507 375l-217-78q-1 0-8.5-2.5t-12-4.5-12.5-6-13-8-10.5-10-8-13.5-2.5-16.5V92h379q11 0 15.5-4.5T1622 70V23q0-23-20-23h-469q-21 0-21 23v231q0 26 9 46t26 32.5 29 19 32 13.5l234 84q65 21 65 79v117q0 53-34.5 81T1356 754q-81 0-114.5-28t-33.5-81v-55q0-25-22-25h-66q-24 0-24 25z"/><glyph unicode="¾" horiz-adv-x="1714" d="M121 735v31q0 20 22 20h66q22 0 22-20v-14q0-54 35-81.5T381 643q81 0 116 27.5t35 81.5v98q0 55-32 80.5T385 956H281q-25 0-25 23v45q0 23 25 23h94q84 0 115.5 25.5T522 1153v57q0 55-31 82t-110 27q-81 0-113-27.5t-32-81.5v-14q0-20-21-20h-65q-23 0-23 20v31q0 84 56 133t198 49q140 0 197-49t57-133v-88q0-54-23-86.5t-80-46.5q62-18 86.5-53.5T643 862V733q0-180-260-180-262 0-262 182zM641-78l403 1548q6 23 25 23h74q21 0 14-23L754-78q-3-12-8-17t-15-5h-74q-22 0-16 22zm424 354v46q0 12 2 16l164 475q7 23 29 23h69q11 0 15.5-6.5t1.5-16.5l-162-467h297v467q0 23 22 23h68q13 0 17.5-5t4.5-18V23q0-13-4.5-18T1571 0h-68q-22 0-22 23v231h-394q-22 0-22 22z"/><glyph unicode="¿" horiz-adv-x="1161" d="M154 57q0 183 170 267l108 53q103 50 103 145v127q0 31 28 31h88q29 0 29-31V489q0-43-13-78t-37-58-42-35-43-25l-144-74Q299 163 299 61V-76q0-97 64.5-147.5T582-274q155 0 219.5 50.5T866-76v94q0 33 29 33h82q31 0 31-33V-98q0-299-426-299-424 0-428 299V57zm381 764v160q0 17 6.5 24t21.5 7h88q29 0 29-31V821q0-30-29-30h-88q-28 0-28 30z"/><glyph unicode="À" horiz-adv-x="1077" d="M49 31l408 1331q9 31 39 31h88q28 0 37-31L1030 31q9-31-24-31h-88q-28 0-37 31L768 395H299L188 31q-9-31-34-31H72Q40 0 49 31zm243.5 1757.5q3.5 9.5 20.5 9.5h90q11 0 19-4.5t11.5-9.5l10.5-15 138-229q8-15 3.5-23t-18.5-8h-69q-21 0-37 21l-162 237q-10 12-6.5 21.5zM334 512h403L588 991q-18 61-51 248-21-148-52-244z"/><glyph unicode="Á" horiz-adv-x="1077" d="M49 31l408 1331q9 31 39 31h88q28 0 37-31L1030 31q9-31-24-31h-88q-28 0-37 31L768 395H299L188 31q-9-31-34-31H72Q40 0 49 31zm285 481h403L588 991q-18 61-51 248-21-148-52-244zm158 1028l137 229q18 29 39 29h90q16 0 20-9.5t-4-21.5l-162-237q-14-19-39-19h-67q-31 0-14 29z"/><glyph unicode="Â" horiz-adv-x="1077" d="M49 31l408 1331q9 31 39 31h88q28 0 37-31L1030 31q9-31-24-31h-88q-28 0-37 31L768 395H299L188 31q-9-31-34-31H72Q40 0 49 31zm254.5 1488.5q-5.5 8.5 3.5 20.5l158 227q23 31 47 31h53q25 0 47-29l158-229q9-12 5-20.5t-21-8.5h-66q-23 0-41 29l-108 168-109-168q-17-29-41-29h-65q-15 0-20.5 8.5zM334 512h403L588 991q-18 61-51 248-21-148-52-244z"/><glyph unicode="Ã" horiz-adv-x="1077" d="M49 31l408 1331q9 31 39 31h88q28 0 37-31L1030 31q9-31-24-31h-88q-28 0-37 31L768 395H299L188 31q-9-31-34-31H72Q40 0 49 31zm193 1540l4 55q11 162 147 162 58 0 113-39l90-66q50-36 78-36 33 0 42 19t11 79v16q0 27 33 27h45q26 0 26-33l-2-51q-3-86-43.5-126T680 1538q-56 0-111 37l-92 65q-51 37-76 37-34 0-43.5-19t-11.5-77v-16q0-29-31-29h-47q-26 0-26 35zm92-1059h403L588 991q-18 61-51 248-21-148-52-244z"/><glyph unicode="Ä" horiz-adv-x="1077" d="M49 31l408 1331q9 31 39 31h88q28 0 37-31L1030 31q9-31-24-31h-88q-28 0-37 31L768 395H299L188 31q-9-31-34-31H72Q40 0 49 31zm285 481h403L588 991q-18 61-51 248-21-148-52-244zm41 1042v199q0 29 31 29h49q17 0 22.5-6.5t5.5-22.5v-199q0-18-5.5-24t-22.5-6h-49q-17 0-24 6.5t-7 23.5zm219 0v199q0 29 31 29h49q31 0 31-29v-199q0-17-7-23.5t-24-6.5h-49q-17 0-24 6.5t-7 23.5z"/><glyph unicode="Å" horiz-adv-x="1077" d="M49 31l408 1331q9 31 39 31h88q28 0 37-31L1030 31q9-31-24-31h-88q-28 0-37 31L768 395H299L188 31q-9-31-34-31H72Q40 0 49 31zm285 481h403L588 991q-18 61-51 248-21-148-52-244zm10 1116v35q0 68 49 111t146 43 145.5-43 48.5-111v-35q0-68-48.5-110.5T539 1475q-98 0-146.5 42.5T344 1628zm90 10q0-86 105-86 54 0 80 23.5t26 62.5v15q0 39-26 62.5t-80 23.5q-105 0-105-86v-15z"/><glyph unicode="Æ" horiz-adv-x="1718" d="M50.5 8Q43 16 51 31l776 1331q21 31 43 31h689q30 0 30-29v-61q0-31-30-31H975V788h547q17 0 23.5-6.5t6.5-21.5v-58q0-17-6.5-23.5T1522 672H975V121h608q31 0 31-29V31q0-31-31-31H872q-18 0-26 6.5T838 31v364H401L193 31Q174 0 156 0H74Q58 0 50.5 8zM471 512h367v641q-46-86-70-125z"/><glyph unicode="Ç" horiz-adv-x="1130" d="M162 283v827q0 299 432 299t432-299v-104q0-33-29-33h-82q-17 0-23.5 7.5T885 1006v81q0 95-67 146t-222 51-222-51-67-146V305q0-95 67-145.5T596 109t222 50.5T885 305v109q0 30 30 30h82q29 0 29-30V283q0-299-432-299h-6l-25-93h76q72 0 121-38t49-121-49.5-123.5T639-432H401q-30 0-30 31v30q0 29 30 29h217q87 0 87 72 0 71-87 71H492q-27 0-35.5 9.5T453-160l39 150Q162 22 162 283z"/><glyph unicode="È" d="M186 31v1331q0 31 29 31h698q31 0 31-31v-64q0-30-31-30H330V791h547q17 0 23.5-7t6.5-24v-60q0-17-6.5-23.5T877 670H330V125h608q31 0 31-29V31q0-31-31-31H213q-27 0-27 31zm172.5 1757.5q3.5 9.5 20.5 9.5h90q11 0 19-4.5t11.5-9.5l10.5-15 137-229q8-15 4-23t-18-8h-70q-21 0-37 21l-161 237q-10 12-6.5 21.5z"/><glyph unicode="É" d="M186 31v1331q0 31 29 31h698q31 0 31-31v-64q0-30-31-30H330V791h547q17 0 23.5-7t6.5-24v-60q0-17-6.5-23.5T877 670H330V125h608q31 0 31-29V31q0-31-31-31H213q-27 0-27 31zm308 1509l137 229q18 29 39 29h90q16 0 20-9.5t-4-21.5l-162-237q-14-19-39-19h-67q-31 0-14 29z"/><glyph unicode="Ê" d="M186 31v1331q0 31 29 31h698q31 0 31-31v-64q0-30-31-30H330V791h547q17 0 23.5-7t6.5-24v-60q0-17-6.5-23.5T877 670H330V125h608q31 0 31-29V31q0-31-31-31H213q-27 0-27 31zm115.5 1488.5q-5.5 8.5 3.5 20.5l158 227q23 31 47 31h53q25 0 47-29l158-229q9-12 5-20.5t-21-8.5h-66q-23 0-41 29l-108 168-109-168q-17-29-41-29h-65q-15 0-20.5 8.5z"/><glyph unicode="Ë" d="M186 31v1331q0 31 29 31h698q31 0 31-31v-64q0-30-31-30H330V791h547q17 0 23.5-7t6.5-24v-60q0-17-6.5-23.5T877 670H330V125h608q31 0 31-29V31q0-31-31-31H213q-27 0-27 31zm215 1523v199q0 29 31 29h49q17 0 23-6.5t6-22.5v-199q0-17-6-23.5t-23-6.5h-49q-17 0-24 6.5t-7 23.5zm220 0v199q0 15 6.5 22t23.5 7h49q31 0 31-29v-199q0-17-7-23.5t-24-6.5h-49q-17 0-23.5 6.5T621 1554z"/><glyph unicode="Ì" horiz-adv-x="516" d="M16.5 1788.5Q20 1798 37 1798h90q11 0 19-4.5t11.5-9.5l10.5-15 137-229q8-15 4-23t-18-8h-70q-21 0-37 21L23 1767q-10 12-6.5 21.5zM186 31v1331q0 31 29 31h86q29 0 29-31V31q0-31-29-31h-86q-29 0-29 31z"/><glyph unicode="Í" horiz-adv-x="516" d="M186 31v1331q0 31 29 31h86q29 0 29-31V31q0-31-29-31h-86q-29 0-29 31zm17 1509l137 229q18 29 39 29h90q16 0 20-9.5t-4-21.5l-161-237q-14-19-39-19h-68q-31 0-14 29z"/><glyph unicode="Î" horiz-adv-x="516" d="M23 1519.5q-5 8.5 4 20.5l157 227q23 31 47 31h54q25 0 47-29l157-229q9-12 5-20.5t-21-8.5h-65q-23 0-41 29l-109 168-108-168q-17-29-41-29H43q-15 0-20 8.5zM186 31v1331q0 31 29 31h86q29 0 29-31V31q0-31-29-31h-86q-29 0-29 31z"/><glyph unicode="Ï" horiz-adv-x="516" d="M94 1554v199q0 29 31 29h49q17 0 23-6.5t6-22.5v-199q0-17-6-23.5t-23-6.5h-49q-17 0-24 6.5t-7 23.5zM186 31v1331q0 31 29 31h86q29 0 29-31V31q0-31-29-31h-86q-29 0-29 31zm127 1523v199q0 29 31 29h49q31 0 31-29v-199q0-17-7-23.5t-24-6.5h-49q-17 0-24 6.5t-7 23.5z"/><glyph unicode="Ð" horiz-adv-x="1232" d="M20 678v53q0 29 31 29h135v602q0 31 27 31h414q123 0 211.5-23t138-65.5 72-94T1071 1094V299q0-65-22.5-116.5t-72-94-138-65.5T627 0H211q-25 0-25 31v618H51q-31 0-31 29zm310-553h297q299 0 299 197v749q0 197-299 197H330V760h270q31 0 31-29v-53q0-29-31-29H330V125z"/><glyph unicode="Ñ" horiz-adv-x="1255" d="M184 31v1331q0 31 31 31h78q17 0 24-13l555-977 62-122v1081q0 31 29 31h77q29 0 29-31V31q0-31-29-31h-77q-21 0-29 14L391 977q-63 106-69 131V31q0-31-29-31h-78q-31 0-31 31zm148 1540l4 55q11 162 147 162 58 0 113-39l90-66q50-36 78-36 33 0 42 19t11 79v16q0 27 33 27h45q27 0 27-33l-2-51q-3-86-44-126t-106-40q-56 0-111 37l-92 65q-51 37-75 37-34 0-44-19t-12-77v-16q0-17-7-23t-23-6h-48q-26 0-26 35z"/><glyph unicode="Ò" horiz-adv-x="1210" d="M162 283v827q0 65 22.5 116.5t72 94T394 1386t210 23q123 0 212-23t138.5-65.5 72-94T1049 1110V283q0-65-22.5-116.5t-72-94T816 7 604-16Q482-16 394 7T256.5 72.5t-72 94T162 283zm145 22q0-196 297-196 299 0 299 196v782q0 197-299 197-297 0-297-197V305zm57.5 1483.5q3.5 9.5 20.5 9.5h90q11 0 19-4.5t11.5-9.5l10.5-15 137-229q8-15 4-23t-18-8h-70q-21 0-37 21l-161 237q-10 12-6.5 21.5z"/><glyph unicode="Ó" horiz-adv-x="1210" d="M162 283v827q0 65 22.5 116.5t72 94T394 1386t210 23q123 0 212-23t138.5-65.5 72-94T1049 1110V283q0-65-22.5-116.5t-72-94T816 7 604-16Q482-16 394 7T256.5 72.5t-72 94T162 283zm145 22q0-196 297-196 299 0 299 196v782q0 197-299 197-297 0-297-197V305zm228 1235l137 229q18 29 39 29h90q16 0 20-9.5t-4-21.5l-162-237q-14-19-39-19h-67q-31 0-14 29z"/><glyph unicode="Ô" horiz-adv-x="1210" d="M162 283v827q0 65 22.5 116.5t72 94T394 1386t210 23q123 0 212-23t138.5-65.5 72-94T1049 1110V283q0-65-22.5-116.5t-72-94T816 7 604-16Q482-16 394 7T256.5 72.5t-72 94T162 283zm145 22q0-196 297-196 299 0 299 196v782q0 197-299 197-297 0-297-197V305zm62 1214.5q-5 8.5 4 20.5l157 227q23 31 48 31h53q25 0 47-29l158-229q9-12 4.5-20.5T819 1511h-65q-23 0-41 29l-109 168-108-168q-17-29-41-29h-66q-15 0-20 8.5z"/><glyph unicode="Õ" horiz-adv-x="1210" d="M162 283v827q0 65 22.5 116.5t72 94T394 1386t210 23q123 0 212-23t138.5-65.5 72-94T1049 1110V283q0-65-22.5-116.5t-72-94T816 7 604-16Q482-16 394 7T256.5 72.5t-72 94T162 283zm145 22q0-196 297-196 299 0 299 196v782q0 197-299 197-297 0-297-197V305zm2 1266l4 55q11 162 148 162 57 0 112-39l91-66q50-36 77-36 33 0 42.5 19.5T795 1745v16q0 27 32 27h45q27 0 27-33l-2-51q-3-86-43.5-126T748 1538q-56 0-111 37l-92 65q-51 37-76 37-34 0-43.5-19t-11.5-77v-16q0-29-31-29h-47q-27 0-27 35z"/><glyph unicode="Ö" horiz-adv-x="1210" d="M162 283v827q0 65 22.5 116.5t72 94T394 1386t210 23q123 0 212-23t138.5-65.5 72-94T1049 1110V283q0-65-22.5-116.5t-72-94T816 7 604-16Q482-16 394 7T256.5 72.5t-72 94T162 283zm145 22q0-196 297-196 299 0 299 196v782q0 197-299 197-297 0-297-197V305zm133 1249v199q0 29 31 29h49q17 0 23-6.5t6-22.5v-199q0-17-6-23.5t-23-6.5h-49q-17 0-24 6.5t-7 23.5zm219 0v199q0 29 31 29h49q31 0 31-29v-199q0-17-7-23.5t-24-6.5h-49q-17 0-24 6.5t-7 23.5z"/><glyph unicode="×" horiz-adv-x="1114" d="M170 506q-14 28 10 41l295 168-172 297q-15 27 10 41l52 30q25 15 41-12l172-295 296 170q13 8 21.5 5.5T913 936l31-51q15-27-12-43L637 670l170-293q13-24-12-41l-52-31q-23-15-38 12L535 610 240 440q-27-16-43 13z"/><glyph unicode="Ø" horiz-adv-x="1210" d="M162 281v825q0 65 22.5 116.5t72 94T394 1382t210 23q177 0 289-51l25 49q22 45 51 45h26q31 0 9-45l-46-90q91-73 91-207V281q0-65-22.5-117t-72-94.5T816 3.5 604-20q-184 0-293 53l-24-47q-8-15-13-22.5t-14.5-15T238-59h-27q-32 0-10 45l45 90q-84 76-84 205zm145 22q0-43 15-78l507 1006q-73 51-225 51-297 0-297-199V303zm68-143q75-56 229-56 299 0 299 199v780q0 47-18 84z"/><glyph unicode="Ù" horiz-adv-x="1232" d="M174 283v1079q0 31 29 31h88q28 0 28-31V305q0-196 295-196 301 0 301 196v1057q0 31 29 31h86q29 0 29-31V283q0-65-22.5-116.5t-72-94T826 7 614-16Q492-16 404 7T267 72.5t-71 94T174 283zm211 1505.5q4 9.5 21 9.5h90q11 0 19-4.5t11.5-9.5l10.5-15 137-229q8-15 3.5-23t-18.5-8h-69q-21 0-37 21l-162 237q-10 12-6 21.5z"/><glyph unicode="Ú" horiz-adv-x="1232" d="M174 283v1079q0 31 29 31h88q28 0 28-31V305q0-196 295-196 301 0 301 196v1057q0 31 29 31h86q29 0 29-31V283q0-65-22.5-116.5t-72-94T826 7 614-16Q492-16 404 7T267 72.5t-71 94T174 283zm385 1257l137 229q18 29 39 29h90q17 0 21-9.5t-4-21.5l-162-237q-14-19-39-19h-68q-31 0-14 29z"/><glyph unicode="Û" horiz-adv-x="1232" d="M174 283v1079q0 31 29 31h88q28 0 28-31V305q0-196 295-196 301 0 301 196v1057q0 31 29 31h86q29 0 29-31V283q0-65-22.5-116.5t-72-94T826 7 614-16Q492-16 404 7T267 72.5t-71 94T174 283zm207 1236.5q-5 8.5 4 20.5l158 227q23 31 47 31h53q25 0 47-29l158-229q9-12 4.5-20.5T831 1511h-65q-23 0-41 29l-109 168-108-168q-17-29-41-29h-66q-15 0-20 8.5z"/><glyph unicode="Ü" horiz-adv-x="1232" d="M174 283v1079q0 31 29 31h88q28 0 28-31V305q0-196 295-196 301 0 301 196v1057q0 31 29 31h86q29 0 29-31V283q0-65-22.5-116.5t-72-94T826 7 614-16Q492-16 404 7T267 72.5t-71 94T174 283zm279 1271v199q0 15 6.5 22t23.5 7h49q17 0 23-6.5t6-22.5v-199q0-17-6-23.5t-23-6.5h-49q-17 0-23.5 6.5T453 1554zm219 0v199q0 15 6.5 22t23.5 7h50q17 0 23.5-7t6.5-22v-199q0-17-6.5-23.5T752 1524h-50q-17 0-23.5 6.5T672 1554z"/><glyph unicode="Ý" horiz-adv-x="1058" d="M41.5 1385q5.5 8 21.5 8h99q23 0 37-31l301-594q8-17 15-35.5t11-30 4-12.5q0 13 31 78l311 594q16 31 37 31h86q16 0 22-8t-1-23L604 567V31q0-31-31-31h-86q-30 0-30 31v520L43 1362q-7 15-1.5 23zM489 1540l138 229q18 29 39 29h90q16 0 20-9.5t-4-21.5l-162-237q-14-19-39-19h-67q-32 0-15 29z"/><glyph unicode="Þ" horiz-adv-x="1159" d="M184 31v1331q0 31 31 31h86q29 0 29-31v-350h288q123 0 212-23t138.5-65.5 72-94T1063 713V504q0-64-22.5-115.5t-72-93.5T830 230t-212-23H330V31q0-31-29-31h-86q-31 0-31 31zm146 297h288q300 0 300 198v164q0 199-300 199H330V328z"/><glyph unicode="ß" horiz-adv-x="1234" d="M57 922v49q0 27 29 30l111 7h16v178q0 264 399 264 398 0 398-264v-76q0-127-156-178l-129-41q-25-7-37.5-12t-32-15.5-28.5-26-9-36.5v-10q0-72 111-115l244-94q29-11 55.5-25.5T1088 517t53-62 20-80V244q0-60-16-105t-53.5-81.5-106-55T819-16q-79 0-137 12t-94 33-58 54-30 70-8 87v20q0 33 28 33h60q28 0 28-33v-24q0-76 45.5-115T819 82q119 0 165 39.5t46 114.5v114q0 15-4 28t-9 22-15.5 18.5-17.5 15-21.5 12.5-20.5 9.5-21 8.5-18 7l-233 92q-33 13-57 26.5T559.5 627 514 688t-16 84v33q0 38 15 69.5t40.5 51.5 48.5 31.5 49 19.5l113 35q115 32 115 118v46q0 161-261 161-262 0-262-161V31q0-31-30-31h-82q-31 0-31 31v860H86q-29 0-29 31z"/><glyph unicode="à" horiz-adv-x="1034" d="M127 225v103q0 105 69 173t197 68h352v185q0 76-51.5 116.5T514 911q-129 0-181-39t-52-114v-25q0-33-31-33h-74q-29 0-29 33v35q0 260 369 260 200 0 284.5-68T885 768V31q0-31-29-31h-74q-16 0-22 7.5T752 31l-4 73Q597-16 410-16q-137 0-210 68t-73 173zm137 19q0-142 178-142 157 0 303 115v240H420q-156 0-156-148v-65zm57.5 1196.5q3.5 9.5 20.5 9.5h90q11 0 19-4.5t11.5-9.5l10.5-15 137-229q8-14 3.5-21.5T596 1163h-70q-23 0-37 19l-161 237q-10 12-6.5 21.5z"/><glyph unicode="á" horiz-adv-x="1034" d="M127 225v103q0 105 69 173t197 68h352v185q0 76-51.5 116.5T514 911q-129 0-181-39t-52-114v-25q0-33-31-33h-74q-29 0-29 33v35q0 260 369 260 200 0 284.5-68T885 768V31q0-31-29-31h-74q-16 0-22 7.5T752 31l-4 73Q597-16 410-16q-137 0-210 68t-73 173zm137 19q0-142 178-142 157 0 303 115v240H420q-156 0-156-148v-65zm153 926.5q-5 7.5 3 21.5l137 229q18 29 41 29h90q17 0 20.5-9.5T702 1419l-161-237q-14-19-37-19h-68q-14 0-19 7.5z"/><glyph unicode="â" horiz-adv-x="1034" d="M127 225v103q0 105 69 173t197 68h352v185q0 76-51.5 116.5T514 911q-129 0-181-39t-52-114v-25q0-33-31-33h-74q-29 0-29 33v35q0 260 369 260 200 0 284.5-68T885 768V31q0-31-29-31h-74q-16 0-22 7.5T752 31l-4 73Q597-16 410-16q-137 0-210 68t-73 173zm137 19q0-142 178-142 157 0 303 115v240H420q-156 0-156-148v-65zm18 927.5q-4 8.5 5 20.5l155 227q23 31 47 31h54q25 0 47-29l160-229q8-12 3-20.5t-20-8.5h-65q-23 0-41 29l-109 168-108-168q-17-29-41-29h-66q-17 0-21 8.5z"/><glyph unicode="ã" horiz-adv-x="1034" d="M127 225v103q0 105 69 173t197 68h352v185q0 76-51.5 116.5T514 911q-129 0-181-39t-52-114v-25q0-33-31-33h-74q-29 0-29 33v35q0 260 369 260 200 0 284.5-68T885 768V31q0-31-29-31h-74q-16 0-22 7.5T752 31l-4 73Q597-16 410-16q-137 0-210 68t-73 173zm96 985l4 56q11 161 148 161 59 0 112-38l91-66q51-37 77-37 33 0 42.5 19.5T709 1384v17q0 26 32 26h45q27 0 27-32l-2-52q-3-86-43.5-125.5T662 1178q-58 0-111 36l-92 66q-51 37-76 37-34 0-43.5-19t-11.5-77v-17q0-16-7.5-22t-23.5-6h-47q-27 0-27 34zm41-966q0-142 178-142 157 0 303 115v240H420q-156 0-156-148v-65z"/><glyph unicode="ä" horiz-adv-x="1034" d="M127 225v103q0 105 69 173t197 68h352v185q0 76-51.5 116.5T514 911q-129 0-181-39t-52-114v-25q0-33-31-33h-74q-29 0-29 33v35q0 260 369 260 200 0 284.5-68T885 768V31q0-31-29-31h-74q-16 0-22 7.5T752 31l-4 73Q597-16 410-16q-137 0-210 68t-73 173zm137 19q0-142 178-142 157 0 303 115v240H420q-156 0-156-148v-65zm86 966v199q0 31 31 31h51q29 0 29-31v-199q0-28-29-28h-51q-31 0-31 28zm221 0v199q0 31 29 31h51q29 0 29-31v-199q0-28-29-28h-51q-29 0-29 28z"/><glyph unicode="å" horiz-adv-x="1034" d="M127 225v103q0 105 69 173t197 68h352v185q0 76-51.5 116.5T514 911q-129 0-181-39t-52-114v-25q0-33-31-33h-74q-29 0-29 33v35q0 260 369 260 200 0 284.5-68T885 768V31q0-31-29-31h-74q-16 0-22 7.5T752 31l-4 73Q597-16 410-16q-137 0-210 68t-73 173zm137 19q0-142 178-142 157 0 303 115v240H420q-156 0-156-148v-65zm68 1034v51q0 66 47 106t141 40q96 0 143.5-40t47.5-106v-51q0-66-47.5-104.5T520 1135q-95 0-141.5 38.5T332 1278zm82 14q0-84 106-84 107 0 107 84v23q0 84-107 84-106 0-106-84v-23z"/><glyph unicode="æ" horiz-adv-x="1613" d="M125 225v86q0 105 71 173.5T393 553h350v219q0 71-53 110.5T512 922q-129 0-181-40t-52-118v-31q0-31-29-31h-74q-17 0-24 7t-7 24v35q0 125 86 192.5t285 67.5q232 0 297-117 77 117 307 117 200 0 286.5-68.5T1493 764V518q0-29-29-29H883V246q0-75 53.5-114.5T1120 92t185 42 55 118v37q0 30 29 30h71q29 0 29-30v-43q0-126-84.5-194T1120-16q-280 0-346 141Q600-16 410-16q-141 0-213 67.5T125 225zm139 17q0-67 46-106.5T442 96q51 0 99.5 13.5t91 39T694 188t49 39v226H416q-75 0-113.5-41T264 305v-63zm619 348h477v170q0 76-55 118t-185 42q-129 0-183-42t-54-118V590z"/><glyph unicode="ç" horiz-adv-x="980" d="M139 248v516q0 127 86.5 195.5T512 1028t286.5-68.5T885 764v-39q0-31-31-31h-76q-30 0-30 31v31q0 76-52.5 115.5T514 911t-181-39.5T281 756V258q0-78 52-118t181-40 181.5 40T748 258v45q0 17 6.5 24t23.5 7h76q17 0 24-7t7-24v-55q0-126-87-195T510-16h-8l-25-93h76q72 0 121-38t49-121-49.5-123.5T553-432H315q-30 0-30 31v30q0 29 30 29h217q86 0 86 72 0 71-86 71H406q-27 0-35.5 9.5T367-160l39 150Q264 6 201.5 72.5T139 248z"/><glyph unicode="è" horiz-adv-x="1007" d="M139 248v516q0 127 87.5 195.5T516 1028q200 0 285.5-68.5T887 764V512q0-29-29-29H279V256q0-77 52-117.5T516 98t185.5 40.5T754 256v35q0 28 28 28h74q31 0 31-28v-43q0-127-86.5-195.5T512-16q-200 0-286.5 68.5T139 248zm140 344h475v164q0 157-238 157-130 0-183.5-41T279 756V592zm11.5 848.5q3.5 9.5 20.5 9.5h90q11 0 19-4.5t11.5-9.5l10.5-15 138-229q8-14 3-21.5t-18-7.5h-69q-23 0-37 19l-162 237q-10 12-6.5 21.5z"/><glyph unicode="é" horiz-adv-x="1007" d="M139 248v516q0 127 87.5 195.5T516 1028q200 0 285.5-68.5T887 764V512q0-29-29-29H279V256q0-77 52-117.5T516 98t185.5 40.5T754 256v35q0 28 28 28h74q31 0 31-28v-43q0-127-86.5-195.5T512-16q-200 0-286.5 68.5T139 248zm140 344h475v164q0 157-238 157-130 0-183.5-41T279 756V592zm152.5 578.5q-5.5 7.5 2.5 21.5l137 229q18 29 41 29h90q17 0 21-9.5t-6-21.5l-162-237q-14-19-37-19h-67q-14 0-19.5 7.5z"/><glyph unicode="ê" horiz-adv-x="1007" d="M139 248v516q0 127 87.5 195.5T516 1028q200 0 285.5-68.5T887 764V512q0-29-29-29H279V256q0-77 52-117.5T516 98t185.5 40.5T754 256v35q0 28 28 28h74q31 0 31-28v-43q0-127-86.5-195.5T512-16q-200 0-286.5 68.5T139 248zm140 344h475v164q0 157-238 157-130 0-183.5-41T279 756V592zm1 579.5q-4 8.5 5 20.5l155 227q23 31 47 31h54q25 0 47-29l160-229q8-12 3-20.5t-20-8.5h-65q-23 0-41 29l-109 168-108-168q-17-29-41-29h-66q-17 0-21 8.5z"/><glyph unicode="ë" horiz-adv-x="1007" d="M139 248v516q0 127 87.5 195.5T516 1028q200 0 285.5-68.5T887 764V512q0-29-29-29H279V256q0-77 52-117.5T516 98t185.5 40.5T754 256v35q0 28 28 28h74q31 0 31-28v-43q0-127-86.5-195.5T512-16q-200 0-286.5 68.5T139 248zm140 344h475v164q0 157-238 157-130 0-183.5-41T279 756V592zm69 618v199q0 31 31 31h51q29 0 29-31v-199q0-28-29-28h-51q-31 0-31 28zm221 0v199q0 31 29 31h51q29 0 29-31v-199q0-28-29-28h-51q-29 0-29 28z"/><glyph unicode="ì" horiz-adv-x="464" d="M-6.5 1440.5Q-3 1450 14 1450h90q11 0 19-4.5t11.5-9.5l10.5-15 138-229q8-14 3-21.5t-18-7.5h-69q-23 0-37 19L0 1419q-10 12-6.5 21.5zM162 31v950q0 31 28 31h84q29 0 29-31V31q0-31-29-31h-84q-28 0-28 31z"/><glyph unicode="í" horiz-adv-x="464" d="M162 31v950q0 31 28 31h84q29 0 29-31V31q0-31-29-31h-84q-28 0-28 31zm11.5 1139.5q-5.5 7.5 2.5 21.5l137 229q18 29 41 29h90q17 0 21-9.5t-6-21.5l-162-237q-14-19-37-19h-67q-14 0-19.5 7.5z"/><glyph unicode="î" horiz-adv-x="464" d="M-1 1171.5q-4 8.5 5 20.5l156 227q23 31 47 31h53q25 0 47-29l160-229q8-12 3.5-20.5T451 1163h-66q-23 0-41 29l-108 168-109-168q-17-29-41-29H20q-17 0-21 8.5zM162 31v950q0 31 28 31h84q29 0 29-31V31q0-31-29-31h-84q-28 0-28 31z"/><glyph unicode="ï" horiz-adv-x="464" d="M70 1210v199q0 31 30 31h52q28 0 28-31v-199q0-28-28-28h-52q-30 0-30 28zM162 31v950q0 31 28 31h84q29 0 29-31V31q0-31-29-31h-84q-28 0-28 31zm129 1179v199q0 31 28 31h52q28 0 28-31v-199q0-28-28-28h-52q-28 0-28 28z"/><glyph unicode="ð" horiz-adv-x="1136" d="M139 246v520q0 122 71 192t214 70q186 0 346-123v256q0 37-16 66l-148-64q-27-12-41 11l-10 18q-6 10-3 21.5t15 17.5l154 67q-56 50-193 50H346q-17 0-24 6.5t-7 23.5v41q0 17 7 24t24 7h182q220 0 308-88l106 49q26 11 39-10l12-21q6-10 2.5-21.5T979 1341l-96-45q20-44 20-108V246q0-125-88.5-193.5T524-16q-385 0-385 262zm142 10q0-158 243-158 246 0 246 158v530Q625 905 463 905q-94 0-138-43.5T281 748V256z"/><glyph unicode="ñ" horiz-adv-x="1085" d="M162 31v950q0 31 31 31h73q16 0 22.5-7.5T297 981l4-78q57 49 145.5 87t204.5 38q138 0 210.5-69.5T934 776V31q0-31-29-31h-82q-30 0-30 31v714q0 156-181 156-163 0-309-115V31q0-31-29-31h-81q-31 0-31 31zm80 1188l4 55q11 162 147 162 58 0 113-39l90-66q51-37 78-37 32 0 41.5 19.5T727 1393v16q0 27 33 27h45q26 0 26-33l-2-51q-3-86-43.5-126T680 1186q-56 0-111 37l-92 65q-51 37-76 37-34 0-43.5-19t-11.5-77v-17q0-16-7.5-22t-23.5-6h-47q-26 0-26 35z"/><glyph unicode="ò" horiz-adv-x="1050" d="M139 248v516q0 264 385 264 387 0 387-264V248q0-264-387-264-385 0-385 264zm142 10q0-158 243-158 246 0 246 158v496q0 76-57.5 116.5T524 911q-129 0-186-40.5T281 754V258zm15.5 1182.5q3.5 9.5 20.5 9.5h91q11 0 19-4.5t11.5-9.5l10.5-15 137-229q8-14 3-21.5t-18-7.5h-69q-23 0-37 19l-162 237q-10 12-6.5 21.5z"/><glyph unicode="ó" horiz-adv-x="1050" d="M139 248v516q0 264 385 264 387 0 387-264V248q0-264-387-264-385 0-385 264zm142 10q0-158 243-158 246 0 246 158v496q0 76-57.5 116.5T524 911q-129 0-186-40.5T281 754V258zm177 912.5q-5 7.5 3 21.5l137 229q18 29 41 29h90q17 0 20.5-9.5T743 1419l-161-237q-14-19-37-19h-68q-14 0-19 7.5z"/><glyph unicode="ô" horiz-adv-x="1050" d="M139 248v516q0 264 385 264 387 0 387-264V248q0-264-387-264-385 0-385 264zm142 10q0-158 243-158 246 0 246 158v496q0 76-57.5 116.5T524 911q-129 0-186-40.5T281 754V258zm9 913.5q-4 8.5 5 20.5l156 227q23 31 47 31h53q25 0 47-29l160-229q8-12 3-20.5t-20-8.5h-65q-23 0-41 29l-109 168-108-168q-17-29-41-29h-66q-17 0-21 8.5z"/><glyph unicode="õ" horiz-adv-x="1050" d="M139 248v516q0 264 385 264 387 0 387-264V248q0-264-387-264-385 0-385 264zm92 962l5 56q11 161 147 161 60 0 113-38l90-66q51-37 78-37 33 0 42 19t11 79v17q0 26 33 26h45q26 0 26-32l-2-52q-3-86-43.5-125.5T670 1178q-58 0-111 36l-92 66q-51 37-76 37-34 0-43.5-19t-11.5-77v-17q0-16-7.5-22t-23.5-6h-47q-27 0-27 34zm50-952q0-158 243-158 246 0 246 158v496q0 76-57.5 116.5T524 911q-129 0-186-40.5T281 754V258z"/><glyph unicode="ö" horiz-adv-x="1050" d="M139 248v516q0 264 385 264 387 0 387-264V248q0-264-387-264-385 0-385 264zm142 10q0-158 243-158 246 0 246 158v496q0 76-57.5 116.5T524 911q-129 0-186-40.5T281 754V258zm79 952v199q0 31 31 31h51q29 0 29-31v-199q0-28-29-28h-51q-31 0-31 28zm222 0v199q0 31 28 31h52q28 0 28-31v-199q0-28-28-28h-52q-28 0-28 28z"/><glyph unicode="÷" horiz-adv-x="1204" d="M162 625v61q0 17 6.5 23t21.5 6h822q30 0 30-29v-61q0-31-30-31H193q-17 0-24 7t-7 24zm368-389v159q0 31 31 31h86q29 0 29-31V236q0-31-29-31h-86q-17 0-24 7t-7 24zm0 686v159q0 31 31 31h86q29 0 29-31V922q0-31-29-31h-86q-17 0-24 7t-7 24z"/><glyph unicode="ø" horiz-adv-x="1050" d="M139 248v516q0 264 385 264 138 0 230-37l20 37q1 2 4.5 8.5t4.5 8.5 4 7 5 7l5.5 5.5 7 5 8.5 2.5 10 1h31q10 0 15-3t4-10-4-14-9-18l-41-72q92-66 92-192V248q0-264-387-264-142 0-231 36l-19-32q-14-26-23-35.5T223-57h-26q-34 0-9 45l37 67q-86 66-86 193zm142 10q0-45 16-76l395 701q-61 28-168 28-129 0-186-40.5T281 754V258zm73-127q60-31 170-31 246 0 246 158v496q0 44-20 77z"/><glyph unicode="ù" d="M150 233v748q0 31 28 31h84q29 0 29-31V266q0-155 182-155 159 0 295 112v758q0 31 29 31h84q28 0 28-31V31q0-17-6.5-24T881 0h-76q-17 0-23 6.5T774 31l-4 73Q630-16 434-16q-138 0-211 68t-73 181zm167.5 1207.5q3.5 9.5 20.5 9.5h90q11 0 19-4.5t11.5-9.5l10.5-15 137-229q8-14 3.5-21.5T592 1163h-70q-23 0-37 19l-161 237q-10 12-6.5 21.5z"/><glyph unicode="ú" d="M150 233v748q0 31 28 31h84q29 0 29-31V266q0-155 182-155 159 0 295 112v758q0 31 29 31h84q28 0 28-31V31q0-17-6.5-24T881 0h-76q-17 0-23 6.5T774 31l-4 73Q630-16 434-16q-138 0-211 68t-73 181zm310 937.5q-5 7.5 3 21.5l137 229q18 29 41 29h90q17 0 20.5-9.5T745 1419l-161-237q-14-19-37-19h-68q-14 0-19 7.5z"/><glyph unicode="û" d="M150 233v748q0 31 28 31h84q29 0 29-31V266q0-155 182-155 159 0 295 112v758q0 31 29 31h84q28 0 28-31V31q0-17-6.5-24T881 0h-76q-17 0-23 6.5T774 31l-4 73Q630-16 434-16q-138 0-211 68t-73 181zm140 938.5q-4 8.5 5 20.5l156 227q23 31 47 31h53q25 0 47-29l160-229q8-12 3-20.5t-20-8.5h-65q-23 0-41 29l-109 168-108-168q-17-29-41-29h-66q-17 0-21 8.5z"/><glyph unicode="ü" d="M150 233v748q0 31 28 31h84q29 0 29-31V266q0-155 182-155 159 0 295 112v758q0 31 29 31h84q28 0 28-31V31q0-17-6.5-24T881 0h-76q-17 0-23 6.5T774 31l-4 73Q630-16 434-16q-138 0-211 68t-73 181zm219 977v199q0 31 30 31h52q28 0 28-31v-199q0-28-28-28h-52q-30 0-30 28zm221 0v199q0 31 28 31h52q28 0 28-31v-199q0-28-28-28h-52q-28 0-28 28z"/><glyph unicode="ý" horiz-adv-x="884" d="M37 981q-4 13 3.5 22t22.5 9h84q25 0 35-31l232-680q8-25 14.5-54.5t10-48.5 3.5-20q19 76 33 119l234 684q10 31 34 31h78q17 0 24.5-8.5T848 981L379-393q-12-31-35-31h-63q-15 0-22 9t-3 22L379-8zm349.5 189.5q-5.5 7.5 2.5 21.5l137 229q18 29 41 29h90q17 0 21-9.5t-6-21.5l-162-237q-14-19-37-19h-67q-14 0-19.5 7.5z"/><glyph unicode="þ" d="M162-393v1794q0 31 28 31h84q29 0 29-31V905q154 123 346 123 143 0 214-70t71-192V246q0-123-71-192.5T649-16q-195 0-346 120v-497q0-31-29-31h-84q-28 0-28 31zm141 616q142-117 307-117 94 0 138.5 44T793 264v484q0 70-44.5 113.5T610 905q-162 0-307-119V223z"/><glyph unicode="ÿ" horiz-adv-x="884" d="M37 981q-4 13 3.5 22t22.5 9h84q25 0 35-31l232-680q8-25 14.5-54.5t10-48.5 3.5-20q19 76 33 119l234 684q10 31 34 31h78q17 0 24.5-8.5T848 981L379-393q-12-31-35-31h-63q-15 0-22 9t-3 22L379-8zm248 229v199q0 31 30 31h52q28 0 28-31v-199q0-28-28-28h-52q-30 0-30 28zm221 0v199q0 31 29 31h51q28 0 28-31v-199q0-28-28-28h-51q-29 0-29 28z"/><glyph unicode="Œ" horiz-adv-x="1789" d="M162 283v827q0 65 22 116.5t71.5 94T393 1386t211 23q187 0 299-80v33q0 31 29 31h700q29 0 29-29v-64q0-28-29-28h-583V788h546q16 0 23.5-6t7.5-22v-60q0-28-31-28h-546V121h608q16 0 22.5-6t6.5-23V31q0-31-29-31H932q-29 0-29 31v32Q797-16 604-16 481-16 393 7T255.5 72.5t-71.5 94T162 283zm145 22q0-201 297-201 292 0 299 191v801q-7 192-299 192-297 0-297-201V305z"/><glyph unicode="œ" horiz-adv-x="1638" d="M139 246v518q0 264 385 264 226 0 307-94 88 94 316 94 200 0 285.5-68.5T1518 764V518q0-29-27-29H909V252q0-77 54-118.5T1147 92q129 0 183 42t54 118v37q0 30 31 30h70q28 0 28-30v-43q0-126-83-194t-283-68q-227 0-316 92-82-92-307-92-385 0-385 262zm142 10q0-158 243-158 246 0 246 158v500q0 157-246 157-243 0-243-157V256zm628 334h475v170q0 76-54 118t-183 42q-130 0-184-41.5T909 760V590z"/><glyph unicode="Ÿ" horiz-adv-x="1058" d="M41.5 1385q5.5 8 21.5 8h99q23 0 37-31l301-594q8-17 15-35.5t11-30 4-12.5q0 13 31 78l311 594q16 31 37 31h86q16 0 22-8t-1-23L604 567V31q0-31-31-31h-86q-30 0-30 31v520L43 1362q-7 15-1.5 23zM365 1554v199q0 15 6.5 22t23.5 7h49q17 0 23-6.5t6-22.5v-199q0-17-6-23.5t-23-6.5h-49q-17 0-23.5 6.5T365 1554zm219 0v199q0 15 6.5 22t23.5 7h50q17 0 23.5-7t6.5-22v-199q0-17-6.5-23.5T664 1524h-50q-17 0-23.5 6.5T584 1554z"/><glyph unicode="ˆ" horiz-adv-x="710" d="M118 1171.5q-4 8.5 5 20.5l156 227q23 31 47 31h53q25 0 47-29l160-229q8-12 3-20.5t-20-8.5h-65q-23 0-41 29l-109 168-108-168q-17-29-41-29h-66q-17 0-21 8.5z"/><glyph unicode="˜" horiz-adv-x="864" d="M135 1210l4 56q11 161 148 161 59 0 112-38l90-66q51-37 78-37 33 0 42.5 19.5T621 1384v17q0 26 32 26h45q27 0 27-32l-2-52q-3-86-44-125.5T573 1178q-57 0-110 36l-92 66q-51 37-76 37-34 0-43.5-19t-11.5-77v-17q0-16-7.5-22t-23.5-6h-47q-27 0-27 34z"/><glyph horiz-adv-x="908"/><glyph horiz-adv-x="1817"/><glyph horiz-adv-x="908"/><glyph horiz-adv-x="1817"/><glyph horiz-adv-x="605"/><glyph horiz-adv-x="454"/><glyph horiz-adv-x="302"/><glyph horiz-adv-x="302"/><glyph horiz-adv-x="227"/><glyph horiz-adv-x="363"/><glyph horiz-adv-x="100"/><glyph unicode="‐" horiz-adv-x="933" d="M162 563v60q0 28 31 28h548q31 0 31-28v-60q0-31-31-31H193q-31 0-31 31z"/><glyph unicode="‑" horiz-adv-x="933" d="M162 563v60q0 28 31 28h548q31 0 31-28v-60q0-31-31-31H193q-31 0-31 31z"/><glyph unicode="‒" horiz-adv-x="933" d="M162 563v60q0 28 31 28h548q31 0 31-28v-60q0-31-31-31H193q-31 0-31 31z"/><glyph unicode="–" horiz-adv-x="1118" d="M162 563v60q0 28 31 28h733q30 0 30-28v-60q0-31-30-31H193q-31 0-31 31z"/><glyph unicode="—" horiz-adv-x="1751" d="M162 563v60q0 28 31 28h1366q30 0 30-28v-60q0-31-30-31H193q-31 0-31 31z"/><glyph unicode="‘" horiz-adv-x="452" d="M139 1112v131q0 188 207 250 28 9 37-18l20-60q5-17 1.5-25t-19.5-14q-57-25-78.5-57t-21.5-82v-125q0-31-29-31h-88q-29 0-29 31z"/><glyph unicode="’" horiz-adv-x="450" d="M47 1159q-10 28 19 39 57 25 78.5 57t21.5 82v125q0 31 29 31h88q28 0 28-31v-131q0-188-207-250-27-9-36 19z"/><glyph unicode="‚" horiz-adv-x="450" d="M47-113Q37-85 66-74q57 25 78.5 57.5T166 66v124q0 31 29 31h88q28 0 28-31V59q0-187-207-249-27-9-36 18z"/><glyph unicode="“" horiz-adv-x="774" d="M139 1112v131q0 188 207 250 28 9 37-18l20-60q5-17 1.5-25t-19.5-14q-57-25-78.5-57t-21.5-82v-125q0-31-29-31h-88q-29 0-29 31zm324 0v131q0 188 207 250 28 9 37-18l20-60q5-17 1.5-25t-19.5-14q-58-25-79.5-57t-21.5-82v-125q0-31-28-31h-88q-29 0-29 31z"/><glyph unicode="”" horiz-adv-x="774" d="M47 1159q-10 28 19 39 57 25 78.5 57t21.5 82v125q0 31 29 31h88q28 0 28-31v-131q0-188-207-250-27-9-36 19zm322.5 25q3.5 8 19.5 14 57 25 78.5 57t21.5 82v125q0 31 29 31h88q29 0 29-31v-131q0-188-207-250-28-9-37 19l-20 59q-5 17-1.5 25z"/><glyph unicode="„" horiz-adv-x="774" d="M47-113Q37-85 66-74q57 25 78.5 57.5T166 66v124q0 31 29 31h88q28 0 28-31V59q0-187-207-249-27-9-36 18zm322.5 25q3.5 8 19.5 14 57 25 78.5 57.5T489 66v124q0 31 29 31h88q29 0 29-31V59q0-187-207-249-28-9-37 18l-20 59q-5 17-1.5 25z"/><glyph unicode="•" horiz-adv-x="514" d="M186 406v264q0 17 7 23.5t22 6.5h86q15 0 22-6.5t7-23.5V406q0-31-29-31h-86q-29 0-29 31z"/><glyph unicode="…" horiz-adv-x="1466" d="M154 31v159q0 31 30 31h86q29 0 29-31V31q0-31-29-31h-86q-17 0-23.5 7T154 31zm508 0v159q0 31 30 31h86q29 0 29-31V31q0-31-29-31h-86q-17 0-23.5 7T662 31zm505 0v159q0 31 31 31h86q29 0 29-31V31q0-31-29-31h-86q-17 0-24 7t-7 24z"/><glyph horiz-adv-x="363"/><glyph unicode="‹" horiz-adv-x="763" d="M164 461v84q0 17 26 39l379 284q11 10 21 5.5t10-21.5v-88q0-11-5.5-20t-9.5-12.5-16-12.5L279 502l290-215q31-23 31-47v-88q0-14-11-19.5t-20 2.5L190 420q-26 22-26 41z"/><glyph unicode="›" horiz-adv-x="763" d="M164 152v88q0 24 31 47l290 215-290 217q-12 9-16 12.5t-9.5 12.5-5.5 20v88q0 17 10 21.5t21-5.5l378-284q27-22 27-39v-84q0-19-27-41L195 135q-9-8-20-2.5T164 152z"/><glyph horiz-adv-x="454"/><glyph unicode="€" horiz-adv-x="1329" d="M170 553v35q0 17 7 23.5t24 6.5h94v156h-94q-17 0-24 7t-7 24v37q0 15 7 21.5t24 6.5h94v240q0 299 432 299t432-299v-104q0-33-29-33h-81q-31 0-31 33v81q0 95-67 146t-222 51-222-51-67-146V870h320q28 0 28-28v-37q0-17-6.5-24t-21.5-7H440V618h320q15 0 21.5-6.5T788 588v-35q0-17-6.5-24t-21.5-7H440V305q0-95 67-145.5T729 109t222 50.5 67 145.5v109q0 30 31 30h81q29 0 29-30V283q0-299-432-299T295 283v239h-94q-17 0-24 7t-7 24z"/><glyph unicode="™" horiz-adv-x="1830" d="M184 1315v53q0 25 27 25h555q27 0 27-25v-53q0-25-27-25H549V582q0-25-23-25h-75q-25 0-25 25v708H211q-27 0-27 25zm707-733v786q0 25 22 25h68q17 0 23-13l241-506q12-24 23-57 1 2 6 15t9 24 7 16l240 508q6 13 22 13h70q25 0 25-25V582q0-25-25-25h-70q-24 0-24 25v577q-5-25-19-53l-182-397q-11-25-33-25h-53q-22 0-33 25l-186 401q-6 11-18 55V582q0-25-23-25h-68q-22 0-22 25z"/><glyph unicode="◼" horiz-adv-x="1013" d="M0 0v1014h1014V0H0z"/></font>
</defs>
</svg>
